<svg xmlns="http://www.w3.org/2000/svg" version="1.1" width="596" height="313">
<path d="M 135.878906 182.319336 L 135.878906 175.412109 L 139.729980 175.412109 L 139.729980 176.335938 L 136.738281 176.335938 L 136.738281 182.319336 Z " fill="rgb(0, 0, 0)" fill-opacity="1.000000" />
<path d="M 135.878906 195.319336 L 135.878906 181.300781 L 136.738281 181.300781 L 136.738281 195.319336 Z " fill="rgb(0, 0, 0)" fill-opacity="1.000000" />
<path d="M 135.878906 208.319336 L 135.878906 194.300781 L 136.738281 194.300781 L 136.738281 208.319336 Z " fill="rgb(0, 0, 0)" fill-opacity="1.000000" />
<path d="M 135.878906 221.319336 L 135.878906 207.300781 L 136.738281 207.300781 L 136.738281 221.319336 Z " fill="rgb(0, 0, 0)" fill-opacity="1.000000" />
<path d="M 135.878906 234.319336 L 135.878906 220.300781 L 136.738281 220.300781 L 136.738281 234.319336 Z " fill="rgb(0, 0, 0)" fill-opacity="1.000000" />
<path d="M 135.878906 247.319336 L 135.878906 233.300781 L 136.738281 233.300781 L 136.738281 247.319336 Z " fill="rgb(0, 0, 0)" fill-opacity="1.000000" />
<path d="M 135.878906 254.335938 L 135.878906 246.300781 L 136.738281 246.300781 L 136.738281 253.412109 L 139.729980 253.412109 L 139.729980 254.335938 Z " fill="rgb(0, 0, 0)" fill-opacity="1.000000" />
<path d="M 154.032227 293.142578 Q 154.032227 291.251953 155.670410 290.306641 Q 156.486816 289.833984 157.308594 289.833984 Q 158.125000 289.833984 158.946777 290.306641 Q 160.590332 291.251953 160.590332 293.142578 Q 160.590332 295.033203 158.946777 295.978516 Q 158.125000 296.451172 157.308594 296.451172 Q 156.486816 296.451172 155.670410 295.978516 Q 154.032227 295.033203 154.032227 293.142578 Z " fill="rgb(0, 0, 0)" fill-opacity="1.000000" />
<path d="M 169.697266 303.005859 L 172.227051 303.005859 L 172.227051 308.231934 L 174.187500 308.231934 L 174.187500 309.000000 L 169.278320 309.000000 L 169.278320 308.231934 L 171.238770 308.231934 L 171.238770 303.773926 L 169.697266 303.773926 Z M 171.238770 300.669434 L 172.227051 300.669434 L 172.227051 301.915527 L 171.238770 301.915527 Z " fill="rgb(0, 0, 0)" fill-opacity="1.000000" />
<path d="M 180.645020 305.272461 L 180.645020 309.000000 L 179.651367 309.000000 L 179.651367 305.272461 Q 179.651367 304.461426 179.366699 304.080078 Q 179.082031 303.698730 178.475098 303.698730 Q 177.782227 303.698730 177.408936 304.190186 Q 177.035645 304.681641 177.035645 305.600098 L 177.035645 309.000000 L 176.047363 309.000000 L 176.047363 302.984375 L 177.035645 302.984375 L 177.035645 303.886719 Q 177.298828 303.371094 177.750000 303.105225 Q 178.201172 302.839355 178.818848 302.839355 Q 179.737305 302.839355 180.191162 303.443604 Q 180.645020 304.047852 180.645020 305.272461 Z " fill="rgb(0, 0, 0)" fill-opacity="1.000000" />
<path d="M 186.608398 303.752441 L 186.608398 300.642578 L 187.596680 300.642578 L 187.596680 309.000000 L 186.608398 309.000000 L 186.608398 308.242676 Q 186.361328 308.688477 185.950439 308.922119 Q 185.539551 309.155762 185.002441 309.155762 Q 183.912109 309.155762 183.286377 308.309814 Q 182.660645 307.463867 182.660645 305.976074 Q 182.660645 304.509766 183.289062 303.674561 Q 183.917480 302.839355 185.002441 302.839355 Q 185.544922 302.839355 185.958496 303.072998 Q 186.372070 303.306641 186.608398 303.752441 Z M 183.702637 305.997559 Q 183.702637 307.146973 184.067871 307.732422 Q 184.433105 308.317871 185.147461 308.317871 Q 185.861816 308.317871 186.235107 307.727051 Q 186.608398 307.136230 186.608398 305.997559 Q 186.608398 304.853516 186.235107 304.265381 Q 185.861816 303.677246 185.147461 303.677246 Q 184.433105 303.677246 184.067871 304.262695 Q 183.702637 304.848145 183.702637 305.997559 Z " fill="rgb(0, 0, 0)" fill-opacity="1.000000" />
<path d="M 195.015625 305.498047 L 195.015625 305.981445 L 190.734863 305.981445 L 190.734863 306.013672 Q 190.691895 307.243652 191.204834 307.780762 Q 191.717773 308.317871 192.652344 308.317871 Q 193.125000 308.317871 193.640625 308.167480 Q 194.156250 308.017090 194.741699 307.710938 L 194.741699 308.693848 Q 194.177734 308.924805 193.654053 309.040283 Q 193.130371 309.155762 192.641602 309.155762 Q 191.239746 309.155762 190.450195 308.315186 Q 189.660645 307.474609 189.660645 305.997559 Q 189.660645 304.558105 190.434082 303.698730 Q 191.207520 302.839355 192.496582 302.839355 Q 193.645996 302.839355 194.309326 303.618164 Q 194.972656 304.396973 195.015625 305.498047 Z M 194.027344 305.208008 Q 193.962891 304.584961 193.573486 304.131104 Q 193.184082 303.677246 192.453613 303.677246 Q 191.739258 303.677246 191.277344 304.149902 Q 190.815430 304.622559 190.772461 305.213379 Z " fill="rgb(0, 0, 0)" fill-opacity="1.000000" />
<path d="M 202.004883 302.984375 L 199.851074 305.863281 L 202.214355 309.000000 L 201.070312 309.000000 L 199.308594 306.588379 L 197.552246 309.000000 L 196.408203 309.000000 L 198.771484 305.863281 L 196.617676 302.984375 L 197.713379 302.984375 L 199.308594 305.159668 L 200.893066 302.984375 Z " fill="rgb(0, 0, 0)" fill-opacity="1.000000" />
<path d="M 209.574219 310.020508 L 209.574219 310.933594 L 203.000000 310.933594 L 203.000000 310.020508 Z " fill="rgb(0, 0, 0)" fill-opacity="1.000000" />
<path d="M 214.608398 305.943848 Q 214.608398 304.832031 214.245850 304.254639 Q 213.883301 303.677246 213.190430 303.677246 Q 212.465332 303.677246 212.083984 304.254639 Q 211.702637 304.832031 211.702637 305.943848 Q 211.702637 307.055664 212.086670 307.638428 Q 212.470703 308.221191 213.201172 308.221191 Q 213.883301 308.221191 214.245850 307.635742 Q 214.608398 307.050293 214.608398 305.943848 Z M 215.596680 308.613281 Q 215.596680 309.966797 214.957520 310.665039 Q 214.318359 311.363281 213.077637 311.363281 Q 212.669434 311.363281 212.223633 311.288086 Q 211.777832 311.212891 211.332031 311.067871 L 211.332031 310.090332 Q 211.858398 310.337402 212.288086 310.455566 Q 212.717773 310.573730 213.077637 310.573730 Q 213.877930 310.573730 214.243164 310.138672 Q 214.608398 309.703613 214.608398 308.758301 L 214.608398 308.715332 L 214.608398 308.043945 Q 214.372070 308.548828 213.963867 308.795898 Q 213.555664 309.042969 212.970215 309.042969 Q 211.917480 309.042969 211.289062 308.199707 Q 210.660645 307.356445 210.660645 305.943848 Q 210.660645 304.525879 211.289062 303.682617 Q 211.917480 302.839355 212.970215 302.839355 Q 213.550293 302.839355 213.953125 303.070312 Q 214.355957 303.301270 214.608398 303.784668 L 214.608398 303.005859 L 215.596680 303.005859 Z " fill="rgb(0, 0, 0)" fill-opacity="1.000000" />
<path d="M 223.015625 305.498047 L 223.015625 305.981445 L 218.734863 305.981445 L 218.734863 306.013672 Q 218.691895 307.243652 219.204834 307.780762 Q 219.717773 308.317871 220.652344 308.317871 Q 221.125000 308.317871 221.640625 308.167480 Q 222.156250 308.017090 222.741699 307.710938 L 222.741699 308.693848 Q 222.177734 308.924805 221.654053 309.040283 Q 221.130371 309.155762 220.641602 309.155762 Q 219.239746 309.155762 218.450195 308.315186 Q 217.660645 307.474609 217.660645 305.997559 Q 217.660645 304.558105 218.434082 303.698730 Q 219.207520 302.839355 220.496582 302.839355 Q 221.645996 302.839355 222.309326 303.618164 Q 222.972656 304.396973 223.015625 305.498047 Z M 222.027344 305.208008 Q 221.962891 304.584961 221.573486 304.131104 Q 221.184082 303.677246 220.453613 303.677246 Q 219.739258 303.677246 219.277344 304.149902 Q 218.815430 304.622559 218.772461 305.213379 Z " fill="rgb(0, 0, 0)" fill-opacity="1.000000" />
<path d="M 227.297852 301.276367 L 227.297852 302.984375 L 229.542969 302.984375 L 229.542969 303.752441 L 227.297852 303.752441 L 227.297852 307.018066 Q 227.297852 307.684082 227.550293 307.947266 Q 227.802734 308.210449 228.431152 308.210449 L 229.542969 308.210449 L 229.542969 309.000000 L 228.334473 309.000000 Q 227.222656 309.000000 226.766113 308.554199 Q 226.309570 308.108398 226.309570 307.018066 L 226.309570 303.752441 L 224.703613 303.752441 L 224.703613 302.984375 L 226.309570 302.984375 L 226.309570 301.276367 Z " fill="rgb(0, 0, 0)" fill-opacity="1.000000" />
<path d="M 236.645020 305.272461 L 236.645020 309.000000 L 235.651367 309.000000 L 235.651367 305.272461 Q 235.651367 304.461426 235.366699 304.080078 Q 235.082031 303.698730 234.475098 303.698730 Q 233.782227 303.698730 233.408936 304.190186 Q 233.035645 304.681641 233.035645 305.600098 L 233.035645 309.000000 L 232.047363 309.000000 L 232.047363 302.984375 L 233.035645 302.984375 L 233.035645 303.886719 Q 233.298828 303.371094 233.750000 303.105225 Q 234.201172 302.839355 234.818848 302.839355 Q 235.737305 302.839355 236.191162 303.443604 Q 236.645020 304.047852 236.645020 305.272461 Z " fill="rgb(0, 0, 0)" fill-opacity="1.000000" />
<path d="M 244.015625 305.498047 L 244.015625 305.981445 L 239.734863 305.981445 L 239.734863 306.013672 Q 239.691895 307.243652 240.204834 307.780762 Q 240.717773 308.317871 241.652344 308.317871 Q 242.125000 308.317871 242.640625 308.167480 Q 243.156250 308.017090 243.741699 307.710938 L 243.741699 308.693848 Q 243.177734 308.924805 242.654053 309.040283 Q 242.130371 309.155762 241.641602 309.155762 Q 240.239746 309.155762 239.450195 308.315186 Q 238.660645 307.474609 238.660645 305.997559 Q 238.660645 304.558105 239.434082 303.698730 Q 240.207520 302.839355 241.496582 302.839355 Q 242.645996 302.839355 243.309326 303.618164 Q 243.972656 304.396973 244.015625 305.498047 Z M 243.027344 305.208008 Q 242.962891 304.584961 242.573486 304.131104 Q 242.184082 303.677246 241.453613 303.677246 Q 240.739258 303.677246 240.277344 304.149902 Q 239.815430 304.622559 239.772461 305.213379 Z " fill="rgb(0, 0, 0)" fill-opacity="1.000000" />
<path d="M 251.004883 302.984375 L 248.851074 305.863281 L 251.214355 309.000000 L 250.070312 309.000000 L 248.308594 306.588379 L 246.552246 309.000000 L 245.408203 309.000000 L 247.771484 305.863281 L 245.617676 302.984375 L 246.713379 302.984375 L 248.308594 305.159668 L 249.893066 302.984375 Z " fill="rgb(0, 0, 0)" fill-opacity="1.000000" />
<path d="M 255.297852 301.276367 L 255.297852 302.984375 L 257.542969 302.984375 L 257.542969 303.752441 L 255.297852 303.752441 L 255.297852 307.018066 Q 255.297852 307.684082 255.550293 307.947266 Q 255.802734 308.210449 256.431152 308.210449 L 257.542969 308.210449 L 257.542969 309.000000 L 256.334473 309.000000 Q 255.222656 309.000000 254.766113 308.554199 Q 254.309570 308.108398 254.309570 307.018066 L 254.309570 303.752441 L 252.703613 303.752441 L 252.703613 302.984375 L 254.309570 302.984375 L 254.309570 301.276367 Z " fill="rgb(0, 0, 0)" fill-opacity="1.000000" />
<path d="M 269.861816 306.824707 Q 269.861816 307.490723 270.106201 307.829102 Q 270.350586 308.167480 270.828613 308.167480 L 271.983398 308.167480 L 271.983398 309.000000 L 270.731934 309.000000 Q 269.845703 309.000000 269.359619 308.433350 Q 268.873535 307.866699 268.873535 306.824707 L 268.873535 301.383789 L 267.289062 301.383789 L 267.289062 300.610352 L 269.861816 300.610352 Z " fill="rgb(0, 0, 0)" fill-opacity="1.000000" />
<path d="M 276.308594 303.677246 Q 275.556641 303.677246 275.169922 304.262695 Q 274.783203 304.848145 274.783203 305.997559 Q 274.783203 307.141602 275.169922 307.729736 Q 275.556641 308.317871 276.308594 308.317871 Q 277.065918 308.317871 277.452637 307.729736 Q 277.839355 307.141602 277.839355 305.997559 Q 277.839355 304.848145 277.452637 304.262695 Q 277.065918 303.677246 276.308594 303.677246 Z M 276.308594 302.839355 Q 277.560059 302.839355 278.223389 303.650391 Q 278.886719 304.461426 278.886719 305.997559 Q 278.886719 307.539062 278.226074 308.347412 Q 277.565430 309.155762 276.308594 309.155762 Q 275.057129 309.155762 274.396484 308.347412 Q 273.735840 307.539062 273.735840 305.997559 Q 273.735840 304.461426 274.396484 303.650391 Q 275.057129 302.839355 276.308594 302.839355 Z " fill="rgb(0, 0, 0)" fill-opacity="1.000000" />
<path d="M 283.308594 303.677246 Q 282.556641 303.677246 282.169922 304.262695 Q 281.783203 304.848145 281.783203 305.997559 Q 281.783203 307.141602 282.169922 307.729736 Q 282.556641 308.317871 283.308594 308.317871 Q 284.065918 308.317871 284.452637 307.729736 Q 284.839355 307.141602 284.839355 305.997559 Q 284.839355 304.848145 284.452637 304.262695 Q 284.065918 303.677246 283.308594 303.677246 Z M 283.308594 302.839355 Q 284.560059 302.839355 285.223389 303.650391 Q 285.886719 304.461426 285.886719 305.997559 Q 285.886719 307.539062 285.226074 308.347412 Q 284.565430 309.155762 283.308594 309.155762 Q 282.057129 309.155762 281.396484 308.347412 Q 280.735840 307.539062 280.735840 305.997559 Q 280.735840 304.461426 281.396484 303.650391 Q 282.057129 302.839355 283.308594 302.839355 Z " fill="rgb(0, 0, 0)" fill-opacity="1.000000" />
<path d="M 289.014160 308.242676 L 289.014160 311.288086 L 288.020508 311.288086 L 288.020508 302.984375 L 289.014160 302.984375 L 289.014160 303.752441 Q 289.261230 303.306641 289.672119 303.072998 Q 290.083008 302.839355 290.620117 302.839355 Q 291.710449 302.839355 292.330811 303.682617 Q 292.951172 304.525879 292.951172 306.019043 Q 292.951172 307.485352 292.328125 308.320557 Q 291.705078 309.155762 290.620117 309.155762 Q 290.072266 309.155762 289.661377 308.922119 Q 289.250488 308.688477 289.014160 308.242676 Z M 291.914551 305.997559 Q 291.914551 304.848145 291.552002 304.262695 Q 291.189453 303.677246 290.475098 303.677246 Q 289.755371 303.677246 289.384766 304.265381 Q 289.014160 304.853516 289.014160 305.997559 Q 289.014160 307.136230 289.384766 307.727051 Q 289.755371 308.317871 290.475098 308.317871 Q 291.189453 308.317871 291.552002 307.732422 Q 291.914551 307.146973 291.914551 305.997559 Z " fill="rgb(0, 0, 0)" fill-opacity="1.000000" />
<path d="M 298.774902 300.980957 L 299.795410 300.980957 L 295.573730 310.020508 L 294.547852 310.020508 Z " fill="rgb(0, 0, 0)" fill-opacity="1.000000" />
<path d="M 306.226074 303.193848 L 306.226074 304.160645 Q 305.801758 303.913574 305.372070 303.790039 Q 304.942383 303.666504 304.496582 303.666504 Q 303.825195 303.666504 303.494873 303.884033 Q 303.164551 304.101562 303.164551 304.547363 Q 303.164551 304.950195 303.411621 305.148926 Q 303.658691 305.347656 304.641602 305.535645 L 305.039062 305.610840 Q 305.774902 305.750488 306.153564 306.169434 Q 306.532227 306.588379 306.532227 307.259766 Q 306.532227 308.151367 305.898438 308.653564 Q 305.264648 309.155762 304.136719 309.155762 Q 303.690918 309.155762 303.202148 309.061768 Q 302.713379 308.967773 302.144043 308.779785 L 302.144043 307.759277 Q 302.697266 308.043945 303.202148 308.186279 Q 303.707031 308.328613 304.158203 308.328613 Q 304.813477 308.328613 305.173340 308.062744 Q 305.533203 307.796875 305.533203 307.318848 Q 305.533203 306.631348 304.217285 306.368164 L 304.174316 306.357422 L 303.803711 306.282227 Q 302.949707 306.115723 302.557617 305.720947 Q 302.165527 305.326172 302.165527 304.644043 Q 302.165527 303.779297 302.750977 303.309326 Q 303.336426 302.839355 304.421387 302.839355 Q 304.904785 302.839355 305.350586 302.927979 Q 305.796387 303.016602 306.226074 303.193848 Z " fill="rgb(0, 0, 0)" fill-opacity="1.000000" />
<path d="M 314.015625 305.498047 L 314.015625 305.981445 L 309.734863 305.981445 L 309.734863 306.013672 Q 309.691895 307.243652 310.204834 307.780762 Q 310.717773 308.317871 311.652344 308.317871 Q 312.125000 308.317871 312.640625 308.167480 Q 313.156250 308.017090 313.741699 307.710938 L 313.741699 308.693848 Q 313.177734 308.924805 312.654053 309.040283 Q 312.130371 309.155762 311.641602 309.155762 Q 310.239746 309.155762 309.450195 308.315186 Q 308.660645 307.474609 308.660645 305.997559 Q 308.660645 304.558105 309.434082 303.698730 Q 310.207520 302.839355 311.496582 302.839355 Q 312.645996 302.839355 313.309326 303.618164 Q 313.972656 304.396973 314.015625 305.498047 Z M 313.027344 305.208008 Q 312.962891 304.584961 312.573486 304.131104 Q 312.184082 303.677246 311.453613 303.677246 Q 310.739258 303.677246 310.277344 304.149902 Q 309.815430 304.622559 309.772461 305.213379 Z " fill="rgb(0, 0, 0)" fill-opacity="1.000000" />
<path d="M 321.015625 305.498047 L 321.015625 305.981445 L 316.734863 305.981445 L 316.734863 306.013672 Q 316.691895 307.243652 317.204834 307.780762 Q 317.717773 308.317871 318.652344 308.317871 Q 319.125000 308.317871 319.640625 308.167480 Q 320.156250 308.017090 320.741699 307.710938 L 320.741699 308.693848 Q 320.177734 308.924805 319.654053 309.040283 Q 319.130371 309.155762 318.641602 309.155762 Q 317.239746 309.155762 316.450195 308.315186 Q 315.660645 307.474609 315.660645 305.997559 Q 315.660645 304.558105 316.434082 303.698730 Q 317.207520 302.839355 318.496582 302.839355 Q 319.645996 302.839355 320.309326 303.618164 Q 320.972656 304.396973 321.015625 305.498047 Z M 320.027344 305.208008 Q 319.962891 304.584961 319.573486 304.131104 Q 319.184082 303.677246 318.453613 303.677246 Q 317.739258 303.677246 317.277344 304.149902 Q 316.815430 304.622559 316.772461 305.213379 Z " fill="rgb(0, 0, 0)" fill-opacity="1.000000" />
<path d="M 323.267578 300.642578 L 324.288086 300.642578 L 324.288086 305.481934 L 326.882324 302.984375 L 328.085449 302.984375 L 325.716797 305.250977 L 328.456055 309.000000 L 327.247559 309.000000 L 325.023926 305.895508 L 324.288086 306.588379 L 324.288086 309.000000 L 323.267578 309.000000 Z " fill="rgb(0, 0, 0)" fill-opacity="1.000000" />
<path d="M 160.892578 293.797852 L 160.892578 291.950195 L 167.729980 291.950195 L 167.729980 293.797852 Z " fill="rgb(0, 0, 0)" fill-opacity="1.000000" />
<path d="M 167.892578 293.797852 L 167.892578 291.950195 L 174.729980 291.950195 L 174.729980 293.797852 Z " fill="rgb(0, 0, 0)" fill-opacity="1.000000" />
<path d="M 174.892578 293.797852 L 174.892578 291.950195 L 181.729980 291.950195 L 181.729980 293.797852 Z " fill="rgb(0, 0, 0)" fill-opacity="1.000000" />
<path d="M 181.892578 293.797852 L 181.892578 291.950195 L 188.729980 291.950195 L 188.729980 293.797852 Z " fill="rgb(0, 0, 0)" fill-opacity="1.000000" />
<path d="M 188.892578 293.797852 L 188.892578 291.950195 L 195.729980 291.950195 L 195.729980 293.797852 Z " fill="rgb(0, 0, 0)" fill-opacity="1.000000" />
<path d="M 195.892578 293.797852 L 195.892578 291.950195 L 202.729980 291.950195 L 202.729980 293.797852 Z " fill="rgb(0, 0, 0)" fill-opacity="1.000000" />
<path d="M 202.892578 293.797852 L 202.892578 291.950195 L 209.729980 291.950195 L 209.729980 293.797852 Z " fill="rgb(0, 0, 0)" fill-opacity="1.000000" />
<path d="M 209.892578 293.797852 L 209.892578 291.950195 L 216.729980 291.950195 L 216.729980 293.797852 Z " fill="rgb(0, 0, 0)" fill-opacity="1.000000" />
<path d="M 216.892578 293.797852 L 216.892578 291.950195 L 223.729980 291.950195 L 223.729980 293.797852 Z " fill="rgb(0, 0, 0)" fill-opacity="1.000000" />
<path d="M 223.892578 293.797852 L 223.892578 291.950195 L 230.729980 291.950195 L 230.729980 293.797852 Z " fill="rgb(0, 0, 0)" fill-opacity="1.000000" />
<path d="M 230.892578 293.797852 L 230.892578 291.950195 L 237.729980 291.950195 L 237.729980 293.797852 Z " fill="rgb(0, 0, 0)" fill-opacity="1.000000" />
<path d="M 237.892578 293.797852 L 237.892578 291.950195 L 244.729980 291.950195 L 244.729980 293.797852 Z " fill="rgb(0, 0, 0)" fill-opacity="1.000000" />
<path d="M 244.892578 293.797852 L 244.892578 291.950195 L 251.729980 291.950195 L 251.729980 293.797852 Z " fill="rgb(0, 0, 0)" fill-opacity="1.000000" />
<path d="M 251.892578 293.797852 L 251.892578 291.950195 L 258.729980 291.950195 L 258.729980 293.797852 Z " fill="rgb(0, 0, 0)" fill-opacity="1.000000" />
<path d="M 258.892578 293.797852 L 258.892578 291.950195 L 265.729980 291.950195 L 265.729980 293.797852 Z " fill="rgb(0, 0, 0)" fill-opacity="1.000000" />
<path d="M 265.892578 293.797852 L 265.892578 291.950195 L 272.729980 291.950195 L 272.729980 293.797852 Z " fill="rgb(0, 0, 0)" fill-opacity="1.000000" />
<path d="M 272.892578 293.797852 L 272.892578 291.950195 L 279.729980 291.950195 L 279.729980 293.797852 Z " fill="rgb(0, 0, 0)" fill-opacity="1.000000" />
<path d="M 279.892578 293.797852 L 279.892578 291.950195 L 286.729980 291.950195 L 286.729980 293.797852 Z " fill="rgb(0, 0, 0)" fill-opacity="1.000000" />
<path d="M 286.892578 293.797852 L 286.892578 291.950195 L 293.729980 291.950195 L 293.729980 293.797852 Z " fill="rgb(0, 0, 0)" fill-opacity="1.000000" />
<path d="M 293.892578 293.797852 L 293.892578 291.950195 L 300.729980 291.950195 L 300.729980 293.797852 Z " fill="rgb(0, 0, 0)" fill-opacity="1.000000" />
<path d="M 300.892578 293.797852 L 300.892578 291.950195 L 307.729980 291.950195 L 307.729980 293.797852 Z " fill="rgb(0, 0, 0)" fill-opacity="1.000000" />
<path d="M 307.892578 293.797852 L 307.892578 291.950195 L 314.729980 291.950195 L 314.729980 293.797852 Z " fill="rgb(0, 0, 0)" fill-opacity="1.000000" />
<path d="M 314.892578 293.797852 L 314.892578 291.950195 L 321.729980 291.950195 L 321.729980 293.797852 Z " fill="rgb(0, 0, 0)" fill-opacity="1.000000" />
<path d="M 321.892578 293.797852 L 321.892578 291.950195 L 328.729980 291.950195 L 328.729980 293.797852 Z " fill="rgb(0, 0, 0)" fill-opacity="1.000000" />
<path d="M 328.892578 293.797852 L 328.892578 291.950195 L 335.729980 291.950195 L 335.729980 293.797852 Z " fill="rgb(0, 0, 0)" fill-opacity="1.000000" />
<path d="M 335.892578 293.797852 L 335.892578 291.950195 L 342.729980 291.950195 L 342.729980 293.797852 Z " fill="rgb(0, 0, 0)" fill-opacity="1.000000" />
<path d="M 342.892578 293.797852 L 342.892578 291.950195 L 349.729980 291.950195 L 349.729980 293.797852 Z " fill="rgb(0, 0, 0)" fill-opacity="1.000000" />
<path d="M 349.892578 293.797852 L 349.892578 291.950195 L 356.729980 291.950195 L 356.729980 293.797852 Z " fill="rgb(0, 0, 0)" fill-opacity="1.000000" />
<path d="M 356.892578 293.797852 L 356.892578 291.950195 L 363.729980 291.950195 L 363.729980 293.797852 Z " fill="rgb(0, 0, 0)" fill-opacity="1.000000" />
<path d="M 363.892578 293.797852 L 363.892578 291.950195 L 370.729980 291.950195 L 370.729980 293.797852 Z " fill="rgb(0, 0, 0)" fill-opacity="1.000000" />
<path d="M 370.892578 293.797852 L 370.892578 291.950195 L 377.729980 291.950195 L 377.729980 293.797852 Z " fill="rgb(0, 0, 0)" fill-opacity="1.000000" />
<path d="M 377.892578 293.797852 L 377.892578 291.950195 L 384.729980 291.950195 L 384.729980 293.797852 Z " fill="rgb(0, 0, 0)" fill-opacity="1.000000" />
<path d="M 384.892578 293.797852 L 384.892578 291.950195 L 391.729980 291.950195 L 391.729980 293.797852 Z " fill="rgb(0, 0, 0)" fill-opacity="1.000000" />
<path d="M 391.892578 293.797852 L 391.892578 291.950195 L 398.729980 291.950195 L 398.729980 293.797852 Z " fill="rgb(0, 0, 0)" fill-opacity="1.000000" />
<path d="M 398.892578 293.797852 L 398.892578 291.950195 L 405.729980 291.950195 L 405.729980 293.797852 Z " fill="rgb(0, 0, 0)" fill-opacity="1.000000" />
<path d="M 405.892578 293.797852 L 405.892578 291.950195 L 412.729980 291.950195 L 412.729980 293.797852 Z " fill="rgb(0, 0, 0)" fill-opacity="1.000000" />
<path d="M 412.892578 293.797852 L 412.892578 291.950195 L 419.729980 291.950195 L 419.729980 293.797852 Z " fill="rgb(0, 0, 0)" fill-opacity="1.000000" />
<path d="M 419.892578 293.797852 L 419.892578 291.950195 L 426.729980 291.950195 L 426.729980 293.797852 Z " fill="rgb(0, 0, 0)" fill-opacity="1.000000" />
<path d="M 426.892578 293.797852 L 426.892578 291.950195 L 433.729980 291.950195 L 433.729980 293.797852 Z " fill="rgb(0, 0, 0)" fill-opacity="1.000000" />
<path d="M 433.892578 293.797852 L 433.892578 291.950195 L 440.729980 291.950195 L 440.729980 293.797852 Z " fill="rgb(0, 0, 0)" fill-opacity="1.000000" />
<path d="M 440.892578 293.797852 L 440.892578 291.950195 L 447.729980 291.950195 L 447.729980 293.797852 Z " fill="rgb(0, 0, 0)" fill-opacity="1.000000" />
<path d="M 447.892578 293.797852 L 447.892578 291.950195 L 454.729980 291.950195 L 454.729980 293.797852 Z " fill="rgb(0, 0, 0)" fill-opacity="1.000000" />
<path d="M 454.892578 293.797852 L 454.892578 291.950195 L 461.729980 291.950195 L 461.729980 293.797852 Z " fill="rgb(0, 0, 0)" fill-opacity="1.000000" />
<path d="M 461.892578 293.797852 L 461.892578 291.950195 L 468.729980 291.950195 L 468.729980 293.797852 Z " fill="rgb(0, 0, 0)" fill-opacity="1.000000" />
<path d="M 468.892578 293.797852 L 468.892578 291.950195 L 475.729980 291.950195 L 475.729980 293.797852 Z " fill="rgb(0, 0, 0)" fill-opacity="1.000000" />
<path d="M 475.892578 293.797852 L 475.892578 291.950195 L 482.729980 291.950195 L 482.729980 293.797852 Z " fill="rgb(0, 0, 0)" fill-opacity="1.000000" />
<path d="M 482.892578 293.797852 L 482.892578 291.950195 L 489.729980 291.950195 L 489.729980 293.797852 Z " fill="rgb(0, 0, 0)" fill-opacity="1.000000" />
<path d="M 489.892578 293.797852 L 489.892578 291.950195 L 496.729980 291.950195 L 496.729980 293.797852 Z " fill="rgb(0, 0, 0)" fill-opacity="1.000000" />
<path d="M 496.892578 293.797852 L 496.892578 291.950195 L 503.729980 291.950195 L 503.729980 293.797852 Z " fill="rgb(0, 0, 0)" fill-opacity="1.000000" />
<path d="M 503.892578 293.797852 L 503.892578 291.950195 L 510.729980 291.950195 L 510.729980 293.797852 Z " fill="rgb(0, 0, 0)" fill-opacity="1.000000" />
<path d="M 510.892578 293.797852 L 510.892578 291.950195 L 517.729980 291.950195 L 517.729980 293.797852 Z " fill="rgb(0, 0, 0)" fill-opacity="1.000000" />
<path d="M 517.892578 293.797852 L 517.892578 291.950195 L 524.729980 291.950195 L 524.729980 293.797852 Z " fill="rgb(0, 0, 0)" fill-opacity="1.000000" />
<path d="M 524.892578 293.797852 L 524.892578 291.950195 L 531.729980 291.950195 L 531.729980 293.797852 Z " fill="rgb(0, 0, 0)" fill-opacity="1.000000" />
<path d="M 531.892578 293.797852 L 531.892578 291.950195 L 538.729980 291.950195 L 538.729980 293.797852 Z " fill="rgb(0, 0, 0)" fill-opacity="1.000000" />
<path d="M 538.892578 293.797852 L 538.892578 291.950195 L 545.729980 291.950195 L 545.729980 293.797852 Z " fill="rgb(0, 0, 0)" fill-opacity="1.000000" />
<path d="M 545.892578 293.797852 L 545.892578 291.950195 L 552.729980 291.950195 L 552.729980 293.797852 Z " fill="rgb(0, 0, 0)" fill-opacity="1.000000" />
<path d="M 552.892578 293.797852 L 552.892578 291.950195 L 559.729980 291.950195 L 559.729980 293.797852 Z " fill="rgb(0, 0, 0)" fill-opacity="1.000000" />
<path d="M 559.892578 293.797852 L 559.892578 291.950195 L 566.729980 291.950195 L 566.729980 293.797852 Z " fill="rgb(0, 0, 0)" fill-opacity="1.000000" />
<path d="M 566.892578 293.797852 L 566.892578 291.950195 L 573.729980 291.950195 L 573.729980 293.797852 Z " fill="rgb(0, 0, 0)" fill-opacity="1.000000" />
<path d="M 573.892578 293.797852 L 573.892578 291.950195 L 580.729980 291.950195 L 580.729980 293.797852 Z " fill="rgb(0, 0, 0)" fill-opacity="1.000000" />
<path d="M 580.892578 293.797852 L 580.892578 291.950195 L 587.729980 291.950195 L 587.729980 293.797852 Z " fill="rgb(0, 0, 0)" fill-opacity="1.000000" />
<path d="M 588.032227 296.418945 L 588.032227 289.866211 L 594.590332 293.142578 Z " fill="rgb(0, 0, 0)" fill-opacity="1.000000" />
<path d="M 141.154785 261.980957 L 142.245117 261.980957 L 142.245117 269.086914 L 146.117676 269.086914 L 146.117676 270.000000 L 141.154785 270.000000 Z " fill="rgb(0, 0, 0)" fill-opacity="1.000000" />
<path d="M 151.860840 265.998535 Q 151.860840 264.231445 151.498291 263.474121 Q 151.135742 262.716797 150.308594 262.716797 Q 149.486816 262.716797 149.124268 263.474121 Q 148.761719 264.231445 148.761719 265.998535 Q 148.761719 267.760254 149.124268 268.517578 Q 149.486816 269.274902 150.308594 269.274902 Q 151.135742 269.274902 151.498291 268.520264 Q 151.860840 267.765625 151.860840 265.998535 Z M 152.994141 265.998535 Q 152.994141 268.093262 152.330811 269.124512 Q 151.667480 270.155762 150.308594 270.155762 Q 148.949707 270.155762 148.289062 269.129883 Q 147.628418 268.104004 147.628418 265.998535 Q 147.628418 263.898438 148.291748 262.867188 Q 148.955078 261.835938 150.308594 261.835938 Q 151.667480 261.835938 152.330811 262.867188 Q 152.994141 263.898438 152.994141 265.998535 Z " fill="rgb(0, 0, 0)" fill-opacity="1.000000" />
<path d="M 159.763184 269.715332 Q 159.349609 269.935547 158.914551 270.045654 Q 158.479492 270.155762 157.990723 270.155762 Q 156.449219 270.155762 155.597900 269.065430 Q 154.746582 267.975098 154.746582 265.998535 Q 154.746582 264.032715 155.603271 262.934326 Q 156.459961 261.835938 157.990723 261.835938 Q 158.479492 261.835938 158.914551 261.946045 Q 159.349609 262.056152 159.763184 262.276367 L 159.763184 263.388184 Q 159.365723 263.060547 158.909180 262.888672 Q 158.452637 262.716797 157.990723 262.716797 Q 156.932617 262.716797 156.406250 263.533203 Q 155.879883 264.349609 155.879883 265.998535 Q 155.879883 267.642090 156.406250 268.458496 Q 156.932617 269.274902 157.990723 269.274902 Q 158.463379 269.274902 158.917236 269.103027 Q 159.371094 268.931152 159.763184 268.603516 Z " fill="rgb(0, 0, 0)" fill-opacity="1.000000" />
<path d="M 161.735840 261.980957 L 162.826172 261.980957 L 162.826172 265.547363 L 166.215332 261.980957 L 167.488281 261.980957 L 164.367676 265.257324 L 167.579590 270.000000 L 166.269043 270.000000 L 163.653320 265.982422 L 162.826172 266.863281 L 162.826172 270.000000 L 161.735840 270.000000 Z " fill="rgb(0, 0, 0)" fill-opacity="1.000000" />
<path d="M 170.932617 261.980957 L 172.022949 261.980957 L 172.022949 265.499023 L 171.910156 267.147949 L 171.045410 267.147949 L 170.932617 265.499023 Z M 170.771484 268.635742 L 172.184082 268.635742 L 172.184082 270.000000 L 170.771484 270.000000 Z " fill="rgb(0, 0, 0)" fill-opacity="1.000000" />
<path d="M 139.892578 254.335938 L 139.892578 253.412109 L 146.729980 253.412109 L 146.729980 254.335938 Z " fill="rgb(0, 0, 0)" fill-opacity="1.000000" />
<path d="M 146.892578 254.335938 L 146.892578 253.412109 L 153.729980 253.412109 L 153.729980 254.335938 Z " fill="rgb(0, 0, 0)" fill-opacity="1.000000" />
<path d="M 153.892578 254.335938 L 153.892578 253.412109 L 160.729980 253.412109 L 160.729980 254.335938 Z " fill="rgb(0, 0, 0)" fill-opacity="1.000000" />
<path d="M 160.892578 254.335938 L 160.892578 253.412109 L 167.729980 253.412109 L 167.729980 254.335938 Z " fill="rgb(0, 0, 0)" fill-opacity="1.000000" />
<path d="M 167.892578 254.335938 L 167.892578 253.412109 L 174.729980 253.412109 L 174.729980 254.335938 Z " fill="rgb(0, 0, 0)" fill-opacity="1.000000" />
<path d="M 174.892578 254.335938 L 174.892578 253.412109 L 177.878906 253.412109 L 177.878906 246.300781 L 178.738281 246.300781 L 178.738281 254.335938 Z " fill="rgb(0, 0, 0)" fill-opacity="1.000000" />
<path d="M 212.878906 254.335938 L 212.878906 246.300781 L 213.738281 246.300781 L 213.738281 253.412109 L 216.729980 253.412109 L 216.729980 254.335938 Z " fill="rgb(0, 0, 0)" fill-opacity="1.000000" />
<path d="M 216.892578 254.335938 L 216.892578 253.412109 L 223.729980 253.412109 L 223.729980 254.335938 Z " fill="rgb(0, 0, 0)" fill-opacity="1.000000" />
<path d="M 223.892578 254.335938 L 223.892578 253.412109 L 230.729980 253.412109 L 230.729980 254.335938 Z " fill="rgb(0, 0, 0)" fill-opacity="1.000000" />
<path d="M 230.892578 254.335938 L 230.892578 253.412109 L 237.729980 253.412109 L 237.729980 254.335938 Z " fill="rgb(0, 0, 0)" fill-opacity="1.000000" />
<path d="M 237.892578 254.335938 L 237.892578 253.412109 L 244.729980 253.412109 L 244.729980 254.335938 Z " fill="rgb(0, 0, 0)" fill-opacity="1.000000" />
<path d="M 244.892578 254.335938 L 244.892578 253.412109 L 251.729980 253.412109 L 251.729980 254.335938 Z " fill="rgb(0, 0, 0)" fill-opacity="1.000000" />
<path d="M 251.892578 254.335938 L 251.892578 253.412109 L 254.878906 253.412109 L 254.878906 246.300781 L 255.738281 246.300781 L 255.738281 254.335938 Z " fill="rgb(0, 0, 0)" fill-opacity="1.000000" />
<path d="M 289.878906 254.335938 L 289.878906 246.300781 L 290.738281 246.300781 L 290.738281 253.412109 L 293.729980 253.412109 L 293.729980 254.335938 Z " fill="rgb(0, 0, 0)" fill-opacity="1.000000" />
<path d="M 293.892578 254.335938 L 293.892578 253.412109 L 300.729980 253.412109 L 300.729980 254.335938 Z " fill="rgb(0, 0, 0)" fill-opacity="1.000000" />
<path d="M 300.892578 254.335938 L 300.892578 253.412109 L 307.729980 253.412109 L 307.729980 254.335938 Z " fill="rgb(0, 0, 0)" fill-opacity="1.000000" />
<path d="M 307.892578 254.335938 L 307.892578 253.412109 L 314.729980 253.412109 L 314.729980 254.335938 Z " fill="rgb(0, 0, 0)" fill-opacity="1.000000" />
<path d="M 314.892578 254.335938 L 314.892578 253.412109 L 321.729980 253.412109 L 321.729980 254.335938 Z " fill="rgb(0, 0, 0)" fill-opacity="1.000000" />
<path d="M 321.892578 254.335938 L 321.892578 253.412109 L 328.729980 253.412109 L 328.729980 254.335938 Z " fill="rgb(0, 0, 0)" fill-opacity="1.000000" />
<path d="M 328.892578 254.335938 L 328.892578 253.412109 L 331.878906 253.412109 L 331.878906 246.300781 L 332.738281 246.300781 L 332.738281 254.335938 Z " fill="rgb(0, 0, 0)" fill-opacity="1.000000" />
<path d="M 147.585449 217.672363 L 147.585449 216.404785 Q 148.074219 216.839844 148.595215 217.057373 Q 149.116211 217.274902 149.674805 217.274902 Q 150.442871 217.274902 150.746338 216.874756 Q 151.049805 216.474609 151.049805 215.384277 L 151.049805 210.894043 L 149.003418 210.894043 L 149.003418 209.980957 L 152.134766 209.980957 L 152.134766 215.384277 Q 152.134766 216.898926 151.568115 217.527344 Q 151.001465 218.155762 149.674805 218.155762 Q 149.159180 218.155762 148.648926 218.037598 Q 148.138672 217.919434 147.585449 217.672363 Z " fill="rgb(0, 0, 0)" fill-opacity="1.000000" />
<path d="M 177.878906 234.319336 L 177.878906 220.300781 L 178.738281 220.300781 L 178.738281 234.319336 Z " fill="rgb(0, 0, 0)" fill-opacity="1.000000" />
<path d="M 177.878906 247.319336 L 177.878906 233.300781 L 178.738281 233.300781 L 178.738281 247.319336 Z " fill="rgb(0, 0, 0)" fill-opacity="1.000000" />
<path d="M 212.878906 234.319336 L 212.878906 220.300781 L 213.738281 220.300781 L 213.738281 234.319336 Z " fill="rgb(0, 0, 0)" fill-opacity="1.000000" />
<path d="M 212.878906 247.319336 L 212.878906 233.300781 L 213.738281 233.300781 L 213.738281 247.319336 Z " fill="rgb(0, 0, 0)" fill-opacity="1.000000" />
<path d="M 254.878906 234.319336 L 254.878906 220.300781 L 255.738281 220.300781 L 255.738281 234.319336 Z " fill="rgb(0, 0, 0)" fill-opacity="1.000000" />
<path d="M 254.878906 247.319336 L 254.878906 233.300781 L 255.738281 233.300781 L 255.738281 247.319336 Z " fill="rgb(0, 0, 0)" fill-opacity="1.000000" />
<path d="M 289.878906 234.319336 L 289.878906 220.300781 L 290.738281 220.300781 L 290.738281 234.319336 Z " fill="rgb(0, 0, 0)" fill-opacity="1.000000" />
<path d="M 289.878906 247.319336 L 289.878906 233.300781 L 290.738281 233.300781 L 290.738281 247.319336 Z " fill="rgb(0, 0, 0)" fill-opacity="1.000000" />
<path d="M 331.878906 234.319336 L 331.878906 220.300781 L 332.738281 220.300781 L 332.738281 234.319336 Z " fill="rgb(0, 0, 0)" fill-opacity="1.000000" />
<path d="M 331.878906 247.319336 L 331.878906 233.300781 L 332.738281 233.300781 L 332.738281 247.319336 Z " fill="rgb(0, 0, 0)" fill-opacity="1.000000" />
<path d="M 157.308594 212.677246 Q 156.556641 212.677246 156.169922 213.262695 Q 155.783203 213.848145 155.783203 214.997559 Q 155.783203 216.141602 156.169922 216.729736 Q 156.556641 217.317871 157.308594 217.317871 Q 158.065918 217.317871 158.452637 216.729736 Q 158.839355 216.141602 158.839355 214.997559 Q 158.839355 213.848145 158.452637 213.262695 Q 158.065918 212.677246 157.308594 212.677246 Z M 157.308594 211.839355 Q 158.560059 211.839355 159.223389 212.650391 Q 159.886719 213.461426 159.886719 214.997559 Q 159.886719 216.539062 159.226074 217.347412 Q 158.565430 218.155762 157.308594 218.155762 Q 156.057129 218.155762 155.396484 217.347412 Q 154.735840 216.539062 154.735840 214.997559 Q 154.735840 213.461426 155.396484 212.650391 Q 156.057129 211.839355 157.308594 211.839355 Z " fill="rgb(0, 0, 0)" fill-opacity="1.000000" />
<path d="M 165.930664 214.997559 Q 165.930664 213.848145 165.565430 213.262695 Q 165.200195 212.677246 164.485840 212.677246 Q 163.766113 212.677246 163.395508 213.265381 Q 163.024902 213.853516 163.024902 214.997559 Q 163.024902 216.136230 163.395508 216.727051 Q 163.766113 217.317871 164.485840 217.317871 Q 165.200195 217.317871 165.565430 216.732422 Q 165.930664 216.146973 165.930664 214.997559 Z M 163.024902 212.752441 Q 163.261230 212.312012 163.677490 212.075684 Q 164.093750 211.839355 164.641602 211.839355 Q 165.726562 211.839355 166.349609 212.674561 Q 166.972656 213.509766 166.972656 214.976074 Q 166.972656 216.463867 166.346924 217.309814 Q 165.721191 218.155762 164.630859 218.155762 Q 164.093750 218.155762 163.682861 217.922119 Q 163.271973 217.688477 163.024902 217.242676 L 163.024902 218.000000 L 162.036621 218.000000 L 162.036621 209.642578 L 163.024902 209.642578 Z " fill="rgb(0, 0, 0)" fill-opacity="1.000000" />
<path d="M 177.878906 221.319336 L 177.878906 207.300781 L 178.738281 207.300781 L 178.738281 221.319336 Z " fill="rgb(0, 0, 0)" fill-opacity="1.000000" />
<path d="M 212.878906 221.319336 L 212.878906 207.300781 L 213.738281 207.300781 L 213.738281 221.319336 Z " fill="rgb(0, 0, 0)" fill-opacity="1.000000" />
<path d="M 224.585449 217.672363 L 224.585449 216.404785 Q 225.074219 216.839844 225.595215 217.057373 Q 226.116211 217.274902 226.674805 217.274902 Q 227.442871 217.274902 227.746338 216.874756 Q 228.049805 216.474609 228.049805 215.384277 L 228.049805 210.894043 L 226.003418 210.894043 L 226.003418 209.980957 L 229.134766 209.980957 L 229.134766 215.384277 Q 229.134766 216.898926 228.568115 217.527344 Q 228.001465 218.155762 226.674805 218.155762 Q 226.159180 218.155762 225.648926 218.037598 Q 225.138672 217.919434 224.585449 217.672363 Z " fill="rgb(0, 0, 0)" fill-opacity="1.000000" />
<path d="M 234.308594 212.677246 Q 233.556641 212.677246 233.169922 213.262695 Q 232.783203 213.848145 232.783203 214.997559 Q 232.783203 216.141602 233.169922 216.729736 Q 233.556641 217.317871 234.308594 217.317871 Q 235.065918 217.317871 235.452637 216.729736 Q 235.839355 216.141602 235.839355 214.997559 Q 235.839355 213.848145 235.452637 213.262695 Q 235.065918 212.677246 234.308594 212.677246 Z M 234.308594 211.839355 Q 235.560059 211.839355 236.223389 212.650391 Q 236.886719 213.461426 236.886719 214.997559 Q 236.886719 216.539062 236.226074 217.347412 Q 235.565430 218.155762 234.308594 218.155762 Q 233.057129 218.155762 232.396484 217.347412 Q 231.735840 216.539062 231.735840 214.997559 Q 231.735840 213.461426 232.396484 212.650391 Q 233.057129 211.839355 234.308594 211.839355 Z " fill="rgb(0, 0, 0)" fill-opacity="1.000000" />
<path d="M 242.930664 214.997559 Q 242.930664 213.848145 242.565430 213.262695 Q 242.200195 212.677246 241.485840 212.677246 Q 240.766113 212.677246 240.395508 213.265381 Q 240.024902 213.853516 240.024902 214.997559 Q 240.024902 216.136230 240.395508 216.727051 Q 240.766113 217.317871 241.485840 217.317871 Q 242.200195 217.317871 242.565430 216.732422 Q 242.930664 216.146973 242.930664 214.997559 Z M 240.024902 212.752441 Q 240.261230 212.312012 240.677490 212.075684 Q 241.093750 211.839355 241.641602 211.839355 Q 242.726562 211.839355 243.349609 212.674561 Q 243.972656 213.509766 243.972656 214.976074 Q 243.972656 216.463867 243.346924 217.309814 Q 242.721191 218.155762 241.630859 218.155762 Q 241.093750 218.155762 240.682861 217.922119 Q 240.271973 217.688477 240.024902 217.242676 L 240.024902 218.000000 L 239.036621 218.000000 L 239.036621 209.642578 L 240.024902 209.642578 Z " fill="rgb(0, 0, 0)" fill-opacity="1.000000" />
<path d="M 254.878906 221.319336 L 254.878906 207.300781 L 255.738281 207.300781 L 255.738281 221.319336 Z " fill="rgb(0, 0, 0)" fill-opacity="1.000000" />
<path d="M 289.878906 221.319336 L 289.878906 207.300781 L 290.738281 207.300781 L 290.738281 221.319336 Z " fill="rgb(0, 0, 0)" fill-opacity="1.000000" />
<path d="M 301.585449 217.672363 L 301.585449 216.404785 Q 302.074219 216.839844 302.595215 217.057373 Q 303.116211 217.274902 303.674805 217.274902 Q 304.442871 217.274902 304.746338 216.874756 Q 305.049805 216.474609 305.049805 215.384277 L 305.049805 210.894043 L 303.003418 210.894043 L 303.003418 209.980957 L 306.134766 209.980957 L 306.134766 215.384277 Q 306.134766 216.898926 305.568115 217.527344 Q 305.001465 218.155762 303.674805 218.155762 Q 303.159180 218.155762 302.648926 218.037598 Q 302.138672 217.919434 301.585449 217.672363 Z " fill="rgb(0, 0, 0)" fill-opacity="1.000000" />
<path d="M 311.308594 212.677246 Q 310.556641 212.677246 310.169922 213.262695 Q 309.783203 213.848145 309.783203 214.997559 Q 309.783203 216.141602 310.169922 216.729736 Q 310.556641 217.317871 311.308594 217.317871 Q 312.065918 217.317871 312.452637 216.729736 Q 312.839355 216.141602 312.839355 214.997559 Q 312.839355 213.848145 312.452637 213.262695 Q 312.065918 212.677246 311.308594 212.677246 Z M 311.308594 211.839355 Q 312.560059 211.839355 313.223389 212.650391 Q 313.886719 213.461426 313.886719 214.997559 Q 313.886719 216.539062 313.226074 217.347412 Q 312.565430 218.155762 311.308594 218.155762 Q 310.057129 218.155762 309.396484 217.347412 Q 308.735840 216.539062 308.735840 214.997559 Q 308.735840 213.461426 309.396484 212.650391 Q 310.057129 211.839355 311.308594 211.839355 Z " fill="rgb(0, 0, 0)" fill-opacity="1.000000" />
<path d="M 319.930664 214.997559 Q 319.930664 213.848145 319.565430 213.262695 Q 319.200195 212.677246 318.485840 212.677246 Q 317.766113 212.677246 317.395508 213.265381 Q 317.024902 213.853516 317.024902 214.997559 Q 317.024902 216.136230 317.395508 216.727051 Q 317.766113 217.317871 318.485840 217.317871 Q 319.200195 217.317871 319.565430 216.732422 Q 319.930664 216.146973 319.930664 214.997559 Z M 317.024902 212.752441 Q 317.261230 212.312012 317.677490 212.075684 Q 318.093750 211.839355 318.641602 211.839355 Q 319.726562 211.839355 320.349609 212.674561 Q 320.972656 213.509766 320.972656 214.976074 Q 320.972656 216.463867 320.346924 217.309814 Q 319.721191 218.155762 318.630859 218.155762 Q 318.093750 218.155762 317.682861 217.922119 Q 317.271973 217.688477 317.024902 217.242676 L 317.024902 218.000000 L 316.036621 218.000000 L 316.036621 209.642578 L 317.024902 209.642578 Z " fill="rgb(0, 0, 0)" fill-opacity="1.000000" />
<path d="M 331.878906 221.319336 L 331.878906 207.300781 L 332.738281 207.300781 L 332.738281 221.319336 Z " fill="rgb(0, 0, 0)" fill-opacity="1.000000" />
<path d="M 380.089355 215.830078 L 381.979980 215.830078 L 381.979980 218.000000 L 380.089355 218.000000 Z " fill="rgb(0, 0, 0)" fill-opacity="1.000000" />
<path d="M 387.089355 215.830078 L 388.979980 215.830078 L 388.979980 218.000000 L 387.089355 218.000000 Z " fill="rgb(0, 0, 0)" fill-opacity="1.000000" />
<path d="M 394.089355 215.830078 L 395.979980 215.830078 L 395.979980 218.000000 L 394.089355 218.000000 Z " fill="rgb(0, 0, 0)" fill-opacity="1.000000" />
<path d="M 177.878906 195.319336 L 177.878906 181.300781 L 178.738281 181.300781 L 178.738281 195.319336 Z " fill="rgb(0, 0, 0)" fill-opacity="1.000000" />
<path d="M 177.878906 208.319336 L 177.878906 194.300781 L 178.738281 194.300781 L 178.738281 208.319336 Z " fill="rgb(0, 0, 0)" fill-opacity="1.000000" />
<path d="M 212.878906 195.319336 L 212.878906 181.300781 L 213.738281 181.300781 L 213.738281 195.319336 Z " fill="rgb(0, 0, 0)" fill-opacity="1.000000" />
<path d="M 212.878906 208.319336 L 212.878906 194.300781 L 213.738281 194.300781 L 213.738281 208.319336 Z " fill="rgb(0, 0, 0)" fill-opacity="1.000000" />
<path d="M 254.878906 195.319336 L 254.878906 181.300781 L 255.738281 181.300781 L 255.738281 195.319336 Z " fill="rgb(0, 0, 0)" fill-opacity="1.000000" />
<path d="M 254.878906 208.319336 L 254.878906 194.300781 L 255.738281 194.300781 L 255.738281 208.319336 Z " fill="rgb(0, 0, 0)" fill-opacity="1.000000" />
<path d="M 289.878906 195.319336 L 289.878906 181.300781 L 290.738281 181.300781 L 290.738281 195.319336 Z " fill="rgb(0, 0, 0)" fill-opacity="1.000000" />
<path d="M 289.878906 208.319336 L 289.878906 194.300781 L 290.738281 194.300781 L 290.738281 208.319336 Z " fill="rgb(0, 0, 0)" fill-opacity="1.000000" />
<path d="M 331.878906 195.319336 L 331.878906 181.300781 L 332.738281 181.300781 L 332.738281 195.319336 Z " fill="rgb(0, 0, 0)" fill-opacity="1.000000" />
<path d="M 331.878906 208.319336 L 331.878906 194.300781 L 332.738281 194.300781 L 332.738281 208.319336 Z " fill="rgb(0, 0, 0)" fill-opacity="1.000000" />
<path d="M 139.892578 176.335938 L 139.892578 175.412109 L 146.729980 175.412109 L 146.729980 176.335938 Z " fill="rgb(0, 0, 0)" fill-opacity="1.000000" />
<path d="M 146.892578 176.335938 L 146.892578 175.412109 L 153.729980 175.412109 L 153.729980 176.335938 Z " fill="rgb(0, 0, 0)" fill-opacity="1.000000" />
<path d="M 153.892578 176.335938 L 153.892578 175.412109 L 160.729980 175.412109 L 160.729980 176.335938 Z " fill="rgb(0, 0, 0)" fill-opacity="1.000000" />
<path d="M 160.892578 176.335938 L 160.892578 175.412109 L 167.729980 175.412109 L 167.729980 176.335938 Z " fill="rgb(0, 0, 0)" fill-opacity="1.000000" />
<path d="M 167.892578 176.335938 L 167.892578 175.412109 L 174.729980 175.412109 L 174.729980 176.335938 Z " fill="rgb(0, 0, 0)" fill-opacity="1.000000" />
<path d="M 177.878906 182.319336 L 177.878906 176.335938 L 174.892578 176.335938 L 174.892578 175.412109 L 178.738281 175.412109 L 178.738281 182.319336 Z " fill="rgb(0, 0, 0)" fill-opacity="1.000000" />
<path d="M 212.878906 182.319336 L 212.878906 175.412109 L 216.729980 175.412109 L 216.729980 176.335938 L 213.738281 176.335938 L 213.738281 182.319336 Z " fill="rgb(0, 0, 0)" fill-opacity="1.000000" />
<path d="M 216.892578 176.335938 L 216.892578 175.412109 L 223.729980 175.412109 L 223.729980 176.335938 Z " fill="rgb(0, 0, 0)" fill-opacity="1.000000" />
<path d="M 223.892578 176.335938 L 223.892578 175.412109 L 230.729980 175.412109 L 230.729980 176.335938 Z " fill="rgb(0, 0, 0)" fill-opacity="1.000000" />
<path d="M 230.892578 176.335938 L 230.892578 175.412109 L 237.729980 175.412109 L 237.729980 176.335938 Z " fill="rgb(0, 0, 0)" fill-opacity="1.000000" />
<path d="M 237.892578 176.335938 L 237.892578 175.412109 L 244.729980 175.412109 L 244.729980 176.335938 Z " fill="rgb(0, 0, 0)" fill-opacity="1.000000" />
<path d="M 244.892578 176.335938 L 244.892578 175.412109 L 251.729980 175.412109 L 251.729980 176.335938 Z " fill="rgb(0, 0, 0)" fill-opacity="1.000000" />
<path d="M 254.878906 182.319336 L 254.878906 176.335938 L 251.892578 176.335938 L 251.892578 175.412109 L 255.738281 175.412109 L 255.738281 182.319336 Z " fill="rgb(0, 0, 0)" fill-opacity="1.000000" />
<path d="M 289.878906 182.319336 L 289.878906 175.412109 L 293.729980 175.412109 L 293.729980 176.335938 L 290.738281 176.335938 L 290.738281 182.319336 Z " fill="rgb(0, 0, 0)" fill-opacity="1.000000" />
<path d="M 293.892578 176.335938 L 293.892578 175.412109 L 300.729980 175.412109 L 300.729980 176.335938 Z " fill="rgb(0, 0, 0)" fill-opacity="1.000000" />
<path d="M 300.892578 176.335938 L 300.892578 175.412109 L 307.729980 175.412109 L 307.729980 176.335938 Z " fill="rgb(0, 0, 0)" fill-opacity="1.000000" />
<path d="M 307.892578 176.335938 L 307.892578 175.412109 L 314.729980 175.412109 L 314.729980 176.335938 Z " fill="rgb(0, 0, 0)" fill-opacity="1.000000" />
<path d="M 314.892578 176.335938 L 314.892578 175.412109 L 321.729980 175.412109 L 321.729980 176.335938 Z " fill="rgb(0, 0, 0)" fill-opacity="1.000000" />
<path d="M 321.892578 176.335938 L 321.892578 175.412109 L 328.729980 175.412109 L 328.729980 176.335938 Z " fill="rgb(0, 0, 0)" fill-opacity="1.000000" />
<path d="M 331.878906 182.319336 L 331.878906 176.335938 L 328.892578 176.335938 L 328.892578 175.412109 L 332.738281 175.412109 L 332.738281 182.319336 Z " fill="rgb(0, 0, 0)" fill-opacity="1.000000" />
<path d="M 10.308594 145.937012 L 9.164551 150.040527 L 11.452637 150.040527 Z M 9.653320 144.980957 L 10.969238 144.980957 L 13.423828 153.000000 L 12.301270 153.000000 L 11.710449 150.910645 L 8.901367 150.910645 L 8.321289 153.000000 L 7.198730 153.000000 Z " fill="rgb(0, 0, 0)" fill-opacity="1.000000" />
<path d="M 157.308594 166.418945 L 154.032227 159.866211 L 160.590332 159.866211 Z " fill="rgb(0, 0, 0)" fill-opacity="1.000000" />
<path d="M 234.308594 166.418945 L 231.032227 159.866211 L 237.590332 159.866211 Z " fill="rgb(0, 0, 0)" fill-opacity="1.000000" />
<path d="M 311.308594 166.418945 L 308.032227 159.866211 L 314.590332 159.866211 Z " fill="rgb(0, 0, 0)" fill-opacity="1.000000" />
<path d="M 388.308594 166.418945 L 385.032227 159.866211 L 391.590332 159.866211 Z " fill="rgb(0, 0, 0)" fill-opacity="1.000000" />
<path d="M 14.102051 145.007812 L 15.584473 145.007812 L 18.721191 151.587402 L 18.721191 145.007812 L 19.875977 145.007812 L 19.875977 153.000000 L 18.393555 153.000000 L 15.256836 146.420410 L 15.256836 153.000000 L 14.102051 153.000000 Z " fill="rgb(0, 0, 0)" fill-opacity="1.000000" />
<path d="M 23.341797 152.108398 Q 24.711426 152.108398 25.253906 151.434326 Q 25.796387 150.760254 25.796387 148.998535 Q 25.796387 147.220703 25.256592 146.546631 Q 24.716797 145.872559 23.341797 145.872559 L 22.826172 145.872559 L 22.826172 152.108398 Z M 23.363281 144.980957 Q 25.200195 144.980957 26.070312 145.958496 Q 26.940430 146.936035 26.940430 148.998535 Q 26.940430 151.050293 26.070312 152.025146 Q 25.200195 153.000000 23.363281 153.000000 L 21.735840 153.000000 L 21.735840 144.980957 Z " fill="rgb(0, 0, 0)" fill-opacity="1.000000" />
<path d="M 41.203613 148.225098 Q 40.886719 147.978027 40.559082 147.865234 Q 40.231445 147.752441 39.839355 147.752441 Q 38.915527 147.752441 38.426758 148.332520 Q 37.937988 148.912598 37.937988 150.008301 L 37.937988 153.000000 L 36.944336 153.000000 L 36.944336 146.984375 L 37.937988 146.984375 L 37.937988 148.160645 Q 38.185059 147.521484 38.697998 147.180420 Q 39.210938 146.839355 39.914551 146.839355 Q 40.279785 146.839355 40.596680 146.930664 Q 40.913574 147.021973 41.203613 147.215332 Z " fill="rgb(0, 0, 0)" fill-opacity="1.000000" />
<path d="M 43.047363 150.722656 L 43.047363 146.995117 L 44.035645 146.995117 L 44.035645 150.722656 Q 44.035645 151.533691 44.322998 151.915039 Q 44.610352 152.296387 45.211914 152.296387 Q 45.910156 152.296387 46.280762 151.804932 Q 46.651367 151.313477 46.651367 150.395020 L 46.651367 146.995117 L 47.645020 146.995117 L 47.645020 153.000000 L 46.651367 153.000000 L 46.651367 152.097656 Q 46.388184 152.618652 45.934326 152.887207 Q 45.480469 153.155762 44.873535 153.155762 Q 43.949707 153.155762 43.498535 152.551514 Q 43.047363 151.947266 43.047363 150.722656 Z " fill="rgb(0, 0, 0)" fill-opacity="1.000000" />
<path d="M 54.645020 149.272461 L 54.645020 153.000000 L 53.651367 153.000000 L 53.651367 149.272461 Q 53.651367 148.461426 53.366699 148.080078 Q 53.082031 147.698730 52.475098 147.698730 Q 51.782227 147.698730 51.408936 148.190186 Q 51.035645 148.681641 51.035645 149.600098 L 51.035645 153.000000 L 50.047363 153.000000 L 50.047363 146.984375 L 51.035645 146.984375 L 51.035645 147.886719 Q 51.298828 147.371094 51.750000 147.105225 Q 52.201172 146.839355 52.818848 146.839355 Q 53.737305 146.839355 54.191162 147.443604 Q 54.645020 148.047852 54.645020 149.272461 Z " fill="rgb(0, 0, 0)" fill-opacity="1.000000" />
<path d="M 62.574219 154.020508 L 62.574219 154.933594 L 56.000000 154.933594 L 56.000000 154.020508 Z " fill="rgb(0, 0, 0)" fill-opacity="1.000000" />
<path d="M 66.770508 149.976074 L 66.442871 149.976074 Q 65.578125 149.976074 65.140381 150.279541 Q 64.702637 150.583008 64.702637 151.184570 Q 64.702637 151.727051 65.030273 152.027832 Q 65.357910 152.328613 65.937988 152.328613 Q 66.754395 152.328613 67.221680 151.761963 Q 67.688965 151.195312 67.694336 150.196289 L 67.694336 149.976074 Z M 68.687988 149.567871 L 68.687988 153.000000 L 67.694336 153.000000 L 67.694336 152.108398 Q 67.377441 152.645508 66.896729 152.900635 Q 66.416016 153.155762 65.728516 153.155762 Q 64.810059 153.155762 64.262207 152.637451 Q 63.714355 152.119141 63.714355 151.249023 Q 63.714355 150.244629 64.388428 149.723633 Q 65.062500 149.202637 66.367676 149.202637 L 67.694336 149.202637 L 67.694336 149.046875 Q 67.688965 148.327148 67.329102 148.002197 Q 66.969238 147.677246 66.179688 147.677246 Q 65.674805 147.677246 65.159180 147.822266 Q 64.643555 147.967285 64.154785 148.246582 L 64.154785 147.258301 Q 64.702637 147.048828 65.204834 146.944092 Q 65.707031 146.839355 66.179688 146.839355 Q 66.926270 146.839355 67.455322 147.059570 Q 67.984375 147.279785 68.312012 147.720215 Q 68.516113 147.988770 68.602051 148.383545 Q 68.687988 148.778320 68.687988 149.567871 Z " fill="rgb(0, 0, 0)" fill-opacity="1.000000" />
<path d="M 73.297852 145.276367 L 73.297852 146.984375 L 75.542969 146.984375 L 75.542969 147.752441 L 73.297852 147.752441 L 73.297852 151.018066 Q 73.297852 151.684082 73.550293 151.947266 Q 73.802734 152.210449 74.431152 152.210449 L 75.542969 152.210449 L 75.542969 153.000000 L 74.334473 153.000000 Q 73.222656 153.000000 72.766113 152.554199 Q 72.309570 152.108398 72.309570 151.018066 L 72.309570 147.752441 L 70.703613 147.752441 L 70.703613 146.984375 L 72.309570 146.984375 L 72.309570 145.276367 Z " fill="rgb(0, 0, 0)" fill-opacity="1.000000" />
<path d="M 90.149902 147.838379 L 85.584473 149.557129 L 90.149902 151.259766 L 90.149902 152.242676 L 84.472656 149.997559 L 84.472656 149.105957 L 90.149902 146.860840 Z " fill="rgb(0, 0, 0)" fill-opacity="1.000000" />
<path d="M 103.645020 149.272461 L 103.645020 153.000000 L 102.651367 153.000000 L 102.651367 149.272461 Q 102.651367 148.461426 102.366699 148.080078 Q 102.082031 147.698730 101.475098 147.698730 Q 100.782227 147.698730 100.408936 148.190186 Q 100.035645 148.681641 100.035645 149.600098 L 100.035645 153.000000 L 99.047363 153.000000 L 99.047363 146.984375 L 100.035645 146.984375 L 100.035645 147.886719 Q 100.298828 147.371094 100.750000 147.105225 Q 101.201172 146.839355 101.818848 146.839355 Q 102.737305 146.839355 103.191162 147.443604 Q 103.645020 148.047852 103.645020 149.272461 Z " fill="rgb(0, 0, 0)" fill-opacity="1.000000" />
<path d="M 108.308594 147.677246 Q 107.556641 147.677246 107.169922 148.262695 Q 106.783203 148.848145 106.783203 149.997559 Q 106.783203 151.141602 107.169922 151.729736 Q 107.556641 152.317871 108.308594 152.317871 Q 109.065918 152.317871 109.452637 151.729736 Q 109.839355 151.141602 109.839355 149.997559 Q 109.839355 148.848145 109.452637 148.262695 Q 109.065918 147.677246 108.308594 147.677246 Z M 108.308594 146.839355 Q 109.560059 146.839355 110.223389 147.650391 Q 110.886719 148.461426 110.886719 149.997559 Q 110.886719 151.539062 110.226074 152.347412 Q 109.565430 153.155762 108.308594 153.155762 Q 107.057129 153.155762 106.396484 152.347412 Q 105.735840 151.539062 105.735840 149.997559 Q 105.735840 148.461426 106.396484 147.650391 Q 107.057129 146.839355 108.308594 146.839355 Z " fill="rgb(0, 0, 0)" fill-opacity="1.000000" />
<path d="M 112.000000 146.984375 L 112.977539 146.984375 L 114.024902 151.845215 L 114.884277 148.740723 L 115.727539 148.740723 L 116.597656 151.845215 L 117.645020 146.984375 L 118.622559 146.984375 L 117.215332 153.000000 L 116.270020 153.000000 L 115.308594 149.702148 L 114.352539 153.000000 L 113.407227 153.000000 Z " fill="rgb(0, 0, 0)" fill-opacity="1.000000" />
<path d="M 123.592285 144.116211 Q 122.877930 145.340820 122.526123 146.557373 Q 122.174316 147.773926 122.174316 149.009277 Q 122.174316 150.239258 122.526123 151.458496 Q 122.877930 152.677734 123.592285 153.913086 L 122.732910 153.913086 Q 121.921875 152.634766 121.524414 151.423584 Q 121.126953 150.212402 121.126953 149.009277 Q 121.126953 147.811523 121.524414 146.597656 Q 121.921875 145.383789 122.732910 144.116211 Z " fill="rgb(0, 0, 0)" fill-opacity="1.000000" />
<path d="M 127.869141 144.116211 L 128.728516 144.116211 Q 129.539551 145.383789 129.937012 146.597656 Q 130.334473 147.811523 130.334473 149.009277 Q 130.334473 150.217773 129.937012 151.431641 Q 129.539551 152.645508 128.728516 153.913086 L 127.869141 153.913086 Q 128.583496 152.666992 128.935303 151.447754 Q 129.287109 150.228516 129.287109 149.009277 Q 129.287109 147.784668 128.935303 146.565430 Q 128.583496 145.346191 127.869141 144.116211 Z " fill="rgb(0, 0, 0)" fill-opacity="1.000000" />
<path d="M 156.878906 156.319336 L 156.878906 142.300781 L 157.738281 142.300781 L 157.738281 156.319336 Z " fill="rgb(0, 0, 0)" fill-opacity="1.000000" />
<path d="M 233.878906 156.319336 L 233.878906 142.300781 L 234.738281 142.300781 L 234.738281 156.319336 Z " fill="rgb(0, 0, 0)" fill-opacity="1.000000" />
<path d="M 310.878906 156.319336 L 310.878906 142.300781 L 311.738281 142.300781 L 311.738281 156.319336 Z " fill="rgb(0, 0, 0)" fill-opacity="1.000000" />
<path d="M 387.878906 156.319336 L 387.878906 142.300781 L 388.738281 142.300781 L 388.738281 156.319336 Z " fill="rgb(0, 0, 0)" fill-opacity="1.000000" />
<path d="M 36.783203 137.019043 Q 36.783203 138.168457 37.145752 138.753906 Q 37.508301 139.339355 38.222656 139.339355 Q 38.937012 139.339355 39.304932 138.751221 Q 39.672852 138.163086 39.672852 137.019043 Q 39.672852 135.875000 39.304932 135.286865 Q 38.937012 134.698730 38.222656 134.698730 Q 37.508301 134.698730 37.145752 135.284180 Q 36.783203 135.869629 36.783203 137.019043 Z M 39.672852 139.253418 Q 39.431152 139.699219 39.020264 139.938232 Q 38.609375 140.177246 38.066895 140.177246 Q 36.987305 140.177246 36.361572 139.342041 Q 35.735840 138.506836 35.735840 137.040527 Q 35.735840 135.547363 36.358887 134.704102 Q 36.981934 133.860840 38.066895 133.860840 Q 38.604004 133.860840 39.014893 134.094482 Q 39.425781 134.328125 39.672852 134.773926 L 39.672852 134.005859 L 40.666504 134.005859 L 40.666504 142.309570 L 39.672852 142.309570 Z " fill="rgb(0, 0, 0)" fill-opacity="1.000000" />
<path d="M 43.047363 137.722656 L 43.047363 133.995117 L 44.035645 133.995117 L 44.035645 137.722656 Q 44.035645 138.533691 44.322998 138.915039 Q 44.610352 139.296387 45.211914 139.296387 Q 45.910156 139.296387 46.280762 138.804932 Q 46.651367 138.313477 46.651367 137.395020 L 46.651367 133.995117 L 47.645020 133.995117 L 47.645020 140.000000 L 46.651367 140.000000 L 46.651367 139.097656 Q 46.388184 139.618652 45.934326 139.887207 Q 45.480469 140.155762 44.873535 140.155762 Q 43.949707 140.155762 43.498535 139.551514 Q 43.047363 138.947266 43.047363 137.722656 Z " fill="rgb(0, 0, 0)" fill-opacity="1.000000" />
<path d="M 55.015625 136.498047 L 55.015625 136.981445 L 50.734863 136.981445 L 50.734863 137.013672 Q 50.691895 138.243652 51.204834 138.780762 Q 51.717773 139.317871 52.652344 139.317871 Q 53.125000 139.317871 53.640625 139.167480 Q 54.156250 139.017090 54.741699 138.710938 L 54.741699 139.693848 Q 54.177734 139.924805 53.654053 140.040283 Q 53.130371 140.155762 52.641602 140.155762 Q 51.239746 140.155762 50.450195 139.315186 Q 49.660645 138.474609 49.660645 136.997559 Q 49.660645 135.558105 50.434082 134.698730 Q 51.207520 133.839355 52.496582 133.839355 Q 53.645996 133.839355 54.309326 134.618164 Q 54.972656 135.396973 55.015625 136.498047 Z M 54.027344 136.208008 Q 53.962891 135.584961 53.573486 135.131104 Q 53.184082 134.677246 52.453613 134.677246 Q 51.739258 134.677246 51.277344 135.149902 Q 50.815430 135.622559 50.772461 136.213379 Z " fill="rgb(0, 0, 0)" fill-opacity="1.000000" />
<path d="M 57.047363 137.722656 L 57.047363 133.995117 L 58.035645 133.995117 L 58.035645 137.722656 Q 58.035645 138.533691 58.322998 138.915039 Q 58.610352 139.296387 59.211914 139.296387 Q 59.910156 139.296387 60.280762 138.804932 Q 60.651367 138.313477 60.651367 137.395020 L 60.651367 133.995117 L 61.645020 133.995117 L 61.645020 140.000000 L 60.651367 140.000000 L 60.651367 139.097656 Q 60.388184 139.618652 59.934326 139.887207 Q 59.480469 140.155762 58.873535 140.155762 Q 57.949707 140.155762 57.498535 139.551514 Q 57.047363 138.947266 57.047363 137.722656 Z " fill="rgb(0, 0, 0)" fill-opacity="1.000000" />
<path d="M 69.015625 136.498047 L 69.015625 136.981445 L 64.734863 136.981445 L 64.734863 137.013672 Q 64.691895 138.243652 65.204834 138.780762 Q 65.717773 139.317871 66.652344 139.317871 Q 67.125000 139.317871 67.640625 139.167480 Q 68.156250 139.017090 68.741699 138.710938 L 68.741699 139.693848 Q 68.177734 139.924805 67.654053 140.040283 Q 67.130371 140.155762 66.641602 140.155762 Q 65.239746 140.155762 64.450195 139.315186 Q 63.660645 138.474609 63.660645 136.997559 Q 63.660645 135.558105 64.434082 134.698730 Q 65.207520 133.839355 66.496582 133.839355 Q 67.645996 133.839355 68.309326 134.618164 Q 68.972656 135.396973 69.015625 136.498047 Z M 68.027344 136.208008 Q 67.962891 135.584961 67.573486 135.131104 Q 67.184082 134.677246 66.453613 134.677246 Q 65.739258 134.677246 65.277344 135.149902 Q 64.815430 135.622559 64.772461 136.213379 Z " fill="rgb(0, 0, 0)" fill-opacity="1.000000" />
<path d="M 77.472656 137.314453 L 83.149902 137.314453 L 83.149902 138.222168 L 77.472656 138.222168 Z M 77.472656 134.784668 L 83.149902 134.784668 L 83.149902 135.692383 L 77.472656 135.692383 Z " fill="rgb(0, 0, 0)" fill-opacity="1.000000" />
<path d="M 94.985352 131.631836 L 94.985352 134.978027 L 93.782227 134.978027 L 93.782227 131.631836 Z " fill="rgb(0, 0, 0)" fill-opacity="1.000000" />
<path d="M 101.985352 131.631836 L 101.985352 134.978027 L 100.782227 134.978027 L 100.782227 131.631836 Z " fill="rgb(0, 0, 0)" fill-opacity="1.000000" />
<path d="M 156.878906 143.319336 L 156.878906 129.300781 L 157.738281 129.300781 L 157.738281 143.319336 Z " fill="rgb(0, 0, 0)" fill-opacity="1.000000" />
<path d="M 233.878906 143.319336 L 233.878906 129.300781 L 234.738281 129.300781 L 234.738281 143.319336 Z " fill="rgb(0, 0, 0)" fill-opacity="1.000000" />
<path d="M 310.878906 143.319336 L 310.878906 129.300781 L 311.738281 129.300781 L 311.738281 143.319336 Z " fill="rgb(0, 0, 0)" fill-opacity="1.000000" />
<path d="M 387.878906 143.319336 L 387.878906 129.300781 L 388.738281 129.300781 L 388.738281 143.319336 Z " fill="rgb(0, 0, 0)" fill-opacity="1.000000" />
<path d="M 54.435547 106.254883 L 54.435547 107.355957 Q 53.941406 107.039062 53.444580 106.877930 Q 52.947754 106.716797 52.442871 106.716797 Q 51.674805 106.716797 51.229004 107.073975 Q 50.783203 107.431152 50.783203 108.038086 Q 50.783203 108.569824 51.075928 108.849121 Q 51.368652 109.128418 52.168945 109.316406 L 52.738281 109.445312 Q 53.866211 109.708496 54.381836 110.272461 Q 54.897461 110.836426 54.897461 111.808594 Q 54.897461 112.952637 54.188477 113.554199 Q 53.479492 114.155762 52.125977 114.155762 Q 51.562012 114.155762 50.992676 114.034912 Q 50.423340 113.914062 49.848633 113.672363 L 49.848633 112.517578 Q 50.466309 112.909668 51.016846 113.092285 Q 51.567383 113.274902 52.125977 113.274902 Q 52.947754 113.274902 53.404297 112.906982 Q 53.860840 112.539062 53.860840 111.878418 Q 53.860840 111.276855 53.546631 110.959961 Q 53.232422 110.643066 52.453613 110.471191 L 51.873535 110.336914 Q 50.756348 110.084473 50.251465 109.574219 Q 49.746582 109.063965 49.746582 108.204590 Q 49.746582 107.130371 50.468994 106.483154 Q 51.191406 105.835938 52.389160 105.835938 Q 52.851074 105.835938 53.361328 105.940674 Q 53.871582 106.045410 54.435547 106.254883 Z " fill="rgb(0, 0, 0)" fill-opacity="1.000000" />
<path d="M 156.878906 130.319336 L 156.878906 116.300781 L 157.738281 116.300781 L 157.738281 130.319336 Z " fill="rgb(0, 0, 0)" fill-opacity="1.000000" />
<path d="M 233.878906 130.319336 L 233.878906 116.300781 L 234.738281 116.300781 L 234.738281 130.319336 Z " fill="rgb(0, 0, 0)" fill-opacity="1.000000" />
<path d="M 310.878906 130.319336 L 310.878906 116.300781 L 311.738281 116.300781 L 311.738281 130.319336 Z " fill="rgb(0, 0, 0)" fill-opacity="1.000000" />
<path d="M 387.878906 130.319336 L 387.878906 116.300781 L 388.738281 116.300781 L 388.738281 130.319336 Z " fill="rgb(0, 0, 0)" fill-opacity="1.000000" />
<path d="M 57.058105 105.980957 L 61.816895 105.980957 L 61.816895 106.894043 L 58.143066 106.894043 L 58.143066 109.053223 L 61.655762 109.053223 L 61.655762 109.966309 L 58.143066 109.966309 L 58.143066 113.086914 L 61.918945 113.086914 L 61.918945 114.000000 L 57.058105 114.000000 Z " fill="rgb(0, 0, 0)" fill-opacity="1.000000" />
<path d="M 66.308594 106.937012 L 65.164551 111.040527 L 67.452637 111.040527 Z M 65.653320 105.980957 L 66.969238 105.980957 L 69.423828 114.000000 L 68.301270 114.000000 L 67.710449 111.910645 L 64.901367 111.910645 L 64.321289 114.000000 L 63.198730 114.000000 Z " fill="rgb(0, 0, 0)" fill-opacity="1.000000" />
<path d="M 74.082031 110.213379 Q 74.500977 110.320801 74.796387 110.618896 Q 75.091797 110.916992 75.532227 111.808594 L 76.622559 114.000000 L 75.457031 114.000000 L 74.500977 111.975098 Q 74.087402 111.110352 73.757080 110.860596 Q 73.426758 110.610840 72.895020 110.610840 L 71.858398 110.610840 L 71.858398 114.000000 L 70.768066 114.000000 L 70.768066 105.980957 L 73.002441 105.980957 Q 74.323730 105.980957 75.027344 106.577148 Q 75.730957 107.173340 75.730957 108.301270 Q 75.730957 109.096191 75.298584 109.598389 Q 74.866211 110.100586 74.082031 110.213379 Z M 71.858398 106.872559 L 71.858398 109.719238 L 73.045410 109.719238 Q 73.824219 109.719238 74.205566 109.370117 Q 74.586914 109.020996 74.586914 108.301270 Q 74.586914 107.608398 74.181396 107.240479 Q 73.775879 106.872559 73.002441 106.872559 Z " fill="rgb(0, 0, 0)" fill-opacity="1.000000" />
<path d="M 82.763184 113.715332 Q 82.349609 113.935547 81.914551 114.045654 Q 81.479492 114.155762 80.990723 114.155762 Q 79.449219 114.155762 78.597900 113.065430 Q 77.746582 111.975098 77.746582 109.998535 Q 77.746582 108.032715 78.603271 106.934326 Q 79.459961 105.835938 80.990723 105.835938 Q 81.479492 105.835938 81.914551 105.946045 Q 82.349609 106.056152 82.763184 106.276367 L 82.763184 107.388184 Q 82.365723 107.060547 81.909180 106.888672 Q 81.452637 106.716797 80.990723 106.716797 Q 79.932617 106.716797 79.406250 107.533203 Q 78.879883 108.349609 78.879883 109.998535 Q 78.879883 111.642090 79.406250 112.458496 Q 79.932617 113.274902 80.990723 113.274902 Q 81.463379 113.274902 81.917236 113.103027 Q 82.371094 112.931152 82.763184 112.603516 Z " fill="rgb(0, 0, 0)" fill-opacity="1.000000" />
<path d="M 84.735840 105.980957 L 85.826172 105.980957 L 85.826172 109.053223 L 88.796387 109.053223 L 88.796387 105.980957 L 89.886719 105.980957 L 89.886719 114.000000 L 88.796387 114.000000 L 88.796387 109.966309 L 85.826172 109.966309 L 85.826172 114.000000 L 84.735840 114.000000 Z " fill="rgb(0, 0, 0)" fill-opacity="1.000000" />
<path d="M 156.878906 117.319336 L 156.878906 103.300781 L 157.738281 103.300781 L 157.738281 110.412109 L 160.729980 110.412109 L 160.729980 111.335938 L 157.738281 111.335938 L 157.738281 117.319336 Z " fill="rgb(0, 0, 0)" fill-opacity="1.000000" />
<path d="M 160.892578 111.335938 L 160.892578 110.412109 L 167.729980 110.412109 L 167.729980 111.335938 Z " fill="rgb(0, 0, 0)" fill-opacity="1.000000" />
<path d="M 167.892578 111.335938 L 167.892578 110.412109 L 174.729980 110.412109 L 174.729980 111.335938 Z " fill="rgb(0, 0, 0)" fill-opacity="1.000000" />
<path d="M 174.892578 111.335938 L 174.892578 110.412109 L 181.729980 110.412109 L 181.729980 111.335938 Z " fill="rgb(0, 0, 0)" fill-opacity="1.000000" />
<path d="M 181.892578 111.335938 L 181.892578 110.412109 L 188.729980 110.412109 L 188.729980 111.335938 Z " fill="rgb(0, 0, 0)" fill-opacity="1.000000" />
<path d="M 188.892578 111.335938 L 188.892578 110.412109 L 195.729980 110.412109 L 195.729980 111.335938 Z " fill="rgb(0, 0, 0)" fill-opacity="1.000000" />
<path d="M 195.892578 111.335938 L 195.892578 110.412109 L 202.729980 110.412109 L 202.729980 111.335938 Z " fill="rgb(0, 0, 0)" fill-opacity="1.000000" />
<path d="M 202.892578 111.335938 L 202.892578 110.412109 L 209.729980 110.412109 L 209.729980 111.335938 Z " fill="rgb(0, 0, 0)" fill-opacity="1.000000" />
<path d="M 209.892578 111.335938 L 209.892578 110.412109 L 216.729980 110.412109 L 216.729980 111.335938 Z " fill="rgb(0, 0, 0)" fill-opacity="1.000000" />
<path d="M 216.892578 111.335938 L 216.892578 110.412109 L 223.729980 110.412109 L 223.729980 111.335938 Z " fill="rgb(0, 0, 0)" fill-opacity="1.000000" />
<path d="M 223.892578 111.335938 L 223.892578 110.412109 L 230.729980 110.412109 L 230.729980 111.335938 Z " fill="rgb(0, 0, 0)" fill-opacity="1.000000" />
<path d="M 233.878906 117.319336 L 233.878906 111.335938 L 230.892578 111.335938 L 230.892578 110.412109 L 237.729980 110.412109 L 237.729980 111.335938 L 234.738281 111.335938 L 234.738281 117.319336 Z " fill="rgb(0, 0, 0)" fill-opacity="1.000000" />
<path d="M 237.892578 111.335938 L 237.892578 110.412109 L 244.729980 110.412109 L 244.729980 111.335938 Z " fill="rgb(0, 0, 0)" fill-opacity="1.000000" />
<path d="M 244.892578 111.335938 L 244.892578 110.412109 L 251.729980 110.412109 L 251.729980 111.335938 Z " fill="rgb(0, 0, 0)" fill-opacity="1.000000" />
<path d="M 251.892578 111.335938 L 251.892578 110.412109 L 258.729980 110.412109 L 258.729980 111.335938 Z " fill="rgb(0, 0, 0)" fill-opacity="1.000000" />
<path d="M 258.892578 111.335938 L 258.892578 110.412109 L 265.729980 110.412109 L 265.729980 111.335938 Z " fill="rgb(0, 0, 0)" fill-opacity="1.000000" />
<path d="M 265.892578 111.335938 L 265.892578 110.412109 L 272.729980 110.412109 L 272.729980 111.335938 Z " fill="rgb(0, 0, 0)" fill-opacity="1.000000" />
<path d="M 272.892578 111.335938 L 272.892578 110.412109 L 279.729980 110.412109 L 279.729980 111.335938 Z " fill="rgb(0, 0, 0)" fill-opacity="1.000000" />
<path d="M 279.892578 111.335938 L 279.892578 110.412109 L 286.729980 110.412109 L 286.729980 111.335938 Z " fill="rgb(0, 0, 0)" fill-opacity="1.000000" />
<path d="M 286.892578 111.335938 L 286.892578 110.412109 L 293.729980 110.412109 L 293.729980 111.335938 Z " fill="rgb(0, 0, 0)" fill-opacity="1.000000" />
<path d="M 293.892578 111.335938 L 293.892578 110.412109 L 300.729980 110.412109 L 300.729980 111.335938 Z " fill="rgb(0, 0, 0)" fill-opacity="1.000000" />
<path d="M 300.892578 111.335938 L 300.892578 110.412109 L 307.729980 110.412109 L 307.729980 111.335938 Z " fill="rgb(0, 0, 0)" fill-opacity="1.000000" />
<path d="M 310.878906 117.319336 L 310.878906 111.335938 L 307.892578 111.335938 L 307.892578 110.412109 L 314.729980 110.412109 L 314.729980 111.335938 L 311.738281 111.335938 L 311.738281 117.319336 Z " fill="rgb(0, 0, 0)" fill-opacity="1.000000" />
<path d="M 314.892578 111.335938 L 314.892578 110.412109 L 321.729980 110.412109 L 321.729980 111.335938 Z " fill="rgb(0, 0, 0)" fill-opacity="1.000000" />
<path d="M 321.892578 111.335938 L 321.892578 110.412109 L 328.729980 110.412109 L 328.729980 111.335938 Z " fill="rgb(0, 0, 0)" fill-opacity="1.000000" />
<path d="M 328.892578 111.335938 L 328.892578 110.412109 L 335.729980 110.412109 L 335.729980 111.335938 Z " fill="rgb(0, 0, 0)" fill-opacity="1.000000" />
<path d="M 335.892578 111.335938 L 335.892578 110.412109 L 342.729980 110.412109 L 342.729980 111.335938 Z " fill="rgb(0, 0, 0)" fill-opacity="1.000000" />
<path d="M 342.892578 111.335938 L 342.892578 110.412109 L 349.729980 110.412109 L 349.729980 111.335938 Z " fill="rgb(0, 0, 0)" fill-opacity="1.000000" />
<path d="M 349.892578 111.335938 L 349.892578 110.412109 L 356.729980 110.412109 L 356.729980 111.335938 Z " fill="rgb(0, 0, 0)" fill-opacity="1.000000" />
<path d="M 356.892578 111.335938 L 356.892578 110.412109 L 363.729980 110.412109 L 363.729980 111.335938 Z " fill="rgb(0, 0, 0)" fill-opacity="1.000000" />
<path d="M 363.892578 111.335938 L 363.892578 110.412109 L 370.729980 110.412109 L 370.729980 111.335938 Z " fill="rgb(0, 0, 0)" fill-opacity="1.000000" />
<path d="M 370.892578 111.335938 L 370.892578 110.412109 L 377.729980 110.412109 L 377.729980 111.335938 Z " fill="rgb(0, 0, 0)" fill-opacity="1.000000" />
<path d="M 377.892578 111.335938 L 377.892578 110.412109 L 384.729980 110.412109 L 384.729980 111.335938 Z " fill="rgb(0, 0, 0)" fill-opacity="1.000000" />
<path d="M 387.878906 117.319336 L 387.878906 111.335938 L 384.892578 111.335938 L 384.892578 110.412109 L 388.738281 110.412109 L 388.738281 117.319336 Z " fill="rgb(0, 0, 0)" fill-opacity="1.000000" />
<path d="M 156.878906 104.319336 L 156.878906 90.300781 L 157.738281 90.300781 L 157.738281 104.319336 Z " fill="rgb(0, 0, 0)" fill-opacity="1.000000" />
<path d="M 79.878906 13.319336 L 79.878906 6.412109 L 83.729980 6.412109 L 83.729980 7.335938 L 80.738281 7.335938 L 80.738281 13.319336 Z " fill="rgb(0, 0, 0)" fill-opacity="1.000000" />
<path d="M 79.878906 26.319336 L 79.878906 12.300781 L 80.738281 12.300781 L 80.738281 26.319336 Z " fill="rgb(0, 0, 0)" fill-opacity="1.000000" />
<path d="M 79.878906 39.319336 L 79.878906 25.300781 L 80.738281 25.300781 L 80.738281 39.319336 Z " fill="rgb(0, 0, 0)" fill-opacity="1.000000" />
<path d="M 79.878906 52.319336 L 79.878906 38.300781 L 80.738281 38.300781 L 80.738281 52.319336 Z " fill="rgb(0, 0, 0)" fill-opacity="1.000000" />
<path d="M 79.878906 59.335938 L 79.878906 51.300781 L 80.738281 51.300781 L 80.738281 58.412109 L 83.729980 58.412109 L 83.729980 59.335938 Z " fill="rgb(0, 0, 0)" fill-opacity="1.000000" />
<path d="M 83.892578 77.750000 L 83.892578 66.535156 L 90.729980 66.535156 L 90.729980 77.750000 Z " fill="rgb(0, 0, 0)" fill-opacity="1.000000" />
<path d="M 90.892578 77.750000 L 90.892578 66.535156 L 97.729980 66.535156 L 97.729980 77.750000 Z " fill="rgb(0, 0, 0)" fill-opacity="1.000000" />
<path d="M 97.892578 77.750000 L 97.892578 66.535156 L 104.729980 66.535156 L 104.729980 77.750000 Z " fill="rgb(0, 0, 0)" fill-opacity="1.000000" />
<path d="M 104.892578 77.750000 L 104.892578 66.535156 L 111.729980 66.535156 L 111.729980 77.750000 Z " fill="rgb(0, 0, 0)" fill-opacity="1.000000" />
<path d="M 111.892578 77.750000 L 111.892578 66.535156 L 118.729980 66.535156 L 118.729980 77.750000 Z " fill="rgb(0, 0, 0)" fill-opacity="1.000000" />
<path d="M 118.892578 77.750000 L 118.892578 66.535156 L 125.729980 66.535156 L 125.729980 77.750000 Z " fill="rgb(0, 0, 0)" fill-opacity="1.000000" />
<path d="M 125.892578 77.750000 L 125.892578 66.535156 L 132.729980 66.535156 L 132.729980 77.750000 Z " fill="rgb(0, 0, 0)" fill-opacity="1.000000" />
<path d="M 132.892578 77.750000 L 132.892578 66.535156 L 139.729980 66.535156 L 139.729980 77.750000 Z " fill="rgb(0, 0, 0)" fill-opacity="1.000000" />
<path d="M 139.892578 77.750000 L 139.892578 66.535156 L 146.729980 66.535156 L 146.729980 77.750000 Z " fill="rgb(0, 0, 0)" fill-opacity="1.000000" />
<path d="M 146.892578 77.750000 L 146.892578 66.535156 L 153.729980 66.535156 L 153.729980 77.750000 Z " fill="rgb(0, 0, 0)" fill-opacity="1.000000" />
<path d="M 156.878906 91.319336 L 156.878906 77.300781 L 157.738281 77.300781 L 157.738281 91.319336 Z " fill="rgb(0, 0, 0)" fill-opacity="1.000000" />
<path d="M 156.878906 78.319336 L 156.878906 64.300781 L 157.738281 64.300781 L 157.738281 78.319336 Z " fill="rgb(0, 0, 0)" fill-opacity="1.000000" />
<path d="M 160.892578 77.750000 L 160.892578 66.535156 L 167.729980 66.535156 L 167.729980 77.750000 Z " fill="rgb(0, 0, 0)" fill-opacity="1.000000" />
<path d="M 167.892578 77.750000 L 167.892578 66.535156 L 174.729980 66.535156 L 174.729980 77.750000 Z " fill="rgb(0, 0, 0)" fill-opacity="1.000000" />
<path d="M 174.892578 77.750000 L 174.892578 66.535156 L 181.729980 66.535156 L 181.729980 77.750000 Z " fill="rgb(0, 0, 0)" fill-opacity="1.000000" />
<path d="M 181.892578 77.750000 L 181.892578 66.535156 L 188.729980 66.535156 L 188.729980 77.750000 Z " fill="rgb(0, 0, 0)" fill-opacity="1.000000" />
<path d="M 188.892578 77.750000 L 188.892578 66.535156 L 195.729980 66.535156 L 195.729980 77.750000 Z " fill="rgb(0, 0, 0)" fill-opacity="1.000000" />
<path d="M 195.892578 77.750000 L 195.892578 66.535156 L 202.729980 66.535156 L 202.729980 77.750000 Z " fill="rgb(0, 0, 0)" fill-opacity="1.000000" />
<path d="M 202.892578 77.750000 L 202.892578 66.535156 L 209.729980 66.535156 L 209.729980 77.750000 Z " fill="rgb(0, 0, 0)" fill-opacity="1.000000" />
<path d="M 209.892578 77.750000 L 209.892578 66.535156 L 216.729980 66.535156 L 216.729980 77.750000 Z " fill="rgb(0, 0, 0)" fill-opacity="1.000000" />
<path d="M 216.892578 77.750000 L 216.892578 66.535156 L 223.729980 66.535156 L 223.729980 77.750000 Z " fill="rgb(0, 0, 0)" fill-opacity="1.000000" />
<path d="M 223.892578 77.750000 L 223.892578 66.535156 L 230.729980 66.535156 L 230.729980 77.750000 Z " fill="rgb(0, 0, 0)" fill-opacity="1.000000" />
<path d="M 230.892578 77.750000 L 230.892578 66.535156 L 237.729980 66.535156 L 237.729980 77.750000 Z " fill="rgb(0, 0, 0)" fill-opacity="1.000000" />
<path d="M 83.892578 59.335938 L 83.892578 58.412109 L 90.729980 58.412109 L 90.729980 59.335938 Z " fill="rgb(0, 0, 0)" fill-opacity="1.000000" />
<path d="M 90.892578 59.335938 L 90.892578 58.412109 L 97.729980 58.412109 L 97.729980 59.335938 Z " fill="rgb(0, 0, 0)" fill-opacity="1.000000" />
<path d="M 97.892578 59.335938 L 97.892578 58.412109 L 104.729980 58.412109 L 104.729980 59.335938 Z " fill="rgb(0, 0, 0)" fill-opacity="1.000000" />
<path d="M 104.892578 59.335938 L 104.892578 58.412109 L 111.729980 58.412109 L 111.729980 59.335938 Z " fill="rgb(0, 0, 0)" fill-opacity="1.000000" />
<path d="M 111.892578 59.335938 L 111.892578 58.412109 L 118.729980 58.412109 L 118.729980 59.335938 Z " fill="rgb(0, 0, 0)" fill-opacity="1.000000" />
<path d="M 118.892578 59.335938 L 118.892578 58.412109 L 125.729980 58.412109 L 125.729980 59.335938 Z " fill="rgb(0, 0, 0)" fill-opacity="1.000000" />
<path d="M 125.892578 59.335938 L 125.892578 58.412109 L 132.729980 58.412109 L 132.729980 59.335938 Z " fill="rgb(0, 0, 0)" fill-opacity="1.000000" />
<path d="M 132.892578 59.335938 L 132.892578 58.412109 L 139.729980 58.412109 L 139.729980 59.335938 Z " fill="rgb(0, 0, 0)" fill-opacity="1.000000" />
<path d="M 139.892578 59.335938 L 139.892578 58.412109 L 146.729980 58.412109 L 146.729980 59.335938 Z " fill="rgb(0, 0, 0)" fill-opacity="1.000000" />
<path d="M 146.892578 59.335938 L 146.892578 58.412109 L 153.729980 58.412109 L 153.729980 59.335938 Z " fill="rgb(0, 0, 0)" fill-opacity="1.000000" />
<path d="M 153.892578 59.335938 L 153.892578 58.412109 L 160.729980 58.412109 L 160.729980 59.335938 Z " fill="rgb(0, 0, 0)" fill-opacity="1.000000" />
<path d="M 160.892578 59.335938 L 160.892578 58.412109 L 167.729980 58.412109 L 167.729980 59.335938 Z " fill="rgb(0, 0, 0)" fill-opacity="1.000000" />
<path d="M 167.892578 59.335938 L 167.892578 58.412109 L 174.729980 58.412109 L 174.729980 59.335938 Z " fill="rgb(0, 0, 0)" fill-opacity="1.000000" />
<path d="M 174.892578 59.335938 L 174.892578 58.412109 L 181.729980 58.412109 L 181.729980 59.335938 Z " fill="rgb(0, 0, 0)" fill-opacity="1.000000" />
<path d="M 181.892578 59.335938 L 181.892578 58.412109 L 188.729980 58.412109 L 188.729980 59.335938 Z " fill="rgb(0, 0, 0)" fill-opacity="1.000000" />
<path d="M 188.892578 59.335938 L 188.892578 58.412109 L 195.729980 58.412109 L 195.729980 59.335938 Z " fill="rgb(0, 0, 0)" fill-opacity="1.000000" />
<path d="M 195.892578 59.335938 L 195.892578 58.412109 L 202.729980 58.412109 L 202.729980 59.335938 Z " fill="rgb(0, 0, 0)" fill-opacity="1.000000" />
<path d="M 202.892578 59.335938 L 202.892578 58.412109 L 209.729980 58.412109 L 209.729980 59.335938 Z " fill="rgb(0, 0, 0)" fill-opacity="1.000000" />
<path d="M 209.892578 59.335938 L 209.892578 58.412109 L 216.729980 58.412109 L 216.729980 59.335938 Z " fill="rgb(0, 0, 0)" fill-opacity="1.000000" />
<path d="M 216.892578 59.335938 L 216.892578 58.412109 L 223.729980 58.412109 L 223.729980 59.335938 Z " fill="rgb(0, 0, 0)" fill-opacity="1.000000" />
<path d="M 223.892578 59.335938 L 223.892578 58.412109 L 226.878906 58.412109 L 226.878906 51.300781 L 227.738281 51.300781 L 227.738281 59.335938 Z " fill="rgb(0, 0, 0)" fill-opacity="1.000000" />
<path d="M 230.892578 64.750000 L 230.892578 53.535156 L 237.729980 53.535156 L 237.729980 64.750000 Z " fill="rgb(0, 0, 0)" fill-opacity="1.000000" />
<path d="M 113.981934 31.955566 L 113.981934 35.108398 L 115.265625 35.108398 Q 116.210938 35.108398 116.613770 34.778076 Q 117.016602 34.447754 117.016602 33.690430 Q 117.016602 32.691406 116.592285 32.323486 Q 116.167969 31.955566 115.265625 31.955566 Z M 113.981934 28.872559 L 113.981934 31.074707 L 115.244141 31.074707 Q 116.028320 31.074707 116.380127 30.773926 Q 116.731934 30.473145 116.731934 30.016602 Q 116.731934 29.409668 116.385498 29.141113 Q 116.039062 28.872559 115.244141 28.872559 Z M 112.891602 27.980957 L 115.265625 27.980957 Q 116.495605 27.980957 117.161621 28.512695 Q 117.827637 29.044434 117.827637 30.016602 Q 117.827637 30.537598 117.475830 30.961914 Q 117.124023 31.386230 116.420410 31.493652 Q 117.209961 31.611816 117.658447 32.167725 Q 118.106934 32.723633 118.106934 33.797852 Q 118.106934 34.888184 117.392578 35.444092 Q 116.678223 36.000000 115.265625 36.000000 L 112.891602 36.000000 Z " fill="rgb(0, 0, 0)" fill-opacity="1.000000" />
<path d="M 226.878906 52.319336 L 226.878906 38.300781 L 227.738281 38.300781 L 227.738281 52.319336 Z " fill="rgb(0, 0, 0)" fill-opacity="1.000000" />
<path d="M 230.892578 51.750000 L 230.892578 40.535156 L 237.729980 40.535156 L 237.729980 51.750000 Z " fill="rgb(0, 0, 0)" fill-opacity="1.000000" />
<path d="M 119.547852 32.111328 L 125.241211 32.111328 L 125.241211 33.019043 L 119.547852 33.019043 Z " fill="rgb(0, 0, 0)" fill-opacity="1.000000" />
<path d="M 129.297852 28.276367 L 129.297852 29.984375 L 131.542969 29.984375 L 131.542969 30.752441 L 129.297852 30.752441 L 129.297852 34.018066 Q 129.297852 34.684082 129.550293 34.947266 Q 129.802734 35.210449 130.431152 35.210449 L 131.542969 35.210449 L 131.542969 36.000000 L 130.334473 36.000000 Q 129.222656 36.000000 128.766113 35.554199 Q 128.309570 35.108398 128.309570 34.018066 L 128.309570 30.752441 L 126.703613 30.752441 L 126.703613 29.984375 L 128.309570 29.984375 L 128.309570 28.276367 Z " fill="rgb(0, 0, 0)" fill-opacity="1.000000" />
<path d="M 139.203613 31.225098 Q 138.886719 30.978027 138.559082 30.865234 Q 138.231445 30.752441 137.839355 30.752441 Q 136.915527 30.752441 136.426758 31.332520 Q 135.937988 31.912598 135.937988 33.008301 L 135.937988 36.000000 L 134.944336 36.000000 L 134.944336 29.984375 L 135.937988 29.984375 L 135.937988 31.160645 Q 136.185059 30.521484 136.697998 30.180420 Q 137.210938 29.839355 137.914551 29.839355 Q 138.279785 29.839355 138.596680 29.930664 Q 138.913574 30.021973 139.203613 30.215332 Z " fill="rgb(0, 0, 0)" fill-opacity="1.000000" />
<path d="M 146.015625 32.498047 L 146.015625 32.981445 L 141.734863 32.981445 L 141.734863 33.013672 Q 141.691895 34.243652 142.204834 34.780762 Q 142.717773 35.317871 143.652344 35.317871 Q 144.125000 35.317871 144.640625 35.167480 Q 145.156250 35.017090 145.741699 34.710938 L 145.741699 35.693848 Q 145.177734 35.924805 144.654053 36.040283 Q 144.130371 36.155762 143.641602 36.155762 Q 142.239746 36.155762 141.450195 35.315186 Q 140.660645 34.474609 140.660645 32.997559 Q 140.660645 31.558105 141.434082 30.698730 Q 142.207520 29.839355 143.496582 29.839355 Q 144.645996 29.839355 145.309326 30.618164 Q 145.972656 31.396973 146.015625 32.498047 Z M 145.027344 32.208008 Q 144.962891 31.584961 144.573486 31.131104 Q 144.184082 30.677246 143.453613 30.677246 Q 142.739258 30.677246 142.277344 31.149902 Q 141.815430 31.622559 141.772461 32.213379 Z " fill="rgb(0, 0, 0)" fill-opacity="1.000000" />
<path d="M 153.015625 32.498047 L 153.015625 32.981445 L 148.734863 32.981445 L 148.734863 33.013672 Q 148.691895 34.243652 149.204834 34.780762 Q 149.717773 35.317871 150.652344 35.317871 Q 151.125000 35.317871 151.640625 35.167480 Q 152.156250 35.017090 152.741699 34.710938 L 152.741699 35.693848 Q 152.177734 35.924805 151.654053 36.040283 Q 151.130371 36.155762 150.641602 36.155762 Q 149.239746 36.155762 148.450195 35.315186 Q 147.660645 34.474609 147.660645 32.997559 Q 147.660645 31.558105 148.434082 30.698730 Q 149.207520 29.839355 150.496582 29.839355 Q 151.645996 29.839355 152.309326 30.618164 Q 152.972656 31.396973 153.015625 32.498047 Z M 152.027344 32.208008 Q 151.962891 31.584961 151.573486 31.131104 Q 151.184082 30.677246 150.453613 30.677246 Q 149.739258 30.677246 149.277344 31.149902 Q 148.815430 31.622559 148.772461 32.213379 Z " fill="rgb(0, 0, 0)" fill-opacity="1.000000" />
<path d="M 167.203613 31.225098 Q 166.886719 30.978027 166.559082 30.865234 Q 166.231445 30.752441 165.839355 30.752441 Q 164.915527 30.752441 164.426758 31.332520 Q 163.937988 31.912598 163.937988 33.008301 L 163.937988 36.000000 L 162.944336 36.000000 L 162.944336 29.984375 L 163.937988 29.984375 L 163.937988 31.160645 Q 164.185059 30.521484 164.697998 30.180420 Q 165.210938 29.839355 165.914551 29.839355 Q 166.279785 29.839355 166.596680 29.930664 Q 166.913574 30.021973 167.203613 30.215332 Z " fill="rgb(0, 0, 0)" fill-opacity="1.000000" />
<path d="M 171.308594 30.677246 Q 170.556641 30.677246 170.169922 31.262695 Q 169.783203 31.848145 169.783203 32.997559 Q 169.783203 34.141602 170.169922 34.729736 Q 170.556641 35.317871 171.308594 35.317871 Q 172.065918 35.317871 172.452637 34.729736 Q 172.839355 34.141602 172.839355 32.997559 Q 172.839355 31.848145 172.452637 31.262695 Q 172.065918 30.677246 171.308594 30.677246 Z M 171.308594 29.839355 Q 172.560059 29.839355 173.223389 30.650391 Q 173.886719 31.461426 173.886719 32.997559 Q 173.886719 34.539062 173.226074 35.347412 Q 172.565430 36.155762 171.308594 36.155762 Q 170.057129 36.155762 169.396484 35.347412 Q 168.735840 34.539062 168.735840 32.997559 Q 168.735840 31.461426 169.396484 30.650391 Q 170.057129 29.839355 171.308594 29.839355 Z " fill="rgb(0, 0, 0)" fill-opacity="1.000000" />
<path d="M 178.308594 30.677246 Q 177.556641 30.677246 177.169922 31.262695 Q 176.783203 31.848145 176.783203 32.997559 Q 176.783203 34.141602 177.169922 34.729736 Q 177.556641 35.317871 178.308594 35.317871 Q 179.065918 35.317871 179.452637 34.729736 Q 179.839355 34.141602 179.839355 32.997559 Q 179.839355 31.848145 179.452637 31.262695 Q 179.065918 30.677246 178.308594 30.677246 Z M 178.308594 29.839355 Q 179.560059 29.839355 180.223389 30.650391 Q 180.886719 31.461426 180.886719 32.997559 Q 180.886719 34.539062 180.226074 35.347412 Q 179.565430 36.155762 178.308594 36.155762 Q 177.057129 36.155762 176.396484 35.347412 Q 175.735840 34.539062 175.735840 32.997559 Q 175.735840 31.461426 176.396484 30.650391 Q 177.057129 29.839355 178.308594 29.839355 Z " fill="rgb(0, 0, 0)" fill-opacity="1.000000" />
<path d="M 185.297852 28.276367 L 185.297852 29.984375 L 187.542969 29.984375 L 187.542969 30.752441 L 185.297852 30.752441 L 185.297852 34.018066 Q 185.297852 34.684082 185.550293 34.947266 Q 185.802734 35.210449 186.431152 35.210449 L 187.542969 35.210449 L 187.542969 36.000000 L 186.334473 36.000000 Q 185.222656 36.000000 184.766113 35.554199 Q 184.309570 35.108398 184.309570 34.018066 L 184.309570 30.752441 L 182.703613 30.752441 L 182.703613 29.984375 L 184.309570 29.984375 L 184.309570 28.276367 Z " fill="rgb(0, 0, 0)" fill-opacity="1.000000" />
<path d="M 226.878906 39.319336 L 226.878906 25.300781 L 227.738281 25.300781 L 227.738281 39.319336 Z " fill="rgb(0, 0, 0)" fill-opacity="1.000000" />
<path d="M 230.892578 38.750000 L 230.892578 27.535156 L 237.729980 27.535156 L 237.729980 38.750000 Z " fill="rgb(0, 0, 0)" fill-opacity="1.000000" />
<path d="M 226.878906 26.319336 L 226.878906 12.300781 L 227.738281 12.300781 L 227.738281 26.319336 Z " fill="rgb(0, 0, 0)" fill-opacity="1.000000" />
<path d="M 230.892578 25.750000 L 230.892578 14.535156 L 237.729980 14.535156 L 237.729980 25.750000 Z " fill="rgb(0, 0, 0)" fill-opacity="1.000000" />
<path d="M 83.892578 7.335938 L 83.892578 6.412109 L 90.729980 6.412109 L 90.729980 7.335938 Z " fill="rgb(0, 0, 0)" fill-opacity="1.000000" />
<path d="M 90.892578 7.335938 L 90.892578 6.412109 L 97.729980 6.412109 L 97.729980 7.335938 Z " fill="rgb(0, 0, 0)" fill-opacity="1.000000" />
<path d="M 97.892578 7.335938 L 97.892578 6.412109 L 104.729980 6.412109 L 104.729980 7.335938 Z " fill="rgb(0, 0, 0)" fill-opacity="1.000000" />
<path d="M 104.892578 7.335938 L 104.892578 6.412109 L 111.729980 6.412109 L 111.729980 7.335938 Z " fill="rgb(0, 0, 0)" fill-opacity="1.000000" />
<path d="M 111.892578 7.335938 L 111.892578 6.412109 L 118.729980 6.412109 L 118.729980 7.335938 Z " fill="rgb(0, 0, 0)" fill-opacity="1.000000" />
<path d="M 118.892578 7.335938 L 118.892578 6.412109 L 125.729980 6.412109 L 125.729980 7.335938 Z " fill="rgb(0, 0, 0)" fill-opacity="1.000000" />
<path d="M 125.892578 7.335938 L 125.892578 6.412109 L 132.729980 6.412109 L 132.729980 7.335938 Z " fill="rgb(0, 0, 0)" fill-opacity="1.000000" />
<path d="M 132.892578 7.335938 L 132.892578 6.412109 L 139.729980 6.412109 L 139.729980 7.335938 Z " fill="rgb(0, 0, 0)" fill-opacity="1.000000" />
<path d="M 139.892578 7.335938 L 139.892578 6.412109 L 146.729980 6.412109 L 146.729980 7.335938 Z " fill="rgb(0, 0, 0)" fill-opacity="1.000000" />
<path d="M 146.892578 7.335938 L 146.892578 6.412109 L 153.729980 6.412109 L 153.729980 7.335938 Z " fill="rgb(0, 0, 0)" fill-opacity="1.000000" />
<path d="M 153.892578 7.335938 L 153.892578 6.412109 L 160.729980 6.412109 L 160.729980 7.335938 Z " fill="rgb(0, 0, 0)" fill-opacity="1.000000" />
<path d="M 160.892578 7.335938 L 160.892578 6.412109 L 167.729980 6.412109 L 167.729980 7.335938 Z " fill="rgb(0, 0, 0)" fill-opacity="1.000000" />
<path d="M 167.892578 7.335938 L 167.892578 6.412109 L 174.729980 6.412109 L 174.729980 7.335938 Z " fill="rgb(0, 0, 0)" fill-opacity="1.000000" />
<path d="M 174.892578 7.335938 L 174.892578 6.412109 L 181.729980 6.412109 L 181.729980 7.335938 Z " fill="rgb(0, 0, 0)" fill-opacity="1.000000" />
<path d="M 181.892578 7.335938 L 181.892578 6.412109 L 188.729980 6.412109 L 188.729980 7.335938 Z " fill="rgb(0, 0, 0)" fill-opacity="1.000000" />
<path d="M 188.892578 7.335938 L 188.892578 6.412109 L 195.729980 6.412109 L 195.729980 7.335938 Z " fill="rgb(0, 0, 0)" fill-opacity="1.000000" />
<path d="M 195.892578 7.335938 L 195.892578 6.412109 L 202.729980 6.412109 L 202.729980 7.335938 Z " fill="rgb(0, 0, 0)" fill-opacity="1.000000" />
<path d="M 202.892578 7.335938 L 202.892578 6.412109 L 209.729980 6.412109 L 209.729980 7.335938 Z " fill="rgb(0, 0, 0)" fill-opacity="1.000000" />
<path d="M 209.892578 7.335938 L 209.892578 6.412109 L 216.729980 6.412109 L 216.729980 7.335938 Z " fill="rgb(0, 0, 0)" fill-opacity="1.000000" />
<path d="M 216.892578 7.335938 L 216.892578 6.412109 L 223.729980 6.412109 L 223.729980 7.335938 Z " fill="rgb(0, 0, 0)" fill-opacity="1.000000" />
<path d="M 226.878906 13.319336 L 226.878906 7.335938 L 223.892578 7.335938 L 223.892578 6.412109 L 227.738281 6.412109 L 227.738281 13.319336 Z " fill="rgb(0, 0, 0)" fill-opacity="1.000000" />
</svg>