<svg xmlns="http://www.w3.org/2000/svg" version="1.1" width="561" height="157">
<path d="M 1.670410 87.978516 Q 0.032227 87.033203 0.032227 85.142578 Q 0.032227 83.251953 1.670410 82.306641 Q 2.486816 81.833984 3.308594 81.833984 Q 4.125000 81.833984 4.946777 82.306641 Q 6.590332 83.251953 6.590332 85.142578 Q 6.590332 87.033203 4.946777 87.978516 Q 4.125000 88.451172 3.308594 88.451172 Q 2.486816 88.451172 1.670410 87.978516 Z " fill="rgb(0, 0, 0)" fill-opacity="1.000000" />
<path d="M 198.878906 117.319336 L 198.878906 110.412109 L 202.729980 110.412109 L 202.729980 111.335938 L 199.738281 111.335938 L 199.738281 117.319336 Z " fill="rgb(0, 0, 0)" fill-opacity="1.000000" />
<path d="M 198.878906 130.319336 L 198.878906 116.300781 L 199.738281 116.300781 L 199.738281 130.319336 Z " fill="rgb(0, 0, 0)" fill-opacity="1.000000" />
<path d="M 198.878906 137.335938 L 198.878906 129.300781 L 199.738281 129.300781 L 199.738281 136.412109 L 202.729980 136.412109 L 202.729980 137.335938 Z " fill="rgb(0, 0, 0)" fill-opacity="1.000000" />
<path d="M 478.449219 150.797852 L 478.449219 142.300781 L 480.167969 142.300781 L 480.167969 148.950195 L 482.729980 148.950195 L 482.729980 150.797852 Z " fill="rgb(190, 0, 0)" fill-opacity="1.000000" />
<path d="M 482.892578 150.797852 L 482.892578 148.950195 L 489.729980 148.950195 L 489.729980 150.797852 Z " fill="rgb(190, 0, 0)" fill-opacity="1.000000" />
<path d="M 489.892578 150.797852 L 489.892578 148.950195 L 496.729980 148.950195 L 496.729980 150.797852 Z " fill="rgb(190, 0, 0)" fill-opacity="1.000000" />
<path d="M 496.892578 150.797852 L 496.892578 148.950195 L 503.729980 148.950195 L 503.729980 150.797852 Z " fill="rgb(190, 0, 0)" fill-opacity="1.000000" />
<path d="M 503.892578 150.797852 L 503.892578 148.950195 L 510.729980 148.950195 L 510.729980 150.797852 Z " fill="rgb(190, 0, 0)" fill-opacity="1.000000" />
<path d="M 510.892578 150.797852 L 510.892578 148.950195 L 517.729980 148.950195 L 517.729980 150.797852 Z " fill="rgb(190, 0, 0)" fill-opacity="1.000000" />
<path d="M 517.892578 150.797852 L 517.892578 148.950195 L 524.729980 148.950195 L 524.729980 150.797852 Z " fill="rgb(190, 0, 0)" fill-opacity="1.000000" />
<path d="M 524.892578 150.797852 L 524.892578 148.950195 L 531.729980 148.950195 L 531.729980 150.797852 Z " fill="rgb(190, 0, 0)" fill-opacity="1.000000" />
<path d="M 531.892578 150.797852 L 531.892578 148.950195 L 538.729980 148.950195 L 538.729980 150.797852 Z " fill="rgb(190, 0, 0)" fill-opacity="1.000000" />
<path d="M 538.892578 150.797852 L 538.892578 148.950195 L 545.729980 148.950195 L 545.729980 150.797852 Z " fill="rgb(190, 0, 0)" fill-opacity="1.000000" />
<path d="M 545.892578 150.797852 L 545.892578 148.950195 L 552.729980 148.950195 L 552.729980 150.797852 Z " fill="rgb(190, 0, 0)" fill-opacity="1.000000" />
<path d="M 552.892578 150.797852 L 552.892578 148.950195 L 555.449219 148.950195 L 555.449219 142.300781 L 557.167969 142.300781 L 557.167969 150.797852 Z " fill="rgb(190, 0, 0)" fill-opacity="1.000000" />
<path d="M 202.892578 137.335938 L 202.892578 136.412109 L 209.729980 136.412109 L 209.729980 137.335938 Z " fill="rgb(0, 0, 0)" fill-opacity="1.000000" />
<path d="M 209.892578 137.335938 L 209.892578 136.412109 L 216.729980 136.412109 L 216.729980 137.335938 Z " fill="rgb(0, 0, 0)" fill-opacity="1.000000" />
<path d="M 216.892578 137.335938 L 216.892578 136.412109 L 223.729980 136.412109 L 223.729980 137.335938 Z " fill="rgb(0, 0, 0)" fill-opacity="1.000000" />
<path d="M 223.892578 137.335938 L 223.892578 136.412109 L 230.729980 136.412109 L 230.729980 137.335938 Z " fill="rgb(0, 0, 0)" fill-opacity="1.000000" />
<path d="M 230.892578 137.335938 L 230.892578 136.412109 L 237.729980 136.412109 L 237.729980 137.335938 Z " fill="rgb(0, 0, 0)" fill-opacity="1.000000" />
<path d="M 237.892578 137.335938 L 237.892578 136.412109 L 244.729980 136.412109 L 244.729980 137.335938 Z " fill="rgb(0, 0, 0)" fill-opacity="1.000000" />
<path d="M 244.892578 137.335938 L 244.892578 136.412109 L 251.729980 136.412109 L 251.729980 137.335938 Z " fill="rgb(0, 0, 0)" fill-opacity="1.000000" />
<path d="M 251.892578 137.335938 L 251.892578 136.412109 L 258.729980 136.412109 L 258.729980 137.335938 Z " fill="rgb(0, 0, 0)" fill-opacity="1.000000" />
<path d="M 258.892578 137.335938 L 258.892578 136.412109 L 265.729980 136.412109 L 265.729980 137.335938 Z " fill="rgb(0, 0, 0)" fill-opacity="1.000000" />
<path d="M 265.892578 137.335938 L 265.892578 136.412109 L 272.729980 136.412109 L 272.729980 137.335938 Z " fill="rgb(0, 0, 0)" fill-opacity="1.000000" />
<path d="M 272.892578 137.335938 L 272.892578 136.412109 L 275.878906 136.412109 L 275.878906 129.300781 L 276.738281 129.300781 L 276.738281 137.335938 Z " fill="rgb(0, 0, 0)" fill-opacity="1.000000" />
<path d="M 478.449219 143.319336 L 478.449219 129.300781 L 480.167969 129.300781 L 480.167969 143.319336 Z " fill="rgb(190, 0, 0)" fill-opacity="1.000000" />
<path d="M 493.308594 139.086914 L 495.193848 131.980957 L 496.316406 131.980957 L 493.969238 140.000000 L 492.653320 140.000000 L 490.306152 131.980957 L 491.428711 131.980957 Z " fill="rgb(190, 0, 0)" fill-opacity="1.000000" />
<path d="M 498.079590 131.980957 L 502.532227 131.980957 L 502.532227 132.894043 L 500.851074 132.894043 L 500.851074 139.086914 L 502.532227 139.086914 L 502.532227 140.000000 L 498.079590 140.000000 L 498.079590 139.086914 L 499.760742 139.086914 L 499.760742 132.894043 L 498.079590 132.894043 Z " fill="rgb(190, 0, 0)" fill-opacity="1.000000" />
<path d="M 509.435547 132.254883 L 509.435547 133.355957 Q 508.941406 133.039062 508.444580 132.877930 Q 507.947754 132.716797 507.442871 132.716797 Q 506.674805 132.716797 506.229004 133.073975 Q 505.783203 133.431152 505.783203 134.038086 Q 505.783203 134.569824 506.075928 134.849121 Q 506.368652 135.128418 507.168945 135.316406 L 507.738281 135.445312 Q 508.866211 135.708496 509.381836 136.272461 Q 509.897461 136.836426 509.897461 137.808594 Q 509.897461 138.952637 509.188477 139.554199 Q 508.479492 140.155762 507.125977 140.155762 Q 506.562012 140.155762 505.992676 140.034912 Q 505.423340 139.914062 504.848633 139.672363 L 504.848633 138.517578 Q 505.466309 138.909668 506.016846 139.092285 Q 506.567383 139.274902 507.125977 139.274902 Q 507.947754 139.274902 508.404297 138.906982 Q 508.860840 138.539062 508.860840 137.878418 Q 508.860840 137.276855 508.546631 136.959961 Q 508.232422 136.643066 507.453613 136.471191 L 506.873535 136.336914 Q 505.756348 136.084473 505.251465 135.574219 Q 504.746582 135.063965 504.746582 134.204590 Q 504.746582 133.130371 505.468994 132.483154 Q 506.191406 131.835938 507.389160 131.835938 Q 507.851074 131.835938 508.361328 131.940674 Q 508.871582 132.045410 509.435547 132.254883 Z " fill="rgb(190, 0, 0)" fill-opacity="1.000000" />
<path d="M 512.079590 131.980957 L 516.532227 131.980957 L 516.532227 132.894043 L 514.851074 132.894043 L 514.851074 139.086914 L 516.532227 139.086914 L 516.532227 140.000000 L 512.079590 140.000000 L 512.079590 139.086914 L 513.760742 139.086914 L 513.760742 132.894043 L 512.079590 132.894043 Z " fill="rgb(190, 0, 0)" fill-opacity="1.000000" />
<path d="M 519.981934 135.955566 L 519.981934 139.108398 L 521.265625 139.108398 Q 522.210938 139.108398 522.613770 138.778076 Q 523.016602 138.447754 523.016602 137.690430 Q 523.016602 136.691406 522.592285 136.323486 Q 522.167969 135.955566 521.265625 135.955566 Z M 519.981934 132.872559 L 519.981934 135.074707 L 521.244141 135.074707 Q 522.028320 135.074707 522.380127 134.773926 Q 522.731934 134.473145 522.731934 134.016602 Q 522.731934 133.409668 522.385498 133.141113 Q 522.039062 132.872559 521.244141 132.872559 Z M 518.891602 131.980957 L 521.265625 131.980957 Q 522.495605 131.980957 523.161621 132.512695 Q 523.827637 133.044434 523.827637 134.016602 Q 523.827637 134.537598 523.475830 134.961914 Q 523.124023 135.386230 522.420410 135.493652 Q 523.209961 135.611816 523.658447 136.167725 Q 524.106934 136.723633 524.106934 137.797852 Q 524.106934 138.888184 523.392578 139.444092 Q 522.678223 140.000000 521.265625 140.000000 L 518.891602 140.000000 Z " fill="rgb(190, 0, 0)" fill-opacity="1.000000" />
<path d="M 526.154785 131.980957 L 527.245117 131.980957 L 527.245117 139.086914 L 531.117676 139.086914 L 531.117676 140.000000 L 526.154785 140.000000 Z " fill="rgb(190, 0, 0)" fill-opacity="1.000000" />
<path d="M 533.058105 131.980957 L 537.816895 131.980957 L 537.816895 132.894043 L 534.143066 132.894043 L 534.143066 135.053223 L 537.655762 135.053223 L 537.655762 135.966309 L 534.143066 135.966309 L 534.143066 139.086914 L 537.918945 139.086914 L 537.918945 140.000000 L 533.058105 140.000000 Z " fill="rgb(190, 0, 0)" fill-opacity="1.000000" />
<path d="M 541.932617 131.980957 L 543.022949 131.980957 L 543.022949 135.499023 L 542.910156 137.147949 L 542.045410 137.147949 L 541.932617 135.499023 Z M 541.771484 138.635742 L 543.184082 138.635742 L 543.184082 140.000000 L 541.771484 140.000000 Z " fill="rgb(190, 0, 0)" fill-opacity="1.000000" />
<path d="M 555.449219 143.319336 L 555.449219 129.300781 L 557.167969 129.300781 L 557.167969 143.319336 Z " fill="rgb(190, 0, 0)" fill-opacity="1.000000" />
<path d="M 206.222656 127.107422 L 206.222656 121.752441 L 204.520020 121.752441 L 204.520020 120.984375 L 207.210938 120.984375 L 207.210938 127.107422 Q 207.210938 128.154785 206.730225 128.721436 Q 206.249512 129.288086 205.363281 129.288086 L 203.999023 129.288086 L 203.999023 128.450195 L 205.255859 128.450195 Q 205.739258 128.450195 205.980957 128.114502 Q 206.222656 127.778809 206.222656 127.107422 Z M 206.222656 118.642578 L 207.210938 118.642578 L 207.210938 119.894043 L 206.222656 119.894043 Z " fill="rgb(0, 0, 0)" fill-opacity="1.000000" />
<path d="M 213.308594 121.677246 Q 212.556641 121.677246 212.169922 122.262695 Q 211.783203 122.848145 211.783203 123.997559 Q 211.783203 125.141602 212.169922 125.729736 Q 212.556641 126.317871 213.308594 126.317871 Q 214.065918 126.317871 214.452637 125.729736 Q 214.839355 125.141602 214.839355 123.997559 Q 214.839355 122.848145 214.452637 122.262695 Q 214.065918 121.677246 213.308594 121.677246 Z M 213.308594 120.839355 Q 214.560059 120.839355 215.223389 121.650391 Q 215.886719 122.461426 215.886719 123.997559 Q 215.886719 125.539062 215.226074 126.347412 Q 214.565430 127.155762 213.308594 127.155762 Q 212.057129 127.155762 211.396484 126.347412 Q 210.735840 125.539062 210.735840 123.997559 Q 210.735840 122.461426 211.396484 121.650391 Q 212.057129 120.839355 213.308594 120.839355 Z " fill="rgb(0, 0, 0)" fill-opacity="1.000000" />
<path d="M 221.930664 123.997559 Q 221.930664 122.848145 221.565430 122.262695 Q 221.200195 121.677246 220.485840 121.677246 Q 219.766113 121.677246 219.395508 122.265381 Q 219.024902 122.853516 219.024902 123.997559 Q 219.024902 125.136230 219.395508 125.727051 Q 219.766113 126.317871 220.485840 126.317871 Q 221.200195 126.317871 221.565430 125.732422 Q 221.930664 125.146973 221.930664 123.997559 Z M 219.024902 121.752441 Q 219.261230 121.312012 219.677490 121.075684 Q 220.093750 120.839355 220.641602 120.839355 Q 221.726562 120.839355 222.349609 121.674561 Q 222.972656 122.509766 222.972656 123.976074 Q 222.972656 125.463867 222.346924 126.309814 Q 221.721191 127.155762 220.630859 127.155762 Q 220.093750 127.155762 219.682861 126.922119 Q 219.271973 126.688477 219.024902 126.242676 L 219.024902 127.000000 L 218.036621 127.000000 L 218.036621 118.642578 L 219.024902 118.642578 Z " fill="rgb(0, 0, 0)" fill-opacity="1.000000" />
<path d="M 236.226074 121.193848 L 236.226074 122.160645 Q 235.801758 121.913574 235.372070 121.790039 Q 234.942383 121.666504 234.496582 121.666504 Q 233.825195 121.666504 233.494873 121.884033 Q 233.164551 122.101562 233.164551 122.547363 Q 233.164551 122.950195 233.411621 123.148926 Q 233.658691 123.347656 234.641602 123.535645 L 235.039062 123.610840 Q 235.774902 123.750488 236.153564 124.169434 Q 236.532227 124.588379 236.532227 125.259766 Q 236.532227 126.151367 235.898438 126.653564 Q 235.264648 127.155762 234.136719 127.155762 Q 233.690918 127.155762 233.202148 127.061768 Q 232.713379 126.967773 232.144043 126.779785 L 232.144043 125.759277 Q 232.697266 126.043945 233.202148 126.186279 Q 233.707031 126.328613 234.158203 126.328613 Q 234.813477 126.328613 235.173340 126.062744 Q 235.533203 125.796875 235.533203 125.318848 Q 235.533203 124.631348 234.217285 124.368164 L 234.174316 124.357422 L 233.803711 124.282227 Q 232.949707 124.115723 232.557617 123.720947 Q 232.165527 123.326172 232.165527 122.644043 Q 232.165527 121.779297 232.750977 121.309326 Q 233.336426 120.839355 234.421387 120.839355 Q 234.904785 120.839355 235.350586 120.927979 Q 235.796387 121.016602 236.226074 121.193848 Z " fill="rgb(0, 0, 0)" fill-opacity="1.000000" />
<path d="M 241.297852 119.276367 L 241.297852 120.984375 L 243.542969 120.984375 L 243.542969 121.752441 L 241.297852 121.752441 L 241.297852 125.018066 Q 241.297852 125.684082 241.550293 125.947266 Q 241.802734 126.210449 242.431152 126.210449 L 243.542969 126.210449 L 243.542969 127.000000 L 242.334473 127.000000 Q 241.222656 127.000000 240.766113 126.554199 Q 240.309570 126.108398 240.309570 125.018066 L 240.309570 121.752441 L 238.703613 121.752441 L 238.703613 120.984375 L 240.309570 120.984375 L 240.309570 119.276367 Z " fill="rgb(0, 0, 0)" fill-opacity="1.000000" />
<path d="M 248.770508 123.976074 L 248.442871 123.976074 Q 247.578125 123.976074 247.140381 124.279541 Q 246.702637 124.583008 246.702637 125.184570 Q 246.702637 125.727051 247.030273 126.027832 Q 247.357910 126.328613 247.937988 126.328613 Q 248.754395 126.328613 249.221680 125.761963 Q 249.688965 125.195312 249.694336 124.196289 L 249.694336 123.976074 Z M 250.687988 123.567871 L 250.687988 127.000000 L 249.694336 127.000000 L 249.694336 126.108398 Q 249.377441 126.645508 248.896729 126.900635 Q 248.416016 127.155762 247.728516 127.155762 Q 246.810059 127.155762 246.262207 126.637451 Q 245.714355 126.119141 245.714355 125.249023 Q 245.714355 124.244629 246.388428 123.723633 Q 247.062500 123.202637 248.367676 123.202637 L 249.694336 123.202637 L 249.694336 123.046875 Q 249.688965 122.327148 249.329102 122.002197 Q 248.969238 121.677246 248.179688 121.677246 Q 247.674805 121.677246 247.159180 121.822266 Q 246.643555 121.967285 246.154785 122.246582 L 246.154785 121.258301 Q 246.702637 121.048828 247.204834 120.944092 Q 247.707031 120.839355 248.179688 120.839355 Q 248.926270 120.839355 249.455322 121.059570 Q 249.984375 121.279785 250.312012 121.720215 Q 250.516113 121.988770 250.602051 122.383545 Q 250.687988 122.778320 250.687988 123.567871 Z " fill="rgb(0, 0, 0)" fill-opacity="1.000000" />
<path d="M 258.203613 122.225098 Q 257.886719 121.978027 257.559082 121.865234 Q 257.231445 121.752441 256.839355 121.752441 Q 255.915527 121.752441 255.426758 122.332520 Q 254.937988 122.912598 254.937988 124.008301 L 254.937988 127.000000 L 253.944336 127.000000 L 253.944336 120.984375 L 254.937988 120.984375 L 254.937988 122.160645 Q 255.185059 121.521484 255.697998 121.180420 Q 256.210938 120.839355 256.914551 120.839355 Q 257.279785 120.839355 257.596680 120.930664 Q 257.913574 121.021973 258.203613 121.215332 Z " fill="rgb(0, 0, 0)" fill-opacity="1.000000" />
<path d="M 262.297852 119.276367 L 262.297852 120.984375 L 264.542969 120.984375 L 264.542969 121.752441 L 262.297852 121.752441 L 262.297852 125.018066 Q 262.297852 125.684082 262.550293 125.947266 Q 262.802734 126.210449 263.431152 126.210449 L 264.542969 126.210449 L 264.542969 127.000000 L 263.334473 127.000000 Q 262.222656 127.000000 261.766113 126.554199 Q 261.309570 126.108398 261.309570 125.018066 L 261.309570 121.752441 L 259.703613 121.752441 L 259.703613 120.984375 L 261.309570 120.984375 L 261.309570 119.276367 Z " fill="rgb(0, 0, 0)" fill-opacity="1.000000" />
<path d="M 271.226074 121.193848 L 271.226074 122.160645 Q 270.801758 121.913574 270.372070 121.790039 Q 269.942383 121.666504 269.496582 121.666504 Q 268.825195 121.666504 268.494873 121.884033 Q 268.164551 122.101562 268.164551 122.547363 Q 268.164551 122.950195 268.411621 123.148926 Q 268.658691 123.347656 269.641602 123.535645 L 270.039062 123.610840 Q 270.774902 123.750488 271.153564 124.169434 Q 271.532227 124.588379 271.532227 125.259766 Q 271.532227 126.151367 270.898438 126.653564 Q 270.264648 127.155762 269.136719 127.155762 Q 268.690918 127.155762 268.202148 127.061768 Q 267.713379 126.967773 267.144043 126.779785 L 267.144043 125.759277 Q 267.697266 126.043945 268.202148 126.186279 Q 268.707031 126.328613 269.158203 126.328613 Q 269.813477 126.328613 270.173340 126.062744 Q 270.533203 125.796875 270.533203 125.318848 Q 270.533203 124.631348 269.217285 124.368164 L 269.174316 124.357422 L 268.803711 124.282227 Q 267.949707 124.115723 267.557617 123.720947 Q 267.165527 123.326172 267.165527 122.644043 Q 267.165527 121.779297 267.750977 121.309326 Q 268.336426 120.839355 269.421387 120.839355 Q 269.904785 120.839355 270.350586 120.927979 Q 270.796387 121.016602 271.226074 121.193848 Z " fill="rgb(0, 0, 0)" fill-opacity="1.000000" />
<path d="M 275.878906 130.319336 L 275.878906 116.300781 L 276.738281 116.300781 L 276.738281 123.412109 L 279.729980 123.412109 L 279.729980 124.335938 L 276.738281 124.335938 L 276.738281 130.319336 Z " fill="rgb(0, 0, 0)" fill-opacity="1.000000" />
<path d="M 279.892578 124.335938 L 279.892578 123.412109 L 286.729980 123.412109 L 286.729980 124.335938 Z " fill="rgb(0, 0, 0)" fill-opacity="1.000000" />
<path d="M 286.892578 124.335938 L 286.892578 123.412109 L 293.729980 123.412109 L 293.729980 124.335938 Z " fill="rgb(0, 0, 0)" fill-opacity="1.000000" />
<path d="M 293.892578 124.335938 L 293.892578 123.412109 L 300.729980 123.412109 L 300.729980 124.335938 Z " fill="rgb(0, 0, 0)" fill-opacity="1.000000" />
<path d="M 300.892578 124.335938 L 300.892578 123.412109 L 307.729980 123.412109 L 307.729980 124.335938 Z " fill="rgb(0, 0, 0)" fill-opacity="1.000000" />
<path d="M 307.892578 124.335938 L 307.892578 123.412109 L 314.729980 123.412109 L 314.729980 124.335938 Z " fill="rgb(0, 0, 0)" fill-opacity="1.000000" />
<path d="M 315.644531 126.505859 L 320.365723 124.142578 L 315.644531 121.779297 Z M 315.032227 127.418945 L 315.032227 120.866211 L 321.590332 124.142578 Z " fill="rgb(0, 0, 0)" fill-opacity="1.000000" />
<path d="M 330.670410 126.978516 Q 329.032227 126.033203 329.032227 124.142578 Q 329.032227 122.251953 330.670410 121.306641 Q 331.486816 120.833984 332.308594 120.833984 Q 333.125000 120.833984 333.946777 121.306641 Q 335.590332 122.251953 335.590332 124.142578 Q 335.590332 126.033203 333.946777 126.978516 Q 333.125000 127.451172 332.308594 127.451172 Q 331.486816 127.451172 330.670410 126.978516 Z " fill="rgb(0, 0, 0)" fill-opacity="1.000000" />
<path d="M 335.892578 124.797852 L 335.892578 122.950195 L 342.729980 122.950195 L 342.729980 124.797852 Z " fill="rgb(0, 0, 0)" fill-opacity="1.000000" />
<path d="M 342.892578 124.797852 L 342.892578 122.950195 L 349.729980 122.950195 L 349.729980 124.797852 Z " fill="rgb(0, 0, 0)" fill-opacity="1.000000" />
<path d="M 349.892578 124.797852 L 349.892578 122.950195 L 356.729980 122.950195 L 356.729980 124.797852 Z " fill="rgb(0, 0, 0)" fill-opacity="1.000000" />
<path d="M 356.892578 124.797852 L 356.892578 122.950195 L 363.729980 122.950195 L 363.729980 124.797852 Z " fill="rgb(0, 0, 0)" fill-opacity="1.000000" />
<path d="M 363.892578 124.797852 L 363.892578 122.950195 L 370.729980 122.950195 L 370.729980 124.797852 Z " fill="rgb(0, 0, 0)" fill-opacity="1.000000" />
<path d="M 370.892578 124.797852 L 370.892578 122.950195 L 377.729980 122.950195 L 377.729980 124.797852 Z " fill="rgb(0, 0, 0)" fill-opacity="1.000000" />
<path d="M 377.892578 124.797852 L 377.892578 122.950195 L 384.729980 122.950195 L 384.729980 124.797852 Z " fill="rgb(0, 0, 0)" fill-opacity="1.000000" />
<path d="M 384.892578 124.797852 L 384.892578 122.950195 L 391.729980 122.950195 L 391.729980 124.797852 Z " fill="rgb(0, 0, 0)" fill-opacity="1.000000" />
<path d="M 391.892578 124.797852 L 391.892578 122.950195 L 398.729980 122.950195 L 398.729980 124.797852 Z " fill="rgb(0, 0, 0)" fill-opacity="1.000000" />
<path d="M 398.892578 124.797852 L 398.892578 122.950195 L 405.729980 122.950195 L 405.729980 124.797852 Z " fill="rgb(0, 0, 0)" fill-opacity="1.000000" />
<path d="M 405.892578 124.797852 L 405.892578 122.950195 L 412.729980 122.950195 L 412.729980 124.797852 Z " fill="rgb(0, 0, 0)" fill-opacity="1.000000" />
<path d="M 413.032227 127.418945 L 413.032227 120.866211 L 419.590332 124.142578 Z " fill="rgb(0, 0, 0)" fill-opacity="1.000000" />
<path d="M 427.032227 124.142578 L 433.590332 120.866211 L 433.590332 127.418945 Z " fill="rgb(190, 0, 0)" fill-opacity="1.000000" />
<path d="M 433.892578 124.797852 L 433.892578 122.950195 L 440.729980 122.950195 L 440.729980 124.797852 Z " fill="rgb(190, 0, 0)" fill-opacity="1.000000" />
<path d="M 440.892578 124.797852 L 440.892578 122.950195 L 447.729980 122.950195 L 447.729980 124.797852 Z " fill="rgb(190, 0, 0)" fill-opacity="1.000000" />
<path d="M 447.892578 124.797852 L 447.892578 122.950195 L 454.729980 122.950195 L 454.729980 124.797852 Z " fill="rgb(190, 0, 0)" fill-opacity="1.000000" />
<path d="M 454.892578 124.797852 L 454.892578 122.950195 L 461.729980 122.950195 L 461.729980 124.797852 Z " fill="rgb(190, 0, 0)" fill-opacity="1.000000" />
<path d="M 461.892578 124.797852 L 461.892578 122.950195 L 468.729980 122.950195 L 468.729980 124.797852 Z " fill="rgb(190, 0, 0)" fill-opacity="1.000000" />
<path d="M 468.892578 124.797852 L 468.892578 122.950195 L 475.729980 122.950195 L 475.729980 124.797852 Z " fill="rgb(190, 0, 0)" fill-opacity="1.000000" />
<path d="M 478.449219 130.319336 L 478.449219 116.300781 L 480.167969 116.300781 L 480.167969 130.319336 Z " fill="rgb(190, 0, 0)" fill-opacity="1.000000" />
<path d="M 492.341797 126.108398 Q 493.711426 126.108398 494.253906 125.434326 Q 494.796387 124.760254 494.796387 122.998535 Q 494.796387 121.220703 494.256592 120.546631 Q 493.716797 119.872559 492.341797 119.872559 L 491.826172 119.872559 L 491.826172 126.108398 Z M 492.363281 118.980957 Q 494.200195 118.980957 495.070312 119.958496 Q 495.940430 120.936035 495.940430 122.998535 Q 495.940430 125.050293 495.070312 126.025146 Q 494.200195 127.000000 492.363281 127.000000 L 490.735840 127.000000 L 490.735840 118.980957 Z " fill="rgb(190, 0, 0)" fill-opacity="1.000000" />
<path d="M 500.308594 119.937012 L 499.164551 124.040527 L 501.452637 124.040527 Z M 499.653320 118.980957 L 500.969238 118.980957 L 503.423828 127.000000 L 502.301270 127.000000 L 501.710449 124.910645 L 498.901367 124.910645 L 498.321289 127.000000 L 497.198730 127.000000 Z " fill="rgb(190, 0, 0)" fill-opacity="1.000000" />
<path d="M 504.252441 118.980957 L 510.370117 118.980957 L 510.370117 119.894043 L 507.861816 119.894043 L 507.861816 127.000000 L 506.771484 127.000000 L 506.771484 119.894043 L 504.252441 119.894043 Z " fill="rgb(190, 0, 0)" fill-opacity="1.000000" />
<path d="M 514.308594 119.937012 L 513.164551 124.040527 L 515.452637 124.040527 Z M 513.653320 118.980957 L 514.969238 118.980957 L 517.423828 127.000000 L 516.301270 127.000000 L 515.710449 124.910645 L 512.901367 124.910645 L 512.321289 127.000000 L 511.198730 127.000000 Z " fill="rgb(190, 0, 0)" fill-opacity="1.000000" />
<path d="M 525.102051 119.007812 L 526.584473 119.007812 L 529.721191 125.587402 L 529.721191 119.007812 L 530.875977 119.007812 L 530.875977 127.000000 L 529.393555 127.000000 L 526.256836 120.420410 L 526.256836 127.000000 L 525.102051 127.000000 Z " fill="rgb(190, 0, 0)" fill-opacity="1.000000" />
<path d="M 536.860840 122.998535 Q 536.860840 121.231445 536.498291 120.474121 Q 536.135742 119.716797 535.308594 119.716797 Q 534.486816 119.716797 534.124268 120.474121 Q 533.761719 121.231445 533.761719 122.998535 Q 533.761719 124.760254 534.124268 125.517578 Q 534.486816 126.274902 535.308594 126.274902 Q 536.135742 126.274902 536.498291 125.520264 Q 536.860840 124.765625 536.860840 122.998535 Z M 537.994141 122.998535 Q 537.994141 125.093262 537.330811 126.124512 Q 536.667480 127.155762 535.308594 127.155762 Q 533.949707 127.155762 533.289062 126.129883 Q 532.628418 125.104004 532.628418 122.998535 Q 532.628418 120.898438 533.291748 119.867188 Q 533.955078 118.835938 535.308594 118.835938 Q 536.667480 118.835938 537.330811 119.867188 Q 537.994141 120.898438 537.994141 122.998535 Z " fill="rgb(190, 0, 0)" fill-opacity="1.000000" />
<path d="M 539.252441 118.980957 L 545.370117 118.980957 L 545.370117 119.894043 L 542.861816 119.894043 L 542.861816 127.000000 L 541.771484 127.000000 L 541.771484 119.894043 L 539.252441 119.894043 Z " fill="rgb(190, 0, 0)" fill-opacity="1.000000" />
<path d="M 555.449219 130.319336 L 555.449219 116.300781 L 557.167969 116.300781 L 557.167969 130.319336 Z " fill="rgb(190, 0, 0)" fill-opacity="1.000000" />
<path d="M 202.892578 111.335938 L 202.892578 110.412109 L 209.729980 110.412109 L 209.729980 111.335938 Z " fill="rgb(0, 0, 0)" fill-opacity="1.000000" />
<path d="M 209.892578 111.335938 L 209.892578 110.412109 L 216.729980 110.412109 L 216.729980 111.335938 Z " fill="rgb(0, 0, 0)" fill-opacity="1.000000" />
<path d="M 216.892578 111.335938 L 216.892578 110.412109 L 223.729980 110.412109 L 223.729980 111.335938 Z " fill="rgb(0, 0, 0)" fill-opacity="1.000000" />
<path d="M 223.892578 111.335938 L 223.892578 110.412109 L 230.729980 110.412109 L 230.729980 111.335938 Z " fill="rgb(0, 0, 0)" fill-opacity="1.000000" />
<path d="M 230.892578 111.335938 L 230.892578 110.412109 L 237.729980 110.412109 L 237.729980 111.335938 Z " fill="rgb(0, 0, 0)" fill-opacity="1.000000" />
<path d="M 237.892578 111.335938 L 237.892578 110.412109 L 244.729980 110.412109 L 244.729980 111.335938 Z " fill="rgb(0, 0, 0)" fill-opacity="1.000000" />
<path d="M 244.892578 111.335938 L 244.892578 110.412109 L 251.729980 110.412109 L 251.729980 111.335938 Z " fill="rgb(0, 0, 0)" fill-opacity="1.000000" />
<path d="M 251.892578 111.335938 L 251.892578 110.412109 L 258.729980 110.412109 L 258.729980 111.335938 Z " fill="rgb(0, 0, 0)" fill-opacity="1.000000" />
<path d="M 258.892578 111.335938 L 258.892578 110.412109 L 265.729980 110.412109 L 265.729980 111.335938 Z " fill="rgb(0, 0, 0)" fill-opacity="1.000000" />
<path d="M 265.892578 111.335938 L 265.892578 110.412109 L 272.729980 110.412109 L 272.729980 111.335938 Z " fill="rgb(0, 0, 0)" fill-opacity="1.000000" />
<path d="M 275.878906 117.319336 L 275.878906 111.335938 L 272.892578 111.335938 L 272.892578 110.412109 L 276.738281 110.412109 L 276.738281 117.319336 Z " fill="rgb(0, 0, 0)" fill-opacity="1.000000" />
<path d="M 332.308594 114.418945 L 329.032227 107.866211 L 335.590332 107.866211 Z " fill="rgb(0, 0, 0)" fill-opacity="1.000000" />
<path d="M 478.449219 117.319336 L 478.449219 103.300781 L 480.167969 103.300781 L 480.167969 117.319336 Z " fill="rgb(190, 0, 0)" fill-opacity="1.000000" />
<path d="M 514.926270 110.777344 L 516.918945 112.775391 L 516.301270 113.387695 L 514.308594 111.395020 L 512.315918 113.387695 L 511.698242 112.775391 L 513.690918 110.777344 L 511.698242 108.784668 L 512.315918 108.166992 L 514.308594 110.159668 L 516.306641 108.166992 L 516.924316 108.779297 Z " fill="rgb(190, 0, 0)" fill-opacity="1.000000" />
<path d="M 555.449219 117.319336 L 555.449219 103.300781 L 557.167969 103.300781 L 557.167969 117.319336 Z " fill="rgb(190, 0, 0)" fill-opacity="1.000000" />
<path d="M 331.449219 104.319336 L 331.449219 90.300781 L 333.167969 90.300781 L 333.167969 104.319336 Z " fill="rgb(0, 0, 0)" fill-opacity="1.000000" />
<path d="M 478.449219 104.319336 L 478.449219 96.950195 L 482.729980 96.950195 L 482.729980 98.797852 L 480.167969 98.797852 L 480.167969 104.319336 Z " fill="rgb(190, 0, 0)" fill-opacity="1.000000" />
<path d="M 482.892578 98.797852 L 482.892578 96.950195 L 489.729980 96.950195 L 489.729980 98.797852 Z " fill="rgb(190, 0, 0)" fill-opacity="1.000000" />
<path d="M 489.892578 98.797852 L 489.892578 96.950195 L 496.729980 96.950195 L 496.729980 98.797852 Z " fill="rgb(190, 0, 0)" fill-opacity="1.000000" />
<path d="M 496.892578 98.797852 L 496.892578 96.950195 L 503.729980 96.950195 L 503.729980 98.797852 Z " fill="rgb(190, 0, 0)" fill-opacity="1.000000" />
<path d="M 503.892578 98.797852 L 503.892578 96.950195 L 510.729980 96.950195 L 510.729980 98.797852 Z " fill="rgb(190, 0, 0)" fill-opacity="1.000000" />
<path d="M 510.892578 98.797852 L 510.892578 96.950195 L 517.729980 96.950195 L 517.729980 98.797852 Z " fill="rgb(190, 0, 0)" fill-opacity="1.000000" />
<path d="M 517.892578 98.797852 L 517.892578 96.950195 L 524.729980 96.950195 L 524.729980 98.797852 Z " fill="rgb(190, 0, 0)" fill-opacity="1.000000" />
<path d="M 524.892578 98.797852 L 524.892578 96.950195 L 531.729980 96.950195 L 531.729980 98.797852 Z " fill="rgb(190, 0, 0)" fill-opacity="1.000000" />
<path d="M 531.892578 98.797852 L 531.892578 96.950195 L 538.729980 96.950195 L 538.729980 98.797852 Z " fill="rgb(190, 0, 0)" fill-opacity="1.000000" />
<path d="M 538.892578 98.797852 L 538.892578 96.950195 L 545.729980 96.950195 L 545.729980 98.797852 Z " fill="rgb(190, 0, 0)" fill-opacity="1.000000" />
<path d="M 545.892578 98.797852 L 545.892578 96.950195 L 552.729980 96.950195 L 552.729980 98.797852 Z " fill="rgb(190, 0, 0)" fill-opacity="1.000000" />
<path d="M 555.449219 104.319336 L 555.449219 98.797852 L 552.892578 98.797852 L 552.892578 96.950195 L 557.167969 96.950195 L 557.167969 104.319336 Z " fill="rgb(190, 0, 0)" fill-opacity="1.000000" />
<path d="M 6.892578 85.797852 L 6.892578 83.950195 L 13.729980 83.950195 L 13.729980 85.797852 Z " fill="rgb(0, 0, 0)" fill-opacity="1.000000" />
<path d="M 13.892578 85.797852 L 13.892578 83.950195 L 20.729980 83.950195 L 20.729980 85.797852 Z " fill="rgb(0, 0, 0)" fill-opacity="1.000000" />
<path d="M 20.892578 85.797852 L 20.892578 83.950195 L 27.729980 83.950195 L 27.729980 85.797852 Z " fill="rgb(0, 0, 0)" fill-opacity="1.000000" />
<path d="M 27.892578 85.797852 L 27.892578 83.950195 L 34.729980 83.950195 L 34.729980 85.797852 Z " fill="rgb(0, 0, 0)" fill-opacity="1.000000" />
<path d="M 34.892578 85.797852 L 34.892578 83.950195 L 41.729980 83.950195 L 41.729980 85.797852 Z " fill="rgb(0, 0, 0)" fill-opacity="1.000000" />
<path d="M 41.892578 85.797852 L 41.892578 83.950195 L 48.729980 83.950195 L 48.729980 85.797852 Z " fill="rgb(0, 0, 0)" fill-opacity="1.000000" />
<path d="M 48.892578 85.797852 L 48.892578 83.950195 L 55.729980 83.950195 L 55.729980 85.797852 Z " fill="rgb(0, 0, 0)" fill-opacity="1.000000" />
<path d="M 55.892578 85.797852 L 55.892578 83.950195 L 62.729980 83.950195 L 62.729980 85.797852 Z " fill="rgb(0, 0, 0)" fill-opacity="1.000000" />
<path d="M 62.892578 85.797852 L 62.892578 83.950195 L 69.729980 83.950195 L 69.729980 85.797852 Z " fill="rgb(0, 0, 0)" fill-opacity="1.000000" />
<path d="M 69.892578 85.797852 L 69.892578 83.950195 L 76.729980 83.950195 L 76.729980 85.797852 Z " fill="rgb(0, 0, 0)" fill-opacity="1.000000" />
<path d="M 76.892578 85.797852 L 76.892578 83.950195 L 83.729980 83.950195 L 83.729980 85.797852 Z " fill="rgb(0, 0, 0)" fill-opacity="1.000000" />
<path d="M 83.892578 85.797852 L 83.892578 83.950195 L 90.729980 83.950195 L 90.729980 85.797852 Z " fill="rgb(0, 0, 0)" fill-opacity="1.000000" />
<path d="M 90.892578 85.797852 L 90.892578 83.950195 L 97.729980 83.950195 L 97.729980 85.797852 Z " fill="rgb(0, 0, 0)" fill-opacity="1.000000" />
<path d="M 97.892578 85.797852 L 97.892578 83.950195 L 104.729980 83.950195 L 104.729980 85.797852 Z " fill="rgb(0, 0, 0)" fill-opacity="1.000000" />
<path d="M 104.892578 85.797852 L 104.892578 83.950195 L 111.729980 83.950195 L 111.729980 85.797852 Z " fill="rgb(0, 0, 0)" fill-opacity="1.000000" />
<path d="M 111.892578 85.797852 L 111.892578 83.950195 L 118.729980 83.950195 L 118.729980 85.797852 Z " fill="rgb(0, 0, 0)" fill-opacity="1.000000" />
<path d="M 118.892578 85.797852 L 118.892578 83.950195 L 125.729980 83.950195 L 125.729980 85.797852 Z " fill="rgb(0, 0, 0)" fill-opacity="1.000000" />
<path d="M 125.892578 85.797852 L 125.892578 83.950195 L 132.729980 83.950195 L 132.729980 85.797852 Z " fill="rgb(0, 0, 0)" fill-opacity="1.000000" />
<path d="M 132.892578 85.797852 L 132.892578 83.950195 L 139.729980 83.950195 L 139.729980 85.797852 Z " fill="rgb(0, 0, 0)" fill-opacity="1.000000" />
<path d="M 139.892578 85.797852 L 139.892578 83.950195 L 146.729980 83.950195 L 146.729980 85.797852 Z " fill="rgb(0, 0, 0)" fill-opacity="1.000000" />
<path d="M 146.892578 85.797852 L 146.892578 83.950195 L 153.729980 83.950195 L 153.729980 85.797852 Z " fill="rgb(0, 0, 0)" fill-opacity="1.000000" />
<path d="M 153.892578 85.797852 L 153.892578 83.950195 L 160.729980 83.950195 L 160.729980 85.797852 Z " fill="rgb(0, 0, 0)" fill-opacity="1.000000" />
<path d="M 160.892578 85.797852 L 160.892578 83.950195 L 167.729980 83.950195 L 167.729980 85.797852 Z " fill="rgb(0, 0, 0)" fill-opacity="1.000000" />
<path d="M 167.892578 85.797852 L 167.892578 83.950195 L 174.729980 83.950195 L 174.729980 85.797852 Z " fill="rgb(0, 0, 0)" fill-opacity="1.000000" />
<path d="M 174.892578 85.797852 L 174.892578 83.950195 L 181.729980 83.950195 L 181.729980 85.797852 Z " fill="rgb(0, 0, 0)" fill-opacity="1.000000" />
<path d="M 181.892578 85.797852 L 181.892578 83.950195 L 188.729980 83.950195 L 188.729980 85.797852 Z " fill="rgb(0, 0, 0)" fill-opacity="1.000000" />
<path d="M 188.892578 85.797852 L 188.892578 83.950195 L 195.729980 83.950195 L 195.729980 85.797852 Z " fill="rgb(0, 0, 0)" fill-opacity="1.000000" />
<path d="M 195.892578 85.797852 L 195.892578 83.950195 L 202.729980 83.950195 L 202.729980 85.797852 Z " fill="rgb(0, 0, 0)" fill-opacity="1.000000" />
<path d="M 202.892578 85.797852 L 202.892578 83.950195 L 209.729980 83.950195 L 209.729980 85.797852 Z " fill="rgb(0, 0, 0)" fill-opacity="1.000000" />
<path d="M 209.892578 85.797852 L 209.892578 83.950195 L 216.729980 83.950195 L 216.729980 85.797852 Z " fill="rgb(0, 0, 0)" fill-opacity="1.000000" />
<path d="M 216.892578 85.797852 L 216.892578 83.950195 L 223.729980 83.950195 L 223.729980 85.797852 Z " fill="rgb(0, 0, 0)" fill-opacity="1.000000" />
<path d="M 223.892578 85.797852 L 223.892578 83.950195 L 230.729980 83.950195 L 230.729980 85.797852 Z " fill="rgb(0, 0, 0)" fill-opacity="1.000000" />
<path d="M 230.892578 85.797852 L 230.892578 83.950195 L 237.729980 83.950195 L 237.729980 85.797852 Z " fill="rgb(0, 0, 0)" fill-opacity="1.000000" />
<path d="M 237.892578 85.797852 L 237.892578 83.950195 L 244.729980 83.950195 L 244.729980 85.797852 Z " fill="rgb(0, 0, 0)" fill-opacity="1.000000" />
<path d="M 244.892578 85.797852 L 244.892578 83.950195 L 251.729980 83.950195 L 251.729980 85.797852 Z " fill="rgb(0, 0, 0)" fill-opacity="1.000000" />
<path d="M 251.892578 85.797852 L 251.892578 83.950195 L 258.729980 83.950195 L 258.729980 85.797852 Z " fill="rgb(0, 0, 0)" fill-opacity="1.000000" />
<path d="M 258.892578 85.797852 L 258.892578 83.950195 L 265.729980 83.950195 L 265.729980 85.797852 Z " fill="rgb(0, 0, 0)" fill-opacity="1.000000" />
<path d="M 265.892578 85.797852 L 265.892578 83.950195 L 272.729980 83.950195 L 272.729980 85.797852 Z " fill="rgb(0, 0, 0)" fill-opacity="1.000000" />
<path d="M 272.892578 85.797852 L 272.892578 83.950195 L 279.729980 83.950195 L 279.729980 85.797852 Z " fill="rgb(0, 0, 0)" fill-opacity="1.000000" />
<path d="M 279.892578 85.797852 L 279.892578 83.950195 L 286.729980 83.950195 L 286.729980 85.797852 Z " fill="rgb(0, 0, 0)" fill-opacity="1.000000" />
<path d="M 286.892578 85.797852 L 286.892578 83.950195 L 293.729980 83.950195 L 293.729980 85.797852 Z " fill="rgb(0, 0, 0)" fill-opacity="1.000000" />
<path d="M 293.892578 85.797852 L 293.892578 83.950195 L 300.729980 83.950195 L 300.729980 85.797852 Z " fill="rgb(0, 0, 0)" fill-opacity="1.000000" />
<path d="M 300.892578 85.797852 L 300.892578 83.950195 L 307.729980 83.950195 L 307.729980 85.797852 Z " fill="rgb(0, 0, 0)" fill-opacity="1.000000" />
<path d="M 307.892578 85.797852 L 307.892578 83.950195 L 314.729980 83.950195 L 314.729980 85.797852 Z " fill="rgb(0, 0, 0)" fill-opacity="1.000000" />
<path d="M 314.892578 85.797852 L 314.892578 83.950195 L 321.729980 83.950195 L 321.729980 85.797852 Z " fill="rgb(0, 0, 0)" fill-opacity="1.000000" />
<path d="M 321.892578 85.797852 L 321.892578 83.950195 L 328.729980 83.950195 L 328.729980 85.797852 Z " fill="rgb(0, 0, 0)" fill-opacity="1.000000" />
<path d="M 328.892578 85.797852 L 328.892578 83.950195 L 335.729980 83.950195 L 335.729980 85.797852 Z " fill="rgb(0, 0, 0)" fill-opacity="1.000000" />
<path d="M 335.892578 85.797852 L 335.892578 83.950195 L 342.729980 83.950195 L 342.729980 85.797852 Z " fill="rgb(0, 0, 0)" fill-opacity="1.000000" />
<path d="M 342.892578 85.797852 L 342.892578 83.950195 L 349.729980 83.950195 L 349.729980 85.797852 Z " fill="rgb(0, 0, 0)" fill-opacity="1.000000" />
<path d="M 349.892578 85.797852 L 349.892578 83.950195 L 356.729980 83.950195 L 356.729980 85.797852 Z " fill="rgb(0, 0, 0)" fill-opacity="1.000000" />
<path d="M 356.892578 85.797852 L 356.892578 83.950195 L 363.729980 83.950195 L 363.729980 85.797852 Z " fill="rgb(0, 0, 0)" fill-opacity="1.000000" />
<path d="M 363.892578 85.797852 L 363.892578 83.950195 L 370.729980 83.950195 L 370.729980 85.797852 Z " fill="rgb(0, 0, 0)" fill-opacity="1.000000" />
<path d="M 370.892578 85.797852 L 370.892578 83.950195 L 377.729980 83.950195 L 377.729980 85.797852 Z " fill="rgb(0, 0, 0)" fill-opacity="1.000000" />
<path d="M 377.892578 85.797852 L 377.892578 83.950195 L 384.729980 83.950195 L 384.729980 85.797852 Z " fill="rgb(0, 0, 0)" fill-opacity="1.000000" />
<path d="M 384.892578 85.797852 L 384.892578 83.950195 L 391.729980 83.950195 L 391.729980 85.797852 Z " fill="rgb(0, 0, 0)" fill-opacity="1.000000" />
<path d="M 391.892578 85.797852 L 391.892578 83.950195 L 398.729980 83.950195 L 398.729980 85.797852 Z " fill="rgb(0, 0, 0)" fill-opacity="1.000000" />
<path d="M 398.892578 85.797852 L 398.892578 83.950195 L 405.729980 83.950195 L 405.729980 85.797852 Z " fill="rgb(0, 0, 0)" fill-opacity="1.000000" />
<path d="M 405.892578 85.797852 L 405.892578 83.950195 L 412.729980 83.950195 L 412.729980 85.797852 Z " fill="rgb(0, 0, 0)" fill-opacity="1.000000" />
<path d="M 412.892578 85.797852 L 412.892578 83.950195 L 419.729980 83.950195 L 419.729980 85.797852 Z " fill="rgb(0, 0, 0)" fill-opacity="1.000000" />
<path d="M 419.892578 85.797852 L 419.892578 83.950195 L 426.729980 83.950195 L 426.729980 85.797852 Z " fill="rgb(0, 0, 0)" fill-opacity="1.000000" />
<path d="M 426.892578 85.797852 L 426.892578 83.950195 L 433.729980 83.950195 L 433.729980 85.797852 Z " fill="rgb(0, 0, 0)" fill-opacity="1.000000" />
<path d="M 433.892578 85.797852 L 433.892578 83.950195 L 440.729980 83.950195 L 440.729980 85.797852 Z " fill="rgb(0, 0, 0)" fill-opacity="1.000000" />
<path d="M 440.892578 85.797852 L 440.892578 83.950195 L 447.729980 83.950195 L 447.729980 85.797852 Z " fill="rgb(0, 0, 0)" fill-opacity="1.000000" />
<path d="M 447.892578 85.797852 L 447.892578 83.950195 L 454.729980 83.950195 L 454.729980 85.797852 Z " fill="rgb(0, 0, 0)" fill-opacity="1.000000" />
<path d="M 454.892578 85.797852 L 454.892578 83.950195 L 461.729980 83.950195 L 461.729980 85.797852 Z " fill="rgb(0, 0, 0)" fill-opacity="1.000000" />
<path d="M 462.032227 88.418945 L 462.032227 81.866211 L 468.590332 85.142578 Z " fill="rgb(0, 0, 0)" fill-opacity="1.000000" />
<path d="M 17.297852 67.276367 L 17.297852 68.984375 L 19.542969 68.984375 L 19.542969 69.752441 L 17.297852 69.752441 L 17.297852 73.018066 Q 17.297852 73.684082 17.550293 73.947266 Q 17.802734 74.210449 18.431152 74.210449 L 19.542969 74.210449 L 19.542969 75.000000 L 18.334473 75.000000 Q 17.222656 75.000000 16.766113 74.554199 Q 16.309570 74.108398 16.309570 73.018066 L 16.309570 69.752441 L 14.703613 69.752441 L 14.703613 68.984375 L 16.309570 68.984375 L 16.309570 67.276367 Z " fill="rgb(0, 0, 0)" fill-opacity="1.000000" />
<path d="M 27.004883 68.984375 L 24.851074 71.863281 L 27.214355 75.000000 L 26.070312 75.000000 L 24.308594 72.588379 L 22.552246 75.000000 L 21.408203 75.000000 L 23.771484 71.863281 L 21.617676 68.984375 L 22.713379 68.984375 L 24.308594 71.159668 L 25.893066 68.984375 Z " fill="rgb(0, 0, 0)" fill-opacity="1.000000" />
<path d="M 332.308594 73.898926 L 334.483887 69.559082 L 330.138672 69.559082 Z M 332.308594 75.418945 L 329.032227 68.866211 L 335.590332 68.866211 Z " fill="rgb(0, 0, 0)" fill-opacity="1.000000" />
<path d="M 465.308594 73.898926 L 467.483887 69.559082 L 463.138672 69.559082 Z M 465.308594 75.418945 L 462.032227 68.866211 L 468.590332 68.866211 Z " fill="rgb(0, 0, 0)" fill-opacity="1.000000" />
<path d="M 296.878906 13.319336 L 296.878906 6.412109 L 300.729980 6.412109 L 300.729980 7.335938 L 297.738281 7.335938 L 297.738281 13.319336 Z " fill="rgb(0, 0, 0)" fill-opacity="1.000000" />
<path d="M 296.878906 26.319336 L 296.878906 12.300781 L 297.738281 12.300781 L 297.738281 26.319336 Z " fill="rgb(0, 0, 0)" fill-opacity="1.000000" />
<path d="M 296.878906 39.319336 L 296.878906 25.300781 L 297.738281 25.300781 L 297.738281 39.319336 Z " fill="rgb(0, 0, 0)" fill-opacity="1.000000" />
<path d="M 296.878906 46.335938 L 296.878906 38.300781 L 297.738281 38.300781 L 297.738281 45.412109 L 300.729980 45.412109 L 300.729980 46.335938 Z " fill="rgb(0, 0, 0)" fill-opacity="1.000000" />
<path d="M 331.878906 65.319336 L 331.878906 51.300781 L 332.738281 51.300781 L 332.738281 65.319336 Z " fill="rgb(0, 0, 0)" fill-opacity="1.000000" />
<path d="M 464.878906 65.319336 L 464.878906 51.300781 L 465.738281 51.300781 L 465.738281 65.319336 Z " fill="rgb(0, 0, 0)" fill-opacity="1.000000" />
<path d="M 300.892578 46.335938 L 300.892578 45.412109 L 307.729980 45.412109 L 307.729980 46.335938 Z " fill="rgb(0, 0, 0)" fill-opacity="1.000000" />
<path d="M 307.892578 46.335938 L 307.892578 45.412109 L 314.729980 45.412109 L 314.729980 46.335938 Z " fill="rgb(0, 0, 0)" fill-opacity="1.000000" />
<path d="M 314.892578 46.335938 L 314.892578 45.412109 L 321.729980 45.412109 L 321.729980 46.335938 Z " fill="rgb(0, 0, 0)" fill-opacity="1.000000" />
<path d="M 321.892578 46.335938 L 321.892578 45.412109 L 328.729980 45.412109 L 328.729980 46.335938 Z " fill="rgb(0, 0, 0)" fill-opacity="1.000000" />
<path d="M 331.878906 52.319336 L 331.878906 46.335938 L 328.892578 46.335938 L 328.892578 45.412109 L 335.729980 45.412109 L 335.729980 46.335938 L 332.738281 46.335938 L 332.738281 52.319336 Z " fill="rgb(0, 0, 0)" fill-opacity="1.000000" />
<path d="M 335.892578 46.335938 L 335.892578 45.412109 L 342.729980 45.412109 L 342.729980 46.335938 Z " fill="rgb(0, 0, 0)" fill-opacity="1.000000" />
<path d="M 342.892578 46.335938 L 342.892578 45.412109 L 349.729980 45.412109 L 349.729980 46.335938 Z " fill="rgb(0, 0, 0)" fill-opacity="1.000000" />
<path d="M 349.892578 46.335938 L 349.892578 45.412109 L 356.729980 45.412109 L 356.729980 46.335938 Z " fill="rgb(0, 0, 0)" fill-opacity="1.000000" />
<path d="M 356.892578 46.335938 L 356.892578 45.412109 L 363.729980 45.412109 L 363.729980 46.335938 Z " fill="rgb(0, 0, 0)" fill-opacity="1.000000" />
<path d="M 363.892578 46.335938 L 363.892578 45.412109 L 366.878906 45.412109 L 366.878906 38.300781 L 367.738281 38.300781 L 367.738281 46.335938 Z " fill="rgb(0, 0, 0)" fill-opacity="1.000000" />
<path d="M 422.878906 46.335938 L 422.878906 38.300781 L 423.738281 38.300781 L 423.738281 45.412109 L 426.729980 45.412109 L 426.729980 46.335938 Z " fill="rgb(0, 0, 0)" fill-opacity="1.000000" />
<path d="M 426.892578 46.335938 L 426.892578 45.412109 L 433.729980 45.412109 L 433.729980 46.335938 Z " fill="rgb(0, 0, 0)" fill-opacity="1.000000" />
<path d="M 433.892578 46.335938 L 433.892578 45.412109 L 440.729980 45.412109 L 440.729980 46.335938 Z " fill="rgb(0, 0, 0)" fill-opacity="1.000000" />
<path d="M 440.892578 46.335938 L 440.892578 45.412109 L 447.729980 45.412109 L 447.729980 46.335938 Z " fill="rgb(0, 0, 0)" fill-opacity="1.000000" />
<path d="M 447.892578 46.335938 L 447.892578 45.412109 L 454.729980 45.412109 L 454.729980 46.335938 Z " fill="rgb(0, 0, 0)" fill-opacity="1.000000" />
<path d="M 454.892578 46.335938 L 454.892578 45.412109 L 461.729980 45.412109 L 461.729980 46.335938 Z " fill="rgb(0, 0, 0)" fill-opacity="1.000000" />
<path d="M 464.878906 52.319336 L 464.878906 46.335938 L 461.892578 46.335938 L 461.892578 45.412109 L 468.729980 45.412109 L 468.729980 46.335938 L 465.738281 46.335938 L 465.738281 52.319336 Z " fill="rgb(0, 0, 0)" fill-opacity="1.000000" />
<path d="M 468.892578 46.335938 L 468.892578 45.412109 L 475.729980 45.412109 L 475.729980 46.335938 Z " fill="rgb(0, 0, 0)" fill-opacity="1.000000" />
<path d="M 475.892578 46.335938 L 475.892578 45.412109 L 482.729980 45.412109 L 482.729980 46.335938 Z " fill="rgb(0, 0, 0)" fill-opacity="1.000000" />
<path d="M 482.892578 46.335938 L 482.892578 45.412109 L 489.729980 45.412109 L 489.729980 46.335938 Z " fill="rgb(0, 0, 0)" fill-opacity="1.000000" />
<path d="M 489.892578 46.335938 L 489.892578 45.412109 L 496.729980 45.412109 L 496.729980 46.335938 Z " fill="rgb(0, 0, 0)" fill-opacity="1.000000" />
<path d="M 496.892578 46.335938 L 496.892578 45.412109 L 503.729980 45.412109 L 503.729980 46.335938 Z " fill="rgb(0, 0, 0)" fill-opacity="1.000000" />
<path d="M 503.892578 46.335938 L 503.892578 45.412109 L 506.878906 45.412109 L 506.878906 38.300781 L 507.738281 38.300781 L 507.738281 46.335938 Z " fill="rgb(0, 0, 0)" fill-opacity="1.000000" />
<path d="M 314.015625 32.498047 L 314.015625 32.981445 L 309.734863 32.981445 L 309.734863 33.013672 Q 309.691895 34.243652 310.204834 34.780762 Q 310.717773 35.317871 311.652344 35.317871 Q 312.125000 35.317871 312.640625 35.167480 Q 313.156250 35.017090 313.741699 34.710938 L 313.741699 35.693848 Q 313.177734 35.924805 312.654053 36.040283 Q 312.130371 36.155762 311.641602 36.155762 Q 310.239746 36.155762 309.450195 35.315186 Q 308.660645 34.474609 308.660645 32.997559 Q 308.660645 31.558105 309.434082 30.698730 Q 310.207520 29.839355 311.496582 29.839355 Q 312.645996 29.839355 313.309326 30.618164 Q 313.972656 31.396973 314.015625 32.498047 Z M 313.027344 32.208008 Q 312.962891 31.584961 312.573486 31.131104 Q 312.184082 30.677246 311.453613 30.677246 Q 310.739258 30.677246 310.277344 31.149902 Q 309.815430 31.622559 309.772461 32.213379 Z " fill="rgb(0, 0, 0)" fill-opacity="1.000000" />
<path d="M 318.630859 30.596680 Q 318.813477 30.209961 319.095459 30.024658 Q 319.377441 29.839355 319.774902 29.839355 Q 320.500000 29.839355 320.798096 30.400635 Q 321.096191 30.961914 321.096191 32.514160 L 321.096191 36.000000 L 320.193848 36.000000 L 320.193848 32.557129 Q 320.193848 31.284180 320.051514 30.975342 Q 319.909180 30.666504 319.533203 30.666504 Q 319.103516 30.666504 318.945068 30.996826 Q 318.786621 31.327148 318.786621 32.557129 L 318.786621 36.000000 L 317.884277 36.000000 L 317.884277 32.557129 Q 317.884277 31.268066 317.731201 30.967285 Q 317.578125 30.666504 317.180664 30.666504 Q 316.788574 30.666504 316.635498 30.996826 Q 316.482422 31.327148 316.482422 32.557129 L 316.482422 36.000000 L 315.585449 36.000000 L 315.585449 29.984375 L 316.482422 29.984375 L 316.482422 30.500000 Q 316.659668 30.177734 316.925537 30.008545 Q 317.191406 29.839355 317.529785 29.839355 Q 317.937988 29.839355 318.209229 30.027344 Q 318.480469 30.215332 318.630859 30.596680 Z " fill="rgb(0, 0, 0)" fill-opacity="1.000000" />
<path d="M 323.697266 30.005859 L 326.227051 30.005859 L 326.227051 35.231934 L 328.187500 35.231934 L 328.187500 36.000000 L 323.278320 36.000000 L 323.278320 35.231934 L 325.238770 35.231934 L 325.238770 30.773926 L 323.697266 30.773926 Z M 325.238770 27.669434 L 326.227051 27.669434 L 326.227051 28.915527 L 325.238770 28.915527 Z " fill="rgb(0, 0, 0)" fill-opacity="1.000000" />
<path d="M 332.297852 28.276367 L 332.297852 29.984375 L 334.542969 29.984375 L 334.542969 30.752441 L 332.297852 30.752441 L 332.297852 34.018066 Q 332.297852 34.684082 332.550293 34.947266 Q 332.802734 35.210449 333.431152 35.210449 L 334.542969 35.210449 L 334.542969 36.000000 L 333.334473 36.000000 Q 332.222656 36.000000 331.766113 35.554199 Q 331.309570 35.108398 331.309570 34.018066 L 331.309570 30.752441 L 329.703613 30.752441 L 329.703613 29.984375 L 331.309570 29.984375 L 331.309570 28.276367 Z " fill="rgb(0, 0, 0)" fill-opacity="1.000000" />
<path d="M 339.297852 28.276367 L 339.297852 29.984375 L 341.542969 29.984375 L 341.542969 30.752441 L 339.297852 30.752441 L 339.297852 34.018066 Q 339.297852 34.684082 339.550293 34.947266 Q 339.802734 35.210449 340.431152 35.210449 L 341.542969 35.210449 L 341.542969 36.000000 L 340.334473 36.000000 Q 339.222656 36.000000 338.766113 35.554199 Q 338.309570 35.108398 338.309570 34.018066 L 338.309570 30.752441 L 336.703613 30.752441 L 336.703613 29.984375 L 338.309570 29.984375 L 338.309570 28.276367 Z " fill="rgb(0, 0, 0)" fill-opacity="1.000000" />
<path d="M 349.015625 32.498047 L 349.015625 32.981445 L 344.734863 32.981445 L 344.734863 33.013672 Q 344.691895 34.243652 345.204834 34.780762 Q 345.717773 35.317871 346.652344 35.317871 Q 347.125000 35.317871 347.640625 35.167480 Q 348.156250 35.017090 348.741699 34.710938 L 348.741699 35.693848 Q 348.177734 35.924805 347.654053 36.040283 Q 347.130371 36.155762 346.641602 36.155762 Q 345.239746 36.155762 344.450195 35.315186 Q 343.660645 34.474609 343.660645 32.997559 Q 343.660645 31.558105 344.434082 30.698730 Q 345.207520 29.839355 346.496582 29.839355 Q 347.645996 29.839355 348.309326 30.618164 Q 348.972656 31.396973 349.015625 32.498047 Z M 348.027344 32.208008 Q 347.962891 31.584961 347.573486 31.131104 Q 347.184082 30.677246 346.453613 30.677246 Q 345.739258 30.677246 345.277344 31.149902 Q 344.815430 31.622559 344.772461 32.213379 Z " fill="rgb(0, 0, 0)" fill-opacity="1.000000" />
<path d="M 354.608398 30.752441 L 354.608398 27.642578 L 355.596680 27.642578 L 355.596680 36.000000 L 354.608398 36.000000 L 354.608398 35.242676 Q 354.361328 35.688477 353.950439 35.922119 Q 353.539551 36.155762 353.002441 36.155762 Q 351.912109 36.155762 351.286377 35.309814 Q 350.660645 34.463867 350.660645 32.976074 Q 350.660645 31.509766 351.289062 30.674561 Q 351.917480 29.839355 353.002441 29.839355 Q 353.544922 29.839355 353.958496 30.072998 Q 354.372070 30.306641 354.608398 30.752441 Z M 351.702637 32.997559 Q 351.702637 34.146973 352.067871 34.732422 Q 352.433105 35.317871 353.147461 35.317871 Q 353.861816 35.317871 354.235107 34.727051 Q 354.608398 34.136230 354.608398 32.997559 Q 354.608398 31.853516 354.235107 31.265381 Q 353.861816 30.677246 353.147461 30.677246 Q 352.433105 30.677246 352.067871 31.262695 Q 351.702637 31.848145 351.702637 32.997559 Z " fill="rgb(0, 0, 0)" fill-opacity="1.000000" />
<path d="M 366.878906 39.319336 L 366.878906 25.300781 L 367.738281 25.300781 L 367.738281 39.319336 Z " fill="rgb(0, 0, 0)" fill-opacity="1.000000" />
<path d="M 422.878906 39.319336 L 422.878906 25.300781 L 423.738281 25.300781 L 423.738281 39.319336 Z " fill="rgb(0, 0, 0)" fill-opacity="1.000000" />
<path d="M 446.698730 35.693848 Q 446.301270 35.924805 445.879639 36.040283 Q 445.458008 36.155762 445.017578 36.155762 Q 443.621094 36.155762 442.834229 35.317871 Q 442.047363 34.479980 442.047363 32.997559 Q 442.047363 31.515137 442.834229 30.677246 Q 443.621094 29.839355 445.017578 29.839355 Q 445.452637 29.839355 445.866211 29.952148 Q 446.279785 30.064941 446.698730 30.301270 L 446.698730 31.337891 Q 446.306641 30.988770 445.911865 30.833008 Q 445.517090 30.677246 445.017578 30.677246 Q 444.088379 30.677246 443.588867 31.278809 Q 443.089355 31.880371 443.089355 32.997559 Q 443.089355 34.109375 443.591553 34.713623 Q 444.093750 35.317871 445.017578 35.317871 Q 445.533203 35.317871 445.941406 35.159424 Q 446.349609 35.000977 446.698730 34.667969 Z " fill="rgb(0, 0, 0)" fill-opacity="1.000000" />
<path d="M 451.308594 30.677246 Q 450.556641 30.677246 450.169922 31.262695 Q 449.783203 31.848145 449.783203 32.997559 Q 449.783203 34.141602 450.169922 34.729736 Q 450.556641 35.317871 451.308594 35.317871 Q 452.065918 35.317871 452.452637 34.729736 Q 452.839355 34.141602 452.839355 32.997559 Q 452.839355 31.848145 452.452637 31.262695 Q 452.065918 30.677246 451.308594 30.677246 Z M 451.308594 29.839355 Q 452.560059 29.839355 453.223389 30.650391 Q 453.886719 31.461426 453.886719 32.997559 Q 453.886719 34.539062 453.226074 35.347412 Q 452.565430 36.155762 451.308594 36.155762 Q 450.057129 36.155762 449.396484 35.347412 Q 448.735840 34.539062 448.735840 32.997559 Q 448.735840 31.461426 449.396484 30.650391 Q 450.057129 29.839355 451.308594 29.839355 Z " fill="rgb(0, 0, 0)" fill-opacity="1.000000" />
<path d="M 458.630859 30.596680 Q 458.813477 30.209961 459.095459 30.024658 Q 459.377441 29.839355 459.774902 29.839355 Q 460.500000 29.839355 460.798096 30.400635 Q 461.096191 30.961914 461.096191 32.514160 L 461.096191 36.000000 L 460.193848 36.000000 L 460.193848 32.557129 Q 460.193848 31.284180 460.051514 30.975342 Q 459.909180 30.666504 459.533203 30.666504 Q 459.103516 30.666504 458.945068 30.996826 Q 458.786621 31.327148 458.786621 32.557129 L 458.786621 36.000000 L 457.884277 36.000000 L 457.884277 32.557129 Q 457.884277 31.268066 457.731201 30.967285 Q 457.578125 30.666504 457.180664 30.666504 Q 456.788574 30.666504 456.635498 30.996826 Q 456.482422 31.327148 456.482422 32.557129 L 456.482422 36.000000 L 455.585449 36.000000 L 455.585449 29.984375 L 456.482422 29.984375 L 456.482422 30.500000 Q 456.659668 30.177734 456.925537 30.008545 Q 457.191406 29.839355 457.529785 29.839355 Q 457.937988 29.839355 458.209229 30.027344 Q 458.480469 30.215332 458.630859 30.596680 Z " fill="rgb(0, 0, 0)" fill-opacity="1.000000" />
<path d="M 465.630859 30.596680 Q 465.813477 30.209961 466.095459 30.024658 Q 466.377441 29.839355 466.774902 29.839355 Q 467.500000 29.839355 467.798096 30.400635 Q 468.096191 30.961914 468.096191 32.514160 L 468.096191 36.000000 L 467.193848 36.000000 L 467.193848 32.557129 Q 467.193848 31.284180 467.051514 30.975342 Q 466.909180 30.666504 466.533203 30.666504 Q 466.103516 30.666504 465.945068 30.996826 Q 465.786621 31.327148 465.786621 32.557129 L 465.786621 36.000000 L 464.884277 36.000000 L 464.884277 32.557129 Q 464.884277 31.268066 464.731201 30.967285 Q 464.578125 30.666504 464.180664 30.666504 Q 463.788574 30.666504 463.635498 30.996826 Q 463.482422 31.327148 463.482422 32.557129 L 463.482422 36.000000 L 462.585449 36.000000 L 462.585449 29.984375 L 463.482422 29.984375 L 463.482422 30.500000 Q 463.659668 30.177734 463.925537 30.008545 Q 464.191406 29.839355 464.529785 29.839355 Q 464.937988 29.839355 465.209229 30.027344 Q 465.480469 30.215332 465.630859 30.596680 Z " fill="rgb(0, 0, 0)" fill-opacity="1.000000" />
<path d="M 470.697266 30.005859 L 473.227051 30.005859 L 473.227051 35.231934 L 475.187500 35.231934 L 475.187500 36.000000 L 470.278320 36.000000 L 470.278320 35.231934 L 472.238770 35.231934 L 472.238770 30.773926 L 470.697266 30.773926 Z M 472.238770 27.669434 L 473.227051 27.669434 L 473.227051 28.915527 L 472.238770 28.915527 Z " fill="rgb(0, 0, 0)" fill-opacity="1.000000" />
<path d="M 479.297852 28.276367 L 479.297852 29.984375 L 481.542969 29.984375 L 481.542969 30.752441 L 479.297852 30.752441 L 479.297852 34.018066 Q 479.297852 34.684082 479.550293 34.947266 Q 479.802734 35.210449 480.431152 35.210449 L 481.542969 35.210449 L 481.542969 36.000000 L 480.334473 36.000000 Q 479.222656 36.000000 478.766113 35.554199 Q 478.309570 35.108398 478.309570 34.018066 L 478.309570 30.752441 L 476.703613 30.752441 L 476.703613 29.984375 L 478.309570 29.984375 L 478.309570 28.276367 Z " fill="rgb(0, 0, 0)" fill-opacity="1.000000" />
<path d="M 488.226074 30.193848 L 488.226074 31.160645 Q 487.801758 30.913574 487.372070 30.790039 Q 486.942383 30.666504 486.496582 30.666504 Q 485.825195 30.666504 485.494873 30.884033 Q 485.164551 31.101562 485.164551 31.547363 Q 485.164551 31.950195 485.411621 32.148926 Q 485.658691 32.347656 486.641602 32.535645 L 487.039062 32.610840 Q 487.774902 32.750488 488.153564 33.169434 Q 488.532227 33.588379 488.532227 34.259766 Q 488.532227 35.151367 487.898438 35.653564 Q 487.264648 36.155762 486.136719 36.155762 Q 485.690918 36.155762 485.202148 36.061768 Q 484.713379 35.967773 484.144043 35.779785 L 484.144043 34.759277 Q 484.697266 35.043945 485.202148 35.186279 Q 485.707031 35.328613 486.158203 35.328613 Q 486.813477 35.328613 487.173340 35.062744 Q 487.533203 34.796875 487.533203 34.318848 Q 487.533203 33.631348 486.217285 33.368164 L 486.174316 33.357422 L 485.803711 33.282227 Q 484.949707 33.115723 484.557617 32.720947 Q 484.165527 32.326172 484.165527 31.644043 Q 484.165527 30.779297 484.750977 30.309326 Q 485.336426 29.839355 486.421387 29.839355 Q 486.904785 29.839355 487.350586 29.927979 Q 487.796387 30.016602 488.226074 30.193848 Z " fill="rgb(0, 0, 0)" fill-opacity="1.000000" />
<path d="M 506.878906 39.319336 L 506.878906 25.300781 L 507.738281 25.300781 L 507.738281 39.319336 Z " fill="rgb(0, 0, 0)" fill-opacity="1.000000" />
<path d="M 325.222656 23.107422 L 325.222656 17.752441 L 323.520020 17.752441 L 323.520020 16.984375 L 326.210938 16.984375 L 326.210938 23.107422 Q 326.210938 24.154785 325.730225 24.721436 Q 325.249512 25.288086 324.363281 25.288086 L 322.999023 25.288086 L 322.999023 24.450195 L 324.255859 24.450195 Q 324.739258 24.450195 324.980957 24.114502 Q 325.222656 23.778809 325.222656 23.107422 Z M 325.222656 14.642578 L 326.210938 14.642578 L 326.210938 15.894043 L 325.222656 15.894043 Z " fill="rgb(0, 0, 0)" fill-opacity="1.000000" />
<path d="M 332.308594 17.677246 Q 331.556641 17.677246 331.169922 18.262695 Q 330.783203 18.848145 330.783203 19.997559 Q 330.783203 21.141602 331.169922 21.729736 Q 331.556641 22.317871 332.308594 22.317871 Q 333.065918 22.317871 333.452637 21.729736 Q 333.839355 21.141602 333.839355 19.997559 Q 333.839355 18.848145 333.452637 18.262695 Q 333.065918 17.677246 332.308594 17.677246 Z M 332.308594 16.839355 Q 333.560059 16.839355 334.223389 17.650391 Q 334.886719 18.461426 334.886719 19.997559 Q 334.886719 21.539062 334.226074 22.347412 Q 333.565430 23.155762 332.308594 23.155762 Q 331.057129 23.155762 330.396484 22.347412 Q 329.735840 21.539062 329.735840 19.997559 Q 329.735840 18.461426 330.396484 17.650391 Q 331.057129 16.839355 332.308594 16.839355 Z " fill="rgb(0, 0, 0)" fill-opacity="1.000000" />
<path d="M 340.930664 19.997559 Q 340.930664 18.848145 340.565430 18.262695 Q 340.200195 17.677246 339.485840 17.677246 Q 338.766113 17.677246 338.395508 18.265381 Q 338.024902 18.853516 338.024902 19.997559 Q 338.024902 21.136230 338.395508 21.727051 Q 338.766113 22.317871 339.485840 22.317871 Q 340.200195 22.317871 340.565430 21.732422 Q 340.930664 21.146973 340.930664 19.997559 Z M 338.024902 17.752441 Q 338.261230 17.312012 338.677490 17.075684 Q 339.093750 16.839355 339.641602 16.839355 Q 340.726562 16.839355 341.349609 17.674561 Q 341.972656 18.509766 341.972656 19.976074 Q 341.972656 21.463867 341.346924 22.309814 Q 340.721191 23.155762 339.630859 23.155762 Q 339.093750 23.155762 338.682861 22.922119 Q 338.271973 22.688477 338.024902 22.242676 L 338.024902 23.000000 L 337.036621 23.000000 L 337.036621 14.642578 L 338.024902 14.642578 Z " fill="rgb(0, 0, 0)" fill-opacity="1.000000" />
<path d="M 366.878906 26.319336 L 366.878906 12.300781 L 367.738281 12.300781 L 367.738281 26.319336 Z " fill="rgb(0, 0, 0)" fill-opacity="1.000000" />
<path d="M 422.878906 26.319336 L 422.878906 12.300781 L 423.738281 12.300781 L 423.738281 26.319336 Z " fill="rgb(0, 0, 0)" fill-opacity="1.000000" />
<path d="M 430.297852 15.276367 L 430.297852 16.984375 L 432.542969 16.984375 L 432.542969 17.752441 L 430.297852 17.752441 L 430.297852 21.018066 Q 430.297852 21.684082 430.550293 21.947266 Q 430.802734 22.210449 431.431152 22.210449 L 432.542969 22.210449 L 432.542969 23.000000 L 431.334473 23.000000 Q 430.222656 23.000000 429.766113 22.554199 Q 429.309570 22.108398 429.309570 21.018066 L 429.309570 17.752441 L 427.703613 17.752441 L 427.703613 16.984375 L 429.309570 16.984375 L 429.309570 15.276367 Z " fill="rgb(0, 0, 0)" fill-opacity="1.000000" />
<path d="M 440.203613 18.225098 Q 439.886719 17.978027 439.559082 17.865234 Q 439.231445 17.752441 438.839355 17.752441 Q 437.915527 17.752441 437.426758 18.332520 Q 436.937988 18.912598 436.937988 20.008301 L 436.937988 23.000000 L 435.944336 23.000000 L 435.944336 16.984375 L 436.937988 16.984375 L 436.937988 18.160645 Q 437.185059 17.521484 437.697998 17.180420 Q 438.210938 16.839355 438.914551 16.839355 Q 439.279785 16.839355 439.596680 16.930664 Q 439.913574 17.021973 440.203613 17.215332 Z " fill="rgb(0, 0, 0)" fill-opacity="1.000000" />
<path d="M 444.770508 19.976074 L 444.442871 19.976074 Q 443.578125 19.976074 443.140381 20.279541 Q 442.702637 20.583008 442.702637 21.184570 Q 442.702637 21.727051 443.030273 22.027832 Q 443.357910 22.328613 443.937988 22.328613 Q 444.754395 22.328613 445.221680 21.761963 Q 445.688965 21.195312 445.694336 20.196289 L 445.694336 19.976074 Z M 446.687988 19.567871 L 446.687988 23.000000 L 445.694336 23.000000 L 445.694336 22.108398 Q 445.377441 22.645508 444.896729 22.900635 Q 444.416016 23.155762 443.728516 23.155762 Q 442.810059 23.155762 442.262207 22.637451 Q 441.714355 22.119141 441.714355 21.249023 Q 441.714355 20.244629 442.388428 19.723633 Q 443.062500 19.202637 444.367676 19.202637 L 445.694336 19.202637 L 445.694336 19.046875 Q 445.688965 18.327148 445.329102 18.002197 Q 444.969238 17.677246 444.179688 17.677246 Q 443.674805 17.677246 443.159180 17.822266 Q 442.643555 17.967285 442.154785 18.246582 L 442.154785 17.258301 Q 442.702637 17.048828 443.204834 16.944092 Q 443.707031 16.839355 444.179688 16.839355 Q 444.926270 16.839355 445.455322 17.059570 Q 445.984375 17.279785 446.312012 17.720215 Q 446.516113 17.988770 446.602051 18.383545 Q 446.687988 18.778320 446.687988 19.567871 Z " fill="rgb(0, 0, 0)" fill-opacity="1.000000" />
<path d="M 453.645020 19.272461 L 453.645020 23.000000 L 452.651367 23.000000 L 452.651367 19.272461 Q 452.651367 18.461426 452.366699 18.080078 Q 452.082031 17.698730 451.475098 17.698730 Q 450.782227 17.698730 450.408936 18.190186 Q 450.035645 18.681641 450.035645 19.600098 L 450.035645 23.000000 L 449.047363 23.000000 L 449.047363 16.984375 L 450.035645 16.984375 L 450.035645 17.886719 Q 450.298828 17.371094 450.750000 17.105225 Q 451.201172 16.839355 451.818848 16.839355 Q 452.737305 16.839355 453.191162 17.443604 Q 453.645020 18.047852 453.645020 19.272461 Z " fill="rgb(0, 0, 0)" fill-opacity="1.000000" />
<path d="M 460.226074 17.193848 L 460.226074 18.160645 Q 459.801758 17.913574 459.372070 17.790039 Q 458.942383 17.666504 458.496582 17.666504 Q 457.825195 17.666504 457.494873 17.884033 Q 457.164551 18.101562 457.164551 18.547363 Q 457.164551 18.950195 457.411621 19.148926 Q 457.658691 19.347656 458.641602 19.535645 L 459.039062 19.610840 Q 459.774902 19.750488 460.153564 20.169434 Q 460.532227 20.588379 460.532227 21.259766 Q 460.532227 22.151367 459.898438 22.653564 Q 459.264648 23.155762 458.136719 23.155762 Q 457.690918 23.155762 457.202148 23.061768 Q 456.713379 22.967773 456.144043 22.779785 L 456.144043 21.759277 Q 456.697266 22.043945 457.202148 22.186279 Q 457.707031 22.328613 458.158203 22.328613 Q 458.813477 22.328613 459.173340 22.062744 Q 459.533203 21.796875 459.533203 21.318848 Q 459.533203 20.631348 458.217285 20.368164 L 458.174316 20.357422 L 457.803711 20.282227 Q 456.949707 20.115723 456.557617 19.720947 Q 456.165527 19.326172 456.165527 18.644043 Q 456.165527 17.779297 456.750977 17.309326 Q 457.336426 16.839355 458.421387 16.839355 Q 458.904785 16.839355 459.350586 16.927979 Q 459.796387 17.016602 460.226074 17.193848 Z " fill="rgb(0, 0, 0)" fill-opacity="1.000000" />
<path d="M 465.770508 19.976074 L 465.442871 19.976074 Q 464.578125 19.976074 464.140381 20.279541 Q 463.702637 20.583008 463.702637 21.184570 Q 463.702637 21.727051 464.030273 22.027832 Q 464.357910 22.328613 464.937988 22.328613 Q 465.754395 22.328613 466.221680 21.761963 Q 466.688965 21.195312 466.694336 20.196289 L 466.694336 19.976074 Z M 467.687988 19.567871 L 467.687988 23.000000 L 466.694336 23.000000 L 466.694336 22.108398 Q 466.377441 22.645508 465.896729 22.900635 Q 465.416016 23.155762 464.728516 23.155762 Q 463.810059 23.155762 463.262207 22.637451 Q 462.714355 22.119141 462.714355 21.249023 Q 462.714355 20.244629 463.388428 19.723633 Q 464.062500 19.202637 465.367676 19.202637 L 466.694336 19.202637 L 466.694336 19.046875 Q 466.688965 18.327148 466.329102 18.002197 Q 465.969238 17.677246 465.179688 17.677246 Q 464.674805 17.677246 464.159180 17.822266 Q 463.643555 17.967285 463.154785 18.246582 L 463.154785 17.258301 Q 463.702637 17.048828 464.204834 16.944092 Q 464.707031 16.839355 465.179688 16.839355 Q 465.926270 16.839355 466.455322 17.059570 Q 466.984375 17.279785 467.312012 17.720215 Q 467.516113 17.988770 467.602051 18.383545 Q 467.687988 18.778320 467.687988 19.567871 Z " fill="rgb(0, 0, 0)" fill-opacity="1.000000" />
<path d="M 474.698730 22.693848 Q 474.301270 22.924805 473.879639 23.040283 Q 473.458008 23.155762 473.017578 23.155762 Q 471.621094 23.155762 470.834229 22.317871 Q 470.047363 21.479980 470.047363 19.997559 Q 470.047363 18.515137 470.834229 17.677246 Q 471.621094 16.839355 473.017578 16.839355 Q 473.452637 16.839355 473.866211 16.952148 Q 474.279785 17.064941 474.698730 17.301270 L 474.698730 18.337891 Q 474.306641 17.988770 473.911865 17.833008 Q 473.517090 17.677246 473.017578 17.677246 Q 472.088379 17.677246 471.588867 18.278809 Q 471.089355 18.880371 471.089355 19.997559 Q 471.089355 21.109375 471.591553 21.713623 Q 472.093750 22.317871 473.017578 22.317871 Q 473.533203 22.317871 473.941406 22.159424 Q 474.349609 22.000977 474.698730 21.667969 Z " fill="rgb(0, 0, 0)" fill-opacity="1.000000" />
<path d="M 479.297852 15.276367 L 479.297852 16.984375 L 481.542969 16.984375 L 481.542969 17.752441 L 479.297852 17.752441 L 479.297852 21.018066 Q 479.297852 21.684082 479.550293 21.947266 Q 479.802734 22.210449 480.431152 22.210449 L 481.542969 22.210449 L 481.542969 23.000000 L 480.334473 23.000000 Q 479.222656 23.000000 478.766113 22.554199 Q 478.309570 22.108398 478.309570 21.018066 L 478.309570 17.752441 L 476.703613 17.752441 L 476.703613 16.984375 L 478.309570 16.984375 L 478.309570 15.276367 Z " fill="rgb(0, 0, 0)" fill-opacity="1.000000" />
<path d="M 484.697266 17.005859 L 487.227051 17.005859 L 487.227051 22.231934 L 489.187500 22.231934 L 489.187500 23.000000 L 484.278320 23.000000 L 484.278320 22.231934 L 486.238770 22.231934 L 486.238770 17.773926 L 484.697266 17.773926 Z M 486.238770 14.669434 L 487.227051 14.669434 L 487.227051 15.915527 L 486.238770 15.915527 Z " fill="rgb(0, 0, 0)" fill-opacity="1.000000" />
<path d="M 493.308594 17.677246 Q 492.556641 17.677246 492.169922 18.262695 Q 491.783203 18.848145 491.783203 19.997559 Q 491.783203 21.141602 492.169922 21.729736 Q 492.556641 22.317871 493.308594 22.317871 Q 494.065918 22.317871 494.452637 21.729736 Q 494.839355 21.141602 494.839355 19.997559 Q 494.839355 18.848145 494.452637 18.262695 Q 494.065918 17.677246 493.308594 17.677246 Z M 493.308594 16.839355 Q 494.560059 16.839355 495.223389 17.650391 Q 495.886719 18.461426 495.886719 19.997559 Q 495.886719 21.539062 495.226074 22.347412 Q 494.565430 23.155762 493.308594 23.155762 Q 492.057129 23.155762 491.396484 22.347412 Q 490.735840 21.539062 490.735840 19.997559 Q 490.735840 18.461426 491.396484 17.650391 Q 492.057129 16.839355 493.308594 16.839355 Z " fill="rgb(0, 0, 0)" fill-opacity="1.000000" />
<path d="M 502.645020 19.272461 L 502.645020 23.000000 L 501.651367 23.000000 L 501.651367 19.272461 Q 501.651367 18.461426 501.366699 18.080078 Q 501.082031 17.698730 500.475098 17.698730 Q 499.782227 17.698730 499.408936 18.190186 Q 499.035645 18.681641 499.035645 19.600098 L 499.035645 23.000000 L 498.047363 23.000000 L 498.047363 16.984375 L 499.035645 16.984375 L 499.035645 17.886719 Q 499.298828 17.371094 499.750000 17.105225 Q 500.201172 16.839355 500.818848 16.839355 Q 501.737305 16.839355 502.191162 17.443604 Q 502.645020 18.047852 502.645020 19.272461 Z " fill="rgb(0, 0, 0)" fill-opacity="1.000000" />
<path d="M 506.878906 26.319336 L 506.878906 12.300781 L 507.738281 12.300781 L 507.738281 26.319336 Z " fill="rgb(0, 0, 0)" fill-opacity="1.000000" />
<path d="M 300.892578 7.335938 L 300.892578 6.412109 L 307.729980 6.412109 L 307.729980 7.335938 Z " fill="rgb(0, 0, 0)" fill-opacity="1.000000" />
<path d="M 307.892578 7.335938 L 307.892578 6.412109 L 314.729980 6.412109 L 314.729980 7.335938 Z " fill="rgb(0, 0, 0)" fill-opacity="1.000000" />
<path d="M 314.892578 7.335938 L 314.892578 6.412109 L 321.729980 6.412109 L 321.729980 7.335938 Z " fill="rgb(0, 0, 0)" fill-opacity="1.000000" />
<path d="M 321.892578 7.335938 L 321.892578 6.412109 L 328.729980 6.412109 L 328.729980 7.335938 Z " fill="rgb(0, 0, 0)" fill-opacity="1.000000" />
<path d="M 328.892578 7.335938 L 328.892578 6.412109 L 335.729980 6.412109 L 335.729980 7.335938 Z " fill="rgb(0, 0, 0)" fill-opacity="1.000000" />
<path d="M 335.892578 7.335938 L 335.892578 6.412109 L 342.729980 6.412109 L 342.729980 7.335938 Z " fill="rgb(0, 0, 0)" fill-opacity="1.000000" />
<path d="M 342.892578 7.335938 L 342.892578 6.412109 L 349.729980 6.412109 L 349.729980 7.335938 Z " fill="rgb(0, 0, 0)" fill-opacity="1.000000" />
<path d="M 349.892578 7.335938 L 349.892578 6.412109 L 356.729980 6.412109 L 356.729980 7.335938 Z " fill="rgb(0, 0, 0)" fill-opacity="1.000000" />
<path d="M 356.892578 7.335938 L 356.892578 6.412109 L 363.729980 6.412109 L 363.729980 7.335938 Z " fill="rgb(0, 0, 0)" fill-opacity="1.000000" />
<path d="M 366.878906 13.319336 L 366.878906 7.335938 L 363.892578 7.335938 L 363.892578 6.412109 L 367.738281 6.412109 L 367.738281 13.319336 Z " fill="rgb(0, 0, 0)" fill-opacity="1.000000" />
<path d="M 422.878906 13.319336 L 422.878906 6.412109 L 426.729980 6.412109 L 426.729980 7.335938 L 423.738281 7.335938 L 423.738281 13.319336 Z " fill="rgb(0, 0, 0)" fill-opacity="1.000000" />
<path d="M 426.892578 7.335938 L 426.892578 6.412109 L 433.729980 6.412109 L 433.729980 7.335938 Z " fill="rgb(0, 0, 0)" fill-opacity="1.000000" />
<path d="M 433.892578 7.335938 L 433.892578 6.412109 L 440.729980 6.412109 L 440.729980 7.335938 Z " fill="rgb(0, 0, 0)" fill-opacity="1.000000" />
<path d="M 440.892578 7.335938 L 440.892578 6.412109 L 447.729980 6.412109 L 447.729980 7.335938 Z " fill="rgb(0, 0, 0)" fill-opacity="1.000000" />
<path d="M 447.892578 7.335938 L 447.892578 6.412109 L 454.729980 6.412109 L 454.729980 7.335938 Z " fill="rgb(0, 0, 0)" fill-opacity="1.000000" />
<path d="M 454.892578 7.335938 L 454.892578 6.412109 L 461.729980 6.412109 L 461.729980 7.335938 Z " fill="rgb(0, 0, 0)" fill-opacity="1.000000" />
<path d="M 461.892578 7.335938 L 461.892578 6.412109 L 468.729980 6.412109 L 468.729980 7.335938 Z " fill="rgb(0, 0, 0)" fill-opacity="1.000000" />
<path d="M 468.892578 7.335938 L 468.892578 6.412109 L 475.729980 6.412109 L 475.729980 7.335938 Z " fill="rgb(0, 0, 0)" fill-opacity="1.000000" />
<path d="M 475.892578 7.335938 L 475.892578 6.412109 L 482.729980 6.412109 L 482.729980 7.335938 Z " fill="rgb(0, 0, 0)" fill-opacity="1.000000" />
<path d="M 482.892578 7.335938 L 482.892578 6.412109 L 489.729980 6.412109 L 489.729980 7.335938 Z " fill="rgb(0, 0, 0)" fill-opacity="1.000000" />
<path d="M 489.892578 7.335938 L 489.892578 6.412109 L 496.729980 6.412109 L 496.729980 7.335938 Z " fill="rgb(0, 0, 0)" fill-opacity="1.000000" />
<path d="M 496.892578 7.335938 L 496.892578 6.412109 L 503.729980 6.412109 L 503.729980 7.335938 Z " fill="rgb(0, 0, 0)" fill-opacity="1.000000" />
<path d="M 506.878906 13.319336 L 506.878906 7.335938 L 503.892578 7.335938 L 503.892578 6.412109 L 507.738281 6.412109 L 507.738281 13.319336 Z " fill="rgb(0, 0, 0)" fill-opacity="1.000000" />
</svg>