<svg xmlns="http://www.w3.org/2000/svg" version="1.1" width="561" height="170">
<path d="M 1.670410 87.978516 Q 0.032227 87.033203 0.032227 85.142578 Q 0.032227 83.251953 1.670410 82.306641 Q 2.486816 81.833984 3.308594 81.833984 Q 4.125000 81.833984 4.946777 82.306641 Q 6.590332 83.251953 6.590332 85.142578 Q 6.590332 87.033203 4.946777 87.978516 Q 4.125000 88.451172 3.308594 88.451172 Q 2.486816 88.451172 1.670410 87.978516 Z " fill="rgb(0, 0, 0)" fill-opacity="1.000000" />
<path d="M 0.032227 98.142578 L 6.590332 94.866211 L 6.590332 101.418945 Z " fill="rgb(0, 0, 0)" fill-opacity="1.000000" />
<path d="M 149.878906 130.319336 L 149.878906 123.412109 L 153.729980 123.412109 L 153.729980 124.335938 L 150.738281 124.335938 L 150.738281 130.319336 Z " fill="rgb(0, 0, 0)" fill-opacity="1.000000" />
<path d="M 149.878906 143.319336 L 149.878906 129.300781 L 150.738281 129.300781 L 150.738281 143.319336 Z " fill="rgb(0, 0, 0)" fill-opacity="1.000000" />
<path d="M 149.878906 150.335938 L 149.878906 142.300781 L 150.738281 142.300781 L 150.738281 149.412109 L 153.729980 149.412109 L 153.729980 150.335938 Z " fill="rgb(0, 0, 0)" fill-opacity="1.000000" />
<path d="M 401.449219 163.797852 L 401.449219 155.300781 L 403.167969 155.300781 L 403.167969 161.950195 L 405.729980 161.950195 L 405.729980 163.797852 Z " fill="rgb(190, 0, 0)" fill-opacity="1.000000" />
<path d="M 405.892578 163.797852 L 405.892578 161.950195 L 412.729980 161.950195 L 412.729980 163.797852 Z " fill="rgb(190, 0, 0)" fill-opacity="1.000000" />
<path d="M 412.892578 163.797852 L 412.892578 161.950195 L 419.729980 161.950195 L 419.729980 163.797852 Z " fill="rgb(190, 0, 0)" fill-opacity="1.000000" />
<path d="M 419.892578 163.797852 L 419.892578 161.950195 L 426.729980 161.950195 L 426.729980 163.797852 Z " fill="rgb(190, 0, 0)" fill-opacity="1.000000" />
<path d="M 426.892578 163.797852 L 426.892578 161.950195 L 433.729980 161.950195 L 433.729980 163.797852 Z " fill="rgb(190, 0, 0)" fill-opacity="1.000000" />
<path d="M 433.892578 163.797852 L 433.892578 161.950195 L 440.729980 161.950195 L 440.729980 163.797852 Z " fill="rgb(190, 0, 0)" fill-opacity="1.000000" />
<path d="M 440.892578 163.797852 L 440.892578 161.950195 L 447.729980 161.950195 L 447.729980 163.797852 Z " fill="rgb(190, 0, 0)" fill-opacity="1.000000" />
<path d="M 447.892578 163.797852 L 447.892578 161.950195 L 454.729980 161.950195 L 454.729980 163.797852 Z " fill="rgb(190, 0, 0)" fill-opacity="1.000000" />
<path d="M 454.892578 163.797852 L 454.892578 161.950195 L 461.729980 161.950195 L 461.729980 163.797852 Z " fill="rgb(190, 0, 0)" fill-opacity="1.000000" />
<path d="M 461.892578 163.797852 L 461.892578 161.950195 L 468.729980 161.950195 L 468.729980 163.797852 Z " fill="rgb(190, 0, 0)" fill-opacity="1.000000" />
<path d="M 468.892578 163.797852 L 468.892578 161.950195 L 475.729980 161.950195 L 475.729980 163.797852 Z " fill="rgb(190, 0, 0)" fill-opacity="1.000000" />
<path d="M 475.892578 163.797852 L 475.892578 161.950195 L 482.729980 161.950195 L 482.729980 163.797852 Z " fill="rgb(190, 0, 0)" fill-opacity="1.000000" />
<path d="M 482.892578 163.797852 L 482.892578 161.950195 L 489.729980 161.950195 L 489.729980 163.797852 Z " fill="rgb(190, 0, 0)" fill-opacity="1.000000" />
<path d="M 489.892578 163.797852 L 489.892578 161.950195 L 496.729980 161.950195 L 496.729980 163.797852 Z " fill="rgb(190, 0, 0)" fill-opacity="1.000000" />
<path d="M 496.892578 163.797852 L 496.892578 161.950195 L 503.729980 161.950195 L 503.729980 163.797852 Z " fill="rgb(190, 0, 0)" fill-opacity="1.000000" />
<path d="M 503.892578 163.797852 L 503.892578 161.950195 L 510.729980 161.950195 L 510.729980 163.797852 Z " fill="rgb(190, 0, 0)" fill-opacity="1.000000" />
<path d="M 510.892578 163.797852 L 510.892578 161.950195 L 517.729980 161.950195 L 517.729980 163.797852 Z " fill="rgb(190, 0, 0)" fill-opacity="1.000000" />
<path d="M 517.892578 163.797852 L 517.892578 161.950195 L 524.729980 161.950195 L 524.729980 163.797852 Z " fill="rgb(190, 0, 0)" fill-opacity="1.000000" />
<path d="M 524.892578 163.797852 L 524.892578 161.950195 L 531.729980 161.950195 L 531.729980 163.797852 Z " fill="rgb(190, 0, 0)" fill-opacity="1.000000" />
<path d="M 531.892578 163.797852 L 531.892578 161.950195 L 538.729980 161.950195 L 538.729980 163.797852 Z " fill="rgb(190, 0, 0)" fill-opacity="1.000000" />
<path d="M 538.892578 163.797852 L 538.892578 161.950195 L 545.729980 161.950195 L 545.729980 163.797852 Z " fill="rgb(190, 0, 0)" fill-opacity="1.000000" />
<path d="M 545.892578 163.797852 L 545.892578 161.950195 L 552.729980 161.950195 L 552.729980 163.797852 Z " fill="rgb(190, 0, 0)" fill-opacity="1.000000" />
<path d="M 552.892578 163.797852 L 552.892578 161.950195 L 555.449219 161.950195 L 555.449219 155.300781 L 557.167969 155.300781 L 557.167969 163.797852 Z " fill="rgb(190, 0, 0)" fill-opacity="1.000000" />
<path d="M 153.892578 150.335938 L 153.892578 149.412109 L 160.729980 149.412109 L 160.729980 150.335938 Z " fill="rgb(0, 0, 0)" fill-opacity="1.000000" />
<path d="M 160.892578 150.335938 L 160.892578 149.412109 L 167.729980 149.412109 L 167.729980 150.335938 Z " fill="rgb(0, 0, 0)" fill-opacity="1.000000" />
<path d="M 167.892578 150.335938 L 167.892578 149.412109 L 174.729980 149.412109 L 174.729980 150.335938 Z " fill="rgb(0, 0, 0)" fill-opacity="1.000000" />
<path d="M 174.892578 150.335938 L 174.892578 149.412109 L 181.729980 149.412109 L 181.729980 150.335938 Z " fill="rgb(0, 0, 0)" fill-opacity="1.000000" />
<path d="M 181.892578 150.335938 L 181.892578 149.412109 L 188.729980 149.412109 L 188.729980 150.335938 Z " fill="rgb(0, 0, 0)" fill-opacity="1.000000" />
<path d="M 188.892578 150.335938 L 188.892578 149.412109 L 195.729980 149.412109 L 195.729980 150.335938 Z " fill="rgb(0, 0, 0)" fill-opacity="1.000000" />
<path d="M 195.892578 150.335938 L 195.892578 149.412109 L 202.729980 149.412109 L 202.729980 150.335938 Z " fill="rgb(0, 0, 0)" fill-opacity="1.000000" />
<path d="M 202.892578 150.335938 L 202.892578 149.412109 L 209.729980 149.412109 L 209.729980 150.335938 Z " fill="rgb(0, 0, 0)" fill-opacity="1.000000" />
<path d="M 209.892578 150.335938 L 209.892578 149.412109 L 216.729980 149.412109 L 216.729980 150.335938 Z " fill="rgb(0, 0, 0)" fill-opacity="1.000000" />
<path d="M 216.892578 150.335938 L 216.892578 149.412109 L 223.729980 149.412109 L 223.729980 150.335938 Z " fill="rgb(0, 0, 0)" fill-opacity="1.000000" />
<path d="M 223.892578 150.335938 L 223.892578 149.412109 L 226.878906 149.412109 L 226.878906 142.300781 L 227.738281 142.300781 L 227.738281 150.335938 Z " fill="rgb(0, 0, 0)" fill-opacity="1.000000" />
<path d="M 401.449219 156.319336 L 401.449219 142.300781 L 403.167969 142.300781 L 403.167969 156.319336 Z " fill="rgb(190, 0, 0)" fill-opacity="1.000000" />
<path d="M 417.592285 144.116211 Q 416.877930 145.340820 416.526123 146.557373 Q 416.174316 147.773926 416.174316 149.009277 Q 416.174316 150.239258 416.526123 151.458496 Q 416.877930 152.677734 417.592285 153.913086 L 416.732910 153.913086 Q 415.921875 152.634766 415.524414 151.423584 Q 415.126953 150.212402 415.126953 149.009277 Q 415.126953 147.811523 415.524414 146.597656 Q 415.921875 145.383789 416.732910 144.116211 Z " fill="rgb(190, 0, 0)" fill-opacity="1.000000" />
<path d="M 423.308594 145.937012 L 422.164551 150.040527 L 424.452637 150.040527 Z M 422.653320 144.980957 L 423.969238 144.980957 L 426.423828 153.000000 L 425.301270 153.000000 L 424.710449 150.910645 L 421.901367 150.910645 L 421.321289 153.000000 L 420.198730 153.000000 Z " fill="rgb(190, 0, 0)" fill-opacity="1.000000" />
<path d="M 427.102051 145.007812 L 428.584473 145.007812 L 431.721191 151.587402 L 431.721191 145.007812 L 432.875977 145.007812 L 432.875977 153.000000 L 431.393555 153.000000 L 428.256836 146.420410 L 428.256836 153.000000 L 427.102051 153.000000 Z " fill="rgb(190, 0, 0)" fill-opacity="1.000000" />
<path d="M 436.341797 152.108398 Q 437.711426 152.108398 438.253906 151.434326 Q 438.796387 150.760254 438.796387 148.998535 Q 438.796387 147.220703 438.256592 146.546631 Q 437.716797 145.872559 436.341797 145.872559 L 435.826172 145.872559 L 435.826172 152.108398 Z M 436.363281 144.980957 Q 438.200195 144.980957 439.070312 145.958496 Q 439.940430 146.936035 439.940430 148.998535 Q 439.940430 151.050293 439.070312 152.025146 Q 438.200195 153.000000 436.363281 153.000000 L 434.735840 153.000000 L 434.735840 144.980957 Z " fill="rgb(190, 0, 0)" fill-opacity="1.000000" />
<path d="M 448.102051 145.007812 L 449.584473 145.007812 L 452.721191 151.587402 L 452.721191 145.007812 L 453.875977 145.007812 L 453.875977 153.000000 L 452.393555 153.000000 L 449.256836 146.420410 L 449.256836 153.000000 L 448.102051 153.000000 Z " fill="rgb(190, 0, 0)" fill-opacity="1.000000" />
<path d="M 456.058105 144.980957 L 460.816895 144.980957 L 460.816895 145.894043 L 457.143066 145.894043 L 457.143066 148.053223 L 460.655762 148.053223 L 460.655762 148.966309 L 457.143066 148.966309 L 457.143066 152.086914 L 460.918945 152.086914 L 460.918945 153.000000 L 456.058105 153.000000 Z " fill="rgb(190, 0, 0)" fill-opacity="1.000000" />
<path d="M 465.308594 152.086914 L 467.193848 144.980957 L 468.316406 144.980957 L 465.969238 153.000000 L 464.653320 153.000000 L 462.306152 144.980957 L 463.428711 144.980957 Z " fill="rgb(190, 0, 0)" fill-opacity="1.000000" />
<path d="M 470.058105 144.980957 L 474.816895 144.980957 L 474.816895 145.894043 L 471.143066 145.894043 L 471.143066 148.053223 L 474.655762 148.053223 L 474.655762 148.966309 L 471.143066 148.966309 L 471.143066 152.086914 L 474.918945 152.086914 L 474.918945 153.000000 L 470.058105 153.000000 Z " fill="rgb(190, 0, 0)" fill-opacity="1.000000" />
<path d="M 480.082031 149.213379 Q 480.500977 149.320801 480.796387 149.618896 Q 481.091797 149.916992 481.532227 150.808594 L 482.622559 153.000000 L 481.457031 153.000000 L 480.500977 150.975098 Q 480.087402 150.110352 479.757080 149.860596 Q 479.426758 149.610840 478.895020 149.610840 L 477.858398 149.610840 L 477.858398 153.000000 L 476.768066 153.000000 L 476.768066 144.980957 L 479.002441 144.980957 Q 480.323730 144.980957 481.027344 145.577148 Q 481.730957 146.173340 481.730957 147.301270 Q 481.730957 148.096191 481.298584 148.598389 Q 480.866211 149.100586 480.082031 149.213379 Z M 477.858398 145.872559 L 477.858398 148.719238 L 479.045410 148.719238 Q 479.824219 148.719238 480.205566 148.370117 Q 480.586914 148.020996 480.586914 147.301270 Q 480.586914 146.608398 480.181396 146.240479 Q 479.775879 145.872559 479.002441 145.872559 Z " fill="rgb(190, 0, 0)" fill-opacity="1.000000" />
<path d="M 490.000000 144.980957 L 491.058105 144.980957 L 491.826172 151.490723 L 492.739258 147.183105 L 493.872559 147.183105 L 494.796387 151.501465 L 495.564453 144.980957 L 496.622559 144.980957 L 495.424805 153.000000 L 494.398926 153.000000 L 493.308594 148.235840 L 492.223633 153.000000 L 491.197754 153.000000 Z " fill="rgb(190, 0, 0)" fill-opacity="1.000000" />
<path d="M 498.079590 144.980957 L 502.532227 144.980957 L 502.532227 145.894043 L 500.851074 145.894043 L 500.851074 152.086914 L 502.532227 152.086914 L 502.532227 153.000000 L 498.079590 153.000000 L 498.079590 152.086914 L 499.760742 152.086914 L 499.760742 145.894043 L 498.079590 145.894043 Z " fill="rgb(190, 0, 0)" fill-opacity="1.000000" />
<path d="M 505.154785 144.980957 L 506.245117 144.980957 L 506.245117 152.086914 L 510.117676 152.086914 L 510.117676 153.000000 L 505.154785 153.000000 Z " fill="rgb(190, 0, 0)" fill-opacity="1.000000" />
<path d="M 512.154785 144.980957 L 513.245117 144.980957 L 513.245117 152.086914 L 517.117676 152.086914 L 517.117676 153.000000 L 512.154785 153.000000 Z " fill="rgb(190, 0, 0)" fill-opacity="1.000000" />
<path d="M 526.981934 148.955566 L 526.981934 152.108398 L 528.265625 152.108398 Q 529.210938 152.108398 529.613770 151.778076 Q 530.016602 151.447754 530.016602 150.690430 Q 530.016602 149.691406 529.592285 149.323486 Q 529.167969 148.955566 528.265625 148.955566 Z M 526.981934 145.872559 L 526.981934 148.074707 L 528.244141 148.074707 Q 529.028320 148.074707 529.380127 147.773926 Q 529.731934 147.473145 529.731934 147.016602 Q 529.731934 146.409668 529.385498 146.141113 Q 529.039062 145.872559 528.244141 145.872559 Z M 525.891602 144.980957 L 528.265625 144.980957 Q 529.495605 144.980957 530.161621 145.512695 Q 530.827637 146.044434 530.827637 147.016602 Q 530.827637 147.537598 530.475830 147.961914 Q 530.124023 148.386230 529.420410 148.493652 Q 530.209961 148.611816 530.658447 149.167725 Q 531.106934 149.723633 531.106934 150.797852 Q 531.106934 151.888184 530.392578 152.444092 Q 529.678223 153.000000 528.265625 153.000000 L 525.891602 153.000000 Z " fill="rgb(190, 0, 0)" fill-opacity="1.000000" />
<path d="M 533.058105 144.980957 L 537.816895 144.980957 L 537.816895 145.894043 L 534.143066 145.894043 L 534.143066 148.053223 L 537.655762 148.053223 L 537.655762 148.966309 L 534.143066 148.966309 L 534.143066 152.086914 L 537.918945 152.086914 L 537.918945 153.000000 L 533.058105 153.000000 Z " fill="rgb(190, 0, 0)" fill-opacity="1.000000" />
<path d="M 540.869141 144.116211 L 541.728516 144.116211 Q 542.539551 145.383789 542.937012 146.597656 Q 543.334473 147.811523 543.334473 149.009277 Q 543.334473 150.217773 542.937012 151.431641 Q 542.539551 152.645508 541.728516 153.913086 L 540.869141 153.913086 Q 541.583496 152.666992 541.935303 151.447754 Q 542.287109 150.228516 542.287109 149.009277 Q 542.287109 147.784668 541.935303 146.565430 Q 541.583496 145.346191 540.869141 144.116211 Z " fill="rgb(190, 0, 0)" fill-opacity="1.000000" />
<path d="M 555.449219 156.319336 L 555.449219 142.300781 L 557.167969 142.300781 L 557.167969 156.319336 Z " fill="rgb(190, 0, 0)" fill-opacity="1.000000" />
<path d="M 157.222656 140.107422 L 157.222656 134.752441 L 155.520020 134.752441 L 155.520020 133.984375 L 158.210938 133.984375 L 158.210938 140.107422 Q 158.210938 141.154785 157.730225 141.721436 Q 157.249512 142.288086 156.363281 142.288086 L 154.999023 142.288086 L 154.999023 141.450195 L 156.255859 141.450195 Q 156.739258 141.450195 156.980957 141.114502 Q 157.222656 140.778809 157.222656 140.107422 Z M 157.222656 131.642578 L 158.210938 131.642578 L 158.210938 132.894043 L 157.222656 132.894043 Z " fill="rgb(0, 0, 0)" fill-opacity="1.000000" />
<path d="M 164.308594 134.677246 Q 163.556641 134.677246 163.169922 135.262695 Q 162.783203 135.848145 162.783203 136.997559 Q 162.783203 138.141602 163.169922 138.729736 Q 163.556641 139.317871 164.308594 139.317871 Q 165.065918 139.317871 165.452637 138.729736 Q 165.839355 138.141602 165.839355 136.997559 Q 165.839355 135.848145 165.452637 135.262695 Q 165.065918 134.677246 164.308594 134.677246 Z M 164.308594 133.839355 Q 165.560059 133.839355 166.223389 134.650391 Q 166.886719 135.461426 166.886719 136.997559 Q 166.886719 138.539062 166.226074 139.347412 Q 165.565430 140.155762 164.308594 140.155762 Q 163.057129 140.155762 162.396484 139.347412 Q 161.735840 138.539062 161.735840 136.997559 Q 161.735840 135.461426 162.396484 134.650391 Q 163.057129 133.839355 164.308594 133.839355 Z " fill="rgb(0, 0, 0)" fill-opacity="1.000000" />
<path d="M 172.930664 136.997559 Q 172.930664 135.848145 172.565430 135.262695 Q 172.200195 134.677246 171.485840 134.677246 Q 170.766113 134.677246 170.395508 135.265381 Q 170.024902 135.853516 170.024902 136.997559 Q 170.024902 138.136230 170.395508 138.727051 Q 170.766113 139.317871 171.485840 139.317871 Q 172.200195 139.317871 172.565430 138.732422 Q 172.930664 138.146973 172.930664 136.997559 Z M 170.024902 134.752441 Q 170.261230 134.312012 170.677490 134.075684 Q 171.093750 133.839355 171.641602 133.839355 Q 172.726562 133.839355 173.349609 134.674561 Q 173.972656 135.509766 173.972656 136.976074 Q 173.972656 138.463867 173.346924 139.309814 Q 172.721191 140.155762 171.630859 140.155762 Q 171.093750 140.155762 170.682861 139.922119 Q 170.271973 139.688477 170.024902 139.242676 L 170.024902 140.000000 L 169.036621 140.000000 L 169.036621 131.642578 L 170.024902 131.642578 Z " fill="rgb(0, 0, 0)" fill-opacity="1.000000" />
<path d="M 187.226074 134.193848 L 187.226074 135.160645 Q 186.801758 134.913574 186.372070 134.790039 Q 185.942383 134.666504 185.496582 134.666504 Q 184.825195 134.666504 184.494873 134.884033 Q 184.164551 135.101562 184.164551 135.547363 Q 184.164551 135.950195 184.411621 136.148926 Q 184.658691 136.347656 185.641602 136.535645 L 186.039062 136.610840 Q 186.774902 136.750488 187.153564 137.169434 Q 187.532227 137.588379 187.532227 138.259766 Q 187.532227 139.151367 186.898438 139.653564 Q 186.264648 140.155762 185.136719 140.155762 Q 184.690918 140.155762 184.202148 140.061768 Q 183.713379 139.967773 183.144043 139.779785 L 183.144043 138.759277 Q 183.697266 139.043945 184.202148 139.186279 Q 184.707031 139.328613 185.158203 139.328613 Q 185.813477 139.328613 186.173340 139.062744 Q 186.533203 138.796875 186.533203 138.318848 Q 186.533203 137.631348 185.217285 137.368164 L 185.174316 137.357422 L 184.803711 137.282227 Q 183.949707 137.115723 183.557617 136.720947 Q 183.165527 136.326172 183.165527 135.644043 Q 183.165527 134.779297 183.750977 134.309326 Q 184.336426 133.839355 185.421387 133.839355 Q 185.904785 133.839355 186.350586 133.927979 Q 186.796387 134.016602 187.226074 134.193848 Z " fill="rgb(0, 0, 0)" fill-opacity="1.000000" />
<path d="M 192.297852 132.276367 L 192.297852 133.984375 L 194.542969 133.984375 L 194.542969 134.752441 L 192.297852 134.752441 L 192.297852 138.018066 Q 192.297852 138.684082 192.550293 138.947266 Q 192.802734 139.210449 193.431152 139.210449 L 194.542969 139.210449 L 194.542969 140.000000 L 193.334473 140.000000 Q 192.222656 140.000000 191.766113 139.554199 Q 191.309570 139.108398 191.309570 138.018066 L 191.309570 134.752441 L 189.703613 134.752441 L 189.703613 133.984375 L 191.309570 133.984375 L 191.309570 132.276367 Z " fill="rgb(0, 0, 0)" fill-opacity="1.000000" />
<path d="M 199.770508 136.976074 L 199.442871 136.976074 Q 198.578125 136.976074 198.140381 137.279541 Q 197.702637 137.583008 197.702637 138.184570 Q 197.702637 138.727051 198.030273 139.027832 Q 198.357910 139.328613 198.937988 139.328613 Q 199.754395 139.328613 200.221680 138.761963 Q 200.688965 138.195312 200.694336 137.196289 L 200.694336 136.976074 Z M 201.687988 136.567871 L 201.687988 140.000000 L 200.694336 140.000000 L 200.694336 139.108398 Q 200.377441 139.645508 199.896729 139.900635 Q 199.416016 140.155762 198.728516 140.155762 Q 197.810059 140.155762 197.262207 139.637451 Q 196.714355 139.119141 196.714355 138.249023 Q 196.714355 137.244629 197.388428 136.723633 Q 198.062500 136.202637 199.367676 136.202637 L 200.694336 136.202637 L 200.694336 136.046875 Q 200.688965 135.327148 200.329102 135.002197 Q 199.969238 134.677246 199.179688 134.677246 Q 198.674805 134.677246 198.159180 134.822266 Q 197.643555 134.967285 197.154785 135.246582 L 197.154785 134.258301 Q 197.702637 134.048828 198.204834 133.944092 Q 198.707031 133.839355 199.179688 133.839355 Q 199.926270 133.839355 200.455322 134.059570 Q 200.984375 134.279785 201.312012 134.720215 Q 201.516113 134.988770 201.602051 135.383545 Q 201.687988 135.778320 201.687988 136.567871 Z " fill="rgb(0, 0, 0)" fill-opacity="1.000000" />
<path d="M 209.203613 135.225098 Q 208.886719 134.978027 208.559082 134.865234 Q 208.231445 134.752441 207.839355 134.752441 Q 206.915527 134.752441 206.426758 135.332520 Q 205.937988 135.912598 205.937988 137.008301 L 205.937988 140.000000 L 204.944336 140.000000 L 204.944336 133.984375 L 205.937988 133.984375 L 205.937988 135.160645 Q 206.185059 134.521484 206.697998 134.180420 Q 207.210938 133.839355 207.914551 133.839355 Q 208.279785 133.839355 208.596680 133.930664 Q 208.913574 134.021973 209.203613 134.215332 Z " fill="rgb(0, 0, 0)" fill-opacity="1.000000" />
<path d="M 213.297852 132.276367 L 213.297852 133.984375 L 215.542969 133.984375 L 215.542969 134.752441 L 213.297852 134.752441 L 213.297852 138.018066 Q 213.297852 138.684082 213.550293 138.947266 Q 213.802734 139.210449 214.431152 139.210449 L 215.542969 139.210449 L 215.542969 140.000000 L 214.334473 140.000000 Q 213.222656 140.000000 212.766113 139.554199 Q 212.309570 139.108398 212.309570 138.018066 L 212.309570 134.752441 L 210.703613 134.752441 L 210.703613 133.984375 L 212.309570 133.984375 L 212.309570 132.276367 Z " fill="rgb(0, 0, 0)" fill-opacity="1.000000" />
<path d="M 222.226074 134.193848 L 222.226074 135.160645 Q 221.801758 134.913574 221.372070 134.790039 Q 220.942383 134.666504 220.496582 134.666504 Q 219.825195 134.666504 219.494873 134.884033 Q 219.164551 135.101562 219.164551 135.547363 Q 219.164551 135.950195 219.411621 136.148926 Q 219.658691 136.347656 220.641602 136.535645 L 221.039062 136.610840 Q 221.774902 136.750488 222.153564 137.169434 Q 222.532227 137.588379 222.532227 138.259766 Q 222.532227 139.151367 221.898438 139.653564 Q 221.264648 140.155762 220.136719 140.155762 Q 219.690918 140.155762 219.202148 140.061768 Q 218.713379 139.967773 218.144043 139.779785 L 218.144043 138.759277 Q 218.697266 139.043945 219.202148 139.186279 Q 219.707031 139.328613 220.158203 139.328613 Q 220.813477 139.328613 221.173340 139.062744 Q 221.533203 138.796875 221.533203 138.318848 Q 221.533203 137.631348 220.217285 137.368164 L 220.174316 137.357422 L 219.803711 137.282227 Q 218.949707 137.115723 218.557617 136.720947 Q 218.165527 136.326172 218.165527 135.644043 Q 218.165527 134.779297 218.750977 134.309326 Q 219.336426 133.839355 220.421387 133.839355 Q 220.904785 133.839355 221.350586 133.927979 Q 221.796387 134.016602 222.226074 134.193848 Z " fill="rgb(0, 0, 0)" fill-opacity="1.000000" />
<path d="M 226.878906 143.319336 L 226.878906 129.300781 L 227.738281 129.300781 L 227.738281 136.412109 L 230.729980 136.412109 L 230.729980 137.335938 L 227.738281 137.335938 L 227.738281 143.319336 Z " fill="rgb(0, 0, 0)" fill-opacity="1.000000" />
<path d="M 230.892578 137.335938 L 230.892578 136.412109 L 237.729980 136.412109 L 237.729980 137.335938 Z " fill="rgb(0, 0, 0)" fill-opacity="1.000000" />
<path d="M 237.892578 137.335938 L 237.892578 136.412109 L 244.729980 136.412109 L 244.729980 137.335938 Z " fill="rgb(0, 0, 0)" fill-opacity="1.000000" />
<path d="M 244.892578 137.335938 L 244.892578 136.412109 L 251.729980 136.412109 L 251.729980 137.335938 Z " fill="rgb(0, 0, 0)" fill-opacity="1.000000" />
<path d="M 251.892578 137.335938 L 251.892578 136.412109 L 258.729980 136.412109 L 258.729980 137.335938 Z " fill="rgb(0, 0, 0)" fill-opacity="1.000000" />
<path d="M 258.892578 137.335938 L 258.892578 136.412109 L 265.729980 136.412109 L 265.729980 137.335938 Z " fill="rgb(0, 0, 0)" fill-opacity="1.000000" />
<path d="M 266.644531 139.505859 L 271.365723 137.142578 L 266.644531 134.779297 Z M 266.032227 140.418945 L 266.032227 133.866211 L 272.590332 137.142578 Z " fill="rgb(0, 0, 0)" fill-opacity="1.000000" />
<path d="M 281.670410 139.978516 Q 280.032227 139.033203 280.032227 137.142578 Q 280.032227 135.251953 281.670410 134.306641 Q 282.486816 133.833984 283.308594 133.833984 Q 284.125000 133.833984 284.946777 134.306641 Q 286.590332 135.251953 286.590332 137.142578 Q 286.590332 139.033203 284.946777 139.978516 Q 284.125000 140.451172 283.308594 140.451172 Q 282.486816 140.451172 281.670410 139.978516 Z " fill="rgb(0, 0, 0)" fill-opacity="1.000000" />
<path d="M 286.892578 137.797852 L 286.892578 135.950195 L 293.729980 135.950195 L 293.729980 137.797852 Z " fill="rgb(0, 0, 0)" fill-opacity="1.000000" />
<path d="M 293.892578 137.797852 L 293.892578 135.950195 L 300.729980 135.950195 L 300.729980 137.797852 Z " fill="rgb(0, 0, 0)" fill-opacity="1.000000" />
<path d="M 300.892578 137.797852 L 300.892578 135.950195 L 307.729980 135.950195 L 307.729980 137.797852 Z " fill="rgb(0, 0, 0)" fill-opacity="1.000000" />
<path d="M 307.892578 137.797852 L 307.892578 135.950195 L 314.729980 135.950195 L 314.729980 137.797852 Z " fill="rgb(0, 0, 0)" fill-opacity="1.000000" />
<path d="M 314.892578 137.797852 L 314.892578 135.950195 L 321.729980 135.950195 L 321.729980 137.797852 Z " fill="rgb(0, 0, 0)" fill-opacity="1.000000" />
<path d="M 321.892578 137.797852 L 321.892578 135.950195 L 328.729980 135.950195 L 328.729980 137.797852 Z " fill="rgb(0, 0, 0)" fill-opacity="1.000000" />
<path d="M 328.892578 137.797852 L 328.892578 135.950195 L 335.729980 135.950195 L 335.729980 137.797852 Z " fill="rgb(0, 0, 0)" fill-opacity="1.000000" />
<path d="M 335.892578 137.797852 L 335.892578 135.950195 L 342.729980 135.950195 L 342.729980 137.797852 Z " fill="rgb(0, 0, 0)" fill-opacity="1.000000" />
<path d="M 342.892578 137.797852 L 342.892578 135.950195 L 349.729980 135.950195 L 349.729980 137.797852 Z " fill="rgb(0, 0, 0)" fill-opacity="1.000000" />
<path d="M 349.892578 137.797852 L 349.892578 135.950195 L 356.729980 135.950195 L 356.729980 137.797852 Z " fill="rgb(0, 0, 0)" fill-opacity="1.000000" />
<path d="M 357.032227 140.418945 L 357.032227 133.866211 L 363.590332 137.142578 Z " fill="rgb(0, 0, 0)" fill-opacity="1.000000" />
<path d="M 371.032227 137.142578 L 377.590332 133.866211 L 377.590332 140.418945 Z " fill="rgb(190, 0, 0)" fill-opacity="1.000000" />
<path d="M 377.892578 137.797852 L 377.892578 135.950195 L 384.729980 135.950195 L 384.729980 137.797852 Z " fill="rgb(190, 0, 0)" fill-opacity="1.000000" />
<path d="M 384.892578 137.797852 L 384.892578 135.950195 L 391.729980 135.950195 L 391.729980 137.797852 Z " fill="rgb(190, 0, 0)" fill-opacity="1.000000" />
<path d="M 391.892578 137.797852 L 391.892578 135.950195 L 398.729980 135.950195 L 398.729980 137.797852 Z " fill="rgb(190, 0, 0)" fill-opacity="1.000000" />
<path d="M 401.449219 143.319336 L 401.449219 129.300781 L 403.167969 129.300781 L 403.167969 143.319336 Z " fill="rgb(190, 0, 0)" fill-opacity="1.000000" />
<path d="M 422.341797 139.108398 Q 423.711426 139.108398 424.253906 138.434326 Q 424.796387 137.760254 424.796387 135.998535 Q 424.796387 134.220703 424.256592 133.546631 Q 423.716797 132.872559 422.341797 132.872559 L 421.826172 132.872559 L 421.826172 139.108398 Z M 422.363281 131.980957 Q 424.200195 131.980957 425.070312 132.958496 Q 425.940430 133.936035 425.940430 135.998535 Q 425.940430 138.050293 425.070312 139.025146 Q 424.200195 140.000000 422.363281 140.000000 L 420.735840 140.000000 L 420.735840 131.980957 Z " fill="rgb(190, 0, 0)" fill-opacity="1.000000" />
<path d="M 430.308594 132.937012 L 429.164551 137.040527 L 431.452637 137.040527 Z M 429.653320 131.980957 L 430.969238 131.980957 L 433.423828 140.000000 L 432.301270 140.000000 L 431.710449 137.910645 L 428.901367 137.910645 L 428.321289 140.000000 L 427.198730 140.000000 Z " fill="rgb(190, 0, 0)" fill-opacity="1.000000" />
<path d="M 434.252441 131.980957 L 440.370117 131.980957 L 440.370117 132.894043 L 437.861816 132.894043 L 437.861816 140.000000 L 436.771484 140.000000 L 436.771484 132.894043 L 434.252441 132.894043 Z " fill="rgb(190, 0, 0)" fill-opacity="1.000000" />
<path d="M 444.308594 132.937012 L 443.164551 137.040527 L 445.452637 137.040527 Z M 443.653320 131.980957 L 444.969238 131.980957 L 447.423828 140.000000 L 446.301270 140.000000 L 445.710449 137.910645 L 442.901367 137.910645 L 442.321289 140.000000 L 441.198730 140.000000 Z " fill="rgb(190, 0, 0)" fill-opacity="1.000000" />
<path d="M 455.102051 132.007812 L 456.584473 132.007812 L 459.721191 138.587402 L 459.721191 132.007812 L 460.875977 132.007812 L 460.875977 140.000000 L 459.393555 140.000000 L 456.256836 133.420410 L 456.256836 140.000000 L 455.102051 140.000000 Z " fill="rgb(190, 0, 0)" fill-opacity="1.000000" />
<path d="M 466.860840 135.998535 Q 466.860840 134.231445 466.498291 133.474121 Q 466.135742 132.716797 465.308594 132.716797 Q 464.486816 132.716797 464.124268 133.474121 Q 463.761719 134.231445 463.761719 135.998535 Q 463.761719 137.760254 464.124268 138.517578 Q 464.486816 139.274902 465.308594 139.274902 Q 466.135742 139.274902 466.498291 138.520264 Q 466.860840 137.765625 466.860840 135.998535 Z M 467.994141 135.998535 Q 467.994141 138.093262 467.330811 139.124512 Q 466.667480 140.155762 465.308594 140.155762 Q 463.949707 140.155762 463.289062 139.129883 Q 462.628418 138.104004 462.628418 135.998535 Q 462.628418 133.898438 463.291748 132.867188 Q 463.955078 131.835938 465.308594 131.835938 Q 466.667480 131.835938 467.330811 132.867188 Q 467.994141 133.898438 467.994141 135.998535 Z " fill="rgb(190, 0, 0)" fill-opacity="1.000000" />
<path d="M 469.252441 131.980957 L 475.370117 131.980957 L 475.370117 132.894043 L 472.861816 132.894043 L 472.861816 140.000000 L 471.771484 140.000000 L 471.771484 132.894043 L 469.252441 132.894043 Z " fill="rgb(190, 0, 0)" fill-opacity="1.000000" />
<path d="M 486.308594 139.086914 L 488.193848 131.980957 L 489.316406 131.980957 L 486.969238 140.000000 L 485.653320 140.000000 L 483.306152 131.980957 L 484.428711 131.980957 Z " fill="rgb(190, 0, 0)" fill-opacity="1.000000" />
<path d="M 491.079590 131.980957 L 495.532227 131.980957 L 495.532227 132.894043 L 493.851074 132.894043 L 493.851074 139.086914 L 495.532227 139.086914 L 495.532227 140.000000 L 491.079590 140.000000 L 491.079590 139.086914 L 492.760742 139.086914 L 492.760742 132.894043 L 491.079590 132.894043 Z " fill="rgb(190, 0, 0)" fill-opacity="1.000000" />
<path d="M 502.435547 132.254883 L 502.435547 133.355957 Q 501.941406 133.039062 501.444580 132.877930 Q 500.947754 132.716797 500.442871 132.716797 Q 499.674805 132.716797 499.229004 133.073975 Q 498.783203 133.431152 498.783203 134.038086 Q 498.783203 134.569824 499.075928 134.849121 Q 499.368652 135.128418 500.168945 135.316406 L 500.738281 135.445312 Q 501.866211 135.708496 502.381836 136.272461 Q 502.897461 136.836426 502.897461 137.808594 Q 502.897461 138.952637 502.188477 139.554199 Q 501.479492 140.155762 500.125977 140.155762 Q 499.562012 140.155762 498.992676 140.034912 Q 498.423340 139.914062 497.848633 139.672363 L 497.848633 138.517578 Q 498.466309 138.909668 499.016846 139.092285 Q 499.567383 139.274902 500.125977 139.274902 Q 500.947754 139.274902 501.404297 138.906982 Q 501.860840 138.539062 501.860840 137.878418 Q 501.860840 137.276855 501.546631 136.959961 Q 501.232422 136.643066 500.453613 136.471191 L 499.873535 136.336914 Q 498.756348 136.084473 498.251465 135.574219 Q 497.746582 135.063965 497.746582 134.204590 Q 497.746582 133.130371 498.468994 132.483154 Q 499.191406 131.835938 500.389160 131.835938 Q 500.851074 131.835938 501.361328 131.940674 Q 501.871582 132.045410 502.435547 132.254883 Z " fill="rgb(190, 0, 0)" fill-opacity="1.000000" />
<path d="M 505.079590 131.980957 L 509.532227 131.980957 L 509.532227 132.894043 L 507.851074 132.894043 L 507.851074 139.086914 L 509.532227 139.086914 L 509.532227 140.000000 L 505.079590 140.000000 L 505.079590 139.086914 L 506.760742 139.086914 L 506.760742 132.894043 L 505.079590 132.894043 Z " fill="rgb(190, 0, 0)" fill-opacity="1.000000" />
<path d="M 512.981934 135.955566 L 512.981934 139.108398 L 514.265625 139.108398 Q 515.210938 139.108398 515.613770 138.778076 Q 516.016602 138.447754 516.016602 137.690430 Q 516.016602 136.691406 515.592285 136.323486 Q 515.167969 135.955566 514.265625 135.955566 Z M 512.981934 132.872559 L 512.981934 135.074707 L 514.244141 135.074707 Q 515.028320 135.074707 515.380127 134.773926 Q 515.731934 134.473145 515.731934 134.016602 Q 515.731934 133.409668 515.385498 133.141113 Q 515.039062 132.872559 514.244141 132.872559 Z M 511.891602 131.980957 L 514.265625 131.980957 Q 515.495605 131.980957 516.161621 132.512695 Q 516.827637 133.044434 516.827637 134.016602 Q 516.827637 134.537598 516.475830 134.961914 Q 516.124023 135.386230 515.420410 135.493652 Q 516.209961 135.611816 516.658447 136.167725 Q 517.106934 136.723633 517.106934 137.797852 Q 517.106934 138.888184 516.392578 139.444092 Q 515.678223 140.000000 514.265625 140.000000 L 511.891602 140.000000 Z " fill="rgb(190, 0, 0)" fill-opacity="1.000000" />
<path d="M 519.154785 131.980957 L 520.245117 131.980957 L 520.245117 139.086914 L 524.117676 139.086914 L 524.117676 140.000000 L 519.154785 140.000000 Z " fill="rgb(190, 0, 0)" fill-opacity="1.000000" />
<path d="M 526.058105 131.980957 L 530.816895 131.980957 L 530.816895 132.894043 L 527.143066 132.894043 L 527.143066 135.053223 L 530.655762 135.053223 L 530.655762 135.966309 L 527.143066 135.966309 L 527.143066 139.086914 L 530.918945 139.086914 L 530.918945 140.000000 L 526.058105 140.000000 Z " fill="rgb(190, 0, 0)" fill-opacity="1.000000" />
<path d="M 534.932617 131.980957 L 536.022949 131.980957 L 536.022949 135.499023 L 535.910156 137.147949 L 535.045410 137.147949 L 534.932617 135.499023 Z M 534.771484 138.635742 L 536.184082 138.635742 L 536.184082 140.000000 L 534.771484 140.000000 Z " fill="rgb(190, 0, 0)" fill-opacity="1.000000" />
<path d="M 555.449219 143.319336 L 555.449219 129.300781 L 557.167969 129.300781 L 557.167969 143.319336 Z " fill="rgb(190, 0, 0)" fill-opacity="1.000000" />
<path d="M 153.892578 124.335938 L 153.892578 123.412109 L 160.729980 123.412109 L 160.729980 124.335938 Z " fill="rgb(0, 0, 0)" fill-opacity="1.000000" />
<path d="M 160.892578 124.335938 L 160.892578 123.412109 L 167.729980 123.412109 L 167.729980 124.335938 Z " fill="rgb(0, 0, 0)" fill-opacity="1.000000" />
<path d="M 167.892578 124.335938 L 167.892578 123.412109 L 174.729980 123.412109 L 174.729980 124.335938 Z " fill="rgb(0, 0, 0)" fill-opacity="1.000000" />
<path d="M 174.892578 124.335938 L 174.892578 123.412109 L 181.729980 123.412109 L 181.729980 124.335938 Z " fill="rgb(0, 0, 0)" fill-opacity="1.000000" />
<path d="M 181.892578 124.335938 L 181.892578 123.412109 L 188.729980 123.412109 L 188.729980 124.335938 Z " fill="rgb(0, 0, 0)" fill-opacity="1.000000" />
<path d="M 188.892578 124.335938 L 188.892578 123.412109 L 195.729980 123.412109 L 195.729980 124.335938 Z " fill="rgb(0, 0, 0)" fill-opacity="1.000000" />
<path d="M 195.892578 124.335938 L 195.892578 123.412109 L 202.729980 123.412109 L 202.729980 124.335938 Z " fill="rgb(0, 0, 0)" fill-opacity="1.000000" />
<path d="M 202.892578 124.335938 L 202.892578 123.412109 L 209.729980 123.412109 L 209.729980 124.335938 Z " fill="rgb(0, 0, 0)" fill-opacity="1.000000" />
<path d="M 209.892578 124.335938 L 209.892578 123.412109 L 216.729980 123.412109 L 216.729980 124.335938 Z " fill="rgb(0, 0, 0)" fill-opacity="1.000000" />
<path d="M 216.892578 124.335938 L 216.892578 123.412109 L 223.729980 123.412109 L 223.729980 124.335938 Z " fill="rgb(0, 0, 0)" fill-opacity="1.000000" />
<path d="M 226.878906 130.319336 L 226.878906 124.335938 L 223.892578 124.335938 L 223.892578 123.412109 L 227.738281 123.412109 L 227.738281 130.319336 Z " fill="rgb(0, 0, 0)" fill-opacity="1.000000" />
<path d="M 283.308594 127.418945 L 280.032227 120.866211 L 286.590332 120.866211 Z " fill="rgb(0, 0, 0)" fill-opacity="1.000000" />
<path d="M 401.449219 130.319336 L 401.449219 116.300781 L 403.167969 116.300781 L 403.167969 130.319336 Z " fill="rgb(190, 0, 0)" fill-opacity="1.000000" />
<path d="M 479.926270 123.777344 L 481.918945 125.775391 L 481.301270 126.387695 L 479.308594 124.395020 L 477.315918 126.387695 L 476.698242 125.775391 L 478.690918 123.777344 L 476.698242 121.784668 L 477.315918 121.166992 L 479.308594 123.159668 L 481.306641 121.166992 L 481.924316 121.779297 Z " fill="rgb(190, 0, 0)" fill-opacity="1.000000" />
<path d="M 555.449219 130.319336 L 555.449219 116.300781 L 557.167969 116.300781 L 557.167969 130.319336 Z " fill="rgb(190, 0, 0)" fill-opacity="1.000000" />
<path d="M 282.449219 117.319336 L 282.449219 103.300781 L 284.167969 103.300781 L 284.167969 117.319336 Z " fill="rgb(0, 0, 0)" fill-opacity="1.000000" />
<path d="M 401.449219 117.319336 L 401.449219 109.950195 L 405.729980 109.950195 L 405.729980 111.797852 L 403.167969 111.797852 L 403.167969 117.319336 Z " fill="rgb(190, 0, 0)" fill-opacity="1.000000" />
<path d="M 405.892578 111.797852 L 405.892578 109.950195 L 412.729980 109.950195 L 412.729980 111.797852 Z " fill="rgb(190, 0, 0)" fill-opacity="1.000000" />
<path d="M 412.892578 111.797852 L 412.892578 109.950195 L 419.729980 109.950195 L 419.729980 111.797852 Z " fill="rgb(190, 0, 0)" fill-opacity="1.000000" />
<path d="M 419.892578 111.797852 L 419.892578 109.950195 L 426.729980 109.950195 L 426.729980 111.797852 Z " fill="rgb(190, 0, 0)" fill-opacity="1.000000" />
<path d="M 426.892578 111.797852 L 426.892578 109.950195 L 433.729980 109.950195 L 433.729980 111.797852 Z " fill="rgb(190, 0, 0)" fill-opacity="1.000000" />
<path d="M 433.892578 111.797852 L 433.892578 109.950195 L 440.729980 109.950195 L 440.729980 111.797852 Z " fill="rgb(190, 0, 0)" fill-opacity="1.000000" />
<path d="M 440.892578 111.797852 L 440.892578 109.950195 L 447.729980 109.950195 L 447.729980 111.797852 Z " fill="rgb(190, 0, 0)" fill-opacity="1.000000" />
<path d="M 447.892578 111.797852 L 447.892578 109.950195 L 454.729980 109.950195 L 454.729980 111.797852 Z " fill="rgb(190, 0, 0)" fill-opacity="1.000000" />
<path d="M 454.892578 111.797852 L 454.892578 109.950195 L 461.729980 109.950195 L 461.729980 111.797852 Z " fill="rgb(190, 0, 0)" fill-opacity="1.000000" />
<path d="M 461.892578 111.797852 L 461.892578 109.950195 L 468.729980 109.950195 L 468.729980 111.797852 Z " fill="rgb(190, 0, 0)" fill-opacity="1.000000" />
<path d="M 468.892578 111.797852 L 468.892578 109.950195 L 475.729980 109.950195 L 475.729980 111.797852 Z " fill="rgb(190, 0, 0)" fill-opacity="1.000000" />
<path d="M 475.892578 111.797852 L 475.892578 109.950195 L 482.729980 109.950195 L 482.729980 111.797852 Z " fill="rgb(190, 0, 0)" fill-opacity="1.000000" />
<path d="M 482.892578 111.797852 L 482.892578 109.950195 L 489.729980 109.950195 L 489.729980 111.797852 Z " fill="rgb(190, 0, 0)" fill-opacity="1.000000" />
<path d="M 489.892578 111.797852 L 489.892578 109.950195 L 496.729980 109.950195 L 496.729980 111.797852 Z " fill="rgb(190, 0, 0)" fill-opacity="1.000000" />
<path d="M 496.892578 111.797852 L 496.892578 109.950195 L 503.729980 109.950195 L 503.729980 111.797852 Z " fill="rgb(190, 0, 0)" fill-opacity="1.000000" />
<path d="M 503.892578 111.797852 L 503.892578 109.950195 L 510.729980 109.950195 L 510.729980 111.797852 Z " fill="rgb(190, 0, 0)" fill-opacity="1.000000" />
<path d="M 510.892578 111.797852 L 510.892578 109.950195 L 517.729980 109.950195 L 517.729980 111.797852 Z " fill="rgb(190, 0, 0)" fill-opacity="1.000000" />
<path d="M 517.892578 111.797852 L 517.892578 109.950195 L 524.729980 109.950195 L 524.729980 111.797852 Z " fill="rgb(190, 0, 0)" fill-opacity="1.000000" />
<path d="M 524.892578 111.797852 L 524.892578 109.950195 L 531.729980 109.950195 L 531.729980 111.797852 Z " fill="rgb(190, 0, 0)" fill-opacity="1.000000" />
<path d="M 531.892578 111.797852 L 531.892578 109.950195 L 538.729980 109.950195 L 538.729980 111.797852 Z " fill="rgb(190, 0, 0)" fill-opacity="1.000000" />
<path d="M 538.892578 111.797852 L 538.892578 109.950195 L 545.729980 109.950195 L 545.729980 111.797852 Z " fill="rgb(190, 0, 0)" fill-opacity="1.000000" />
<path d="M 545.892578 111.797852 L 545.892578 109.950195 L 552.729980 109.950195 L 552.729980 111.797852 Z " fill="rgb(190, 0, 0)" fill-opacity="1.000000" />
<path d="M 555.449219 117.319336 L 555.449219 111.797852 L 552.892578 111.797852 L 552.892578 109.950195 L 557.167969 109.950195 L 557.167969 117.319336 Z " fill="rgb(190, 0, 0)" fill-opacity="1.000000" />
<path d="M 6.892578 98.797852 L 6.892578 96.950195 L 13.729980 96.950195 L 13.729980 98.797852 Z " fill="rgb(0, 0, 0)" fill-opacity="1.000000" />
<path d="M 13.892578 98.797852 L 13.892578 96.950195 L 20.729980 96.950195 L 20.729980 98.797852 Z " fill="rgb(0, 0, 0)" fill-opacity="1.000000" />
<path d="M 20.892578 98.797852 L 20.892578 96.950195 L 27.729980 96.950195 L 27.729980 98.797852 Z " fill="rgb(0, 0, 0)" fill-opacity="1.000000" />
<path d="M 27.892578 98.797852 L 27.892578 96.950195 L 34.729980 96.950195 L 34.729980 98.797852 Z " fill="rgb(0, 0, 0)" fill-opacity="1.000000" />
<path d="M 34.892578 98.797852 L 34.892578 96.950195 L 41.729980 96.950195 L 41.729980 98.797852 Z " fill="rgb(0, 0, 0)" fill-opacity="1.000000" />
<path d="M 41.892578 98.797852 L 41.892578 96.950195 L 48.729980 96.950195 L 48.729980 98.797852 Z " fill="rgb(0, 0, 0)" fill-opacity="1.000000" />
<path d="M 48.892578 98.797852 L 48.892578 96.950195 L 55.729980 96.950195 L 55.729980 98.797852 Z " fill="rgb(0, 0, 0)" fill-opacity="1.000000" />
<path d="M 55.892578 98.797852 L 55.892578 96.950195 L 62.729980 96.950195 L 62.729980 98.797852 Z " fill="rgb(0, 0, 0)" fill-opacity="1.000000" />
<path d="M 62.892578 98.797852 L 62.892578 96.950195 L 69.729980 96.950195 L 69.729980 98.797852 Z " fill="rgb(0, 0, 0)" fill-opacity="1.000000" />
<path d="M 69.892578 98.797852 L 69.892578 96.950195 L 76.729980 96.950195 L 76.729980 98.797852 Z " fill="rgb(0, 0, 0)" fill-opacity="1.000000" />
<path d="M 76.892578 98.797852 L 76.892578 96.950195 L 83.729980 96.950195 L 83.729980 98.797852 Z " fill="rgb(0, 0, 0)" fill-opacity="1.000000" />
<path d="M 83.892578 98.797852 L 83.892578 96.950195 L 90.729980 96.950195 L 90.729980 98.797852 Z " fill="rgb(0, 0, 0)" fill-opacity="1.000000" />
<path d="M 90.892578 98.797852 L 90.892578 96.950195 L 97.729980 96.950195 L 97.729980 98.797852 Z " fill="rgb(0, 0, 0)" fill-opacity="1.000000" />
<path d="M 97.892578 98.797852 L 97.892578 96.950195 L 104.729980 96.950195 L 104.729980 98.797852 Z " fill="rgb(0, 0, 0)" fill-opacity="1.000000" />
<path d="M 104.892578 98.797852 L 104.892578 96.950195 L 111.729980 96.950195 L 111.729980 98.797852 Z " fill="rgb(0, 0, 0)" fill-opacity="1.000000" />
<path d="M 111.892578 98.797852 L 111.892578 96.950195 L 118.729980 96.950195 L 118.729980 98.797852 Z " fill="rgb(0, 0, 0)" fill-opacity="1.000000" />
<path d="M 118.892578 98.797852 L 118.892578 96.950195 L 125.729980 96.950195 L 125.729980 98.797852 Z " fill="rgb(0, 0, 0)" fill-opacity="1.000000" />
<path d="M 125.892578 98.797852 L 125.892578 96.950195 L 132.729980 96.950195 L 132.729980 98.797852 Z " fill="rgb(0, 0, 0)" fill-opacity="1.000000" />
<path d="M 132.892578 98.797852 L 132.892578 96.950195 L 139.729980 96.950195 L 139.729980 98.797852 Z " fill="rgb(0, 0, 0)" fill-opacity="1.000000" />
<path d="M 139.892578 98.797852 L 139.892578 96.950195 L 146.729980 96.950195 L 146.729980 98.797852 Z " fill="rgb(0, 0, 0)" fill-opacity="1.000000" />
<path d="M 146.892578 98.797852 L 146.892578 96.950195 L 153.729980 96.950195 L 153.729980 98.797852 Z " fill="rgb(0, 0, 0)" fill-opacity="1.000000" />
<path d="M 153.892578 98.797852 L 153.892578 96.950195 L 160.729980 96.950195 L 160.729980 98.797852 Z " fill="rgb(0, 0, 0)" fill-opacity="1.000000" />
<path d="M 160.892578 98.797852 L 160.892578 96.950195 L 167.729980 96.950195 L 167.729980 98.797852 Z " fill="rgb(0, 0, 0)" fill-opacity="1.000000" />
<path d="M 167.892578 98.797852 L 167.892578 96.950195 L 174.729980 96.950195 L 174.729980 98.797852 Z " fill="rgb(0, 0, 0)" fill-opacity="1.000000" />
<path d="M 174.892578 98.797852 L 174.892578 96.950195 L 181.729980 96.950195 L 181.729980 98.797852 Z " fill="rgb(0, 0, 0)" fill-opacity="1.000000" />
<path d="M 181.892578 98.797852 L 181.892578 96.950195 L 188.729980 96.950195 L 188.729980 98.797852 Z " fill="rgb(0, 0, 0)" fill-opacity="1.000000" />
<path d="M 188.892578 98.797852 L 188.892578 96.950195 L 195.729980 96.950195 L 195.729980 98.797852 Z " fill="rgb(0, 0, 0)" fill-opacity="1.000000" />
<path d="M 195.892578 98.797852 L 195.892578 96.950195 L 202.729980 96.950195 L 202.729980 98.797852 Z " fill="rgb(0, 0, 0)" fill-opacity="1.000000" />
<path d="M 202.892578 98.797852 L 202.892578 96.950195 L 209.729980 96.950195 L 209.729980 98.797852 Z " fill="rgb(0, 0, 0)" fill-opacity="1.000000" />
<path d="M 209.892578 98.797852 L 209.892578 96.950195 L 216.729980 96.950195 L 216.729980 98.797852 Z " fill="rgb(0, 0, 0)" fill-opacity="1.000000" />
<path d="M 216.892578 98.797852 L 216.892578 96.950195 L 223.729980 96.950195 L 223.729980 98.797852 Z " fill="rgb(0, 0, 0)" fill-opacity="1.000000" />
<path d="M 223.892578 98.797852 L 223.892578 96.950195 L 230.729980 96.950195 L 230.729980 98.797852 Z " fill="rgb(0, 0, 0)" fill-opacity="1.000000" />
<path d="M 230.892578 98.797852 L 230.892578 96.950195 L 237.729980 96.950195 L 237.729980 98.797852 Z " fill="rgb(0, 0, 0)" fill-opacity="1.000000" />
<path d="M 237.892578 98.797852 L 237.892578 96.950195 L 244.729980 96.950195 L 244.729980 98.797852 Z " fill="rgb(0, 0, 0)" fill-opacity="1.000000" />
<path d="M 244.892578 98.797852 L 244.892578 96.950195 L 251.729980 96.950195 L 251.729980 98.797852 Z " fill="rgb(0, 0, 0)" fill-opacity="1.000000" />
<path d="M 251.892578 98.797852 L 251.892578 96.950195 L 258.729980 96.950195 L 258.729980 98.797852 Z " fill="rgb(0, 0, 0)" fill-opacity="1.000000" />
<path d="M 258.892578 98.797852 L 258.892578 96.950195 L 265.729980 96.950195 L 265.729980 98.797852 Z " fill="rgb(0, 0, 0)" fill-opacity="1.000000" />
<path d="M 265.892578 98.797852 L 265.892578 96.950195 L 272.729980 96.950195 L 272.729980 98.797852 Z " fill="rgb(0, 0, 0)" fill-opacity="1.000000" />
<path d="M 272.892578 98.797852 L 272.892578 96.950195 L 279.729980 96.950195 L 279.729980 98.797852 Z " fill="rgb(0, 0, 0)" fill-opacity="1.000000" />
<path d="M 279.892578 98.797852 L 279.892578 96.950195 L 286.729980 96.950195 L 286.729980 98.797852 Z " fill="rgb(0, 0, 0)" fill-opacity="1.000000" />
<path d="M 286.892578 98.797852 L 286.892578 96.950195 L 293.729980 96.950195 L 293.729980 98.797852 Z " fill="rgb(0, 0, 0)" fill-opacity="1.000000" />
<path d="M 293.892578 98.797852 L 293.892578 96.950195 L 300.729980 96.950195 L 300.729980 98.797852 Z " fill="rgb(0, 0, 0)" fill-opacity="1.000000" />
<path d="M 300.892578 98.797852 L 300.892578 96.950195 L 307.729980 96.950195 L 307.729980 98.797852 Z " fill="rgb(0, 0, 0)" fill-opacity="1.000000" />
<path d="M 307.892578 98.797852 L 307.892578 96.950195 L 314.729980 96.950195 L 314.729980 98.797852 Z " fill="rgb(0, 0, 0)" fill-opacity="1.000000" />
<path d="M 314.892578 98.797852 L 314.892578 96.950195 L 321.729980 96.950195 L 321.729980 98.797852 Z " fill="rgb(0, 0, 0)" fill-opacity="1.000000" />
<path d="M 321.892578 98.797852 L 321.892578 96.950195 L 328.729980 96.950195 L 328.729980 98.797852 Z " fill="rgb(0, 0, 0)" fill-opacity="1.000000" />
<path d="M 328.892578 98.797852 L 328.892578 96.950195 L 335.729980 96.950195 L 335.729980 98.797852 Z " fill="rgb(0, 0, 0)" fill-opacity="1.000000" />
<path d="M 335.892578 98.797852 L 335.892578 96.950195 L 342.729980 96.950195 L 342.729980 98.797852 Z " fill="rgb(0, 0, 0)" fill-opacity="1.000000" />
<path d="M 342.892578 98.797852 L 342.892578 96.950195 L 349.729980 96.950195 L 349.729980 98.797852 Z " fill="rgb(0, 0, 0)" fill-opacity="1.000000" />
<path d="M 349.892578 98.797852 L 349.892578 96.950195 L 356.729980 96.950195 L 356.729980 98.797852 Z " fill="rgb(0, 0, 0)" fill-opacity="1.000000" />
<path d="M 356.892578 98.797852 L 356.892578 96.950195 L 363.729980 96.950195 L 363.729980 98.797852 Z " fill="rgb(0, 0, 0)" fill-opacity="1.000000" />
<path d="M 363.892578 98.797852 L 363.892578 96.950195 L 370.729980 96.950195 L 370.729980 98.797852 Z " fill="rgb(0, 0, 0)" fill-opacity="1.000000" />
<path d="M 370.892578 98.797852 L 370.892578 96.950195 L 377.729980 96.950195 L 377.729980 98.797852 Z " fill="rgb(0, 0, 0)" fill-opacity="1.000000" />
<path d="M 377.892578 98.797852 L 377.892578 96.950195 L 384.729980 96.950195 L 384.729980 98.797852 Z " fill="rgb(0, 0, 0)" fill-opacity="1.000000" />
<path d="M 384.892578 98.797852 L 384.892578 96.950195 L 387.449219 96.950195 L 387.449219 90.300781 L 389.167969 90.300781 L 389.167969 98.797852 Z " fill="rgb(0, 0, 0)" fill-opacity="1.000000" />
<path d="M 6.892578 85.797852 L 6.892578 83.950195 L 13.729980 83.950195 L 13.729980 85.797852 Z " fill="rgb(0, 0, 0)" fill-opacity="1.000000" />
<path d="M 13.892578 85.797852 L 13.892578 83.950195 L 20.729980 83.950195 L 20.729980 85.797852 Z " fill="rgb(0, 0, 0)" fill-opacity="1.000000" />
<path d="M 20.892578 85.797852 L 20.892578 83.950195 L 27.729980 83.950195 L 27.729980 85.797852 Z " fill="rgb(0, 0, 0)" fill-opacity="1.000000" />
<path d="M 27.892578 85.797852 L 27.892578 83.950195 L 34.729980 83.950195 L 34.729980 85.797852 Z " fill="rgb(0, 0, 0)" fill-opacity="1.000000" />
<path d="M 34.892578 85.797852 L 34.892578 83.950195 L 41.729980 83.950195 L 41.729980 85.797852 Z " fill="rgb(0, 0, 0)" fill-opacity="1.000000" />
<path d="M 41.892578 85.797852 L 41.892578 83.950195 L 48.729980 83.950195 L 48.729980 85.797852 Z " fill="rgb(0, 0, 0)" fill-opacity="1.000000" />
<path d="M 48.892578 85.797852 L 48.892578 83.950195 L 55.729980 83.950195 L 55.729980 85.797852 Z " fill="rgb(0, 0, 0)" fill-opacity="1.000000" />
<path d="M 55.892578 85.797852 L 55.892578 83.950195 L 62.729980 83.950195 L 62.729980 85.797852 Z " fill="rgb(0, 0, 0)" fill-opacity="1.000000" />
<path d="M 62.892578 85.797852 L 62.892578 83.950195 L 69.729980 83.950195 L 69.729980 85.797852 Z " fill="rgb(0, 0, 0)" fill-opacity="1.000000" />
<path d="M 69.892578 85.797852 L 69.892578 83.950195 L 76.729980 83.950195 L 76.729980 85.797852 Z " fill="rgb(0, 0, 0)" fill-opacity="1.000000" />
<path d="M 76.892578 85.797852 L 76.892578 83.950195 L 83.729980 83.950195 L 83.729980 85.797852 Z " fill="rgb(0, 0, 0)" fill-opacity="1.000000" />
<path d="M 83.892578 85.797852 L 83.892578 83.950195 L 90.729980 83.950195 L 90.729980 85.797852 Z " fill="rgb(0, 0, 0)" fill-opacity="1.000000" />
<path d="M 90.892578 85.797852 L 90.892578 83.950195 L 97.729980 83.950195 L 97.729980 85.797852 Z " fill="rgb(0, 0, 0)" fill-opacity="1.000000" />
<path d="M 97.892578 85.797852 L 97.892578 83.950195 L 104.729980 83.950195 L 104.729980 85.797852 Z " fill="rgb(0, 0, 0)" fill-opacity="1.000000" />
<path d="M 104.892578 85.797852 L 104.892578 83.950195 L 111.729980 83.950195 L 111.729980 85.797852 Z " fill="rgb(0, 0, 0)" fill-opacity="1.000000" />
<path d="M 111.892578 85.797852 L 111.892578 83.950195 L 118.729980 83.950195 L 118.729980 85.797852 Z " fill="rgb(0, 0, 0)" fill-opacity="1.000000" />
<path d="M 118.892578 85.797852 L 118.892578 83.950195 L 125.729980 83.950195 L 125.729980 85.797852 Z " fill="rgb(0, 0, 0)" fill-opacity="1.000000" />
<path d="M 125.892578 85.797852 L 125.892578 83.950195 L 132.729980 83.950195 L 132.729980 85.797852 Z " fill="rgb(0, 0, 0)" fill-opacity="1.000000" />
<path d="M 132.892578 85.797852 L 132.892578 83.950195 L 139.729980 83.950195 L 139.729980 85.797852 Z " fill="rgb(0, 0, 0)" fill-opacity="1.000000" />
<path d="M 139.892578 85.797852 L 139.892578 83.950195 L 146.729980 83.950195 L 146.729980 85.797852 Z " fill="rgb(0, 0, 0)" fill-opacity="1.000000" />
<path d="M 146.892578 85.797852 L 146.892578 83.950195 L 153.729980 83.950195 L 153.729980 85.797852 Z " fill="rgb(0, 0, 0)" fill-opacity="1.000000" />
<path d="M 153.892578 85.797852 L 153.892578 83.950195 L 160.729980 83.950195 L 160.729980 85.797852 Z " fill="rgb(0, 0, 0)" fill-opacity="1.000000" />
<path d="M 160.892578 85.797852 L 160.892578 83.950195 L 167.729980 83.950195 L 167.729980 85.797852 Z " fill="rgb(0, 0, 0)" fill-opacity="1.000000" />
<path d="M 167.892578 85.797852 L 167.892578 83.950195 L 174.729980 83.950195 L 174.729980 85.797852 Z " fill="rgb(0, 0, 0)" fill-opacity="1.000000" />
<path d="M 174.892578 85.797852 L 174.892578 83.950195 L 181.729980 83.950195 L 181.729980 85.797852 Z " fill="rgb(0, 0, 0)" fill-opacity="1.000000" />
<path d="M 181.892578 85.797852 L 181.892578 83.950195 L 188.729980 83.950195 L 188.729980 85.797852 Z " fill="rgb(0, 0, 0)" fill-opacity="1.000000" />
<path d="M 188.892578 85.797852 L 188.892578 83.950195 L 195.729980 83.950195 L 195.729980 85.797852 Z " fill="rgb(0, 0, 0)" fill-opacity="1.000000" />
<path d="M 195.892578 85.797852 L 195.892578 83.950195 L 202.729980 83.950195 L 202.729980 85.797852 Z " fill="rgb(0, 0, 0)" fill-opacity="1.000000" />
<path d="M 202.892578 85.797852 L 202.892578 83.950195 L 209.729980 83.950195 L 209.729980 85.797852 Z " fill="rgb(0, 0, 0)" fill-opacity="1.000000" />
<path d="M 209.892578 85.797852 L 209.892578 83.950195 L 216.729980 83.950195 L 216.729980 85.797852 Z " fill="rgb(0, 0, 0)" fill-opacity="1.000000" />
<path d="M 216.892578 85.797852 L 216.892578 83.950195 L 223.729980 83.950195 L 223.729980 85.797852 Z " fill="rgb(0, 0, 0)" fill-opacity="1.000000" />
<path d="M 223.892578 85.797852 L 223.892578 83.950195 L 230.729980 83.950195 L 230.729980 85.797852 Z " fill="rgb(0, 0, 0)" fill-opacity="1.000000" />
<path d="M 230.892578 85.797852 L 230.892578 83.950195 L 237.729980 83.950195 L 237.729980 85.797852 Z " fill="rgb(0, 0, 0)" fill-opacity="1.000000" />
<path d="M 237.892578 85.797852 L 237.892578 83.950195 L 244.729980 83.950195 L 244.729980 85.797852 Z " fill="rgb(0, 0, 0)" fill-opacity="1.000000" />
<path d="M 244.892578 85.797852 L 244.892578 83.950195 L 251.729980 83.950195 L 251.729980 85.797852 Z " fill="rgb(0, 0, 0)" fill-opacity="1.000000" />
<path d="M 251.892578 85.797852 L 251.892578 83.950195 L 258.729980 83.950195 L 258.729980 85.797852 Z " fill="rgb(0, 0, 0)" fill-opacity="1.000000" />
<path d="M 258.892578 85.797852 L 258.892578 83.950195 L 265.729980 83.950195 L 265.729980 85.797852 Z " fill="rgb(0, 0, 0)" fill-opacity="1.000000" />
<path d="M 265.892578 85.797852 L 265.892578 83.950195 L 272.729980 83.950195 L 272.729980 85.797852 Z " fill="rgb(0, 0, 0)" fill-opacity="1.000000" />
<path d="M 272.892578 85.797852 L 272.892578 83.950195 L 279.729980 83.950195 L 279.729980 85.797852 Z " fill="rgb(0, 0, 0)" fill-opacity="1.000000" />
<path d="M 279.892578 85.797852 L 279.892578 83.950195 L 286.729980 83.950195 L 286.729980 85.797852 Z " fill="rgb(0, 0, 0)" fill-opacity="1.000000" />
<path d="M 286.892578 85.797852 L 286.892578 83.950195 L 293.729980 83.950195 L 293.729980 85.797852 Z " fill="rgb(0, 0, 0)" fill-opacity="1.000000" />
<path d="M 293.892578 85.797852 L 293.892578 83.950195 L 300.729980 83.950195 L 300.729980 85.797852 Z " fill="rgb(0, 0, 0)" fill-opacity="1.000000" />
<path d="M 300.892578 85.797852 L 300.892578 83.950195 L 307.729980 83.950195 L 307.729980 85.797852 Z " fill="rgb(0, 0, 0)" fill-opacity="1.000000" />
<path d="M 307.892578 85.797852 L 307.892578 83.950195 L 314.729980 83.950195 L 314.729980 85.797852 Z " fill="rgb(0, 0, 0)" fill-opacity="1.000000" />
<path d="M 314.892578 85.797852 L 314.892578 83.950195 L 321.729980 83.950195 L 321.729980 85.797852 Z " fill="rgb(0, 0, 0)" fill-opacity="1.000000" />
<path d="M 321.892578 85.797852 L 321.892578 83.950195 L 328.729980 83.950195 L 328.729980 85.797852 Z " fill="rgb(0, 0, 0)" fill-opacity="1.000000" />
<path d="M 328.892578 85.797852 L 328.892578 83.950195 L 335.729980 83.950195 L 335.729980 85.797852 Z " fill="rgb(0, 0, 0)" fill-opacity="1.000000" />
<path d="M 335.892578 85.797852 L 335.892578 83.950195 L 342.729980 83.950195 L 342.729980 85.797852 Z " fill="rgb(0, 0, 0)" fill-opacity="1.000000" />
<path d="M 342.892578 85.797852 L 342.892578 83.950195 L 349.729980 83.950195 L 349.729980 85.797852 Z " fill="rgb(0, 0, 0)" fill-opacity="1.000000" />
<path d="M 349.892578 85.797852 L 349.892578 83.950195 L 356.729980 83.950195 L 356.729980 85.797852 Z " fill="rgb(0, 0, 0)" fill-opacity="1.000000" />
<path d="M 356.892578 85.797852 L 356.892578 83.950195 L 363.729980 83.950195 L 363.729980 85.797852 Z " fill="rgb(0, 0, 0)" fill-opacity="1.000000" />
<path d="M 363.892578 85.797852 L 363.892578 83.950195 L 370.729980 83.950195 L 370.729980 85.797852 Z " fill="rgb(0, 0, 0)" fill-opacity="1.000000" />
<path d="M 370.892578 85.797852 L 370.892578 83.950195 L 377.729980 83.950195 L 377.729980 85.797852 Z " fill="rgb(0, 0, 0)" fill-opacity="1.000000" />
<path d="M 377.892578 85.797852 L 377.892578 83.950195 L 384.729980 83.950195 L 384.729980 85.797852 Z " fill="rgb(0, 0, 0)" fill-opacity="1.000000" />
<path d="M 387.449219 91.319336 L 387.449219 85.797852 L 384.892578 85.797852 L 384.892578 83.950195 L 389.167969 83.950195 L 389.167969 91.319336 Z " fill="rgb(0, 0, 0)" fill-opacity="1.000000" />
<path d="M 17.297852 67.276367 L 17.297852 68.984375 L 19.542969 68.984375 L 19.542969 69.752441 L 17.297852 69.752441 L 17.297852 73.018066 Q 17.297852 73.684082 17.550293 73.947266 Q 17.802734 74.210449 18.431152 74.210449 L 19.542969 74.210449 L 19.542969 75.000000 L 18.334473 75.000000 Q 17.222656 75.000000 16.766113 74.554199 Q 16.309570 74.108398 16.309570 73.018066 L 16.309570 69.752441 L 14.703613 69.752441 L 14.703613 68.984375 L 16.309570 68.984375 L 16.309570 67.276367 Z " fill="rgb(0, 0, 0)" fill-opacity="1.000000" />
<path d="M 27.004883 68.984375 L 24.851074 71.863281 L 27.214355 75.000000 L 26.070312 75.000000 L 24.308594 72.588379 L 22.552246 75.000000 L 21.408203 75.000000 L 23.771484 71.863281 L 21.617676 68.984375 L 22.713379 68.984375 L 24.308594 71.159668 L 25.893066 68.984375 Z " fill="rgb(0, 0, 0)" fill-opacity="1.000000" />
<path d="M 283.308594 73.898926 L 285.483887 69.559082 L 281.138672 69.559082 Z M 283.308594 75.418945 L 280.032227 68.866211 L 286.590332 68.866211 Z " fill="rgb(0, 0, 0)" fill-opacity="1.000000" />
<path d="M 388.308594 73.898926 L 390.483887 69.559082 L 386.138672 69.559082 Z M 388.308594 75.418945 L 385.032227 68.866211 L 391.590332 68.866211 Z " fill="rgb(0, 0, 0)" fill-opacity="1.000000" />
<path d="M 247.878906 13.319336 L 247.878906 6.412109 L 251.729980 6.412109 L 251.729980 7.335938 L 248.738281 7.335938 L 248.738281 13.319336 Z " fill="rgb(0, 0, 0)" fill-opacity="1.000000" />
<path d="M 247.878906 26.319336 L 247.878906 12.300781 L 248.738281 12.300781 L 248.738281 26.319336 Z " fill="rgb(0, 0, 0)" fill-opacity="1.000000" />
<path d="M 247.878906 39.319336 L 247.878906 25.300781 L 248.738281 25.300781 L 248.738281 39.319336 Z " fill="rgb(0, 0, 0)" fill-opacity="1.000000" />
<path d="M 247.878906 46.335938 L 247.878906 38.300781 L 248.738281 38.300781 L 248.738281 45.412109 L 251.729980 45.412109 L 251.729980 46.335938 Z " fill="rgb(0, 0, 0)" fill-opacity="1.000000" />
<path d="M 282.878906 65.319336 L 282.878906 51.300781 L 283.738281 51.300781 L 283.738281 65.319336 Z " fill="rgb(0, 0, 0)" fill-opacity="1.000000" />
<path d="M 387.878906 65.319336 L 387.878906 51.300781 L 388.738281 51.300781 L 388.738281 65.319336 Z " fill="rgb(0, 0, 0)" fill-opacity="1.000000" />
<path d="M 251.892578 46.335938 L 251.892578 45.412109 L 258.729980 45.412109 L 258.729980 46.335938 Z " fill="rgb(0, 0, 0)" fill-opacity="1.000000" />
<path d="M 258.892578 46.335938 L 258.892578 45.412109 L 265.729980 45.412109 L 265.729980 46.335938 Z " fill="rgb(0, 0, 0)" fill-opacity="1.000000" />
<path d="M 265.892578 46.335938 L 265.892578 45.412109 L 272.729980 45.412109 L 272.729980 46.335938 Z " fill="rgb(0, 0, 0)" fill-opacity="1.000000" />
<path d="M 272.892578 46.335938 L 272.892578 45.412109 L 279.729980 45.412109 L 279.729980 46.335938 Z " fill="rgb(0, 0, 0)" fill-opacity="1.000000" />
<path d="M 282.878906 52.319336 L 282.878906 46.335938 L 279.892578 46.335938 L 279.892578 45.412109 L 286.729980 45.412109 L 286.729980 46.335938 L 283.738281 46.335938 L 283.738281 52.319336 Z " fill="rgb(0, 0, 0)" fill-opacity="1.000000" />
<path d="M 286.892578 46.335938 L 286.892578 45.412109 L 293.729980 45.412109 L 293.729980 46.335938 Z " fill="rgb(0, 0, 0)" fill-opacity="1.000000" />
<path d="M 293.892578 46.335938 L 293.892578 45.412109 L 300.729980 45.412109 L 300.729980 46.335938 Z " fill="rgb(0, 0, 0)" fill-opacity="1.000000" />
<path d="M 300.892578 46.335938 L 300.892578 45.412109 L 307.729980 45.412109 L 307.729980 46.335938 Z " fill="rgb(0, 0, 0)" fill-opacity="1.000000" />
<path d="M 307.892578 46.335938 L 307.892578 45.412109 L 314.729980 45.412109 L 314.729980 46.335938 Z " fill="rgb(0, 0, 0)" fill-opacity="1.000000" />
<path d="M 314.892578 46.335938 L 314.892578 45.412109 L 317.878906 45.412109 L 317.878906 38.300781 L 318.738281 38.300781 L 318.738281 46.335938 Z " fill="rgb(0, 0, 0)" fill-opacity="1.000000" />
<path d="M 345.878906 46.335938 L 345.878906 38.300781 L 346.738281 38.300781 L 346.738281 45.412109 L 349.729980 45.412109 L 349.729980 46.335938 Z " fill="rgb(0, 0, 0)" fill-opacity="1.000000" />
<path d="M 349.892578 46.335938 L 349.892578 45.412109 L 356.729980 45.412109 L 356.729980 46.335938 Z " fill="rgb(0, 0, 0)" fill-opacity="1.000000" />
<path d="M 356.892578 46.335938 L 356.892578 45.412109 L 363.729980 45.412109 L 363.729980 46.335938 Z " fill="rgb(0, 0, 0)" fill-opacity="1.000000" />
<path d="M 363.892578 46.335938 L 363.892578 45.412109 L 370.729980 45.412109 L 370.729980 46.335938 Z " fill="rgb(0, 0, 0)" fill-opacity="1.000000" />
<path d="M 370.892578 46.335938 L 370.892578 45.412109 L 377.729980 45.412109 L 377.729980 46.335938 Z " fill="rgb(0, 0, 0)" fill-opacity="1.000000" />
<path d="M 377.892578 46.335938 L 377.892578 45.412109 L 384.729980 45.412109 L 384.729980 46.335938 Z " fill="rgb(0, 0, 0)" fill-opacity="1.000000" />
<path d="M 387.878906 52.319336 L 387.878906 46.335938 L 384.892578 46.335938 L 384.892578 45.412109 L 391.729980 45.412109 L 391.729980 46.335938 L 388.738281 46.335938 L 388.738281 52.319336 Z " fill="rgb(0, 0, 0)" fill-opacity="1.000000" />
<path d="M 391.892578 46.335938 L 391.892578 45.412109 L 398.729980 45.412109 L 398.729980 46.335938 Z " fill="rgb(0, 0, 0)" fill-opacity="1.000000" />
<path d="M 398.892578 46.335938 L 398.892578 45.412109 L 405.729980 45.412109 L 405.729980 46.335938 Z " fill="rgb(0, 0, 0)" fill-opacity="1.000000" />
<path d="M 405.892578 46.335938 L 405.892578 45.412109 L 412.729980 45.412109 L 412.729980 46.335938 Z " fill="rgb(0, 0, 0)" fill-opacity="1.000000" />
<path d="M 412.892578 46.335938 L 412.892578 45.412109 L 419.729980 45.412109 L 419.729980 46.335938 Z " fill="rgb(0, 0, 0)" fill-opacity="1.000000" />
<path d="M 419.892578 46.335938 L 419.892578 45.412109 L 426.729980 45.412109 L 426.729980 46.335938 Z " fill="rgb(0, 0, 0)" fill-opacity="1.000000" />
<path d="M 426.892578 46.335938 L 426.892578 45.412109 L 429.878906 45.412109 L 429.878906 38.300781 L 430.738281 38.300781 L 430.738281 46.335938 Z " fill="rgb(0, 0, 0)" fill-opacity="1.000000" />
<path d="M 265.015625 32.498047 L 265.015625 32.981445 L 260.734863 32.981445 L 260.734863 33.013672 Q 260.691895 34.243652 261.204834 34.780762 Q 261.717773 35.317871 262.652344 35.317871 Q 263.125000 35.317871 263.640625 35.167480 Q 264.156250 35.017090 264.741699 34.710938 L 264.741699 35.693848 Q 264.177734 35.924805 263.654053 36.040283 Q 263.130371 36.155762 262.641602 36.155762 Q 261.239746 36.155762 260.450195 35.315186 Q 259.660645 34.474609 259.660645 32.997559 Q 259.660645 31.558105 260.434082 30.698730 Q 261.207520 29.839355 262.496582 29.839355 Q 263.645996 29.839355 264.309326 30.618164 Q 264.972656 31.396973 265.015625 32.498047 Z M 264.027344 32.208008 Q 263.962891 31.584961 263.573486 31.131104 Q 263.184082 30.677246 262.453613 30.677246 Q 261.739258 30.677246 261.277344 31.149902 Q 260.815430 31.622559 260.772461 32.213379 Z " fill="rgb(0, 0, 0)" fill-opacity="1.000000" />
<path d="M 269.630859 30.596680 Q 269.813477 30.209961 270.095459 30.024658 Q 270.377441 29.839355 270.774902 29.839355 Q 271.500000 29.839355 271.798096 30.400635 Q 272.096191 30.961914 272.096191 32.514160 L 272.096191 36.000000 L 271.193848 36.000000 L 271.193848 32.557129 Q 271.193848 31.284180 271.051514 30.975342 Q 270.909180 30.666504 270.533203 30.666504 Q 270.103516 30.666504 269.945068 30.996826 Q 269.786621 31.327148 269.786621 32.557129 L 269.786621 36.000000 L 268.884277 36.000000 L 268.884277 32.557129 Q 268.884277 31.268066 268.731201 30.967285 Q 268.578125 30.666504 268.180664 30.666504 Q 267.788574 30.666504 267.635498 30.996826 Q 267.482422 31.327148 267.482422 32.557129 L 267.482422 36.000000 L 266.585449 36.000000 L 266.585449 29.984375 L 267.482422 29.984375 L 267.482422 30.500000 Q 267.659668 30.177734 267.925537 30.008545 Q 268.191406 29.839355 268.529785 29.839355 Q 268.937988 29.839355 269.209229 30.027344 Q 269.480469 30.215332 269.630859 30.596680 Z " fill="rgb(0, 0, 0)" fill-opacity="1.000000" />
<path d="M 274.697266 30.005859 L 277.227051 30.005859 L 277.227051 35.231934 L 279.187500 35.231934 L 279.187500 36.000000 L 274.278320 36.000000 L 274.278320 35.231934 L 276.238770 35.231934 L 276.238770 30.773926 L 274.697266 30.773926 Z M 276.238770 27.669434 L 277.227051 27.669434 L 277.227051 28.915527 L 276.238770 28.915527 Z " fill="rgb(0, 0, 0)" fill-opacity="1.000000" />
<path d="M 283.297852 28.276367 L 283.297852 29.984375 L 285.542969 29.984375 L 285.542969 30.752441 L 283.297852 30.752441 L 283.297852 34.018066 Q 283.297852 34.684082 283.550293 34.947266 Q 283.802734 35.210449 284.431152 35.210449 L 285.542969 35.210449 L 285.542969 36.000000 L 284.334473 36.000000 Q 283.222656 36.000000 282.766113 35.554199 Q 282.309570 35.108398 282.309570 34.018066 L 282.309570 30.752441 L 280.703613 30.752441 L 280.703613 29.984375 L 282.309570 29.984375 L 282.309570 28.276367 Z " fill="rgb(0, 0, 0)" fill-opacity="1.000000" />
<path d="M 290.297852 28.276367 L 290.297852 29.984375 L 292.542969 29.984375 L 292.542969 30.752441 L 290.297852 30.752441 L 290.297852 34.018066 Q 290.297852 34.684082 290.550293 34.947266 Q 290.802734 35.210449 291.431152 35.210449 L 292.542969 35.210449 L 292.542969 36.000000 L 291.334473 36.000000 Q 290.222656 36.000000 289.766113 35.554199 Q 289.309570 35.108398 289.309570 34.018066 L 289.309570 30.752441 L 287.703613 30.752441 L 287.703613 29.984375 L 289.309570 29.984375 L 289.309570 28.276367 Z " fill="rgb(0, 0, 0)" fill-opacity="1.000000" />
<path d="M 300.015625 32.498047 L 300.015625 32.981445 L 295.734863 32.981445 L 295.734863 33.013672 Q 295.691895 34.243652 296.204834 34.780762 Q 296.717773 35.317871 297.652344 35.317871 Q 298.125000 35.317871 298.640625 35.167480 Q 299.156250 35.017090 299.741699 34.710938 L 299.741699 35.693848 Q 299.177734 35.924805 298.654053 36.040283 Q 298.130371 36.155762 297.641602 36.155762 Q 296.239746 36.155762 295.450195 35.315186 Q 294.660645 34.474609 294.660645 32.997559 Q 294.660645 31.558105 295.434082 30.698730 Q 296.207520 29.839355 297.496582 29.839355 Q 298.645996 29.839355 299.309326 30.618164 Q 299.972656 31.396973 300.015625 32.498047 Z M 299.027344 32.208008 Q 298.962891 31.584961 298.573486 31.131104 Q 298.184082 30.677246 297.453613 30.677246 Q 296.739258 30.677246 296.277344 31.149902 Q 295.815430 31.622559 295.772461 32.213379 Z " fill="rgb(0, 0, 0)" fill-opacity="1.000000" />
<path d="M 305.608398 30.752441 L 305.608398 27.642578 L 306.596680 27.642578 L 306.596680 36.000000 L 305.608398 36.000000 L 305.608398 35.242676 Q 305.361328 35.688477 304.950439 35.922119 Q 304.539551 36.155762 304.002441 36.155762 Q 302.912109 36.155762 302.286377 35.309814 Q 301.660645 34.463867 301.660645 32.976074 Q 301.660645 31.509766 302.289062 30.674561 Q 302.917480 29.839355 304.002441 29.839355 Q 304.544922 29.839355 304.958496 30.072998 Q 305.372070 30.306641 305.608398 30.752441 Z M 302.702637 32.997559 Q 302.702637 34.146973 303.067871 34.732422 Q 303.433105 35.317871 304.147461 35.317871 Q 304.861816 35.317871 305.235107 34.727051 Q 305.608398 34.136230 305.608398 32.997559 Q 305.608398 31.853516 305.235107 31.265381 Q 304.861816 30.677246 304.147461 30.677246 Q 303.433105 30.677246 303.067871 31.262695 Q 302.702637 31.848145 302.702637 32.997559 Z " fill="rgb(0, 0, 0)" fill-opacity="1.000000" />
<path d="M 317.878906 39.319336 L 317.878906 25.300781 L 318.738281 25.300781 L 318.738281 39.319336 Z " fill="rgb(0, 0, 0)" fill-opacity="1.000000" />
<path d="M 345.878906 39.319336 L 345.878906 25.300781 L 346.738281 25.300781 L 346.738281 39.319336 Z " fill="rgb(0, 0, 0)" fill-opacity="1.000000" />
<path d="M 356.203613 31.225098 Q 355.886719 30.978027 355.559082 30.865234 Q 355.231445 30.752441 354.839355 30.752441 Q 353.915527 30.752441 353.426758 31.332520 Q 352.937988 31.912598 352.937988 33.008301 L 352.937988 36.000000 L 351.944336 36.000000 L 351.944336 29.984375 L 352.937988 29.984375 L 352.937988 31.160645 Q 353.185059 30.521484 353.697998 30.180420 Q 354.210938 29.839355 354.914551 29.839355 Q 355.279785 29.839355 355.596680 29.930664 Q 355.913574 30.021973 356.203613 30.215332 Z " fill="rgb(0, 0, 0)" fill-opacity="1.000000" />
<path d="M 360.308594 30.677246 Q 359.556641 30.677246 359.169922 31.262695 Q 358.783203 31.848145 358.783203 32.997559 Q 358.783203 34.141602 359.169922 34.729736 Q 359.556641 35.317871 360.308594 35.317871 Q 361.065918 35.317871 361.452637 34.729736 Q 361.839355 34.141602 361.839355 32.997559 Q 361.839355 31.848145 361.452637 31.262695 Q 361.065918 30.677246 360.308594 30.677246 Z M 360.308594 29.839355 Q 361.560059 29.839355 362.223389 30.650391 Q 362.886719 31.461426 362.886719 32.997559 Q 362.886719 34.539062 362.226074 35.347412 Q 361.565430 36.155762 360.308594 36.155762 Q 359.057129 36.155762 358.396484 35.347412 Q 357.735840 34.539062 357.735840 32.997559 Q 357.735840 31.461426 358.396484 30.650391 Q 359.057129 29.839355 360.308594 29.839355 Z " fill="rgb(0, 0, 0)" fill-opacity="1.000000" />
<path d="M 367.861816 33.824707 Q 367.861816 34.490723 368.106201 34.829102 Q 368.350586 35.167480 368.828613 35.167480 L 369.983398 35.167480 L 369.983398 36.000000 L 368.731934 36.000000 Q 367.845703 36.000000 367.359619 35.433350 Q 366.873535 34.866699 366.873535 33.824707 L 366.873535 28.383789 L 365.289062 28.383789 L 365.289062 27.610352 L 367.861816 27.610352 Z " fill="rgb(0, 0, 0)" fill-opacity="1.000000" />
<path d="M 374.861816 33.824707 Q 374.861816 34.490723 375.106201 34.829102 Q 375.350586 35.167480 375.828613 35.167480 L 376.983398 35.167480 L 376.983398 36.000000 L 375.731934 36.000000 Q 374.845703 36.000000 374.359619 35.433350 Q 373.873535 34.866699 373.873535 33.824707 L 373.873535 28.383789 L 372.289062 28.383789 L 372.289062 27.610352 L 374.861816 27.610352 Z " fill="rgb(0, 0, 0)" fill-opacity="1.000000" />
<path d="M 383.226074 30.193848 L 383.226074 31.160645 Q 382.801758 30.913574 382.372070 30.790039 Q 381.942383 30.666504 381.496582 30.666504 Q 380.825195 30.666504 380.494873 30.884033 Q 380.164551 31.101562 380.164551 31.547363 Q 380.164551 31.950195 380.411621 32.148926 Q 380.658691 32.347656 381.641602 32.535645 L 382.039062 32.610840 Q 382.774902 32.750488 383.153564 33.169434 Q 383.532227 33.588379 383.532227 34.259766 Q 383.532227 35.151367 382.898438 35.653564 Q 382.264648 36.155762 381.136719 36.155762 Q 380.690918 36.155762 380.202148 36.061768 Q 379.713379 35.967773 379.144043 35.779785 L 379.144043 34.759277 Q 379.697266 35.043945 380.202148 35.186279 Q 380.707031 35.328613 381.158203 35.328613 Q 381.813477 35.328613 382.173340 35.062744 Q 382.533203 34.796875 382.533203 34.318848 Q 382.533203 33.631348 381.217285 33.368164 L 381.174316 33.357422 L 380.803711 33.282227 Q 379.949707 33.115723 379.557617 32.720947 Q 379.165527 32.326172 379.165527 31.644043 Q 379.165527 30.779297 379.750977 30.309326 Q 380.336426 29.839355 381.421387 29.839355 Q 381.904785 29.839355 382.350586 29.927979 Q 382.796387 30.016602 383.226074 30.193848 Z " fill="rgb(0, 0, 0)" fill-opacity="1.000000" />
<path d="M 396.930664 32.997559 Q 396.930664 31.848145 396.565430 31.262695 Q 396.200195 30.677246 395.485840 30.677246 Q 394.766113 30.677246 394.395508 31.265381 Q 394.024902 31.853516 394.024902 32.997559 Q 394.024902 34.136230 394.395508 34.727051 Q 394.766113 35.317871 395.485840 35.317871 Q 396.200195 35.317871 396.565430 34.732422 Q 396.930664 34.146973 396.930664 32.997559 Z M 394.024902 30.752441 Q 394.261230 30.312012 394.677490 30.075684 Q 395.093750 29.839355 395.641602 29.839355 Q 396.726562 29.839355 397.349609 30.674561 Q 397.972656 31.509766 397.972656 32.976074 Q 397.972656 34.463867 397.346924 35.309814 Q 396.721191 36.155762 395.630859 36.155762 Q 395.093750 36.155762 394.682861 35.922119 Q 394.271973 35.688477 394.024902 35.242676 L 394.024902 36.000000 L 393.036621 36.000000 L 393.036621 27.642578 L 394.024902 27.642578 Z " fill="rgb(0, 0, 0)" fill-opacity="1.000000" />
<path d="M 402.770508 32.976074 L 402.442871 32.976074 Q 401.578125 32.976074 401.140381 33.279541 Q 400.702637 33.583008 400.702637 34.184570 Q 400.702637 34.727051 401.030273 35.027832 Q 401.357910 35.328613 401.937988 35.328613 Q 402.754395 35.328613 403.221680 34.761963 Q 403.688965 34.195312 403.694336 33.196289 L 403.694336 32.976074 Z M 404.687988 32.567871 L 404.687988 36.000000 L 403.694336 36.000000 L 403.694336 35.108398 Q 403.377441 35.645508 402.896729 35.900635 Q 402.416016 36.155762 401.728516 36.155762 Q 400.810059 36.155762 400.262207 35.637451 Q 399.714355 35.119141 399.714355 34.249023 Q 399.714355 33.244629 400.388428 32.723633 Q 401.062500 32.202637 402.367676 32.202637 L 403.694336 32.202637 L 403.694336 32.046875 Q 403.688965 31.327148 403.329102 31.002197 Q 402.969238 30.677246 402.179688 30.677246 Q 401.674805 30.677246 401.159180 30.822266 Q 400.643555 30.967285 400.154785 31.246582 L 400.154785 30.258301 Q 400.702637 30.048828 401.204834 29.944092 Q 401.707031 29.839355 402.179688 29.839355 Q 402.926270 29.839355 403.455322 30.059570 Q 403.984375 30.279785 404.312012 30.720215 Q 404.516113 30.988770 404.602051 31.383545 Q 404.687988 31.778320 404.687988 32.567871 Z " fill="rgb(0, 0, 0)" fill-opacity="1.000000" />
<path d="M 411.698730 35.693848 Q 411.301270 35.924805 410.879639 36.040283 Q 410.458008 36.155762 410.017578 36.155762 Q 408.621094 36.155762 407.834229 35.317871 Q 407.047363 34.479980 407.047363 32.997559 Q 407.047363 31.515137 407.834229 30.677246 Q 408.621094 29.839355 410.017578 29.839355 Q 410.452637 29.839355 410.866211 29.952148 Q 411.279785 30.064941 411.698730 30.301270 L 411.698730 31.337891 Q 411.306641 30.988770 410.911865 30.833008 Q 410.517090 30.677246 410.017578 30.677246 Q 409.088379 30.677246 408.588867 31.278809 Q 408.089355 31.880371 408.089355 32.997559 Q 408.089355 34.109375 408.591553 34.713623 Q 409.093750 35.317871 410.017578 35.317871 Q 410.533203 35.317871 410.941406 35.159424 Q 411.349609 35.000977 411.698730 34.667969 Z " fill="rgb(0, 0, 0)" fill-opacity="1.000000" />
<path d="M 414.267578 27.642578 L 415.288086 27.642578 L 415.288086 32.481934 L 417.882324 29.984375 L 419.085449 29.984375 L 416.716797 32.250977 L 419.456055 36.000000 L 418.247559 36.000000 L 416.023926 32.895508 L 415.288086 33.588379 L 415.288086 36.000000 L 414.267578 36.000000 Z " fill="rgb(0, 0, 0)" fill-opacity="1.000000" />
<path d="M 429.878906 39.319336 L 429.878906 25.300781 L 430.738281 25.300781 L 430.738281 39.319336 Z " fill="rgb(0, 0, 0)" fill-opacity="1.000000" />
<path d="M 276.222656 23.107422 L 276.222656 17.752441 L 274.520020 17.752441 L 274.520020 16.984375 L 277.210938 16.984375 L 277.210938 23.107422 Q 277.210938 24.154785 276.730225 24.721436 Q 276.249512 25.288086 275.363281 25.288086 L 273.999023 25.288086 L 273.999023 24.450195 L 275.255859 24.450195 Q 275.739258 24.450195 275.980957 24.114502 Q 276.222656 23.778809 276.222656 23.107422 Z M 276.222656 14.642578 L 277.210938 14.642578 L 277.210938 15.894043 L 276.222656 15.894043 Z " fill="rgb(0, 0, 0)" fill-opacity="1.000000" />
<path d="M 283.308594 17.677246 Q 282.556641 17.677246 282.169922 18.262695 Q 281.783203 18.848145 281.783203 19.997559 Q 281.783203 21.141602 282.169922 21.729736 Q 282.556641 22.317871 283.308594 22.317871 Q 284.065918 22.317871 284.452637 21.729736 Q 284.839355 21.141602 284.839355 19.997559 Q 284.839355 18.848145 284.452637 18.262695 Q 284.065918 17.677246 283.308594 17.677246 Z M 283.308594 16.839355 Q 284.560059 16.839355 285.223389 17.650391 Q 285.886719 18.461426 285.886719 19.997559 Q 285.886719 21.539062 285.226074 22.347412 Q 284.565430 23.155762 283.308594 23.155762 Q 282.057129 23.155762 281.396484 22.347412 Q 280.735840 21.539062 280.735840 19.997559 Q 280.735840 18.461426 281.396484 17.650391 Q 282.057129 16.839355 283.308594 16.839355 Z " fill="rgb(0, 0, 0)" fill-opacity="1.000000" />
<path d="M 291.930664 19.997559 Q 291.930664 18.848145 291.565430 18.262695 Q 291.200195 17.677246 290.485840 17.677246 Q 289.766113 17.677246 289.395508 18.265381 Q 289.024902 18.853516 289.024902 19.997559 Q 289.024902 21.136230 289.395508 21.727051 Q 289.766113 22.317871 290.485840 22.317871 Q 291.200195 22.317871 291.565430 21.732422 Q 291.930664 21.146973 291.930664 19.997559 Z M 289.024902 17.752441 Q 289.261230 17.312012 289.677490 17.075684 Q 290.093750 16.839355 290.641602 16.839355 Q 291.726562 16.839355 292.349609 17.674561 Q 292.972656 18.509766 292.972656 19.976074 Q 292.972656 21.463867 292.346924 22.309814 Q 291.721191 23.155762 290.630859 23.155762 Q 290.093750 23.155762 289.682861 22.922119 Q 289.271973 22.688477 289.024902 22.242676 L 289.024902 23.000000 L 288.036621 23.000000 L 288.036621 14.642578 L 289.024902 14.642578 Z " fill="rgb(0, 0, 0)" fill-opacity="1.000000" />
<path d="M 317.878906 26.319336 L 317.878906 12.300781 L 318.738281 12.300781 L 318.738281 26.319336 Z " fill="rgb(0, 0, 0)" fill-opacity="1.000000" />
<path d="M 345.878906 26.319336 L 345.878906 12.300781 L 346.738281 12.300781 L 346.738281 26.319336 Z " fill="rgb(0, 0, 0)" fill-opacity="1.000000" />
<path d="M 353.297852 15.276367 L 353.297852 16.984375 L 355.542969 16.984375 L 355.542969 17.752441 L 353.297852 17.752441 L 353.297852 21.018066 Q 353.297852 21.684082 353.550293 21.947266 Q 353.802734 22.210449 354.431152 22.210449 L 355.542969 22.210449 L 355.542969 23.000000 L 354.334473 23.000000 Q 353.222656 23.000000 352.766113 22.554199 Q 352.309570 22.108398 352.309570 21.018066 L 352.309570 17.752441 L 350.703613 17.752441 L 350.703613 16.984375 L 352.309570 16.984375 L 352.309570 15.276367 Z " fill="rgb(0, 0, 0)" fill-opacity="1.000000" />
<path d="M 363.203613 18.225098 Q 362.886719 17.978027 362.559082 17.865234 Q 362.231445 17.752441 361.839355 17.752441 Q 360.915527 17.752441 360.426758 18.332520 Q 359.937988 18.912598 359.937988 20.008301 L 359.937988 23.000000 L 358.944336 23.000000 L 358.944336 16.984375 L 359.937988 16.984375 L 359.937988 18.160645 Q 360.185059 17.521484 360.697998 17.180420 Q 361.210938 16.839355 361.914551 16.839355 Q 362.279785 16.839355 362.596680 16.930664 Q 362.913574 17.021973 363.203613 17.215332 Z " fill="rgb(0, 0, 0)" fill-opacity="1.000000" />
<path d="M 367.770508 19.976074 L 367.442871 19.976074 Q 366.578125 19.976074 366.140381 20.279541 Q 365.702637 20.583008 365.702637 21.184570 Q 365.702637 21.727051 366.030273 22.027832 Q 366.357910 22.328613 366.937988 22.328613 Q 367.754395 22.328613 368.221680 21.761963 Q 368.688965 21.195312 368.694336 20.196289 L 368.694336 19.976074 Z M 369.687988 19.567871 L 369.687988 23.000000 L 368.694336 23.000000 L 368.694336 22.108398 Q 368.377441 22.645508 367.896729 22.900635 Q 367.416016 23.155762 366.728516 23.155762 Q 365.810059 23.155762 365.262207 22.637451 Q 364.714355 22.119141 364.714355 21.249023 Q 364.714355 20.244629 365.388428 19.723633 Q 366.062500 19.202637 367.367676 19.202637 L 368.694336 19.202637 L 368.694336 19.046875 Q 368.688965 18.327148 368.329102 18.002197 Q 367.969238 17.677246 367.179688 17.677246 Q 366.674805 17.677246 366.159180 17.822266 Q 365.643555 17.967285 365.154785 18.246582 L 365.154785 17.258301 Q 365.702637 17.048828 366.204834 16.944092 Q 366.707031 16.839355 367.179688 16.839355 Q 367.926270 16.839355 368.455322 17.059570 Q 368.984375 17.279785 369.312012 17.720215 Q 369.516113 17.988770 369.602051 18.383545 Q 369.687988 18.778320 369.687988 19.567871 Z " fill="rgb(0, 0, 0)" fill-opacity="1.000000" />
<path d="M 376.645020 19.272461 L 376.645020 23.000000 L 375.651367 23.000000 L 375.651367 19.272461 Q 375.651367 18.461426 375.366699 18.080078 Q 375.082031 17.698730 374.475098 17.698730 Q 373.782227 17.698730 373.408936 18.190186 Q 373.035645 18.681641 373.035645 19.600098 L 373.035645 23.000000 L 372.047363 23.000000 L 372.047363 16.984375 L 373.035645 16.984375 L 373.035645 17.886719 Q 373.298828 17.371094 373.750000 17.105225 Q 374.201172 16.839355 374.818848 16.839355 Q 375.737305 16.839355 376.191162 17.443604 Q 376.645020 18.047852 376.645020 19.272461 Z " fill="rgb(0, 0, 0)" fill-opacity="1.000000" />
<path d="M 383.226074 17.193848 L 383.226074 18.160645 Q 382.801758 17.913574 382.372070 17.790039 Q 381.942383 17.666504 381.496582 17.666504 Q 380.825195 17.666504 380.494873 17.884033 Q 380.164551 18.101562 380.164551 18.547363 Q 380.164551 18.950195 380.411621 19.148926 Q 380.658691 19.347656 381.641602 19.535645 L 382.039062 19.610840 Q 382.774902 19.750488 383.153564 20.169434 Q 383.532227 20.588379 383.532227 21.259766 Q 383.532227 22.151367 382.898438 22.653564 Q 382.264648 23.155762 381.136719 23.155762 Q 380.690918 23.155762 380.202148 23.061768 Q 379.713379 22.967773 379.144043 22.779785 L 379.144043 21.759277 Q 379.697266 22.043945 380.202148 22.186279 Q 380.707031 22.328613 381.158203 22.328613 Q 381.813477 22.328613 382.173340 22.062744 Q 382.533203 21.796875 382.533203 21.318848 Q 382.533203 20.631348 381.217285 20.368164 L 381.174316 20.357422 L 380.803711 20.282227 Q 379.949707 20.115723 379.557617 19.720947 Q 379.165527 19.326172 379.165527 18.644043 Q 379.165527 17.779297 379.750977 17.309326 Q 380.336426 16.839355 381.421387 16.839355 Q 381.904785 16.839355 382.350586 16.927979 Q 382.796387 17.016602 383.226074 17.193848 Z " fill="rgb(0, 0, 0)" fill-opacity="1.000000" />
<path d="M 388.770508 19.976074 L 388.442871 19.976074 Q 387.578125 19.976074 387.140381 20.279541 Q 386.702637 20.583008 386.702637 21.184570 Q 386.702637 21.727051 387.030273 22.027832 Q 387.357910 22.328613 387.937988 22.328613 Q 388.754395 22.328613 389.221680 21.761963 Q 389.688965 21.195312 389.694336 20.196289 L 389.694336 19.976074 Z M 390.687988 19.567871 L 390.687988 23.000000 L 389.694336 23.000000 L 389.694336 22.108398 Q 389.377441 22.645508 388.896729 22.900635 Q 388.416016 23.155762 387.728516 23.155762 Q 386.810059 23.155762 386.262207 22.637451 Q 385.714355 22.119141 385.714355 21.249023 Q 385.714355 20.244629 386.388428 19.723633 Q 387.062500 19.202637 388.367676 19.202637 L 389.694336 19.202637 L 389.694336 19.046875 Q 389.688965 18.327148 389.329102 18.002197 Q 388.969238 17.677246 388.179688 17.677246 Q 387.674805 17.677246 387.159180 17.822266 Q 386.643555 17.967285 386.154785 18.246582 L 386.154785 17.258301 Q 386.702637 17.048828 387.204834 16.944092 Q 387.707031 16.839355 388.179688 16.839355 Q 388.926270 16.839355 389.455322 17.059570 Q 389.984375 17.279785 390.312012 17.720215 Q 390.516113 17.988770 390.602051 18.383545 Q 390.687988 18.778320 390.687988 19.567871 Z " fill="rgb(0, 0, 0)" fill-opacity="1.000000" />
<path d="M 397.698730 22.693848 Q 397.301270 22.924805 396.879639 23.040283 Q 396.458008 23.155762 396.017578 23.155762 Q 394.621094 23.155762 393.834229 22.317871 Q 393.047363 21.479980 393.047363 19.997559 Q 393.047363 18.515137 393.834229 17.677246 Q 394.621094 16.839355 396.017578 16.839355 Q 396.452637 16.839355 396.866211 16.952148 Q 397.279785 17.064941 397.698730 17.301270 L 397.698730 18.337891 Q 397.306641 17.988770 396.911865 17.833008 Q 396.517090 17.677246 396.017578 17.677246 Q 395.088379 17.677246 394.588867 18.278809 Q 394.089355 18.880371 394.089355 19.997559 Q 394.089355 21.109375 394.591553 21.713623 Q 395.093750 22.317871 396.017578 22.317871 Q 396.533203 22.317871 396.941406 22.159424 Q 397.349609 22.000977 397.698730 21.667969 Z " fill="rgb(0, 0, 0)" fill-opacity="1.000000" />
<path d="M 402.297852 15.276367 L 402.297852 16.984375 L 404.542969 16.984375 L 404.542969 17.752441 L 402.297852 17.752441 L 402.297852 21.018066 Q 402.297852 21.684082 402.550293 21.947266 Q 402.802734 22.210449 403.431152 22.210449 L 404.542969 22.210449 L 404.542969 23.000000 L 403.334473 23.000000 Q 402.222656 23.000000 401.766113 22.554199 Q 401.309570 22.108398 401.309570 21.018066 L 401.309570 17.752441 L 399.703613 17.752441 L 399.703613 16.984375 L 401.309570 16.984375 L 401.309570 15.276367 Z " fill="rgb(0, 0, 0)" fill-opacity="1.000000" />
<path d="M 407.697266 17.005859 L 410.227051 17.005859 L 410.227051 22.231934 L 412.187500 22.231934 L 412.187500 23.000000 L 407.278320 23.000000 L 407.278320 22.231934 L 409.238770 22.231934 L 409.238770 17.773926 L 407.697266 17.773926 Z M 409.238770 14.669434 L 410.227051 14.669434 L 410.227051 15.915527 L 409.238770 15.915527 Z " fill="rgb(0, 0, 0)" fill-opacity="1.000000" />
<path d="M 416.308594 17.677246 Q 415.556641 17.677246 415.169922 18.262695 Q 414.783203 18.848145 414.783203 19.997559 Q 414.783203 21.141602 415.169922 21.729736 Q 415.556641 22.317871 416.308594 22.317871 Q 417.065918 22.317871 417.452637 21.729736 Q 417.839355 21.141602 417.839355 19.997559 Q 417.839355 18.848145 417.452637 18.262695 Q 417.065918 17.677246 416.308594 17.677246 Z M 416.308594 16.839355 Q 417.560059 16.839355 418.223389 17.650391 Q 418.886719 18.461426 418.886719 19.997559 Q 418.886719 21.539062 418.226074 22.347412 Q 417.565430 23.155762 416.308594 23.155762 Q 415.057129 23.155762 414.396484 22.347412 Q 413.735840 21.539062 413.735840 19.997559 Q 413.735840 18.461426 414.396484 17.650391 Q 415.057129 16.839355 416.308594 16.839355 Z " fill="rgb(0, 0, 0)" fill-opacity="1.000000" />
<path d="M 425.645020 19.272461 L 425.645020 23.000000 L 424.651367 23.000000 L 424.651367 19.272461 Q 424.651367 18.461426 424.366699 18.080078 Q 424.082031 17.698730 423.475098 17.698730 Q 422.782227 17.698730 422.408936 18.190186 Q 422.035645 18.681641 422.035645 19.600098 L 422.035645 23.000000 L 421.047363 23.000000 L 421.047363 16.984375 L 422.035645 16.984375 L 422.035645 17.886719 Q 422.298828 17.371094 422.750000 17.105225 Q 423.201172 16.839355 423.818848 16.839355 Q 424.737305 16.839355 425.191162 17.443604 Q 425.645020 18.047852 425.645020 19.272461 Z " fill="rgb(0, 0, 0)" fill-opacity="1.000000" />
<path d="M 429.878906 26.319336 L 429.878906 12.300781 L 430.738281 12.300781 L 430.738281 26.319336 Z " fill="rgb(0, 0, 0)" fill-opacity="1.000000" />
<path d="M 251.892578 7.335938 L 251.892578 6.412109 L 258.729980 6.412109 L 258.729980 7.335938 Z " fill="rgb(0, 0, 0)" fill-opacity="1.000000" />
<path d="M 258.892578 7.335938 L 258.892578 6.412109 L 265.729980 6.412109 L 265.729980 7.335938 Z " fill="rgb(0, 0, 0)" fill-opacity="1.000000" />
<path d="M 265.892578 7.335938 L 265.892578 6.412109 L 272.729980 6.412109 L 272.729980 7.335938 Z " fill="rgb(0, 0, 0)" fill-opacity="1.000000" />
<path d="M 272.892578 7.335938 L 272.892578 6.412109 L 279.729980 6.412109 L 279.729980 7.335938 Z " fill="rgb(0, 0, 0)" fill-opacity="1.000000" />
<path d="M 279.892578 7.335938 L 279.892578 6.412109 L 286.729980 6.412109 L 286.729980 7.335938 Z " fill="rgb(0, 0, 0)" fill-opacity="1.000000" />
<path d="M 286.892578 7.335938 L 286.892578 6.412109 L 293.729980 6.412109 L 293.729980 7.335938 Z " fill="rgb(0, 0, 0)" fill-opacity="1.000000" />
<path d="M 293.892578 7.335938 L 293.892578 6.412109 L 300.729980 6.412109 L 300.729980 7.335938 Z " fill="rgb(0, 0, 0)" fill-opacity="1.000000" />
<path d="M 300.892578 7.335938 L 300.892578 6.412109 L 307.729980 6.412109 L 307.729980 7.335938 Z " fill="rgb(0, 0, 0)" fill-opacity="1.000000" />
<path d="M 307.892578 7.335938 L 307.892578 6.412109 L 314.729980 6.412109 L 314.729980 7.335938 Z " fill="rgb(0, 0, 0)" fill-opacity="1.000000" />
<path d="M 317.878906 13.319336 L 317.878906 7.335938 L 314.892578 7.335938 L 314.892578 6.412109 L 318.738281 6.412109 L 318.738281 13.319336 Z " fill="rgb(0, 0, 0)" fill-opacity="1.000000" />
<path d="M 345.878906 13.319336 L 345.878906 6.412109 L 349.729980 6.412109 L 349.729980 7.335938 L 346.738281 7.335938 L 346.738281 13.319336 Z " fill="rgb(0, 0, 0)" fill-opacity="1.000000" />
<path d="M 349.892578 7.335938 L 349.892578 6.412109 L 356.729980 6.412109 L 356.729980 7.335938 Z " fill="rgb(0, 0, 0)" fill-opacity="1.000000" />
<path d="M 356.892578 7.335938 L 356.892578 6.412109 L 363.729980 6.412109 L 363.729980 7.335938 Z " fill="rgb(0, 0, 0)" fill-opacity="1.000000" />
<path d="M 363.892578 7.335938 L 363.892578 6.412109 L 370.729980 6.412109 L 370.729980 7.335938 Z " fill="rgb(0, 0, 0)" fill-opacity="1.000000" />
<path d="M 370.892578 7.335938 L 370.892578 6.412109 L 377.729980 6.412109 L 377.729980 7.335938 Z " fill="rgb(0, 0, 0)" fill-opacity="1.000000" />
<path d="M 377.892578 7.335938 L 377.892578 6.412109 L 384.729980 6.412109 L 384.729980 7.335938 Z " fill="rgb(0, 0, 0)" fill-opacity="1.000000" />
<path d="M 384.892578 7.335938 L 384.892578 6.412109 L 391.729980 6.412109 L 391.729980 7.335938 Z " fill="rgb(0, 0, 0)" fill-opacity="1.000000" />
<path d="M 391.892578 7.335938 L 391.892578 6.412109 L 398.729980 6.412109 L 398.729980 7.335938 Z " fill="rgb(0, 0, 0)" fill-opacity="1.000000" />
<path d="M 398.892578 7.335938 L 398.892578 6.412109 L 405.729980 6.412109 L 405.729980 7.335938 Z " fill="rgb(0, 0, 0)" fill-opacity="1.000000" />
<path d="M 405.892578 7.335938 L 405.892578 6.412109 L 412.729980 6.412109 L 412.729980 7.335938 Z " fill="rgb(0, 0, 0)" fill-opacity="1.000000" />
<path d="M 412.892578 7.335938 L 412.892578 6.412109 L 419.729980 6.412109 L 419.729980 7.335938 Z " fill="rgb(0, 0, 0)" fill-opacity="1.000000" />
<path d="M 419.892578 7.335938 L 419.892578 6.412109 L 426.729980 6.412109 L 426.729980 7.335938 Z " fill="rgb(0, 0, 0)" fill-opacity="1.000000" />
<path d="M 429.878906 13.319336 L 429.878906 7.335938 L 426.892578 7.335938 L 426.892578 6.412109 L 430.738281 6.412109 L 430.738281 13.319336 Z " fill="rgb(0, 0, 0)" fill-opacity="1.000000" />
</svg>