<svg xmlns="http://www.w3.org/2000/svg" version="1.1" width="568" height="157">
<path d="M -0.107422 85.797852 L -0.107422 83.950195 L 6.729980 83.950195 L 6.729980 85.797852 Z " fill="rgb(0, 0, 0)" fill-opacity="1.000000" />
<path d="M 128.878906 117.319336 L 128.878906 110.412109 L 132.729980 110.412109 L 132.729980 111.335938 L 129.738281 111.335938 L 129.738281 117.319336 Z " fill="rgb(0, 0, 0)" fill-opacity="1.000000" />
<path d="M 128.878906 130.319336 L 128.878906 116.300781 L 129.738281 116.300781 L 129.738281 130.319336 Z " fill="rgb(0, 0, 0)" fill-opacity="1.000000" />
<path d="M 128.878906 137.335938 L 128.878906 129.300781 L 129.738281 129.300781 L 129.738281 136.412109 L 132.729980 136.412109 L 132.729980 137.335938 Z " fill="rgb(0, 0, 0)" fill-opacity="1.000000" />
<path d="M 478.449219 150.797852 L 478.449219 142.300781 L 480.167969 142.300781 L 480.167969 148.950195 L 482.729980 148.950195 L 482.729980 150.797852 Z " fill="rgb(190, 0, 0)" fill-opacity="1.000000" />
<path d="M 482.892578 150.797852 L 482.892578 148.950195 L 489.729980 148.950195 L 489.729980 150.797852 Z " fill="rgb(190, 0, 0)" fill-opacity="1.000000" />
<path d="M 489.892578 150.797852 L 489.892578 148.950195 L 496.729980 148.950195 L 496.729980 150.797852 Z " fill="rgb(190, 0, 0)" fill-opacity="1.000000" />
<path d="M 496.892578 150.797852 L 496.892578 148.950195 L 503.729980 148.950195 L 503.729980 150.797852 Z " fill="rgb(190, 0, 0)" fill-opacity="1.000000" />
<path d="M 503.892578 150.797852 L 503.892578 148.950195 L 510.729980 148.950195 L 510.729980 150.797852 Z " fill="rgb(190, 0, 0)" fill-opacity="1.000000" />
<path d="M 510.892578 150.797852 L 510.892578 148.950195 L 517.729980 148.950195 L 517.729980 150.797852 Z " fill="rgb(190, 0, 0)" fill-opacity="1.000000" />
<path d="M 517.892578 150.797852 L 517.892578 148.950195 L 524.729980 148.950195 L 524.729980 150.797852 Z " fill="rgb(190, 0, 0)" fill-opacity="1.000000" />
<path d="M 524.892578 150.797852 L 524.892578 148.950195 L 531.729980 148.950195 L 531.729980 150.797852 Z " fill="rgb(190, 0, 0)" fill-opacity="1.000000" />
<path d="M 531.892578 150.797852 L 531.892578 148.950195 L 538.729980 148.950195 L 538.729980 150.797852 Z " fill="rgb(190, 0, 0)" fill-opacity="1.000000" />
<path d="M 538.892578 150.797852 L 538.892578 148.950195 L 545.729980 148.950195 L 545.729980 150.797852 Z " fill="rgb(190, 0, 0)" fill-opacity="1.000000" />
<path d="M 545.892578 150.797852 L 545.892578 148.950195 L 552.729980 148.950195 L 552.729980 150.797852 Z " fill="rgb(190, 0, 0)" fill-opacity="1.000000" />
<path d="M 552.892578 150.797852 L 552.892578 148.950195 L 559.729980 148.950195 L 559.729980 150.797852 Z " fill="rgb(190, 0, 0)" fill-opacity="1.000000" />
<path d="M 559.892578 150.797852 L 559.892578 148.950195 L 562.449219 148.950195 L 562.449219 142.300781 L 564.167969 142.300781 L 564.167969 150.797852 Z " fill="rgb(190, 0, 0)" fill-opacity="1.000000" />
<path d="M 132.892578 137.335938 L 132.892578 136.412109 L 139.729980 136.412109 L 139.729980 137.335938 Z " fill="rgb(0, 0, 0)" fill-opacity="1.000000" />
<path d="M 139.892578 137.335938 L 139.892578 136.412109 L 146.729980 136.412109 L 146.729980 137.335938 Z " fill="rgb(0, 0, 0)" fill-opacity="1.000000" />
<path d="M 146.892578 137.335938 L 146.892578 136.412109 L 153.729980 136.412109 L 153.729980 137.335938 Z " fill="rgb(0, 0, 0)" fill-opacity="1.000000" />
<path d="M 153.892578 137.335938 L 153.892578 136.412109 L 160.729980 136.412109 L 160.729980 137.335938 Z " fill="rgb(0, 0, 0)" fill-opacity="1.000000" />
<path d="M 160.892578 137.335938 L 160.892578 136.412109 L 167.729980 136.412109 L 167.729980 137.335938 Z " fill="rgb(0, 0, 0)" fill-opacity="1.000000" />
<path d="M 167.892578 137.335938 L 167.892578 136.412109 L 174.729980 136.412109 L 174.729980 137.335938 Z " fill="rgb(0, 0, 0)" fill-opacity="1.000000" />
<path d="M 174.892578 137.335938 L 174.892578 136.412109 L 181.729980 136.412109 L 181.729980 137.335938 Z " fill="rgb(0, 0, 0)" fill-opacity="1.000000" />
<path d="M 181.892578 137.335938 L 181.892578 136.412109 L 188.729980 136.412109 L 188.729980 137.335938 Z " fill="rgb(0, 0, 0)" fill-opacity="1.000000" />
<path d="M 188.892578 137.335938 L 188.892578 136.412109 L 195.729980 136.412109 L 195.729980 137.335938 Z " fill="rgb(0, 0, 0)" fill-opacity="1.000000" />
<path d="M 195.892578 137.335938 L 195.892578 136.412109 L 202.729980 136.412109 L 202.729980 137.335938 Z " fill="rgb(0, 0, 0)" fill-opacity="1.000000" />
<path d="M 202.892578 137.335938 L 202.892578 136.412109 L 205.878906 136.412109 L 205.878906 129.300781 L 206.738281 129.300781 L 206.738281 137.335938 Z " fill="rgb(0, 0, 0)" fill-opacity="1.000000" />
<path d="M 478.449219 143.319336 L 478.449219 129.300781 L 480.167969 129.300781 L 480.167969 143.319336 Z " fill="rgb(190, 0, 0)" fill-opacity="1.000000" />
<path d="M 495.763184 139.715332 Q 495.349609 139.935547 494.914551 140.045654 Q 494.479492 140.155762 493.990723 140.155762 Q 492.449219 140.155762 491.597900 139.065430 Q 490.746582 137.975098 490.746582 135.998535 Q 490.746582 134.032715 491.603271 132.934326 Q 492.459961 131.835938 493.990723 131.835938 Q 494.479492 131.835938 494.914551 131.946045 Q 495.349609 132.056152 495.763184 132.276367 L 495.763184 133.388184 Q 495.365723 133.060547 494.909180 132.888672 Q 494.452637 132.716797 493.990723 132.716797 Q 492.932617 132.716797 492.406250 133.533203 Q 491.879883 134.349609 491.879883 135.998535 Q 491.879883 137.642090 492.406250 138.458496 Q 492.932617 139.274902 493.990723 139.274902 Q 494.463379 139.274902 494.917236 139.103027 Q 495.371094 138.931152 495.763184 138.603516 Z " fill="rgb(190, 0, 0)" fill-opacity="1.000000" />
<path d="M 501.860840 135.998535 Q 501.860840 134.231445 501.498291 133.474121 Q 501.135742 132.716797 500.308594 132.716797 Q 499.486816 132.716797 499.124268 133.474121 Q 498.761719 134.231445 498.761719 135.998535 Q 498.761719 137.760254 499.124268 138.517578 Q 499.486816 139.274902 500.308594 139.274902 Q 501.135742 139.274902 501.498291 138.520264 Q 501.860840 137.765625 501.860840 135.998535 Z M 502.994141 135.998535 Q 502.994141 138.093262 502.330811 139.124512 Q 501.667480 140.155762 500.308594 140.155762 Q 498.949707 140.155762 498.289062 139.129883 Q 497.628418 138.104004 497.628418 135.998535 Q 497.628418 133.898438 498.291748 132.867188 Q 498.955078 131.835938 500.308594 131.835938 Q 501.667480 131.835938 502.330811 132.867188 Q 502.994141 133.898438 502.994141 135.998535 Z " fill="rgb(190, 0, 0)" fill-opacity="1.000000" />
<path d="M 504.193359 132.007812 L 505.643555 132.007812 L 507.029297 136.079102 L 508.425781 132.007812 L 509.881348 132.007812 L 509.881348 140.000000 L 508.876953 140.000000 L 508.876953 132.937012 L 507.448242 137.147949 L 506.626465 137.147949 L 505.192383 132.937012 L 505.192383 140.000000 L 504.193359 140.000000 Z " fill="rgb(190, 0, 0)" fill-opacity="1.000000" />
<path d="M 513.143066 132.872559 L 513.143066 135.885742 L 514.399902 135.885742 Q 515.151855 135.885742 515.573486 135.488281 Q 515.995117 135.090820 515.995117 134.376465 Q 515.995117 133.662109 515.576172 133.267334 Q 515.157227 132.872559 514.399902 132.872559 Z M 512.058105 131.980957 L 514.399902 131.980957 Q 515.742676 131.980957 516.435547 132.590576 Q 517.128418 133.200195 517.128418 134.376465 Q 517.128418 135.563477 516.438232 136.170410 Q 515.748047 136.777344 514.399902 136.777344 L 513.143066 136.777344 L 513.143066 140.000000 L 512.058105 140.000000 Z " fill="rgb(190, 0, 0)" fill-opacity="1.000000" />
<path d="M 519.154785 131.980957 L 520.245117 131.980957 L 520.245117 139.086914 L 524.117676 139.086914 L 524.117676 140.000000 L 519.154785 140.000000 Z " fill="rgb(190, 0, 0)" fill-opacity="1.000000" />
<path d="M 526.058105 131.980957 L 530.816895 131.980957 L 530.816895 132.894043 L 527.143066 132.894043 L 527.143066 135.053223 L 530.655762 135.053223 L 530.655762 135.966309 L 527.143066 135.966309 L 527.143066 139.086914 L 530.918945 139.086914 L 530.918945 140.000000 L 526.058105 140.000000 Z " fill="rgb(190, 0, 0)" fill-opacity="1.000000" />
<path d="M 532.252441 131.980957 L 538.370117 131.980957 L 538.370117 132.894043 L 535.861816 132.894043 L 535.861816 140.000000 L 534.771484 140.000000 L 534.771484 132.894043 L 532.252441 132.894043 Z " fill="rgb(190, 0, 0)" fill-opacity="1.000000" />
<path d="M 540.058105 131.980957 L 544.816895 131.980957 L 544.816895 132.894043 L 541.143066 132.894043 L 541.143066 135.053223 L 544.655762 135.053223 L 544.655762 135.966309 L 541.143066 135.966309 L 541.143066 139.086914 L 544.918945 139.086914 L 544.918945 140.000000 L 540.058105 140.000000 Z " fill="rgb(190, 0, 0)" fill-opacity="1.000000" />
<path d="M 548.932617 131.980957 L 550.022949 131.980957 L 550.022949 135.499023 L 549.910156 137.147949 L 549.045410 137.147949 L 548.932617 135.499023 Z M 548.771484 138.635742 L 550.184082 138.635742 L 550.184082 140.000000 L 548.771484 140.000000 Z " fill="rgb(190, 0, 0)" fill-opacity="1.000000" />
<path d="M 562.449219 143.319336 L 562.449219 129.300781 L 564.167969 129.300781 L 564.167969 143.319336 Z " fill="rgb(190, 0, 0)" fill-opacity="1.000000" />
<path d="M 136.222656 127.107422 L 136.222656 121.752441 L 134.520020 121.752441 L 134.520020 120.984375 L 137.210938 120.984375 L 137.210938 127.107422 Q 137.210938 128.154785 136.730225 128.721436 Q 136.249512 129.288086 135.363281 129.288086 L 133.999023 129.288086 L 133.999023 128.450195 L 135.255859 128.450195 Q 135.739258 128.450195 135.980957 128.114502 Q 136.222656 127.778809 136.222656 127.107422 Z M 136.222656 118.642578 L 137.210938 118.642578 L 137.210938 119.894043 L 136.222656 119.894043 Z " fill="rgb(0, 0, 0)" fill-opacity="1.000000" />
<path d="M 143.308594 121.677246 Q 142.556641 121.677246 142.169922 122.262695 Q 141.783203 122.848145 141.783203 123.997559 Q 141.783203 125.141602 142.169922 125.729736 Q 142.556641 126.317871 143.308594 126.317871 Q 144.065918 126.317871 144.452637 125.729736 Q 144.839355 125.141602 144.839355 123.997559 Q 144.839355 122.848145 144.452637 122.262695 Q 144.065918 121.677246 143.308594 121.677246 Z M 143.308594 120.839355 Q 144.560059 120.839355 145.223389 121.650391 Q 145.886719 122.461426 145.886719 123.997559 Q 145.886719 125.539062 145.226074 126.347412 Q 144.565430 127.155762 143.308594 127.155762 Q 142.057129 127.155762 141.396484 126.347412 Q 140.735840 125.539062 140.735840 123.997559 Q 140.735840 122.461426 141.396484 121.650391 Q 142.057129 120.839355 143.308594 120.839355 Z " fill="rgb(0, 0, 0)" fill-opacity="1.000000" />
<path d="M 151.930664 123.997559 Q 151.930664 122.848145 151.565430 122.262695 Q 151.200195 121.677246 150.485840 121.677246 Q 149.766113 121.677246 149.395508 122.265381 Q 149.024902 122.853516 149.024902 123.997559 Q 149.024902 125.136230 149.395508 125.727051 Q 149.766113 126.317871 150.485840 126.317871 Q 151.200195 126.317871 151.565430 125.732422 Q 151.930664 125.146973 151.930664 123.997559 Z M 149.024902 121.752441 Q 149.261230 121.312012 149.677490 121.075684 Q 150.093750 120.839355 150.641602 120.839355 Q 151.726562 120.839355 152.349609 121.674561 Q 152.972656 122.509766 152.972656 123.976074 Q 152.972656 125.463867 152.346924 126.309814 Q 151.721191 127.155762 150.630859 127.155762 Q 150.093750 127.155762 149.682861 126.922119 Q 149.271973 126.688477 149.024902 126.242676 L 149.024902 127.000000 L 148.036621 127.000000 L 148.036621 118.642578 L 149.024902 118.642578 Z " fill="rgb(0, 0, 0)" fill-opacity="1.000000" />
<path d="M 166.226074 121.193848 L 166.226074 122.160645 Q 165.801758 121.913574 165.372070 121.790039 Q 164.942383 121.666504 164.496582 121.666504 Q 163.825195 121.666504 163.494873 121.884033 Q 163.164551 122.101562 163.164551 122.547363 Q 163.164551 122.950195 163.411621 123.148926 Q 163.658691 123.347656 164.641602 123.535645 L 165.039062 123.610840 Q 165.774902 123.750488 166.153564 124.169434 Q 166.532227 124.588379 166.532227 125.259766 Q 166.532227 126.151367 165.898438 126.653564 Q 165.264648 127.155762 164.136719 127.155762 Q 163.690918 127.155762 163.202148 127.061768 Q 162.713379 126.967773 162.144043 126.779785 L 162.144043 125.759277 Q 162.697266 126.043945 163.202148 126.186279 Q 163.707031 126.328613 164.158203 126.328613 Q 164.813477 126.328613 165.173340 126.062744 Q 165.533203 125.796875 165.533203 125.318848 Q 165.533203 124.631348 164.217285 124.368164 L 164.174316 124.357422 L 163.803711 124.282227 Q 162.949707 124.115723 162.557617 123.720947 Q 162.165527 123.326172 162.165527 122.644043 Q 162.165527 121.779297 162.750977 121.309326 Q 163.336426 120.839355 164.421387 120.839355 Q 164.904785 120.839355 165.350586 120.927979 Q 165.796387 121.016602 166.226074 121.193848 Z " fill="rgb(0, 0, 0)" fill-opacity="1.000000" />
<path d="M 171.297852 119.276367 L 171.297852 120.984375 L 173.542969 120.984375 L 173.542969 121.752441 L 171.297852 121.752441 L 171.297852 125.018066 Q 171.297852 125.684082 171.550293 125.947266 Q 171.802734 126.210449 172.431152 126.210449 L 173.542969 126.210449 L 173.542969 127.000000 L 172.334473 127.000000 Q 171.222656 127.000000 170.766113 126.554199 Q 170.309570 126.108398 170.309570 125.018066 L 170.309570 121.752441 L 168.703613 121.752441 L 168.703613 120.984375 L 170.309570 120.984375 L 170.309570 119.276367 Z " fill="rgb(0, 0, 0)" fill-opacity="1.000000" />
<path d="M 178.770508 123.976074 L 178.442871 123.976074 Q 177.578125 123.976074 177.140381 124.279541 Q 176.702637 124.583008 176.702637 125.184570 Q 176.702637 125.727051 177.030273 126.027832 Q 177.357910 126.328613 177.937988 126.328613 Q 178.754395 126.328613 179.221680 125.761963 Q 179.688965 125.195312 179.694336 124.196289 L 179.694336 123.976074 Z M 180.687988 123.567871 L 180.687988 127.000000 L 179.694336 127.000000 L 179.694336 126.108398 Q 179.377441 126.645508 178.896729 126.900635 Q 178.416016 127.155762 177.728516 127.155762 Q 176.810059 127.155762 176.262207 126.637451 Q 175.714355 126.119141 175.714355 125.249023 Q 175.714355 124.244629 176.388428 123.723633 Q 177.062500 123.202637 178.367676 123.202637 L 179.694336 123.202637 L 179.694336 123.046875 Q 179.688965 122.327148 179.329102 122.002197 Q 178.969238 121.677246 178.179688 121.677246 Q 177.674805 121.677246 177.159180 121.822266 Q 176.643555 121.967285 176.154785 122.246582 L 176.154785 121.258301 Q 176.702637 121.048828 177.204834 120.944092 Q 177.707031 120.839355 178.179688 120.839355 Q 178.926270 120.839355 179.455322 121.059570 Q 179.984375 121.279785 180.312012 121.720215 Q 180.516113 121.988770 180.602051 122.383545 Q 180.687988 122.778320 180.687988 123.567871 Z " fill="rgb(0, 0, 0)" fill-opacity="1.000000" />
<path d="M 188.203613 122.225098 Q 187.886719 121.978027 187.559082 121.865234 Q 187.231445 121.752441 186.839355 121.752441 Q 185.915527 121.752441 185.426758 122.332520 Q 184.937988 122.912598 184.937988 124.008301 L 184.937988 127.000000 L 183.944336 127.000000 L 183.944336 120.984375 L 184.937988 120.984375 L 184.937988 122.160645 Q 185.185059 121.521484 185.697998 121.180420 Q 186.210938 120.839355 186.914551 120.839355 Q 187.279785 120.839355 187.596680 120.930664 Q 187.913574 121.021973 188.203613 121.215332 Z " fill="rgb(0, 0, 0)" fill-opacity="1.000000" />
<path d="M 192.297852 119.276367 L 192.297852 120.984375 L 194.542969 120.984375 L 194.542969 121.752441 L 192.297852 121.752441 L 192.297852 125.018066 Q 192.297852 125.684082 192.550293 125.947266 Q 192.802734 126.210449 193.431152 126.210449 L 194.542969 126.210449 L 194.542969 127.000000 L 193.334473 127.000000 Q 192.222656 127.000000 191.766113 126.554199 Q 191.309570 126.108398 191.309570 125.018066 L 191.309570 121.752441 L 189.703613 121.752441 L 189.703613 120.984375 L 191.309570 120.984375 L 191.309570 119.276367 Z " fill="rgb(0, 0, 0)" fill-opacity="1.000000" />
<path d="M 201.226074 121.193848 L 201.226074 122.160645 Q 200.801758 121.913574 200.372070 121.790039 Q 199.942383 121.666504 199.496582 121.666504 Q 198.825195 121.666504 198.494873 121.884033 Q 198.164551 122.101562 198.164551 122.547363 Q 198.164551 122.950195 198.411621 123.148926 Q 198.658691 123.347656 199.641602 123.535645 L 200.039062 123.610840 Q 200.774902 123.750488 201.153564 124.169434 Q 201.532227 124.588379 201.532227 125.259766 Q 201.532227 126.151367 200.898438 126.653564 Q 200.264648 127.155762 199.136719 127.155762 Q 198.690918 127.155762 198.202148 127.061768 Q 197.713379 126.967773 197.144043 126.779785 L 197.144043 125.759277 Q 197.697266 126.043945 198.202148 126.186279 Q 198.707031 126.328613 199.158203 126.328613 Q 199.813477 126.328613 200.173340 126.062744 Q 200.533203 125.796875 200.533203 125.318848 Q 200.533203 124.631348 199.217285 124.368164 L 199.174316 124.357422 L 198.803711 124.282227 Q 197.949707 124.115723 197.557617 123.720947 Q 197.165527 123.326172 197.165527 122.644043 Q 197.165527 121.779297 197.750977 121.309326 Q 198.336426 120.839355 199.421387 120.839355 Q 199.904785 120.839355 200.350586 120.927979 Q 200.796387 121.016602 201.226074 121.193848 Z " fill="rgb(0, 0, 0)" fill-opacity="1.000000" />
<path d="M 205.878906 130.319336 L 205.878906 116.300781 L 206.738281 116.300781 L 206.738281 123.412109 L 209.729980 123.412109 L 209.729980 124.335938 L 206.738281 124.335938 L 206.738281 130.319336 Z " fill="rgb(0, 0, 0)" fill-opacity="1.000000" />
<path d="M 209.892578 124.335938 L 209.892578 123.412109 L 216.729980 123.412109 L 216.729980 124.335938 Z " fill="rgb(0, 0, 0)" fill-opacity="1.000000" />
<path d="M 216.892578 124.335938 L 216.892578 123.412109 L 223.729980 123.412109 L 223.729980 124.335938 Z " fill="rgb(0, 0, 0)" fill-opacity="1.000000" />
<path d="M 223.892578 124.335938 L 223.892578 123.412109 L 230.729980 123.412109 L 230.729980 124.335938 Z " fill="rgb(0, 0, 0)" fill-opacity="1.000000" />
<path d="M 230.892578 124.335938 L 230.892578 123.412109 L 237.729980 123.412109 L 237.729980 124.335938 Z " fill="rgb(0, 0, 0)" fill-opacity="1.000000" />
<path d="M 237.892578 124.335938 L 237.892578 123.412109 L 244.729980 123.412109 L 244.729980 124.335938 Z " fill="rgb(0, 0, 0)" fill-opacity="1.000000" />
<path d="M 245.644531 126.505859 L 250.365723 124.142578 L 245.644531 121.779297 Z M 245.032227 127.418945 L 245.032227 120.866211 L 251.590332 124.142578 Z " fill="rgb(0, 0, 0)" fill-opacity="1.000000" />
<path d="M 260.670410 126.978516 Q 259.032227 126.033203 259.032227 124.142578 Q 259.032227 122.251953 260.670410 121.306641 Q 261.486816 120.833984 262.308594 120.833984 Q 263.125000 120.833984 263.946777 121.306641 Q 265.590332 122.251953 265.590332 124.142578 Q 265.590332 126.033203 263.946777 126.978516 Q 263.125000 127.451172 262.308594 127.451172 Q 261.486816 127.451172 260.670410 126.978516 Z " fill="rgb(0, 0, 0)" fill-opacity="1.000000" />
<path d="M 265.892578 124.797852 L 265.892578 122.950195 L 272.729980 122.950195 L 272.729980 124.797852 Z " fill="rgb(0, 0, 0)" fill-opacity="1.000000" />
<path d="M 272.892578 124.797852 L 272.892578 122.950195 L 279.729980 122.950195 L 279.729980 124.797852 Z " fill="rgb(0, 0, 0)" fill-opacity="1.000000" />
<path d="M 279.892578 124.797852 L 279.892578 122.950195 L 286.729980 122.950195 L 286.729980 124.797852 Z " fill="rgb(0, 0, 0)" fill-opacity="1.000000" />
<path d="M 286.892578 124.797852 L 286.892578 122.950195 L 293.729980 122.950195 L 293.729980 124.797852 Z " fill="rgb(0, 0, 0)" fill-opacity="1.000000" />
<path d="M 293.892578 124.797852 L 293.892578 122.950195 L 300.729980 122.950195 L 300.729980 124.797852 Z " fill="rgb(0, 0, 0)" fill-opacity="1.000000" />
<path d="M 300.892578 124.797852 L 300.892578 122.950195 L 307.729980 122.950195 L 307.729980 124.797852 Z " fill="rgb(0, 0, 0)" fill-opacity="1.000000" />
<path d="M 307.892578 124.797852 L 307.892578 122.950195 L 314.729980 122.950195 L 314.729980 124.797852 Z " fill="rgb(0, 0, 0)" fill-opacity="1.000000" />
<path d="M 314.892578 124.797852 L 314.892578 122.950195 L 321.729980 122.950195 L 321.729980 124.797852 Z " fill="rgb(0, 0, 0)" fill-opacity="1.000000" />
<path d="M 321.892578 124.797852 L 321.892578 122.950195 L 328.729980 122.950195 L 328.729980 124.797852 Z " fill="rgb(0, 0, 0)" fill-opacity="1.000000" />
<path d="M 328.892578 124.797852 L 328.892578 122.950195 L 335.729980 122.950195 L 335.729980 124.797852 Z " fill="rgb(0, 0, 0)" fill-opacity="1.000000" />
<path d="M 335.892578 124.797852 L 335.892578 122.950195 L 342.729980 122.950195 L 342.729980 124.797852 Z " fill="rgb(0, 0, 0)" fill-opacity="1.000000" />
<path d="M 342.892578 124.797852 L 342.892578 122.950195 L 349.729980 122.950195 L 349.729980 124.797852 Z " fill="rgb(0, 0, 0)" fill-opacity="1.000000" />
<path d="M 349.892578 124.797852 L 349.892578 122.950195 L 356.729980 122.950195 L 356.729980 124.797852 Z " fill="rgb(0, 0, 0)" fill-opacity="1.000000" />
<path d="M 356.892578 124.797852 L 356.892578 122.950195 L 363.729980 122.950195 L 363.729980 124.797852 Z " fill="rgb(0, 0, 0)" fill-opacity="1.000000" />
<path d="M 364.032227 127.418945 L 364.032227 120.866211 L 370.590332 124.142578 Z " fill="rgb(0, 0, 0)" fill-opacity="1.000000" />
<path d="M 378.032227 124.142578 L 384.590332 120.866211 L 384.590332 127.418945 Z " fill="rgb(190, 0, 0)" fill-opacity="1.000000" />
<path d="M 384.892578 124.797852 L 384.892578 122.950195 L 391.729980 122.950195 L 391.729980 124.797852 Z " fill="rgb(190, 0, 0)" fill-opacity="1.000000" />
<path d="M 391.892578 124.797852 L 391.892578 122.950195 L 398.729980 122.950195 L 398.729980 124.797852 Z " fill="rgb(190, 0, 0)" fill-opacity="1.000000" />
<path d="M 398.892578 124.797852 L 398.892578 122.950195 L 405.729980 122.950195 L 405.729980 124.797852 Z " fill="rgb(190, 0, 0)" fill-opacity="1.000000" />
<path d="M 405.892578 124.797852 L 405.892578 122.950195 L 412.729980 122.950195 L 412.729980 124.797852 Z " fill="rgb(190, 0, 0)" fill-opacity="1.000000" />
<path d="M 412.892578 124.797852 L 412.892578 122.950195 L 419.729980 122.950195 L 419.729980 124.797852 Z " fill="rgb(190, 0, 0)" fill-opacity="1.000000" />
<path d="M 419.892578 124.797852 L 419.892578 122.950195 L 426.729980 122.950195 L 426.729980 124.797852 Z " fill="rgb(190, 0, 0)" fill-opacity="1.000000" />
<path d="M 426.892578 124.797852 L 426.892578 122.950195 L 433.729980 122.950195 L 433.729980 124.797852 Z " fill="rgb(190, 0, 0)" fill-opacity="1.000000" />
<path d="M 433.892578 124.797852 L 433.892578 122.950195 L 440.729980 122.950195 L 440.729980 124.797852 Z " fill="rgb(190, 0, 0)" fill-opacity="1.000000" />
<path d="M 440.892578 124.797852 L 440.892578 122.950195 L 447.729980 122.950195 L 447.729980 124.797852 Z " fill="rgb(190, 0, 0)" fill-opacity="1.000000" />
<path d="M 447.892578 124.797852 L 447.892578 122.950195 L 454.729980 122.950195 L 454.729980 124.797852 Z " fill="rgb(190, 0, 0)" fill-opacity="1.000000" />
<path d="M 454.892578 124.797852 L 454.892578 122.950195 L 461.729980 122.950195 L 461.729980 124.797852 Z " fill="rgb(190, 0, 0)" fill-opacity="1.000000" />
<path d="M 461.892578 124.797852 L 461.892578 122.950195 L 468.729980 122.950195 L 468.729980 124.797852 Z " fill="rgb(190, 0, 0)" fill-opacity="1.000000" />
<path d="M 468.892578 124.797852 L 468.892578 122.950195 L 475.729980 122.950195 L 475.729980 124.797852 Z " fill="rgb(190, 0, 0)" fill-opacity="1.000000" />
<path d="M 478.449219 130.319336 L 478.449219 116.300781 L 480.167969 116.300781 L 480.167969 130.319336 Z " fill="rgb(190, 0, 0)" fill-opacity="1.000000" />
<path d="M 492.341797 126.108398 Q 493.711426 126.108398 494.253906 125.434326 Q 494.796387 124.760254 494.796387 122.998535 Q 494.796387 121.220703 494.256592 120.546631 Q 493.716797 119.872559 492.341797 119.872559 L 491.826172 119.872559 L 491.826172 126.108398 Z M 492.363281 118.980957 Q 494.200195 118.980957 495.070312 119.958496 Q 495.940430 120.936035 495.940430 122.998535 Q 495.940430 125.050293 495.070312 126.025146 Q 494.200195 127.000000 492.363281 127.000000 L 490.735840 127.000000 L 490.735840 118.980957 Z " fill="rgb(190, 0, 0)" fill-opacity="1.000000" />
<path d="M 500.308594 119.937012 L 499.164551 124.040527 L 501.452637 124.040527 Z M 499.653320 118.980957 L 500.969238 118.980957 L 503.423828 127.000000 L 502.301270 127.000000 L 501.710449 124.910645 L 498.901367 124.910645 L 498.321289 127.000000 L 497.198730 127.000000 Z " fill="rgb(190, 0, 0)" fill-opacity="1.000000" />
<path d="M 504.252441 118.980957 L 510.370117 118.980957 L 510.370117 119.894043 L 507.861816 119.894043 L 507.861816 127.000000 L 506.771484 127.000000 L 506.771484 119.894043 L 504.252441 119.894043 Z " fill="rgb(190, 0, 0)" fill-opacity="1.000000" />
<path d="M 514.308594 119.937012 L 513.164551 124.040527 L 515.452637 124.040527 Z M 513.653320 118.980957 L 514.969238 118.980957 L 517.423828 127.000000 L 516.301270 127.000000 L 515.710449 124.910645 L 512.901367 124.910645 L 512.321289 127.000000 L 511.198730 127.000000 Z " fill="rgb(190, 0, 0)" fill-opacity="1.000000" />
<path d="M 525.102051 119.007812 L 526.584473 119.007812 L 529.721191 125.587402 L 529.721191 119.007812 L 530.875977 119.007812 L 530.875977 127.000000 L 529.393555 127.000000 L 526.256836 120.420410 L 526.256836 127.000000 L 525.102051 127.000000 Z " fill="rgb(190, 0, 0)" fill-opacity="1.000000" />
<path d="M 536.860840 122.998535 Q 536.860840 121.231445 536.498291 120.474121 Q 536.135742 119.716797 535.308594 119.716797 Q 534.486816 119.716797 534.124268 120.474121 Q 533.761719 121.231445 533.761719 122.998535 Q 533.761719 124.760254 534.124268 125.517578 Q 534.486816 126.274902 535.308594 126.274902 Q 536.135742 126.274902 536.498291 125.520264 Q 536.860840 124.765625 536.860840 122.998535 Z M 537.994141 122.998535 Q 537.994141 125.093262 537.330811 126.124512 Q 536.667480 127.155762 535.308594 127.155762 Q 533.949707 127.155762 533.289062 126.129883 Q 532.628418 125.104004 532.628418 122.998535 Q 532.628418 120.898438 533.291748 119.867188 Q 533.955078 118.835938 535.308594 118.835938 Q 536.667480 118.835938 537.330811 119.867188 Q 537.994141 120.898438 537.994141 122.998535 Z " fill="rgb(190, 0, 0)" fill-opacity="1.000000" />
<path d="M 539.252441 118.980957 L 545.370117 118.980957 L 545.370117 119.894043 L 542.861816 119.894043 L 542.861816 127.000000 L 541.771484 127.000000 L 541.771484 119.894043 L 539.252441 119.894043 Z " fill="rgb(190, 0, 0)" fill-opacity="1.000000" />
<path d="M 562.449219 130.319336 L 562.449219 116.300781 L 564.167969 116.300781 L 564.167969 130.319336 Z " fill="rgb(190, 0, 0)" fill-opacity="1.000000" />
<path d="M 132.892578 111.335938 L 132.892578 110.412109 L 139.729980 110.412109 L 139.729980 111.335938 Z " fill="rgb(0, 0, 0)" fill-opacity="1.000000" />
<path d="M 139.892578 111.335938 L 139.892578 110.412109 L 146.729980 110.412109 L 146.729980 111.335938 Z " fill="rgb(0, 0, 0)" fill-opacity="1.000000" />
<path d="M 146.892578 111.335938 L 146.892578 110.412109 L 153.729980 110.412109 L 153.729980 111.335938 Z " fill="rgb(0, 0, 0)" fill-opacity="1.000000" />
<path d="M 153.892578 111.335938 L 153.892578 110.412109 L 160.729980 110.412109 L 160.729980 111.335938 Z " fill="rgb(0, 0, 0)" fill-opacity="1.000000" />
<path d="M 160.892578 111.335938 L 160.892578 110.412109 L 167.729980 110.412109 L 167.729980 111.335938 Z " fill="rgb(0, 0, 0)" fill-opacity="1.000000" />
<path d="M 167.892578 111.335938 L 167.892578 110.412109 L 174.729980 110.412109 L 174.729980 111.335938 Z " fill="rgb(0, 0, 0)" fill-opacity="1.000000" />
<path d="M 174.892578 111.335938 L 174.892578 110.412109 L 181.729980 110.412109 L 181.729980 111.335938 Z " fill="rgb(0, 0, 0)" fill-opacity="1.000000" />
<path d="M 181.892578 111.335938 L 181.892578 110.412109 L 188.729980 110.412109 L 188.729980 111.335938 Z " fill="rgb(0, 0, 0)" fill-opacity="1.000000" />
<path d="M 188.892578 111.335938 L 188.892578 110.412109 L 195.729980 110.412109 L 195.729980 111.335938 Z " fill="rgb(0, 0, 0)" fill-opacity="1.000000" />
<path d="M 195.892578 111.335938 L 195.892578 110.412109 L 202.729980 110.412109 L 202.729980 111.335938 Z " fill="rgb(0, 0, 0)" fill-opacity="1.000000" />
<path d="M 205.878906 117.319336 L 205.878906 111.335938 L 202.892578 111.335938 L 202.892578 110.412109 L 206.738281 110.412109 L 206.738281 117.319336 Z " fill="rgb(0, 0, 0)" fill-opacity="1.000000" />
<path d="M 262.308594 114.418945 L 259.032227 107.866211 L 265.590332 107.866211 Z " fill="rgb(0, 0, 0)" fill-opacity="1.000000" />
<path d="M 478.449219 117.319336 L 478.449219 103.300781 L 480.167969 103.300781 L 480.167969 117.319336 Z " fill="rgb(190, 0, 0)" fill-opacity="1.000000" />
<path d="M 521.926270 110.777344 L 523.918945 112.775391 L 523.301270 113.387695 L 521.308594 111.395020 L 519.315918 113.387695 L 518.698242 112.775391 L 520.690918 110.777344 L 518.698242 108.784668 L 519.315918 108.166992 L 521.308594 110.159668 L 523.306641 108.166992 L 523.924316 108.779297 Z " fill="rgb(190, 0, 0)" fill-opacity="1.000000" />
<path d="M 562.449219 117.319336 L 562.449219 103.300781 L 564.167969 103.300781 L 564.167969 117.319336 Z " fill="rgb(190, 0, 0)" fill-opacity="1.000000" />
<path d="M 261.449219 104.319336 L 261.449219 90.300781 L 263.167969 90.300781 L 263.167969 104.319336 Z " fill="rgb(0, 0, 0)" fill-opacity="1.000000" />
<path d="M 478.449219 104.319336 L 478.449219 96.950195 L 482.729980 96.950195 L 482.729980 98.797852 L 480.167969 98.797852 L 480.167969 104.319336 Z " fill="rgb(190, 0, 0)" fill-opacity="1.000000" />
<path d="M 482.892578 98.797852 L 482.892578 96.950195 L 489.729980 96.950195 L 489.729980 98.797852 Z " fill="rgb(190, 0, 0)" fill-opacity="1.000000" />
<path d="M 489.892578 98.797852 L 489.892578 96.950195 L 496.729980 96.950195 L 496.729980 98.797852 Z " fill="rgb(190, 0, 0)" fill-opacity="1.000000" />
<path d="M 496.892578 98.797852 L 496.892578 96.950195 L 503.729980 96.950195 L 503.729980 98.797852 Z " fill="rgb(190, 0, 0)" fill-opacity="1.000000" />
<path d="M 503.892578 98.797852 L 503.892578 96.950195 L 510.729980 96.950195 L 510.729980 98.797852 Z " fill="rgb(190, 0, 0)" fill-opacity="1.000000" />
<path d="M 510.892578 98.797852 L 510.892578 96.950195 L 517.729980 96.950195 L 517.729980 98.797852 Z " fill="rgb(190, 0, 0)" fill-opacity="1.000000" />
<path d="M 517.892578 98.797852 L 517.892578 96.950195 L 524.729980 96.950195 L 524.729980 98.797852 Z " fill="rgb(190, 0, 0)" fill-opacity="1.000000" />
<path d="M 524.892578 98.797852 L 524.892578 96.950195 L 531.729980 96.950195 L 531.729980 98.797852 Z " fill="rgb(190, 0, 0)" fill-opacity="1.000000" />
<path d="M 531.892578 98.797852 L 531.892578 96.950195 L 538.729980 96.950195 L 538.729980 98.797852 Z " fill="rgb(190, 0, 0)" fill-opacity="1.000000" />
<path d="M 538.892578 98.797852 L 538.892578 96.950195 L 545.729980 96.950195 L 545.729980 98.797852 Z " fill="rgb(190, 0, 0)" fill-opacity="1.000000" />
<path d="M 545.892578 98.797852 L 545.892578 96.950195 L 552.729980 96.950195 L 552.729980 98.797852 Z " fill="rgb(190, 0, 0)" fill-opacity="1.000000" />
<path d="M 552.892578 98.797852 L 552.892578 96.950195 L 559.729980 96.950195 L 559.729980 98.797852 Z " fill="rgb(190, 0, 0)" fill-opacity="1.000000" />
<path d="M 562.449219 104.319336 L 562.449219 98.797852 L 559.892578 98.797852 L 559.892578 96.950195 L 564.167969 96.950195 L 564.167969 104.319336 Z " fill="rgb(190, 0, 0)" fill-opacity="1.000000" />
<path d="M 13.892578 85.797852 L 13.892578 83.950195 L 20.729980 83.950195 L 20.729980 85.797852 Z " fill="rgb(0, 0, 0)" fill-opacity="1.000000" />
<path d="M 27.892578 85.797852 L 27.892578 83.950195 L 34.729980 83.950195 L 34.729980 85.797852 Z " fill="rgb(0, 0, 0)" fill-opacity="1.000000" />
<path d="M 41.892578 85.797852 L 41.892578 83.950195 L 48.729980 83.950195 L 48.729980 85.797852 Z " fill="rgb(0, 0, 0)" fill-opacity="1.000000" />
<path d="M 55.892578 85.797852 L 55.892578 83.950195 L 62.729980 83.950195 L 62.729980 85.797852 Z " fill="rgb(0, 0, 0)" fill-opacity="1.000000" />
<path d="M 69.892578 85.797852 L 69.892578 83.950195 L 76.729980 83.950195 L 76.729980 85.797852 Z " fill="rgb(0, 0, 0)" fill-opacity="1.000000" />
<path d="M 83.892578 85.797852 L 83.892578 83.950195 L 90.729980 83.950195 L 90.729980 85.797852 Z " fill="rgb(0, 0, 0)" fill-opacity="1.000000" />
<path d="M 97.892578 85.797852 L 97.892578 83.950195 L 104.729980 83.950195 L 104.729980 85.797852 Z " fill="rgb(0, 0, 0)" fill-opacity="1.000000" />
<path d="M 111.892578 85.797852 L 111.892578 83.950195 L 118.729980 83.950195 L 118.729980 85.797852 Z " fill="rgb(0, 0, 0)" fill-opacity="1.000000" />
<path d="M 125.892578 85.797852 L 125.892578 83.950195 L 132.729980 83.950195 L 132.729980 85.797852 Z " fill="rgb(0, 0, 0)" fill-opacity="1.000000" />
<path d="M 139.892578 85.797852 L 139.892578 83.950195 L 146.729980 83.950195 L 146.729980 85.797852 Z " fill="rgb(0, 0, 0)" fill-opacity="1.000000" />
<path d="M 153.892578 85.797852 L 153.892578 83.950195 L 160.729980 83.950195 L 160.729980 85.797852 Z " fill="rgb(0, 0, 0)" fill-opacity="1.000000" />
<path d="M 167.892578 85.797852 L 167.892578 83.950195 L 174.729980 83.950195 L 174.729980 85.797852 Z " fill="rgb(0, 0, 0)" fill-opacity="1.000000" />
<path d="M 181.892578 85.797852 L 181.892578 83.950195 L 188.729980 83.950195 L 188.729980 85.797852 Z " fill="rgb(0, 0, 0)" fill-opacity="1.000000" />
<path d="M 195.892578 85.797852 L 195.892578 83.950195 L 202.729980 83.950195 L 202.729980 85.797852 Z " fill="rgb(0, 0, 0)" fill-opacity="1.000000" />
<path d="M 209.892578 85.797852 L 209.892578 83.950195 L 216.729980 83.950195 L 216.729980 85.797852 Z " fill="rgb(0, 0, 0)" fill-opacity="1.000000" />
<path d="M 223.892578 85.797852 L 223.892578 83.950195 L 230.729980 83.950195 L 230.729980 85.797852 Z " fill="rgb(0, 0, 0)" fill-opacity="1.000000" />
<path d="M 237.892578 85.797852 L 237.892578 83.950195 L 244.729980 83.950195 L 244.729980 85.797852 Z " fill="rgb(0, 0, 0)" fill-opacity="1.000000" />
<path d="M 251.892578 85.797852 L 251.892578 83.950195 L 258.729980 83.950195 L 258.729980 85.797852 Z " fill="rgb(0, 0, 0)" fill-opacity="1.000000" />
<path d="M 265.892578 85.797852 L 265.892578 83.950195 L 272.729980 83.950195 L 272.729980 85.797852 Z " fill="rgb(0, 0, 0)" fill-opacity="1.000000" />
<path d="M 279.892578 85.797852 L 279.892578 83.950195 L 286.729980 83.950195 L 286.729980 85.797852 Z " fill="rgb(0, 0, 0)" fill-opacity="1.000000" />
<path d="M 293.892578 85.797852 L 293.892578 83.950195 L 300.729980 83.950195 L 300.729980 85.797852 Z " fill="rgb(0, 0, 0)" fill-opacity="1.000000" />
<path d="M 307.892578 85.797852 L 307.892578 83.950195 L 314.729980 83.950195 L 314.729980 85.797852 Z " fill="rgb(0, 0, 0)" fill-opacity="1.000000" />
<path d="M 321.892578 85.797852 L 321.892578 83.950195 L 328.729980 83.950195 L 328.729980 85.797852 Z " fill="rgb(0, 0, 0)" fill-opacity="1.000000" />
<path d="M 335.892578 85.797852 L 335.892578 83.950195 L 342.729980 83.950195 L 342.729980 85.797852 Z " fill="rgb(0, 0, 0)" fill-opacity="1.000000" />
<path d="M 349.892578 85.797852 L 349.892578 83.950195 L 356.729980 83.950195 L 356.729980 85.797852 Z " fill="rgb(0, 0, 0)" fill-opacity="1.000000" />
<path d="M 363.892578 85.797852 L 363.892578 83.950195 L 370.729980 83.950195 L 370.729980 85.797852 Z " fill="rgb(0, 0, 0)" fill-opacity="1.000000" />
<path d="M 377.892578 85.797852 L 377.892578 83.950195 L 384.729980 83.950195 L 384.729980 85.797852 Z " fill="rgb(0, 0, 0)" fill-opacity="1.000000" />
<path d="M 391.892578 85.797852 L 391.892578 83.950195 L 398.729980 83.950195 L 398.729980 85.797852 Z " fill="rgb(0, 0, 0)" fill-opacity="1.000000" />
<path d="M 405.892578 85.797852 L 405.892578 83.950195 L 412.729980 83.950195 L 412.729980 85.797852 Z " fill="rgb(0, 0, 0)" fill-opacity="1.000000" />
<path d="M 419.892578 85.797852 L 419.892578 83.950195 L 426.729980 83.950195 L 426.729980 85.797852 Z " fill="rgb(0, 0, 0)" fill-opacity="1.000000" />
<path d="M 433.892578 85.797852 L 433.892578 83.950195 L 440.729980 83.950195 L 440.729980 85.797852 Z " fill="rgb(0, 0, 0)" fill-opacity="1.000000" />
<path d="M 447.892578 85.797852 L 447.892578 83.950195 L 454.729980 83.950195 L 454.729980 85.797852 Z " fill="rgb(0, 0, 0)" fill-opacity="1.000000" />
<path d="M 462.032227 88.418945 L 462.032227 81.866211 L 468.590332 85.142578 Z " fill="rgb(0, 0, 0)" fill-opacity="1.000000" />
<path d="M 19.645020 71.272461 L 19.645020 75.000000 L 18.651367 75.000000 L 18.651367 71.272461 Q 18.651367 70.461426 18.366699 70.080078 Q 18.082031 69.698730 17.475098 69.698730 Q 16.782227 69.698730 16.408936 70.190186 Q 16.035645 70.681641 16.035645 71.600098 L 16.035645 75.000000 L 15.047363 75.000000 L 15.047363 68.984375 L 16.035645 68.984375 L 16.035645 69.886719 Q 16.298828 69.371094 16.750000 69.105225 Q 17.201172 68.839355 17.818848 68.839355 Q 18.737305 68.839355 19.191162 69.443604 Q 19.645020 70.047852 19.645020 71.272461 Z " fill="rgb(0, 0, 0)" fill-opacity="1.000000" />
<path d="M 24.308594 69.677246 Q 23.556641 69.677246 23.169922 70.262695 Q 22.783203 70.848145 22.783203 71.997559 Q 22.783203 73.141602 23.169922 73.729736 Q 23.556641 74.317871 24.308594 74.317871 Q 25.065918 74.317871 25.452637 73.729736 Q 25.839355 73.141602 25.839355 71.997559 Q 25.839355 70.848145 25.452637 70.262695 Q 25.065918 69.677246 24.308594 69.677246 Z M 24.308594 68.839355 Q 25.560059 68.839355 26.223389 69.650391 Q 26.886719 70.461426 26.886719 71.997559 Q 26.886719 73.539062 26.226074 74.347412 Q 25.565430 75.155762 24.308594 75.155762 Q 23.057129 75.155762 22.396484 74.347412 Q 21.735840 73.539062 21.735840 71.997559 Q 21.735840 70.461426 22.396484 69.650391 Q 23.057129 68.839355 24.308594 68.839355 Z " fill="rgb(0, 0, 0)" fill-opacity="1.000000" />
<path d="M 33.645020 71.272461 L 33.645020 75.000000 L 32.651367 75.000000 L 32.651367 71.272461 Q 32.651367 70.461426 32.366699 70.080078 Q 32.082031 69.698730 31.475098 69.698730 Q 30.782227 69.698730 30.408936 70.190186 Q 30.035645 70.681641 30.035645 71.600098 L 30.035645 75.000000 L 29.047363 75.000000 L 29.047363 68.984375 L 30.035645 68.984375 L 30.035645 69.886719 Q 30.298828 69.371094 30.750000 69.105225 Q 31.201172 68.839355 31.818848 68.839355 Q 32.737305 68.839355 33.191162 69.443604 Q 33.645020 70.047852 33.645020 71.272461 Z " fill="rgb(0, 0, 0)" fill-opacity="1.000000" />
<path d="M 35.547852 71.111328 L 41.241211 71.111328 L 41.241211 72.019043 L 35.547852 72.019043 Z " fill="rgb(0, 0, 0)" fill-opacity="1.000000" />
<path d="M 45.297852 67.276367 L 45.297852 68.984375 L 47.542969 68.984375 L 47.542969 69.752441 L 45.297852 69.752441 L 45.297852 73.018066 Q 45.297852 73.684082 45.550293 73.947266 Q 45.802734 74.210449 46.431152 74.210449 L 47.542969 74.210449 L 47.542969 75.000000 L 46.334473 75.000000 Q 45.222656 75.000000 44.766113 74.554199 Q 44.309570 74.108398 44.309570 73.018066 L 44.309570 69.752441 L 42.703613 69.752441 L 42.703613 68.984375 L 44.309570 68.984375 L 44.309570 67.276367 Z " fill="rgb(0, 0, 0)" fill-opacity="1.000000" />
<path d="M 55.004883 68.984375 L 52.851074 71.863281 L 55.214355 75.000000 L 54.070312 75.000000 L 52.308594 72.588379 L 50.552246 75.000000 L 49.408203 75.000000 L 51.771484 71.863281 L 49.617676 68.984375 L 50.713379 68.984375 L 52.308594 71.159668 L 53.893066 68.984375 Z " fill="rgb(0, 0, 0)" fill-opacity="1.000000" />
<path d="M 87.308594 73.898926 L 89.483887 69.559082 L 85.138672 69.559082 Z M 87.308594 75.418945 L 84.032227 68.866211 L 90.590332 68.866211 Z " fill="rgb(0, 0, 0)" fill-opacity="1.000000" />
<path d="M 143.308594 73.898926 L 145.483887 69.559082 L 141.138672 69.559082 Z M 143.308594 75.418945 L 140.032227 68.866211 L 146.590332 68.866211 Z " fill="rgb(0, 0, 0)" fill-opacity="1.000000" />
<path d="M 262.308594 73.898926 L 264.483887 69.559082 L 260.138672 69.559082 Z M 262.308594 75.418945 L 259.032227 68.866211 L 265.590332 68.866211 Z " fill="rgb(0, 0, 0)" fill-opacity="1.000000" />
<path d="M 395.308594 73.898926 L 397.483887 69.559082 L 393.138672 69.559082 Z M 395.308594 75.418945 L 392.032227 68.866211 L 398.590332 68.866211 Z " fill="rgb(0, 0, 0)" fill-opacity="1.000000" />
<path d="M 451.308594 73.898926 L 453.483887 69.559082 L 449.138672 69.559082 Z M 451.308594 75.418945 L 448.032227 68.866211 L 454.590332 68.866211 Z " fill="rgb(0, 0, 0)" fill-opacity="1.000000" />
<path d="M 65.878906 13.319336 L 65.878906 6.412109 L 69.729980 6.412109 L 69.729980 7.335938 L 66.738281 7.335938 L 66.738281 13.319336 Z " fill="rgb(0, 0, 0)" fill-opacity="1.000000" />
<path d="M 65.878906 26.319336 L 65.878906 12.300781 L 66.738281 12.300781 L 66.738281 26.319336 Z " fill="rgb(0, 0, 0)" fill-opacity="1.000000" />
<path d="M 65.878906 39.319336 L 65.878906 25.300781 L 66.738281 25.300781 L 66.738281 39.319336 Z " fill="rgb(0, 0, 0)" fill-opacity="1.000000" />
<path d="M 65.878906 46.335938 L 65.878906 38.300781 L 66.738281 38.300781 L 66.738281 45.412109 L 69.729980 45.412109 L 69.729980 46.335938 Z " fill="rgb(0, 0, 0)" fill-opacity="1.000000" />
<path d="M 86.878906 65.319336 L 86.878906 51.300781 L 87.738281 51.300781 L 87.738281 65.319336 Z " fill="rgb(0, 0, 0)" fill-opacity="1.000000" />
<path d="M 142.878906 65.319336 L 142.878906 51.300781 L 143.738281 51.300781 L 143.738281 65.319336 Z " fill="rgb(0, 0, 0)" fill-opacity="1.000000" />
<path d="M 261.878906 65.319336 L 261.878906 51.300781 L 262.738281 51.300781 L 262.738281 65.319336 Z " fill="rgb(0, 0, 0)" fill-opacity="1.000000" />
<path d="M 394.878906 65.319336 L 394.878906 51.300781 L 395.738281 51.300781 L 395.738281 65.319336 Z " fill="rgb(0, 0, 0)" fill-opacity="1.000000" />
<path d="M 450.878906 65.319336 L 450.878906 51.300781 L 451.738281 51.300781 L 451.738281 65.319336 Z " fill="rgb(0, 0, 0)" fill-opacity="1.000000" />
<path d="M 69.892578 46.335938 L 69.892578 45.412109 L 76.729980 45.412109 L 76.729980 46.335938 Z " fill="rgb(0, 0, 0)" fill-opacity="1.000000" />
<path d="M 76.892578 46.335938 L 76.892578 45.412109 L 83.729980 45.412109 L 83.729980 46.335938 Z " fill="rgb(0, 0, 0)" fill-opacity="1.000000" />
<path d="M 86.878906 52.319336 L 86.878906 46.335938 L 83.892578 46.335938 L 83.892578 45.412109 L 90.729980 45.412109 L 90.729980 46.335938 L 87.738281 46.335938 L 87.738281 52.319336 Z " fill="rgb(0, 0, 0)" fill-opacity="1.000000" />
<path d="M 90.892578 46.335938 L 90.892578 45.412109 L 97.729980 45.412109 L 97.729980 46.335938 Z " fill="rgb(0, 0, 0)" fill-opacity="1.000000" />
<path d="M 97.892578 46.335938 L 97.892578 45.412109 L 104.729980 45.412109 L 104.729980 46.335938 Z " fill="rgb(0, 0, 0)" fill-opacity="1.000000" />
<path d="M 104.892578 46.335938 L 104.892578 45.412109 L 107.878906 45.412109 L 107.878906 38.300781 L 108.738281 38.300781 L 108.738281 46.335938 Z " fill="rgb(0, 0, 0)" fill-opacity="1.000000" />
<path d="M 121.878906 46.335938 L 121.878906 38.300781 L 122.738281 38.300781 L 122.738281 45.412109 L 125.729980 45.412109 L 125.729980 46.335938 Z " fill="rgb(0, 0, 0)" fill-opacity="1.000000" />
<path d="M 125.892578 46.335938 L 125.892578 45.412109 L 132.729980 45.412109 L 132.729980 46.335938 Z " fill="rgb(0, 0, 0)" fill-opacity="1.000000" />
<path d="M 132.892578 46.335938 L 132.892578 45.412109 L 139.729980 45.412109 L 139.729980 46.335938 Z " fill="rgb(0, 0, 0)" fill-opacity="1.000000" />
<path d="M 142.878906 52.319336 L 142.878906 46.335938 L 139.892578 46.335938 L 139.892578 45.412109 L 146.729980 45.412109 L 146.729980 46.335938 L 143.738281 46.335938 L 143.738281 52.319336 Z " fill="rgb(0, 0, 0)" fill-opacity="1.000000" />
<path d="M 146.892578 46.335938 L 146.892578 45.412109 L 153.729980 45.412109 L 153.729980 46.335938 Z " fill="rgb(0, 0, 0)" fill-opacity="1.000000" />
<path d="M 153.892578 46.335938 L 153.892578 45.412109 L 160.729980 45.412109 L 160.729980 46.335938 Z " fill="rgb(0, 0, 0)" fill-opacity="1.000000" />
<path d="M 160.892578 46.335938 L 160.892578 45.412109 L 163.878906 45.412109 L 163.878906 38.300781 L 164.738281 38.300781 L 164.738281 46.335938 Z " fill="rgb(0, 0, 0)" fill-opacity="1.000000" />
<path d="M 226.878906 46.335938 L 226.878906 38.300781 L 227.738281 38.300781 L 227.738281 45.412109 L 230.729980 45.412109 L 230.729980 46.335938 Z " fill="rgb(0, 0, 0)" fill-opacity="1.000000" />
<path d="M 230.892578 46.335938 L 230.892578 45.412109 L 237.729980 45.412109 L 237.729980 46.335938 Z " fill="rgb(0, 0, 0)" fill-opacity="1.000000" />
<path d="M 237.892578 46.335938 L 237.892578 45.412109 L 244.729980 45.412109 L 244.729980 46.335938 Z " fill="rgb(0, 0, 0)" fill-opacity="1.000000" />
<path d="M 244.892578 46.335938 L 244.892578 45.412109 L 251.729980 45.412109 L 251.729980 46.335938 Z " fill="rgb(0, 0, 0)" fill-opacity="1.000000" />
<path d="M 251.892578 46.335938 L 251.892578 45.412109 L 258.729980 45.412109 L 258.729980 46.335938 Z " fill="rgb(0, 0, 0)" fill-opacity="1.000000" />
<path d="M 261.878906 52.319336 L 261.878906 46.335938 L 258.892578 46.335938 L 258.892578 45.412109 L 265.729980 45.412109 L 265.729980 46.335938 L 262.738281 46.335938 L 262.738281 52.319336 Z " fill="rgb(0, 0, 0)" fill-opacity="1.000000" />
<path d="M 265.892578 46.335938 L 265.892578 45.412109 L 272.729980 45.412109 L 272.729980 46.335938 Z " fill="rgb(0, 0, 0)" fill-opacity="1.000000" />
<path d="M 272.892578 46.335938 L 272.892578 45.412109 L 279.729980 45.412109 L 279.729980 46.335938 Z " fill="rgb(0, 0, 0)" fill-opacity="1.000000" />
<path d="M 279.892578 46.335938 L 279.892578 45.412109 L 286.729980 45.412109 L 286.729980 46.335938 Z " fill="rgb(0, 0, 0)" fill-opacity="1.000000" />
<path d="M 286.892578 46.335938 L 286.892578 45.412109 L 293.729980 45.412109 L 293.729980 46.335938 Z " fill="rgb(0, 0, 0)" fill-opacity="1.000000" />
<path d="M 293.892578 46.335938 L 293.892578 45.412109 L 296.878906 45.412109 L 296.878906 38.300781 L 297.738281 38.300781 L 297.738281 46.335938 Z " fill="rgb(0, 0, 0)" fill-opacity="1.000000" />
<path d="M 373.878906 46.335938 L 373.878906 38.300781 L 374.738281 38.300781 L 374.738281 45.412109 L 377.729980 45.412109 L 377.729980 46.335938 Z " fill="rgb(0, 0, 0)" fill-opacity="1.000000" />
<path d="M 377.892578 46.335938 L 377.892578 45.412109 L 384.729980 45.412109 L 384.729980 46.335938 Z " fill="rgb(0, 0, 0)" fill-opacity="1.000000" />
<path d="M 384.892578 46.335938 L 384.892578 45.412109 L 391.729980 45.412109 L 391.729980 46.335938 Z " fill="rgb(0, 0, 0)" fill-opacity="1.000000" />
<path d="M 394.878906 52.319336 L 394.878906 46.335938 L 391.892578 46.335938 L 391.892578 45.412109 L 398.729980 45.412109 L 398.729980 46.335938 L 395.738281 46.335938 L 395.738281 52.319336 Z " fill="rgb(0, 0, 0)" fill-opacity="1.000000" />
<path d="M 398.892578 46.335938 L 398.892578 45.412109 L 405.729980 45.412109 L 405.729980 46.335938 Z " fill="rgb(0, 0, 0)" fill-opacity="1.000000" />
<path d="M 405.892578 46.335938 L 405.892578 45.412109 L 412.729980 45.412109 L 412.729980 46.335938 Z " fill="rgb(0, 0, 0)" fill-opacity="1.000000" />
<path d="M 412.892578 46.335938 L 412.892578 45.412109 L 415.878906 45.412109 L 415.878906 38.300781 L 416.738281 38.300781 L 416.738281 46.335938 Z " fill="rgb(0, 0, 0)" fill-opacity="1.000000" />
<path d="M 429.878906 46.335938 L 429.878906 38.300781 L 430.738281 38.300781 L 430.738281 45.412109 L 433.729980 45.412109 L 433.729980 46.335938 Z " fill="rgb(0, 0, 0)" fill-opacity="1.000000" />
<path d="M 433.892578 46.335938 L 433.892578 45.412109 L 440.729980 45.412109 L 440.729980 46.335938 Z " fill="rgb(0, 0, 0)" fill-opacity="1.000000" />
<path d="M 440.892578 46.335938 L 440.892578 45.412109 L 447.729980 45.412109 L 447.729980 46.335938 Z " fill="rgb(0, 0, 0)" fill-opacity="1.000000" />
<path d="M 450.878906 52.319336 L 450.878906 46.335938 L 447.892578 46.335938 L 447.892578 45.412109 L 454.729980 45.412109 L 454.729980 46.335938 L 451.738281 46.335938 L 451.738281 52.319336 Z " fill="rgb(0, 0, 0)" fill-opacity="1.000000" />
<path d="M 454.892578 46.335938 L 454.892578 45.412109 L 461.729980 45.412109 L 461.729980 46.335938 Z " fill="rgb(0, 0, 0)" fill-opacity="1.000000" />
<path d="M 461.892578 46.335938 L 461.892578 45.412109 L 468.729980 45.412109 L 468.729980 46.335938 Z " fill="rgb(0, 0, 0)" fill-opacity="1.000000" />
<path d="M 468.892578 46.335938 L 468.892578 45.412109 L 471.878906 45.412109 L 471.878906 38.300781 L 472.738281 38.300781 L 472.738281 46.335938 Z " fill="rgb(0, 0, 0)" fill-opacity="1.000000" />
<path d="M 74.608398 17.752441 L 74.608398 14.642578 L 75.596680 14.642578 L 75.596680 23.000000 L 74.608398 23.000000 L 74.608398 22.242676 Q 74.361328 22.688477 73.950439 22.922119 Q 73.539551 23.155762 73.002441 23.155762 Q 71.912109 23.155762 71.286377 22.309814 Q 70.660645 21.463867 70.660645 19.976074 Q 70.660645 18.509766 71.289062 17.674561 Q 71.917480 16.839355 73.002441 16.839355 Q 73.544922 16.839355 73.958496 17.072998 Q 74.372070 17.306641 74.608398 17.752441 Z M 71.702637 19.997559 Q 71.702637 21.146973 72.067871 21.732422 Q 72.433105 22.317871 73.147461 22.317871 Q 73.861816 22.317871 74.235107 21.727051 Q 74.608398 21.136230 74.608398 19.997559 Q 74.608398 18.853516 74.235107 18.265381 Q 73.861816 17.677246 73.147461 17.677246 Q 72.433105 17.677246 72.067871 18.262695 Q 71.702637 18.848145 71.702637 19.997559 Z " fill="rgb(0, 0, 0)" fill-opacity="1.000000" />
<path d="M 75.226074 30.193848 L 75.226074 31.160645 Q 74.801758 30.913574 74.372070 30.790039 Q 73.942383 30.666504 73.496582 30.666504 Q 72.825195 30.666504 72.494873 30.884033 Q 72.164551 31.101562 72.164551 31.547363 Q 72.164551 31.950195 72.411621 32.148926 Q 72.658691 32.347656 73.641602 32.535645 L 74.039062 32.610840 Q 74.774902 32.750488 75.153564 33.169434 Q 75.532227 33.588379 75.532227 34.259766 Q 75.532227 35.151367 74.898438 35.653564 Q 74.264648 36.155762 73.136719 36.155762 Q 72.690918 36.155762 72.202148 36.061768 Q 71.713379 35.967773 71.144043 35.779785 L 71.144043 34.759277 Q 71.697266 35.043945 72.202148 35.186279 Q 72.707031 35.328613 73.158203 35.328613 Q 73.813477 35.328613 74.173340 35.062744 Q 74.533203 34.796875 74.533203 34.318848 Q 74.533203 33.631348 73.217285 33.368164 L 73.174316 33.357422 L 72.803711 33.282227 Q 71.949707 33.115723 71.557617 32.720947 Q 71.165527 32.326172 71.165527 31.644043 Q 71.165527 30.779297 71.750977 30.309326 Q 72.336426 29.839355 73.421387 29.839355 Q 73.904785 29.839355 74.350586 29.927979 Q 74.796387 30.016602 75.226074 30.193848 Z " fill="rgb(0, 0, 0)" fill-opacity="1.000000" />
<path d="M 80.770508 32.976074 L 80.442871 32.976074 Q 79.578125 32.976074 79.140381 33.279541 Q 78.702637 33.583008 78.702637 34.184570 Q 78.702637 34.727051 79.030273 35.027832 Q 79.357910 35.328613 79.937988 35.328613 Q 80.754395 35.328613 81.221680 34.761963 Q 81.688965 34.195312 81.694336 33.196289 L 81.694336 32.976074 Z M 82.687988 32.567871 L 82.687988 36.000000 L 81.694336 36.000000 L 81.694336 35.108398 Q 81.377441 35.645508 80.896729 35.900635 Q 80.416016 36.155762 79.728516 36.155762 Q 78.810059 36.155762 78.262207 35.637451 Q 77.714355 35.119141 77.714355 34.249023 Q 77.714355 33.244629 78.388428 32.723633 Q 79.062500 32.202637 80.367676 32.202637 L 81.694336 32.202637 L 81.694336 32.046875 Q 81.688965 31.327148 81.329102 31.002197 Q 80.969238 30.677246 80.179688 30.677246 Q 79.674805 30.677246 79.159180 30.822266 Q 78.643555 30.967285 78.154785 31.246582 L 78.154785 30.258301 Q 78.702637 30.048828 79.204834 29.944092 Q 79.707031 29.839355 80.179688 29.839355 Q 80.926270 29.839355 81.455322 30.059570 Q 81.984375 30.279785 82.312012 30.720215 Q 82.516113 30.988770 82.602051 31.383545 Q 82.687988 31.778320 82.687988 32.567871 Z " fill="rgb(0, 0, 0)" fill-opacity="1.000000" />
<path d="M 84.537109 29.984375 L 85.562988 29.984375 L 87.308594 35.033203 L 89.059570 29.984375 L 90.085449 29.984375 L 87.947754 36.000000 L 86.674805 36.000000 Z " fill="rgb(0, 0, 0)" fill-opacity="1.000000" />
<path d="M 97.015625 32.498047 L 97.015625 32.981445 L 92.734863 32.981445 L 92.734863 33.013672 Q 92.691895 34.243652 93.204834 34.780762 Q 93.717773 35.317871 94.652344 35.317871 Q 95.125000 35.317871 95.640625 35.167480 Q 96.156250 35.017090 96.741699 34.710938 L 96.741699 35.693848 Q 96.177734 35.924805 95.654053 36.040283 Q 95.130371 36.155762 94.641602 36.155762 Q 93.239746 36.155762 92.450195 35.315186 Q 91.660645 34.474609 91.660645 32.997559 Q 91.660645 31.558105 92.434082 30.698730 Q 93.207520 29.839355 94.496582 29.839355 Q 95.645996 29.839355 96.309326 30.618164 Q 96.972656 31.396973 97.015625 32.498047 Z M 96.027344 32.208008 Q 95.962891 31.584961 95.573486 31.131104 Q 95.184082 30.677246 94.453613 30.677246 Q 93.739258 30.677246 93.277344 31.149902 Q 92.815430 31.622559 92.772461 32.213379 Z " fill="rgb(0, 0, 0)" fill-opacity="1.000000" />
<path d="M 102.608398 30.752441 L 102.608398 27.642578 L 103.596680 27.642578 L 103.596680 36.000000 L 102.608398 36.000000 L 102.608398 35.242676 Q 102.361328 35.688477 101.950439 35.922119 Q 101.539551 36.155762 101.002441 36.155762 Q 99.912109 36.155762 99.286377 35.309814 Q 98.660645 34.463867 98.660645 32.976074 Q 98.660645 31.509766 99.289062 30.674561 Q 99.917480 29.839355 101.002441 29.839355 Q 101.544922 29.839355 101.958496 30.072998 Q 102.372070 30.306641 102.608398 30.752441 Z M 99.702637 32.997559 Q 99.702637 34.146973 100.067871 34.732422 Q 100.433105 35.317871 101.147461 35.317871 Q 101.861816 35.317871 102.235107 34.727051 Q 102.608398 34.136230 102.608398 32.997559 Q 102.608398 31.853516 102.235107 31.265381 Q 101.861816 30.677246 101.147461 30.677246 Q 100.433105 30.677246 100.067871 31.262695 Q 99.702637 31.848145 99.702637 32.997559 Z " fill="rgb(0, 0, 0)" fill-opacity="1.000000" />
<path d="M 107.878906 39.319336 L 107.878906 25.300781 L 108.738281 25.300781 L 108.738281 39.319336 Z " fill="rgb(0, 0, 0)" fill-opacity="1.000000" />
<path d="M 121.878906 39.319336 L 121.878906 25.300781 L 122.738281 25.300781 L 122.738281 39.319336 Z " fill="rgb(0, 0, 0)" fill-opacity="1.000000" />
<path d="M 131.226074 30.193848 L 131.226074 31.160645 Q 130.801758 30.913574 130.372070 30.790039 Q 129.942383 30.666504 129.496582 30.666504 Q 128.825195 30.666504 128.494873 30.884033 Q 128.164551 31.101562 128.164551 31.547363 Q 128.164551 31.950195 128.411621 32.148926 Q 128.658691 32.347656 129.641602 32.535645 L 130.039062 32.610840 Q 130.774902 32.750488 131.153564 33.169434 Q 131.532227 33.588379 131.532227 34.259766 Q 131.532227 35.151367 130.898438 35.653564 Q 130.264648 36.155762 129.136719 36.155762 Q 128.690918 36.155762 128.202148 36.061768 Q 127.713379 35.967773 127.144043 35.779785 L 127.144043 34.759277 Q 127.697266 35.043945 128.202148 35.186279 Q 128.707031 35.328613 129.158203 35.328613 Q 129.813477 35.328613 130.173340 35.062744 Q 130.533203 34.796875 130.533203 34.318848 Q 130.533203 33.631348 129.217285 33.368164 L 129.174316 33.357422 L 128.803711 33.282227 Q 127.949707 33.115723 127.557617 32.720947 Q 127.165527 32.326172 127.165527 31.644043 Q 127.165527 30.779297 127.750977 30.309326 Q 128.336426 29.839355 129.421387 29.839355 Q 129.904785 29.839355 130.350586 29.927979 Q 130.796387 30.016602 131.226074 30.193848 Z " fill="rgb(0, 0, 0)" fill-opacity="1.000000" />
<path d="M 136.770508 32.976074 L 136.442871 32.976074 Q 135.578125 32.976074 135.140381 33.279541 Q 134.702637 33.583008 134.702637 34.184570 Q 134.702637 34.727051 135.030273 35.027832 Q 135.357910 35.328613 135.937988 35.328613 Q 136.754395 35.328613 137.221680 34.761963 Q 137.688965 34.195312 137.694336 33.196289 L 137.694336 32.976074 Z M 138.687988 32.567871 L 138.687988 36.000000 L 137.694336 36.000000 L 137.694336 35.108398 Q 137.377441 35.645508 136.896729 35.900635 Q 136.416016 36.155762 135.728516 36.155762 Q 134.810059 36.155762 134.262207 35.637451 Q 133.714355 35.119141 133.714355 34.249023 Q 133.714355 33.244629 134.388428 32.723633 Q 135.062500 32.202637 136.367676 32.202637 L 137.694336 32.202637 L 137.694336 32.046875 Q 137.688965 31.327148 137.329102 31.002197 Q 136.969238 30.677246 136.179688 30.677246 Q 135.674805 30.677246 135.159180 30.822266 Q 134.643555 30.967285 134.154785 31.246582 L 134.154785 30.258301 Q 134.702637 30.048828 135.204834 29.944092 Q 135.707031 29.839355 136.179688 29.839355 Q 136.926270 29.839355 137.455322 30.059570 Q 137.984375 30.279785 138.312012 30.720215 Q 138.516113 30.988770 138.602051 31.383545 Q 138.687988 31.778320 138.687988 32.567871 Z " fill="rgb(0, 0, 0)" fill-opacity="1.000000" />
<path d="M 140.537109 29.984375 L 141.562988 29.984375 L 143.308594 35.033203 L 145.059570 29.984375 L 146.085449 29.984375 L 143.947754 36.000000 L 142.674805 36.000000 Z " fill="rgb(0, 0, 0)" fill-opacity="1.000000" />
<path d="M 153.015625 32.498047 L 153.015625 32.981445 L 148.734863 32.981445 L 148.734863 33.013672 Q 148.691895 34.243652 149.204834 34.780762 Q 149.717773 35.317871 150.652344 35.317871 Q 151.125000 35.317871 151.640625 35.167480 Q 152.156250 35.017090 152.741699 34.710938 L 152.741699 35.693848 Q 152.177734 35.924805 151.654053 36.040283 Q 151.130371 36.155762 150.641602 36.155762 Q 149.239746 36.155762 148.450195 35.315186 Q 147.660645 34.474609 147.660645 32.997559 Q 147.660645 31.558105 148.434082 30.698730 Q 149.207520 29.839355 150.496582 29.839355 Q 151.645996 29.839355 152.309326 30.618164 Q 152.972656 31.396973 153.015625 32.498047 Z M 152.027344 32.208008 Q 151.962891 31.584961 151.573486 31.131104 Q 151.184082 30.677246 150.453613 30.677246 Q 149.739258 30.677246 149.277344 31.149902 Q 148.815430 31.622559 148.772461 32.213379 Z " fill="rgb(0, 0, 0)" fill-opacity="1.000000" />
<path d="M 158.608398 30.752441 L 158.608398 27.642578 L 159.596680 27.642578 L 159.596680 36.000000 L 158.608398 36.000000 L 158.608398 35.242676 Q 158.361328 35.688477 157.950439 35.922119 Q 157.539551 36.155762 157.002441 36.155762 Q 155.912109 36.155762 155.286377 35.309814 Q 154.660645 34.463867 154.660645 32.976074 Q 154.660645 31.509766 155.289062 30.674561 Q 155.917480 29.839355 157.002441 29.839355 Q 157.544922 29.839355 157.958496 30.072998 Q 158.372070 30.306641 158.608398 30.752441 Z M 155.702637 32.997559 Q 155.702637 34.146973 156.067871 34.732422 Q 156.433105 35.317871 157.147461 35.317871 Q 157.861816 35.317871 158.235107 34.727051 Q 158.608398 34.136230 158.608398 32.997559 Q 158.608398 31.853516 158.235107 31.265381 Q 157.861816 30.677246 157.147461 30.677246 Q 156.433105 30.677246 156.067871 31.262695 Q 155.702637 31.848145 155.702637 32.997559 Z " fill="rgb(0, 0, 0)" fill-opacity="1.000000" />
<path d="M 163.878906 39.319336 L 163.878906 25.300781 L 164.738281 25.300781 L 164.738281 39.319336 Z " fill="rgb(0, 0, 0)" fill-opacity="1.000000" />
<path d="M 226.878906 39.319336 L 226.878906 25.300781 L 227.738281 25.300781 L 227.738281 39.319336 Z " fill="rgb(0, 0, 0)" fill-opacity="1.000000" />
<path d="M 244.015625 32.498047 L 244.015625 32.981445 L 239.734863 32.981445 L 239.734863 33.013672 Q 239.691895 34.243652 240.204834 34.780762 Q 240.717773 35.317871 241.652344 35.317871 Q 242.125000 35.317871 242.640625 35.167480 Q 243.156250 35.017090 243.741699 34.710938 L 243.741699 35.693848 Q 243.177734 35.924805 242.654053 36.040283 Q 242.130371 36.155762 241.641602 36.155762 Q 240.239746 36.155762 239.450195 35.315186 Q 238.660645 34.474609 238.660645 32.997559 Q 238.660645 31.558105 239.434082 30.698730 Q 240.207520 29.839355 241.496582 29.839355 Q 242.645996 29.839355 243.309326 30.618164 Q 243.972656 31.396973 244.015625 32.498047 Z M 243.027344 32.208008 Q 242.962891 31.584961 242.573486 31.131104 Q 242.184082 30.677246 241.453613 30.677246 Q 240.739258 30.677246 240.277344 31.149902 Q 239.815430 31.622559 239.772461 32.213379 Z " fill="rgb(0, 0, 0)" fill-opacity="1.000000" />
<path d="M 248.630859 30.596680 Q 248.813477 30.209961 249.095459 30.024658 Q 249.377441 29.839355 249.774902 29.839355 Q 250.500000 29.839355 250.798096 30.400635 Q 251.096191 30.961914 251.096191 32.514160 L 251.096191 36.000000 L 250.193848 36.000000 L 250.193848 32.557129 Q 250.193848 31.284180 250.051514 30.975342 Q 249.909180 30.666504 249.533203 30.666504 Q 249.103516 30.666504 248.945068 30.996826 Q 248.786621 31.327148 248.786621 32.557129 L 248.786621 36.000000 L 247.884277 36.000000 L 247.884277 32.557129 Q 247.884277 31.268066 247.731201 30.967285 Q 247.578125 30.666504 247.180664 30.666504 Q 246.788574 30.666504 246.635498 30.996826 Q 246.482422 31.327148 246.482422 32.557129 L 246.482422 36.000000 L 245.585449 36.000000 L 245.585449 29.984375 L 246.482422 29.984375 L 246.482422 30.500000 Q 246.659668 30.177734 246.925537 30.008545 Q 247.191406 29.839355 247.529785 29.839355 Q 247.937988 29.839355 248.209229 30.027344 Q 248.480469 30.215332 248.630859 30.596680 Z " fill="rgb(0, 0, 0)" fill-opacity="1.000000" />
<path d="M 253.697266 30.005859 L 256.227051 30.005859 L 256.227051 35.231934 L 258.187500 35.231934 L 258.187500 36.000000 L 253.278320 36.000000 L 253.278320 35.231934 L 255.238770 35.231934 L 255.238770 30.773926 L 253.697266 30.773926 Z M 255.238770 27.669434 L 256.227051 27.669434 L 256.227051 28.915527 L 255.238770 28.915527 Z " fill="rgb(0, 0, 0)" fill-opacity="1.000000" />
<path d="M 262.297852 28.276367 L 262.297852 29.984375 L 264.542969 29.984375 L 264.542969 30.752441 L 262.297852 30.752441 L 262.297852 34.018066 Q 262.297852 34.684082 262.550293 34.947266 Q 262.802734 35.210449 263.431152 35.210449 L 264.542969 35.210449 L 264.542969 36.000000 L 263.334473 36.000000 Q 262.222656 36.000000 261.766113 35.554199 Q 261.309570 35.108398 261.309570 34.018066 L 261.309570 30.752441 L 259.703613 30.752441 L 259.703613 29.984375 L 261.309570 29.984375 L 261.309570 28.276367 Z " fill="rgb(0, 0, 0)" fill-opacity="1.000000" />
<path d="M 269.297852 28.276367 L 269.297852 29.984375 L 271.542969 29.984375 L 271.542969 30.752441 L 269.297852 30.752441 L 269.297852 34.018066 Q 269.297852 34.684082 269.550293 34.947266 Q 269.802734 35.210449 270.431152 35.210449 L 271.542969 35.210449 L 271.542969 36.000000 L 270.334473 36.000000 Q 269.222656 36.000000 268.766113 35.554199 Q 268.309570 35.108398 268.309570 34.018066 L 268.309570 30.752441 L 266.703613 30.752441 L 266.703613 29.984375 L 268.309570 29.984375 L 268.309570 28.276367 Z " fill="rgb(0, 0, 0)" fill-opacity="1.000000" />
<path d="M 279.015625 32.498047 L 279.015625 32.981445 L 274.734863 32.981445 L 274.734863 33.013672 Q 274.691895 34.243652 275.204834 34.780762 Q 275.717773 35.317871 276.652344 35.317871 Q 277.125000 35.317871 277.640625 35.167480 Q 278.156250 35.017090 278.741699 34.710938 L 278.741699 35.693848 Q 278.177734 35.924805 277.654053 36.040283 Q 277.130371 36.155762 276.641602 36.155762 Q 275.239746 36.155762 274.450195 35.315186 Q 273.660645 34.474609 273.660645 32.997559 Q 273.660645 31.558105 274.434082 30.698730 Q 275.207520 29.839355 276.496582 29.839355 Q 277.645996 29.839355 278.309326 30.618164 Q 278.972656 31.396973 279.015625 32.498047 Z M 278.027344 32.208008 Q 277.962891 31.584961 277.573486 31.131104 Q 277.184082 30.677246 276.453613 30.677246 Q 275.739258 30.677246 275.277344 31.149902 Q 274.815430 31.622559 274.772461 32.213379 Z " fill="rgb(0, 0, 0)" fill-opacity="1.000000" />
<path d="M 284.608398 30.752441 L 284.608398 27.642578 L 285.596680 27.642578 L 285.596680 36.000000 L 284.608398 36.000000 L 284.608398 35.242676 Q 284.361328 35.688477 283.950439 35.922119 Q 283.539551 36.155762 283.002441 36.155762 Q 281.912109 36.155762 281.286377 35.309814 Q 280.660645 34.463867 280.660645 32.976074 Q 280.660645 31.509766 281.289062 30.674561 Q 281.917480 29.839355 283.002441 29.839355 Q 283.544922 29.839355 283.958496 30.072998 Q 284.372070 30.306641 284.608398 30.752441 Z M 281.702637 32.997559 Q 281.702637 34.146973 282.067871 34.732422 Q 282.433105 35.317871 283.147461 35.317871 Q 283.861816 35.317871 284.235107 34.727051 Q 284.608398 34.136230 284.608398 32.997559 Q 284.608398 31.853516 284.235107 31.265381 Q 283.861816 30.677246 283.147461 30.677246 Q 282.433105 30.677246 282.067871 31.262695 Q 281.702637 31.848145 281.702637 32.997559 Z " fill="rgb(0, 0, 0)" fill-opacity="1.000000" />
<path d="M 296.878906 39.319336 L 296.878906 25.300781 L 297.738281 25.300781 L 297.738281 39.319336 Z " fill="rgb(0, 0, 0)" fill-opacity="1.000000" />
<path d="M 373.878906 39.319336 L 373.878906 25.300781 L 374.738281 25.300781 L 374.738281 39.319336 Z " fill="rgb(0, 0, 0)" fill-opacity="1.000000" />
<path d="M 383.226074 30.193848 L 383.226074 31.160645 Q 382.801758 30.913574 382.372070 30.790039 Q 381.942383 30.666504 381.496582 30.666504 Q 380.825195 30.666504 380.494873 30.884033 Q 380.164551 31.101562 380.164551 31.547363 Q 380.164551 31.950195 380.411621 32.148926 Q 380.658691 32.347656 381.641602 32.535645 L 382.039062 32.610840 Q 382.774902 32.750488 383.153564 33.169434 Q 383.532227 33.588379 383.532227 34.259766 Q 383.532227 35.151367 382.898438 35.653564 Q 382.264648 36.155762 381.136719 36.155762 Q 380.690918 36.155762 380.202148 36.061768 Q 379.713379 35.967773 379.144043 35.779785 L 379.144043 34.759277 Q 379.697266 35.043945 380.202148 35.186279 Q 380.707031 35.328613 381.158203 35.328613 Q 381.813477 35.328613 382.173340 35.062744 Q 382.533203 34.796875 382.533203 34.318848 Q 382.533203 33.631348 381.217285 33.368164 L 381.174316 33.357422 L 380.803711 33.282227 Q 379.949707 33.115723 379.557617 32.720947 Q 379.165527 32.326172 379.165527 31.644043 Q 379.165527 30.779297 379.750977 30.309326 Q 380.336426 29.839355 381.421387 29.839355 Q 381.904785 29.839355 382.350586 29.927979 Q 382.796387 30.016602 383.226074 30.193848 Z " fill="rgb(0, 0, 0)" fill-opacity="1.000000" />
<path d="M 388.770508 32.976074 L 388.442871 32.976074 Q 387.578125 32.976074 387.140381 33.279541 Q 386.702637 33.583008 386.702637 34.184570 Q 386.702637 34.727051 387.030273 35.027832 Q 387.357910 35.328613 387.937988 35.328613 Q 388.754395 35.328613 389.221680 34.761963 Q 389.688965 34.195312 389.694336 33.196289 L 389.694336 32.976074 Z M 390.687988 32.567871 L 390.687988 36.000000 L 389.694336 36.000000 L 389.694336 35.108398 Q 389.377441 35.645508 388.896729 35.900635 Q 388.416016 36.155762 387.728516 36.155762 Q 386.810059 36.155762 386.262207 35.637451 Q 385.714355 35.119141 385.714355 34.249023 Q 385.714355 33.244629 386.388428 32.723633 Q 387.062500 32.202637 388.367676 32.202637 L 389.694336 32.202637 L 389.694336 32.046875 Q 389.688965 31.327148 389.329102 31.002197 Q 388.969238 30.677246 388.179688 30.677246 Q 387.674805 30.677246 387.159180 30.822266 Q 386.643555 30.967285 386.154785 31.246582 L 386.154785 30.258301 Q 386.702637 30.048828 387.204834 29.944092 Q 387.707031 29.839355 388.179688 29.839355 Q 388.926270 29.839355 389.455322 30.059570 Q 389.984375 30.279785 390.312012 30.720215 Q 390.516113 30.988770 390.602051 31.383545 Q 390.687988 31.778320 390.687988 32.567871 Z " fill="rgb(0, 0, 0)" fill-opacity="1.000000" />
<path d="M 392.537109 29.984375 L 393.562988 29.984375 L 395.308594 35.033203 L 397.059570 29.984375 L 398.085449 29.984375 L 395.947754 36.000000 L 394.674805 36.000000 Z " fill="rgb(0, 0, 0)" fill-opacity="1.000000" />
<path d="M 405.015625 32.498047 L 405.015625 32.981445 L 400.734863 32.981445 L 400.734863 33.013672 Q 400.691895 34.243652 401.204834 34.780762 Q 401.717773 35.317871 402.652344 35.317871 Q 403.125000 35.317871 403.640625 35.167480 Q 404.156250 35.017090 404.741699 34.710938 L 404.741699 35.693848 Q 404.177734 35.924805 403.654053 36.040283 Q 403.130371 36.155762 402.641602 36.155762 Q 401.239746 36.155762 400.450195 35.315186 Q 399.660645 34.474609 399.660645 32.997559 Q 399.660645 31.558105 400.434082 30.698730 Q 401.207520 29.839355 402.496582 29.839355 Q 403.645996 29.839355 404.309326 30.618164 Q 404.972656 31.396973 405.015625 32.498047 Z M 404.027344 32.208008 Q 403.962891 31.584961 403.573486 31.131104 Q 403.184082 30.677246 402.453613 30.677246 Q 401.739258 30.677246 401.277344 31.149902 Q 400.815430 31.622559 400.772461 32.213379 Z " fill="rgb(0, 0, 0)" fill-opacity="1.000000" />
<path d="M 410.608398 30.752441 L 410.608398 27.642578 L 411.596680 27.642578 L 411.596680 36.000000 L 410.608398 36.000000 L 410.608398 35.242676 Q 410.361328 35.688477 409.950439 35.922119 Q 409.539551 36.155762 409.002441 36.155762 Q 407.912109 36.155762 407.286377 35.309814 Q 406.660645 34.463867 406.660645 32.976074 Q 406.660645 31.509766 407.289062 30.674561 Q 407.917480 29.839355 409.002441 29.839355 Q 409.544922 29.839355 409.958496 30.072998 Q 410.372070 30.306641 410.608398 30.752441 Z M 407.702637 32.997559 Q 407.702637 34.146973 408.067871 34.732422 Q 408.433105 35.317871 409.147461 35.317871 Q 409.861816 35.317871 410.235107 34.727051 Q 410.608398 34.136230 410.608398 32.997559 Q 410.608398 31.853516 410.235107 31.265381 Q 409.861816 30.677246 409.147461 30.677246 Q 408.433105 30.677246 408.067871 31.262695 Q 407.702637 31.848145 407.702637 32.997559 Z " fill="rgb(0, 0, 0)" fill-opacity="1.000000" />
<path d="M 415.878906 39.319336 L 415.878906 25.300781 L 416.738281 25.300781 L 416.738281 39.319336 Z " fill="rgb(0, 0, 0)" fill-opacity="1.000000" />
<path d="M 429.878906 39.319336 L 429.878906 25.300781 L 430.738281 25.300781 L 430.738281 39.319336 Z " fill="rgb(0, 0, 0)" fill-opacity="1.000000" />
<path d="M 439.226074 30.193848 L 439.226074 31.160645 Q 438.801758 30.913574 438.372070 30.790039 Q 437.942383 30.666504 437.496582 30.666504 Q 436.825195 30.666504 436.494873 30.884033 Q 436.164551 31.101562 436.164551 31.547363 Q 436.164551 31.950195 436.411621 32.148926 Q 436.658691 32.347656 437.641602 32.535645 L 438.039062 32.610840 Q 438.774902 32.750488 439.153564 33.169434 Q 439.532227 33.588379 439.532227 34.259766 Q 439.532227 35.151367 438.898438 35.653564 Q 438.264648 36.155762 437.136719 36.155762 Q 436.690918 36.155762 436.202148 36.061768 Q 435.713379 35.967773 435.144043 35.779785 L 435.144043 34.759277 Q 435.697266 35.043945 436.202148 35.186279 Q 436.707031 35.328613 437.158203 35.328613 Q 437.813477 35.328613 438.173340 35.062744 Q 438.533203 34.796875 438.533203 34.318848 Q 438.533203 33.631348 437.217285 33.368164 L 437.174316 33.357422 L 436.803711 33.282227 Q 435.949707 33.115723 435.557617 32.720947 Q 435.165527 32.326172 435.165527 31.644043 Q 435.165527 30.779297 435.750977 30.309326 Q 436.336426 29.839355 437.421387 29.839355 Q 437.904785 29.839355 438.350586 29.927979 Q 438.796387 30.016602 439.226074 30.193848 Z " fill="rgb(0, 0, 0)" fill-opacity="1.000000" />
<path d="M 444.770508 32.976074 L 444.442871 32.976074 Q 443.578125 32.976074 443.140381 33.279541 Q 442.702637 33.583008 442.702637 34.184570 Q 442.702637 34.727051 443.030273 35.027832 Q 443.357910 35.328613 443.937988 35.328613 Q 444.754395 35.328613 445.221680 34.761963 Q 445.688965 34.195312 445.694336 33.196289 L 445.694336 32.976074 Z M 446.687988 32.567871 L 446.687988 36.000000 L 445.694336 36.000000 L 445.694336 35.108398 Q 445.377441 35.645508 444.896729 35.900635 Q 444.416016 36.155762 443.728516 36.155762 Q 442.810059 36.155762 442.262207 35.637451 Q 441.714355 35.119141 441.714355 34.249023 Q 441.714355 33.244629 442.388428 32.723633 Q 443.062500 32.202637 444.367676 32.202637 L 445.694336 32.202637 L 445.694336 32.046875 Q 445.688965 31.327148 445.329102 31.002197 Q 444.969238 30.677246 444.179688 30.677246 Q 443.674805 30.677246 443.159180 30.822266 Q 442.643555 30.967285 442.154785 31.246582 L 442.154785 30.258301 Q 442.702637 30.048828 443.204834 29.944092 Q 443.707031 29.839355 444.179688 29.839355 Q 444.926270 29.839355 445.455322 30.059570 Q 445.984375 30.279785 446.312012 30.720215 Q 446.516113 30.988770 446.602051 31.383545 Q 446.687988 31.778320 446.687988 32.567871 Z " fill="rgb(0, 0, 0)" fill-opacity="1.000000" />
<path d="M 448.537109 29.984375 L 449.562988 29.984375 L 451.308594 35.033203 L 453.059570 29.984375 L 454.085449 29.984375 L 451.947754 36.000000 L 450.674805 36.000000 Z " fill="rgb(0, 0, 0)" fill-opacity="1.000000" />
<path d="M 461.015625 32.498047 L 461.015625 32.981445 L 456.734863 32.981445 L 456.734863 33.013672 Q 456.691895 34.243652 457.204834 34.780762 Q 457.717773 35.317871 458.652344 35.317871 Q 459.125000 35.317871 459.640625 35.167480 Q 460.156250 35.017090 460.741699 34.710938 L 460.741699 35.693848 Q 460.177734 35.924805 459.654053 36.040283 Q 459.130371 36.155762 458.641602 36.155762 Q 457.239746 36.155762 456.450195 35.315186 Q 455.660645 34.474609 455.660645 32.997559 Q 455.660645 31.558105 456.434082 30.698730 Q 457.207520 29.839355 458.496582 29.839355 Q 459.645996 29.839355 460.309326 30.618164 Q 460.972656 31.396973 461.015625 32.498047 Z M 460.027344 32.208008 Q 459.962891 31.584961 459.573486 31.131104 Q 459.184082 30.677246 458.453613 30.677246 Q 457.739258 30.677246 457.277344 31.149902 Q 456.815430 31.622559 456.772461 32.213379 Z " fill="rgb(0, 0, 0)" fill-opacity="1.000000" />
<path d="M 466.608398 30.752441 L 466.608398 27.642578 L 467.596680 27.642578 L 467.596680 36.000000 L 466.608398 36.000000 L 466.608398 35.242676 Q 466.361328 35.688477 465.950439 35.922119 Q 465.539551 36.155762 465.002441 36.155762 Q 463.912109 36.155762 463.286377 35.309814 Q 462.660645 34.463867 462.660645 32.976074 Q 462.660645 31.509766 463.289062 30.674561 Q 463.917480 29.839355 465.002441 29.839355 Q 465.544922 29.839355 465.958496 30.072998 Q 466.372070 30.306641 466.608398 30.752441 Z M 463.702637 32.997559 Q 463.702637 34.146973 464.067871 34.732422 Q 464.433105 35.317871 465.147461 35.317871 Q 465.861816 35.317871 466.235107 34.727051 Q 466.608398 34.136230 466.608398 32.997559 Q 466.608398 31.853516 466.235107 31.265381 Q 465.861816 30.677246 465.147461 30.677246 Q 464.433105 30.677246 464.067871 31.262695 Q 463.702637 31.848145 463.702637 32.997559 Z " fill="rgb(0, 0, 0)" fill-opacity="1.000000" />
<path d="M 471.878906 39.319336 L 471.878906 25.300781 L 472.738281 25.300781 L 472.738281 39.319336 Z " fill="rgb(0, 0, 0)" fill-opacity="1.000000" />
<path d="M 80.770508 19.976074 L 80.442871 19.976074 Q 79.578125 19.976074 79.140381 20.279541 Q 78.702637 20.583008 78.702637 21.184570 Q 78.702637 21.727051 79.030273 22.027832 Q 79.357910 22.328613 79.937988 22.328613 Q 80.754395 22.328613 81.221680 21.761963 Q 81.688965 21.195312 81.694336 20.196289 L 81.694336 19.976074 Z M 82.687988 19.567871 L 82.687988 23.000000 L 81.694336 23.000000 L 81.694336 22.108398 Q 81.377441 22.645508 80.896729 22.900635 Q 80.416016 23.155762 79.728516 23.155762 Q 78.810059 23.155762 78.262207 22.637451 Q 77.714355 22.119141 77.714355 21.249023 Q 77.714355 20.244629 78.388428 19.723633 Q 79.062500 19.202637 80.367676 19.202637 L 81.694336 19.202637 L 81.694336 19.046875 Q 81.688965 18.327148 81.329102 18.002197 Q 80.969238 17.677246 80.179688 17.677246 Q 79.674805 17.677246 79.159180 17.822266 Q 78.643555 17.967285 78.154785 18.246582 L 78.154785 17.258301 Q 78.702637 17.048828 79.204834 16.944092 Q 79.707031 16.839355 80.179688 16.839355 Q 80.926270 16.839355 81.455322 17.059570 Q 81.984375 17.279785 82.312012 17.720215 Q 82.516113 17.988770 82.602051 18.383545 Q 82.687988 18.778320 82.687988 19.567871 Z " fill="rgb(0, 0, 0)" fill-opacity="1.000000" />
<path d="M 87.297852 15.276367 L 87.297852 16.984375 L 89.542969 16.984375 L 89.542969 17.752441 L 87.297852 17.752441 L 87.297852 21.018066 Q 87.297852 21.684082 87.550293 21.947266 Q 87.802734 22.210449 88.431152 22.210449 L 89.542969 22.210449 L 89.542969 23.000000 L 88.334473 23.000000 Q 87.222656 23.000000 86.766113 22.554199 Q 86.309570 22.108398 86.309570 21.018066 L 86.309570 17.752441 L 84.703613 17.752441 L 84.703613 16.984375 L 86.309570 16.984375 L 86.309570 15.276367 Z " fill="rgb(0, 0, 0)" fill-opacity="1.000000" />
<path d="M 92.047363 20.722656 L 92.047363 16.995117 L 93.035645 16.995117 L 93.035645 20.722656 Q 93.035645 21.533691 93.322998 21.915039 Q 93.610352 22.296387 94.211914 22.296387 Q 94.910156 22.296387 95.280762 21.804932 Q 95.651367 21.313477 95.651367 20.395020 L 95.651367 16.995117 L 96.645020 16.995117 L 96.645020 23.000000 L 95.651367 23.000000 L 95.651367 22.097656 Q 95.388184 22.618652 94.934326 22.887207 Q 94.480469 23.155762 93.873535 23.155762 Q 92.949707 23.155762 92.498535 22.551514 Q 92.047363 21.947266 92.047363 20.722656 Z " fill="rgb(0, 0, 0)" fill-opacity="1.000000" />
<path d="M 101.630859 17.596680 Q 101.813477 17.209961 102.095459 17.024658 Q 102.377441 16.839355 102.774902 16.839355 Q 103.500000 16.839355 103.798096 17.400635 Q 104.096191 17.961914 104.096191 19.514160 L 104.096191 23.000000 L 103.193848 23.000000 L 103.193848 19.557129 Q 103.193848 18.284180 103.051514 17.975342 Q 102.909180 17.666504 102.533203 17.666504 Q 102.103516 17.666504 101.945068 17.996826 Q 101.786621 18.327148 101.786621 19.557129 L 101.786621 23.000000 L 100.884277 23.000000 L 100.884277 19.557129 Q 100.884277 18.268066 100.731201 17.967285 Q 100.578125 17.666504 100.180664 17.666504 Q 99.788574 17.666504 99.635498 17.996826 Q 99.482422 18.327148 99.482422 19.557129 L 99.482422 23.000000 L 98.585449 23.000000 L 98.585449 16.984375 L 99.482422 16.984375 L 99.482422 17.500000 Q 99.659668 17.177734 99.925537 17.008545 Q 100.191406 16.839355 100.529785 16.839355 Q 100.937988 16.839355 101.209229 17.027344 Q 101.480469 17.215332 101.630859 17.596680 Z " fill="rgb(0, 0, 0)" fill-opacity="1.000000" />
<path d="M 107.878906 26.319336 L 107.878906 12.300781 L 108.738281 12.300781 L 108.738281 26.319336 Z " fill="rgb(0, 0, 0)" fill-opacity="1.000000" />
<path d="M 121.878906 26.319336 L 121.878906 12.300781 L 122.738281 12.300781 L 122.738281 26.319336 Z " fill="rgb(0, 0, 0)" fill-opacity="1.000000" />
<path d="M 130.608398 17.752441 L 130.608398 14.642578 L 131.596680 14.642578 L 131.596680 23.000000 L 130.608398 23.000000 L 130.608398 22.242676 Q 130.361328 22.688477 129.950439 22.922119 Q 129.539551 23.155762 129.002441 23.155762 Q 127.912109 23.155762 127.286377 22.309814 Q 126.660645 21.463867 126.660645 19.976074 Q 126.660645 18.509766 127.289062 17.674561 Q 127.917480 16.839355 129.002441 16.839355 Q 129.544922 16.839355 129.958496 17.072998 Q 130.372070 17.306641 130.608398 17.752441 Z M 127.702637 19.997559 Q 127.702637 21.146973 128.067871 21.732422 Q 128.433105 22.317871 129.147461 22.317871 Q 129.861816 22.317871 130.235107 21.727051 Q 130.608398 21.136230 130.608398 19.997559 Q 130.608398 18.853516 130.235107 18.265381 Q 129.861816 17.677246 129.147461 17.677246 Q 128.433105 17.677246 128.067871 18.262695 Q 127.702637 18.848145 127.702637 19.997559 Z " fill="rgb(0, 0, 0)" fill-opacity="1.000000" />
<path d="M 136.770508 19.976074 L 136.442871 19.976074 Q 135.578125 19.976074 135.140381 20.279541 Q 134.702637 20.583008 134.702637 21.184570 Q 134.702637 21.727051 135.030273 22.027832 Q 135.357910 22.328613 135.937988 22.328613 Q 136.754395 22.328613 137.221680 21.761963 Q 137.688965 21.195312 137.694336 20.196289 L 137.694336 19.976074 Z M 138.687988 19.567871 L 138.687988 23.000000 L 137.694336 23.000000 L 137.694336 22.108398 Q 137.377441 22.645508 136.896729 22.900635 Q 136.416016 23.155762 135.728516 23.155762 Q 134.810059 23.155762 134.262207 22.637451 Q 133.714355 22.119141 133.714355 21.249023 Q 133.714355 20.244629 134.388428 19.723633 Q 135.062500 19.202637 136.367676 19.202637 L 137.694336 19.202637 L 137.694336 19.046875 Q 137.688965 18.327148 137.329102 18.002197 Q 136.969238 17.677246 136.179688 17.677246 Q 135.674805 17.677246 135.159180 17.822266 Q 134.643555 17.967285 134.154785 18.246582 L 134.154785 17.258301 Q 134.702637 17.048828 135.204834 16.944092 Q 135.707031 16.839355 136.179688 16.839355 Q 136.926270 16.839355 137.455322 17.059570 Q 137.984375 17.279785 138.312012 17.720215 Q 138.516113 17.988770 138.602051 18.383545 Q 138.687988 18.778320 138.687988 19.567871 Z " fill="rgb(0, 0, 0)" fill-opacity="1.000000" />
<path d="M 143.297852 15.276367 L 143.297852 16.984375 L 145.542969 16.984375 L 145.542969 17.752441 L 143.297852 17.752441 L 143.297852 21.018066 Q 143.297852 21.684082 143.550293 21.947266 Q 143.802734 22.210449 144.431152 22.210449 L 145.542969 22.210449 L 145.542969 23.000000 L 144.334473 23.000000 Q 143.222656 23.000000 142.766113 22.554199 Q 142.309570 22.108398 142.309570 21.018066 L 142.309570 17.752441 L 140.703613 17.752441 L 140.703613 16.984375 L 142.309570 16.984375 L 142.309570 15.276367 Z " fill="rgb(0, 0, 0)" fill-opacity="1.000000" />
<path d="M 148.047363 20.722656 L 148.047363 16.995117 L 149.035645 16.995117 L 149.035645 20.722656 Q 149.035645 21.533691 149.322998 21.915039 Q 149.610352 22.296387 150.211914 22.296387 Q 150.910156 22.296387 151.280762 21.804932 Q 151.651367 21.313477 151.651367 20.395020 L 151.651367 16.995117 L 152.645020 16.995117 L 152.645020 23.000000 L 151.651367 23.000000 L 151.651367 22.097656 Q 151.388184 22.618652 150.934326 22.887207 Q 150.480469 23.155762 149.873535 23.155762 Q 148.949707 23.155762 148.498535 22.551514 Q 148.047363 21.947266 148.047363 20.722656 Z " fill="rgb(0, 0, 0)" fill-opacity="1.000000" />
<path d="M 157.630859 17.596680 Q 157.813477 17.209961 158.095459 17.024658 Q 158.377441 16.839355 158.774902 16.839355 Q 159.500000 16.839355 159.798096 17.400635 Q 160.096191 17.961914 160.096191 19.514160 L 160.096191 23.000000 L 159.193848 23.000000 L 159.193848 19.557129 Q 159.193848 18.284180 159.051514 17.975342 Q 158.909180 17.666504 158.533203 17.666504 Q 158.103516 17.666504 157.945068 17.996826 Q 157.786621 18.327148 157.786621 19.557129 L 157.786621 23.000000 L 156.884277 23.000000 L 156.884277 19.557129 Q 156.884277 18.268066 156.731201 17.967285 Q 156.578125 17.666504 156.180664 17.666504 Q 155.788574 17.666504 155.635498 17.996826 Q 155.482422 18.327148 155.482422 19.557129 L 155.482422 23.000000 L 154.585449 23.000000 L 154.585449 16.984375 L 155.482422 16.984375 L 155.482422 17.500000 Q 155.659668 17.177734 155.925537 17.008545 Q 156.191406 16.839355 156.529785 16.839355 Q 156.937988 16.839355 157.209229 17.027344 Q 157.480469 17.215332 157.630859 17.596680 Z " fill="rgb(0, 0, 0)" fill-opacity="1.000000" />
<path d="M 163.878906 26.319336 L 163.878906 12.300781 L 164.738281 12.300781 L 164.738281 26.319336 Z " fill="rgb(0, 0, 0)" fill-opacity="1.000000" />
<path d="M 226.878906 26.319336 L 226.878906 12.300781 L 227.738281 12.300781 L 227.738281 26.319336 Z " fill="rgb(0, 0, 0)" fill-opacity="1.000000" />
<path d="M 255.222656 23.107422 L 255.222656 17.752441 L 253.520020 17.752441 L 253.520020 16.984375 L 256.210938 16.984375 L 256.210938 23.107422 Q 256.210938 24.154785 255.730225 24.721436 Q 255.249512 25.288086 254.363281 25.288086 L 252.999023 25.288086 L 252.999023 24.450195 L 254.255859 24.450195 Q 254.739258 24.450195 254.980957 24.114502 Q 255.222656 23.778809 255.222656 23.107422 Z M 255.222656 14.642578 L 256.210938 14.642578 L 256.210938 15.894043 L 255.222656 15.894043 Z " fill="rgb(0, 0, 0)" fill-opacity="1.000000" />
<path d="M 262.308594 17.677246 Q 261.556641 17.677246 261.169922 18.262695 Q 260.783203 18.848145 260.783203 19.997559 Q 260.783203 21.141602 261.169922 21.729736 Q 261.556641 22.317871 262.308594 22.317871 Q 263.065918 22.317871 263.452637 21.729736 Q 263.839355 21.141602 263.839355 19.997559 Q 263.839355 18.848145 263.452637 18.262695 Q 263.065918 17.677246 262.308594 17.677246 Z M 262.308594 16.839355 Q 263.560059 16.839355 264.223389 17.650391 Q 264.886719 18.461426 264.886719 19.997559 Q 264.886719 21.539062 264.226074 22.347412 Q 263.565430 23.155762 262.308594 23.155762 Q 261.057129 23.155762 260.396484 22.347412 Q 259.735840 21.539062 259.735840 19.997559 Q 259.735840 18.461426 260.396484 17.650391 Q 261.057129 16.839355 262.308594 16.839355 Z " fill="rgb(0, 0, 0)" fill-opacity="1.000000" />
<path d="M 270.930664 19.997559 Q 270.930664 18.848145 270.565430 18.262695 Q 270.200195 17.677246 269.485840 17.677246 Q 268.766113 17.677246 268.395508 18.265381 Q 268.024902 18.853516 268.024902 19.997559 Q 268.024902 21.136230 268.395508 21.727051 Q 268.766113 22.317871 269.485840 22.317871 Q 270.200195 22.317871 270.565430 21.732422 Q 270.930664 21.146973 270.930664 19.997559 Z M 268.024902 17.752441 Q 268.261230 17.312012 268.677490 17.075684 Q 269.093750 16.839355 269.641602 16.839355 Q 270.726562 16.839355 271.349609 17.674561 Q 271.972656 18.509766 271.972656 19.976074 Q 271.972656 21.463867 271.346924 22.309814 Q 270.721191 23.155762 269.630859 23.155762 Q 269.093750 23.155762 268.682861 22.922119 Q 268.271973 22.688477 268.024902 22.242676 L 268.024902 23.000000 L 267.036621 23.000000 L 267.036621 14.642578 L 268.024902 14.642578 Z " fill="rgb(0, 0, 0)" fill-opacity="1.000000" />
<path d="M 296.878906 26.319336 L 296.878906 12.300781 L 297.738281 12.300781 L 297.738281 26.319336 Z " fill="rgb(0, 0, 0)" fill-opacity="1.000000" />
<path d="M 373.878906 26.319336 L 373.878906 12.300781 L 374.738281 12.300781 L 374.738281 26.319336 Z " fill="rgb(0, 0, 0)" fill-opacity="1.000000" />
<path d="M 382.608398 17.752441 L 382.608398 14.642578 L 383.596680 14.642578 L 383.596680 23.000000 L 382.608398 23.000000 L 382.608398 22.242676 Q 382.361328 22.688477 381.950439 22.922119 Q 381.539551 23.155762 381.002441 23.155762 Q 379.912109 23.155762 379.286377 22.309814 Q 378.660645 21.463867 378.660645 19.976074 Q 378.660645 18.509766 379.289062 17.674561 Q 379.917480 16.839355 381.002441 16.839355 Q 381.544922 16.839355 381.958496 17.072998 Q 382.372070 17.306641 382.608398 17.752441 Z M 379.702637 19.997559 Q 379.702637 21.146973 380.067871 21.732422 Q 380.433105 22.317871 381.147461 22.317871 Q 381.861816 22.317871 382.235107 21.727051 Q 382.608398 21.136230 382.608398 19.997559 Q 382.608398 18.853516 382.235107 18.265381 Q 381.861816 17.677246 381.147461 17.677246 Q 380.433105 17.677246 380.067871 18.262695 Q 379.702637 18.848145 379.702637 19.997559 Z " fill="rgb(0, 0, 0)" fill-opacity="1.000000" />
<path d="M 388.770508 19.976074 L 388.442871 19.976074 Q 387.578125 19.976074 387.140381 20.279541 Q 386.702637 20.583008 386.702637 21.184570 Q 386.702637 21.727051 387.030273 22.027832 Q 387.357910 22.328613 387.937988 22.328613 Q 388.754395 22.328613 389.221680 21.761963 Q 389.688965 21.195312 389.694336 20.196289 L 389.694336 19.976074 Z M 390.687988 19.567871 L 390.687988 23.000000 L 389.694336 23.000000 L 389.694336 22.108398 Q 389.377441 22.645508 388.896729 22.900635 Q 388.416016 23.155762 387.728516 23.155762 Q 386.810059 23.155762 386.262207 22.637451 Q 385.714355 22.119141 385.714355 21.249023 Q 385.714355 20.244629 386.388428 19.723633 Q 387.062500 19.202637 388.367676 19.202637 L 389.694336 19.202637 L 389.694336 19.046875 Q 389.688965 18.327148 389.329102 18.002197 Q 388.969238 17.677246 388.179688 17.677246 Q 387.674805 17.677246 387.159180 17.822266 Q 386.643555 17.967285 386.154785 18.246582 L 386.154785 17.258301 Q 386.702637 17.048828 387.204834 16.944092 Q 387.707031 16.839355 388.179688 16.839355 Q 388.926270 16.839355 389.455322 17.059570 Q 389.984375 17.279785 390.312012 17.720215 Q 390.516113 17.988770 390.602051 18.383545 Q 390.687988 18.778320 390.687988 19.567871 Z " fill="rgb(0, 0, 0)" fill-opacity="1.000000" />
<path d="M 395.297852 15.276367 L 395.297852 16.984375 L 397.542969 16.984375 L 397.542969 17.752441 L 395.297852 17.752441 L 395.297852 21.018066 Q 395.297852 21.684082 395.550293 21.947266 Q 395.802734 22.210449 396.431152 22.210449 L 397.542969 22.210449 L 397.542969 23.000000 L 396.334473 23.000000 Q 395.222656 23.000000 394.766113 22.554199 Q 394.309570 22.108398 394.309570 21.018066 L 394.309570 17.752441 L 392.703613 17.752441 L 392.703613 16.984375 L 394.309570 16.984375 L 394.309570 15.276367 Z " fill="rgb(0, 0, 0)" fill-opacity="1.000000" />
<path d="M 400.047363 20.722656 L 400.047363 16.995117 L 401.035645 16.995117 L 401.035645 20.722656 Q 401.035645 21.533691 401.322998 21.915039 Q 401.610352 22.296387 402.211914 22.296387 Q 402.910156 22.296387 403.280762 21.804932 Q 403.651367 21.313477 403.651367 20.395020 L 403.651367 16.995117 L 404.645020 16.995117 L 404.645020 23.000000 L 403.651367 23.000000 L 403.651367 22.097656 Q 403.388184 22.618652 402.934326 22.887207 Q 402.480469 23.155762 401.873535 23.155762 Q 400.949707 23.155762 400.498535 22.551514 Q 400.047363 21.947266 400.047363 20.722656 Z " fill="rgb(0, 0, 0)" fill-opacity="1.000000" />
<path d="M 409.630859 17.596680 Q 409.813477 17.209961 410.095459 17.024658 Q 410.377441 16.839355 410.774902 16.839355 Q 411.500000 16.839355 411.798096 17.400635 Q 412.096191 17.961914 412.096191 19.514160 L 412.096191 23.000000 L 411.193848 23.000000 L 411.193848 19.557129 Q 411.193848 18.284180 411.051514 17.975342 Q 410.909180 17.666504 410.533203 17.666504 Q 410.103516 17.666504 409.945068 17.996826 Q 409.786621 18.327148 409.786621 19.557129 L 409.786621 23.000000 L 408.884277 23.000000 L 408.884277 19.557129 Q 408.884277 18.268066 408.731201 17.967285 Q 408.578125 17.666504 408.180664 17.666504 Q 407.788574 17.666504 407.635498 17.996826 Q 407.482422 18.327148 407.482422 19.557129 L 407.482422 23.000000 L 406.585449 23.000000 L 406.585449 16.984375 L 407.482422 16.984375 L 407.482422 17.500000 Q 407.659668 17.177734 407.925537 17.008545 Q 408.191406 16.839355 408.529785 16.839355 Q 408.937988 16.839355 409.209229 17.027344 Q 409.480469 17.215332 409.630859 17.596680 Z " fill="rgb(0, 0, 0)" fill-opacity="1.000000" />
<path d="M 415.878906 26.319336 L 415.878906 12.300781 L 416.738281 12.300781 L 416.738281 26.319336 Z " fill="rgb(0, 0, 0)" fill-opacity="1.000000" />
<path d="M 429.878906 26.319336 L 429.878906 12.300781 L 430.738281 12.300781 L 430.738281 26.319336 Z " fill="rgb(0, 0, 0)" fill-opacity="1.000000" />
<path d="M 438.608398 17.752441 L 438.608398 14.642578 L 439.596680 14.642578 L 439.596680 23.000000 L 438.608398 23.000000 L 438.608398 22.242676 Q 438.361328 22.688477 437.950439 22.922119 Q 437.539551 23.155762 437.002441 23.155762 Q 435.912109 23.155762 435.286377 22.309814 Q 434.660645 21.463867 434.660645 19.976074 Q 434.660645 18.509766 435.289062 17.674561 Q 435.917480 16.839355 437.002441 16.839355 Q 437.544922 16.839355 437.958496 17.072998 Q 438.372070 17.306641 438.608398 17.752441 Z M 435.702637 19.997559 Q 435.702637 21.146973 436.067871 21.732422 Q 436.433105 22.317871 437.147461 22.317871 Q 437.861816 22.317871 438.235107 21.727051 Q 438.608398 21.136230 438.608398 19.997559 Q 438.608398 18.853516 438.235107 18.265381 Q 437.861816 17.677246 437.147461 17.677246 Q 436.433105 17.677246 436.067871 18.262695 Q 435.702637 18.848145 435.702637 19.997559 Z " fill="rgb(0, 0, 0)" fill-opacity="1.000000" />
<path d="M 444.770508 19.976074 L 444.442871 19.976074 Q 443.578125 19.976074 443.140381 20.279541 Q 442.702637 20.583008 442.702637 21.184570 Q 442.702637 21.727051 443.030273 22.027832 Q 443.357910 22.328613 443.937988 22.328613 Q 444.754395 22.328613 445.221680 21.761963 Q 445.688965 21.195312 445.694336 20.196289 L 445.694336 19.976074 Z M 446.687988 19.567871 L 446.687988 23.000000 L 445.694336 23.000000 L 445.694336 22.108398 Q 445.377441 22.645508 444.896729 22.900635 Q 444.416016 23.155762 443.728516 23.155762 Q 442.810059 23.155762 442.262207 22.637451 Q 441.714355 22.119141 441.714355 21.249023 Q 441.714355 20.244629 442.388428 19.723633 Q 443.062500 19.202637 444.367676 19.202637 L 445.694336 19.202637 L 445.694336 19.046875 Q 445.688965 18.327148 445.329102 18.002197 Q 444.969238 17.677246 444.179688 17.677246 Q 443.674805 17.677246 443.159180 17.822266 Q 442.643555 17.967285 442.154785 18.246582 L 442.154785 17.258301 Q 442.702637 17.048828 443.204834 16.944092 Q 443.707031 16.839355 444.179688 16.839355 Q 444.926270 16.839355 445.455322 17.059570 Q 445.984375 17.279785 446.312012 17.720215 Q 446.516113 17.988770 446.602051 18.383545 Q 446.687988 18.778320 446.687988 19.567871 Z " fill="rgb(0, 0, 0)" fill-opacity="1.000000" />
<path d="M 451.297852 15.276367 L 451.297852 16.984375 L 453.542969 16.984375 L 453.542969 17.752441 L 451.297852 17.752441 L 451.297852 21.018066 Q 451.297852 21.684082 451.550293 21.947266 Q 451.802734 22.210449 452.431152 22.210449 L 453.542969 22.210449 L 453.542969 23.000000 L 452.334473 23.000000 Q 451.222656 23.000000 450.766113 22.554199 Q 450.309570 22.108398 450.309570 21.018066 L 450.309570 17.752441 L 448.703613 17.752441 L 448.703613 16.984375 L 450.309570 16.984375 L 450.309570 15.276367 Z " fill="rgb(0, 0, 0)" fill-opacity="1.000000" />
<path d="M 456.047363 20.722656 L 456.047363 16.995117 L 457.035645 16.995117 L 457.035645 20.722656 Q 457.035645 21.533691 457.322998 21.915039 Q 457.610352 22.296387 458.211914 22.296387 Q 458.910156 22.296387 459.280762 21.804932 Q 459.651367 21.313477 459.651367 20.395020 L 459.651367 16.995117 L 460.645020 16.995117 L 460.645020 23.000000 L 459.651367 23.000000 L 459.651367 22.097656 Q 459.388184 22.618652 458.934326 22.887207 Q 458.480469 23.155762 457.873535 23.155762 Q 456.949707 23.155762 456.498535 22.551514 Q 456.047363 21.947266 456.047363 20.722656 Z " fill="rgb(0, 0, 0)" fill-opacity="1.000000" />
<path d="M 465.630859 17.596680 Q 465.813477 17.209961 466.095459 17.024658 Q 466.377441 16.839355 466.774902 16.839355 Q 467.500000 16.839355 467.798096 17.400635 Q 468.096191 17.961914 468.096191 19.514160 L 468.096191 23.000000 L 467.193848 23.000000 L 467.193848 19.557129 Q 467.193848 18.284180 467.051514 17.975342 Q 466.909180 17.666504 466.533203 17.666504 Q 466.103516 17.666504 465.945068 17.996826 Q 465.786621 18.327148 465.786621 19.557129 L 465.786621 23.000000 L 464.884277 23.000000 L 464.884277 19.557129 Q 464.884277 18.268066 464.731201 17.967285 Q 464.578125 17.666504 464.180664 17.666504 Q 463.788574 17.666504 463.635498 17.996826 Q 463.482422 18.327148 463.482422 19.557129 L 463.482422 23.000000 L 462.585449 23.000000 L 462.585449 16.984375 L 463.482422 16.984375 L 463.482422 17.500000 Q 463.659668 17.177734 463.925537 17.008545 Q 464.191406 16.839355 464.529785 16.839355 Q 464.937988 16.839355 465.209229 17.027344 Q 465.480469 17.215332 465.630859 17.596680 Z " fill="rgb(0, 0, 0)" fill-opacity="1.000000" />
<path d="M 471.878906 26.319336 L 471.878906 12.300781 L 472.738281 12.300781 L 472.738281 26.319336 Z " fill="rgb(0, 0, 0)" fill-opacity="1.000000" />
<path d="M 69.892578 7.335938 L 69.892578 6.412109 L 76.729980 6.412109 L 76.729980 7.335938 Z " fill="rgb(0, 0, 0)" fill-opacity="1.000000" />
<path d="M 76.892578 7.335938 L 76.892578 6.412109 L 83.729980 6.412109 L 83.729980 7.335938 Z " fill="rgb(0, 0, 0)" fill-opacity="1.000000" />
<path d="M 83.892578 7.335938 L 83.892578 6.412109 L 90.729980 6.412109 L 90.729980 7.335938 Z " fill="rgb(0, 0, 0)" fill-opacity="1.000000" />
<path d="M 90.892578 7.335938 L 90.892578 6.412109 L 97.729980 6.412109 L 97.729980 7.335938 Z " fill="rgb(0, 0, 0)" fill-opacity="1.000000" />
<path d="M 97.892578 7.335938 L 97.892578 6.412109 L 104.729980 6.412109 L 104.729980 7.335938 Z " fill="rgb(0, 0, 0)" fill-opacity="1.000000" />
<path d="M 107.878906 13.319336 L 107.878906 7.335938 L 104.892578 7.335938 L 104.892578 6.412109 L 108.738281 6.412109 L 108.738281 13.319336 Z " fill="rgb(0, 0, 0)" fill-opacity="1.000000" />
<path d="M 121.878906 13.319336 L 121.878906 6.412109 L 125.729980 6.412109 L 125.729980 7.335938 L 122.738281 7.335938 L 122.738281 13.319336 Z " fill="rgb(0, 0, 0)" fill-opacity="1.000000" />
<path d="M 125.892578 7.335938 L 125.892578 6.412109 L 132.729980 6.412109 L 132.729980 7.335938 Z " fill="rgb(0, 0, 0)" fill-opacity="1.000000" />
<path d="M 132.892578 7.335938 L 132.892578 6.412109 L 139.729980 6.412109 L 139.729980 7.335938 Z " fill="rgb(0, 0, 0)" fill-opacity="1.000000" />
<path d="M 139.892578 7.335938 L 139.892578 6.412109 L 146.729980 6.412109 L 146.729980 7.335938 Z " fill="rgb(0, 0, 0)" fill-opacity="1.000000" />
<path d="M 146.892578 7.335938 L 146.892578 6.412109 L 153.729980 6.412109 L 153.729980 7.335938 Z " fill="rgb(0, 0, 0)" fill-opacity="1.000000" />
<path d="M 153.892578 7.335938 L 153.892578 6.412109 L 160.729980 6.412109 L 160.729980 7.335938 Z " fill="rgb(0, 0, 0)" fill-opacity="1.000000" />
<path d="M 163.878906 13.319336 L 163.878906 7.335938 L 160.892578 7.335938 L 160.892578 6.412109 L 164.738281 6.412109 L 164.738281 13.319336 Z " fill="rgb(0, 0, 0)" fill-opacity="1.000000" />
<path d="M 226.878906 13.319336 L 226.878906 6.412109 L 230.729980 6.412109 L 230.729980 7.335938 L 227.738281 7.335938 L 227.738281 13.319336 Z " fill="rgb(0, 0, 0)" fill-opacity="1.000000" />
<path d="M 230.892578 7.335938 L 230.892578 6.412109 L 237.729980 6.412109 L 237.729980 7.335938 Z " fill="rgb(0, 0, 0)" fill-opacity="1.000000" />
<path d="M 237.892578 7.335938 L 237.892578 6.412109 L 244.729980 6.412109 L 244.729980 7.335938 Z " fill="rgb(0, 0, 0)" fill-opacity="1.000000" />
<path d="M 244.892578 7.335938 L 244.892578 6.412109 L 251.729980 6.412109 L 251.729980 7.335938 Z " fill="rgb(0, 0, 0)" fill-opacity="1.000000" />
<path d="M 251.892578 7.335938 L 251.892578 6.412109 L 258.729980 6.412109 L 258.729980 7.335938 Z " fill="rgb(0, 0, 0)" fill-opacity="1.000000" />
<path d="M 258.892578 7.335938 L 258.892578 6.412109 L 265.729980 6.412109 L 265.729980 7.335938 Z " fill="rgb(0, 0, 0)" fill-opacity="1.000000" />
<path d="M 265.892578 7.335938 L 265.892578 6.412109 L 272.729980 6.412109 L 272.729980 7.335938 Z " fill="rgb(0, 0, 0)" fill-opacity="1.000000" />
<path d="M 272.892578 7.335938 L 272.892578 6.412109 L 279.729980 6.412109 L 279.729980 7.335938 Z " fill="rgb(0, 0, 0)" fill-opacity="1.000000" />
<path d="M 279.892578 7.335938 L 279.892578 6.412109 L 286.729980 6.412109 L 286.729980 7.335938 Z " fill="rgb(0, 0, 0)" fill-opacity="1.000000" />
<path d="M 286.892578 7.335938 L 286.892578 6.412109 L 293.729980 6.412109 L 293.729980 7.335938 Z " fill="rgb(0, 0, 0)" fill-opacity="1.000000" />
<path d="M 296.878906 13.319336 L 296.878906 7.335938 L 293.892578 7.335938 L 293.892578 6.412109 L 297.738281 6.412109 L 297.738281 13.319336 Z " fill="rgb(0, 0, 0)" fill-opacity="1.000000" />
<path d="M 373.878906 13.319336 L 373.878906 6.412109 L 377.729980 6.412109 L 377.729980 7.335938 L 374.738281 7.335938 L 374.738281 13.319336 Z " fill="rgb(0, 0, 0)" fill-opacity="1.000000" />
<path d="M 377.892578 7.335938 L 377.892578 6.412109 L 384.729980 6.412109 L 384.729980 7.335938 Z " fill="rgb(0, 0, 0)" fill-opacity="1.000000" />
<path d="M 384.892578 7.335938 L 384.892578 6.412109 L 391.729980 6.412109 L 391.729980 7.335938 Z " fill="rgb(0, 0, 0)" fill-opacity="1.000000" />
<path d="M 391.892578 7.335938 L 391.892578 6.412109 L 398.729980 6.412109 L 398.729980 7.335938 Z " fill="rgb(0, 0, 0)" fill-opacity="1.000000" />
<path d="M 398.892578 7.335938 L 398.892578 6.412109 L 405.729980 6.412109 L 405.729980 7.335938 Z " fill="rgb(0, 0, 0)" fill-opacity="1.000000" />
<path d="M 405.892578 7.335938 L 405.892578 6.412109 L 412.729980 6.412109 L 412.729980 7.335938 Z " fill="rgb(0, 0, 0)" fill-opacity="1.000000" />
<path d="M 415.878906 13.319336 L 415.878906 7.335938 L 412.892578 7.335938 L 412.892578 6.412109 L 416.738281 6.412109 L 416.738281 13.319336 Z " fill="rgb(0, 0, 0)" fill-opacity="1.000000" />
<path d="M 429.878906 13.319336 L 429.878906 6.412109 L 433.729980 6.412109 L 433.729980 7.335938 L 430.738281 7.335938 L 430.738281 13.319336 Z " fill="rgb(0, 0, 0)" fill-opacity="1.000000" />
<path d="M 433.892578 7.335938 L 433.892578 6.412109 L 440.729980 6.412109 L 440.729980 7.335938 Z " fill="rgb(0, 0, 0)" fill-opacity="1.000000" />
<path d="M 440.892578 7.335938 L 440.892578 6.412109 L 447.729980 6.412109 L 447.729980 7.335938 Z " fill="rgb(0, 0, 0)" fill-opacity="1.000000" />
<path d="M 447.892578 7.335938 L 447.892578 6.412109 L 454.729980 6.412109 L 454.729980 7.335938 Z " fill="rgb(0, 0, 0)" fill-opacity="1.000000" />
<path d="M 454.892578 7.335938 L 454.892578 6.412109 L 461.729980 6.412109 L 461.729980 7.335938 Z " fill="rgb(0, 0, 0)" fill-opacity="1.000000" />
<path d="M 461.892578 7.335938 L 461.892578 6.412109 L 468.729980 6.412109 L 468.729980 7.335938 Z " fill="rgb(0, 0, 0)" fill-opacity="1.000000" />
<path d="M 471.878906 13.319336 L 471.878906 7.335938 L 468.892578 7.335938 L 468.892578 6.412109 L 472.738281 6.412109 L 472.738281 13.319336 Z " fill="rgb(0, 0, 0)" fill-opacity="1.000000" />
</svg>