<svg xmlns="http://www.w3.org/2000/svg" version="1.1" width="561" height="144">
<path d="M 1.670410 87.978516 Q 0.032227 87.033203 0.032227 85.142578 Q 0.032227 83.251953 1.670410 82.306641 Q 2.486816 81.833984 3.308594 81.833984 Q 4.125000 81.833984 4.946777 82.306641 Q 6.590332 83.251953 6.590332 85.142578 Q 6.590332 87.033203 4.946777 87.978516 Q 4.125000 88.451172 3.308594 88.451172 Q 2.486816 88.451172 1.670410 87.978516 Z " fill="rgb(0, 0, 0)" fill-opacity="1.000000" />
<path d="M 282.878906 104.319336 L 282.878906 97.412109 L 286.729980 97.412109 L 286.729980 98.335938 L 283.738281 98.335938 L 283.738281 104.319336 Z " fill="rgb(0, 0, 0)" fill-opacity="1.000000" />
<path d="M 282.878906 117.319336 L 282.878906 103.300781 L 283.738281 103.300781 L 283.738281 117.319336 Z " fill="rgb(0, 0, 0)" fill-opacity="1.000000" />
<path d="M 282.878906 124.335938 L 282.878906 116.300781 L 283.738281 116.300781 L 283.738281 123.412109 L 286.729980 123.412109 L 286.729980 124.335938 Z " fill="rgb(0, 0, 0)" fill-opacity="1.000000" />
<path d="M 457.449219 137.797852 L 457.449219 129.300781 L 459.167969 129.300781 L 459.167969 135.950195 L 461.729980 135.950195 L 461.729980 137.797852 Z " fill="rgb(190, 0, 0)" fill-opacity="1.000000" />
<path d="M 461.892578 137.797852 L 461.892578 135.950195 L 468.729980 135.950195 L 468.729980 137.797852 Z " fill="rgb(190, 0, 0)" fill-opacity="1.000000" />
<path d="M 468.892578 137.797852 L 468.892578 135.950195 L 475.729980 135.950195 L 475.729980 137.797852 Z " fill="rgb(190, 0, 0)" fill-opacity="1.000000" />
<path d="M 475.892578 137.797852 L 475.892578 135.950195 L 482.729980 135.950195 L 482.729980 137.797852 Z " fill="rgb(190, 0, 0)" fill-opacity="1.000000" />
<path d="M 482.892578 137.797852 L 482.892578 135.950195 L 489.729980 135.950195 L 489.729980 137.797852 Z " fill="rgb(190, 0, 0)" fill-opacity="1.000000" />
<path d="M 489.892578 137.797852 L 489.892578 135.950195 L 496.729980 135.950195 L 496.729980 137.797852 Z " fill="rgb(190, 0, 0)" fill-opacity="1.000000" />
<path d="M 496.892578 137.797852 L 496.892578 135.950195 L 503.729980 135.950195 L 503.729980 137.797852 Z " fill="rgb(190, 0, 0)" fill-opacity="1.000000" />
<path d="M 503.892578 137.797852 L 503.892578 135.950195 L 510.729980 135.950195 L 510.729980 137.797852 Z " fill="rgb(190, 0, 0)" fill-opacity="1.000000" />
<path d="M 510.892578 137.797852 L 510.892578 135.950195 L 517.729980 135.950195 L 517.729980 137.797852 Z " fill="rgb(190, 0, 0)" fill-opacity="1.000000" />
<path d="M 517.892578 137.797852 L 517.892578 135.950195 L 524.729980 135.950195 L 524.729980 137.797852 Z " fill="rgb(190, 0, 0)" fill-opacity="1.000000" />
<path d="M 524.892578 137.797852 L 524.892578 135.950195 L 531.729980 135.950195 L 531.729980 137.797852 Z " fill="rgb(190, 0, 0)" fill-opacity="1.000000" />
<path d="M 531.892578 137.797852 L 531.892578 135.950195 L 538.729980 135.950195 L 538.729980 137.797852 Z " fill="rgb(190, 0, 0)" fill-opacity="1.000000" />
<path d="M 538.892578 137.797852 L 538.892578 135.950195 L 545.729980 135.950195 L 545.729980 137.797852 Z " fill="rgb(190, 0, 0)" fill-opacity="1.000000" />
<path d="M 545.892578 137.797852 L 545.892578 135.950195 L 552.729980 135.950195 L 552.729980 137.797852 Z " fill="rgb(190, 0, 0)" fill-opacity="1.000000" />
<path d="M 552.892578 137.797852 L 552.892578 135.950195 L 555.449219 135.950195 L 555.449219 129.300781 L 557.167969 129.300781 L 557.167969 137.797852 Z " fill="rgb(190, 0, 0)" fill-opacity="1.000000" />
<path d="M 286.892578 124.335938 L 286.892578 123.412109 L 293.729980 123.412109 L 293.729980 124.335938 Z " fill="rgb(0, 0, 0)" fill-opacity="1.000000" />
<path d="M 293.892578 124.335938 L 293.892578 123.412109 L 300.729980 123.412109 L 300.729980 124.335938 Z " fill="rgb(0, 0, 0)" fill-opacity="1.000000" />
<path d="M 300.892578 124.335938 L 300.892578 123.412109 L 307.729980 123.412109 L 307.729980 124.335938 Z " fill="rgb(0, 0, 0)" fill-opacity="1.000000" />
<path d="M 307.892578 124.335938 L 307.892578 123.412109 L 314.729980 123.412109 L 314.729980 124.335938 Z " fill="rgb(0, 0, 0)" fill-opacity="1.000000" />
<path d="M 314.892578 124.335938 L 314.892578 123.412109 L 321.729980 123.412109 L 321.729980 124.335938 Z " fill="rgb(0, 0, 0)" fill-opacity="1.000000" />
<path d="M 321.892578 124.335938 L 321.892578 123.412109 L 328.729980 123.412109 L 328.729980 124.335938 Z " fill="rgb(0, 0, 0)" fill-opacity="1.000000" />
<path d="M 328.892578 124.335938 L 328.892578 123.412109 L 335.729980 123.412109 L 335.729980 124.335938 Z " fill="rgb(0, 0, 0)" fill-opacity="1.000000" />
<path d="M 335.892578 124.335938 L 335.892578 123.412109 L 342.729980 123.412109 L 342.729980 124.335938 Z " fill="rgb(0, 0, 0)" fill-opacity="1.000000" />
<path d="M 342.892578 124.335938 L 342.892578 123.412109 L 349.729980 123.412109 L 349.729980 124.335938 Z " fill="rgb(0, 0, 0)" fill-opacity="1.000000" />
<path d="M 349.892578 124.335938 L 349.892578 123.412109 L 356.729980 123.412109 L 356.729980 124.335938 Z " fill="rgb(0, 0, 0)" fill-opacity="1.000000" />
<path d="M 356.892578 124.335938 L 356.892578 123.412109 L 363.729980 123.412109 L 363.729980 124.335938 Z " fill="rgb(0, 0, 0)" fill-opacity="1.000000" />
<path d="M 363.892578 124.335938 L 363.892578 123.412109 L 366.878906 123.412109 L 366.878906 116.300781 L 367.738281 116.300781 L 367.738281 124.335938 Z " fill="rgb(0, 0, 0)" fill-opacity="1.000000" />
<path d="M 457.449219 130.319336 L 457.449219 116.300781 L 459.167969 116.300781 L 459.167969 130.319336 Z " fill="rgb(190, 0, 0)" fill-opacity="1.000000" />
<path d="M 476.585449 126.672363 L 476.585449 125.404785 Q 477.074219 125.839844 477.595215 126.057373 Q 478.116211 126.274902 478.674805 126.274902 Q 479.442871 126.274902 479.746338 125.874756 Q 480.049805 125.474609 480.049805 124.384277 L 480.049805 119.894043 L 478.003418 119.894043 L 478.003418 118.980957 L 481.134766 118.980957 L 481.134766 124.384277 Q 481.134766 125.898926 480.568115 126.527344 Q 480.001465 127.155762 478.674805 127.155762 Q 478.159180 127.155762 477.648926 127.037598 Q 477.138672 126.919434 476.585449 126.672363 Z " fill="rgb(190, 0, 0)" fill-opacity="1.000000" />
<path d="M 487.860840 122.998535 Q 487.860840 121.231445 487.498291 120.474121 Q 487.135742 119.716797 486.308594 119.716797 Q 485.486816 119.716797 485.124268 120.474121 Q 484.761719 121.231445 484.761719 122.998535 Q 484.761719 124.760254 485.124268 125.517578 Q 485.486816 126.274902 486.308594 126.274902 Q 487.135742 126.274902 487.498291 125.520264 Q 487.860840 124.765625 487.860840 122.998535 Z M 488.994141 122.998535 Q 488.994141 125.093262 488.330811 126.124512 Q 487.667480 127.155762 486.308594 127.155762 Q 484.949707 127.155762 484.289062 126.129883 Q 483.628418 125.104004 483.628418 122.998535 Q 483.628418 120.898438 484.291748 119.867188 Q 484.955078 118.835938 486.308594 118.835938 Q 487.667480 118.835938 488.330811 119.867188 Q 488.994141 120.898438 488.994141 122.998535 Z " fill="rgb(190, 0, 0)" fill-opacity="1.000000" />
<path d="M 491.981934 122.955566 L 491.981934 126.108398 L 493.265625 126.108398 Q 494.210938 126.108398 494.613770 125.778076 Q 495.016602 125.447754 495.016602 124.690430 Q 495.016602 123.691406 494.592285 123.323486 Q 494.167969 122.955566 493.265625 122.955566 Z M 491.981934 119.872559 L 491.981934 122.074707 L 493.244141 122.074707 Q 494.028320 122.074707 494.380127 121.773926 Q 494.731934 121.473145 494.731934 121.016602 Q 494.731934 120.409668 494.385498 120.141113 Q 494.039062 119.872559 493.244141 119.872559 Z M 490.891602 118.980957 L 493.265625 118.980957 Q 494.495605 118.980957 495.161621 119.512695 Q 495.827637 120.044434 495.827637 121.016602 Q 495.827637 121.537598 495.475830 121.961914 Q 495.124023 122.386230 494.420410 122.493652 Q 495.209961 122.611816 495.658447 123.167725 Q 496.106934 123.723633 496.106934 124.797852 Q 496.106934 125.888184 495.392578 126.444092 Q 494.678223 127.000000 493.265625 127.000000 L 490.891602 127.000000 Z " fill="rgb(190, 0, 0)" fill-opacity="1.000000" />
<path d="M 509.929688 126.339355 Q 509.494629 126.742188 508.949463 126.948975 Q 508.404297 127.155762 507.770508 127.155762 Q 506.245117 127.155762 505.396484 126.062744 Q 504.547852 124.969727 504.547852 122.998535 Q 504.547852 121.032715 505.407227 119.934326 Q 506.266602 118.835938 507.797363 118.835938 Q 508.302246 118.835938 508.764160 118.978271 Q 509.226074 119.120605 509.655762 119.410645 L 509.655762 120.522461 Q 509.220703 120.108887 508.764160 119.912842 Q 508.307617 119.716797 507.797363 119.716797 Q 506.739258 119.716797 506.210205 120.535889 Q 505.681152 121.354980 505.681152 122.998535 Q 505.681152 124.668945 506.194092 125.471924 Q 506.707031 126.274902 507.770508 126.274902 Q 508.130371 126.274902 508.401611 126.191650 Q 508.672852 126.108398 508.893066 125.931152 L 508.893066 123.777344 L 507.727539 123.777344 L 507.727539 122.885742 L 509.929688 122.885742 Z " fill="rgb(190, 0, 0)" fill-opacity="1.000000" />
<path d="M 515.860840 122.998535 Q 515.860840 121.231445 515.498291 120.474121 Q 515.135742 119.716797 514.308594 119.716797 Q 513.486816 119.716797 513.124268 120.474121 Q 512.761719 121.231445 512.761719 122.998535 Q 512.761719 124.760254 513.124268 125.517578 Q 513.486816 126.274902 514.308594 126.274902 Q 515.135742 126.274902 515.498291 125.520264 Q 515.860840 124.765625 515.860840 122.998535 Z M 516.994141 122.998535 Q 516.994141 125.093262 516.330811 126.124512 Q 515.667480 127.155762 514.308594 127.155762 Q 512.949707 127.155762 512.289062 126.129883 Q 511.628418 125.104004 511.628418 122.998535 Q 511.628418 120.898438 512.291748 119.867188 Q 512.955078 118.835938 514.308594 118.835938 Q 515.667480 118.835938 516.330811 119.867188 Q 516.994141 120.898438 516.994141 122.998535 Z " fill="rgb(190, 0, 0)" fill-opacity="1.000000" />
<path d="M 518.102051 119.007812 L 519.584473 119.007812 L 522.721191 125.587402 L 522.721191 119.007812 L 523.875977 119.007812 L 523.875977 127.000000 L 522.393555 127.000000 L 519.256836 120.420410 L 519.256836 127.000000 L 518.102051 127.000000 Z " fill="rgb(190, 0, 0)" fill-opacity="1.000000" />
<path d="M 526.058105 118.980957 L 530.816895 118.980957 L 530.816895 119.894043 L 527.143066 119.894043 L 527.143066 122.053223 L 530.655762 122.053223 L 530.655762 122.966309 L 527.143066 122.966309 L 527.143066 126.086914 L 530.918945 126.086914 L 530.918945 127.000000 L 526.058105 127.000000 Z " fill="rgb(190, 0, 0)" fill-opacity="1.000000" />
<path d="M 534.932617 118.980957 L 536.022949 118.980957 L 536.022949 122.499023 L 535.910156 124.147949 L 535.045410 124.147949 L 534.932617 122.499023 Z M 534.771484 125.635742 L 536.184082 125.635742 L 536.184082 127.000000 L 534.771484 127.000000 Z " fill="rgb(190, 0, 0)" fill-opacity="1.000000" />
<path d="M 555.449219 130.319336 L 555.449219 116.300781 L 557.167969 116.300781 L 557.167969 130.319336 Z " fill="rgb(190, 0, 0)" fill-opacity="1.000000" />
<path d="M 290.222656 114.107422 L 290.222656 108.752441 L 288.520020 108.752441 L 288.520020 107.984375 L 291.210938 107.984375 L 291.210938 114.107422 Q 291.210938 115.154785 290.730225 115.721436 Q 290.249512 116.288086 289.363281 116.288086 L 287.999023 116.288086 L 287.999023 115.450195 L 289.255859 115.450195 Q 289.739258 115.450195 289.980957 115.114502 Q 290.222656 114.778809 290.222656 114.107422 Z M 290.222656 105.642578 L 291.210938 105.642578 L 291.210938 106.894043 L 290.222656 106.894043 Z " fill="rgb(0, 0, 0)" fill-opacity="1.000000" />
<path d="M 297.308594 108.677246 Q 296.556641 108.677246 296.169922 109.262695 Q 295.783203 109.848145 295.783203 110.997559 Q 295.783203 112.141602 296.169922 112.729736 Q 296.556641 113.317871 297.308594 113.317871 Q 298.065918 113.317871 298.452637 112.729736 Q 298.839355 112.141602 298.839355 110.997559 Q 298.839355 109.848145 298.452637 109.262695 Q 298.065918 108.677246 297.308594 108.677246 Z M 297.308594 107.839355 Q 298.560059 107.839355 299.223389 108.650391 Q 299.886719 109.461426 299.886719 110.997559 Q 299.886719 112.539062 299.226074 113.347412 Q 298.565430 114.155762 297.308594 114.155762 Q 296.057129 114.155762 295.396484 113.347412 Q 294.735840 112.539062 294.735840 110.997559 Q 294.735840 109.461426 295.396484 108.650391 Q 296.057129 107.839355 297.308594 107.839355 Z " fill="rgb(0, 0, 0)" fill-opacity="1.000000" />
<path d="M 305.930664 110.997559 Q 305.930664 109.848145 305.565430 109.262695 Q 305.200195 108.677246 304.485840 108.677246 Q 303.766113 108.677246 303.395508 109.265381 Q 303.024902 109.853516 303.024902 110.997559 Q 303.024902 112.136230 303.395508 112.727051 Q 303.766113 113.317871 304.485840 113.317871 Q 305.200195 113.317871 305.565430 112.732422 Q 305.930664 112.146973 305.930664 110.997559 Z M 303.024902 108.752441 Q 303.261230 108.312012 303.677490 108.075684 Q 304.093750 107.839355 304.641602 107.839355 Q 305.726562 107.839355 306.349609 108.674561 Q 306.972656 109.509766 306.972656 110.976074 Q 306.972656 112.463867 306.346924 113.309814 Q 305.721191 114.155762 304.630859 114.155762 Q 304.093750 114.155762 303.682861 113.922119 Q 303.271973 113.688477 303.024902 113.242676 L 303.024902 114.000000 L 302.036621 114.000000 L 302.036621 105.642578 L 303.024902 105.642578 Z " fill="rgb(0, 0, 0)" fill-opacity="1.000000" />
<path d="M 321.015625 110.498047 L 321.015625 110.981445 L 316.734863 110.981445 L 316.734863 111.013672 Q 316.691895 112.243652 317.204834 112.780762 Q 317.717773 113.317871 318.652344 113.317871 Q 319.125000 113.317871 319.640625 113.167480 Q 320.156250 113.017090 320.741699 112.710938 L 320.741699 113.693848 Q 320.177734 113.924805 319.654053 114.040283 Q 319.130371 114.155762 318.641602 114.155762 Q 317.239746 114.155762 316.450195 113.315186 Q 315.660645 112.474609 315.660645 110.997559 Q 315.660645 109.558105 316.434082 108.698730 Q 317.207520 107.839355 318.496582 107.839355 Q 319.645996 107.839355 320.309326 108.618164 Q 320.972656 109.396973 321.015625 110.498047 Z M 320.027344 110.208008 Q 319.962891 109.584961 319.573486 109.131104 Q 319.184082 108.677246 318.453613 108.677246 Q 317.739258 108.677246 317.277344 109.149902 Q 316.815430 109.622559 316.772461 110.213379 Z " fill="rgb(0, 0, 0)" fill-opacity="1.000000" />
<path d="M 325.630859 108.596680 Q 325.813477 108.209961 326.095459 108.024658 Q 326.377441 107.839355 326.774902 107.839355 Q 327.500000 107.839355 327.798096 108.400635 Q 328.096191 108.961914 328.096191 110.514160 L 328.096191 114.000000 L 327.193848 114.000000 L 327.193848 110.557129 Q 327.193848 109.284180 327.051514 108.975342 Q 326.909180 108.666504 326.533203 108.666504 Q 326.103516 108.666504 325.945068 108.996826 Q 325.786621 109.327148 325.786621 110.557129 L 325.786621 114.000000 L 324.884277 114.000000 L 324.884277 110.557129 Q 324.884277 109.268066 324.731201 108.967285 Q 324.578125 108.666504 324.180664 108.666504 Q 323.788574 108.666504 323.635498 108.996826 Q 323.482422 109.327148 323.482422 110.557129 L 323.482422 114.000000 L 322.585449 114.000000 L 322.585449 107.984375 L 323.482422 107.984375 L 323.482422 108.500000 Q 323.659668 108.177734 323.925537 108.008545 Q 324.191406 107.839355 324.529785 107.839355 Q 324.937988 107.839355 325.209229 108.027344 Q 325.480469 108.215332 325.630859 108.596680 Z " fill="rgb(0, 0, 0)" fill-opacity="1.000000" />
<path d="M 330.697266 108.005859 L 333.227051 108.005859 L 333.227051 113.231934 L 335.187500 113.231934 L 335.187500 114.000000 L 330.278320 114.000000 L 330.278320 113.231934 L 332.238770 113.231934 L 332.238770 108.773926 L 330.697266 108.773926 Z M 332.238770 105.669434 L 333.227051 105.669434 L 333.227051 106.915527 L 332.238770 106.915527 Z " fill="rgb(0, 0, 0)" fill-opacity="1.000000" />
<path d="M 339.297852 106.276367 L 339.297852 107.984375 L 341.542969 107.984375 L 341.542969 108.752441 L 339.297852 108.752441 L 339.297852 112.018066 Q 339.297852 112.684082 339.550293 112.947266 Q 339.802734 113.210449 340.431152 113.210449 L 341.542969 113.210449 L 341.542969 114.000000 L 340.334473 114.000000 Q 339.222656 114.000000 338.766113 113.554199 Q 338.309570 113.108398 338.309570 112.018066 L 338.309570 108.752441 L 336.703613 108.752441 L 336.703613 107.984375 L 338.309570 107.984375 L 338.309570 106.276367 Z " fill="rgb(0, 0, 0)" fill-opacity="1.000000" />
<path d="M 346.297852 106.276367 L 346.297852 107.984375 L 348.542969 107.984375 L 348.542969 108.752441 L 346.297852 108.752441 L 346.297852 112.018066 Q 346.297852 112.684082 346.550293 112.947266 Q 346.802734 113.210449 347.431152 113.210449 L 348.542969 113.210449 L 348.542969 114.000000 L 347.334473 114.000000 Q 346.222656 114.000000 345.766113 113.554199 Q 345.309570 113.108398 345.309570 112.018066 L 345.309570 108.752441 L 343.703613 108.752441 L 343.703613 107.984375 L 345.309570 107.984375 L 345.309570 106.276367 Z " fill="rgb(0, 0, 0)" fill-opacity="1.000000" />
<path d="M 356.015625 110.498047 L 356.015625 110.981445 L 351.734863 110.981445 L 351.734863 111.013672 Q 351.691895 112.243652 352.204834 112.780762 Q 352.717773 113.317871 353.652344 113.317871 Q 354.125000 113.317871 354.640625 113.167480 Q 355.156250 113.017090 355.741699 112.710938 L 355.741699 113.693848 Q 355.177734 113.924805 354.654053 114.040283 Q 354.130371 114.155762 353.641602 114.155762 Q 352.239746 114.155762 351.450195 113.315186 Q 350.660645 112.474609 350.660645 110.997559 Q 350.660645 109.558105 351.434082 108.698730 Q 352.207520 107.839355 353.496582 107.839355 Q 354.645996 107.839355 355.309326 108.618164 Q 355.972656 109.396973 356.015625 110.498047 Z M 355.027344 110.208008 Q 354.962891 109.584961 354.573486 109.131104 Q 354.184082 108.677246 353.453613 108.677246 Q 352.739258 108.677246 352.277344 109.149902 Q 351.815430 109.622559 351.772461 110.213379 Z " fill="rgb(0, 0, 0)" fill-opacity="1.000000" />
<path d="M 361.608398 108.752441 L 361.608398 105.642578 L 362.596680 105.642578 L 362.596680 114.000000 L 361.608398 114.000000 L 361.608398 113.242676 Q 361.361328 113.688477 360.950439 113.922119 Q 360.539551 114.155762 360.002441 114.155762 Q 358.912109 114.155762 358.286377 113.309814 Q 357.660645 112.463867 357.660645 110.976074 Q 357.660645 109.509766 358.289062 108.674561 Q 358.917480 107.839355 360.002441 107.839355 Q 360.544922 107.839355 360.958496 108.072998 Q 361.372070 108.306641 361.608398 108.752441 Z M 358.702637 110.997559 Q 358.702637 112.146973 359.067871 112.732422 Q 359.433105 113.317871 360.147461 113.317871 Q 360.861816 113.317871 361.235107 112.727051 Q 361.608398 112.136230 361.608398 110.997559 Q 361.608398 109.853516 361.235107 109.265381 Q 360.861816 108.677246 360.147461 108.677246 Q 359.433105 108.677246 359.067871 109.262695 Q 358.702637 109.848145 358.702637 110.997559 Z " fill="rgb(0, 0, 0)" fill-opacity="1.000000" />
<path d="M 366.878906 117.319336 L 366.878906 103.300781 L 367.738281 103.300781 L 367.738281 110.412109 L 370.729980 110.412109 L 370.729980 111.335938 L 367.738281 111.335938 L 367.738281 117.319336 Z " fill="rgb(0, 0, 0)" fill-opacity="1.000000" />
<path d="M 370.892578 111.335938 L 370.892578 110.412109 L 377.729980 110.412109 L 377.729980 111.335938 Z " fill="rgb(0, 0, 0)" fill-opacity="1.000000" />
<path d="M 377.892578 111.335938 L 377.892578 110.412109 L 384.729980 110.412109 L 384.729980 111.335938 Z " fill="rgb(0, 0, 0)" fill-opacity="1.000000" />
<path d="M 384.892578 111.335938 L 384.892578 110.412109 L 391.729980 110.412109 L 391.729980 111.335938 Z " fill="rgb(0, 0, 0)" fill-opacity="1.000000" />
<path d="M 391.892578 111.335938 L 391.892578 110.412109 L 398.729980 110.412109 L 398.729980 111.335938 Z " fill="rgb(0, 0, 0)" fill-opacity="1.000000" />
<path d="M 398.892578 111.335938 L 398.892578 110.412109 L 405.729980 110.412109 L 405.729980 111.335938 Z " fill="rgb(0, 0, 0)" fill-opacity="1.000000" />
<path d="M 406.644531 113.505859 L 411.365723 111.142578 L 406.644531 108.779297 Z M 406.032227 114.418945 L 406.032227 107.866211 L 412.590332 111.142578 Z " fill="rgb(0, 0, 0)" fill-opacity="1.000000" />
<path d="M 423.308594 114.418945 L 420.032227 107.866211 L 426.590332 107.866211 Z " fill="rgb(0, 0, 0)" fill-opacity="1.000000" />
<path d="M 434.032227 111.142578 L 440.590332 107.866211 L 440.590332 114.418945 Z " fill="rgb(190, 0, 0)" fill-opacity="1.000000" />
<path d="M 440.892578 111.797852 L 440.892578 109.950195 L 447.729980 109.950195 L 447.729980 111.797852 Z " fill="rgb(190, 0, 0)" fill-opacity="1.000000" />
<path d="M 447.892578 111.797852 L 447.892578 109.950195 L 454.729980 109.950195 L 454.729980 111.797852 Z " fill="rgb(190, 0, 0)" fill-opacity="1.000000" />
<path d="M 457.449219 117.319336 L 457.449219 103.300781 L 459.167969 103.300781 L 459.167969 117.319336 Z " fill="rgb(190, 0, 0)" fill-opacity="1.000000" />
<path d="M 470.058105 105.980957 L 474.816895 105.980957 L 474.816895 106.894043 L 471.143066 106.894043 L 471.143066 109.053223 L 474.655762 109.053223 L 474.655762 109.966309 L 471.143066 109.966309 L 471.143066 113.086914 L 474.918945 113.086914 L 474.918945 114.000000 L 470.058105 114.000000 Z " fill="rgb(190, 0, 0)" fill-opacity="1.000000" />
<path d="M 476.193359 106.007812 L 477.643555 106.007812 L 479.029297 110.079102 L 480.425781 106.007812 L 481.881348 106.007812 L 481.881348 114.000000 L 480.876953 114.000000 L 480.876953 106.937012 L 479.448242 111.147949 L 478.626465 111.147949 L 477.192383 106.937012 L 477.192383 114.000000 L 476.193359 114.000000 Z " fill="rgb(190, 0, 0)" fill-opacity="1.000000" />
<path d="M 484.079590 105.980957 L 488.532227 105.980957 L 488.532227 106.894043 L 486.851074 106.894043 L 486.851074 113.086914 L 488.532227 113.086914 L 488.532227 114.000000 L 484.079590 114.000000 L 484.079590 113.086914 L 485.760742 113.086914 L 485.760742 106.894043 L 484.079590 106.894043 Z " fill="rgb(190, 0, 0)" fill-opacity="1.000000" />
<path d="M 490.252441 105.980957 L 496.370117 105.980957 L 496.370117 106.894043 L 493.861816 106.894043 L 493.861816 114.000000 L 492.771484 114.000000 L 492.771484 106.894043 L 490.252441 106.894043 Z " fill="rgb(190, 0, 0)" fill-opacity="1.000000" />
<path d="M 505.251465 105.980957 L 509.972656 105.980957 L 509.972656 106.894043 L 506.341797 106.894043 L 506.341797 109.042480 L 509.634277 109.042480 L 509.634277 109.955566 L 506.341797 109.955566 L 506.341797 114.000000 L 505.251465 114.000000 Z " fill="rgb(190, 0, 0)" fill-opacity="1.000000" />
<path d="M 514.308594 106.937012 L 513.164551 111.040527 L 515.452637 111.040527 Z M 513.653320 105.980957 L 514.969238 105.980957 L 517.423828 114.000000 L 516.301270 114.000000 L 515.710449 111.910645 L 512.901367 111.910645 L 512.321289 114.000000 L 511.198730 114.000000 Z " fill="rgb(190, 0, 0)" fill-opacity="1.000000" />
<path d="M 519.079590 105.980957 L 523.532227 105.980957 L 523.532227 106.894043 L 521.851074 106.894043 L 521.851074 113.086914 L 523.532227 113.086914 L 523.532227 114.000000 L 519.079590 114.000000 L 519.079590 113.086914 L 520.760742 113.086914 L 520.760742 106.894043 L 519.079590 106.894043 Z " fill="rgb(190, 0, 0)" fill-opacity="1.000000" />
<path d="M 526.154785 105.980957 L 527.245117 105.980957 L 527.245117 113.086914 L 531.117676 113.086914 L 531.117676 114.000000 L 526.154785 114.000000 Z " fill="rgb(190, 0, 0)" fill-opacity="1.000000" />
<path d="M 537.435547 106.254883 L 537.435547 107.355957 Q 536.941406 107.039062 536.444580 106.877930 Q 535.947754 106.716797 535.442871 106.716797 Q 534.674805 106.716797 534.229004 107.073975 Q 533.783203 107.431152 533.783203 108.038086 Q 533.783203 108.569824 534.075928 108.849121 Q 534.368652 109.128418 535.168945 109.316406 L 535.738281 109.445312 Q 536.866211 109.708496 537.381836 110.272461 Q 537.897461 110.836426 537.897461 111.808594 Q 537.897461 112.952637 537.188477 113.554199 Q 536.479492 114.155762 535.125977 114.155762 Q 534.562012 114.155762 533.992676 114.034912 Q 533.423340 113.914062 532.848633 113.672363 L 532.848633 112.517578 Q 533.466309 112.909668 534.016846 113.092285 Q 534.567383 113.274902 535.125977 113.274902 Q 535.947754 113.274902 536.404297 112.906982 Q 536.860840 112.539062 536.860840 111.878418 Q 536.860840 111.276855 536.546631 110.959961 Q 536.232422 110.643066 535.453613 110.471191 L 534.873535 110.336914 Q 533.756348 110.084473 533.251465 109.574219 Q 532.746582 109.063965 532.746582 108.204590 Q 532.746582 107.130371 533.468994 106.483154 Q 534.191406 105.835938 535.389160 105.835938 Q 535.851074 105.835938 536.361328 105.940674 Q 536.871582 106.045410 537.435547 106.254883 Z " fill="rgb(190, 0, 0)" fill-opacity="1.000000" />
<path d="M 541.089355 111.830078 L 542.979980 111.830078 L 542.979980 114.000000 L 541.089355 114.000000 Z " fill="rgb(190, 0, 0)" fill-opacity="1.000000" />
<path d="M 555.449219 117.319336 L 555.449219 103.300781 L 557.167969 103.300781 L 557.167969 117.319336 Z " fill="rgb(190, 0, 0)" fill-opacity="1.000000" />
<path d="M 286.892578 98.335938 L 286.892578 97.412109 L 293.729980 97.412109 L 293.729980 98.335938 Z " fill="rgb(0, 0, 0)" fill-opacity="1.000000" />
<path d="M 293.892578 98.335938 L 293.892578 97.412109 L 300.729980 97.412109 L 300.729980 98.335938 Z " fill="rgb(0, 0, 0)" fill-opacity="1.000000" />
<path d="M 300.892578 98.335938 L 300.892578 97.412109 L 307.729980 97.412109 L 307.729980 98.335938 Z " fill="rgb(0, 0, 0)" fill-opacity="1.000000" />
<path d="M 307.892578 98.335938 L 307.892578 97.412109 L 314.729980 97.412109 L 314.729980 98.335938 Z " fill="rgb(0, 0, 0)" fill-opacity="1.000000" />
<path d="M 314.892578 98.335938 L 314.892578 97.412109 L 321.729980 97.412109 L 321.729980 98.335938 Z " fill="rgb(0, 0, 0)" fill-opacity="1.000000" />
<path d="M 321.892578 98.335938 L 321.892578 97.412109 L 328.729980 97.412109 L 328.729980 98.335938 Z " fill="rgb(0, 0, 0)" fill-opacity="1.000000" />
<path d="M 328.892578 98.335938 L 328.892578 97.412109 L 335.729980 97.412109 L 335.729980 98.335938 Z " fill="rgb(0, 0, 0)" fill-opacity="1.000000" />
<path d="M 335.892578 98.335938 L 335.892578 97.412109 L 342.729980 97.412109 L 342.729980 98.335938 Z " fill="rgb(0, 0, 0)" fill-opacity="1.000000" />
<path d="M 342.892578 98.335938 L 342.892578 97.412109 L 349.729980 97.412109 L 349.729980 98.335938 Z " fill="rgb(0, 0, 0)" fill-opacity="1.000000" />
<path d="M 349.892578 98.335938 L 349.892578 97.412109 L 356.729980 97.412109 L 356.729980 98.335938 Z " fill="rgb(0, 0, 0)" fill-opacity="1.000000" />
<path d="M 356.892578 98.335938 L 356.892578 97.412109 L 363.729980 97.412109 L 363.729980 98.335938 Z " fill="rgb(0, 0, 0)" fill-opacity="1.000000" />
<path d="M 366.878906 104.319336 L 366.878906 98.335938 L 363.892578 98.335938 L 363.892578 97.412109 L 367.738281 97.412109 L 367.738281 104.319336 Z " fill="rgb(0, 0, 0)" fill-opacity="1.000000" />
<path d="M 422.449219 104.319336 L 422.449219 90.300781 L 424.167969 90.300781 L 424.167969 104.319336 Z " fill="rgb(0, 0, 0)" fill-opacity="1.000000" />
<path d="M 457.449219 104.319336 L 457.449219 90.300781 L 459.167969 90.300781 L 459.167969 104.319336 Z " fill="rgb(190, 0, 0)" fill-opacity="1.000000" />
<path d="M 507.926270 97.777344 L 509.918945 99.775391 L 509.301270 100.387695 L 507.308594 98.395020 L 505.315918 100.387695 L 504.698242 99.775391 L 506.690918 97.777344 L 504.698242 95.784668 L 505.315918 95.166992 L 507.308594 97.159668 L 509.306641 95.166992 L 509.924316 95.779297 Z " fill="rgb(190, 0, 0)" fill-opacity="1.000000" />
<path d="M 555.449219 104.319336 L 555.449219 90.300781 L 557.167969 90.300781 L 557.167969 104.319336 Z " fill="rgb(190, 0, 0)" fill-opacity="1.000000" />
<path d="M 6.892578 85.797852 L 6.892578 83.950195 L 13.729980 83.950195 L 13.729980 85.797852 Z " fill="rgb(0, 0, 0)" fill-opacity="1.000000" />
<path d="M 13.892578 85.797852 L 13.892578 83.950195 L 20.729980 83.950195 L 20.729980 85.797852 Z " fill="rgb(0, 0, 0)" fill-opacity="1.000000" />
<path d="M 20.892578 85.797852 L 20.892578 83.950195 L 27.729980 83.950195 L 27.729980 85.797852 Z " fill="rgb(0, 0, 0)" fill-opacity="1.000000" />
<path d="M 27.892578 85.797852 L 27.892578 83.950195 L 34.729980 83.950195 L 34.729980 85.797852 Z " fill="rgb(0, 0, 0)" fill-opacity="1.000000" />
<path d="M 34.892578 85.797852 L 34.892578 83.950195 L 41.729980 83.950195 L 41.729980 85.797852 Z " fill="rgb(0, 0, 0)" fill-opacity="1.000000" />
<path d="M 41.892578 85.797852 L 41.892578 83.950195 L 48.729980 83.950195 L 48.729980 85.797852 Z " fill="rgb(0, 0, 0)" fill-opacity="1.000000" />
<path d="M 48.892578 85.797852 L 48.892578 83.950195 L 55.729980 83.950195 L 55.729980 85.797852 Z " fill="rgb(0, 0, 0)" fill-opacity="1.000000" />
<path d="M 55.892578 85.797852 L 55.892578 83.950195 L 62.729980 83.950195 L 62.729980 85.797852 Z " fill="rgb(0, 0, 0)" fill-opacity="1.000000" />
<path d="M 62.892578 85.797852 L 62.892578 83.950195 L 69.729980 83.950195 L 69.729980 85.797852 Z " fill="rgb(0, 0, 0)" fill-opacity="1.000000" />
<path d="M 69.892578 85.797852 L 69.892578 83.950195 L 76.729980 83.950195 L 76.729980 85.797852 Z " fill="rgb(0, 0, 0)" fill-opacity="1.000000" />
<path d="M 76.892578 85.797852 L 76.892578 83.950195 L 83.729980 83.950195 L 83.729980 85.797852 Z " fill="rgb(0, 0, 0)" fill-opacity="1.000000" />
<path d="M 83.892578 85.797852 L 83.892578 83.950195 L 90.729980 83.950195 L 90.729980 85.797852 Z " fill="rgb(0, 0, 0)" fill-opacity="1.000000" />
<path d="M 90.892578 85.797852 L 90.892578 83.950195 L 97.729980 83.950195 L 97.729980 85.797852 Z " fill="rgb(0, 0, 0)" fill-opacity="1.000000" />
<path d="M 97.892578 85.797852 L 97.892578 83.950195 L 104.729980 83.950195 L 104.729980 85.797852 Z " fill="rgb(0, 0, 0)" fill-opacity="1.000000" />
<path d="M 104.892578 85.797852 L 104.892578 83.950195 L 111.729980 83.950195 L 111.729980 85.797852 Z " fill="rgb(0, 0, 0)" fill-opacity="1.000000" />
<path d="M 111.892578 85.797852 L 111.892578 83.950195 L 118.729980 83.950195 L 118.729980 85.797852 Z " fill="rgb(0, 0, 0)" fill-opacity="1.000000" />
<path d="M 118.892578 85.797852 L 118.892578 83.950195 L 125.729980 83.950195 L 125.729980 85.797852 Z " fill="rgb(0, 0, 0)" fill-opacity="1.000000" />
<path d="M 125.892578 85.797852 L 125.892578 83.950195 L 132.729980 83.950195 L 132.729980 85.797852 Z " fill="rgb(0, 0, 0)" fill-opacity="1.000000" />
<path d="M 132.892578 85.797852 L 132.892578 83.950195 L 139.729980 83.950195 L 139.729980 85.797852 Z " fill="rgb(0, 0, 0)" fill-opacity="1.000000" />
<path d="M 139.892578 85.797852 L 139.892578 83.950195 L 146.729980 83.950195 L 146.729980 85.797852 Z " fill="rgb(0, 0, 0)" fill-opacity="1.000000" />
<path d="M 146.892578 85.797852 L 146.892578 83.950195 L 153.729980 83.950195 L 153.729980 85.797852 Z " fill="rgb(0, 0, 0)" fill-opacity="1.000000" />
<path d="M 153.892578 85.797852 L 153.892578 83.950195 L 160.729980 83.950195 L 160.729980 85.797852 Z " fill="rgb(0, 0, 0)" fill-opacity="1.000000" />
<path d="M 160.892578 85.797852 L 160.892578 83.950195 L 167.729980 83.950195 L 167.729980 85.797852 Z " fill="rgb(0, 0, 0)" fill-opacity="1.000000" />
<path d="M 167.892578 85.797852 L 167.892578 83.950195 L 174.729980 83.950195 L 174.729980 85.797852 Z " fill="rgb(0, 0, 0)" fill-opacity="1.000000" />
<path d="M 174.892578 85.797852 L 174.892578 83.950195 L 181.729980 83.950195 L 181.729980 85.797852 Z " fill="rgb(0, 0, 0)" fill-opacity="1.000000" />
<path d="M 181.892578 85.797852 L 181.892578 83.950195 L 188.729980 83.950195 L 188.729980 85.797852 Z " fill="rgb(0, 0, 0)" fill-opacity="1.000000" />
<path d="M 188.892578 85.797852 L 188.892578 83.950195 L 195.729980 83.950195 L 195.729980 85.797852 Z " fill="rgb(0, 0, 0)" fill-opacity="1.000000" />
<path d="M 195.892578 85.797852 L 195.892578 83.950195 L 202.729980 83.950195 L 202.729980 85.797852 Z " fill="rgb(0, 0, 0)" fill-opacity="1.000000" />
<path d="M 202.892578 85.797852 L 202.892578 83.950195 L 209.729980 83.950195 L 209.729980 85.797852 Z " fill="rgb(0, 0, 0)" fill-opacity="1.000000" />
<path d="M 209.892578 85.797852 L 209.892578 83.950195 L 216.729980 83.950195 L 216.729980 85.797852 Z " fill="rgb(0, 0, 0)" fill-opacity="1.000000" />
<path d="M 216.892578 85.797852 L 216.892578 83.950195 L 223.729980 83.950195 L 223.729980 85.797852 Z " fill="rgb(0, 0, 0)" fill-opacity="1.000000" />
<path d="M 223.892578 85.797852 L 223.892578 83.950195 L 230.729980 83.950195 L 230.729980 85.797852 Z " fill="rgb(0, 0, 0)" fill-opacity="1.000000" />
<path d="M 230.892578 85.797852 L 230.892578 83.950195 L 237.729980 83.950195 L 237.729980 85.797852 Z " fill="rgb(0, 0, 0)" fill-opacity="1.000000" />
<path d="M 237.892578 85.797852 L 237.892578 83.950195 L 244.729980 83.950195 L 244.729980 85.797852 Z " fill="rgb(0, 0, 0)" fill-opacity="1.000000" />
<path d="M 244.892578 85.797852 L 244.892578 83.950195 L 251.729980 83.950195 L 251.729980 85.797852 Z " fill="rgb(0, 0, 0)" fill-opacity="1.000000" />
<path d="M 251.892578 85.797852 L 251.892578 83.950195 L 258.729980 83.950195 L 258.729980 85.797852 Z " fill="rgb(0, 0, 0)" fill-opacity="1.000000" />
<path d="M 258.892578 85.797852 L 258.892578 83.950195 L 265.729980 83.950195 L 265.729980 85.797852 Z " fill="rgb(0, 0, 0)" fill-opacity="1.000000" />
<path d="M 265.892578 85.797852 L 265.892578 83.950195 L 272.729980 83.950195 L 272.729980 85.797852 Z " fill="rgb(0, 0, 0)" fill-opacity="1.000000" />
<path d="M 272.892578 85.797852 L 272.892578 83.950195 L 279.729980 83.950195 L 279.729980 85.797852 Z " fill="rgb(0, 0, 0)" fill-opacity="1.000000" />
<path d="M 279.892578 85.797852 L 279.892578 83.950195 L 286.729980 83.950195 L 286.729980 85.797852 Z " fill="rgb(0, 0, 0)" fill-opacity="1.000000" />
<path d="M 286.892578 85.797852 L 286.892578 83.950195 L 293.729980 83.950195 L 293.729980 85.797852 Z " fill="rgb(0, 0, 0)" fill-opacity="1.000000" />
<path d="M 293.892578 85.797852 L 293.892578 83.950195 L 300.729980 83.950195 L 300.729980 85.797852 Z " fill="rgb(0, 0, 0)" fill-opacity="1.000000" />
<path d="M 300.892578 85.797852 L 300.892578 83.950195 L 307.729980 83.950195 L 307.729980 85.797852 Z " fill="rgb(0, 0, 0)" fill-opacity="1.000000" />
<path d="M 307.892578 85.797852 L 307.892578 83.950195 L 314.729980 83.950195 L 314.729980 85.797852 Z " fill="rgb(0, 0, 0)" fill-opacity="1.000000" />
<path d="M 314.892578 85.797852 L 314.892578 83.950195 L 321.729980 83.950195 L 321.729980 85.797852 Z " fill="rgb(0, 0, 0)" fill-opacity="1.000000" />
<path d="M 321.892578 85.797852 L 321.892578 83.950195 L 328.729980 83.950195 L 328.729980 85.797852 Z " fill="rgb(0, 0, 0)" fill-opacity="1.000000" />
<path d="M 328.892578 85.797852 L 328.892578 83.950195 L 335.729980 83.950195 L 335.729980 85.797852 Z " fill="rgb(0, 0, 0)" fill-opacity="1.000000" />
<path d="M 335.892578 85.797852 L 335.892578 83.950195 L 342.729980 83.950195 L 342.729980 85.797852 Z " fill="rgb(0, 0, 0)" fill-opacity="1.000000" />
<path d="M 342.892578 85.797852 L 342.892578 83.950195 L 349.729980 83.950195 L 349.729980 85.797852 Z " fill="rgb(0, 0, 0)" fill-opacity="1.000000" />
<path d="M 349.892578 85.797852 L 349.892578 83.950195 L 356.729980 83.950195 L 356.729980 85.797852 Z " fill="rgb(0, 0, 0)" fill-opacity="1.000000" />
<path d="M 356.892578 85.797852 L 356.892578 83.950195 L 363.729980 83.950195 L 363.729980 85.797852 Z " fill="rgb(0, 0, 0)" fill-opacity="1.000000" />
<path d="M 363.892578 85.797852 L 363.892578 83.950195 L 370.729980 83.950195 L 370.729980 85.797852 Z " fill="rgb(0, 0, 0)" fill-opacity="1.000000" />
<path d="M 370.892578 85.797852 L 370.892578 83.950195 L 377.729980 83.950195 L 377.729980 85.797852 Z " fill="rgb(0, 0, 0)" fill-opacity="1.000000" />
<path d="M 377.892578 85.797852 L 377.892578 83.950195 L 384.729980 83.950195 L 384.729980 85.797852 Z " fill="rgb(0, 0, 0)" fill-opacity="1.000000" />
<path d="M 384.892578 85.797852 L 384.892578 83.950195 L 391.729980 83.950195 L 391.729980 85.797852 Z " fill="rgb(0, 0, 0)" fill-opacity="1.000000" />
<path d="M 391.892578 85.797852 L 391.892578 83.950195 L 398.729980 83.950195 L 398.729980 85.797852 Z " fill="rgb(0, 0, 0)" fill-opacity="1.000000" />
<path d="M 398.892578 85.797852 L 398.892578 83.950195 L 405.729980 83.950195 L 405.729980 85.797852 Z " fill="rgb(0, 0, 0)" fill-opacity="1.000000" />
<path d="M 405.892578 85.797852 L 405.892578 83.950195 L 412.729980 83.950195 L 412.729980 85.797852 Z " fill="rgb(0, 0, 0)" fill-opacity="1.000000" />
<path d="M 413.032227 88.418945 L 413.032227 81.866211 L 419.590332 85.142578 Z " fill="rgb(0, 0, 0)" fill-opacity="1.000000" />
<path d="M 457.449219 91.319336 L 457.449219 83.950195 L 461.729980 83.950195 L 461.729980 85.797852 L 459.167969 85.797852 L 459.167969 91.319336 Z " fill="rgb(190, 0, 0)" fill-opacity="1.000000" />
<path d="M 461.892578 85.797852 L 461.892578 83.950195 L 468.729980 83.950195 L 468.729980 85.797852 Z " fill="rgb(190, 0, 0)" fill-opacity="1.000000" />
<path d="M 468.892578 85.797852 L 468.892578 83.950195 L 475.729980 83.950195 L 475.729980 85.797852 Z " fill="rgb(190, 0, 0)" fill-opacity="1.000000" />
<path d="M 475.892578 85.797852 L 475.892578 83.950195 L 482.729980 83.950195 L 482.729980 85.797852 Z " fill="rgb(190, 0, 0)" fill-opacity="1.000000" />
<path d="M 482.892578 85.797852 L 482.892578 83.950195 L 489.729980 83.950195 L 489.729980 85.797852 Z " fill="rgb(190, 0, 0)" fill-opacity="1.000000" />
<path d="M 489.892578 85.797852 L 489.892578 83.950195 L 496.729980 83.950195 L 496.729980 85.797852 Z " fill="rgb(190, 0, 0)" fill-opacity="1.000000" />
<path d="M 496.892578 85.797852 L 496.892578 83.950195 L 503.729980 83.950195 L 503.729980 85.797852 Z " fill="rgb(190, 0, 0)" fill-opacity="1.000000" />
<path d="M 503.892578 85.797852 L 503.892578 83.950195 L 510.729980 83.950195 L 510.729980 85.797852 Z " fill="rgb(190, 0, 0)" fill-opacity="1.000000" />
<path d="M 510.892578 85.797852 L 510.892578 83.950195 L 517.729980 83.950195 L 517.729980 85.797852 Z " fill="rgb(190, 0, 0)" fill-opacity="1.000000" />
<path d="M 517.892578 85.797852 L 517.892578 83.950195 L 524.729980 83.950195 L 524.729980 85.797852 Z " fill="rgb(190, 0, 0)" fill-opacity="1.000000" />
<path d="M 524.892578 85.797852 L 524.892578 83.950195 L 531.729980 83.950195 L 531.729980 85.797852 Z " fill="rgb(190, 0, 0)" fill-opacity="1.000000" />
<path d="M 531.892578 85.797852 L 531.892578 83.950195 L 538.729980 83.950195 L 538.729980 85.797852 Z " fill="rgb(190, 0, 0)" fill-opacity="1.000000" />
<path d="M 538.892578 85.797852 L 538.892578 83.950195 L 545.729980 83.950195 L 545.729980 85.797852 Z " fill="rgb(190, 0, 0)" fill-opacity="1.000000" />
<path d="M 545.892578 85.797852 L 545.892578 83.950195 L 552.729980 83.950195 L 552.729980 85.797852 Z " fill="rgb(190, 0, 0)" fill-opacity="1.000000" />
<path d="M 555.449219 91.319336 L 555.449219 85.797852 L 552.892578 85.797852 L 552.892578 83.950195 L 557.167969 83.950195 L 557.167969 91.319336 Z " fill="rgb(190, 0, 0)" fill-opacity="1.000000" />
<path d="M 17.297852 67.276367 L 17.297852 68.984375 L 19.542969 68.984375 L 19.542969 69.752441 L 17.297852 69.752441 L 17.297852 73.018066 Q 17.297852 73.684082 17.550293 73.947266 Q 17.802734 74.210449 18.431152 74.210449 L 19.542969 74.210449 L 19.542969 75.000000 L 18.334473 75.000000 Q 17.222656 75.000000 16.766113 74.554199 Q 16.309570 74.108398 16.309570 73.018066 L 16.309570 69.752441 L 14.703613 69.752441 L 14.703613 68.984375 L 16.309570 68.984375 L 16.309570 67.276367 Z " fill="rgb(0, 0, 0)" fill-opacity="1.000000" />
<path d="M 27.004883 68.984375 L 24.851074 71.863281 L 27.214355 75.000000 L 26.070312 75.000000 L 24.308594 72.588379 L 22.552246 75.000000 L 21.408203 75.000000 L 23.771484 71.863281 L 21.617676 68.984375 L 22.713379 68.984375 L 24.308594 71.159668 L 25.893066 68.984375 Z " fill="rgb(0, 0, 0)" fill-opacity="1.000000" />
<path d="M 416.308594 73.898926 L 418.483887 69.559082 L 414.138672 69.559082 Z M 416.308594 75.418945 L 413.032227 68.866211 L 419.590332 68.866211 Z " fill="rgb(0, 0, 0)" fill-opacity="1.000000" />
<path d="M 373.878906 13.319336 L 373.878906 6.412109 L 377.729980 6.412109 L 377.729980 7.335938 L 374.738281 7.335938 L 374.738281 13.319336 Z " fill="rgb(0, 0, 0)" fill-opacity="1.000000" />
<path d="M 373.878906 26.319336 L 373.878906 12.300781 L 374.738281 12.300781 L 374.738281 26.319336 Z " fill="rgb(0, 0, 0)" fill-opacity="1.000000" />
<path d="M 373.878906 39.319336 L 373.878906 25.300781 L 374.738281 25.300781 L 374.738281 39.319336 Z " fill="rgb(0, 0, 0)" fill-opacity="1.000000" />
<path d="M 373.878906 46.335938 L 373.878906 38.300781 L 374.738281 38.300781 L 374.738281 45.412109 L 377.729980 45.412109 L 377.729980 46.335938 Z " fill="rgb(0, 0, 0)" fill-opacity="1.000000" />
<path d="M 415.878906 65.319336 L 415.878906 51.300781 L 416.738281 51.300781 L 416.738281 65.319336 Z " fill="rgb(0, 0, 0)" fill-opacity="1.000000" />
<path d="M 377.892578 46.335938 L 377.892578 45.412109 L 384.729980 45.412109 L 384.729980 46.335938 Z " fill="rgb(0, 0, 0)" fill-opacity="1.000000" />
<path d="M 384.892578 46.335938 L 384.892578 45.412109 L 391.729980 45.412109 L 391.729980 46.335938 Z " fill="rgb(0, 0, 0)" fill-opacity="1.000000" />
<path d="M 391.892578 46.335938 L 391.892578 45.412109 L 398.729980 45.412109 L 398.729980 46.335938 Z " fill="rgb(0, 0, 0)" fill-opacity="1.000000" />
<path d="M 398.892578 46.335938 L 398.892578 45.412109 L 405.729980 45.412109 L 405.729980 46.335938 Z " fill="rgb(0, 0, 0)" fill-opacity="1.000000" />
<path d="M 405.892578 46.335938 L 405.892578 45.412109 L 412.729980 45.412109 L 412.729980 46.335938 Z " fill="rgb(0, 0, 0)" fill-opacity="1.000000" />
<path d="M 415.878906 52.319336 L 415.878906 46.335938 L 412.892578 46.335938 L 412.892578 45.412109 L 419.729980 45.412109 L 419.729980 46.335938 L 416.738281 46.335938 L 416.738281 52.319336 Z " fill="rgb(0, 0, 0)" fill-opacity="1.000000" />
<path d="M 419.892578 46.335938 L 419.892578 45.412109 L 426.729980 45.412109 L 426.729980 46.335938 Z " fill="rgb(0, 0, 0)" fill-opacity="1.000000" />
<path d="M 426.892578 46.335938 L 426.892578 45.412109 L 433.729980 45.412109 L 433.729980 46.335938 Z " fill="rgb(0, 0, 0)" fill-opacity="1.000000" />
<path d="M 433.892578 46.335938 L 433.892578 45.412109 L 440.729980 45.412109 L 440.729980 46.335938 Z " fill="rgb(0, 0, 0)" fill-opacity="1.000000" />
<path d="M 440.892578 46.335938 L 440.892578 45.412109 L 447.729980 45.412109 L 447.729980 46.335938 Z " fill="rgb(0, 0, 0)" fill-opacity="1.000000" />
<path d="M 447.892578 46.335938 L 447.892578 45.412109 L 454.729980 45.412109 L 454.729980 46.335938 Z " fill="rgb(0, 0, 0)" fill-opacity="1.000000" />
<path d="M 454.892578 46.335938 L 454.892578 45.412109 L 457.878906 45.412109 L 457.878906 38.300781 L 458.738281 38.300781 L 458.738281 46.335938 Z " fill="rgb(0, 0, 0)" fill-opacity="1.000000" />
<path d="M 381.297852 15.276367 L 381.297852 16.984375 L 383.542969 16.984375 L 383.542969 17.752441 L 381.297852 17.752441 L 381.297852 21.018066 Q 381.297852 21.684082 381.550293 21.947266 Q 381.802734 22.210449 382.431152 22.210449 L 383.542969 22.210449 L 383.542969 23.000000 L 382.334473 23.000000 Q 381.222656 23.000000 380.766113 22.554199 Q 380.309570 22.108398 380.309570 21.018066 L 380.309570 17.752441 L 378.703613 17.752441 L 378.703613 16.984375 L 380.309570 16.984375 L 380.309570 15.276367 Z " fill="rgb(0, 0, 0)" fill-opacity="1.000000" />
<path d="M 397.698730 35.693848 Q 397.301270 35.924805 396.879639 36.040283 Q 396.458008 36.155762 396.017578 36.155762 Q 394.621094 36.155762 393.834229 35.317871 Q 393.047363 34.479980 393.047363 32.997559 Q 393.047363 31.515137 393.834229 30.677246 Q 394.621094 29.839355 396.017578 29.839355 Q 396.452637 29.839355 396.866211 29.952148 Q 397.279785 30.064941 397.698730 30.301270 L 397.698730 31.337891 Q 397.306641 30.988770 396.911865 30.833008 Q 396.517090 30.677246 396.017578 30.677246 Q 395.088379 30.677246 394.588867 31.278809 Q 394.089355 31.880371 394.089355 32.997559 Q 394.089355 34.109375 394.591553 34.713623 Q 395.093750 35.317871 396.017578 35.317871 Q 396.533203 35.317871 396.941406 35.159424 Q 397.349609 35.000977 397.698730 34.667969 Z " fill="rgb(0, 0, 0)" fill-opacity="1.000000" />
<path d="M 402.308594 30.677246 Q 401.556641 30.677246 401.169922 31.262695 Q 400.783203 31.848145 400.783203 32.997559 Q 400.783203 34.141602 401.169922 34.729736 Q 401.556641 35.317871 402.308594 35.317871 Q 403.065918 35.317871 403.452637 34.729736 Q 403.839355 34.141602 403.839355 32.997559 Q 403.839355 31.848145 403.452637 31.262695 Q 403.065918 30.677246 402.308594 30.677246 Z M 402.308594 29.839355 Q 403.560059 29.839355 404.223389 30.650391 Q 404.886719 31.461426 404.886719 32.997559 Q 404.886719 34.539062 404.226074 35.347412 Q 403.565430 36.155762 402.308594 36.155762 Q 401.057129 36.155762 400.396484 35.347412 Q 399.735840 34.539062 399.735840 32.997559 Q 399.735840 31.461426 400.396484 30.650391 Q 401.057129 29.839355 402.308594 29.839355 Z " fill="rgb(0, 0, 0)" fill-opacity="1.000000" />
<path d="M 409.630859 30.596680 Q 409.813477 30.209961 410.095459 30.024658 Q 410.377441 29.839355 410.774902 29.839355 Q 411.500000 29.839355 411.798096 30.400635 Q 412.096191 30.961914 412.096191 32.514160 L 412.096191 36.000000 L 411.193848 36.000000 L 411.193848 32.557129 Q 411.193848 31.284180 411.051514 30.975342 Q 410.909180 30.666504 410.533203 30.666504 Q 410.103516 30.666504 409.945068 30.996826 Q 409.786621 31.327148 409.786621 32.557129 L 409.786621 36.000000 L 408.884277 36.000000 L 408.884277 32.557129 Q 408.884277 31.268066 408.731201 30.967285 Q 408.578125 30.666504 408.180664 30.666504 Q 407.788574 30.666504 407.635498 30.996826 Q 407.482422 31.327148 407.482422 32.557129 L 407.482422 36.000000 L 406.585449 36.000000 L 406.585449 29.984375 L 407.482422 29.984375 L 407.482422 30.500000 Q 407.659668 30.177734 407.925537 30.008545 Q 408.191406 29.839355 408.529785 29.839355 Q 408.937988 29.839355 409.209229 30.027344 Q 409.480469 30.215332 409.630859 30.596680 Z " fill="rgb(0, 0, 0)" fill-opacity="1.000000" />
<path d="M 416.630859 30.596680 Q 416.813477 30.209961 417.095459 30.024658 Q 417.377441 29.839355 417.774902 29.839355 Q 418.500000 29.839355 418.798096 30.400635 Q 419.096191 30.961914 419.096191 32.514160 L 419.096191 36.000000 L 418.193848 36.000000 L 418.193848 32.557129 Q 418.193848 31.284180 418.051514 30.975342 Q 417.909180 30.666504 417.533203 30.666504 Q 417.103516 30.666504 416.945068 30.996826 Q 416.786621 31.327148 416.786621 32.557129 L 416.786621 36.000000 L 415.884277 36.000000 L 415.884277 32.557129 Q 415.884277 31.268066 415.731201 30.967285 Q 415.578125 30.666504 415.180664 30.666504 Q 414.788574 30.666504 414.635498 30.996826 Q 414.482422 31.327148 414.482422 32.557129 L 414.482422 36.000000 L 413.585449 36.000000 L 413.585449 29.984375 L 414.482422 29.984375 L 414.482422 30.500000 Q 414.659668 30.177734 414.925537 30.008545 Q 415.191406 29.839355 415.529785 29.839355 Q 415.937988 29.839355 416.209229 30.027344 Q 416.480469 30.215332 416.630859 30.596680 Z " fill="rgb(0, 0, 0)" fill-opacity="1.000000" />
<path d="M 421.697266 30.005859 L 424.227051 30.005859 L 424.227051 35.231934 L 426.187500 35.231934 L 426.187500 36.000000 L 421.278320 36.000000 L 421.278320 35.231934 L 423.238770 35.231934 L 423.238770 30.773926 L 421.697266 30.773926 Z M 423.238770 27.669434 L 424.227051 27.669434 L 424.227051 28.915527 L 423.238770 28.915527 Z " fill="rgb(0, 0, 0)" fill-opacity="1.000000" />
<path d="M 430.297852 28.276367 L 430.297852 29.984375 L 432.542969 29.984375 L 432.542969 30.752441 L 430.297852 30.752441 L 430.297852 34.018066 Q 430.297852 34.684082 430.550293 34.947266 Q 430.802734 35.210449 431.431152 35.210449 L 432.542969 35.210449 L 432.542969 36.000000 L 431.334473 36.000000 Q 430.222656 36.000000 429.766113 35.554199 Q 429.309570 35.108398 429.309570 34.018066 L 429.309570 30.752441 L 427.703613 30.752441 L 427.703613 29.984375 L 429.309570 29.984375 L 429.309570 28.276367 Z " fill="rgb(0, 0, 0)" fill-opacity="1.000000" />
<path d="M 439.226074 30.193848 L 439.226074 31.160645 Q 438.801758 30.913574 438.372070 30.790039 Q 437.942383 30.666504 437.496582 30.666504 Q 436.825195 30.666504 436.494873 30.884033 Q 436.164551 31.101562 436.164551 31.547363 Q 436.164551 31.950195 436.411621 32.148926 Q 436.658691 32.347656 437.641602 32.535645 L 438.039062 32.610840 Q 438.774902 32.750488 439.153564 33.169434 Q 439.532227 33.588379 439.532227 34.259766 Q 439.532227 35.151367 438.898438 35.653564 Q 438.264648 36.155762 437.136719 36.155762 Q 436.690918 36.155762 436.202148 36.061768 Q 435.713379 35.967773 435.144043 35.779785 L 435.144043 34.759277 Q 435.697266 35.043945 436.202148 35.186279 Q 436.707031 35.328613 437.158203 35.328613 Q 437.813477 35.328613 438.173340 35.062744 Q 438.533203 34.796875 438.533203 34.318848 Q 438.533203 33.631348 437.217285 33.368164 L 437.174316 33.357422 L 436.803711 33.282227 Q 435.949707 33.115723 435.557617 32.720947 Q 435.165527 32.326172 435.165527 31.644043 Q 435.165527 30.779297 435.750977 30.309326 Q 436.336426 29.839355 437.421387 29.839355 Q 437.904785 29.839355 438.350586 29.927979 Q 438.796387 30.016602 439.226074 30.193848 Z " fill="rgb(0, 0, 0)" fill-opacity="1.000000" />
<path d="M 457.878906 39.319336 L 457.878906 25.300781 L 458.738281 25.300781 L 458.738281 39.319336 Z " fill="rgb(0, 0, 0)" fill-opacity="1.000000" />
<path d="M 391.203613 18.225098 Q 390.886719 17.978027 390.559082 17.865234 Q 390.231445 17.752441 389.839355 17.752441 Q 388.915527 17.752441 388.426758 18.332520 Q 387.937988 18.912598 387.937988 20.008301 L 387.937988 23.000000 L 386.944336 23.000000 L 386.944336 16.984375 L 387.937988 16.984375 L 387.937988 18.160645 Q 388.185059 17.521484 388.697998 17.180420 Q 389.210938 16.839355 389.914551 16.839355 Q 390.279785 16.839355 390.596680 16.930664 Q 390.913574 17.021973 391.203613 17.215332 Z " fill="rgb(0, 0, 0)" fill-opacity="1.000000" />
<path d="M 395.770508 19.976074 L 395.442871 19.976074 Q 394.578125 19.976074 394.140381 20.279541 Q 393.702637 20.583008 393.702637 21.184570 Q 393.702637 21.727051 394.030273 22.027832 Q 394.357910 22.328613 394.937988 22.328613 Q 395.754395 22.328613 396.221680 21.761963 Q 396.688965 21.195312 396.694336 20.196289 L 396.694336 19.976074 Z M 397.687988 19.567871 L 397.687988 23.000000 L 396.694336 23.000000 L 396.694336 22.108398 Q 396.377441 22.645508 395.896729 22.900635 Q 395.416016 23.155762 394.728516 23.155762 Q 393.810059 23.155762 393.262207 22.637451 Q 392.714355 22.119141 392.714355 21.249023 Q 392.714355 20.244629 393.388428 19.723633 Q 394.062500 19.202637 395.367676 19.202637 L 396.694336 19.202637 L 396.694336 19.046875 Q 396.688965 18.327148 396.329102 18.002197 Q 395.969238 17.677246 395.179688 17.677246 Q 394.674805 17.677246 394.159180 17.822266 Q 393.643555 17.967285 393.154785 18.246582 L 393.154785 17.258301 Q 393.702637 17.048828 394.204834 16.944092 Q 394.707031 16.839355 395.179688 16.839355 Q 395.926270 16.839355 396.455322 17.059570 Q 396.984375 17.279785 397.312012 17.720215 Q 397.516113 17.988770 397.602051 18.383545 Q 397.687988 18.778320 397.687988 19.567871 Z " fill="rgb(0, 0, 0)" fill-opacity="1.000000" />
<path d="M 404.645020 19.272461 L 404.645020 23.000000 L 403.651367 23.000000 L 403.651367 19.272461 Q 403.651367 18.461426 403.366699 18.080078 Q 403.082031 17.698730 402.475098 17.698730 Q 401.782227 17.698730 401.408936 18.190186 Q 401.035645 18.681641 401.035645 19.600098 L 401.035645 23.000000 L 400.047363 23.000000 L 400.047363 16.984375 L 401.035645 16.984375 L 401.035645 17.886719 Q 401.298828 17.371094 401.750000 17.105225 Q 402.201172 16.839355 402.818848 16.839355 Q 403.737305 16.839355 404.191162 17.443604 Q 404.645020 18.047852 404.645020 19.272461 Z " fill="rgb(0, 0, 0)" fill-opacity="1.000000" />
<path d="M 411.226074 17.193848 L 411.226074 18.160645 Q 410.801758 17.913574 410.372070 17.790039 Q 409.942383 17.666504 409.496582 17.666504 Q 408.825195 17.666504 408.494873 17.884033 Q 408.164551 18.101562 408.164551 18.547363 Q 408.164551 18.950195 408.411621 19.148926 Q 408.658691 19.347656 409.641602 19.535645 L 410.039062 19.610840 Q 410.774902 19.750488 411.153564 20.169434 Q 411.532227 20.588379 411.532227 21.259766 Q 411.532227 22.151367 410.898438 22.653564 Q 410.264648 23.155762 409.136719 23.155762 Q 408.690918 23.155762 408.202148 23.061768 Q 407.713379 22.967773 407.144043 22.779785 L 407.144043 21.759277 Q 407.697266 22.043945 408.202148 22.186279 Q 408.707031 22.328613 409.158203 22.328613 Q 409.813477 22.328613 410.173340 22.062744 Q 410.533203 21.796875 410.533203 21.318848 Q 410.533203 20.631348 409.217285 20.368164 L 409.174316 20.357422 L 408.803711 20.282227 Q 407.949707 20.115723 407.557617 19.720947 Q 407.165527 19.326172 407.165527 18.644043 Q 407.165527 17.779297 407.750977 17.309326 Q 408.336426 16.839355 409.421387 16.839355 Q 409.904785 16.839355 410.350586 16.927979 Q 410.796387 17.016602 411.226074 17.193848 Z " fill="rgb(0, 0, 0)" fill-opacity="1.000000" />
<path d="M 416.770508 19.976074 L 416.442871 19.976074 Q 415.578125 19.976074 415.140381 20.279541 Q 414.702637 20.583008 414.702637 21.184570 Q 414.702637 21.727051 415.030273 22.027832 Q 415.357910 22.328613 415.937988 22.328613 Q 416.754395 22.328613 417.221680 21.761963 Q 417.688965 21.195312 417.694336 20.196289 L 417.694336 19.976074 Z M 418.687988 19.567871 L 418.687988 23.000000 L 417.694336 23.000000 L 417.694336 22.108398 Q 417.377441 22.645508 416.896729 22.900635 Q 416.416016 23.155762 415.728516 23.155762 Q 414.810059 23.155762 414.262207 22.637451 Q 413.714355 22.119141 413.714355 21.249023 Q 413.714355 20.244629 414.388428 19.723633 Q 415.062500 19.202637 416.367676 19.202637 L 417.694336 19.202637 L 417.694336 19.046875 Q 417.688965 18.327148 417.329102 18.002197 Q 416.969238 17.677246 416.179688 17.677246 Q 415.674805 17.677246 415.159180 17.822266 Q 414.643555 17.967285 414.154785 18.246582 L 414.154785 17.258301 Q 414.702637 17.048828 415.204834 16.944092 Q 415.707031 16.839355 416.179688 16.839355 Q 416.926270 16.839355 417.455322 17.059570 Q 417.984375 17.279785 418.312012 17.720215 Q 418.516113 17.988770 418.602051 18.383545 Q 418.687988 18.778320 418.687988 19.567871 Z " fill="rgb(0, 0, 0)" fill-opacity="1.000000" />
<path d="M 425.698730 22.693848 Q 425.301270 22.924805 424.879639 23.040283 Q 424.458008 23.155762 424.017578 23.155762 Q 422.621094 23.155762 421.834229 22.317871 Q 421.047363 21.479980 421.047363 19.997559 Q 421.047363 18.515137 421.834229 17.677246 Q 422.621094 16.839355 424.017578 16.839355 Q 424.452637 16.839355 424.866211 16.952148 Q 425.279785 17.064941 425.698730 17.301270 L 425.698730 18.337891 Q 425.306641 17.988770 424.911865 17.833008 Q 424.517090 17.677246 424.017578 17.677246 Q 423.088379 17.677246 422.588867 18.278809 Q 422.089355 18.880371 422.089355 19.997559 Q 422.089355 21.109375 422.591553 21.713623 Q 423.093750 22.317871 424.017578 22.317871 Q 424.533203 22.317871 424.941406 22.159424 Q 425.349609 22.000977 425.698730 21.667969 Z " fill="rgb(0, 0, 0)" fill-opacity="1.000000" />
<path d="M 430.297852 15.276367 L 430.297852 16.984375 L 432.542969 16.984375 L 432.542969 17.752441 L 430.297852 17.752441 L 430.297852 21.018066 Q 430.297852 21.684082 430.550293 21.947266 Q 430.802734 22.210449 431.431152 22.210449 L 432.542969 22.210449 L 432.542969 23.000000 L 431.334473 23.000000 Q 430.222656 23.000000 429.766113 22.554199 Q 429.309570 22.108398 429.309570 21.018066 L 429.309570 17.752441 L 427.703613 17.752441 L 427.703613 16.984375 L 429.309570 16.984375 L 429.309570 15.276367 Z " fill="rgb(0, 0, 0)" fill-opacity="1.000000" />
<path d="M 435.697266 17.005859 L 438.227051 17.005859 L 438.227051 22.231934 L 440.187500 22.231934 L 440.187500 23.000000 L 435.278320 23.000000 L 435.278320 22.231934 L 437.238770 22.231934 L 437.238770 17.773926 L 435.697266 17.773926 Z M 437.238770 14.669434 L 438.227051 14.669434 L 438.227051 15.915527 L 437.238770 15.915527 Z " fill="rgb(0, 0, 0)" fill-opacity="1.000000" />
<path d="M 444.308594 17.677246 Q 443.556641 17.677246 443.169922 18.262695 Q 442.783203 18.848145 442.783203 19.997559 Q 442.783203 21.141602 443.169922 21.729736 Q 443.556641 22.317871 444.308594 22.317871 Q 445.065918 22.317871 445.452637 21.729736 Q 445.839355 21.141602 445.839355 19.997559 Q 445.839355 18.848145 445.452637 18.262695 Q 445.065918 17.677246 444.308594 17.677246 Z M 444.308594 16.839355 Q 445.560059 16.839355 446.223389 17.650391 Q 446.886719 18.461426 446.886719 19.997559 Q 446.886719 21.539062 446.226074 22.347412 Q 445.565430 23.155762 444.308594 23.155762 Q 443.057129 23.155762 442.396484 22.347412 Q 441.735840 21.539062 441.735840 19.997559 Q 441.735840 18.461426 442.396484 17.650391 Q 443.057129 16.839355 444.308594 16.839355 Z " fill="rgb(0, 0, 0)" fill-opacity="1.000000" />
<path d="M 453.645020 19.272461 L 453.645020 23.000000 L 452.651367 23.000000 L 452.651367 19.272461 Q 452.651367 18.461426 452.366699 18.080078 Q 452.082031 17.698730 451.475098 17.698730 Q 450.782227 17.698730 450.408936 18.190186 Q 450.035645 18.681641 450.035645 19.600098 L 450.035645 23.000000 L 449.047363 23.000000 L 449.047363 16.984375 L 450.035645 16.984375 L 450.035645 17.886719 Q 450.298828 17.371094 450.750000 17.105225 Q 451.201172 16.839355 451.818848 16.839355 Q 452.737305 16.839355 453.191162 17.443604 Q 453.645020 18.047852 453.645020 19.272461 Z " fill="rgb(0, 0, 0)" fill-opacity="1.000000" />
<path d="M 457.878906 26.319336 L 457.878906 12.300781 L 458.738281 12.300781 L 458.738281 26.319336 Z " fill="rgb(0, 0, 0)" fill-opacity="1.000000" />
<path d="M 377.892578 7.335938 L 377.892578 6.412109 L 384.729980 6.412109 L 384.729980 7.335938 Z " fill="rgb(0, 0, 0)" fill-opacity="1.000000" />
<path d="M 384.892578 7.335938 L 384.892578 6.412109 L 391.729980 6.412109 L 391.729980 7.335938 Z " fill="rgb(0, 0, 0)" fill-opacity="1.000000" />
<path d="M 391.892578 7.335938 L 391.892578 6.412109 L 398.729980 6.412109 L 398.729980 7.335938 Z " fill="rgb(0, 0, 0)" fill-opacity="1.000000" />
<path d="M 398.892578 7.335938 L 398.892578 6.412109 L 405.729980 6.412109 L 405.729980 7.335938 Z " fill="rgb(0, 0, 0)" fill-opacity="1.000000" />
<path d="M 405.892578 7.335938 L 405.892578 6.412109 L 412.729980 6.412109 L 412.729980 7.335938 Z " fill="rgb(0, 0, 0)" fill-opacity="1.000000" />
<path d="M 412.892578 7.335938 L 412.892578 6.412109 L 419.729980 6.412109 L 419.729980 7.335938 Z " fill="rgb(0, 0, 0)" fill-opacity="1.000000" />
<path d="M 419.892578 7.335938 L 419.892578 6.412109 L 426.729980 6.412109 L 426.729980 7.335938 Z " fill="rgb(0, 0, 0)" fill-opacity="1.000000" />
<path d="M 426.892578 7.335938 L 426.892578 6.412109 L 433.729980 6.412109 L 433.729980 7.335938 Z " fill="rgb(0, 0, 0)" fill-opacity="1.000000" />
<path d="M 433.892578 7.335938 L 433.892578 6.412109 L 440.729980 6.412109 L 440.729980 7.335938 Z " fill="rgb(0, 0, 0)" fill-opacity="1.000000" />
<path d="M 440.892578 7.335938 L 440.892578 6.412109 L 447.729980 6.412109 L 447.729980 7.335938 Z " fill="rgb(0, 0, 0)" fill-opacity="1.000000" />
<path d="M 447.892578 7.335938 L 447.892578 6.412109 L 454.729980 6.412109 L 454.729980 7.335938 Z " fill="rgb(0, 0, 0)" fill-opacity="1.000000" />
<path d="M 457.878906 13.319336 L 457.878906 7.335938 L 454.892578 7.335938 L 454.892578 6.412109 L 458.738281 6.412109 L 458.738281 13.319336 Z " fill="rgb(0, 0, 0)" fill-opacity="1.000000" />
</svg>