<svg xmlns="http://www.w3.org/2000/svg" version="1.1" width="596" height="183">
<path d="M 2.878906 78.319336 L 2.878906 71.412109 L 6.729980 71.412109 L 6.729980 72.335938 L 3.738281 72.335938 L 3.738281 78.319336 Z " fill="rgb(0, 0, 0)" fill-opacity="1.000000" />
<path d="M 2.878906 91.319336 L 2.878906 77.300781 L 3.738281 77.300781 L 3.738281 91.319336 Z " fill="rgb(0, 0, 0)" fill-opacity="1.000000" />
<path d="M 2.878906 104.319336 L 2.878906 90.300781 L 3.738281 90.300781 L 3.738281 104.319336 Z " fill="rgb(0, 0, 0)" fill-opacity="1.000000" />
<path d="M 2.878906 117.319336 L 2.878906 103.300781 L 3.738281 103.300781 L 3.738281 117.319336 Z " fill="rgb(0, 0, 0)" fill-opacity="1.000000" />
<path d="M 2.878906 130.319336 L 2.878906 116.300781 L 3.738281 116.300781 L 3.738281 130.319336 Z " fill="rgb(0, 0, 0)" fill-opacity="1.000000" />
<path d="M 2.878906 143.319336 L 2.878906 129.300781 L 3.738281 129.300781 L 3.738281 143.319336 Z " fill="rgb(0, 0, 0)" fill-opacity="1.000000" />
<path d="M 2.878906 150.335938 L 2.878906 142.300781 L 3.738281 142.300781 L 3.738281 149.412109 L 6.729980 149.412109 L 6.729980 150.335938 Z " fill="rgb(0, 0, 0)" fill-opacity="1.000000" />
<path d="M 352.878906 176.335938 L 352.878906 168.300781 L 353.738281 168.300781 L 353.738281 175.412109 L 356.729980 175.412109 L 356.729980 176.335938 Z " fill="rgb(0, 0, 0)" fill-opacity="1.000000" />
<path d="M 363.892578 176.335938 L 363.892578 175.412109 L 370.729980 175.412109 L 370.729980 176.335938 Z " fill="rgb(0, 0, 0)" fill-opacity="1.000000" />
<path d="M 377.892578 176.335938 L 377.892578 175.412109 L 384.729980 175.412109 L 384.729980 176.335938 Z " fill="rgb(0, 0, 0)" fill-opacity="1.000000" />
<path d="M 391.892578 176.335938 L 391.892578 175.412109 L 398.729980 175.412109 L 398.729980 176.335938 Z " fill="rgb(0, 0, 0)" fill-opacity="1.000000" />
<path d="M 405.892578 176.335938 L 405.892578 175.412109 L 412.729980 175.412109 L 412.729980 176.335938 Z " fill="rgb(0, 0, 0)" fill-opacity="1.000000" />
<path d="M 419.892578 176.335938 L 419.892578 175.412109 L 426.729980 175.412109 L 426.729980 176.335938 Z " fill="rgb(0, 0, 0)" fill-opacity="1.000000" />
<path d="M 433.892578 176.335938 L 433.892578 175.412109 L 440.729980 175.412109 L 440.729980 176.335938 Z " fill="rgb(0, 0, 0)" fill-opacity="1.000000" />
<path d="M 447.892578 176.335938 L 447.892578 175.412109 L 454.729980 175.412109 L 454.729980 176.335938 Z " fill="rgb(0, 0, 0)" fill-opacity="1.000000" />
<path d="M 461.892578 176.335938 L 461.892578 175.412109 L 468.729980 175.412109 L 468.729980 176.335938 Z " fill="rgb(0, 0, 0)" fill-opacity="1.000000" />
<path d="M 475.892578 176.335938 L 475.892578 175.412109 L 482.729980 175.412109 L 482.729980 176.335938 Z " fill="rgb(0, 0, 0)" fill-opacity="1.000000" />
<path d="M 489.892578 176.335938 L 489.892578 175.412109 L 496.729980 175.412109 L 496.729980 176.335938 Z " fill="rgb(0, 0, 0)" fill-opacity="1.000000" />
<path d="M 503.892578 176.335938 L 503.892578 175.412109 L 510.729980 175.412109 L 510.729980 176.335938 Z " fill="rgb(0, 0, 0)" fill-opacity="1.000000" />
<path d="M 517.892578 176.335938 L 517.892578 175.412109 L 524.729980 175.412109 L 524.729980 176.335938 Z " fill="rgb(0, 0, 0)" fill-opacity="1.000000" />
<path d="M 531.892578 176.335938 L 531.892578 175.412109 L 538.729980 175.412109 L 538.729980 176.335938 Z " fill="rgb(0, 0, 0)" fill-opacity="1.000000" />
<path d="M 545.892578 176.335938 L 545.892578 175.412109 L 552.729980 175.412109 L 552.729980 176.335938 Z " fill="rgb(0, 0, 0)" fill-opacity="1.000000" />
<path d="M 559.892578 176.335938 L 559.892578 175.412109 L 566.729980 175.412109 L 566.729980 176.335938 Z " fill="rgb(0, 0, 0)" fill-opacity="1.000000" />
<path d="M 573.892578 176.335938 L 573.892578 175.412109 L 580.729980 175.412109 L 580.729980 176.335938 Z " fill="rgb(0, 0, 0)" fill-opacity="1.000000" />
<path d="M 587.892578 176.335938 L 587.892578 175.412109 L 590.878906 175.412109 L 590.878906 168.300781 L 591.738281 168.300781 L 591.738281 176.335938 Z " fill="rgb(0, 0, 0)" fill-opacity="1.000000" />
<path d="M 6.892578 150.335938 L 6.892578 149.412109 L 13.729980 149.412109 L 13.729980 150.335938 Z " fill="rgb(0, 0, 0)" fill-opacity="1.000000" />
<path d="M 13.892578 150.335938 L 13.892578 149.412109 L 20.729980 149.412109 L 20.729980 150.335938 Z " fill="rgb(0, 0, 0)" fill-opacity="1.000000" />
<path d="M 20.892578 150.335938 L 20.892578 149.412109 L 27.729980 149.412109 L 27.729980 150.335938 Z " fill="rgb(0, 0, 0)" fill-opacity="1.000000" />
<path d="M 27.892578 150.335938 L 27.892578 149.412109 L 34.729980 149.412109 L 34.729980 150.335938 Z " fill="rgb(0, 0, 0)" fill-opacity="1.000000" />
<path d="M 34.892578 150.335938 L 34.892578 149.412109 L 41.729980 149.412109 L 41.729980 150.335938 Z " fill="rgb(0, 0, 0)" fill-opacity="1.000000" />
<path d="M 41.892578 150.335938 L 41.892578 149.412109 L 48.729980 149.412109 L 48.729980 150.335938 Z " fill="rgb(0, 0, 0)" fill-opacity="1.000000" />
<path d="M 48.892578 150.335938 L 48.892578 149.412109 L 55.729980 149.412109 L 55.729980 150.335938 Z " fill="rgb(0, 0, 0)" fill-opacity="1.000000" />
<path d="M 55.892578 150.335938 L 55.892578 149.412109 L 62.729980 149.412109 L 62.729980 150.335938 Z " fill="rgb(0, 0, 0)" fill-opacity="1.000000" />
<path d="M 62.892578 150.335938 L 62.892578 149.412109 L 69.729980 149.412109 L 69.729980 150.335938 Z " fill="rgb(0, 0, 0)" fill-opacity="1.000000" />
<path d="M 69.892578 150.335938 L 69.892578 149.412109 L 76.729980 149.412109 L 76.729980 150.335938 Z " fill="rgb(0, 0, 0)" fill-opacity="1.000000" />
<path d="M 76.892578 150.335938 L 76.892578 149.412109 L 83.729980 149.412109 L 83.729980 150.335938 Z " fill="rgb(0, 0, 0)" fill-opacity="1.000000" />
<path d="M 83.892578 150.335938 L 83.892578 149.412109 L 86.878906 149.412109 L 86.878906 142.300781 L 87.738281 142.300781 L 87.738281 150.335938 Z " fill="rgb(0, 0, 0)" fill-opacity="1.000000" />
<path d="M 156.014160 152.242676 L 156.014160 155.288086 L 155.020508 155.288086 L 155.020508 146.984375 L 156.014160 146.984375 L 156.014160 147.752441 Q 156.261230 147.306641 156.672119 147.072998 Q 157.083008 146.839355 157.620117 146.839355 Q 158.710449 146.839355 159.330811 147.682617 Q 159.951172 148.525879 159.951172 150.019043 Q 159.951172 151.485352 159.328125 152.320557 Q 158.705078 153.155762 157.620117 153.155762 Q 157.072266 153.155762 156.661377 152.922119 Q 156.250488 152.688477 156.014160 152.242676 Z M 158.914551 149.997559 Q 158.914551 148.848145 158.552002 148.262695 Q 158.189453 147.677246 157.475098 147.677246 Q 156.755371 147.677246 156.384766 148.265381 Q 156.014160 148.853516 156.014160 149.997559 Q 156.014160 151.136230 156.384766 151.727051 Q 156.755371 152.317871 157.475098 152.317871 Q 158.189453 152.317871 158.552002 151.732422 Q 158.914551 151.146973 158.914551 149.997559 Z " fill="rgb(0, 0, 0)" fill-opacity="1.000000" />
<path d="M 164.308594 147.677246 Q 163.556641 147.677246 163.169922 148.262695 Q 162.783203 148.848145 162.783203 149.997559 Q 162.783203 151.141602 163.169922 151.729736 Q 163.556641 152.317871 164.308594 152.317871 Q 165.065918 152.317871 165.452637 151.729736 Q 165.839355 151.141602 165.839355 149.997559 Q 165.839355 148.848145 165.452637 148.262695 Q 165.065918 147.677246 164.308594 147.677246 Z M 164.308594 146.839355 Q 165.560059 146.839355 166.223389 147.650391 Q 166.886719 148.461426 166.886719 149.997559 Q 166.886719 151.539062 166.226074 152.347412 Q 165.565430 153.155762 164.308594 153.155762 Q 163.057129 153.155762 162.396484 152.347412 Q 161.735840 151.539062 161.735840 149.997559 Q 161.735840 148.461426 162.396484 147.650391 Q 163.057129 146.839355 164.308594 146.839355 Z " fill="rgb(0, 0, 0)" fill-opacity="1.000000" />
<path d="M 169.697266 147.005859 L 172.227051 147.005859 L 172.227051 152.231934 L 174.187500 152.231934 L 174.187500 153.000000 L 169.278320 153.000000 L 169.278320 152.231934 L 171.238770 152.231934 L 171.238770 147.773926 L 169.697266 147.773926 Z M 171.238770 144.669434 L 172.227051 144.669434 L 172.227051 145.915527 L 171.238770 145.915527 Z " fill="rgb(0, 0, 0)" fill-opacity="1.000000" />
<path d="M 180.645020 149.272461 L 180.645020 153.000000 L 179.651367 153.000000 L 179.651367 149.272461 Q 179.651367 148.461426 179.366699 148.080078 Q 179.082031 147.698730 178.475098 147.698730 Q 177.782227 147.698730 177.408936 148.190186 Q 177.035645 148.681641 177.035645 149.600098 L 177.035645 153.000000 L 176.047363 153.000000 L 176.047363 146.984375 L 177.035645 146.984375 L 177.035645 147.886719 Q 177.298828 147.371094 177.750000 147.105225 Q 178.201172 146.839355 178.818848 146.839355 Q 179.737305 146.839355 180.191162 147.443604 Q 180.645020 148.047852 180.645020 149.272461 Z " fill="rgb(0, 0, 0)" fill-opacity="1.000000" />
<path d="M 185.297852 145.276367 L 185.297852 146.984375 L 187.542969 146.984375 L 187.542969 147.752441 L 185.297852 147.752441 L 185.297852 151.018066 Q 185.297852 151.684082 185.550293 151.947266 Q 185.802734 152.210449 186.431152 152.210449 L 187.542969 152.210449 L 187.542969 153.000000 L 186.334473 153.000000 Q 185.222656 153.000000 184.766113 152.554199 Q 184.309570 152.108398 184.309570 151.018066 L 184.309570 147.752441 L 182.703613 147.752441 L 182.703613 146.984375 L 184.309570 146.984375 L 184.309570 145.276367 Z " fill="rgb(0, 0, 0)" fill-opacity="1.000000" />
<path d="M 195.015625 149.498047 L 195.015625 149.981445 L 190.734863 149.981445 L 190.734863 150.013672 Q 190.691895 151.243652 191.204834 151.780762 Q 191.717773 152.317871 192.652344 152.317871 Q 193.125000 152.317871 193.640625 152.167480 Q 194.156250 152.017090 194.741699 151.710938 L 194.741699 152.693848 Q 194.177734 152.924805 193.654053 153.040283 Q 193.130371 153.155762 192.641602 153.155762 Q 191.239746 153.155762 190.450195 152.315186 Q 189.660645 151.474609 189.660645 149.997559 Q 189.660645 148.558105 190.434082 147.698730 Q 191.207520 146.839355 192.496582 146.839355 Q 193.645996 146.839355 194.309326 147.618164 Q 194.972656 148.396973 195.015625 149.498047 Z M 194.027344 149.208008 Q 193.962891 148.584961 193.573486 148.131104 Q 193.184082 147.677246 192.453613 147.677246 Q 191.739258 147.677246 191.277344 148.149902 Q 190.815430 148.622559 190.772461 149.213379 Z " fill="rgb(0, 0, 0)" fill-opacity="1.000000" />
<path d="M 202.203613 148.225098 Q 201.886719 147.978027 201.559082 147.865234 Q 201.231445 147.752441 200.839355 147.752441 Q 199.915527 147.752441 199.426758 148.332520 Q 198.937988 148.912598 198.937988 150.008301 L 198.937988 153.000000 L 197.944336 153.000000 L 197.944336 146.984375 L 198.937988 146.984375 L 198.937988 148.160645 Q 199.185059 147.521484 199.697998 147.180420 Q 200.210938 146.839355 200.914551 146.839355 Q 201.279785 146.839355 201.596680 146.930664 Q 201.913574 147.021973 202.203613 147.215332 Z " fill="rgb(0, 0, 0)" fill-opacity="1.000000" />
<path d="M 213.297852 145.276367 L 213.297852 146.984375 L 215.542969 146.984375 L 215.542969 147.752441 L 213.297852 147.752441 L 213.297852 151.018066 Q 213.297852 151.684082 213.550293 151.947266 Q 213.802734 152.210449 214.431152 152.210449 L 215.542969 152.210449 L 215.542969 153.000000 L 214.334473 153.000000 Q 213.222656 153.000000 212.766113 152.554199 Q 212.309570 152.108398 212.309570 151.018066 L 212.309570 147.752441 L 210.703613 147.752441 L 210.703613 146.984375 L 212.309570 146.984375 L 212.309570 145.276367 Z " fill="rgb(0, 0, 0)" fill-opacity="1.000000" />
<path d="M 220.308594 147.677246 Q 219.556641 147.677246 219.169922 148.262695 Q 218.783203 148.848145 218.783203 149.997559 Q 218.783203 151.141602 219.169922 151.729736 Q 219.556641 152.317871 220.308594 152.317871 Q 221.065918 152.317871 221.452637 151.729736 Q 221.839355 151.141602 221.839355 149.997559 Q 221.839355 148.848145 221.452637 148.262695 Q 221.065918 147.677246 220.308594 147.677246 Z M 220.308594 146.839355 Q 221.560059 146.839355 222.223389 147.650391 Q 222.886719 148.461426 222.886719 149.997559 Q 222.886719 151.539062 222.226074 152.347412 Q 221.565430 153.155762 220.308594 153.155762 Q 219.057129 153.155762 218.396484 152.347412 Q 217.735840 151.539062 217.735840 149.997559 Q 217.735840 148.461426 218.396484 147.650391 Q 219.057129 146.839355 220.308594 146.839355 Z " fill="rgb(0, 0, 0)" fill-opacity="1.000000" />
<path d="M 236.645020 149.272461 L 236.645020 153.000000 L 235.651367 153.000000 L 235.651367 149.272461 Q 235.651367 148.461426 235.366699 148.080078 Q 235.082031 147.698730 234.475098 147.698730 Q 233.782227 147.698730 233.408936 148.190186 Q 233.035645 148.681641 233.035645 149.600098 L 233.035645 153.000000 L 232.047363 153.000000 L 232.047363 144.642578 L 233.035645 144.642578 L 233.035645 147.886719 Q 233.298828 147.371094 233.750000 147.105225 Q 234.201172 146.839355 234.818848 146.839355 Q 235.737305 146.839355 236.191162 147.443604 Q 236.645020 148.047852 236.645020 149.272461 Z " fill="rgb(0, 0, 0)" fill-opacity="1.000000" />
<path d="M 244.015625 149.498047 L 244.015625 149.981445 L 239.734863 149.981445 L 239.734863 150.013672 Q 239.691895 151.243652 240.204834 151.780762 Q 240.717773 152.317871 241.652344 152.317871 Q 242.125000 152.317871 242.640625 152.167480 Q 243.156250 152.017090 243.741699 151.710938 L 243.741699 152.693848 Q 243.177734 152.924805 242.654053 153.040283 Q 242.130371 153.155762 241.641602 153.155762 Q 240.239746 153.155762 239.450195 152.315186 Q 238.660645 151.474609 238.660645 149.997559 Q 238.660645 148.558105 239.434082 147.698730 Q 240.207520 146.839355 241.496582 146.839355 Q 242.645996 146.839355 243.309326 147.618164 Q 243.972656 148.396973 244.015625 149.498047 Z M 243.027344 149.208008 Q 242.962891 148.584961 242.573486 148.131104 Q 242.184082 147.677246 241.453613 147.677246 Q 240.739258 147.677246 240.277344 148.149902 Q 239.815430 148.622559 239.772461 149.213379 Z " fill="rgb(0, 0, 0)" fill-opacity="1.000000" />
<path d="M 248.770508 149.976074 L 248.442871 149.976074 Q 247.578125 149.976074 247.140381 150.279541 Q 246.702637 150.583008 246.702637 151.184570 Q 246.702637 151.727051 247.030273 152.027832 Q 247.357910 152.328613 247.937988 152.328613 Q 248.754395 152.328613 249.221680 151.761963 Q 249.688965 151.195312 249.694336 150.196289 L 249.694336 149.976074 Z M 250.687988 149.567871 L 250.687988 153.000000 L 249.694336 153.000000 L 249.694336 152.108398 Q 249.377441 152.645508 248.896729 152.900635 Q 248.416016 153.155762 247.728516 153.155762 Q 246.810059 153.155762 246.262207 152.637451 Q 245.714355 152.119141 245.714355 151.249023 Q 245.714355 150.244629 246.388428 149.723633 Q 247.062500 149.202637 248.367676 149.202637 L 249.694336 149.202637 L 249.694336 149.046875 Q 249.688965 148.327148 249.329102 148.002197 Q 248.969238 147.677246 248.179688 147.677246 Q 247.674805 147.677246 247.159180 147.822266 Q 246.643555 147.967285 246.154785 148.246582 L 246.154785 147.258301 Q 246.702637 147.048828 247.204834 146.944092 Q 247.707031 146.839355 248.179688 146.839355 Q 248.926270 146.839355 249.455322 147.059570 Q 249.984375 147.279785 250.312012 147.720215 Q 250.516113 147.988770 250.602051 148.383545 Q 250.687988 148.778320 250.687988 149.567871 Z " fill="rgb(0, 0, 0)" fill-opacity="1.000000" />
<path d="M 254.014160 152.242676 L 254.014160 155.288086 L 253.020508 155.288086 L 253.020508 146.984375 L 254.014160 146.984375 L 254.014160 147.752441 Q 254.261230 147.306641 254.672119 147.072998 Q 255.083008 146.839355 255.620117 146.839355 Q 256.710449 146.839355 257.330811 147.682617 Q 257.951172 148.525879 257.951172 150.019043 Q 257.951172 151.485352 257.328125 152.320557 Q 256.705078 153.155762 255.620117 153.155762 Q 255.072266 153.155762 254.661377 152.922119 Q 254.250488 152.688477 254.014160 152.242676 Z M 256.914551 149.997559 Q 256.914551 148.848145 256.552002 148.262695 Q 256.189453 147.677246 255.475098 147.677246 Q 254.755371 147.677246 254.384766 148.265381 Q 254.014160 148.853516 254.014160 149.997559 Q 254.014160 151.136230 254.384766 151.727051 Q 254.755371 152.317871 255.475098 152.317871 Q 256.189453 152.317871 256.552002 151.732422 Q 256.914551 151.146973 256.914551 149.997559 Z " fill="rgb(0, 0, 0)" fill-opacity="1.000000" />
<path d="M 352.878906 156.319336 L 352.878906 142.300781 L 353.738281 142.300781 L 353.738281 156.319336 Z " fill="rgb(0, 0, 0)" fill-opacity="1.000000" />
<path d="M 429.878906 150.335938 L 429.878906 142.300781 L 430.738281 142.300781 L 430.738281 149.412109 L 433.729980 149.412109 L 433.729980 150.335938 Z " fill="rgb(0, 0, 0)" fill-opacity="1.000000" />
<path d="M 433.892578 150.335938 L 433.892578 149.412109 L 440.729980 149.412109 L 440.729980 150.335938 Z " fill="rgb(0, 0, 0)" fill-opacity="1.000000" />
<path d="M 440.892578 150.335938 L 440.892578 149.412109 L 447.729980 149.412109 L 447.729980 150.335938 Z " fill="rgb(0, 0, 0)" fill-opacity="1.000000" />
<path d="M 447.892578 150.335938 L 447.892578 149.412109 L 454.729980 149.412109 L 454.729980 150.335938 Z " fill="rgb(0, 0, 0)" fill-opacity="1.000000" />
<path d="M 454.892578 150.335938 L 454.892578 149.412109 L 461.729980 149.412109 L 461.729980 150.335938 Z " fill="rgb(0, 0, 0)" fill-opacity="1.000000" />
<path d="M 461.892578 150.335938 L 461.892578 149.412109 L 468.729980 149.412109 L 468.729980 150.335938 Z " fill="rgb(0, 0, 0)" fill-opacity="1.000000" />
<path d="M 468.892578 150.335938 L 468.892578 149.412109 L 475.729980 149.412109 L 475.729980 150.335938 Z " fill="rgb(0, 0, 0)" fill-opacity="1.000000" />
<path d="M 475.892578 150.335938 L 475.892578 149.412109 L 482.729980 149.412109 L 482.729980 150.335938 Z " fill="rgb(0, 0, 0)" fill-opacity="1.000000" />
<path d="M 482.892578 150.335938 L 482.892578 149.412109 L 489.729980 149.412109 L 489.729980 150.335938 Z " fill="rgb(0, 0, 0)" fill-opacity="1.000000" />
<path d="M 489.892578 150.335938 L 489.892578 149.412109 L 496.729980 149.412109 L 496.729980 150.335938 Z " fill="rgb(0, 0, 0)" fill-opacity="1.000000" />
<path d="M 496.892578 150.335938 L 496.892578 149.412109 L 503.729980 149.412109 L 503.729980 150.335938 Z " fill="rgb(0, 0, 0)" fill-opacity="1.000000" />
<path d="M 503.892578 150.335938 L 503.892578 149.412109 L 510.729980 149.412109 L 510.729980 150.335938 Z " fill="rgb(0, 0, 0)" fill-opacity="1.000000" />
<path d="M 510.892578 150.335938 L 510.892578 149.412109 L 513.878906 149.412109 L 513.878906 142.300781 L 514.738281 142.300781 L 514.738281 150.335938 Z " fill="rgb(0, 0, 0)" fill-opacity="1.000000" />
<path d="M 590.878906 156.319336 L 590.878906 142.300781 L 591.738281 142.300781 L 591.738281 156.319336 Z " fill="rgb(0, 0, 0)" fill-opacity="1.000000" />
<path d="M 19.435547 80.254883 L 19.435547 81.355957 Q 18.941406 81.039062 18.444580 80.877930 Q 17.947754 80.716797 17.442871 80.716797 Q 16.674805 80.716797 16.229004 81.073975 Q 15.783203 81.431152 15.783203 82.038086 Q 15.783203 82.569824 16.075928 82.849121 Q 16.368652 83.128418 17.168945 83.316406 L 17.738281 83.445312 Q 18.866211 83.708496 19.381836 84.272461 Q 19.897461 84.836426 19.897461 85.808594 Q 19.897461 86.952637 19.188477 87.554199 Q 18.479492 88.155762 17.125977 88.155762 Q 16.562012 88.155762 15.992676 88.034912 Q 15.423340 87.914062 14.848633 87.672363 L 14.848633 86.517578 Q 15.466309 86.909668 16.016846 87.092285 Q 16.567383 87.274902 17.125977 87.274902 Q 17.947754 87.274902 18.404297 86.906982 Q 18.860840 86.539062 18.860840 85.878418 Q 18.860840 85.276855 18.546631 84.959961 Q 18.232422 84.643066 17.453613 84.471191 L 16.873535 84.336914 Q 15.756348 84.084473 15.251465 83.574219 Q 14.746582 83.063965 14.746582 82.204590 Q 14.746582 81.130371 15.468994 80.483154 Q 16.191406 79.835938 17.389160 79.835938 Q 17.851074 79.835938 18.361328 79.940674 Q 18.871582 80.045410 19.435547 80.254883 Z " fill="rgb(0, 0, 0)" fill-opacity="1.000000" />
<path d="M 23.878906 104.319336 L 23.878906 97.412109 L 27.729980 97.412109 L 27.729980 98.335938 L 24.738281 98.335938 L 24.738281 104.319336 Z " fill="rgb(0, 0, 0)" fill-opacity="1.000000" />
<path d="M 23.878906 117.319336 L 23.878906 103.300781 L 24.738281 103.300781 L 24.738281 117.319336 Z " fill="rgb(0, 0, 0)" fill-opacity="1.000000" />
<path d="M 23.878906 124.335938 L 23.878906 116.300781 L 24.738281 116.300781 L 24.738281 123.412109 L 27.729980 123.412109 L 27.729980 124.335938 Z " fill="rgb(0, 0, 0)" fill-opacity="1.000000" />
<path d="M 43.670410 139.978516 Q 42.032227 139.033203 42.032227 137.142578 Q 42.032227 135.251953 43.670410 134.306641 Q 44.486816 133.833984 45.308594 133.833984 Q 46.125000 133.833984 46.946777 134.306641 Q 48.590332 135.251953 48.590332 137.142578 Q 48.590332 139.033203 46.946777 139.978516 Q 46.125000 140.451172 45.308594 140.451172 Q 44.486816 140.451172 43.670410 139.978516 Z " fill="rgb(0, 0, 0)" fill-opacity="1.000000" />
<path d="M 48.892578 137.335938 L 48.892578 136.412109 L 55.729980 136.412109 L 55.729980 137.335938 Z " fill="rgb(0, 0, 0)" fill-opacity="1.000000" />
<path d="M 55.892578 137.335938 L 55.892578 136.412109 L 62.729980 136.412109 L 62.729980 137.335938 Z " fill="rgb(0, 0, 0)" fill-opacity="1.000000" />
<path d="M 62.892578 137.335938 L 62.892578 136.412109 L 69.729980 136.412109 L 69.729980 137.335938 Z " fill="rgb(0, 0, 0)" fill-opacity="1.000000" />
<path d="M 69.892578 137.335938 L 69.892578 136.412109 L 76.729980 136.412109 L 76.729980 137.335938 Z " fill="rgb(0, 0, 0)" fill-opacity="1.000000" />
<path d="M 76.892578 137.335938 L 76.892578 136.412109 L 83.729980 136.412109 L 83.729980 137.335938 Z " fill="rgb(0, 0, 0)" fill-opacity="1.000000" />
<path d="M 87.738281 137.335938 L 87.738281 143.319336 L 86.878906 143.319336 L 86.878906 137.335938 L 83.892578 137.335938 L 83.892578 136.412109 L 86.878906 136.412109 L 86.878906 129.300781 L 87.738281 129.300781 L 87.738281 136.412109 L 90.729980 136.412109 L 90.729980 137.335938 Z " fill="rgb(0, 0, 0)" fill-opacity="1.000000" />
<path d="M 90.892578 137.335938 L 90.892578 136.412109 L 97.729980 136.412109 L 97.729980 137.335938 Z " fill="rgb(0, 0, 0)" fill-opacity="1.000000" />
<path d="M 97.892578 137.335938 L 97.892578 136.412109 L 104.729980 136.412109 L 104.729980 137.335938 Z " fill="rgb(0, 0, 0)" fill-opacity="1.000000" />
<path d="M 104.892578 137.335938 L 104.892578 136.412109 L 111.729980 136.412109 L 111.729980 137.335938 Z " fill="rgb(0, 0, 0)" fill-opacity="1.000000" />
<path d="M 111.892578 137.335938 L 111.892578 136.412109 L 118.729980 136.412109 L 118.729980 137.335938 Z " fill="rgb(0, 0, 0)" fill-opacity="1.000000" />
<path d="M 118.892578 137.335938 L 118.892578 136.412109 L 125.729980 136.412109 L 125.729980 137.335938 Z " fill="rgb(0, 0, 0)" fill-opacity="1.000000" />
<path d="M 125.892578 137.335938 L 125.892578 136.412109 L 132.729980 136.412109 L 132.729980 137.335938 Z " fill="rgb(0, 0, 0)" fill-opacity="1.000000" />
<path d="M 132.892578 137.335938 L 132.892578 136.412109 L 139.729980 136.412109 L 139.729980 137.335938 Z " fill="rgb(0, 0, 0)" fill-opacity="1.000000" />
<path d="M 139.892578 137.335938 L 139.892578 136.412109 L 146.729980 136.412109 L 146.729980 137.335938 Z " fill="rgb(0, 0, 0)" fill-opacity="1.000000" />
<path d="M 146.892578 137.335938 L 146.892578 136.412109 L 153.729980 136.412109 L 153.729980 137.335938 Z " fill="rgb(0, 0, 0)" fill-opacity="1.000000" />
<path d="M 153.892578 137.335938 L 153.892578 136.412109 L 160.729980 136.412109 L 160.729980 137.335938 Z " fill="rgb(0, 0, 0)" fill-opacity="1.000000" />
<path d="M 160.892578 137.335938 L 160.892578 136.412109 L 167.729980 136.412109 L 167.729980 137.335938 Z " fill="rgb(0, 0, 0)" fill-opacity="1.000000" />
<path d="M 167.892578 137.335938 L 167.892578 136.412109 L 174.729980 136.412109 L 174.729980 137.335938 Z " fill="rgb(0, 0, 0)" fill-opacity="1.000000" />
<path d="M 174.892578 137.335938 L 174.892578 136.412109 L 181.729980 136.412109 L 181.729980 137.335938 Z " fill="rgb(0, 0, 0)" fill-opacity="1.000000" />
<path d="M 181.892578 137.335938 L 181.892578 136.412109 L 188.729980 136.412109 L 188.729980 137.335938 Z " fill="rgb(0, 0, 0)" fill-opacity="1.000000" />
<path d="M 188.892578 137.335938 L 188.892578 136.412109 L 195.729980 136.412109 L 195.729980 137.335938 Z " fill="rgb(0, 0, 0)" fill-opacity="1.000000" />
<path d="M 195.892578 137.335938 L 195.892578 136.412109 L 202.729980 136.412109 L 202.729980 137.335938 Z " fill="rgb(0, 0, 0)" fill-opacity="1.000000" />
<path d="M 202.892578 137.335938 L 202.892578 136.412109 L 209.729980 136.412109 L 209.729980 137.335938 Z " fill="rgb(0, 0, 0)" fill-opacity="1.000000" />
<path d="M 209.892578 137.335938 L 209.892578 136.412109 L 216.729980 136.412109 L 216.729980 137.335938 Z " fill="rgb(0, 0, 0)" fill-opacity="1.000000" />
<path d="M 216.892578 137.335938 L 216.892578 136.412109 L 223.729980 136.412109 L 223.729980 137.335938 Z " fill="rgb(0, 0, 0)" fill-opacity="1.000000" />
<path d="M 223.892578 137.335938 L 223.892578 136.412109 L 230.729980 136.412109 L 230.729980 137.335938 Z " fill="rgb(0, 0, 0)" fill-opacity="1.000000" />
<path d="M 230.892578 137.335938 L 230.892578 136.412109 L 237.729980 136.412109 L 237.729980 137.335938 Z " fill="rgb(0, 0, 0)" fill-opacity="1.000000" />
<path d="M 237.892578 137.335938 L 237.892578 136.412109 L 244.729980 136.412109 L 244.729980 137.335938 Z " fill="rgb(0, 0, 0)" fill-opacity="1.000000" />
<path d="M 244.892578 137.335938 L 244.892578 136.412109 L 251.729980 136.412109 L 251.729980 137.335938 Z " fill="rgb(0, 0, 0)" fill-opacity="1.000000" />
<path d="M 251.892578 137.335938 L 251.892578 136.412109 L 258.729980 136.412109 L 258.729980 137.335938 Z " fill="rgb(0, 0, 0)" fill-opacity="1.000000" />
<path d="M 258.892578 137.335938 L 258.892578 136.412109 L 265.729980 136.412109 L 265.729980 137.335938 Z " fill="rgb(0, 0, 0)" fill-opacity="1.000000" />
<path d="M 265.892578 137.335938 L 265.892578 136.412109 L 272.729980 136.412109 L 272.729980 137.335938 Z " fill="rgb(0, 0, 0)" fill-opacity="1.000000" />
<path d="M 272.892578 137.335938 L 272.892578 136.412109 L 279.729980 136.412109 L 279.729980 137.335938 Z " fill="rgb(0, 0, 0)" fill-opacity="1.000000" />
<path d="M 279.892578 137.335938 L 279.892578 136.412109 L 286.729980 136.412109 L 286.729980 137.335938 Z " fill="rgb(0, 0, 0)" fill-opacity="1.000000" />
<path d="M 286.892578 137.335938 L 286.892578 136.412109 L 293.729980 136.412109 L 293.729980 137.335938 Z " fill="rgb(0, 0, 0)" fill-opacity="1.000000" />
<path d="M 293.892578 137.335938 L 293.892578 136.412109 L 300.729980 136.412109 L 300.729980 137.335938 Z " fill="rgb(0, 0, 0)" fill-opacity="1.000000" />
<path d="M 300.892578 137.335938 L 300.892578 136.412109 L 307.729980 136.412109 L 307.729980 137.335938 Z " fill="rgb(0, 0, 0)" fill-opacity="1.000000" />
<path d="M 307.892578 137.335938 L 307.892578 136.412109 L 314.729980 136.412109 L 314.729980 137.335938 Z " fill="rgb(0, 0, 0)" fill-opacity="1.000000" />
<path d="M 314.892578 137.335938 L 314.892578 136.412109 L 321.729980 136.412109 L 321.729980 137.335938 Z " fill="rgb(0, 0, 0)" fill-opacity="1.000000" />
<path d="M 321.892578 137.335938 L 321.892578 136.412109 L 328.729980 136.412109 L 328.729980 137.335938 Z " fill="rgb(0, 0, 0)" fill-opacity="1.000000" />
<path d="M 328.892578 137.335938 L 328.892578 136.412109 L 335.729980 136.412109 L 335.729980 137.335938 Z " fill="rgb(0, 0, 0)" fill-opacity="1.000000" />
<path d="M 335.892578 137.335938 L 335.892578 136.412109 L 342.729980 136.412109 L 342.729980 137.335938 Z " fill="rgb(0, 0, 0)" fill-opacity="1.000000" />
<path d="M 342.892578 137.335938 L 342.892578 136.412109 L 349.729980 136.412109 L 349.729980 137.335938 Z " fill="rgb(0, 0, 0)" fill-opacity="1.000000" />
<path d="M 349.892578 137.335938 L 349.892578 136.412109 L 356.729980 136.412109 L 356.729980 137.335938 Z " fill="rgb(0, 0, 0)" fill-opacity="1.000000" />
<path d="M 356.892578 137.335938 L 356.892578 136.412109 L 363.729980 136.412109 L 363.729980 137.335938 Z " fill="rgb(0, 0, 0)" fill-opacity="1.000000" />
<path d="M 363.892578 137.335938 L 363.892578 136.412109 L 370.729980 136.412109 L 370.729980 137.335938 Z " fill="rgb(0, 0, 0)" fill-opacity="1.000000" />
<path d="M 370.892578 137.335938 L 370.892578 136.412109 L 377.729980 136.412109 L 377.729980 137.335938 Z " fill="rgb(0, 0, 0)" fill-opacity="1.000000" />
<path d="M 377.892578 137.335938 L 377.892578 136.412109 L 384.729980 136.412109 L 384.729980 137.335938 Z " fill="rgb(0, 0, 0)" fill-opacity="1.000000" />
<path d="M 384.892578 137.335938 L 384.892578 136.412109 L 391.729980 136.412109 L 391.729980 137.335938 Z " fill="rgb(0, 0, 0)" fill-opacity="1.000000" />
<path d="M 391.892578 137.335938 L 391.892578 136.412109 L 398.729980 136.412109 L 398.729980 137.335938 Z " fill="rgb(0, 0, 0)" fill-opacity="1.000000" />
<path d="M 398.892578 137.335938 L 398.892578 136.412109 L 405.729980 136.412109 L 405.729980 137.335938 Z " fill="rgb(0, 0, 0)" fill-opacity="1.000000" />
<path d="M 405.892578 137.335938 L 405.892578 136.412109 L 412.729980 136.412109 L 412.729980 137.335938 Z " fill="rgb(0, 0, 0)" fill-opacity="1.000000" />
<path d="M 412.892578 137.335938 L 412.892578 136.412109 L 419.729980 136.412109 L 419.729980 137.335938 Z " fill="rgb(0, 0, 0)" fill-opacity="1.000000" />
<path d="M 420.032227 140.418945 L 420.032227 133.866211 L 426.590332 137.142578 Z " fill="rgb(0, 0, 0)" fill-opacity="1.000000" />
<path d="M 429.878906 143.319336 L 429.878906 129.300781 L 430.738281 129.300781 L 430.738281 143.319336 Z " fill="rgb(0, 0, 0)" fill-opacity="1.000000" />
<path d="M 441.735840 131.980957 L 442.826172 131.980957 L 442.826172 135.053223 L 445.796387 135.053223 L 445.796387 131.980957 L 446.886719 131.980957 L 446.886719 140.000000 L 445.796387 140.000000 L 445.796387 135.966309 L 442.826172 135.966309 L 442.826172 140.000000 L 441.735840 140.000000 Z " fill="rgb(0, 0, 0)" fill-opacity="1.000000" />
<path d="M 454.015625 136.498047 L 454.015625 136.981445 L 449.734863 136.981445 L 449.734863 137.013672 Q 449.691895 138.243652 450.204834 138.780762 Q 450.717773 139.317871 451.652344 139.317871 Q 452.125000 139.317871 452.640625 139.167480 Q 453.156250 139.017090 453.741699 138.710938 L 453.741699 139.693848 Q 453.177734 139.924805 452.654053 140.040283 Q 452.130371 140.155762 451.641602 140.155762 Q 450.239746 140.155762 449.450195 139.315186 Q 448.660645 138.474609 448.660645 136.997559 Q 448.660645 135.558105 449.434082 134.698730 Q 450.207520 133.839355 451.496582 133.839355 Q 452.645996 133.839355 453.309326 134.618164 Q 453.972656 135.396973 454.015625 136.498047 Z M 453.027344 136.208008 Q 452.962891 135.584961 452.573486 135.131104 Q 452.184082 134.677246 451.453613 134.677246 Q 450.739258 134.677246 450.277344 135.149902 Q 449.815430 135.622559 449.772461 136.213379 Z " fill="rgb(0, 0, 0)" fill-opacity="1.000000" />
<path d="M 458.770508 136.976074 L 458.442871 136.976074 Q 457.578125 136.976074 457.140381 137.279541 Q 456.702637 137.583008 456.702637 138.184570 Q 456.702637 138.727051 457.030273 139.027832 Q 457.357910 139.328613 457.937988 139.328613 Q 458.754395 139.328613 459.221680 138.761963 Q 459.688965 138.195312 459.694336 137.196289 L 459.694336 136.976074 Z M 460.687988 136.567871 L 460.687988 140.000000 L 459.694336 140.000000 L 459.694336 139.108398 Q 459.377441 139.645508 458.896729 139.900635 Q 458.416016 140.155762 457.728516 140.155762 Q 456.810059 140.155762 456.262207 139.637451 Q 455.714355 139.119141 455.714355 138.249023 Q 455.714355 137.244629 456.388428 136.723633 Q 457.062500 136.202637 458.367676 136.202637 L 459.694336 136.202637 L 459.694336 136.046875 Q 459.688965 135.327148 459.329102 135.002197 Q 458.969238 134.677246 458.179688 134.677246 Q 457.674805 134.677246 457.159180 134.822266 Q 456.643555 134.967285 456.154785 135.246582 L 456.154785 134.258301 Q 456.702637 134.048828 457.204834 133.944092 Q 457.707031 133.839355 458.179688 133.839355 Q 458.926270 133.839355 459.455322 134.059570 Q 459.984375 134.279785 460.312012 134.720215 Q 460.516113 134.988770 460.602051 135.383545 Q 460.687988 135.778320 460.687988 136.567871 Z " fill="rgb(0, 0, 0)" fill-opacity="1.000000" />
<path d="M 464.014160 139.242676 L 464.014160 142.288086 L 463.020508 142.288086 L 463.020508 133.984375 L 464.014160 133.984375 L 464.014160 134.752441 Q 464.261230 134.306641 464.672119 134.072998 Q 465.083008 133.839355 465.620117 133.839355 Q 466.710449 133.839355 467.330811 134.682617 Q 467.951172 135.525879 467.951172 137.019043 Q 467.951172 138.485352 467.328125 139.320557 Q 466.705078 140.155762 465.620117 140.155762 Q 465.072266 140.155762 464.661377 139.922119 Q 464.250488 139.688477 464.014160 139.242676 Z M 466.914551 136.997559 Q 466.914551 135.848145 466.552002 135.262695 Q 466.189453 134.677246 465.475098 134.677246 Q 464.755371 134.677246 464.384766 135.265381 Q 464.014160 135.853516 464.014160 136.997559 Q 464.014160 138.136230 464.384766 138.727051 Q 464.755371 139.317871 465.475098 139.317871 Q 466.189453 139.317871 466.552002 138.732422 Q 466.914551 138.146973 466.914551 136.997559 Z " fill="rgb(0, 0, 0)" fill-opacity="1.000000" />
<path d="M 469.252441 131.980957 L 475.370117 131.980957 L 475.370117 132.894043 L 472.861816 132.894043 L 472.861816 140.000000 L 471.771484 140.000000 L 471.771484 132.894043 L 469.252441 132.894043 Z " fill="rgb(0, 0, 0)" fill-opacity="1.000000" />
<path d="M 477.047363 137.722656 L 477.047363 133.995117 L 478.035645 133.995117 L 478.035645 137.722656 Q 478.035645 138.533691 478.322998 138.915039 Q 478.610352 139.296387 479.211914 139.296387 Q 479.910156 139.296387 480.280762 138.804932 Q 480.651367 138.313477 480.651367 137.395020 L 480.651367 133.995117 L 481.645020 133.995117 L 481.645020 140.000000 L 480.651367 140.000000 L 480.651367 139.097656 Q 480.388184 139.618652 479.934326 139.887207 Q 479.480469 140.155762 478.873535 140.155762 Q 477.949707 140.155762 477.498535 139.551514 Q 477.047363 138.947266 477.047363 137.722656 Z " fill="rgb(0, 0, 0)" fill-opacity="1.000000" />
<path d="M 485.014160 139.242676 L 485.014160 142.288086 L 484.020508 142.288086 L 484.020508 133.984375 L 485.014160 133.984375 L 485.014160 134.752441 Q 485.261230 134.306641 485.672119 134.072998 Q 486.083008 133.839355 486.620117 133.839355 Q 487.710449 133.839355 488.330811 134.682617 Q 488.951172 135.525879 488.951172 137.019043 Q 488.951172 138.485352 488.328125 139.320557 Q 487.705078 140.155762 486.620117 140.155762 Q 486.072266 140.155762 485.661377 139.922119 Q 485.250488 139.688477 485.014160 139.242676 Z M 487.914551 136.997559 Q 487.914551 135.848145 487.552002 135.262695 Q 487.189453 134.677246 486.475098 134.677246 Q 485.755371 134.677246 485.384766 135.265381 Q 485.014160 135.853516 485.014160 136.997559 Q 485.014160 138.136230 485.384766 138.727051 Q 485.755371 139.317871 486.475098 139.317871 Q 487.189453 139.317871 487.552002 138.732422 Q 487.914551 138.146973 487.914551 136.997559 Z " fill="rgb(0, 0, 0)" fill-opacity="1.000000" />
<path d="M 493.861816 137.824707 Q 493.861816 138.490723 494.106201 138.829102 Q 494.350586 139.167480 494.828613 139.167480 L 495.983398 139.167480 L 495.983398 140.000000 L 494.731934 140.000000 Q 493.845703 140.000000 493.359619 139.433350 Q 492.873535 138.866699 492.873535 137.824707 L 492.873535 132.383789 L 491.289062 132.383789 L 491.289062 131.610352 L 493.861816 131.610352 Z " fill="rgb(0, 0, 0)" fill-opacity="1.000000" />
<path d="M 503.015625 136.498047 L 503.015625 136.981445 L 498.734863 136.981445 L 498.734863 137.013672 Q 498.691895 138.243652 499.204834 138.780762 Q 499.717773 139.317871 500.652344 139.317871 Q 501.125000 139.317871 501.640625 139.167480 Q 502.156250 139.017090 502.741699 138.710938 L 502.741699 139.693848 Q 502.177734 139.924805 501.654053 140.040283 Q 501.130371 140.155762 500.641602 140.155762 Q 499.239746 140.155762 498.450195 139.315186 Q 497.660645 138.474609 497.660645 136.997559 Q 497.660645 135.558105 498.434082 134.698730 Q 499.207520 133.839355 500.496582 133.839355 Q 501.645996 133.839355 502.309326 134.618164 Q 502.972656 135.396973 503.015625 136.498047 Z M 502.027344 136.208008 Q 501.962891 135.584961 501.573486 135.131104 Q 501.184082 134.677246 500.453613 134.677246 Q 499.739258 134.677246 499.277344 135.149902 Q 498.815430 135.622559 498.772461 136.213379 Z " fill="rgb(0, 0, 0)" fill-opacity="1.000000" />
<path d="M 513.878906 143.319336 L 513.878906 129.300781 L 514.738281 129.300781 L 514.738281 143.319336 Z " fill="rgb(0, 0, 0)" fill-opacity="1.000000" />
<path d="M 27.892578 124.335938 L 27.892578 123.412109 L 34.729980 123.412109 L 34.729980 124.335938 Z " fill="rgb(0, 0, 0)" fill-opacity="1.000000" />
<path d="M 34.892578 124.335938 L 34.892578 123.412109 L 41.729980 123.412109 L 41.729980 124.335938 Z " fill="rgb(0, 0, 0)" fill-opacity="1.000000" />
<path d="M 41.892578 124.335938 L 41.892578 123.412109 L 48.729980 123.412109 L 48.729980 124.335938 Z " fill="rgb(0, 0, 0)" fill-opacity="1.000000" />
<path d="M 48.892578 124.335938 L 48.892578 123.412109 L 55.729980 123.412109 L 55.729980 124.335938 Z " fill="rgb(0, 0, 0)" fill-opacity="1.000000" />
<path d="M 55.892578 124.335938 L 55.892578 123.412109 L 62.729980 123.412109 L 62.729980 124.335938 Z " fill="rgb(0, 0, 0)" fill-opacity="1.000000" />
<path d="M 62.892578 124.335938 L 62.892578 123.412109 L 65.878906 123.412109 L 65.878906 116.300781 L 66.738281 116.300781 L 66.738281 124.335938 Z " fill="rgb(0, 0, 0)" fill-opacity="1.000000" />
<path d="M 86.878906 130.319336 L 86.878906 116.300781 L 87.738281 116.300781 L 87.738281 130.319336 Z " fill="rgb(0, 0, 0)" fill-opacity="1.000000" />
<path d="M 352.878906 130.319336 L 352.878906 116.300781 L 353.738281 116.300781 L 353.738281 130.319336 Z " fill="rgb(0, 0, 0)" fill-opacity="1.000000" />
<path d="M 429.878906 130.319336 L 429.878906 123.412109 L 433.729980 123.412109 L 433.729980 124.335938 L 430.738281 124.335938 L 430.738281 130.319336 Z " fill="rgb(0, 0, 0)" fill-opacity="1.000000" />
<path d="M 433.892578 124.335938 L 433.892578 123.412109 L 440.729980 123.412109 L 440.729980 124.335938 Z " fill="rgb(0, 0, 0)" fill-opacity="1.000000" />
<path d="M 440.892578 124.335938 L 440.892578 123.412109 L 447.729980 123.412109 L 447.729980 124.335938 Z " fill="rgb(0, 0, 0)" fill-opacity="1.000000" />
<path d="M 447.892578 124.335938 L 447.892578 123.412109 L 454.729980 123.412109 L 454.729980 124.335938 Z " fill="rgb(0, 0, 0)" fill-opacity="1.000000" />
<path d="M 454.892578 124.335938 L 454.892578 123.412109 L 461.729980 123.412109 L 461.729980 124.335938 Z " fill="rgb(0, 0, 0)" fill-opacity="1.000000" />
<path d="M 461.892578 124.335938 L 461.892578 123.412109 L 468.729980 123.412109 L 468.729980 124.335938 Z " fill="rgb(0, 0, 0)" fill-opacity="1.000000" />
<path d="M 468.892578 124.335938 L 468.892578 123.412109 L 475.729980 123.412109 L 475.729980 124.335938 Z " fill="rgb(0, 0, 0)" fill-opacity="1.000000" />
<path d="M 475.892578 124.335938 L 475.892578 123.412109 L 482.729980 123.412109 L 482.729980 124.335938 Z " fill="rgb(0, 0, 0)" fill-opacity="1.000000" />
<path d="M 482.892578 124.335938 L 482.892578 123.412109 L 489.729980 123.412109 L 489.729980 124.335938 Z " fill="rgb(0, 0, 0)" fill-opacity="1.000000" />
<path d="M 489.892578 124.335938 L 489.892578 123.412109 L 496.729980 123.412109 L 496.729980 124.335938 Z " fill="rgb(0, 0, 0)" fill-opacity="1.000000" />
<path d="M 496.892578 124.335938 L 496.892578 123.412109 L 503.729980 123.412109 L 503.729980 124.335938 Z " fill="rgb(0, 0, 0)" fill-opacity="1.000000" />
<path d="M 503.892578 124.335938 L 503.892578 123.412109 L 510.729980 123.412109 L 510.729980 124.335938 Z " fill="rgb(0, 0, 0)" fill-opacity="1.000000" />
<path d="M 513.878906 130.319336 L 513.878906 124.335938 L 510.892578 124.335938 L 510.892578 123.412109 L 514.738281 123.412109 L 514.738281 130.319336 Z " fill="rgb(0, 0, 0)" fill-opacity="1.000000" />
<path d="M 590.878906 130.319336 L 590.878906 116.300781 L 591.738281 116.300781 L 591.738281 130.319336 Z " fill="rgb(0, 0, 0)" fill-opacity="1.000000" />
<path d="M 32.608398 108.752441 L 32.608398 105.642578 L 33.596680 105.642578 L 33.596680 114.000000 L 32.608398 114.000000 L 32.608398 113.242676 Q 32.361328 113.688477 31.950439 113.922119 Q 31.539551 114.155762 31.002441 114.155762 Q 29.912109 114.155762 29.286377 113.309814 Q 28.660645 112.463867 28.660645 110.976074 Q 28.660645 109.509766 29.289062 108.674561 Q 29.917480 107.839355 31.002441 107.839355 Q 31.544922 107.839355 31.958496 108.072998 Q 32.372070 108.306641 32.608398 108.752441 Z M 29.702637 110.997559 Q 29.702637 112.146973 30.067871 112.732422 Q 30.433105 113.317871 31.147461 113.317871 Q 31.861816 113.317871 32.235107 112.727051 Q 32.608398 112.136230 32.608398 110.997559 Q 32.608398 109.853516 32.235107 109.265381 Q 31.861816 108.677246 31.147461 108.677246 Q 30.433105 108.677246 30.067871 109.262695 Q 29.702637 109.848145 29.702637 110.997559 Z " fill="rgb(0, 0, 0)" fill-opacity="1.000000" />
<path d="M 38.770508 110.976074 L 38.442871 110.976074 Q 37.578125 110.976074 37.140381 111.279541 Q 36.702637 111.583008 36.702637 112.184570 Q 36.702637 112.727051 37.030273 113.027832 Q 37.357910 113.328613 37.937988 113.328613 Q 38.754395 113.328613 39.221680 112.761963 Q 39.688965 112.195312 39.694336 111.196289 L 39.694336 110.976074 Z M 40.687988 110.567871 L 40.687988 114.000000 L 39.694336 114.000000 L 39.694336 113.108398 Q 39.377441 113.645508 38.896729 113.900635 Q 38.416016 114.155762 37.728516 114.155762 Q 36.810059 114.155762 36.262207 113.637451 Q 35.714355 113.119141 35.714355 112.249023 Q 35.714355 111.244629 36.388428 110.723633 Q 37.062500 110.202637 38.367676 110.202637 L 39.694336 110.202637 L 39.694336 110.046875 Q 39.688965 109.327148 39.329102 109.002197 Q 38.969238 108.677246 38.179688 108.677246 Q 37.674805 108.677246 37.159180 108.822266 Q 36.643555 108.967285 36.154785 109.246582 L 36.154785 108.258301 Q 36.702637 108.048828 37.204834 107.944092 Q 37.707031 107.839355 38.179688 107.839355 Q 38.926270 107.839355 39.455322 108.059570 Q 39.984375 108.279785 40.312012 108.720215 Q 40.516113 108.988770 40.602051 109.383545 Q 40.687988 109.778320 40.687988 110.567871 Z " fill="rgb(0, 0, 0)" fill-opacity="1.000000" />
<path d="M 45.297852 106.276367 L 45.297852 107.984375 L 47.542969 107.984375 L 47.542969 108.752441 L 45.297852 108.752441 L 45.297852 112.018066 Q 45.297852 112.684082 45.550293 112.947266 Q 45.802734 113.210449 46.431152 113.210449 L 47.542969 113.210449 L 47.542969 114.000000 L 46.334473 114.000000 Q 45.222656 114.000000 44.766113 113.554199 Q 44.309570 113.108398 44.309570 112.018066 L 44.309570 108.752441 L 42.703613 108.752441 L 42.703613 107.984375 L 44.309570 107.984375 L 44.309570 106.276367 Z " fill="rgb(0, 0, 0)" fill-opacity="1.000000" />
<path d="M 50.047363 111.722656 L 50.047363 107.995117 L 51.035645 107.995117 L 51.035645 111.722656 Q 51.035645 112.533691 51.322998 112.915039 Q 51.610352 113.296387 52.211914 113.296387 Q 52.910156 113.296387 53.280762 112.804932 Q 53.651367 112.313477 53.651367 111.395020 L 53.651367 107.995117 L 54.645020 107.995117 L 54.645020 114.000000 L 53.651367 114.000000 L 53.651367 113.097656 Q 53.388184 113.618652 52.934326 113.887207 Q 52.480469 114.155762 51.873535 114.155762 Q 50.949707 114.155762 50.498535 113.551514 Q 50.047363 112.947266 50.047363 111.722656 Z " fill="rgb(0, 0, 0)" fill-opacity="1.000000" />
<path d="M 59.630859 108.596680 Q 59.813477 108.209961 60.095459 108.024658 Q 60.377441 107.839355 60.774902 107.839355 Q 61.500000 107.839355 61.798096 108.400635 Q 62.096191 108.961914 62.096191 110.514160 L 62.096191 114.000000 L 61.193848 114.000000 L 61.193848 110.557129 Q 61.193848 109.284180 61.051514 108.975342 Q 60.909180 108.666504 60.533203 108.666504 Q 60.103516 108.666504 59.945068 108.996826 Q 59.786621 109.327148 59.786621 110.557129 L 59.786621 114.000000 L 58.884277 114.000000 L 58.884277 110.557129 Q 58.884277 109.268066 58.731201 108.967285 Q 58.578125 108.666504 58.180664 108.666504 Q 57.788574 108.666504 57.635498 108.996826 Q 57.482422 109.327148 57.482422 110.557129 L 57.482422 114.000000 L 56.585449 114.000000 L 56.585449 107.984375 L 57.482422 107.984375 L 57.482422 108.500000 Q 57.659668 108.177734 57.925537 108.008545 Q 58.191406 107.839355 58.529785 107.839355 Q 58.937988 107.839355 59.209229 108.027344 Q 59.480469 108.215332 59.630859 108.596680 Z " fill="rgb(0, 0, 0)" fill-opacity="1.000000" />
<path d="M 65.878906 117.319336 L 65.878906 103.300781 L 66.738281 103.300781 L 66.738281 117.319336 Z " fill="rgb(0, 0, 0)" fill-opacity="1.000000" />
<path d="M 70.032227 111.142578 L 76.590332 107.866211 L 76.590332 114.418945 Z " fill="rgb(0, 0, 0)" fill-opacity="1.000000" />
<path d="M 76.892578 111.335938 L 76.892578 110.412109 L 83.729980 110.412109 L 83.729980 111.335938 Z " fill="rgb(0, 0, 0)" fill-opacity="1.000000" />
<path d="M 87.738281 111.335938 L 87.738281 117.319336 L 86.878906 117.319336 L 86.878906 111.335938 L 83.892578 111.335938 L 83.892578 110.412109 L 86.878906 110.412109 L 86.878906 103.300781 L 87.738281 103.300781 L 87.738281 110.412109 L 90.729980 110.412109 L 90.729980 111.335938 Z " fill="rgb(0, 0, 0)" fill-opacity="1.000000" />
<path d="M 90.892578 111.335938 L 90.892578 110.412109 L 97.729980 110.412109 L 97.729980 111.335938 Z " fill="rgb(0, 0, 0)" fill-opacity="1.000000" />
<path d="M 97.892578 111.335938 L 97.892578 110.412109 L 104.729980 110.412109 L 104.729980 111.335938 Z " fill="rgb(0, 0, 0)" fill-opacity="1.000000" />
<path d="M 104.892578 111.335938 L 104.892578 110.412109 L 111.729980 110.412109 L 111.729980 111.335938 Z " fill="rgb(0, 0, 0)" fill-opacity="1.000000" />
<path d="M 111.892578 111.335938 L 111.892578 110.412109 L 118.729980 110.412109 L 118.729980 111.335938 Z " fill="rgb(0, 0, 0)" fill-opacity="1.000000" />
<path d="M 118.892578 111.335938 L 118.892578 110.412109 L 125.729980 110.412109 L 125.729980 111.335938 Z " fill="rgb(0, 0, 0)" fill-opacity="1.000000" />
<path d="M 125.892578 111.335938 L 125.892578 110.412109 L 132.729980 110.412109 L 132.729980 111.335938 Z " fill="rgb(0, 0, 0)" fill-opacity="1.000000" />
<path d="M 132.892578 111.335938 L 132.892578 110.412109 L 139.729980 110.412109 L 139.729980 111.335938 Z " fill="rgb(0, 0, 0)" fill-opacity="1.000000" />
<path d="M 139.892578 111.335938 L 139.892578 110.412109 L 142.878906 110.412109 L 142.878906 103.300781 L 143.738281 103.300781 L 143.738281 111.335938 Z " fill="rgb(0, 0, 0)" fill-opacity="1.000000" />
<path d="M 27.892578 98.335938 L 27.892578 97.412109 L 34.729980 97.412109 L 34.729980 98.335938 Z " fill="rgb(0, 0, 0)" fill-opacity="1.000000" />
<path d="M 34.892578 98.335938 L 34.892578 97.412109 L 41.729980 97.412109 L 41.729980 98.335938 Z " fill="rgb(0, 0, 0)" fill-opacity="1.000000" />
<path d="M 41.892578 98.335938 L 41.892578 97.412109 L 48.729980 97.412109 L 48.729980 98.335938 Z " fill="rgb(0, 0, 0)" fill-opacity="1.000000" />
<path d="M 48.892578 98.335938 L 48.892578 97.412109 L 55.729980 97.412109 L 55.729980 98.335938 Z " fill="rgb(0, 0, 0)" fill-opacity="1.000000" />
<path d="M 55.892578 98.335938 L 55.892578 97.412109 L 62.729980 97.412109 L 62.729980 98.335938 Z " fill="rgb(0, 0, 0)" fill-opacity="1.000000" />
<path d="M 65.878906 104.319336 L 65.878906 98.335938 L 62.892578 98.335938 L 62.892578 97.412109 L 66.738281 97.412109 L 66.738281 104.319336 Z " fill="rgb(0, 0, 0)" fill-opacity="1.000000" />
<path d="M 86.878906 104.319336 L 86.878906 90.300781 L 87.738281 90.300781 L 87.738281 104.319336 Z " fill="rgb(0, 0, 0)" fill-opacity="1.000000" />
<path d="M 142.878906 104.319336 L 142.878906 90.300781 L 143.738281 90.300781 L 143.738281 104.319336 Z " fill="rgb(0, 0, 0)" fill-opacity="1.000000" />
<path d="M 352.878906 104.319336 L 352.878906 90.300781 L 353.738281 90.300781 L 353.738281 104.319336 Z " fill="rgb(0, 0, 0)" fill-opacity="1.000000" />
<path d="M 590.878906 104.319336 L 590.878906 90.300781 L 591.738281 90.300781 L 591.738281 104.319336 Z " fill="rgb(0, 0, 0)" fill-opacity="1.000000" />
<path d="M 24.308594 82.677246 Q 23.556641 82.677246 23.169922 83.262695 Q 22.783203 83.848145 22.783203 84.997559 Q 22.783203 86.141602 23.169922 86.729736 Q 23.556641 87.317871 24.308594 87.317871 Q 25.065918 87.317871 25.452637 86.729736 Q 25.839355 86.141602 25.839355 84.997559 Q 25.839355 83.848145 25.452637 83.262695 Q 25.065918 82.677246 24.308594 82.677246 Z M 24.308594 81.839355 Q 25.560059 81.839355 26.223389 82.650391 Q 26.886719 83.461426 26.886719 84.997559 Q 26.886719 86.539062 26.226074 87.347412 Q 25.565430 88.155762 24.308594 88.155762 Q 23.057129 88.155762 22.396484 87.347412 Q 21.735840 86.539062 21.735840 84.997559 Q 21.735840 83.461426 22.396484 82.650391 Q 23.057129 81.839355 24.308594 81.839355 Z " fill="rgb(0, 0, 0)" fill-opacity="1.000000" />
<path d="M 34.203613 83.225098 Q 33.886719 82.978027 33.559082 82.865234 Q 33.231445 82.752441 32.839355 82.752441 Q 31.915527 82.752441 31.426758 83.332520 Q 30.937988 83.912598 30.937988 85.008301 L 30.937988 88.000000 L 29.944336 88.000000 L 29.944336 81.984375 L 30.937988 81.984375 L 30.937988 83.160645 Q 31.185059 82.521484 31.697998 82.180420 Q 32.210938 81.839355 32.914551 81.839355 Q 33.279785 81.839355 33.596680 81.930664 Q 33.913574 82.021973 34.203613 82.215332 Z " fill="rgb(0, 0, 0)" fill-opacity="1.000000" />
<path d="M 38.297852 80.276367 L 38.297852 81.984375 L 40.542969 81.984375 L 40.542969 82.752441 L 38.297852 82.752441 L 38.297852 86.018066 Q 38.297852 86.684082 38.550293 86.947266 Q 38.802734 87.210449 39.431152 87.210449 L 40.542969 87.210449 L 40.542969 88.000000 L 39.334473 88.000000 Q 38.222656 88.000000 37.766113 87.554199 Q 37.309570 87.108398 37.309570 86.018066 L 37.309570 82.752441 L 35.703613 82.752441 L 35.703613 81.984375 L 37.309570 81.984375 L 37.309570 80.276367 Z " fill="rgb(0, 0, 0)" fill-opacity="1.000000" />
<path d="M 42.252441 79.980957 L 48.370117 79.980957 L 48.370117 80.894043 L 45.861816 80.894043 L 45.861816 88.000000 L 44.771484 88.000000 L 44.771484 80.894043 L 42.252441 80.894043 Z " fill="rgb(0, 0, 0)" fill-opacity="1.000000" />
<path d="M 50.047363 85.722656 L 50.047363 81.995117 L 51.035645 81.995117 L 51.035645 85.722656 Q 51.035645 86.533691 51.322998 86.915039 Q 51.610352 87.296387 52.211914 87.296387 Q 52.910156 87.296387 53.280762 86.804932 Q 53.651367 86.313477 53.651367 85.395020 L 53.651367 81.995117 L 54.645020 81.995117 L 54.645020 88.000000 L 53.651367 88.000000 L 53.651367 87.097656 Q 53.388184 87.618652 52.934326 87.887207 Q 52.480469 88.155762 51.873535 88.155762 Q 50.949707 88.155762 50.498535 87.551514 Q 50.047363 86.947266 50.047363 85.722656 Z " fill="rgb(0, 0, 0)" fill-opacity="1.000000" />
<path d="M 58.014160 87.242676 L 58.014160 90.288086 L 57.020508 90.288086 L 57.020508 81.984375 L 58.014160 81.984375 L 58.014160 82.752441 Q 58.261230 82.306641 58.672119 82.072998 Q 59.083008 81.839355 59.620117 81.839355 Q 60.710449 81.839355 61.330811 82.682617 Q 61.951172 83.525879 61.951172 85.019043 Q 61.951172 86.485352 61.328125 87.320557 Q 60.705078 88.155762 59.620117 88.155762 Q 59.072266 88.155762 58.661377 87.922119 Q 58.250488 87.688477 58.014160 87.242676 Z M 60.914551 84.997559 Q 60.914551 83.848145 60.552002 83.262695 Q 60.189453 82.677246 59.475098 82.677246 Q 58.755371 82.677246 58.384766 83.265381 Q 58.014160 83.853516 58.014160 84.997559 Q 58.014160 86.136230 58.384766 86.727051 Q 58.755371 87.317871 59.475098 87.317871 Q 60.189453 87.317871 60.552002 86.732422 Q 60.914551 86.146973 60.914551 84.997559 Z " fill="rgb(0, 0, 0)" fill-opacity="1.000000" />
<path d="M 66.861816 85.824707 Q 66.861816 86.490723 67.106201 86.829102 Q 67.350586 87.167480 67.828613 87.167480 L 68.983398 87.167480 L 68.983398 88.000000 L 67.731934 88.000000 Q 66.845703 88.000000 66.359619 87.433350 Q 65.873535 86.866699 65.873535 85.824707 L 65.873535 80.383789 L 64.289062 80.383789 L 64.289062 79.610352 L 66.861816 79.610352 Z " fill="rgb(0, 0, 0)" fill-opacity="1.000000" />
<path d="M 76.015625 84.498047 L 76.015625 84.981445 L 71.734863 84.981445 L 71.734863 85.013672 Q 71.691895 86.243652 72.204834 86.780762 Q 72.717773 87.317871 73.652344 87.317871 Q 74.125000 87.317871 74.640625 87.167480 Q 75.156250 87.017090 75.741699 86.710938 L 75.741699 87.693848 Q 75.177734 87.924805 74.654053 88.040283 Q 74.130371 88.155762 73.641602 88.155762 Q 72.239746 88.155762 71.450195 87.315186 Q 70.660645 86.474609 70.660645 84.997559 Q 70.660645 83.558105 71.434082 82.698730 Q 72.207520 81.839355 73.496582 81.839355 Q 74.645996 81.839355 75.309326 82.618164 Q 75.972656 83.396973 76.015625 84.498047 Z M 75.027344 84.208008 Q 74.962891 83.584961 74.573486 83.131104 Q 74.184082 82.677246 73.453613 82.677246 Q 72.739258 82.677246 72.277344 83.149902 Q 71.815430 83.622559 71.772461 84.213379 Z " fill="rgb(0, 0, 0)" fill-opacity="1.000000" />
<path d="M 86.878906 91.319336 L 86.878906 77.300781 L 87.738281 77.300781 L 87.738281 91.319336 Z " fill="rgb(0, 0, 0)" fill-opacity="1.000000" />
<path d="M 6.892578 72.335938 L 6.892578 71.412109 L 13.729980 71.412109 L 13.729980 72.335938 Z " fill="rgb(0, 0, 0)" fill-opacity="1.000000" />
<path d="M 13.892578 72.335938 L 13.892578 71.412109 L 20.729980 71.412109 L 20.729980 72.335938 Z " fill="rgb(0, 0, 0)" fill-opacity="1.000000" />
<path d="M 20.892578 72.335938 L 20.892578 71.412109 L 27.729980 71.412109 L 27.729980 72.335938 Z " fill="rgb(0, 0, 0)" fill-opacity="1.000000" />
<path d="M 27.892578 72.335938 L 27.892578 71.412109 L 34.729980 71.412109 L 34.729980 72.335938 Z " fill="rgb(0, 0, 0)" fill-opacity="1.000000" />
<path d="M 34.892578 72.335938 L 34.892578 71.412109 L 41.729980 71.412109 L 41.729980 72.335938 Z " fill="rgb(0, 0, 0)" fill-opacity="1.000000" />
<path d="M 41.892578 72.335938 L 41.892578 71.412109 L 48.729980 71.412109 L 48.729980 72.335938 Z " fill="rgb(0, 0, 0)" fill-opacity="1.000000" />
<path d="M 48.892578 72.335938 L 48.892578 71.412109 L 55.729980 71.412109 L 55.729980 72.335938 Z " fill="rgb(0, 0, 0)" fill-opacity="1.000000" />
<path d="M 55.892578 72.335938 L 55.892578 71.412109 L 62.729980 71.412109 L 62.729980 72.335938 Z " fill="rgb(0, 0, 0)" fill-opacity="1.000000" />
<path d="M 62.892578 72.335938 L 62.892578 71.412109 L 69.729980 71.412109 L 69.729980 72.335938 Z " fill="rgb(0, 0, 0)" fill-opacity="1.000000" />
<path d="M 69.892578 72.335938 L 69.892578 71.412109 L 76.729980 71.412109 L 76.729980 72.335938 Z " fill="rgb(0, 0, 0)" fill-opacity="1.000000" />
<path d="M 76.892578 72.335938 L 76.892578 71.412109 L 83.729980 71.412109 L 83.729980 72.335938 Z " fill="rgb(0, 0, 0)" fill-opacity="1.000000" />
<path d="M 86.878906 78.319336 L 86.878906 72.335938 L 83.892578 72.335938 L 83.892578 71.412109 L 87.738281 71.412109 L 87.738281 78.319336 Z " fill="rgb(0, 0, 0)" fill-opacity="1.000000" />
<path d="M 134.267578 66.642578 L 135.288086 66.642578 L 135.288086 71.481934 L 137.882324 68.984375 L 139.085449 68.984375 L 136.716797 71.250977 L 139.456055 75.000000 L 138.247559 75.000000 L 136.023926 71.895508 L 135.288086 72.588379 L 135.288086 75.000000 L 134.267578 75.000000 Z " fill="rgb(0, 0, 0)" fill-opacity="1.000000" />
<path d="M 146.015625 71.498047 L 146.015625 71.981445 L 141.734863 71.981445 L 141.734863 72.013672 Q 141.691895 73.243652 142.204834 73.780762 Q 142.717773 74.317871 143.652344 74.317871 Q 144.125000 74.317871 144.640625 74.167480 Q 145.156250 74.017090 145.741699 73.710938 L 145.741699 74.693848 Q 145.177734 74.924805 144.654053 75.040283 Q 144.130371 75.155762 143.641602 75.155762 Q 142.239746 75.155762 141.450195 74.315186 Q 140.660645 73.474609 140.660645 71.997559 Q 140.660645 70.558105 141.434082 69.698730 Q 142.207520 68.839355 143.496582 68.839355 Q 144.645996 68.839355 145.309326 69.618164 Q 145.972656 70.396973 146.015625 71.498047 Z M 145.027344 71.208008 Q 144.962891 70.584961 144.573486 70.131104 Q 144.184082 69.677246 143.453613 69.677246 Q 142.739258 69.677246 142.277344 70.149902 Q 141.815430 70.622559 141.772461 71.213379 Z " fill="rgb(0, 0, 0)" fill-opacity="1.000000" />
<path d="M 151.608398 73.066406 Q 151.361328 73.694824 150.979980 74.720703 Q 150.448242 76.138672 150.265625 76.450195 Q 150.018555 76.869141 149.647949 77.078613 Q 149.277344 77.288086 148.783203 77.288086 L 147.988281 77.288086 L 147.988281 76.460938 L 148.573730 76.460938 Q 149.008789 76.460938 149.255859 76.208496 Q 149.502930 75.956055 149.884277 74.903320 L 147.558594 68.984375 L 148.605957 68.984375 L 150.389160 73.689453 L 152.145508 68.984375 L 153.192871 68.984375 Z " fill="rgb(0, 0, 0)" fill-opacity="1.000000" />
<path d="M 352.878906 78.319336 L 352.878906 64.300781 L 353.738281 64.300781 L 353.738281 78.319336 Z " fill="rgb(0, 0, 0)" fill-opacity="1.000000" />
<path d="M 590.878906 78.319336 L 590.878906 64.300781 L 591.738281 64.300781 L 591.738281 78.319336 Z " fill="rgb(0, 0, 0)" fill-opacity="1.000000" />
<path d="M 108.770508 58.976074 L 108.442871 58.976074 Q 107.578125 58.976074 107.140381 59.279541 Q 106.702637 59.583008 106.702637 60.184570 Q 106.702637 60.727051 107.030273 61.027832 Q 107.357910 61.328613 107.937988 61.328613 Q 108.754395 61.328613 109.221680 60.761963 Q 109.688965 60.195312 109.694336 59.196289 L 109.694336 58.976074 Z M 110.687988 58.567871 L 110.687988 62.000000 L 109.694336 62.000000 L 109.694336 61.108398 Q 109.377441 61.645508 108.896729 61.900635 Q 108.416016 62.155762 107.728516 62.155762 Q 106.810059 62.155762 106.262207 61.637451 Q 105.714355 61.119141 105.714355 60.249023 Q 105.714355 59.244629 106.388428 58.723633 Q 107.062500 58.202637 108.367676 58.202637 L 109.694336 58.202637 L 109.694336 58.046875 Q 109.688965 57.327148 109.329102 57.002197 Q 108.969238 56.677246 108.179688 56.677246 Q 107.674805 56.677246 107.159180 56.822266 Q 106.643555 56.967285 106.154785 57.246582 L 106.154785 56.258301 Q 106.702637 56.048828 107.204834 55.944092 Q 107.707031 55.839355 108.179688 55.839355 Q 108.926270 55.839355 109.455322 56.059570 Q 109.984375 56.279785 110.312012 56.720215 Q 110.516113 56.988770 110.602051 57.383545 Q 110.687988 57.778320 110.687988 58.567871 Z " fill="rgb(0, 0, 0)" fill-opacity="1.000000" />
<path d="M 116.930664 58.997559 Q 116.930664 57.848145 116.565430 57.262695 Q 116.200195 56.677246 115.485840 56.677246 Q 114.766113 56.677246 114.395508 57.265381 Q 114.024902 57.853516 114.024902 58.997559 Q 114.024902 60.136230 114.395508 60.727051 Q 114.766113 61.317871 115.485840 61.317871 Q 116.200195 61.317871 116.565430 60.732422 Q 116.930664 60.146973 116.930664 58.997559 Z M 114.024902 56.752441 Q 114.261230 56.312012 114.677490 56.075684 Q 115.093750 55.839355 115.641602 55.839355 Q 116.726562 55.839355 117.349609 56.674561 Q 117.972656 57.509766 117.972656 58.976074 Q 117.972656 60.463867 117.346924 61.309814 Q 116.721191 62.155762 115.630859 62.155762 Q 115.093750 62.155762 114.682861 61.922119 Q 114.271973 61.688477 114.024902 61.242676 L 114.024902 62.000000 L 113.036621 62.000000 L 113.036621 53.642578 L 114.024902 53.642578 Z " fill="rgb(0, 0, 0)" fill-opacity="1.000000" />
<path d="M 123.930664 58.997559 Q 123.930664 57.848145 123.565430 57.262695 Q 123.200195 56.677246 122.485840 56.677246 Q 121.766113 56.677246 121.395508 57.265381 Q 121.024902 57.853516 121.024902 58.997559 Q 121.024902 60.136230 121.395508 60.727051 Q 121.766113 61.317871 122.485840 61.317871 Q 123.200195 61.317871 123.565430 60.732422 Q 123.930664 60.146973 123.930664 58.997559 Z M 121.024902 56.752441 Q 121.261230 56.312012 121.677490 56.075684 Q 122.093750 55.839355 122.641602 55.839355 Q 123.726562 55.839355 124.349609 56.674561 Q 124.972656 57.509766 124.972656 58.976074 Q 124.972656 60.463867 124.346924 61.309814 Q 123.721191 62.155762 122.630859 62.155762 Q 122.093750 62.155762 121.682861 61.922119 Q 121.271973 61.688477 121.024902 61.242676 L 121.024902 62.000000 L 120.036621 62.000000 L 120.036621 53.642578 L 121.024902 53.642578 Z " fill="rgb(0, 0, 0)" fill-opacity="1.000000" />
<path d="M 132.203613 57.225098 Q 131.886719 56.978027 131.559082 56.865234 Q 131.231445 56.752441 130.839355 56.752441 Q 129.915527 56.752441 129.426758 57.332520 Q 128.937988 57.912598 128.937988 59.008301 L 128.937988 62.000000 L 127.944336 62.000000 L 127.944336 55.984375 L 128.937988 55.984375 L 128.937988 57.160645 Q 129.185059 56.521484 129.697998 56.180420 Q 130.210938 55.839355 130.914551 55.839355 Q 131.279785 55.839355 131.596680 55.930664 Q 131.913574 56.021973 132.203613 56.215332 Z " fill="rgb(0, 0, 0)" fill-opacity="1.000000" />
<path d="M 139.015625 58.498047 L 139.015625 58.981445 L 134.734863 58.981445 L 134.734863 59.013672 Q 134.691895 60.243652 135.204834 60.780762 Q 135.717773 61.317871 136.652344 61.317871 Q 137.125000 61.317871 137.640625 61.167480 Q 138.156250 61.017090 138.741699 60.710938 L 138.741699 61.693848 Q 138.177734 61.924805 137.654053 62.040283 Q 137.130371 62.155762 136.641602 62.155762 Q 135.239746 62.155762 134.450195 61.315186 Q 133.660645 60.474609 133.660645 58.997559 Q 133.660645 57.558105 134.434082 56.698730 Q 135.207520 55.839355 136.496582 55.839355 Q 137.645996 55.839355 138.309326 56.618164 Q 138.972656 57.396973 139.015625 58.498047 Z M 138.027344 58.208008 Q 137.962891 57.584961 137.573486 57.131104 Q 137.184082 56.677246 136.453613 56.677246 Q 135.739258 56.677246 135.277344 57.149902 Q 134.815430 57.622559 134.772461 58.213379 Z " fill="rgb(0, 0, 0)" fill-opacity="1.000000" />
<path d="M 140.537109 55.984375 L 141.562988 55.984375 L 143.308594 61.033203 L 145.059570 55.984375 L 146.085449 55.984375 L 143.947754 62.000000 L 142.674805 62.000000 Z " fill="rgb(0, 0, 0)" fill-opacity="1.000000" />
<path d="M 148.697266 56.005859 L 151.227051 56.005859 L 151.227051 61.231934 L 153.187500 61.231934 L 153.187500 62.000000 L 148.278320 62.000000 L 148.278320 61.231934 L 150.238770 61.231934 L 150.238770 56.773926 L 148.697266 56.773926 Z M 150.238770 53.669434 L 151.227051 53.669434 L 151.227051 54.915527 L 150.238770 54.915527 Z " fill="rgb(0, 0, 0)" fill-opacity="1.000000" />
<path d="M 157.770508 58.976074 L 157.442871 58.976074 Q 156.578125 58.976074 156.140381 59.279541 Q 155.702637 59.583008 155.702637 60.184570 Q 155.702637 60.727051 156.030273 61.027832 Q 156.357910 61.328613 156.937988 61.328613 Q 157.754395 61.328613 158.221680 60.761963 Q 158.688965 60.195312 158.694336 59.196289 L 158.694336 58.976074 Z M 159.687988 58.567871 L 159.687988 62.000000 L 158.694336 62.000000 L 158.694336 61.108398 Q 158.377441 61.645508 157.896729 61.900635 Q 157.416016 62.155762 156.728516 62.155762 Q 155.810059 62.155762 155.262207 61.637451 Q 154.714355 61.119141 154.714355 60.249023 Q 154.714355 59.244629 155.388428 58.723633 Q 156.062500 58.202637 157.367676 58.202637 L 158.694336 58.202637 L 158.694336 58.046875 Q 158.688965 57.327148 158.329102 57.002197 Q 157.969238 56.677246 157.179688 56.677246 Q 156.674805 56.677246 156.159180 56.822266 Q 155.643555 56.967285 155.154785 57.246582 L 155.154785 56.258301 Q 155.702637 56.048828 156.204834 55.944092 Q 156.707031 55.839355 157.179688 55.839355 Q 157.926270 55.839355 158.455322 56.059570 Q 158.984375 56.279785 159.312012 56.720215 Q 159.516113 56.988770 159.602051 57.383545 Q 159.687988 57.778320 159.687988 58.567871 Z " fill="rgb(0, 0, 0)" fill-opacity="1.000000" />
<path d="M 164.297852 54.276367 L 164.297852 55.984375 L 166.542969 55.984375 L 166.542969 56.752441 L 164.297852 56.752441 L 164.297852 60.018066 Q 164.297852 60.684082 164.550293 60.947266 Q 164.802734 61.210449 165.431152 61.210449 L 166.542969 61.210449 L 166.542969 62.000000 L 165.334473 62.000000 Q 164.222656 62.000000 163.766113 61.554199 Q 163.309570 61.108398 163.309570 60.018066 L 163.309570 56.752441 L 161.703613 56.752441 L 161.703613 55.984375 L 163.309570 55.984375 L 163.309570 54.276367 Z " fill="rgb(0, 0, 0)" fill-opacity="1.000000" />
<path d="M 174.015625 58.498047 L 174.015625 58.981445 L 169.734863 58.981445 L 169.734863 59.013672 Q 169.691895 60.243652 170.204834 60.780762 Q 170.717773 61.317871 171.652344 61.317871 Q 172.125000 61.317871 172.640625 61.167480 Q 173.156250 61.017090 173.741699 60.710938 L 173.741699 61.693848 Q 173.177734 61.924805 172.654053 62.040283 Q 172.130371 62.155762 171.641602 62.155762 Q 170.239746 62.155762 169.450195 61.315186 Q 168.660645 60.474609 168.660645 58.997559 Q 168.660645 57.558105 169.434082 56.698730 Q 170.207520 55.839355 171.496582 55.839355 Q 172.645996 55.839355 173.309326 56.618164 Q 173.972656 57.396973 174.015625 58.498047 Z M 173.027344 58.208008 Q 172.962891 57.584961 172.573486 57.131104 Q 172.184082 56.677246 171.453613 56.677246 Q 170.739258 56.677246 170.277344 57.149902 Q 169.815430 57.622559 169.772461 58.213379 Z " fill="rgb(0, 0, 0)" fill-opacity="1.000000" />
<path d="M 179.608398 56.752441 L 179.608398 53.642578 L 180.596680 53.642578 L 180.596680 62.000000 L 179.608398 62.000000 L 179.608398 61.242676 Q 179.361328 61.688477 178.950439 61.922119 Q 178.539551 62.155762 178.002441 62.155762 Q 176.912109 62.155762 176.286377 61.309814 Q 175.660645 60.463867 175.660645 58.976074 Q 175.660645 57.509766 176.289062 56.674561 Q 176.917480 55.839355 178.002441 55.839355 Q 178.544922 55.839355 178.958496 56.072998 Q 179.372070 56.306641 179.608398 56.752441 Z M 176.702637 58.997559 Q 176.702637 60.146973 177.067871 60.732422 Q 177.433105 61.317871 178.147461 61.317871 Q 178.861816 61.317871 179.235107 60.727051 Q 179.608398 60.136230 179.608398 58.997559 Q 179.608398 57.853516 179.235107 57.265381 Q 178.861816 56.677246 178.147461 56.677246 Q 177.433105 56.677246 177.067871 57.262695 Q 176.702637 57.848145 176.702637 58.997559 Z " fill="rgb(0, 0, 0)" fill-opacity="1.000000" />
<path d="M 352.878906 26.319336 L 352.878906 19.412109 L 356.729980 19.412109 L 356.729980 20.335938 L 353.738281 20.335938 L 353.738281 26.319336 Z " fill="rgb(0, 0, 0)" fill-opacity="1.000000" />
<path d="M 352.878906 52.319336 L 352.878906 38.300781 L 353.738281 38.300781 L 353.738281 52.319336 Z " fill="rgb(0, 0, 0)" fill-opacity="1.000000" />
<path d="M 590.878906 52.319336 L 590.878906 38.300781 L 591.738281 38.300781 L 591.738281 52.319336 Z " fill="rgb(0, 0, 0)" fill-opacity="1.000000" />
<path d="M 363.892578 20.335938 L 363.892578 19.412109 L 370.729980 19.412109 L 370.729980 20.335938 Z " fill="rgb(0, 0, 0)" fill-opacity="1.000000" />
<path d="M 377.892578 20.335938 L 377.892578 19.412109 L 384.729980 19.412109 L 384.729980 20.335938 Z " fill="rgb(0, 0, 0)" fill-opacity="1.000000" />
<path d="M 391.892578 20.335938 L 391.892578 19.412109 L 398.729980 19.412109 L 398.729980 20.335938 Z " fill="rgb(0, 0, 0)" fill-opacity="1.000000" />
<path d="M 405.892578 20.335938 L 405.892578 19.412109 L 412.729980 19.412109 L 412.729980 20.335938 Z " fill="rgb(0, 0, 0)" fill-opacity="1.000000" />
<path d="M 419.892578 20.335938 L 419.892578 19.412109 L 426.729980 19.412109 L 426.729980 20.335938 Z " fill="rgb(0, 0, 0)" fill-opacity="1.000000" />
<path d="M 433.892578 20.335938 L 433.892578 19.412109 L 440.729980 19.412109 L 440.729980 20.335938 Z " fill="rgb(0, 0, 0)" fill-opacity="1.000000" />
<path d="M 447.892578 20.335938 L 447.892578 19.412109 L 454.729980 19.412109 L 454.729980 20.335938 Z " fill="rgb(0, 0, 0)" fill-opacity="1.000000" />
<path d="M 461.892578 20.335938 L 461.892578 19.412109 L 468.729980 19.412109 L 468.729980 20.335938 Z " fill="rgb(0, 0, 0)" fill-opacity="1.000000" />
<path d="M 475.892578 20.335938 L 475.892578 19.412109 L 482.729980 19.412109 L 482.729980 20.335938 Z " fill="rgb(0, 0, 0)" fill-opacity="1.000000" />
<path d="M 489.892578 20.335938 L 489.892578 19.412109 L 496.729980 19.412109 L 496.729980 20.335938 Z " fill="rgb(0, 0, 0)" fill-opacity="1.000000" />
<path d="M 503.892578 20.335938 L 503.892578 19.412109 L 510.729980 19.412109 L 510.729980 20.335938 Z " fill="rgb(0, 0, 0)" fill-opacity="1.000000" />
<path d="M 517.892578 20.335938 L 517.892578 19.412109 L 524.729980 19.412109 L 524.729980 20.335938 Z " fill="rgb(0, 0, 0)" fill-opacity="1.000000" />
<path d="M 531.892578 20.335938 L 531.892578 19.412109 L 538.729980 19.412109 L 538.729980 20.335938 Z " fill="rgb(0, 0, 0)" fill-opacity="1.000000" />
<path d="M 545.892578 20.335938 L 545.892578 19.412109 L 552.729980 19.412109 L 552.729980 20.335938 Z " fill="rgb(0, 0, 0)" fill-opacity="1.000000" />
<path d="M 559.892578 20.335938 L 559.892578 19.412109 L 566.729980 19.412109 L 566.729980 20.335938 Z " fill="rgb(0, 0, 0)" fill-opacity="1.000000" />
<path d="M 573.892578 20.335938 L 573.892578 19.412109 L 580.729980 19.412109 L 580.729980 20.335938 Z " fill="rgb(0, 0, 0)" fill-opacity="1.000000" />
<path d="M 590.878906 26.319336 L 590.878906 20.335938 L 587.892578 20.335938 L 587.892578 19.412109 L 591.738281 19.412109 L 591.738281 26.319336 Z " fill="rgb(0, 0, 0)" fill-opacity="1.000000" />
<path d="M 357.735840 1.980957 L 358.826172 1.980957 L 358.826172 5.053223 L 361.796387 5.053223 L 361.796387 1.980957 L 362.886719 1.980957 L 362.886719 10.000000 L 361.796387 10.000000 L 361.796387 5.966309 L 358.826172 5.966309 L 358.826172 10.000000 L 357.735840 10.000000 Z " fill="rgb(0, 0, 0)" fill-opacity="1.000000" />
<path d="M 365.058105 1.980957 L 369.816895 1.980957 L 369.816895 2.894043 L 366.143066 2.894043 L 366.143066 5.053223 L 369.655762 5.053223 L 369.655762 5.966309 L 366.143066 5.966309 L 366.143066 9.086914 L 369.918945 9.086914 L 369.918945 10.000000 L 365.058105 10.000000 Z " fill="rgb(0, 0, 0)" fill-opacity="1.000000" />
<path d="M 374.308594 2.937012 L 373.164551 7.040527 L 375.452637 7.040527 Z M 373.653320 1.980957 L 374.969238 1.980957 L 377.423828 10.000000 L 376.301270 10.000000 L 375.710449 7.910645 L 372.901367 7.910645 L 372.321289 10.000000 L 371.198730 10.000000 Z " fill="rgb(0, 0, 0)" fill-opacity="1.000000" />
<path d="M 380.143066 2.872559 L 380.143066 5.885742 L 381.399902 5.885742 Q 382.151855 5.885742 382.573486 5.488281 Q 382.995117 5.090820 382.995117 4.376465 Q 382.995117 3.662109 382.576172 3.267334 Q 382.157227 2.872559 381.399902 2.872559 Z M 379.058105 1.980957 L 381.399902 1.980957 Q 382.742676 1.980957 383.435547 2.590576 Q 384.128418 3.200195 384.128418 4.376465 Q 384.128418 5.563477 383.438232 6.170410 Q 382.748047 6.777344 381.399902 6.777344 L 380.143066 6.777344 L 380.143066 10.000000 L 379.058105 10.000000 Z " fill="rgb(0, 0, 0)" fill-opacity="1.000000" />
</svg>