<svg xmlns="http://www.w3.org/2000/svg" version="1.1" width="407" height="248">
<path d="M 6.203613 174.225098 Q 5.886719 173.978027 5.559082 173.865234 Q 5.231445 173.752441 4.839355 173.752441 Q 3.915527 173.752441 3.426758 174.332520 Q 2.937988 174.912598 2.937988 176.008301 L 2.937988 179.000000 L 1.944336 179.000000 L 1.944336 172.984375 L 2.937988 172.984375 L 2.937988 174.160645 Q 3.185059 173.521484 3.697998 173.180420 Q 4.210938 172.839355 4.914551 172.839355 Q 5.279785 172.839355 5.596680 172.930664 Q 5.913574 173.021973 6.203613 173.215332 Z " fill="rgb(0, 0, 0)" fill-opacity="1.000000" />
<path d="M 42.032227 205.418945 L 42.032227 198.866211 L 48.590332 198.866211 L 48.590332 205.418945 Z " fill="rgb(0, 0, 0)" fill-opacity="1.000000" />
<path d="M 135.449219 221.319336 L 135.449219 207.300781 L 137.167969 207.300781 L 137.167969 221.319336 Z " fill="rgb(0, 0, 0)" fill-opacity="1.000000" />
<path d="M 135.449219 234.319336 L 135.449219 220.300781 L 137.167969 220.300781 L 137.167969 234.319336 Z " fill="rgb(0, 0, 0)" fill-opacity="1.000000" />
<path d="M 135.449219 241.797852 L 135.449219 233.300781 L 137.167969 233.300781 L 137.167969 239.950195 L 139.729980 239.950195 L 139.729980 241.797852 Z " fill="rgb(0, 0, 0)" fill-opacity="1.000000" />
<path d="M 139.892578 241.797852 L 139.892578 239.950195 L 146.729980 239.950195 L 146.729980 241.797852 Z " fill="rgb(0, 0, 0)" fill-opacity="1.000000" />
<path d="M 146.892578 241.797852 L 146.892578 239.950195 L 153.729980 239.950195 L 153.729980 241.797852 Z " fill="rgb(0, 0, 0)" fill-opacity="1.000000" />
<path d="M 153.892578 241.797852 L 153.892578 239.950195 L 160.729980 239.950195 L 160.729980 241.797852 Z " fill="rgb(0, 0, 0)" fill-opacity="1.000000" />
<path d="M 160.892578 241.797852 L 160.892578 239.950195 L 167.729980 239.950195 L 167.729980 241.797852 Z " fill="rgb(0, 0, 0)" fill-opacity="1.000000" />
<path d="M 167.892578 241.797852 L 167.892578 239.950195 L 174.729980 239.950195 L 174.729980 241.797852 Z " fill="rgb(0, 0, 0)" fill-opacity="1.000000" />
<path d="M 174.892578 241.797852 L 174.892578 239.950195 L 181.729980 239.950195 L 181.729980 241.797852 Z " fill="rgb(0, 0, 0)" fill-opacity="1.000000" />
<path d="M 181.892578 241.797852 L 181.892578 239.950195 L 188.729980 239.950195 L 188.729980 241.797852 Z " fill="rgb(0, 0, 0)" fill-opacity="1.000000" />
<path d="M 188.892578 241.797852 L 188.892578 239.950195 L 195.729980 239.950195 L 195.729980 241.797852 Z " fill="rgb(0, 0, 0)" fill-opacity="1.000000" />
<path d="M 195.892578 241.797852 L 195.892578 239.950195 L 202.729980 239.950195 L 202.729980 241.797852 Z " fill="rgb(0, 0, 0)" fill-opacity="1.000000" />
<path d="M 202.892578 241.797852 L 202.892578 239.950195 L 209.729980 239.950195 L 209.729980 241.797852 Z " fill="rgb(0, 0, 0)" fill-opacity="1.000000" />
<path d="M 209.892578 241.797852 L 209.892578 239.950195 L 216.729980 239.950195 L 216.729980 241.797852 Z " fill="rgb(0, 0, 0)" fill-opacity="1.000000" />
<path d="M 216.892578 241.797852 L 216.892578 239.950195 L 223.729980 239.950195 L 223.729980 241.797852 Z " fill="rgb(0, 0, 0)" fill-opacity="1.000000" />
<path d="M 223.892578 241.797852 L 223.892578 239.950195 L 230.729980 239.950195 L 230.729980 241.797852 Z " fill="rgb(0, 0, 0)" fill-opacity="1.000000" />
<path d="M 230.892578 241.797852 L 230.892578 239.950195 L 237.729980 239.950195 L 237.729980 241.797852 Z " fill="rgb(0, 0, 0)" fill-opacity="1.000000" />
<path d="M 237.892578 241.797852 L 237.892578 239.950195 L 244.729980 239.950195 L 244.729980 241.797852 Z " fill="rgb(0, 0, 0)" fill-opacity="1.000000" />
<path d="M 244.892578 241.797852 L 244.892578 239.950195 L 251.729980 239.950195 L 251.729980 241.797852 Z " fill="rgb(0, 0, 0)" fill-opacity="1.000000" />
<path d="M 251.892578 241.797852 L 251.892578 239.950195 L 258.729980 239.950195 L 258.729980 241.797852 Z " fill="rgb(0, 0, 0)" fill-opacity="1.000000" />
<path d="M 258.892578 241.797852 L 258.892578 239.950195 L 265.729980 239.950195 L 265.729980 241.797852 Z " fill="rgb(0, 0, 0)" fill-opacity="1.000000" />
<path d="M 265.892578 241.797852 L 265.892578 239.950195 L 272.729980 239.950195 L 272.729980 241.797852 Z " fill="rgb(0, 0, 0)" fill-opacity="1.000000" />
<path d="M 272.892578 241.797852 L 272.892578 239.950195 L 279.729980 239.950195 L 279.729980 241.797852 Z " fill="rgb(0, 0, 0)" fill-opacity="1.000000" />
<path d="M 279.892578 241.797852 L 279.892578 239.950195 L 286.729980 239.950195 L 286.729980 241.797852 Z " fill="rgb(0, 0, 0)" fill-opacity="1.000000" />
<path d="M 286.892578 241.797852 L 286.892578 239.950195 L 293.729980 239.950195 L 293.729980 241.797852 Z " fill="rgb(0, 0, 0)" fill-opacity="1.000000" />
<path d="M 293.892578 241.797852 L 293.892578 239.950195 L 300.729980 239.950195 L 300.729980 241.797852 Z " fill="rgb(0, 0, 0)" fill-opacity="1.000000" />
<path d="M 300.892578 241.797852 L 300.892578 239.950195 L 307.729980 239.950195 L 307.729980 241.797852 Z " fill="rgb(0, 0, 0)" fill-opacity="1.000000" />
<path d="M 307.892578 241.797852 L 307.892578 239.950195 L 314.729980 239.950195 L 314.729980 241.797852 Z " fill="rgb(0, 0, 0)" fill-opacity="1.000000" />
<path d="M 314.892578 241.797852 L 314.892578 239.950195 L 321.729980 239.950195 L 321.729980 241.797852 Z " fill="rgb(0, 0, 0)" fill-opacity="1.000000" />
<path d="M 321.892578 241.797852 L 321.892578 239.950195 L 328.729980 239.950195 L 328.729980 241.797852 Z " fill="rgb(0, 0, 0)" fill-opacity="1.000000" />
<path d="M 328.892578 241.797852 L 328.892578 239.950195 L 335.729980 239.950195 L 335.729980 241.797852 Z " fill="rgb(0, 0, 0)" fill-opacity="1.000000" />
<path d="M 335.892578 241.797852 L 335.892578 239.950195 L 342.729980 239.950195 L 342.729980 241.797852 Z " fill="rgb(0, 0, 0)" fill-opacity="1.000000" />
<path d="M 342.892578 241.797852 L 342.892578 239.950195 L 349.729980 239.950195 L 349.729980 241.797852 Z " fill="rgb(0, 0, 0)" fill-opacity="1.000000" />
<path d="M 349.892578 241.797852 L 349.892578 239.950195 L 356.729980 239.950195 L 356.729980 241.797852 Z " fill="rgb(0, 0, 0)" fill-opacity="1.000000" />
<path d="M 356.892578 241.797852 L 356.892578 239.950195 L 363.729980 239.950195 L 363.729980 241.797852 Z " fill="rgb(0, 0, 0)" fill-opacity="1.000000" />
<path d="M 363.892578 241.797852 L 363.892578 239.950195 L 370.729980 239.950195 L 370.729980 241.797852 Z " fill="rgb(0, 0, 0)" fill-opacity="1.000000" />
<path d="M 370.892578 241.797852 L 370.892578 239.950195 L 377.729980 239.950195 L 377.729980 241.797852 Z " fill="rgb(0, 0, 0)" fill-opacity="1.000000" />
<path d="M 377.892578 241.797852 L 377.892578 239.950195 L 384.729980 239.950195 L 384.729980 241.797852 Z " fill="rgb(0, 0, 0)" fill-opacity="1.000000" />
<path d="M 384.892578 241.797852 L 384.892578 239.950195 L 391.729980 239.950195 L 391.729980 241.797852 Z " fill="rgb(0, 0, 0)" fill-opacity="1.000000" />
<path d="M 391.892578 241.797852 L 391.892578 239.950195 L 398.729980 239.950195 L 398.729980 241.797852 Z " fill="rgb(0, 0, 0)" fill-opacity="1.000000" />
<path d="M 398.892578 241.797852 L 398.892578 239.950195 L 401.449219 239.950195 L 401.449219 233.300781 L 403.167969 233.300781 L 403.167969 241.797852 Z " fill="rgb(0, 0, 0)" fill-opacity="1.000000" />
<path d="M 149.878906 228.335938 L 149.878906 220.300781 L 150.738281 220.300781 L 150.738281 227.412109 L 153.729980 227.412109 L 153.729980 228.335938 Z " fill="rgb(0, 0, 0)" fill-opacity="1.000000" />
<path d="M 160.892578 228.335938 L 160.892578 227.412109 L 167.729980 227.412109 L 167.729980 228.335938 Z " fill="rgb(0, 0, 0)" fill-opacity="1.000000" />
<path d="M 174.892578 228.335938 L 174.892578 227.412109 L 181.729980 227.412109 L 181.729980 228.335938 Z " fill="rgb(0, 0, 0)" fill-opacity="1.000000" />
<path d="M 188.892578 228.335938 L 188.892578 227.412109 L 195.729980 227.412109 L 195.729980 228.335938 Z " fill="rgb(0, 0, 0)" fill-opacity="1.000000" />
<path d="M 202.892578 228.335938 L 202.892578 227.412109 L 209.729980 227.412109 L 209.729980 228.335938 Z " fill="rgb(0, 0, 0)" fill-opacity="1.000000" />
<path d="M 216.892578 228.335938 L 216.892578 227.412109 L 223.729980 227.412109 L 223.729980 228.335938 Z " fill="rgb(0, 0, 0)" fill-opacity="1.000000" />
<path d="M 230.892578 228.335938 L 230.892578 227.412109 L 237.729980 227.412109 L 237.729980 228.335938 Z " fill="rgb(0, 0, 0)" fill-opacity="1.000000" />
<path d="M 244.892578 228.335938 L 244.892578 227.412109 L 251.729980 227.412109 L 251.729980 228.335938 Z " fill="rgb(0, 0, 0)" fill-opacity="1.000000" />
<path d="M 401.449219 234.319336 L 401.449219 220.300781 L 403.167969 220.300781 L 403.167969 234.319336 Z " fill="rgb(0, 0, 0)" fill-opacity="1.000000" />
<path d="M 156.878906 215.335938 L 156.878906 207.300781 L 157.738281 207.300781 L 157.738281 214.412109 L 160.729980 214.412109 L 160.729980 215.335938 Z " fill="rgb(0, 0, 0)" fill-opacity="1.000000" />
<path d="M 160.892578 215.335938 L 160.892578 214.412109 L 167.729980 214.412109 L 167.729980 215.335938 Z " fill="rgb(0, 0, 0)" fill-opacity="1.000000" />
<path d="M 167.892578 215.335938 L 167.892578 214.412109 L 174.729980 214.412109 L 174.729980 215.335938 Z " fill="rgb(0, 0, 0)" fill-opacity="1.000000" />
<path d="M 174.892578 215.335938 L 174.892578 214.412109 L 181.729980 214.412109 L 181.729980 215.335938 Z " fill="rgb(0, 0, 0)" fill-opacity="1.000000" />
<path d="M 181.892578 215.335938 L 181.892578 214.412109 L 188.729980 214.412109 L 188.729980 215.335938 Z " fill="rgb(0, 0, 0)" fill-opacity="1.000000" />
<path d="M 188.892578 215.335938 L 188.892578 214.412109 L 195.729980 214.412109 L 195.729980 215.335938 Z " fill="rgb(0, 0, 0)" fill-opacity="1.000000" />
<path d="M 195.892578 215.335938 L 195.892578 214.412109 L 202.729980 214.412109 L 202.729980 215.335938 Z " fill="rgb(0, 0, 0)" fill-opacity="1.000000" />
<path d="M 202.892578 215.335938 L 202.892578 214.412109 L 209.729980 214.412109 L 209.729980 215.335938 Z " fill="rgb(0, 0, 0)" fill-opacity="1.000000" />
<path d="M 209.892578 215.335938 L 209.892578 214.412109 L 216.729980 214.412109 L 216.729980 215.335938 Z " fill="rgb(0, 0, 0)" fill-opacity="1.000000" />
<path d="M 216.892578 215.335938 L 216.892578 214.412109 L 223.729980 214.412109 L 223.729980 215.335938 Z " fill="rgb(0, 0, 0)" fill-opacity="1.000000" />
<path d="M 223.892578 215.335938 L 223.892578 214.412109 L 230.729980 214.412109 L 230.729980 215.335938 Z " fill="rgb(0, 0, 0)" fill-opacity="1.000000" />
<path d="M 230.892578 215.335938 L 230.892578 214.412109 L 237.729980 214.412109 L 237.729980 215.335938 Z " fill="rgb(0, 0, 0)" fill-opacity="1.000000" />
<path d="M 237.892578 215.335938 L 237.892578 214.412109 L 244.729980 214.412109 L 244.729980 215.335938 Z " fill="rgb(0, 0, 0)" fill-opacity="1.000000" />
<path d="M 244.892578 215.335938 L 244.892578 214.412109 L 247.878906 214.412109 L 247.878906 207.300781 L 248.738281 207.300781 L 248.738281 215.335938 Z " fill="rgb(0, 0, 0)" fill-opacity="1.000000" />
<path d="M 254.878906 221.319336 L 254.878906 207.300781 L 255.738281 207.300781 L 255.738281 221.319336 Z " fill="rgb(0, 0, 0)" fill-opacity="1.000000" />
<path d="M 401.449219 221.319336 L 401.449219 207.300781 L 403.167969 207.300781 L 403.167969 221.319336 Z " fill="rgb(0, 0, 0)" fill-opacity="1.000000" />
<path d="M 48.892578 202.335938 L 48.892578 201.412109 L 55.729980 201.412109 L 55.729980 202.335938 Z " fill="rgb(0, 0, 0)" fill-opacity="1.000000" />
<path d="M 55.892578 202.335938 L 55.892578 201.412109 L 62.729980 201.412109 L 62.729980 202.335938 Z " fill="rgb(0, 0, 0)" fill-opacity="1.000000" />
<path d="M 62.892578 202.335938 L 62.892578 201.412109 L 69.729980 201.412109 L 69.729980 202.335938 Z " fill="rgb(0, 0, 0)" fill-opacity="1.000000" />
<path d="M 69.892578 202.335938 L 69.892578 201.412109 L 76.729980 201.412109 L 76.729980 202.335938 Z " fill="rgb(0, 0, 0)" fill-opacity="1.000000" />
<path d="M 76.892578 202.335938 L 76.892578 201.412109 L 83.729980 201.412109 L 83.729980 202.335938 Z " fill="rgb(0, 0, 0)" fill-opacity="1.000000" />
<path d="M 83.892578 202.335938 L 83.892578 201.412109 L 90.729980 201.412109 L 90.729980 202.335938 Z " fill="rgb(0, 0, 0)" fill-opacity="1.000000" />
<path d="M 90.892578 202.335938 L 90.892578 201.412109 L 97.729980 201.412109 L 97.729980 202.335938 Z " fill="rgb(0, 0, 0)" fill-opacity="1.000000" />
<path d="M 97.892578 202.335938 L 97.892578 201.412109 L 104.729980 201.412109 L 104.729980 202.335938 Z " fill="rgb(0, 0, 0)" fill-opacity="1.000000" />
<path d="M 104.892578 202.335938 L 104.892578 201.412109 L 111.729980 201.412109 L 111.729980 202.335938 Z " fill="rgb(0, 0, 0)" fill-opacity="1.000000" />
<path d="M 111.892578 202.335938 L 111.892578 201.412109 L 118.729980 201.412109 L 118.729980 202.335938 Z " fill="rgb(0, 0, 0)" fill-opacity="1.000000" />
<path d="M 118.892578 202.335938 L 118.892578 201.412109 L 125.729980 201.412109 L 125.729980 202.335938 Z " fill="rgb(0, 0, 0)" fill-opacity="1.000000" />
<path d="M 125.892578 202.335938 L 125.892578 201.412109 L 132.729980 201.412109 L 132.729980 202.335938 Z " fill="rgb(0, 0, 0)" fill-opacity="1.000000" />
<path d="M 135.449219 208.319336 L 135.449219 202.797852 L 132.892578 202.797852 L 132.892578 200.950195 L 135.449219 200.950195 L 135.449219 194.300781 L 137.167969 194.300781 L 137.167969 200.950195 L 139.729980 200.950195 L 139.729980 202.797852 L 137.167969 202.797852 L 137.167969 208.319336 Z " fill="rgb(0, 0, 0)" fill-opacity="1.000000" />
<path d="M 139.892578 202.335938 L 139.892578 201.412109 L 146.729980 201.412109 L 146.729980 202.335938 Z " fill="rgb(0, 0, 0)" fill-opacity="1.000000" />
<path d="M 150.738281 202.335938 L 150.738281 208.319336 L 149.878906 208.319336 L 149.878906 202.335938 L 146.892578 202.335938 L 146.892578 201.412109 L 149.878906 201.412109 L 149.878906 194.300781 L 150.738281 194.300781 L 150.738281 201.412109 L 153.729980 201.412109 L 153.729980 202.335938 Z " fill="rgb(0, 0, 0)" fill-opacity="1.000000" />
<path d="M 154.032227 205.418945 L 154.032227 198.866211 L 160.590332 202.142578 Z " fill="rgb(0, 0, 0)" fill-opacity="1.000000" />
<path d="M 247.878906 208.319336 L 247.878906 194.300781 L 248.738281 194.300781 L 248.738281 208.319336 Z " fill="rgb(0, 0, 0)" fill-opacity="1.000000" />
<path d="M 401.449219 208.319336 L 401.449219 194.300781 L 403.167969 194.300781 L 403.167969 208.319336 Z " fill="rgb(0, 0, 0)" fill-opacity="1.000000" />
<path d="M 135.449219 195.319336 L 135.449219 181.300781 L 137.167969 181.300781 L 137.167969 195.319336 Z " fill="rgb(0, 0, 0)" fill-opacity="1.000000" />
<path d="M 156.878906 195.319336 L 156.878906 181.300781 L 157.738281 181.300781 L 157.738281 188.412109 L 160.729980 188.412109 L 160.729980 189.335938 L 157.738281 189.335938 L 157.738281 195.319336 Z " fill="rgb(0, 0, 0)" fill-opacity="1.000000" />
<path d="M 160.892578 189.335938 L 160.892578 188.412109 L 167.729980 188.412109 L 167.729980 189.335938 Z " fill="rgb(0, 0, 0)" fill-opacity="1.000000" />
<path d="M 167.892578 189.335938 L 167.892578 188.412109 L 174.729980 188.412109 L 174.729980 189.335938 Z " fill="rgb(0, 0, 0)" fill-opacity="1.000000" />
<path d="M 174.892578 189.335938 L 174.892578 188.412109 L 181.729980 188.412109 L 181.729980 189.335938 Z " fill="rgb(0, 0, 0)" fill-opacity="1.000000" />
<path d="M 181.892578 189.335938 L 181.892578 188.412109 L 188.729980 188.412109 L 188.729980 189.335938 Z " fill="rgb(0, 0, 0)" fill-opacity="1.000000" />
<path d="M 188.892578 189.335938 L 188.892578 188.412109 L 195.729980 188.412109 L 195.729980 189.335938 Z " fill="rgb(0, 0, 0)" fill-opacity="1.000000" />
<path d="M 195.892578 189.335938 L 195.892578 188.412109 L 202.729980 188.412109 L 202.729980 189.335938 Z " fill="rgb(0, 0, 0)" fill-opacity="1.000000" />
<path d="M 202.892578 189.335938 L 202.892578 188.412109 L 209.729980 188.412109 L 209.729980 189.335938 Z " fill="rgb(0, 0, 0)" fill-opacity="1.000000" />
<path d="M 209.892578 189.335938 L 209.892578 188.412109 L 216.729980 188.412109 L 216.729980 189.335938 Z " fill="rgb(0, 0, 0)" fill-opacity="1.000000" />
<path d="M 216.892578 189.335938 L 216.892578 188.412109 L 223.729980 188.412109 L 223.729980 189.335938 Z " fill="rgb(0, 0, 0)" fill-opacity="1.000000" />
<path d="M 223.892578 189.335938 L 223.892578 188.412109 L 230.729980 188.412109 L 230.729980 189.335938 Z " fill="rgb(0, 0, 0)" fill-opacity="1.000000" />
<path d="M 230.892578 189.335938 L 230.892578 188.412109 L 237.729980 188.412109 L 237.729980 189.335938 Z " fill="rgb(0, 0, 0)" fill-opacity="1.000000" />
<path d="M 237.892578 189.335938 L 237.892578 188.412109 L 244.729980 188.412109 L 244.729980 189.335938 Z " fill="rgb(0, 0, 0)" fill-opacity="1.000000" />
<path d="M 247.878906 195.319336 L 247.878906 189.335938 L 244.892578 189.335938 L 244.892578 188.412109 L 247.878906 188.412109 L 247.878906 181.300781 L 248.738281 181.300781 L 248.738281 195.319336 Z " fill="rgb(0, 0, 0)" fill-opacity="1.000000" />
<path d="M 254.878906 195.319336 L 254.878906 181.300781 L 255.738281 181.300781 L 255.738281 195.319336 Z " fill="rgb(0, 0, 0)" fill-opacity="1.000000" />
<path d="M 401.449219 195.319336 L 401.449219 181.300781 L 403.167969 181.300781 L 403.167969 195.319336 Z " fill="rgb(0, 0, 0)" fill-opacity="1.000000" />
<path d="M 13.015625 175.498047 L 13.015625 175.981445 L 8.734863 175.981445 L 8.734863 176.013672 Q 8.691895 177.243652 9.204834 177.780762 Q 9.717773 178.317871 10.652344 178.317871 Q 11.125000 178.317871 11.640625 178.167480 Q 12.156250 178.017090 12.741699 177.710938 L 12.741699 178.693848 Q 12.177734 178.924805 11.654053 179.040283 Q 11.130371 179.155762 10.641602 179.155762 Q 9.239746 179.155762 8.450195 178.315186 Q 7.660645 177.474609 7.660645 175.997559 Q 7.660645 174.558105 8.434082 173.698730 Q 9.207520 172.839355 10.496582 172.839355 Q 11.645996 172.839355 12.309326 173.618164 Q 12.972656 174.396973 13.015625 175.498047 Z M 12.027344 175.208008 Q 11.962891 174.584961 11.573486 174.131104 Q 11.184082 173.677246 10.453613 173.677246 Q 9.739258 173.677246 9.277344 174.149902 Q 8.815430 174.622559 8.772461 175.213379 Z " fill="rgb(0, 0, 0)" fill-opacity="1.000000" />
<path d="M 19.698730 178.693848 Q 19.301270 178.924805 18.879639 179.040283 Q 18.458008 179.155762 18.017578 179.155762 Q 16.621094 179.155762 15.834229 178.317871 Q 15.047363 177.479980 15.047363 175.997559 Q 15.047363 174.515137 15.834229 173.677246 Q 16.621094 172.839355 18.017578 172.839355 Q 18.452637 172.839355 18.866211 172.952148 Q 19.279785 173.064941 19.698730 173.301270 L 19.698730 174.337891 Q 19.306641 173.988770 18.911865 173.833008 Q 18.517090 173.677246 18.017578 173.677246 Q 17.088379 173.677246 16.588867 174.278809 Q 16.089355 174.880371 16.089355 175.997559 Q 16.089355 177.109375 16.591553 177.713623 Q 17.093750 178.317871 18.017578 178.317871 Q 18.533203 178.317871 18.941406 178.159424 Q 19.349609 178.000977 19.698730 177.667969 Z " fill="rgb(0, 0, 0)" fill-opacity="1.000000" />
<path d="M 27.015625 175.498047 L 27.015625 175.981445 L 22.734863 175.981445 L 22.734863 176.013672 Q 22.691895 177.243652 23.204834 177.780762 Q 23.717773 178.317871 24.652344 178.317871 Q 25.125000 178.317871 25.640625 178.167480 Q 26.156250 178.017090 26.741699 177.710938 L 26.741699 178.693848 Q 26.177734 178.924805 25.654053 179.040283 Q 25.130371 179.155762 24.641602 179.155762 Q 23.239746 179.155762 22.450195 178.315186 Q 21.660645 177.474609 21.660645 175.997559 Q 21.660645 174.558105 22.434082 173.698730 Q 23.207520 172.839355 24.496582 172.839355 Q 25.645996 172.839355 26.309326 173.618164 Q 26.972656 174.396973 27.015625 175.498047 Z M 26.027344 175.208008 Q 25.962891 174.584961 25.573486 174.131104 Q 25.184082 173.677246 24.453613 173.677246 Q 23.739258 173.677246 23.277344 174.149902 Q 22.815430 174.622559 22.772461 175.213379 Z " fill="rgb(0, 0, 0)" fill-opacity="1.000000" />
<path d="M 29.697266 173.005859 L 32.227051 173.005859 L 32.227051 178.231934 L 34.187500 178.231934 L 34.187500 179.000000 L 29.278320 179.000000 L 29.278320 178.231934 L 31.238770 178.231934 L 31.238770 173.773926 L 29.697266 173.773926 Z M 31.238770 170.669434 L 32.227051 170.669434 L 32.227051 171.915527 L 31.238770 171.915527 Z " fill="rgb(0, 0, 0)" fill-opacity="1.000000" />
<path d="M 35.537109 172.984375 L 36.562988 172.984375 L 38.308594 178.033203 L 40.059570 172.984375 L 41.085449 172.984375 L 38.947754 179.000000 L 37.674805 179.000000 Z " fill="rgb(0, 0, 0)" fill-opacity="1.000000" />
<path d="M 48.015625 175.498047 L 48.015625 175.981445 L 43.734863 175.981445 L 43.734863 176.013672 Q 43.691895 177.243652 44.204834 177.780762 Q 44.717773 178.317871 45.652344 178.317871 Q 46.125000 178.317871 46.640625 178.167480 Q 47.156250 178.017090 47.741699 177.710938 L 47.741699 178.693848 Q 47.177734 178.924805 46.654053 179.040283 Q 46.130371 179.155762 45.641602 179.155762 Q 44.239746 179.155762 43.450195 178.315186 Q 42.660645 177.474609 42.660645 175.997559 Q 42.660645 174.558105 43.434082 173.698730 Q 44.207520 172.839355 45.496582 172.839355 Q 46.645996 172.839355 47.309326 173.618164 Q 47.972656 174.396973 48.015625 175.498047 Z M 47.027344 175.208008 Q 46.962891 174.584961 46.573486 174.131104 Q 46.184082 173.677246 45.453613 173.677246 Q 44.739258 173.677246 44.277344 174.149902 Q 43.815430 174.622559 43.772461 175.213379 Z " fill="rgb(0, 0, 0)" fill-opacity="1.000000" />
<path d="M 55.203613 174.225098 Q 54.886719 173.978027 54.559082 173.865234 Q 54.231445 173.752441 53.839355 173.752441 Q 52.915527 173.752441 52.426758 174.332520 Q 51.937988 174.912598 51.937988 176.008301 L 51.937988 179.000000 L 50.944336 179.000000 L 50.944336 172.984375 L 51.937988 172.984375 L 51.937988 174.160645 Q 52.185059 173.521484 52.697998 173.180420 Q 53.210938 172.839355 53.914551 172.839355 Q 54.279785 172.839355 54.596680 172.930664 Q 54.913574 173.021973 55.203613 173.215332 Z " fill="rgb(0, 0, 0)" fill-opacity="1.000000" />
<path d="M 58.089355 176.830078 L 59.979980 176.830078 L 59.979980 179.000000 L 58.089355 179.000000 Z " fill="rgb(0, 0, 0)" fill-opacity="1.000000" />
<path d="M 68.226074 173.193848 L 68.226074 174.160645 Q 67.801758 173.913574 67.372070 173.790039 Q 66.942383 173.666504 66.496582 173.666504 Q 65.825195 173.666504 65.494873 173.884033 Q 65.164551 174.101562 65.164551 174.547363 Q 65.164551 174.950195 65.411621 175.148926 Q 65.658691 175.347656 66.641602 175.535645 L 67.039062 175.610840 Q 67.774902 175.750488 68.153564 176.169434 Q 68.532227 176.588379 68.532227 177.259766 Q 68.532227 178.151367 67.898438 178.653564 Q 67.264648 179.155762 66.136719 179.155762 Q 65.690918 179.155762 65.202148 179.061768 Q 64.713379 178.967773 64.144043 178.779785 L 64.144043 177.759277 Q 64.697266 178.043945 65.202148 178.186279 Q 65.707031 178.328613 66.158203 178.328613 Q 66.813477 178.328613 67.173340 178.062744 Q 67.533203 177.796875 67.533203 177.318848 Q 67.533203 176.631348 66.217285 176.368164 L 66.174316 176.357422 L 65.803711 176.282227 Q 64.949707 176.115723 64.557617 175.720947 Q 64.165527 175.326172 64.165527 174.644043 Q 64.165527 173.779297 64.750977 173.309326 Q 65.336426 172.839355 66.421387 172.839355 Q 66.904785 172.839355 67.350586 172.927979 Q 67.796387 173.016602 68.226074 173.193848 Z " fill="rgb(0, 0, 0)" fill-opacity="1.000000" />
<path d="M 76.015625 175.498047 L 76.015625 175.981445 L 71.734863 175.981445 L 71.734863 176.013672 Q 71.691895 177.243652 72.204834 177.780762 Q 72.717773 178.317871 73.652344 178.317871 Q 74.125000 178.317871 74.640625 178.167480 Q 75.156250 178.017090 75.741699 177.710938 L 75.741699 178.693848 Q 75.177734 178.924805 74.654053 179.040283 Q 74.130371 179.155762 73.641602 179.155762 Q 72.239746 179.155762 71.450195 178.315186 Q 70.660645 177.474609 70.660645 175.997559 Q 70.660645 174.558105 71.434082 173.698730 Q 72.207520 172.839355 73.496582 172.839355 Q 74.645996 172.839355 75.309326 173.618164 Q 75.972656 174.396973 76.015625 175.498047 Z M 75.027344 175.208008 Q 74.962891 174.584961 74.573486 174.131104 Q 74.184082 173.677246 73.453613 173.677246 Q 72.739258 173.677246 72.277344 174.149902 Q 71.815430 174.622559 71.772461 175.213379 Z " fill="rgb(0, 0, 0)" fill-opacity="1.000000" />
<path d="M 82.645020 175.272461 L 82.645020 179.000000 L 81.651367 179.000000 L 81.651367 175.272461 Q 81.651367 174.461426 81.366699 174.080078 Q 81.082031 173.698730 80.475098 173.698730 Q 79.782227 173.698730 79.408936 174.190186 Q 79.035645 174.681641 79.035645 175.600098 L 79.035645 179.000000 L 78.047363 179.000000 L 78.047363 172.984375 L 79.035645 172.984375 L 79.035645 173.886719 Q 79.298828 173.371094 79.750000 173.105225 Q 80.201172 172.839355 80.818848 172.839355 Q 81.737305 172.839355 82.191162 173.443604 Q 82.645020 174.047852 82.645020 175.272461 Z " fill="rgb(0, 0, 0)" fill-opacity="1.000000" />
<path d="M 88.608398 173.752441 L 88.608398 170.642578 L 89.596680 170.642578 L 89.596680 179.000000 L 88.608398 179.000000 L 88.608398 178.242676 Q 88.361328 178.688477 87.950439 178.922119 Q 87.539551 179.155762 87.002441 179.155762 Q 85.912109 179.155762 85.286377 178.309814 Q 84.660645 177.463867 84.660645 175.976074 Q 84.660645 174.509766 85.289062 173.674561 Q 85.917480 172.839355 87.002441 172.839355 Q 87.544922 172.839355 87.958496 173.072998 Q 88.372070 173.306641 88.608398 173.752441 Z M 85.702637 175.997559 Q 85.702637 177.146973 86.067871 177.732422 Q 86.433105 178.317871 87.147461 178.317871 Q 87.861816 178.317871 88.235107 177.727051 Q 88.608398 177.136230 88.608398 175.997559 Q 88.608398 174.853516 88.235107 174.265381 Q 87.861816 173.677246 87.147461 173.677246 Q 86.433105 173.677246 86.067871 174.262695 Q 85.702637 174.848145 85.702637 175.997559 Z " fill="rgb(0, 0, 0)" fill-opacity="1.000000" />
<path d="M 135.449219 182.319336 L 135.449219 168.300781 L 137.167969 168.300781 L 137.167969 182.319336 Z " fill="rgb(0, 0, 0)" fill-opacity="1.000000" />
<path d="M 149.878906 182.319336 L 149.878906 168.300781 L 150.738281 168.300781 L 150.738281 182.319336 Z " fill="rgb(0, 0, 0)" fill-opacity="1.000000" />
<path d="M 156.878906 182.319336 L 156.878906 168.300781 L 157.738281 168.300781 L 157.738281 182.319336 Z " fill="rgb(0, 0, 0)" fill-opacity="1.000000" />
<path d="M 247.878906 182.319336 L 247.878906 168.300781 L 248.738281 168.300781 L 248.738281 182.319336 Z " fill="rgb(0, 0, 0)" fill-opacity="1.000000" />
<path d="M 401.449219 182.319336 L 401.449219 168.300781 L 403.167969 168.300781 L 403.167969 182.319336 Z " fill="rgb(0, 0, 0)" fill-opacity="1.000000" />
<path d="M 135.449219 39.319336 L 135.449219 31.950195 L 139.729980 31.950195 L 139.729980 33.797852 L 137.167969 33.797852 L 137.167969 39.319336 Z " fill="rgb(0, 0, 0)" fill-opacity="1.000000" />
<path d="M 135.449219 52.319336 L 135.449219 38.300781 L 137.167969 38.300781 L 137.167969 52.319336 Z " fill="rgb(0, 0, 0)" fill-opacity="1.000000" />
<path d="M 135.449219 65.319336 L 135.449219 51.300781 L 137.167969 51.300781 L 137.167969 65.319336 Z " fill="rgb(0, 0, 0)" fill-opacity="1.000000" />
<path d="M 135.449219 78.319336 L 135.449219 64.300781 L 137.167969 64.300781 L 137.167969 78.319336 Z " fill="rgb(0, 0, 0)" fill-opacity="1.000000" />
<path d="M 135.449219 91.319336 L 135.449219 77.300781 L 137.167969 77.300781 L 137.167969 91.319336 Z " fill="rgb(0, 0, 0)" fill-opacity="1.000000" />
<path d="M 135.449219 104.319336 L 135.449219 90.300781 L 137.167969 90.300781 L 137.167969 104.319336 Z " fill="rgb(0, 0, 0)" fill-opacity="1.000000" />
<path d="M 135.449219 117.319336 L 135.449219 103.300781 L 137.167969 103.300781 L 137.167969 117.319336 Z " fill="rgb(0, 0, 0)" fill-opacity="1.000000" />
<path d="M 135.449219 130.319336 L 135.449219 116.300781 L 137.167969 116.300781 L 137.167969 130.319336 Z " fill="rgb(0, 0, 0)" fill-opacity="1.000000" />
<path d="M 135.449219 143.319336 L 135.449219 129.300781 L 137.167969 129.300781 L 137.167969 143.319336 Z " fill="rgb(0, 0, 0)" fill-opacity="1.000000" />
<path d="M 135.449219 156.319336 L 135.449219 142.300781 L 137.167969 142.300781 L 137.167969 156.319336 Z " fill="rgb(0, 0, 0)" fill-opacity="1.000000" />
<path d="M 135.449219 169.319336 L 135.449219 155.300781 L 137.167969 155.300781 L 137.167969 169.319336 Z " fill="rgb(0, 0, 0)" fill-opacity="1.000000" />
<path d="M 151.592285 53.116211 Q 150.877930 54.340820 150.526123 55.557373 Q 150.174316 56.773926 150.174316 58.009277 Q 150.174316 59.239258 150.526123 60.458496 Q 150.877930 61.677734 151.592285 62.913086 L 150.732910 62.913086 Q 149.921875 61.634766 149.524414 60.423584 Q 149.126953 59.212402 149.126953 58.009277 Q 149.126953 56.811523 149.524414 55.597656 Q 149.921875 54.383789 150.732910 53.116211 Z " fill="rgb(0, 0, 0)" fill-opacity="1.000000" />
<path d="M 149.878906 78.319336 L 149.878906 71.412109 L 153.729980 71.412109 L 153.729980 72.335938 L 150.738281 72.335938 L 150.738281 78.319336 Z " fill="rgb(0, 0, 0)" fill-opacity="1.000000" />
<path d="M 149.878906 104.319336 L 149.878906 90.300781 L 150.738281 90.300781 L 150.738281 104.319336 Z " fill="rgb(0, 0, 0)" fill-opacity="1.000000" />
<path d="M 156.878906 104.319336 L 156.878906 90.300781 L 157.738281 90.300781 L 157.738281 104.319336 Z " fill="rgb(0, 0, 0)" fill-opacity="1.000000" />
<path d="M 149.878906 130.319336 L 149.878906 116.300781 L 150.738281 116.300781 L 150.738281 130.319336 Z " fill="rgb(0, 0, 0)" fill-opacity="1.000000" />
<path d="M 156.878906 130.319336 L 156.878906 116.300781 L 157.738281 116.300781 L 157.738281 130.319336 Z " fill="rgb(0, 0, 0)" fill-opacity="1.000000" />
<path d="M 149.878906 156.319336 L 149.878906 142.300781 L 150.738281 142.300781 L 150.738281 156.319336 Z " fill="rgb(0, 0, 0)" fill-opacity="1.000000" />
<path d="M 156.878906 156.319336 L 156.878906 142.300781 L 157.738281 142.300781 L 157.738281 156.319336 Z " fill="rgb(0, 0, 0)" fill-opacity="1.000000" />
<path d="M 156.878906 169.319336 L 156.878906 155.300781 L 157.738281 155.300781 L 157.738281 162.412109 L 160.729980 162.412109 L 160.729980 163.335938 L 157.738281 163.335938 L 157.738281 169.319336 Z " fill="rgb(0, 0, 0)" fill-opacity="1.000000" />
<path d="M 160.892578 163.335938 L 160.892578 162.412109 L 167.729980 162.412109 L 167.729980 163.335938 Z " fill="rgb(0, 0, 0)" fill-opacity="1.000000" />
<path d="M 167.892578 163.335938 L 167.892578 162.412109 L 174.729980 162.412109 L 174.729980 163.335938 Z " fill="rgb(0, 0, 0)" fill-opacity="1.000000" />
<path d="M 174.892578 163.335938 L 174.892578 162.412109 L 181.729980 162.412109 L 181.729980 163.335938 Z " fill="rgb(0, 0, 0)" fill-opacity="1.000000" />
<path d="M 181.892578 163.335938 L 181.892578 162.412109 L 188.729980 162.412109 L 188.729980 163.335938 Z " fill="rgb(0, 0, 0)" fill-opacity="1.000000" />
<path d="M 188.892578 163.335938 L 188.892578 162.412109 L 195.729980 162.412109 L 195.729980 163.335938 Z " fill="rgb(0, 0, 0)" fill-opacity="1.000000" />
<path d="M 195.892578 163.335938 L 195.892578 162.412109 L 202.729980 162.412109 L 202.729980 163.335938 Z " fill="rgb(0, 0, 0)" fill-opacity="1.000000" />
<path d="M 202.892578 163.335938 L 202.892578 162.412109 L 209.729980 162.412109 L 209.729980 163.335938 Z " fill="rgb(0, 0, 0)" fill-opacity="1.000000" />
<path d="M 209.892578 163.335938 L 209.892578 162.412109 L 216.729980 162.412109 L 216.729980 163.335938 Z " fill="rgb(0, 0, 0)" fill-opacity="1.000000" />
<path d="M 216.892578 163.335938 L 216.892578 162.412109 L 223.729980 162.412109 L 223.729980 163.335938 Z " fill="rgb(0, 0, 0)" fill-opacity="1.000000" />
<path d="M 223.892578 163.335938 L 223.892578 162.412109 L 230.729980 162.412109 L 230.729980 163.335938 Z " fill="rgb(0, 0, 0)" fill-opacity="1.000000" />
<path d="M 230.892578 163.335938 L 230.892578 162.412109 L 237.729980 162.412109 L 237.729980 163.335938 Z " fill="rgb(0, 0, 0)" fill-opacity="1.000000" />
<path d="M 237.892578 163.335938 L 237.892578 162.412109 L 244.729980 162.412109 L 244.729980 163.335938 Z " fill="rgb(0, 0, 0)" fill-opacity="1.000000" />
<path d="M 247.878906 169.319336 L 247.878906 163.335938 L 244.892578 163.335938 L 244.892578 162.412109 L 247.878906 162.412109 L 247.878906 155.300781 L 248.738281 155.300781 L 248.738281 169.319336 Z " fill="rgb(0, 0, 0)" fill-opacity="1.000000" />
<path d="M 254.878906 169.319336 L 254.878906 155.300781 L 255.738281 155.300781 L 255.738281 169.319336 Z " fill="rgb(0, 0, 0)" fill-opacity="1.000000" />
<path d="M 401.449219 169.319336 L 401.449219 155.300781 L 403.167969 155.300781 L 403.167969 169.319336 Z " fill="rgb(0, 0, 0)" fill-opacity="1.000000" />
<path d="M 247.878906 156.319336 L 247.878906 142.300781 L 248.738281 142.300781 L 248.738281 156.319336 Z " fill="rgb(0, 0, 0)" fill-opacity="1.000000" />
<path d="M 284.082031 149.213379 Q 284.500977 149.320801 284.796387 149.618896 Q 285.091797 149.916992 285.532227 150.808594 L 286.622559 153.000000 L 285.457031 153.000000 L 284.500977 150.975098 Q 284.087402 150.110352 283.757080 149.860596 Q 283.426758 149.610840 282.895020 149.610840 L 281.858398 149.610840 L 281.858398 153.000000 L 280.768066 153.000000 L 280.768066 144.980957 L 283.002441 144.980957 Q 284.323730 144.980957 285.027344 145.577148 Q 285.730957 146.173340 285.730957 147.301270 Q 285.730957 148.096191 285.298584 148.598389 Q 284.866211 149.100586 284.082031 149.213379 Z M 281.858398 145.872559 L 281.858398 148.719238 L 283.045410 148.719238 Q 283.824219 148.719238 284.205566 148.370117 Q 284.586914 148.020996 284.586914 147.301270 Q 284.586914 146.608398 284.181396 146.240479 Q 283.775879 145.872559 283.002441 145.872559 Z " fill="rgb(0, 0, 0)" fill-opacity="1.000000" />
<path d="M 290.770508 149.976074 L 290.442871 149.976074 Q 289.578125 149.976074 289.140381 150.279541 Q 288.702637 150.583008 288.702637 151.184570 Q 288.702637 151.727051 289.030273 152.027832 Q 289.357910 152.328613 289.937988 152.328613 Q 290.754395 152.328613 291.221680 151.761963 Q 291.688965 151.195312 291.694336 150.196289 L 291.694336 149.976074 Z M 292.687988 149.567871 L 292.687988 153.000000 L 291.694336 153.000000 L 291.694336 152.108398 Q 291.377441 152.645508 290.896729 152.900635 Q 290.416016 153.155762 289.728516 153.155762 Q 288.810059 153.155762 288.262207 152.637451 Q 287.714355 152.119141 287.714355 151.249023 Q 287.714355 150.244629 288.388428 149.723633 Q 289.062500 149.202637 290.367676 149.202637 L 291.694336 149.202637 L 291.694336 149.046875 Q 291.688965 148.327148 291.329102 148.002197 Q 290.969238 147.677246 290.179688 147.677246 Q 289.674805 147.677246 289.159180 147.822266 Q 288.643555 147.967285 288.154785 148.246582 L 288.154785 147.258301 Q 288.702637 147.048828 289.204834 146.944092 Q 289.707031 146.839355 290.179688 146.839355 Q 290.926270 146.839355 291.455322 147.059570 Q 291.984375 147.279785 292.312012 147.720215 Q 292.516113 147.988770 292.602051 148.383545 Q 292.687988 148.778320 292.687988 149.567871 Z " fill="rgb(0, 0, 0)" fill-opacity="1.000000" />
<path d="M 299.698730 152.693848 Q 299.301270 152.924805 298.879639 153.040283 Q 298.458008 153.155762 298.017578 153.155762 Q 296.621094 153.155762 295.834229 152.317871 Q 295.047363 151.479980 295.047363 149.997559 Q 295.047363 148.515137 295.834229 147.677246 Q 296.621094 146.839355 298.017578 146.839355 Q 298.452637 146.839355 298.866211 146.952148 Q 299.279785 147.064941 299.698730 147.301270 L 299.698730 148.337891 Q 299.306641 147.988770 298.911865 147.833008 Q 298.517090 147.677246 298.017578 147.677246 Q 297.088379 147.677246 296.588867 148.278809 Q 296.089355 148.880371 296.089355 149.997559 Q 296.089355 151.109375 296.591553 151.713623 Q 297.093750 152.317871 298.017578 152.317871 Q 298.533203 152.317871 298.941406 152.159424 Q 299.349609 152.000977 299.698730 151.667969 Z " fill="rgb(0, 0, 0)" fill-opacity="1.000000" />
<path d="M 304.297852 145.276367 L 304.297852 146.984375 L 306.542969 146.984375 L 306.542969 147.752441 L 304.297852 147.752441 L 304.297852 151.018066 Q 304.297852 151.684082 304.550293 151.947266 Q 304.802734 152.210449 305.431152 152.210449 L 306.542969 152.210449 L 306.542969 153.000000 L 305.334473 153.000000 Q 304.222656 153.000000 303.766113 152.554199 Q 303.309570 152.108398 303.309570 151.018066 L 303.309570 147.752441 L 301.703613 147.752441 L 301.703613 146.984375 L 303.309570 146.984375 L 303.309570 145.276367 Z " fill="rgb(0, 0, 0)" fill-opacity="1.000000" />
<path d="M 311.308594 147.677246 Q 310.556641 147.677246 310.169922 148.262695 Q 309.783203 148.848145 309.783203 149.997559 Q 309.783203 151.141602 310.169922 151.729736 Q 310.556641 152.317871 311.308594 152.317871 Q 312.065918 152.317871 312.452637 151.729736 Q 312.839355 151.141602 312.839355 149.997559 Q 312.839355 148.848145 312.452637 148.262695 Q 312.065918 147.677246 311.308594 147.677246 Z M 311.308594 146.839355 Q 312.560059 146.839355 313.223389 147.650391 Q 313.886719 148.461426 313.886719 149.997559 Q 313.886719 151.539062 313.226074 152.347412 Q 312.565430 153.155762 311.308594 153.155762 Q 310.057129 153.155762 309.396484 152.347412 Q 308.735840 151.539062 308.735840 149.997559 Q 308.735840 148.461426 309.396484 147.650391 Q 310.057129 146.839355 311.308594 146.839355 Z " fill="rgb(0, 0, 0)" fill-opacity="1.000000" />
<path d="M 321.203613 148.225098 Q 320.886719 147.978027 320.559082 147.865234 Q 320.231445 147.752441 319.839355 147.752441 Q 318.915527 147.752441 318.426758 148.332520 Q 317.937988 148.912598 317.937988 150.008301 L 317.937988 153.000000 L 316.944336 153.000000 L 316.944336 146.984375 L 317.937988 146.984375 L 317.937988 148.160645 Q 318.185059 147.521484 318.697998 147.180420 Q 319.210938 146.839355 319.914551 146.839355 Q 320.279785 146.839355 320.596680 146.930664 Q 320.913574 147.021973 321.203613 147.215332 Z " fill="rgb(0, 0, 0)" fill-opacity="1.000000" />
<path d="M 324.089355 150.830078 L 325.979980 150.830078 L 325.979980 153.000000 L 324.089355 153.000000 Z " fill="rgb(0, 0, 0)" fill-opacity="1.000000" />
<path d="M 335.203613 148.225098 Q 334.886719 147.978027 334.559082 147.865234 Q 334.231445 147.752441 333.839355 147.752441 Q 332.915527 147.752441 332.426758 148.332520 Q 331.937988 148.912598 331.937988 150.008301 L 331.937988 153.000000 L 330.944336 153.000000 L 330.944336 146.984375 L 331.937988 146.984375 L 331.937988 148.160645 Q 332.185059 147.521484 332.697998 147.180420 Q 333.210938 146.839355 333.914551 146.839355 Q 334.279785 146.839355 334.596680 146.930664 Q 334.913574 147.021973 335.203613 147.215332 Z " fill="rgb(0, 0, 0)" fill-opacity="1.000000" />
<path d="M 342.015625 149.498047 L 342.015625 149.981445 L 337.734863 149.981445 L 337.734863 150.013672 Q 337.691895 151.243652 338.204834 151.780762 Q 338.717773 152.317871 339.652344 152.317871 Q 340.125000 152.317871 340.640625 152.167480 Q 341.156250 152.017090 341.741699 151.710938 L 341.741699 152.693848 Q 341.177734 152.924805 340.654053 153.040283 Q 340.130371 153.155762 339.641602 153.155762 Q 338.239746 153.155762 337.450195 152.315186 Q 336.660645 151.474609 336.660645 149.997559 Q 336.660645 148.558105 337.434082 147.698730 Q 338.207520 146.839355 339.496582 146.839355 Q 340.645996 146.839355 341.309326 147.618164 Q 341.972656 148.396973 342.015625 149.498047 Z M 341.027344 149.208008 Q 340.962891 148.584961 340.573486 148.131104 Q 340.184082 147.677246 339.453613 147.677246 Q 338.739258 147.677246 338.277344 148.149902 Q 337.815430 148.622559 337.772461 149.213379 Z " fill="rgb(0, 0, 0)" fill-opacity="1.000000" />
<path d="M 348.698730 152.693848 Q 348.301270 152.924805 347.879639 153.040283 Q 347.458008 153.155762 347.017578 153.155762 Q 345.621094 153.155762 344.834229 152.317871 Q 344.047363 151.479980 344.047363 149.997559 Q 344.047363 148.515137 344.834229 147.677246 Q 345.621094 146.839355 347.017578 146.839355 Q 347.452637 146.839355 347.866211 146.952148 Q 348.279785 147.064941 348.698730 147.301270 L 348.698730 148.337891 Q 348.306641 147.988770 347.911865 147.833008 Q 347.517090 147.677246 347.017578 147.677246 Q 346.088379 147.677246 345.588867 148.278809 Q 345.089355 148.880371 345.089355 149.997559 Q 345.089355 151.109375 345.591553 151.713623 Q 346.093750 152.317871 347.017578 152.317871 Q 347.533203 152.317871 347.941406 152.159424 Q 348.349609 152.000977 348.698730 151.667969 Z " fill="rgb(0, 0, 0)" fill-opacity="1.000000" />
<path d="M 356.015625 149.498047 L 356.015625 149.981445 L 351.734863 149.981445 L 351.734863 150.013672 Q 351.691895 151.243652 352.204834 151.780762 Q 352.717773 152.317871 353.652344 152.317871 Q 354.125000 152.317871 354.640625 152.167480 Q 355.156250 152.017090 355.741699 151.710938 L 355.741699 152.693848 Q 355.177734 152.924805 354.654053 153.040283 Q 354.130371 153.155762 353.641602 153.155762 Q 352.239746 153.155762 351.450195 152.315186 Q 350.660645 151.474609 350.660645 149.997559 Q 350.660645 148.558105 351.434082 147.698730 Q 352.207520 146.839355 353.496582 146.839355 Q 354.645996 146.839355 355.309326 147.618164 Q 355.972656 148.396973 356.015625 149.498047 Z M 355.027344 149.208008 Q 354.962891 148.584961 354.573486 148.131104 Q 354.184082 147.677246 353.453613 147.677246 Q 352.739258 147.677246 352.277344 148.149902 Q 351.815430 148.622559 351.772461 149.213379 Z " fill="rgb(0, 0, 0)" fill-opacity="1.000000" />
<path d="M 358.697266 147.005859 L 361.227051 147.005859 L 361.227051 152.231934 L 363.187500 152.231934 L 363.187500 153.000000 L 358.278320 153.000000 L 358.278320 152.231934 L 360.238770 152.231934 L 360.238770 147.773926 L 358.697266 147.773926 Z M 360.238770 144.669434 L 361.227051 144.669434 L 361.227051 145.915527 L 360.238770 145.915527 Z " fill="rgb(0, 0, 0)" fill-opacity="1.000000" />
<path d="M 364.537109 146.984375 L 365.562988 146.984375 L 367.308594 152.033203 L 369.059570 146.984375 L 370.085449 146.984375 L 367.947754 153.000000 L 366.674805 153.000000 Z " fill="rgb(0, 0, 0)" fill-opacity="1.000000" />
<path d="M 377.015625 149.498047 L 377.015625 149.981445 L 372.734863 149.981445 L 372.734863 150.013672 Q 372.691895 151.243652 373.204834 151.780762 Q 373.717773 152.317871 374.652344 152.317871 Q 375.125000 152.317871 375.640625 152.167480 Q 376.156250 152.017090 376.741699 151.710938 L 376.741699 152.693848 Q 376.177734 152.924805 375.654053 153.040283 Q 375.130371 153.155762 374.641602 153.155762 Q 373.239746 153.155762 372.450195 152.315186 Q 371.660645 151.474609 371.660645 149.997559 Q 371.660645 148.558105 372.434082 147.698730 Q 373.207520 146.839355 374.496582 146.839355 Q 375.645996 146.839355 376.309326 147.618164 Q 376.972656 148.396973 377.015625 149.498047 Z M 376.027344 149.208008 Q 375.962891 148.584961 375.573486 148.131104 Q 375.184082 147.677246 374.453613 147.677246 Q 373.739258 147.677246 373.277344 148.149902 Q 372.815430 148.622559 372.772461 149.213379 Z " fill="rgb(0, 0, 0)" fill-opacity="1.000000" />
<path d="M 401.449219 156.319336 L 401.449219 142.300781 L 403.167969 142.300781 L 403.167969 156.319336 Z " fill="rgb(0, 0, 0)" fill-opacity="1.000000" />
<path d="M 156.878906 143.319336 L 156.878906 129.300781 L 157.738281 129.300781 L 157.738281 136.412109 L 160.729980 136.412109 L 160.729980 137.335938 L 157.738281 137.335938 L 157.738281 143.319336 Z " fill="rgb(0, 0, 0)" fill-opacity="1.000000" />
<path d="M 160.892578 137.335938 L 160.892578 136.412109 L 167.729980 136.412109 L 167.729980 137.335938 Z " fill="rgb(0, 0, 0)" fill-opacity="1.000000" />
<path d="M 167.892578 137.335938 L 167.892578 136.412109 L 174.729980 136.412109 L 174.729980 137.335938 Z " fill="rgb(0, 0, 0)" fill-opacity="1.000000" />
<path d="M 174.892578 137.335938 L 174.892578 136.412109 L 181.729980 136.412109 L 181.729980 137.335938 Z " fill="rgb(0, 0, 0)" fill-opacity="1.000000" />
<path d="M 181.892578 137.335938 L 181.892578 136.412109 L 188.729980 136.412109 L 188.729980 137.335938 Z " fill="rgb(0, 0, 0)" fill-opacity="1.000000" />
<path d="M 188.892578 137.335938 L 188.892578 136.412109 L 195.729980 136.412109 L 195.729980 137.335938 Z " fill="rgb(0, 0, 0)" fill-opacity="1.000000" />
<path d="M 195.892578 137.335938 L 195.892578 136.412109 L 202.729980 136.412109 L 202.729980 137.335938 Z " fill="rgb(0, 0, 0)" fill-opacity="1.000000" />
<path d="M 202.892578 137.335938 L 202.892578 136.412109 L 209.729980 136.412109 L 209.729980 137.335938 Z " fill="rgb(0, 0, 0)" fill-opacity="1.000000" />
<path d="M 209.892578 137.335938 L 209.892578 136.412109 L 216.729980 136.412109 L 216.729980 137.335938 Z " fill="rgb(0, 0, 0)" fill-opacity="1.000000" />
<path d="M 216.892578 137.335938 L 216.892578 136.412109 L 223.729980 136.412109 L 223.729980 137.335938 Z " fill="rgb(0, 0, 0)" fill-opacity="1.000000" />
<path d="M 223.892578 137.335938 L 223.892578 136.412109 L 230.729980 136.412109 L 230.729980 137.335938 Z " fill="rgb(0, 0, 0)" fill-opacity="1.000000" />
<path d="M 230.892578 137.335938 L 230.892578 136.412109 L 237.729980 136.412109 L 237.729980 137.335938 Z " fill="rgb(0, 0, 0)" fill-opacity="1.000000" />
<path d="M 237.892578 137.335938 L 237.892578 136.412109 L 244.729980 136.412109 L 244.729980 137.335938 Z " fill="rgb(0, 0, 0)" fill-opacity="1.000000" />
<path d="M 247.878906 143.319336 L 247.878906 137.335938 L 244.892578 137.335938 L 244.892578 136.412109 L 247.878906 136.412109 L 247.878906 129.300781 L 248.738281 129.300781 L 248.738281 143.319336 Z " fill="rgb(0, 0, 0)" fill-opacity="1.000000" />
<path d="M 254.878906 143.319336 L 254.878906 129.300781 L 255.738281 129.300781 L 255.738281 143.319336 Z " fill="rgb(0, 0, 0)" fill-opacity="1.000000" />
<path d="M 325.308594 140.418945 L 322.032227 133.866211 L 328.590332 133.866211 Z " fill="rgb(0, 0, 0)" fill-opacity="1.000000" />
<path d="M 401.449219 143.319336 L 401.449219 129.300781 L 403.167969 129.300781 L 403.167969 143.319336 Z " fill="rgb(0, 0, 0)" fill-opacity="1.000000" />
<path d="M 247.878906 130.319336 L 247.878906 116.300781 L 248.738281 116.300781 L 248.738281 130.319336 Z " fill="rgb(0, 0, 0)" fill-opacity="1.000000" />
<path d="M 324.878906 130.319336 L 324.878906 116.300781 L 325.738281 116.300781 L 325.738281 130.319336 Z " fill="rgb(0, 0, 0)" fill-opacity="1.000000" />
<path d="M 401.449219 130.319336 L 401.449219 116.300781 L 403.167969 116.300781 L 403.167969 130.319336 Z " fill="rgb(0, 0, 0)" fill-opacity="1.000000" />
<path d="M 156.878906 117.319336 L 156.878906 103.300781 L 157.738281 103.300781 L 157.738281 110.412109 L 160.729980 110.412109 L 160.729980 111.335938 L 157.738281 111.335938 L 157.738281 117.319336 Z " fill="rgb(0, 0, 0)" fill-opacity="1.000000" />
<path d="M 160.892578 111.335938 L 160.892578 110.412109 L 167.729980 110.412109 L 167.729980 111.335938 Z " fill="rgb(0, 0, 0)" fill-opacity="1.000000" />
<path d="M 167.892578 111.335938 L 167.892578 110.412109 L 174.729980 110.412109 L 174.729980 111.335938 Z " fill="rgb(0, 0, 0)" fill-opacity="1.000000" />
<path d="M 174.892578 111.335938 L 174.892578 110.412109 L 181.729980 110.412109 L 181.729980 111.335938 Z " fill="rgb(0, 0, 0)" fill-opacity="1.000000" />
<path d="M 181.892578 111.335938 L 181.892578 110.412109 L 188.729980 110.412109 L 188.729980 111.335938 Z " fill="rgb(0, 0, 0)" fill-opacity="1.000000" />
<path d="M 188.892578 111.335938 L 188.892578 110.412109 L 195.729980 110.412109 L 195.729980 111.335938 Z " fill="rgb(0, 0, 0)" fill-opacity="1.000000" />
<path d="M 195.892578 111.335938 L 195.892578 110.412109 L 202.729980 110.412109 L 202.729980 111.335938 Z " fill="rgb(0, 0, 0)" fill-opacity="1.000000" />
<path d="M 202.892578 111.335938 L 202.892578 110.412109 L 209.729980 110.412109 L 209.729980 111.335938 Z " fill="rgb(0, 0, 0)" fill-opacity="1.000000" />
<path d="M 209.892578 111.335938 L 209.892578 110.412109 L 216.729980 110.412109 L 216.729980 111.335938 Z " fill="rgb(0, 0, 0)" fill-opacity="1.000000" />
<path d="M 216.892578 111.335938 L 216.892578 110.412109 L 223.729980 110.412109 L 223.729980 111.335938 Z " fill="rgb(0, 0, 0)" fill-opacity="1.000000" />
<path d="M 223.892578 111.335938 L 223.892578 110.412109 L 230.729980 110.412109 L 230.729980 111.335938 Z " fill="rgb(0, 0, 0)" fill-opacity="1.000000" />
<path d="M 230.892578 111.335938 L 230.892578 110.412109 L 237.729980 110.412109 L 237.729980 111.335938 Z " fill="rgb(0, 0, 0)" fill-opacity="1.000000" />
<path d="M 237.892578 111.335938 L 237.892578 110.412109 L 244.729980 110.412109 L 244.729980 111.335938 Z " fill="rgb(0, 0, 0)" fill-opacity="1.000000" />
<path d="M 247.878906 117.319336 L 247.878906 111.335938 L 244.892578 111.335938 L 244.892578 110.412109 L 247.878906 110.412109 L 247.878906 103.300781 L 248.738281 103.300781 L 248.738281 117.319336 Z " fill="rgb(0, 0, 0)" fill-opacity="1.000000" />
<path d="M 254.878906 117.319336 L 254.878906 103.300781 L 255.738281 103.300781 L 255.738281 117.319336 Z " fill="rgb(0, 0, 0)" fill-opacity="1.000000" />
<path d="M 324.878906 117.319336 L 324.878906 103.300781 L 325.738281 103.300781 L 325.738281 117.319336 Z " fill="rgb(0, 0, 0)" fill-opacity="1.000000" />
<path d="M 401.449219 117.319336 L 401.449219 103.300781 L 403.167969 103.300781 L 403.167969 117.319336 Z " fill="rgb(0, 0, 0)" fill-opacity="1.000000" />
<path d="M 247.878906 104.319336 L 247.878906 90.300781 L 248.738281 90.300781 L 248.738281 97.412109 L 251.729980 97.412109 L 251.729980 98.335938 L 248.738281 98.335938 L 248.738281 104.319336 Z " fill="rgb(0, 0, 0)" fill-opacity="1.000000" />
<path d="M 251.892578 98.335938 L 251.892578 97.412109 L 258.729980 97.412109 L 258.729980 98.335938 Z " fill="rgb(0, 0, 0)" fill-opacity="1.000000" />
<path d="M 258.892578 98.335938 L 258.892578 97.412109 L 265.729980 97.412109 L 265.729980 98.335938 Z " fill="rgb(0, 0, 0)" fill-opacity="1.000000" />
<path d="M 265.892578 98.335938 L 265.892578 97.412109 L 272.729980 97.412109 L 272.729980 98.335938 Z " fill="rgb(0, 0, 0)" fill-opacity="1.000000" />
<path d="M 272.892578 98.335938 L 272.892578 97.412109 L 279.729980 97.412109 L 279.729980 98.335938 Z " fill="rgb(0, 0, 0)" fill-opacity="1.000000" />
<path d="M 279.892578 98.335938 L 279.892578 97.412109 L 286.729980 97.412109 L 286.729980 98.335938 Z " fill="rgb(0, 0, 0)" fill-opacity="1.000000" />
<path d="M 286.892578 98.335938 L 286.892578 97.412109 L 293.729980 97.412109 L 293.729980 98.335938 Z " fill="rgb(0, 0, 0)" fill-opacity="1.000000" />
<path d="M 293.892578 98.335938 L 293.892578 97.412109 L 300.729980 97.412109 L 300.729980 98.335938 Z " fill="rgb(0, 0, 0)" fill-opacity="1.000000" />
<path d="M 300.892578 98.335938 L 300.892578 97.412109 L 307.729980 97.412109 L 307.729980 98.335938 Z " fill="rgb(0, 0, 0)" fill-opacity="1.000000" />
<path d="M 307.892578 98.335938 L 307.892578 97.412109 L 314.729980 97.412109 L 314.729980 98.335938 Z " fill="rgb(0, 0, 0)" fill-opacity="1.000000" />
<path d="M 314.892578 98.335938 L 314.892578 97.412109 L 321.729980 97.412109 L 321.729980 98.335938 Z " fill="rgb(0, 0, 0)" fill-opacity="1.000000" />
<path d="M 324.878906 104.319336 L 324.878906 98.335938 L 321.892578 98.335938 L 321.892578 97.412109 L 325.738281 97.412109 L 325.738281 104.319336 Z " fill="rgb(0, 0, 0)" fill-opacity="1.000000" />
<path d="M 401.449219 104.319336 L 401.449219 90.300781 L 403.167969 90.300781 L 403.167969 104.319336 Z " fill="rgb(0, 0, 0)" fill-opacity="1.000000" />
<path d="M 156.878906 91.319336 L 156.878906 84.412109 L 160.729980 84.412109 L 160.729980 85.335938 L 157.738281 85.335938 L 157.738281 91.319336 Z " fill="rgb(0, 0, 0)" fill-opacity="1.000000" />
<path d="M 160.892578 85.335938 L 160.892578 84.412109 L 167.729980 84.412109 L 167.729980 85.335938 Z " fill="rgb(0, 0, 0)" fill-opacity="1.000000" />
<path d="M 167.892578 85.335938 L 167.892578 84.412109 L 174.729980 84.412109 L 174.729980 85.335938 Z " fill="rgb(0, 0, 0)" fill-opacity="1.000000" />
<path d="M 174.892578 85.335938 L 174.892578 84.412109 L 181.729980 84.412109 L 181.729980 85.335938 Z " fill="rgb(0, 0, 0)" fill-opacity="1.000000" />
<path d="M 181.892578 85.335938 L 181.892578 84.412109 L 188.729980 84.412109 L 188.729980 85.335938 Z " fill="rgb(0, 0, 0)" fill-opacity="1.000000" />
<path d="M 188.892578 85.335938 L 188.892578 84.412109 L 195.729980 84.412109 L 195.729980 85.335938 Z " fill="rgb(0, 0, 0)" fill-opacity="1.000000" />
<path d="M 195.892578 85.335938 L 195.892578 84.412109 L 202.729980 84.412109 L 202.729980 85.335938 Z " fill="rgb(0, 0, 0)" fill-opacity="1.000000" />
<path d="M 202.892578 85.335938 L 202.892578 84.412109 L 209.729980 84.412109 L 209.729980 85.335938 Z " fill="rgb(0, 0, 0)" fill-opacity="1.000000" />
<path d="M 209.892578 85.335938 L 209.892578 84.412109 L 216.729980 84.412109 L 216.729980 85.335938 Z " fill="rgb(0, 0, 0)" fill-opacity="1.000000" />
<path d="M 216.892578 85.335938 L 216.892578 84.412109 L 223.729980 84.412109 L 223.729980 85.335938 Z " fill="rgb(0, 0, 0)" fill-opacity="1.000000" />
<path d="M 223.892578 85.335938 L 223.892578 84.412109 L 230.729980 84.412109 L 230.729980 85.335938 Z " fill="rgb(0, 0, 0)" fill-opacity="1.000000" />
<path d="M 230.892578 85.335938 L 230.892578 84.412109 L 237.729980 84.412109 L 237.729980 85.335938 Z " fill="rgb(0, 0, 0)" fill-opacity="1.000000" />
<path d="M 237.892578 85.335938 L 237.892578 84.412109 L 244.729980 84.412109 L 244.729980 85.335938 Z " fill="rgb(0, 0, 0)" fill-opacity="1.000000" />
<path d="M 247.878906 91.319336 L 247.878906 85.335938 L 244.892578 85.335938 L 244.892578 84.412109 L 248.738281 84.412109 L 248.738281 91.319336 Z " fill="rgb(0, 0, 0)" fill-opacity="1.000000" />
<path d="M 254.878906 91.319336 L 254.878906 77.300781 L 255.738281 77.300781 L 255.738281 91.319336 Z " fill="rgb(0, 0, 0)" fill-opacity="1.000000" />
<path d="M 401.449219 91.319336 L 401.449219 77.300781 L 403.167969 77.300781 L 403.167969 91.319336 Z " fill="rgb(0, 0, 0)" fill-opacity="1.000000" />
<path d="M 160.892578 72.335938 L 160.892578 71.412109 L 167.729980 71.412109 L 167.729980 72.335938 Z " fill="rgb(0, 0, 0)" fill-opacity="1.000000" />
<path d="M 174.892578 72.335938 L 174.892578 71.412109 L 181.729980 71.412109 L 181.729980 72.335938 Z " fill="rgb(0, 0, 0)" fill-opacity="1.000000" />
<path d="M 188.892578 72.335938 L 188.892578 71.412109 L 195.729980 71.412109 L 195.729980 72.335938 Z " fill="rgb(0, 0, 0)" fill-opacity="1.000000" />
<path d="M 202.892578 72.335938 L 202.892578 71.412109 L 209.729980 71.412109 L 209.729980 72.335938 Z " fill="rgb(0, 0, 0)" fill-opacity="1.000000" />
<path d="M 216.892578 72.335938 L 216.892578 71.412109 L 223.729980 71.412109 L 223.729980 72.335938 Z " fill="rgb(0, 0, 0)" fill-opacity="1.000000" />
<path d="M 230.892578 72.335938 L 230.892578 71.412109 L 237.729980 71.412109 L 237.729980 72.335938 Z " fill="rgb(0, 0, 0)" fill-opacity="1.000000" />
<path d="M 244.892578 72.335938 L 244.892578 71.412109 L 251.729980 71.412109 L 251.729980 72.335938 Z " fill="rgb(0, 0, 0)" fill-opacity="1.000000" />
<path d="M 401.449219 78.319336 L 401.449219 64.300781 L 403.167969 64.300781 L 403.167969 78.319336 Z " fill="rgb(0, 0, 0)" fill-opacity="1.000000" />
<path d="M 155.047363 59.722656 L 155.047363 55.995117 L 156.035645 55.995117 L 156.035645 59.722656 Q 156.035645 60.533691 156.322998 60.915039 Q 156.610352 61.296387 157.211914 61.296387 Q 157.910156 61.296387 158.280762 60.804932 Q 158.651367 60.313477 158.651367 59.395020 L 158.651367 55.995117 L 159.645020 55.995117 L 159.645020 62.000000 L 158.651367 62.000000 L 158.651367 61.097656 Q 158.388184 61.618652 157.934326 61.887207 Q 157.480469 62.155762 156.873535 62.155762 Q 155.949707 62.155762 155.498535 61.551514 Q 155.047363 60.947266 155.047363 59.722656 Z " fill="rgb(0, 0, 0)" fill-opacity="1.000000" />
<path d="M 166.645020 58.272461 L 166.645020 62.000000 L 165.651367 62.000000 L 165.651367 58.272461 Q 165.651367 57.461426 165.366699 57.080078 Q 165.082031 56.698730 164.475098 56.698730 Q 163.782227 56.698730 163.408936 57.190186 Q 163.035645 57.681641 163.035645 58.600098 L 163.035645 62.000000 L 162.047363 62.000000 L 162.047363 55.984375 L 163.035645 55.984375 L 163.035645 56.886719 Q 163.298828 56.371094 163.750000 56.105225 Q 164.201172 55.839355 164.818848 55.839355 Q 165.737305 55.839355 166.191162 56.443604 Q 166.645020 57.047852 166.645020 58.272461 Z " fill="rgb(0, 0, 0)" fill-opacity="1.000000" />
<path d="M 171.861816 59.824707 Q 171.861816 60.490723 172.106201 60.829102 Q 172.350586 61.167480 172.828613 61.167480 L 173.983398 61.167480 L 173.983398 62.000000 L 172.731934 62.000000 Q 171.845703 62.000000 171.359619 61.433350 Q 170.873535 60.866699 170.873535 59.824707 L 170.873535 54.383789 L 169.289062 54.383789 L 169.289062 53.610352 L 171.861816 53.610352 Z " fill="rgb(0, 0, 0)" fill-opacity="1.000000" />
<path d="M 176.697266 56.005859 L 179.227051 56.005859 L 179.227051 61.231934 L 181.187500 61.231934 L 181.187500 62.000000 L 176.278320 62.000000 L 176.278320 61.231934 L 178.238770 61.231934 L 178.238770 56.773926 L 176.697266 56.773926 Z M 178.238770 53.669434 L 179.227051 53.669434 L 179.227051 54.915527 L 178.238770 54.915527 Z " fill="rgb(0, 0, 0)" fill-opacity="1.000000" />
<path d="M 185.630859 56.596680 Q 185.813477 56.209961 186.095459 56.024658 Q 186.377441 55.839355 186.774902 55.839355 Q 187.500000 55.839355 187.798096 56.400635 Q 188.096191 56.961914 188.096191 58.514160 L 188.096191 62.000000 L 187.193848 62.000000 L 187.193848 58.557129 Q 187.193848 57.284180 187.051514 56.975342 Q 186.909180 56.666504 186.533203 56.666504 Q 186.103516 56.666504 185.945068 56.996826 Q 185.786621 57.327148 185.786621 58.557129 L 185.786621 62.000000 L 184.884277 62.000000 L 184.884277 58.557129 Q 184.884277 57.268066 184.731201 56.967285 Q 184.578125 56.666504 184.180664 56.666504 Q 183.788574 56.666504 183.635498 56.996826 Q 183.482422 57.327148 183.482422 58.557129 L 183.482422 62.000000 L 182.585449 62.000000 L 182.585449 55.984375 L 183.482422 55.984375 L 183.482422 56.500000 Q 183.659668 56.177734 183.925537 56.008545 Q 184.191406 55.839355 184.529785 55.839355 Q 184.937988 55.839355 185.209229 56.027344 Q 185.480469 56.215332 185.630859 56.596680 Z " fill="rgb(0, 0, 0)" fill-opacity="1.000000" />
<path d="M 190.697266 56.005859 L 193.227051 56.005859 L 193.227051 61.231934 L 195.187500 61.231934 L 195.187500 62.000000 L 190.278320 62.000000 L 190.278320 61.231934 L 192.238770 61.231934 L 192.238770 56.773926 L 190.697266 56.773926 Z M 192.238770 53.669434 L 193.227051 53.669434 L 193.227051 54.915527 L 192.238770 54.915527 Z " fill="rgb(0, 0, 0)" fill-opacity="1.000000" />
<path d="M 199.297852 54.276367 L 199.297852 55.984375 L 201.542969 55.984375 L 201.542969 56.752441 L 199.297852 56.752441 L 199.297852 60.018066 Q 199.297852 60.684082 199.550293 60.947266 Q 199.802734 61.210449 200.431152 61.210449 L 201.542969 61.210449 L 201.542969 62.000000 L 200.334473 62.000000 Q 199.222656 62.000000 198.766113 61.554199 Q 198.309570 61.108398 198.309570 60.018066 L 198.309570 56.752441 L 196.703613 56.752441 L 196.703613 55.984375 L 198.309570 55.984375 L 198.309570 54.276367 Z " fill="rgb(0, 0, 0)" fill-opacity="1.000000" />
<path d="M 209.015625 58.498047 L 209.015625 58.981445 L 204.734863 58.981445 L 204.734863 59.013672 Q 204.691895 60.243652 205.204834 60.780762 Q 205.717773 61.317871 206.652344 61.317871 Q 207.125000 61.317871 207.640625 61.167480 Q 208.156250 61.017090 208.741699 60.710938 L 208.741699 61.693848 Q 208.177734 61.924805 207.654053 62.040283 Q 207.130371 62.155762 206.641602 62.155762 Q 205.239746 62.155762 204.450195 61.315186 Q 203.660645 60.474609 203.660645 58.997559 Q 203.660645 57.558105 204.434082 56.698730 Q 205.207520 55.839355 206.496582 55.839355 Q 207.645996 55.839355 208.309326 56.618164 Q 208.972656 57.396973 209.015625 58.498047 Z M 208.027344 58.208008 Q 207.962891 57.584961 207.573486 57.131104 Q 207.184082 56.677246 206.453613 56.677246 Q 205.739258 56.677246 205.277344 57.149902 Q 204.815430 57.622559 204.772461 58.213379 Z " fill="rgb(0, 0, 0)" fill-opacity="1.000000" />
<path d="M 214.608398 56.752441 L 214.608398 53.642578 L 215.596680 53.642578 L 215.596680 62.000000 L 214.608398 62.000000 L 214.608398 61.242676 Q 214.361328 61.688477 213.950439 61.922119 Q 213.539551 62.155762 213.002441 62.155762 Q 211.912109 62.155762 211.286377 61.309814 Q 210.660645 60.463867 210.660645 58.976074 Q 210.660645 57.509766 211.289062 56.674561 Q 211.917480 55.839355 213.002441 55.839355 Q 213.544922 55.839355 213.958496 56.072998 Q 214.372070 56.306641 214.608398 56.752441 Z M 211.702637 58.997559 Q 211.702637 60.146973 212.067871 60.732422 Q 212.433105 61.317871 213.147461 61.317871 Q 213.861816 61.317871 214.235107 60.727051 Q 214.608398 60.136230 214.608398 58.997559 Q 214.608398 57.853516 214.235107 57.265381 Q 213.861816 56.677246 213.147461 56.677246 Q 212.433105 56.677246 212.067871 57.262695 Q 211.702637 57.848145 211.702637 58.997559 Z " fill="rgb(0, 0, 0)" fill-opacity="1.000000" />
<path d="M 228.608398 56.752441 L 228.608398 53.642578 L 229.596680 53.642578 L 229.596680 62.000000 L 228.608398 62.000000 L 228.608398 61.242676 Q 228.361328 61.688477 227.950439 61.922119 Q 227.539551 62.155762 227.002441 62.155762 Q 225.912109 62.155762 225.286377 61.309814 Q 224.660645 60.463867 224.660645 58.976074 Q 224.660645 57.509766 225.289062 56.674561 Q 225.917480 55.839355 227.002441 55.839355 Q 227.544922 55.839355 227.958496 56.072998 Q 228.372070 56.306641 228.608398 56.752441 Z M 225.702637 58.997559 Q 225.702637 60.146973 226.067871 60.732422 Q 226.433105 61.317871 227.147461 61.317871 Q 227.861816 61.317871 228.235107 60.727051 Q 228.608398 60.136230 228.608398 58.997559 Q 228.608398 57.853516 228.235107 57.265381 Q 227.861816 56.677246 227.147461 56.677246 Q 226.433105 56.677246 226.067871 57.262695 Q 225.702637 57.848145 225.702637 58.997559 Z " fill="rgb(0, 0, 0)" fill-opacity="1.000000" />
<path d="M 237.015625 58.498047 L 237.015625 58.981445 L 232.734863 58.981445 L 232.734863 59.013672 Q 232.691895 60.243652 233.204834 60.780762 Q 233.717773 61.317871 234.652344 61.317871 Q 235.125000 61.317871 235.640625 61.167480 Q 236.156250 61.017090 236.741699 60.710938 L 236.741699 61.693848 Q 236.177734 61.924805 235.654053 62.040283 Q 235.130371 62.155762 234.641602 62.155762 Q 233.239746 62.155762 232.450195 61.315186 Q 231.660645 60.474609 231.660645 58.997559 Q 231.660645 57.558105 232.434082 56.698730 Q 233.207520 55.839355 234.496582 55.839355 Q 235.645996 55.839355 236.309326 56.618164 Q 236.972656 57.396973 237.015625 58.498047 Z M 236.027344 58.208008 Q 235.962891 57.584961 235.573486 57.131104 Q 235.184082 56.677246 234.453613 56.677246 Q 233.739258 56.677246 233.277344 57.149902 Q 232.815430 57.622559 232.772461 58.213379 Z " fill="rgb(0, 0, 0)" fill-opacity="1.000000" />
<path d="M 240.014160 61.242676 L 240.014160 64.288086 L 239.020508 64.288086 L 239.020508 55.984375 L 240.014160 55.984375 L 240.014160 56.752441 Q 240.261230 56.306641 240.672119 56.072998 Q 241.083008 55.839355 241.620117 55.839355 Q 242.710449 55.839355 243.330811 56.682617 Q 243.951172 57.525879 243.951172 59.019043 Q 243.951172 60.485352 243.328125 61.320557 Q 242.705078 62.155762 241.620117 62.155762 Q 241.072266 62.155762 240.661377 61.922119 Q 240.250488 61.688477 240.014160 61.242676 Z M 242.914551 58.997559 Q 242.914551 57.848145 242.552002 57.262695 Q 242.189453 56.677246 241.475098 56.677246 Q 240.755371 56.677246 240.384766 57.265381 Q 240.014160 57.853516 240.014160 58.997559 Q 240.014160 60.136230 240.384766 60.727051 Q 240.755371 61.317871 241.475098 61.317871 Q 242.189453 61.317871 242.552002 60.732422 Q 242.914551 60.146973 242.914551 58.997559 Z " fill="rgb(0, 0, 0)" fill-opacity="1.000000" />
<path d="M 248.297852 54.276367 L 248.297852 55.984375 L 250.542969 55.984375 L 250.542969 56.752441 L 248.297852 56.752441 L 248.297852 60.018066 Q 248.297852 60.684082 248.550293 60.947266 Q 248.802734 61.210449 249.431152 61.210449 L 250.542969 61.210449 L 250.542969 62.000000 L 249.334473 62.000000 Q 248.222656 62.000000 247.766113 61.554199 Q 247.309570 61.108398 247.309570 60.018066 L 247.309570 56.752441 L 245.703613 56.752441 L 245.703613 55.984375 L 247.309570 55.984375 L 247.309570 54.276367 Z " fill="rgb(0, 0, 0)" fill-opacity="1.000000" />
<path d="M 257.645020 58.272461 L 257.645020 62.000000 L 256.651367 62.000000 L 256.651367 58.272461 Q 256.651367 57.461426 256.366699 57.080078 Q 256.082031 56.698730 255.475098 56.698730 Q 254.782227 56.698730 254.408936 57.190186 Q 254.035645 57.681641 254.035645 58.600098 L 254.035645 62.000000 L 253.047363 62.000000 L 253.047363 53.642578 L 254.035645 53.642578 L 254.035645 56.886719 Q 254.298828 56.371094 254.750000 56.105225 Q 255.201172 55.839355 255.818848 55.839355 Q 256.737305 55.839355 257.191162 56.443604 Q 257.645020 57.047852 257.645020 58.272461 Z " fill="rgb(0, 0, 0)" fill-opacity="1.000000" />
<path d="M 260.869141 53.116211 L 261.728516 53.116211 Q 262.539551 54.383789 262.937012 55.597656 Q 263.334473 56.811523 263.334473 58.009277 Q 263.334473 59.217773 262.937012 60.431641 Q 262.539551 61.645508 261.728516 62.913086 L 260.869141 62.913086 Q 261.583496 61.666992 261.935303 60.447754 Q 262.287109 59.228516 262.287109 58.009277 Q 262.287109 56.784668 261.935303 55.565430 Q 261.583496 54.346191 260.869141 53.116211 Z " fill="rgb(0, 0, 0)" fill-opacity="1.000000" />
<path d="M 401.449219 65.319336 L 401.449219 51.300781 L 403.167969 51.300781 L 403.167969 65.319336 Z " fill="rgb(0, 0, 0)" fill-opacity="1.000000" />
<path d="M 162.697266 43.005859 L 165.227051 43.005859 L 165.227051 48.231934 L 167.187500 48.231934 L 167.187500 49.000000 L 162.278320 49.000000 L 162.278320 48.231934 L 164.238770 48.231934 L 164.238770 43.773926 L 162.697266 43.773926 Z M 164.238770 40.669434 L 165.227051 40.669434 L 165.227051 41.915527 L 164.238770 41.915527 Z " fill="rgb(0, 0, 0)" fill-opacity="1.000000" />
<path d="M 173.645020 45.272461 L 173.645020 49.000000 L 172.651367 49.000000 L 172.651367 45.272461 Q 172.651367 44.461426 172.366699 44.080078 Q 172.082031 43.698730 171.475098 43.698730 Q 170.782227 43.698730 170.408936 44.190186 Q 170.035645 44.681641 170.035645 45.600098 L 170.035645 49.000000 L 169.047363 49.000000 L 169.047363 42.984375 L 170.035645 42.984375 L 170.035645 43.886719 Q 170.298828 43.371094 170.750000 43.105225 Q 171.201172 42.839355 171.818848 42.839355 Q 172.737305 42.839355 173.191162 43.443604 Q 173.645020 44.047852 173.645020 45.272461 Z " fill="rgb(0, 0, 0)" fill-opacity="1.000000" />
<path d="M 180.698730 48.693848 Q 180.301270 48.924805 179.879639 49.040283 Q 179.458008 49.155762 179.017578 49.155762 Q 177.621094 49.155762 176.834229 48.317871 Q 176.047363 47.479980 176.047363 45.997559 Q 176.047363 44.515137 176.834229 43.677246 Q 177.621094 42.839355 179.017578 42.839355 Q 179.452637 42.839355 179.866211 42.952148 Q 180.279785 43.064941 180.698730 43.301270 L 180.698730 44.337891 Q 180.306641 43.988770 179.911865 43.833008 Q 179.517090 43.677246 179.017578 43.677246 Q 178.088379 43.677246 177.588867 44.278809 Q 177.089355 44.880371 177.089355 45.997559 Q 177.089355 47.109375 177.591553 47.713623 Q 178.093750 48.317871 179.017578 48.317871 Q 179.533203 48.317871 179.941406 48.159424 Q 180.349609 48.000977 180.698730 47.667969 Z " fill="rgb(0, 0, 0)" fill-opacity="1.000000" />
<path d="M 185.308594 43.677246 Q 184.556641 43.677246 184.169922 44.262695 Q 183.783203 44.848145 183.783203 45.997559 Q 183.783203 47.141602 184.169922 47.729736 Q 184.556641 48.317871 185.308594 48.317871 Q 186.065918 48.317871 186.452637 47.729736 Q 186.839355 47.141602 186.839355 45.997559 Q 186.839355 44.848145 186.452637 44.262695 Q 186.065918 43.677246 185.308594 43.677246 Z M 185.308594 42.839355 Q 186.560059 42.839355 187.223389 43.650391 Q 187.886719 44.461426 187.886719 45.997559 Q 187.886719 47.539062 187.226074 48.347412 Q 186.565430 49.155762 185.308594 49.155762 Q 184.057129 49.155762 183.396484 48.347412 Q 182.735840 47.539062 182.735840 45.997559 Q 182.735840 44.461426 183.396484 43.650391 Q 184.057129 42.839355 185.308594 42.839355 Z " fill="rgb(0, 0, 0)" fill-opacity="1.000000" />
<path d="M 192.630859 43.596680 Q 192.813477 43.209961 193.095459 43.024658 Q 193.377441 42.839355 193.774902 42.839355 Q 194.500000 42.839355 194.798096 43.400635 Q 195.096191 43.961914 195.096191 45.514160 L 195.096191 49.000000 L 194.193848 49.000000 L 194.193848 45.557129 Q 194.193848 44.284180 194.051514 43.975342 Q 193.909180 43.666504 193.533203 43.666504 Q 193.103516 43.666504 192.945068 43.996826 Q 192.786621 44.327148 192.786621 45.557129 L 192.786621 49.000000 L 191.884277 49.000000 L 191.884277 45.557129 Q 191.884277 44.268066 191.731201 43.967285 Q 191.578125 43.666504 191.180664 43.666504 Q 190.788574 43.666504 190.635498 43.996826 Q 190.482422 44.327148 190.482422 45.557129 L 190.482422 49.000000 L 189.585449 49.000000 L 189.585449 42.984375 L 190.482422 42.984375 L 190.482422 43.500000 Q 190.659668 43.177734 190.925537 43.008545 Q 191.191406 42.839355 191.529785 42.839355 Q 191.937988 42.839355 192.209229 43.027344 Q 192.480469 43.215332 192.630859 43.596680 Z " fill="rgb(0, 0, 0)" fill-opacity="1.000000" />
<path d="M 197.697266 43.005859 L 200.227051 43.005859 L 200.227051 48.231934 L 202.187500 48.231934 L 202.187500 49.000000 L 197.278320 49.000000 L 197.278320 48.231934 L 199.238770 48.231934 L 199.238770 43.773926 L 197.697266 43.773926 Z M 199.238770 40.669434 L 200.227051 40.669434 L 200.227051 41.915527 L 199.238770 41.915527 Z " fill="rgb(0, 0, 0)" fill-opacity="1.000000" />
<path d="M 208.645020 45.272461 L 208.645020 49.000000 L 207.651367 49.000000 L 207.651367 45.272461 Q 207.651367 44.461426 207.366699 44.080078 Q 207.082031 43.698730 206.475098 43.698730 Q 205.782227 43.698730 205.408936 44.190186 Q 205.035645 44.681641 205.035645 45.600098 L 205.035645 49.000000 L 204.047363 49.000000 L 204.047363 42.984375 L 205.035645 42.984375 L 205.035645 43.886719 Q 205.298828 43.371094 205.750000 43.105225 Q 206.201172 42.839355 206.818848 42.839355 Q 207.737305 42.839355 208.191162 43.443604 Q 208.645020 44.047852 208.645020 45.272461 Z " fill="rgb(0, 0, 0)" fill-opacity="1.000000" />
<path d="M 214.608398 45.943848 Q 214.608398 44.832031 214.245850 44.254639 Q 213.883301 43.677246 213.190430 43.677246 Q 212.465332 43.677246 212.083984 44.254639 Q 211.702637 44.832031 211.702637 45.943848 Q 211.702637 47.055664 212.086670 47.638428 Q 212.470703 48.221191 213.201172 48.221191 Q 213.883301 48.221191 214.245850 47.635742 Q 214.608398 47.050293 214.608398 45.943848 Z M 215.596680 48.613281 Q 215.596680 49.966797 214.957520 50.665039 Q 214.318359 51.363281 213.077637 51.363281 Q 212.669434 51.363281 212.223633 51.288086 Q 211.777832 51.212891 211.332031 51.067871 L 211.332031 50.090332 Q 211.858398 50.337402 212.288086 50.455566 Q 212.717773 50.573730 213.077637 50.573730 Q 213.877930 50.573730 214.243164 50.138672 Q 214.608398 49.703613 214.608398 48.758301 L 214.608398 48.715332 L 214.608398 48.043945 Q 214.372070 48.548828 213.963867 48.795898 Q 213.555664 49.042969 212.970215 49.042969 Q 211.917480 49.042969 211.289062 48.199707 Q 210.660645 47.356445 210.660645 45.943848 Q 210.660645 44.525879 211.289062 43.682617 Q 211.917480 42.839355 212.970215 42.839355 Q 213.550293 42.839355 213.953125 43.070312 Q 214.355957 43.301270 214.608398 43.784668 L 214.608398 43.005859 L 215.596680 43.005859 Z " fill="rgb(0, 0, 0)" fill-opacity="1.000000" />
<path d="M 226.014160 48.242676 L 226.014160 51.288086 L 225.020508 51.288086 L 225.020508 42.984375 L 226.014160 42.984375 L 226.014160 43.752441 Q 226.261230 43.306641 226.672119 43.072998 Q 227.083008 42.839355 227.620117 42.839355 Q 228.710449 42.839355 229.330811 43.682617 Q 229.951172 44.525879 229.951172 46.019043 Q 229.951172 47.485352 229.328125 48.320557 Q 228.705078 49.155762 227.620117 49.155762 Q 227.072266 49.155762 226.661377 48.922119 Q 226.250488 48.688477 226.014160 48.242676 Z M 228.914551 45.997559 Q 228.914551 44.848145 228.552002 44.262695 Q 228.189453 43.677246 227.475098 43.677246 Q 226.755371 43.677246 226.384766 44.265381 Q 226.014160 44.853516 226.014160 45.997559 Q 226.014160 47.136230 226.384766 47.727051 Q 226.755371 48.317871 227.475098 48.317871 Q 228.189453 48.317871 228.552002 47.732422 Q 228.914551 47.146973 228.914551 45.997559 Z " fill="rgb(0, 0, 0)" fill-opacity="1.000000" />
<path d="M 234.308594 43.677246 Q 233.556641 43.677246 233.169922 44.262695 Q 232.783203 44.848145 232.783203 45.997559 Q 232.783203 47.141602 233.169922 47.729736 Q 233.556641 48.317871 234.308594 48.317871 Q 235.065918 48.317871 235.452637 47.729736 Q 235.839355 47.141602 235.839355 45.997559 Q 235.839355 44.848145 235.452637 44.262695 Q 235.065918 43.677246 234.308594 43.677246 Z M 234.308594 42.839355 Q 235.560059 42.839355 236.223389 43.650391 Q 236.886719 44.461426 236.886719 45.997559 Q 236.886719 47.539062 236.226074 48.347412 Q 235.565430 49.155762 234.308594 49.155762 Q 233.057129 49.155762 232.396484 48.347412 Q 231.735840 47.539062 231.735840 45.997559 Q 231.735840 44.461426 232.396484 43.650391 Q 233.057129 42.839355 234.308594 42.839355 Z " fill="rgb(0, 0, 0)" fill-opacity="1.000000" />
<path d="M 244.203613 44.225098 Q 243.886719 43.978027 243.559082 43.865234 Q 243.231445 43.752441 242.839355 43.752441 Q 241.915527 43.752441 241.426758 44.332520 Q 240.937988 44.912598 240.937988 46.008301 L 240.937988 49.000000 L 239.944336 49.000000 L 239.944336 42.984375 L 240.937988 42.984375 L 240.937988 44.160645 Q 241.185059 43.521484 241.697998 43.180420 Q 242.210938 42.839355 242.914551 42.839355 Q 243.279785 42.839355 243.596680 42.930664 Q 243.913574 43.021973 244.203613 43.215332 Z " fill="rgb(0, 0, 0)" fill-opacity="1.000000" />
<path d="M 248.297852 41.276367 L 248.297852 42.984375 L 250.542969 42.984375 L 250.542969 43.752441 L 248.297852 43.752441 L 248.297852 47.018066 Q 248.297852 47.684082 248.550293 47.947266 Q 248.802734 48.210449 249.431152 48.210449 L 250.542969 48.210449 L 250.542969 49.000000 L 249.334473 49.000000 Q 248.222656 49.000000 247.766113 48.554199 Q 247.309570 48.108398 247.309570 47.018066 L 247.309570 43.752441 L 245.703613 43.752441 L 245.703613 42.984375 L 247.309570 42.984375 L 247.309570 41.276367 Z " fill="rgb(0, 0, 0)" fill-opacity="1.000000" />
<path d="M 401.449219 52.319336 L 401.449219 38.300781 L 403.167969 38.300781 L 403.167969 52.319336 Z " fill="rgb(0, 0, 0)" fill-opacity="1.000000" />
<path d="M 139.892578 33.797852 L 139.892578 31.950195 L 146.729980 31.950195 L 146.729980 33.797852 Z " fill="rgb(0, 0, 0)" fill-opacity="1.000000" />
<path d="M 146.892578 33.797852 L 146.892578 31.950195 L 153.729980 31.950195 L 153.729980 33.797852 Z " fill="rgb(0, 0, 0)" fill-opacity="1.000000" />
<path d="M 153.892578 33.797852 L 153.892578 31.950195 L 160.729980 31.950195 L 160.729980 33.797852 Z " fill="rgb(0, 0, 0)" fill-opacity="1.000000" />
<path d="M 160.892578 33.797852 L 160.892578 31.950195 L 167.729980 31.950195 L 167.729980 33.797852 Z " fill="rgb(0, 0, 0)" fill-opacity="1.000000" />
<path d="M 167.892578 33.797852 L 167.892578 31.950195 L 174.729980 31.950195 L 174.729980 33.797852 Z " fill="rgb(0, 0, 0)" fill-opacity="1.000000" />
<path d="M 174.892578 33.797852 L 174.892578 31.950195 L 181.729980 31.950195 L 181.729980 33.797852 Z " fill="rgb(0, 0, 0)" fill-opacity="1.000000" />
<path d="M 181.892578 33.797852 L 181.892578 31.950195 L 188.729980 31.950195 L 188.729980 33.797852 Z " fill="rgb(0, 0, 0)" fill-opacity="1.000000" />
<path d="M 188.892578 33.797852 L 188.892578 31.950195 L 195.729980 31.950195 L 195.729980 33.797852 Z " fill="rgb(0, 0, 0)" fill-opacity="1.000000" />
<path d="M 195.892578 33.797852 L 195.892578 31.950195 L 202.729980 31.950195 L 202.729980 33.797852 Z " fill="rgb(0, 0, 0)" fill-opacity="1.000000" />
<path d="M 202.892578 33.797852 L 202.892578 31.950195 L 209.729980 31.950195 L 209.729980 33.797852 Z " fill="rgb(0, 0, 0)" fill-opacity="1.000000" />
<path d="M 209.892578 33.797852 L 209.892578 31.950195 L 216.729980 31.950195 L 216.729980 33.797852 Z " fill="rgb(0, 0, 0)" fill-opacity="1.000000" />
<path d="M 216.892578 33.797852 L 216.892578 31.950195 L 223.729980 31.950195 L 223.729980 33.797852 Z " fill="rgb(0, 0, 0)" fill-opacity="1.000000" />
<path d="M 223.892578 33.797852 L 223.892578 31.950195 L 230.729980 31.950195 L 230.729980 33.797852 Z " fill="rgb(0, 0, 0)" fill-opacity="1.000000" />
<path d="M 230.892578 33.797852 L 230.892578 31.950195 L 237.729980 31.950195 L 237.729980 33.797852 Z " fill="rgb(0, 0, 0)" fill-opacity="1.000000" />
<path d="M 237.892578 33.797852 L 237.892578 31.950195 L 244.729980 31.950195 L 244.729980 33.797852 Z " fill="rgb(0, 0, 0)" fill-opacity="1.000000" />
<path d="M 244.892578 33.797852 L 244.892578 31.950195 L 251.729980 31.950195 L 251.729980 33.797852 Z " fill="rgb(0, 0, 0)" fill-opacity="1.000000" />
<path d="M 251.892578 33.797852 L 251.892578 31.950195 L 258.729980 31.950195 L 258.729980 33.797852 Z " fill="rgb(0, 0, 0)" fill-opacity="1.000000" />
<path d="M 258.892578 33.797852 L 258.892578 31.950195 L 265.729980 31.950195 L 265.729980 33.797852 Z " fill="rgb(0, 0, 0)" fill-opacity="1.000000" />
<path d="M 265.892578 33.797852 L 265.892578 31.950195 L 272.729980 31.950195 L 272.729980 33.797852 Z " fill="rgb(0, 0, 0)" fill-opacity="1.000000" />
<path d="M 272.892578 33.797852 L 272.892578 31.950195 L 279.729980 31.950195 L 279.729980 33.797852 Z " fill="rgb(0, 0, 0)" fill-opacity="1.000000" />
<path d="M 279.892578 33.797852 L 279.892578 31.950195 L 286.729980 31.950195 L 286.729980 33.797852 Z " fill="rgb(0, 0, 0)" fill-opacity="1.000000" />
<path d="M 286.892578 33.797852 L 286.892578 31.950195 L 293.729980 31.950195 L 293.729980 33.797852 Z " fill="rgb(0, 0, 0)" fill-opacity="1.000000" />
<path d="M 293.892578 33.797852 L 293.892578 31.950195 L 300.729980 31.950195 L 300.729980 33.797852 Z " fill="rgb(0, 0, 0)" fill-opacity="1.000000" />
<path d="M 300.892578 33.797852 L 300.892578 31.950195 L 307.729980 31.950195 L 307.729980 33.797852 Z " fill="rgb(0, 0, 0)" fill-opacity="1.000000" />
<path d="M 307.892578 33.797852 L 307.892578 31.950195 L 314.729980 31.950195 L 314.729980 33.797852 Z " fill="rgb(0, 0, 0)" fill-opacity="1.000000" />
<path d="M 314.892578 33.797852 L 314.892578 31.950195 L 321.729980 31.950195 L 321.729980 33.797852 Z " fill="rgb(0, 0, 0)" fill-opacity="1.000000" />
<path d="M 321.892578 33.797852 L 321.892578 31.950195 L 328.729980 31.950195 L 328.729980 33.797852 Z " fill="rgb(0, 0, 0)" fill-opacity="1.000000" />
<path d="M 328.892578 33.797852 L 328.892578 31.950195 L 335.729980 31.950195 L 335.729980 33.797852 Z " fill="rgb(0, 0, 0)" fill-opacity="1.000000" />
<path d="M 335.892578 33.797852 L 335.892578 31.950195 L 342.729980 31.950195 L 342.729980 33.797852 Z " fill="rgb(0, 0, 0)" fill-opacity="1.000000" />
<path d="M 342.892578 33.797852 L 342.892578 31.950195 L 349.729980 31.950195 L 349.729980 33.797852 Z " fill="rgb(0, 0, 0)" fill-opacity="1.000000" />
<path d="M 349.892578 33.797852 L 349.892578 31.950195 L 356.729980 31.950195 L 356.729980 33.797852 Z " fill="rgb(0, 0, 0)" fill-opacity="1.000000" />
<path d="M 356.892578 33.797852 L 356.892578 31.950195 L 363.729980 31.950195 L 363.729980 33.797852 Z " fill="rgb(0, 0, 0)" fill-opacity="1.000000" />
<path d="M 363.892578 33.797852 L 363.892578 31.950195 L 370.729980 31.950195 L 370.729980 33.797852 Z " fill="rgb(0, 0, 0)" fill-opacity="1.000000" />
<path d="M 370.892578 33.797852 L 370.892578 31.950195 L 377.729980 31.950195 L 377.729980 33.797852 Z " fill="rgb(0, 0, 0)" fill-opacity="1.000000" />
<path d="M 377.892578 33.797852 L 377.892578 31.950195 L 384.729980 31.950195 L 384.729980 33.797852 Z " fill="rgb(0, 0, 0)" fill-opacity="1.000000" />
<path d="M 384.892578 33.797852 L 384.892578 31.950195 L 391.729980 31.950195 L 391.729980 33.797852 Z " fill="rgb(0, 0, 0)" fill-opacity="1.000000" />
<path d="M 391.892578 33.797852 L 391.892578 31.950195 L 398.729980 31.950195 L 398.729980 33.797852 Z " fill="rgb(0, 0, 0)" fill-opacity="1.000000" />
<path d="M 401.449219 39.319336 L 401.449219 33.797852 L 398.892578 33.797852 L 398.892578 31.950195 L 403.167969 31.950195 L 403.167969 39.319336 Z " fill="rgb(0, 0, 0)" fill-opacity="1.000000" />
<path d="M 244.203613 5.225098 Q 243.886719 4.978027 243.559082 4.865234 Q 243.231445 4.752441 242.839355 4.752441 Q 241.915527 4.752441 241.426758 5.332520 Q 240.937988 5.912598 240.937988 7.008301 L 240.937988 10.000000 L 239.944336 10.000000 L 239.944336 3.984375 L 240.937988 3.984375 L 240.937988 5.160645 Q 241.185059 4.521484 241.697998 4.180420 Q 242.210938 3.839355 242.914551 3.839355 Q 243.279785 3.839355 243.596680 3.930664 Q 243.913574 4.021973 244.203613 4.215332 Z " fill="rgb(0, 0, 0)" fill-opacity="1.000000" />
<path d="M 242.592285 14.116211 Q 241.877930 15.340820 241.526123 16.557373 Q 241.174316 17.773926 241.174316 19.009277 Q 241.174316 20.239258 241.526123 21.458496 Q 241.877930 22.677734 242.592285 23.913086 L 241.732910 23.913086 Q 240.921875 22.634766 240.524414 21.423584 Q 240.126953 20.212402 240.126953 19.009277 Q 240.126953 17.811523 240.524414 16.597656 Q 240.921875 15.383789 241.732910 14.116211 Z " fill="rgb(0, 0, 0)" fill-opacity="1.000000" />
<path d="M 249.082031 19.213379 Q 249.500977 19.320801 249.796387 19.618896 Q 250.091797 19.916992 250.532227 20.808594 L 251.622559 23.000000 L 250.457031 23.000000 L 249.500977 20.975098 Q 249.087402 20.110352 248.757080 19.860596 Q 248.426758 19.610840 247.895020 19.610840 L 246.858398 19.610840 L 246.858398 23.000000 L 245.768066 23.000000 L 245.768066 14.980957 L 248.002441 14.980957 Q 249.323730 14.980957 250.027344 15.577148 Q 250.730957 16.173340 250.730957 17.301270 Q 250.730957 18.096191 250.298584 18.598389 Q 249.866211 19.100586 249.082031 19.213379 Z M 246.858398 15.872559 L 246.858398 18.719238 L 248.045410 18.719238 Q 248.824219 18.719238 249.205566 18.370117 Q 249.586914 18.020996 249.586914 17.301270 Q 249.586914 16.608398 249.181396 16.240479 Q 248.775879 15.872559 248.002441 15.872559 Z " fill="rgb(0, 0, 0)" fill-opacity="1.000000" />
<path d="M 255.770508 19.976074 L 255.442871 19.976074 Q 254.578125 19.976074 254.140381 20.279541 Q 253.702637 20.583008 253.702637 21.184570 Q 253.702637 21.727051 254.030273 22.027832 Q 254.357910 22.328613 254.937988 22.328613 Q 255.754395 22.328613 256.221680 21.761963 Q 256.688965 21.195312 256.694336 20.196289 L 256.694336 19.976074 Z M 257.687988 19.567871 L 257.687988 23.000000 L 256.694336 23.000000 L 256.694336 22.108398 Q 256.377441 22.645508 255.896729 22.900635 Q 255.416016 23.155762 254.728516 23.155762 Q 253.810059 23.155762 253.262207 22.637451 Q 252.714355 22.119141 252.714355 21.249023 Q 252.714355 20.244629 253.388428 19.723633 Q 254.062500 19.202637 255.367676 19.202637 L 256.694336 19.202637 L 256.694336 19.046875 Q 256.688965 18.327148 256.329102 18.002197 Q 255.969238 17.677246 255.179688 17.677246 Q 254.674805 17.677246 254.159180 17.822266 Q 253.643555 17.967285 253.154785 18.246582 L 253.154785 17.258301 Q 253.702637 17.048828 254.204834 16.944092 Q 254.707031 16.839355 255.179688 16.839355 Q 255.926270 16.839355 256.455322 17.059570 Q 256.984375 17.279785 257.312012 17.720215 Q 257.516113 17.988770 257.602051 18.383545 Q 257.687988 18.778320 257.687988 19.567871 Z " fill="rgb(0, 0, 0)" fill-opacity="1.000000" />
<path d="M 264.698730 22.693848 Q 264.301270 22.924805 263.879639 23.040283 Q 263.458008 23.155762 263.017578 23.155762 Q 261.621094 23.155762 260.834229 22.317871 Q 260.047363 21.479980 260.047363 19.997559 Q 260.047363 18.515137 260.834229 17.677246 Q 261.621094 16.839355 263.017578 16.839355 Q 263.452637 16.839355 263.866211 16.952148 Q 264.279785 17.064941 264.698730 17.301270 L 264.698730 18.337891 Q 264.306641 17.988770 263.911865 17.833008 Q 263.517090 17.677246 263.017578 17.677246 Q 262.088379 17.677246 261.588867 18.278809 Q 261.089355 18.880371 261.089355 19.997559 Q 261.089355 21.109375 261.591553 21.713623 Q 262.093750 22.317871 263.017578 22.317871 Q 263.533203 22.317871 263.941406 22.159424 Q 264.349609 22.000977 264.698730 21.667969 Z " fill="rgb(0, 0, 0)" fill-opacity="1.000000" />
<path d="M 269.297852 15.276367 L 269.297852 16.984375 L 271.542969 16.984375 L 271.542969 17.752441 L 269.297852 17.752441 L 269.297852 21.018066 Q 269.297852 21.684082 269.550293 21.947266 Q 269.802734 22.210449 270.431152 22.210449 L 271.542969 22.210449 L 271.542969 23.000000 L 270.334473 23.000000 Q 269.222656 23.000000 268.766113 22.554199 Q 268.309570 22.108398 268.309570 21.018066 L 268.309570 17.752441 L 266.703613 17.752441 L 266.703613 16.984375 L 268.309570 16.984375 L 268.309570 15.276367 Z " fill="rgb(0, 0, 0)" fill-opacity="1.000000" />
<path d="M 276.308594 17.677246 Q 275.556641 17.677246 275.169922 18.262695 Q 274.783203 18.848145 274.783203 19.997559 Q 274.783203 21.141602 275.169922 21.729736 Q 275.556641 22.317871 276.308594 22.317871 Q 277.065918 22.317871 277.452637 21.729736 Q 277.839355 21.141602 277.839355 19.997559 Q 277.839355 18.848145 277.452637 18.262695 Q 277.065918 17.677246 276.308594 17.677246 Z M 276.308594 16.839355 Q 277.560059 16.839355 278.223389 17.650391 Q 278.886719 18.461426 278.886719 19.997559 Q 278.886719 21.539062 278.226074 22.347412 Q 277.565430 23.155762 276.308594 23.155762 Q 275.057129 23.155762 274.396484 22.347412 Q 273.735840 21.539062 273.735840 19.997559 Q 273.735840 18.461426 274.396484 17.650391 Q 275.057129 16.839355 276.308594 16.839355 Z " fill="rgb(0, 0, 0)" fill-opacity="1.000000" />
<path d="M 286.203613 18.225098 Q 285.886719 17.978027 285.559082 17.865234 Q 285.231445 17.752441 284.839355 17.752441 Q 283.915527 17.752441 283.426758 18.332520 Q 282.937988 18.912598 282.937988 20.008301 L 282.937988 23.000000 L 281.944336 23.000000 L 281.944336 16.984375 L 282.937988 16.984375 L 282.937988 18.160645 Q 283.185059 17.521484 283.697998 17.180420 Q 284.210938 16.839355 284.914551 16.839355 Q 285.279785 16.839355 285.596680 16.930664 Q 285.913574 17.021973 286.203613 17.215332 Z " fill="rgb(0, 0, 0)" fill-opacity="1.000000" />
<path d="M 288.869141 14.116211 L 289.728516 14.116211 Q 290.539551 15.383789 290.937012 16.597656 Q 291.334473 17.811523 291.334473 19.009277 Q 291.334473 20.217773 290.937012 21.431641 Q 290.539551 22.645508 289.728516 23.913086 L 288.869141 23.913086 Q 289.583496 22.666992 289.935303 21.447754 Q 290.287109 20.228516 290.287109 19.009277 Q 290.287109 17.784668 289.935303 16.565430 Q 289.583496 15.346191 288.869141 14.116211 Z " fill="rgb(0, 0, 0)" fill-opacity="1.000000" />
<path d="M 251.015625 6.498047 L 251.015625 6.981445 L 246.734863 6.981445 L 246.734863 7.013672 Q 246.691895 8.243652 247.204834 8.780762 Q 247.717773 9.317871 248.652344 9.317871 Q 249.125000 9.317871 249.640625 9.167480 Q 250.156250 9.017090 250.741699 8.710938 L 250.741699 9.693848 Q 250.177734 9.924805 249.654053 10.040283 Q 249.130371 10.155762 248.641602 10.155762 Q 247.239746 10.155762 246.450195 9.315186 Q 245.660645 8.474609 245.660645 6.997559 Q 245.660645 5.558105 246.434082 4.698730 Q 247.207520 3.839355 248.496582 3.839355 Q 249.645996 3.839355 250.309326 4.618164 Q 250.972656 5.396973 251.015625 6.498047 Z M 250.027344 6.208008 Q 249.962891 5.584961 249.573486 5.131104 Q 249.184082 4.677246 248.453613 4.677246 Q 247.739258 4.677246 247.277344 5.149902 Q 246.815430 5.622559 246.772461 6.213379 Z " fill="rgb(0, 0, 0)" fill-opacity="1.000000" />
<path d="M 257.698730 9.693848 Q 257.301270 9.924805 256.879639 10.040283 Q 256.458008 10.155762 256.017578 10.155762 Q 254.621094 10.155762 253.834229 9.317871 Q 253.047363 8.479980 253.047363 6.997559 Q 253.047363 5.515137 253.834229 4.677246 Q 254.621094 3.839355 256.017578 3.839355 Q 256.452637 3.839355 256.866211 3.952148 Q 257.279785 4.064941 257.698730 4.301270 L 257.698730 5.337891 Q 257.306641 4.988770 256.911865 4.833008 Q 256.517090 4.677246 256.017578 4.677246 Q 255.088379 4.677246 254.588867 5.278809 Q 254.089355 5.880371 254.089355 6.997559 Q 254.089355 8.109375 254.591553 8.713623 Q 255.093750 9.317871 256.017578 9.317871 Q 256.533203 9.317871 256.941406 9.159424 Q 257.349609 9.000977 257.698730 8.667969 Z " fill="rgb(0, 0, 0)" fill-opacity="1.000000" />
<path d="M 265.015625 6.498047 L 265.015625 6.981445 L 260.734863 6.981445 L 260.734863 7.013672 Q 260.691895 8.243652 261.204834 8.780762 Q 261.717773 9.317871 262.652344 9.317871 Q 263.125000 9.317871 263.640625 9.167480 Q 264.156250 9.017090 264.741699 8.710938 L 264.741699 9.693848 Q 264.177734 9.924805 263.654053 10.040283 Q 263.130371 10.155762 262.641602 10.155762 Q 261.239746 10.155762 260.450195 9.315186 Q 259.660645 8.474609 259.660645 6.997559 Q 259.660645 5.558105 260.434082 4.698730 Q 261.207520 3.839355 262.496582 3.839355 Q 263.645996 3.839355 264.309326 4.618164 Q 264.972656 5.396973 265.015625 6.498047 Z M 264.027344 6.208008 Q 263.962891 5.584961 263.573486 5.131104 Q 263.184082 4.677246 262.453613 4.677246 Q 261.739258 4.677246 261.277344 5.149902 Q 260.815430 5.622559 260.772461 6.213379 Z " fill="rgb(0, 0, 0)" fill-opacity="1.000000" />
<path d="M 267.697266 4.005859 L 270.227051 4.005859 L 270.227051 9.231934 L 272.187500 9.231934 L 272.187500 10.000000 L 267.278320 10.000000 L 267.278320 9.231934 L 269.238770 9.231934 L 269.238770 4.773926 L 267.697266 4.773926 Z M 269.238770 1.669434 L 270.227051 1.669434 L 270.227051 2.915527 L 269.238770 2.915527 Z " fill="rgb(0, 0, 0)" fill-opacity="1.000000" />
<path d="M 273.537109 3.984375 L 274.562988 3.984375 L 276.308594 9.033203 L 278.059570 3.984375 L 279.085449 3.984375 L 276.947754 10.000000 L 275.674805 10.000000 Z " fill="rgb(0, 0, 0)" fill-opacity="1.000000" />
<path d="M 286.015625 6.498047 L 286.015625 6.981445 L 281.734863 6.981445 L 281.734863 7.013672 Q 281.691895 8.243652 282.204834 8.780762 Q 282.717773 9.317871 283.652344 9.317871 Q 284.125000 9.317871 284.640625 9.167480 Q 285.156250 9.017090 285.741699 8.710938 L 285.741699 9.693848 Q 285.177734 9.924805 284.654053 10.040283 Q 284.130371 10.155762 283.641602 10.155762 Q 282.239746 10.155762 281.450195 9.315186 Q 280.660645 8.474609 280.660645 6.997559 Q 280.660645 5.558105 281.434082 4.698730 Q 282.207520 3.839355 283.496582 3.839355 Q 284.645996 3.839355 285.309326 4.618164 Q 285.972656 5.396973 286.015625 6.498047 Z M 285.027344 6.208008 Q 284.962891 5.584961 284.573486 5.131104 Q 284.184082 4.677246 283.453613 4.677246 Q 282.739258 4.677246 282.277344 5.149902 Q 281.815430 5.622559 281.772461 6.213379 Z " fill="rgb(0, 0, 0)" fill-opacity="1.000000" />
<path d="M 293.203613 5.225098 Q 292.886719 4.978027 292.559082 4.865234 Q 292.231445 4.752441 291.839355 4.752441 Q 290.915527 4.752441 290.426758 5.332520 Q 289.937988 5.912598 289.937988 7.008301 L 289.937988 10.000000 L 288.944336 10.000000 L 288.944336 3.984375 L 289.937988 3.984375 L 289.937988 5.160645 Q 290.185059 4.521484 290.697998 4.180420 Q 291.210938 3.839355 291.914551 3.839355 Q 292.279785 3.839355 292.596680 3.930664 Q 292.913574 4.021973 293.203613 4.215332 Z " fill="rgb(0, 0, 0)" fill-opacity="1.000000" />
</svg>