<svg xmlns="http://www.w3.org/2000/svg" version="1.1" width="393" height="144">
<path d="M 2.449219 39.319336 L 2.449219 31.950195 L 6.729980 31.950195 L 6.729980 33.797852 L 4.167969 33.797852 L 4.167969 39.319336 Z " fill="rgb(0, 0, 0)" fill-opacity="1.000000" />
<path d="M 2.449219 52.319336 L 2.449219 38.300781 L 4.167969 38.300781 L 4.167969 52.319336 Z " fill="rgb(0, 0, 0)" fill-opacity="1.000000" />
<path d="M 2.449219 65.319336 L 2.449219 51.300781 L 4.167969 51.300781 L 4.167969 65.319336 Z " fill="rgb(0, 0, 0)" fill-opacity="1.000000" />
<path d="M 2.449219 78.319336 L 2.449219 64.300781 L 4.167969 64.300781 L 4.167969 78.319336 Z " fill="rgb(0, 0, 0)" fill-opacity="1.000000" />
<path d="M 2.449219 91.319336 L 2.449219 77.300781 L 4.167969 77.300781 L 4.167969 91.319336 Z " fill="rgb(0, 0, 0)" fill-opacity="1.000000" />
<path d="M 2.449219 104.319336 L 2.449219 90.300781 L 4.167969 90.300781 L 4.167969 104.319336 Z " fill="rgb(0, 0, 0)" fill-opacity="1.000000" />
<path d="M 2.449219 117.319336 L 2.449219 103.300781 L 4.167969 103.300781 L 4.167969 117.319336 Z " fill="rgb(0, 0, 0)" fill-opacity="1.000000" />
<path d="M 2.449219 130.319336 L 2.449219 116.300781 L 4.167969 116.300781 L 4.167969 130.319336 Z " fill="rgb(0, 0, 0)" fill-opacity="1.000000" />
<path d="M 2.449219 137.797852 L 2.449219 129.300781 L 4.167969 129.300781 L 4.167969 135.950195 L 6.729980 135.950195 L 6.729980 137.797852 Z " fill="rgb(0, 0, 0)" fill-opacity="1.000000" />
<path d="M 6.892578 137.797852 L 6.892578 135.950195 L 13.729980 135.950195 L 13.729980 137.797852 Z " fill="rgb(0, 0, 0)" fill-opacity="1.000000" />
<path d="M 13.892578 137.797852 L 13.892578 135.950195 L 20.729980 135.950195 L 20.729980 137.797852 Z " fill="rgb(0, 0, 0)" fill-opacity="1.000000" />
<path d="M 20.892578 137.797852 L 20.892578 135.950195 L 27.729980 135.950195 L 27.729980 137.797852 Z " fill="rgb(0, 0, 0)" fill-opacity="1.000000" />
<path d="M 27.892578 137.797852 L 27.892578 135.950195 L 34.729980 135.950195 L 34.729980 137.797852 Z " fill="rgb(0, 0, 0)" fill-opacity="1.000000" />
<path d="M 34.892578 137.797852 L 34.892578 135.950195 L 41.729980 135.950195 L 41.729980 137.797852 Z " fill="rgb(0, 0, 0)" fill-opacity="1.000000" />
<path d="M 41.892578 137.797852 L 41.892578 135.950195 L 48.729980 135.950195 L 48.729980 137.797852 Z " fill="rgb(0, 0, 0)" fill-opacity="1.000000" />
<path d="M 48.892578 137.797852 L 48.892578 135.950195 L 55.729980 135.950195 L 55.729980 137.797852 Z " fill="rgb(0, 0, 0)" fill-opacity="1.000000" />
<path d="M 55.892578 137.797852 L 55.892578 135.950195 L 62.729980 135.950195 L 62.729980 137.797852 Z " fill="rgb(0, 0, 0)" fill-opacity="1.000000" />
<path d="M 62.892578 137.797852 L 62.892578 135.950195 L 69.729980 135.950195 L 69.729980 137.797852 Z " fill="rgb(0, 0, 0)" fill-opacity="1.000000" />
<path d="M 69.892578 137.797852 L 69.892578 135.950195 L 76.729980 135.950195 L 76.729980 137.797852 Z " fill="rgb(0, 0, 0)" fill-opacity="1.000000" />
<path d="M 76.892578 137.797852 L 76.892578 135.950195 L 83.729980 135.950195 L 83.729980 137.797852 Z " fill="rgb(0, 0, 0)" fill-opacity="1.000000" />
<path d="M 83.892578 137.797852 L 83.892578 135.950195 L 90.729980 135.950195 L 90.729980 137.797852 Z " fill="rgb(0, 0, 0)" fill-opacity="1.000000" />
<path d="M 90.892578 137.797852 L 90.892578 135.950195 L 97.729980 135.950195 L 97.729980 137.797852 Z " fill="rgb(0, 0, 0)" fill-opacity="1.000000" />
<path d="M 97.892578 137.797852 L 97.892578 135.950195 L 104.729980 135.950195 L 104.729980 137.797852 Z " fill="rgb(0, 0, 0)" fill-opacity="1.000000" />
<path d="M 104.892578 137.797852 L 104.892578 135.950195 L 111.729980 135.950195 L 111.729980 137.797852 Z " fill="rgb(0, 0, 0)" fill-opacity="1.000000" />
<path d="M 111.892578 137.797852 L 111.892578 135.950195 L 118.729980 135.950195 L 118.729980 137.797852 Z " fill="rgb(0, 0, 0)" fill-opacity="1.000000" />
<path d="M 118.892578 137.797852 L 118.892578 135.950195 L 125.729980 135.950195 L 125.729980 137.797852 Z " fill="rgb(0, 0, 0)" fill-opacity="1.000000" />
<path d="M 125.892578 137.797852 L 125.892578 135.950195 L 132.729980 135.950195 L 132.729980 137.797852 Z " fill="rgb(0, 0, 0)" fill-opacity="1.000000" />
<path d="M 132.892578 137.797852 L 132.892578 135.950195 L 139.729980 135.950195 L 139.729980 137.797852 Z " fill="rgb(0, 0, 0)" fill-opacity="1.000000" />
<path d="M 139.892578 137.797852 L 139.892578 135.950195 L 146.729980 135.950195 L 146.729980 137.797852 Z " fill="rgb(0, 0, 0)" fill-opacity="1.000000" />
<path d="M 146.892578 137.797852 L 146.892578 135.950195 L 153.729980 135.950195 L 153.729980 137.797852 Z " fill="rgb(0, 0, 0)" fill-opacity="1.000000" />
<path d="M 153.892578 137.797852 L 153.892578 135.950195 L 160.729980 135.950195 L 160.729980 137.797852 Z " fill="rgb(0, 0, 0)" fill-opacity="1.000000" />
<path d="M 160.892578 137.797852 L 160.892578 135.950195 L 167.729980 135.950195 L 167.729980 137.797852 Z " fill="rgb(0, 0, 0)" fill-opacity="1.000000" />
<path d="M 167.892578 137.797852 L 167.892578 135.950195 L 174.729980 135.950195 L 174.729980 137.797852 Z " fill="rgb(0, 0, 0)" fill-opacity="1.000000" />
<path d="M 174.892578 137.797852 L 174.892578 135.950195 L 181.729980 135.950195 L 181.729980 137.797852 Z " fill="rgb(0, 0, 0)" fill-opacity="1.000000" />
<path d="M 181.892578 137.797852 L 181.892578 135.950195 L 188.729980 135.950195 L 188.729980 137.797852 Z " fill="rgb(0, 0, 0)" fill-opacity="1.000000" />
<path d="M 188.892578 137.797852 L 188.892578 135.950195 L 195.729980 135.950195 L 195.729980 137.797852 Z " fill="rgb(0, 0, 0)" fill-opacity="1.000000" />
<path d="M 195.892578 137.797852 L 195.892578 135.950195 L 202.729980 135.950195 L 202.729980 137.797852 Z " fill="rgb(0, 0, 0)" fill-opacity="1.000000" />
<path d="M 202.892578 137.797852 L 202.892578 135.950195 L 209.729980 135.950195 L 209.729980 137.797852 Z " fill="rgb(0, 0, 0)" fill-opacity="1.000000" />
<path d="M 209.892578 137.797852 L 209.892578 135.950195 L 216.729980 135.950195 L 216.729980 137.797852 Z " fill="rgb(0, 0, 0)" fill-opacity="1.000000" />
<path d="M 216.892578 137.797852 L 216.892578 135.950195 L 223.729980 135.950195 L 223.729980 137.797852 Z " fill="rgb(0, 0, 0)" fill-opacity="1.000000" />
<path d="M 223.892578 137.797852 L 223.892578 135.950195 L 230.729980 135.950195 L 230.729980 137.797852 Z " fill="rgb(0, 0, 0)" fill-opacity="1.000000" />
<path d="M 230.892578 137.797852 L 230.892578 135.950195 L 237.729980 135.950195 L 237.729980 137.797852 Z " fill="rgb(0, 0, 0)" fill-opacity="1.000000" />
<path d="M 237.892578 137.797852 L 237.892578 135.950195 L 244.729980 135.950195 L 244.729980 137.797852 Z " fill="rgb(0, 0, 0)" fill-opacity="1.000000" />
<path d="M 244.892578 137.797852 L 244.892578 135.950195 L 251.729980 135.950195 L 251.729980 137.797852 Z " fill="rgb(0, 0, 0)" fill-opacity="1.000000" />
<path d="M 251.892578 137.797852 L 251.892578 135.950195 L 258.729980 135.950195 L 258.729980 137.797852 Z " fill="rgb(0, 0, 0)" fill-opacity="1.000000" />
<path d="M 258.892578 137.797852 L 258.892578 135.950195 L 265.729980 135.950195 L 265.729980 137.797852 Z " fill="rgb(0, 0, 0)" fill-opacity="1.000000" />
<path d="M 265.892578 137.797852 L 265.892578 135.950195 L 268.449219 135.950195 L 268.449219 129.300781 L 270.167969 129.300781 L 270.167969 137.797852 Z " fill="rgb(0, 0, 0)" fill-opacity="1.000000" />
<path d="M 39.082031 71.213379 Q 39.500977 71.320801 39.796387 71.618896 Q 40.091797 71.916992 40.532227 72.808594 L 41.622559 75.000000 L 40.457031 75.000000 L 39.500977 72.975098 Q 39.087402 72.110352 38.757080 71.860596 Q 38.426758 71.610840 37.895020 71.610840 L 36.858398 71.610840 L 36.858398 75.000000 L 35.768066 75.000000 L 35.768066 66.980957 L 38.002441 66.980957 Q 39.323730 66.980957 40.027344 67.577148 Q 40.730957 68.173340 40.730957 69.301270 Q 40.730957 70.096191 40.298584 70.598389 Q 39.866211 71.100586 39.082031 71.213379 Z M 36.858398 67.872559 L 36.858398 70.719238 L 38.045410 70.719238 Q 38.824219 70.719238 39.205566 70.370117 Q 39.586914 70.020996 39.586914 69.301270 Q 39.586914 68.608398 39.181396 68.240479 Q 38.775879 67.872559 38.002441 67.872559 Z " fill="rgb(0, 0, 0)" fill-opacity="1.000000" />
<path d="M 77.032227 88.418945 L 77.032227 81.866211 L 83.590332 81.866211 L 83.590332 88.418945 Z " fill="rgb(0, 0, 0)" fill-opacity="1.000000" />
<path d="M 79.878906 98.335938 L 79.878906 90.300781 L 80.738281 90.300781 L 80.738281 97.412109 L 83.729980 97.412109 L 83.729980 98.335938 Z " fill="rgb(0, 0, 0)" fill-opacity="1.000000" />
<path d="M 149.878906 124.335938 L 149.878906 116.300781 L 150.738281 116.300781 L 150.738281 123.412109 L 153.729980 123.412109 L 153.729980 124.335938 Z " fill="rgb(0, 0, 0)" fill-opacity="1.000000" />
<path d="M 160.892578 124.335938 L 160.892578 123.412109 L 167.729980 123.412109 L 167.729980 124.335938 Z " fill="rgb(0, 0, 0)" fill-opacity="1.000000" />
<path d="M 174.892578 124.335938 L 174.892578 123.412109 L 181.729980 123.412109 L 181.729980 124.335938 Z " fill="rgb(0, 0, 0)" fill-opacity="1.000000" />
<path d="M 188.892578 124.335938 L 188.892578 123.412109 L 195.729980 123.412109 L 195.729980 124.335938 Z " fill="rgb(0, 0, 0)" fill-opacity="1.000000" />
<path d="M 202.892578 124.335938 L 202.892578 123.412109 L 209.729980 123.412109 L 209.729980 124.335938 Z " fill="rgb(0, 0, 0)" fill-opacity="1.000000" />
<path d="M 216.892578 124.335938 L 216.892578 123.412109 L 223.729980 123.412109 L 223.729980 124.335938 Z " fill="rgb(0, 0, 0)" fill-opacity="1.000000" />
<path d="M 230.892578 124.335938 L 230.892578 123.412109 L 237.729980 123.412109 L 237.729980 124.335938 Z " fill="rgb(0, 0, 0)" fill-opacity="1.000000" />
<path d="M 244.892578 124.335938 L 244.892578 123.412109 L 251.729980 123.412109 L 251.729980 124.335938 Z " fill="rgb(0, 0, 0)" fill-opacity="1.000000" />
<path d="M 268.449219 130.319336 L 268.449219 116.300781 L 270.167969 116.300781 L 270.167969 130.319336 Z " fill="rgb(0, 0, 0)" fill-opacity="1.000000" />
<path d="M 156.878906 111.335938 L 156.878906 103.300781 L 157.738281 103.300781 L 157.738281 110.412109 L 160.729980 110.412109 L 160.729980 111.335938 Z " fill="rgb(0, 0, 0)" fill-opacity="1.000000" />
<path d="M 160.892578 111.335938 L 160.892578 110.412109 L 167.729980 110.412109 L 167.729980 111.335938 Z " fill="rgb(0, 0, 0)" fill-opacity="1.000000" />
<path d="M 167.892578 111.335938 L 167.892578 110.412109 L 174.729980 110.412109 L 174.729980 111.335938 Z " fill="rgb(0, 0, 0)" fill-opacity="1.000000" />
<path d="M 174.892578 111.335938 L 174.892578 110.412109 L 181.729980 110.412109 L 181.729980 111.335938 Z " fill="rgb(0, 0, 0)" fill-opacity="1.000000" />
<path d="M 181.892578 111.335938 L 181.892578 110.412109 L 188.729980 110.412109 L 188.729980 111.335938 Z " fill="rgb(0, 0, 0)" fill-opacity="1.000000" />
<path d="M 188.892578 111.335938 L 188.892578 110.412109 L 195.729980 110.412109 L 195.729980 111.335938 Z " fill="rgb(0, 0, 0)" fill-opacity="1.000000" />
<path d="M 195.892578 111.335938 L 195.892578 110.412109 L 202.729980 110.412109 L 202.729980 111.335938 Z " fill="rgb(0, 0, 0)" fill-opacity="1.000000" />
<path d="M 202.892578 111.335938 L 202.892578 110.412109 L 209.729980 110.412109 L 209.729980 111.335938 Z " fill="rgb(0, 0, 0)" fill-opacity="1.000000" />
<path d="M 209.892578 111.335938 L 209.892578 110.412109 L 216.729980 110.412109 L 216.729980 111.335938 Z " fill="rgb(0, 0, 0)" fill-opacity="1.000000" />
<path d="M 216.892578 111.335938 L 216.892578 110.412109 L 223.729980 110.412109 L 223.729980 111.335938 Z " fill="rgb(0, 0, 0)" fill-opacity="1.000000" />
<path d="M 223.892578 111.335938 L 223.892578 110.412109 L 230.729980 110.412109 L 230.729980 111.335938 Z " fill="rgb(0, 0, 0)" fill-opacity="1.000000" />
<path d="M 230.892578 111.335938 L 230.892578 110.412109 L 237.729980 110.412109 L 237.729980 111.335938 Z " fill="rgb(0, 0, 0)" fill-opacity="1.000000" />
<path d="M 237.892578 111.335938 L 237.892578 110.412109 L 244.729980 110.412109 L 244.729980 111.335938 Z " fill="rgb(0, 0, 0)" fill-opacity="1.000000" />
<path d="M 244.892578 111.335938 L 244.892578 110.412109 L 247.878906 110.412109 L 247.878906 103.300781 L 248.738281 103.300781 L 248.738281 111.335938 Z " fill="rgb(0, 0, 0)" fill-opacity="1.000000" />
<path d="M 254.878906 117.319336 L 254.878906 103.300781 L 255.738281 103.300781 L 255.738281 117.319336 Z " fill="rgb(0, 0, 0)" fill-opacity="1.000000" />
<path d="M 268.449219 117.319336 L 268.449219 103.300781 L 270.167969 103.300781 L 270.167969 117.319336 Z " fill="rgb(0, 0, 0)" fill-opacity="1.000000" />
<path d="M 83.892578 98.335938 L 83.892578 97.412109 L 90.729980 97.412109 L 90.729980 98.335938 Z " fill="rgb(0, 0, 0)" fill-opacity="1.000000" />
<path d="M 90.892578 98.335938 L 90.892578 97.412109 L 97.729980 97.412109 L 97.729980 98.335938 Z " fill="rgb(0, 0, 0)" fill-opacity="1.000000" />
<path d="M 97.892578 98.335938 L 97.892578 97.412109 L 104.729980 97.412109 L 104.729980 98.335938 Z " fill="rgb(0, 0, 0)" fill-opacity="1.000000" />
<path d="M 104.892578 98.335938 L 104.892578 97.412109 L 111.729980 97.412109 L 111.729980 98.335938 Z " fill="rgb(0, 0, 0)" fill-opacity="1.000000" />
<path d="M 111.892578 98.335938 L 111.892578 97.412109 L 118.729980 97.412109 L 118.729980 98.335938 Z " fill="rgb(0, 0, 0)" fill-opacity="1.000000" />
<path d="M 118.892578 98.335938 L 118.892578 97.412109 L 125.729980 97.412109 L 125.729980 98.335938 Z " fill="rgb(0, 0, 0)" fill-opacity="1.000000" />
<path d="M 125.892578 98.335938 L 125.892578 97.412109 L 132.729980 97.412109 L 132.729980 98.335938 Z " fill="rgb(0, 0, 0)" fill-opacity="1.000000" />
<path d="M 132.892578 98.335938 L 132.892578 97.412109 L 139.729980 97.412109 L 139.729980 98.335938 Z " fill="rgb(0, 0, 0)" fill-opacity="1.000000" />
<path d="M 139.892578 98.335938 L 139.892578 97.412109 L 146.729980 97.412109 L 146.729980 98.335938 Z " fill="rgb(0, 0, 0)" fill-opacity="1.000000" />
<path d="M 150.738281 98.335938 L 150.738281 104.319336 L 149.878906 104.319336 L 149.878906 98.335938 L 146.892578 98.335938 L 146.892578 97.412109 L 149.878906 97.412109 L 149.878906 90.300781 L 150.738281 90.300781 L 150.738281 97.412109 L 153.729980 97.412109 L 153.729980 98.335938 Z " fill="rgb(0, 0, 0)" fill-opacity="1.000000" />
<path d="M 154.032227 101.418945 L 154.032227 94.866211 L 160.590332 98.142578 Z " fill="rgb(0, 0, 0)" fill-opacity="1.000000" />
<path d="M 247.878906 104.319336 L 247.878906 90.300781 L 248.738281 90.300781 L 248.738281 97.412109 L 251.729980 97.412109 L 251.729980 98.335938 L 248.738281 98.335938 L 248.738281 104.319336 Z " fill="rgb(0, 0, 0)" fill-opacity="1.000000" />
<path d="M 251.892578 98.335938 L 251.892578 97.412109 L 258.729980 97.412109 L 258.729980 98.335938 Z " fill="rgb(0, 0, 0)" fill-opacity="1.000000" />
<path d="M 258.892578 98.335938 L 258.892578 97.412109 L 265.729980 97.412109 L 265.729980 98.335938 Z " fill="rgb(0, 0, 0)" fill-opacity="1.000000" />
<path d="M 268.449219 104.319336 L 268.449219 98.797852 L 265.892578 98.797852 L 265.892578 96.950195 L 268.449219 96.950195 L 268.449219 90.300781 L 270.167969 90.300781 L 270.167969 96.950195 L 272.729980 96.950195 L 272.729980 98.797852 L 270.167969 98.797852 L 270.167969 104.319336 Z " fill="rgb(0, 0, 0)" fill-opacity="1.000000" />
<path d="M 272.892578 98.335938 L 272.892578 97.412109 L 279.729980 97.412109 L 279.729980 98.335938 Z " fill="rgb(0, 0, 0)" fill-opacity="1.000000" />
<path d="M 279.892578 98.335938 L 279.892578 97.412109 L 286.729980 97.412109 L 286.729980 98.335938 Z " fill="rgb(0, 0, 0)" fill-opacity="1.000000" />
<path d="M 286.892578 98.335938 L 286.892578 97.412109 L 293.729980 97.412109 L 293.729980 98.335938 Z " fill="rgb(0, 0, 0)" fill-opacity="1.000000" />
<path d="M 293.892578 98.335938 L 293.892578 97.412109 L 300.729980 97.412109 L 300.729980 98.335938 Z " fill="rgb(0, 0, 0)" fill-opacity="1.000000" />
<path d="M 300.892578 98.335938 L 300.892578 97.412109 L 307.729980 97.412109 L 307.729980 98.335938 Z " fill="rgb(0, 0, 0)" fill-opacity="1.000000" />
<path d="M 307.892578 98.335938 L 307.892578 97.412109 L 314.729980 97.412109 L 314.729980 98.335938 Z " fill="rgb(0, 0, 0)" fill-opacity="1.000000" />
<path d="M 314.892578 98.335938 L 314.892578 97.412109 L 321.729980 97.412109 L 321.729980 98.335938 Z " fill="rgb(0, 0, 0)" fill-opacity="1.000000" />
<path d="M 321.892578 98.335938 L 321.892578 97.412109 L 328.729980 97.412109 L 328.729980 98.335938 Z " fill="rgb(0, 0, 0)" fill-opacity="1.000000" />
<path d="M 328.892578 98.335938 L 328.892578 97.412109 L 335.729980 97.412109 L 335.729980 98.335938 Z " fill="rgb(0, 0, 0)" fill-opacity="1.000000" />
<path d="M 335.892578 98.335938 L 335.892578 97.412109 L 342.729980 97.412109 L 342.729980 98.335938 Z " fill="rgb(0, 0, 0)" fill-opacity="1.000000" />
<path d="M 342.892578 98.335938 L 342.892578 97.412109 L 349.729980 97.412109 L 349.729980 98.335938 Z " fill="rgb(0, 0, 0)" fill-opacity="1.000000" />
<path d="M 350.032227 101.418945 L 350.032227 94.866211 L 356.590332 98.142578 Z " fill="rgb(0, 0, 0)" fill-opacity="1.000000" />
<path d="M 156.878906 91.319336 L 156.878906 84.412109 L 160.729980 84.412109 L 160.729980 85.335938 L 157.738281 85.335938 L 157.738281 91.319336 Z " fill="rgb(0, 0, 0)" fill-opacity="1.000000" />
<path d="M 160.892578 85.335938 L 160.892578 84.412109 L 167.729980 84.412109 L 167.729980 85.335938 Z " fill="rgb(0, 0, 0)" fill-opacity="1.000000" />
<path d="M 167.892578 85.335938 L 167.892578 84.412109 L 174.729980 84.412109 L 174.729980 85.335938 Z " fill="rgb(0, 0, 0)" fill-opacity="1.000000" />
<path d="M 174.892578 85.335938 L 174.892578 84.412109 L 181.729980 84.412109 L 181.729980 85.335938 Z " fill="rgb(0, 0, 0)" fill-opacity="1.000000" />
<path d="M 181.892578 85.335938 L 181.892578 84.412109 L 188.729980 84.412109 L 188.729980 85.335938 Z " fill="rgb(0, 0, 0)" fill-opacity="1.000000" />
<path d="M 188.892578 85.335938 L 188.892578 84.412109 L 195.729980 84.412109 L 195.729980 85.335938 Z " fill="rgb(0, 0, 0)" fill-opacity="1.000000" />
<path d="M 195.892578 85.335938 L 195.892578 84.412109 L 202.729980 84.412109 L 202.729980 85.335938 Z " fill="rgb(0, 0, 0)" fill-opacity="1.000000" />
<path d="M 202.892578 85.335938 L 202.892578 84.412109 L 209.729980 84.412109 L 209.729980 85.335938 Z " fill="rgb(0, 0, 0)" fill-opacity="1.000000" />
<path d="M 209.892578 85.335938 L 209.892578 84.412109 L 216.729980 84.412109 L 216.729980 85.335938 Z " fill="rgb(0, 0, 0)" fill-opacity="1.000000" />
<path d="M 216.892578 85.335938 L 216.892578 84.412109 L 223.729980 84.412109 L 223.729980 85.335938 Z " fill="rgb(0, 0, 0)" fill-opacity="1.000000" />
<path d="M 223.892578 85.335938 L 223.892578 84.412109 L 230.729980 84.412109 L 230.729980 85.335938 Z " fill="rgb(0, 0, 0)" fill-opacity="1.000000" />
<path d="M 230.892578 85.335938 L 230.892578 84.412109 L 237.729980 84.412109 L 237.729980 85.335938 Z " fill="rgb(0, 0, 0)" fill-opacity="1.000000" />
<path d="M 237.892578 85.335938 L 237.892578 84.412109 L 244.729980 84.412109 L 244.729980 85.335938 Z " fill="rgb(0, 0, 0)" fill-opacity="1.000000" />
<path d="M 247.878906 91.319336 L 247.878906 85.335938 L 244.892578 85.335938 L 244.892578 84.412109 L 248.738281 84.412109 L 248.738281 91.319336 Z " fill="rgb(0, 0, 0)" fill-opacity="1.000000" />
<path d="M 254.878906 91.319336 L 254.878906 77.300781 L 255.738281 77.300781 L 255.738281 91.319336 Z " fill="rgb(0, 0, 0)" fill-opacity="1.000000" />
<path d="M 268.449219 91.319336 L 268.449219 77.300781 L 270.167969 77.300781 L 270.167969 91.319336 Z " fill="rgb(0, 0, 0)" fill-opacity="1.000000" />
<path d="M 45.770508 71.976074 L 45.442871 71.976074 Q 44.578125 71.976074 44.140381 72.279541 Q 43.702637 72.583008 43.702637 73.184570 Q 43.702637 73.727051 44.030273 74.027832 Q 44.357910 74.328613 44.937988 74.328613 Q 45.754395 74.328613 46.221680 73.761963 Q 46.688965 73.195312 46.694336 72.196289 L 46.694336 71.976074 Z M 47.687988 71.567871 L 47.687988 75.000000 L 46.694336 75.000000 L 46.694336 74.108398 Q 46.377441 74.645508 45.896729 74.900635 Q 45.416016 75.155762 44.728516 75.155762 Q 43.810059 75.155762 43.262207 74.637451 Q 42.714355 74.119141 42.714355 73.249023 Q 42.714355 72.244629 43.388428 71.723633 Q 44.062500 71.202637 45.367676 71.202637 L 46.694336 71.202637 L 46.694336 71.046875 Q 46.688965 70.327148 46.329102 70.002197 Q 45.969238 69.677246 45.179688 69.677246 Q 44.674805 69.677246 44.159180 69.822266 Q 43.643555 69.967285 43.154785 70.246582 L 43.154785 69.258301 Q 43.702637 69.048828 44.204834 68.944092 Q 44.707031 68.839355 45.179688 68.839355 Q 45.926270 68.839355 46.455322 69.059570 Q 46.984375 69.279785 47.312012 69.720215 Q 47.516113 69.988770 47.602051 70.383545 Q 47.687988 70.778320 47.687988 71.567871 Z " fill="rgb(0, 0, 0)" fill-opacity="1.000000" />
<path d="M 54.698730 74.693848 Q 54.301270 74.924805 53.879639 75.040283 Q 53.458008 75.155762 53.017578 75.155762 Q 51.621094 75.155762 50.834229 74.317871 Q 50.047363 73.479980 50.047363 71.997559 Q 50.047363 70.515137 50.834229 69.677246 Q 51.621094 68.839355 53.017578 68.839355 Q 53.452637 68.839355 53.866211 68.952148 Q 54.279785 69.064941 54.698730 69.301270 L 54.698730 70.337891 Q 54.306641 69.988770 53.911865 69.833008 Q 53.517090 69.677246 53.017578 69.677246 Q 52.088379 69.677246 51.588867 70.278809 Q 51.089355 70.880371 51.089355 71.997559 Q 51.089355 73.109375 51.591553 73.713623 Q 52.093750 74.317871 53.017578 74.317871 Q 53.533203 74.317871 53.941406 74.159424 Q 54.349609 74.000977 54.698730 73.667969 Z " fill="rgb(0, 0, 0)" fill-opacity="1.000000" />
<path d="M 59.297852 67.276367 L 59.297852 68.984375 L 61.542969 68.984375 L 61.542969 69.752441 L 59.297852 69.752441 L 59.297852 73.018066 Q 59.297852 73.684082 59.550293 73.947266 Q 59.802734 74.210449 60.431152 74.210449 L 61.542969 74.210449 L 61.542969 75.000000 L 60.334473 75.000000 Q 59.222656 75.000000 58.766113 74.554199 Q 58.309570 74.108398 58.309570 73.018066 L 58.309570 69.752441 L 56.703613 69.752441 L 56.703613 68.984375 L 58.309570 68.984375 L 58.309570 67.276367 Z " fill="rgb(0, 0, 0)" fill-opacity="1.000000" />
<path d="M 66.308594 69.677246 Q 65.556641 69.677246 65.169922 70.262695 Q 64.783203 70.848145 64.783203 71.997559 Q 64.783203 73.141602 65.169922 73.729736 Q 65.556641 74.317871 66.308594 74.317871 Q 67.065918 74.317871 67.452637 73.729736 Q 67.839355 73.141602 67.839355 71.997559 Q 67.839355 70.848145 67.452637 70.262695 Q 67.065918 69.677246 66.308594 69.677246 Z M 66.308594 68.839355 Q 67.560059 68.839355 68.223389 69.650391 Q 68.886719 70.461426 68.886719 71.997559 Q 68.886719 73.539062 68.226074 74.347412 Q 67.565430 75.155762 66.308594 75.155762 Q 65.057129 75.155762 64.396484 74.347412 Q 63.735840 73.539062 63.735840 71.997559 Q 63.735840 70.461426 64.396484 69.650391 Q 65.057129 68.839355 66.308594 68.839355 Z " fill="rgb(0, 0, 0)" fill-opacity="1.000000" />
<path d="M 76.203613 70.225098 Q 75.886719 69.978027 75.559082 69.865234 Q 75.231445 69.752441 74.839355 69.752441 Q 73.915527 69.752441 73.426758 70.332520 Q 72.937988 70.912598 72.937988 72.008301 L 72.937988 75.000000 L 71.944336 75.000000 L 71.944336 68.984375 L 72.937988 68.984375 L 72.937988 70.160645 Q 73.185059 69.521484 73.697998 69.180420 Q 74.210938 68.839355 74.914551 68.839355 Q 75.279785 68.839355 75.596680 68.930664 Q 75.913574 69.021973 76.203613 69.215332 Z " fill="rgb(0, 0, 0)" fill-opacity="1.000000" />
<path d="M 79.089355 72.830078 L 80.979980 72.830078 L 80.979980 75.000000 L 79.089355 75.000000 Z " fill="rgb(0, 0, 0)" fill-opacity="1.000000" />
<path d="M 88.608398 73.066406 Q 88.361328 73.694824 87.979980 74.720703 Q 87.448242 76.138672 87.265625 76.450195 Q 87.018555 76.869141 86.647949 77.078613 Q 86.277344 77.288086 85.783203 77.288086 L 84.988281 77.288086 L 84.988281 76.460938 L 85.573730 76.460938 Q 86.008789 76.460938 86.255859 76.208496 Q 86.502930 75.956055 86.884277 74.903320 L 84.558594 68.984375 L 85.605957 68.984375 L 87.389160 73.689453 L 89.145508 68.984375 L 90.192871 68.984375 Z " fill="rgb(0, 0, 0)" fill-opacity="1.000000" />
<path d="M 92.697266 69.005859 L 95.227051 69.005859 L 95.227051 74.231934 L 97.187500 74.231934 L 97.187500 75.000000 L 92.278320 75.000000 L 92.278320 74.231934 L 94.238770 74.231934 L 94.238770 69.773926 L 92.697266 69.773926 Z M 94.238770 66.669434 L 95.227051 66.669434 L 95.227051 67.915527 L 94.238770 67.915527 Z " fill="rgb(0, 0, 0)" fill-opacity="1.000000" />
<path d="M 104.015625 71.498047 L 104.015625 71.981445 L 99.734863 71.981445 L 99.734863 72.013672 Q 99.691895 73.243652 100.204834 73.780762 Q 100.717773 74.317871 101.652344 74.317871 Q 102.125000 74.317871 102.640625 74.167480 Q 103.156250 74.017090 103.741699 73.710938 L 103.741699 74.693848 Q 103.177734 74.924805 102.654053 75.040283 Q 102.130371 75.155762 101.641602 75.155762 Q 100.239746 75.155762 99.450195 74.315186 Q 98.660645 73.474609 98.660645 71.997559 Q 98.660645 70.558105 99.434082 69.698730 Q 100.207520 68.839355 101.496582 68.839355 Q 102.645996 68.839355 103.309326 69.618164 Q 103.972656 70.396973 104.015625 71.498047 Z M 103.027344 71.208008 Q 102.962891 70.584961 102.573486 70.131104 Q 102.184082 69.677246 101.453613 69.677246 Q 100.739258 69.677246 100.277344 70.149902 Q 99.815430 70.622559 99.772461 71.213379 Z " fill="rgb(0, 0, 0)" fill-opacity="1.000000" />
<path d="M 108.861816 72.824707 Q 108.861816 73.490723 109.106201 73.829102 Q 109.350586 74.167480 109.828613 74.167480 L 110.983398 74.167480 L 110.983398 75.000000 L 109.731934 75.000000 Q 108.845703 75.000000 108.359619 74.433350 Q 107.873535 73.866699 107.873535 72.824707 L 107.873535 67.383789 L 106.289062 67.383789 L 106.289062 66.610352 L 108.861816 66.610352 Z " fill="rgb(0, 0, 0)" fill-opacity="1.000000" />
<path d="M 116.608398 69.752441 L 116.608398 66.642578 L 117.596680 66.642578 L 117.596680 75.000000 L 116.608398 75.000000 L 116.608398 74.242676 Q 116.361328 74.688477 115.950439 74.922119 Q 115.539551 75.155762 115.002441 75.155762 Q 113.912109 75.155762 113.286377 74.309814 Q 112.660645 73.463867 112.660645 71.976074 Q 112.660645 70.509766 113.289062 69.674561 Q 113.917480 68.839355 115.002441 68.839355 Q 115.544922 68.839355 115.958496 69.072998 Q 116.372070 69.306641 116.608398 69.752441 Z M 113.702637 71.997559 Q 113.702637 73.146973 114.067871 73.732422 Q 114.433105 74.317871 115.147461 74.317871 Q 115.861816 74.317871 116.235107 73.727051 Q 116.608398 73.136230 116.608398 71.997559 Q 116.608398 70.853516 116.235107 70.265381 Q 115.861816 69.677246 115.147461 69.677246 Q 114.433105 69.677246 114.067871 70.262695 Q 113.702637 70.848145 113.702637 71.997559 Z " fill="rgb(0, 0, 0)" fill-opacity="1.000000" />
<path d="M 149.878906 78.319336 L 149.878906 71.412109 L 153.729980 71.412109 L 153.729980 72.335938 L 150.738281 72.335938 L 150.738281 78.319336 Z " fill="rgb(0, 0, 0)" fill-opacity="1.000000" />
<path d="M 160.892578 72.335938 L 160.892578 71.412109 L 167.729980 71.412109 L 167.729980 72.335938 Z " fill="rgb(0, 0, 0)" fill-opacity="1.000000" />
<path d="M 174.892578 72.335938 L 174.892578 71.412109 L 181.729980 71.412109 L 181.729980 72.335938 Z " fill="rgb(0, 0, 0)" fill-opacity="1.000000" />
<path d="M 188.892578 72.335938 L 188.892578 71.412109 L 195.729980 71.412109 L 195.729980 72.335938 Z " fill="rgb(0, 0, 0)" fill-opacity="1.000000" />
<path d="M 202.892578 72.335938 L 202.892578 71.412109 L 209.729980 71.412109 L 209.729980 72.335938 Z " fill="rgb(0, 0, 0)" fill-opacity="1.000000" />
<path d="M 216.892578 72.335938 L 216.892578 71.412109 L 223.729980 71.412109 L 223.729980 72.335938 Z " fill="rgb(0, 0, 0)" fill-opacity="1.000000" />
<path d="M 230.892578 72.335938 L 230.892578 71.412109 L 237.729980 71.412109 L 237.729980 72.335938 Z " fill="rgb(0, 0, 0)" fill-opacity="1.000000" />
<path d="M 244.892578 72.335938 L 244.892578 71.412109 L 251.729980 71.412109 L 251.729980 72.335938 Z " fill="rgb(0, 0, 0)" fill-opacity="1.000000" />
<path d="M 268.449219 78.319336 L 268.449219 64.300781 L 270.167969 64.300781 L 270.167969 78.319336 Z " fill="rgb(0, 0, 0)" fill-opacity="1.000000" />
<path d="M 313.226074 69.193848 L 313.226074 70.160645 Q 312.801758 69.913574 312.372070 69.790039 Q 311.942383 69.666504 311.496582 69.666504 Q 310.825195 69.666504 310.494873 69.884033 Q 310.164551 70.101562 310.164551 70.547363 Q 310.164551 70.950195 310.411621 71.148926 Q 310.658691 71.347656 311.641602 71.535645 L 312.039062 71.610840 Q 312.774902 71.750488 313.153564 72.169434 Q 313.532227 72.588379 313.532227 73.259766 Q 313.532227 74.151367 312.898438 74.653564 Q 312.264648 75.155762 311.136719 75.155762 Q 310.690918 75.155762 310.202148 75.061768 Q 309.713379 74.967773 309.144043 74.779785 L 309.144043 73.759277 Q 309.697266 74.043945 310.202148 74.186279 Q 310.707031 74.328613 311.158203 74.328613 Q 311.813477 74.328613 312.173340 74.062744 Q 312.533203 73.796875 312.533203 73.318848 Q 312.533203 72.631348 311.217285 72.368164 L 311.174316 72.357422 L 310.803711 72.282227 Q 309.949707 72.115723 309.557617 71.720947 Q 309.165527 71.326172 309.165527 70.644043 Q 309.165527 69.779297 309.750977 69.309326 Q 310.336426 68.839355 311.421387 68.839355 Q 311.904785 68.839355 312.350586 68.927979 Q 312.796387 69.016602 313.226074 69.193848 Z " fill="rgb(0, 0, 0)" fill-opacity="1.000000" />
<path d="M 321.015625 71.498047 L 321.015625 71.981445 L 316.734863 71.981445 L 316.734863 72.013672 Q 316.691895 73.243652 317.204834 73.780762 Q 317.717773 74.317871 318.652344 74.317871 Q 319.125000 74.317871 319.640625 74.167480 Q 320.156250 74.017090 320.741699 73.710938 L 320.741699 74.693848 Q 320.177734 74.924805 319.654053 75.040283 Q 319.130371 75.155762 318.641602 75.155762 Q 317.239746 75.155762 316.450195 74.315186 Q 315.660645 73.474609 315.660645 71.997559 Q 315.660645 70.558105 316.434082 69.698730 Q 317.207520 68.839355 318.496582 68.839355 Q 319.645996 68.839355 320.309326 69.618164 Q 320.972656 70.396973 321.015625 71.498047 Z M 320.027344 71.208008 Q 319.962891 70.584961 319.573486 70.131104 Q 319.184082 69.677246 318.453613 69.677246 Q 317.739258 69.677246 317.277344 70.149902 Q 316.815430 70.622559 316.772461 71.213379 Z " fill="rgb(0, 0, 0)" fill-opacity="1.000000" />
<path d="M 327.645020 71.272461 L 327.645020 75.000000 L 326.651367 75.000000 L 326.651367 71.272461 Q 326.651367 70.461426 326.366699 70.080078 Q 326.082031 69.698730 325.475098 69.698730 Q 324.782227 69.698730 324.408936 70.190186 Q 324.035645 70.681641 324.035645 71.600098 L 324.035645 75.000000 L 323.047363 75.000000 L 323.047363 68.984375 L 324.035645 68.984375 L 324.035645 69.886719 Q 324.298828 69.371094 324.750000 69.105225 Q 325.201172 68.839355 325.818848 68.839355 Q 326.737305 68.839355 327.191162 69.443604 Q 327.645020 70.047852 327.645020 71.272461 Z " fill="rgb(0, 0, 0)" fill-opacity="1.000000" />
<path d="M 333.608398 69.752441 L 333.608398 66.642578 L 334.596680 66.642578 L 334.596680 75.000000 L 333.608398 75.000000 L 333.608398 74.242676 Q 333.361328 74.688477 332.950439 74.922119 Q 332.539551 75.155762 332.002441 75.155762 Q 330.912109 75.155762 330.286377 74.309814 Q 329.660645 73.463867 329.660645 71.976074 Q 329.660645 70.509766 330.289062 69.674561 Q 330.917480 68.839355 332.002441 68.839355 Q 332.544922 68.839355 332.958496 69.072998 Q 333.372070 69.306641 333.608398 69.752441 Z M 330.702637 71.997559 Q 330.702637 73.146973 331.067871 73.732422 Q 331.433105 74.317871 332.147461 74.317871 Q 332.861816 74.317871 333.235107 73.727051 Q 333.608398 73.136230 333.608398 71.997559 Q 333.608398 70.853516 333.235107 70.265381 Q 332.861816 69.677246 332.147461 69.677246 Q 331.433105 69.677246 331.067871 70.262695 Q 330.702637 70.848145 330.702637 71.997559 Z " fill="rgb(0, 0, 0)" fill-opacity="1.000000" />
<path d="M 342.015625 71.498047 L 342.015625 71.981445 L 337.734863 71.981445 L 337.734863 72.013672 Q 337.691895 73.243652 338.204834 73.780762 Q 338.717773 74.317871 339.652344 74.317871 Q 340.125000 74.317871 340.640625 74.167480 Q 341.156250 74.017090 341.741699 73.710938 L 341.741699 74.693848 Q 341.177734 74.924805 340.654053 75.040283 Q 340.130371 75.155762 339.641602 75.155762 Q 338.239746 75.155762 337.450195 74.315186 Q 336.660645 73.474609 336.660645 71.997559 Q 336.660645 70.558105 337.434082 69.698730 Q 338.207520 68.839355 339.496582 68.839355 Q 340.645996 68.839355 341.309326 69.618164 Q 341.972656 70.396973 342.015625 71.498047 Z M 341.027344 71.208008 Q 340.962891 70.584961 340.573486 70.131104 Q 340.184082 69.677246 339.453613 69.677246 Q 338.739258 69.677246 338.277344 70.149902 Q 337.815430 70.622559 337.772461 71.213379 Z " fill="rgb(0, 0, 0)" fill-opacity="1.000000" />
<path d="M 349.203613 70.225098 Q 348.886719 69.978027 348.559082 69.865234 Q 348.231445 69.752441 347.839355 69.752441 Q 346.915527 69.752441 346.426758 70.332520 Q 345.937988 70.912598 345.937988 72.008301 L 345.937988 75.000000 L 344.944336 75.000000 L 344.944336 68.984375 L 345.937988 68.984375 L 345.937988 70.160645 Q 346.185059 69.521484 346.697998 69.180420 Q 347.210938 68.839355 347.914551 68.839355 Q 348.279785 68.839355 348.596680 68.930664 Q 348.913574 69.021973 349.203613 69.215332 Z " fill="rgb(0, 0, 0)" fill-opacity="1.000000" />
<path d="M 352.089355 72.830078 L 353.979980 72.830078 L 353.979980 75.000000 L 352.089355 75.000000 Z " fill="rgb(0, 0, 0)" fill-opacity="1.000000" />
<path d="M 360.297852 67.276367 L 360.297852 68.984375 L 362.542969 68.984375 L 362.542969 69.752441 L 360.297852 69.752441 L 360.297852 73.018066 Q 360.297852 73.684082 360.550293 73.947266 Q 360.802734 74.210449 361.431152 74.210449 L 362.542969 74.210449 L 362.542969 75.000000 L 361.334473 75.000000 Q 360.222656 75.000000 359.766113 74.554199 Q 359.309570 74.108398 359.309570 73.018066 L 359.309570 69.752441 L 357.703613 69.752441 L 357.703613 68.984375 L 359.309570 68.984375 L 359.309570 67.276367 Z " fill="rgb(0, 0, 0)" fill-opacity="1.000000" />
<path d="M 367.770508 71.976074 L 367.442871 71.976074 Q 366.578125 71.976074 366.140381 72.279541 Q 365.702637 72.583008 365.702637 73.184570 Q 365.702637 73.727051 366.030273 74.027832 Q 366.357910 74.328613 366.937988 74.328613 Q 367.754395 74.328613 368.221680 73.761963 Q 368.688965 73.195312 368.694336 72.196289 L 368.694336 71.976074 Z M 369.687988 71.567871 L 369.687988 75.000000 L 368.694336 75.000000 L 368.694336 74.108398 Q 368.377441 74.645508 367.896729 74.900635 Q 367.416016 75.155762 366.728516 75.155762 Q 365.810059 75.155762 365.262207 74.637451 Q 364.714355 74.119141 364.714355 73.249023 Q 364.714355 72.244629 365.388428 71.723633 Q 366.062500 71.202637 367.367676 71.202637 L 368.694336 71.202637 L 368.694336 71.046875 Q 368.688965 70.327148 368.329102 70.002197 Q 367.969238 69.677246 367.179688 69.677246 Q 366.674805 69.677246 366.159180 69.822266 Q 365.643555 69.967285 365.154785 70.246582 L 365.154785 69.258301 Q 365.702637 69.048828 366.204834 68.944092 Q 366.707031 68.839355 367.179688 68.839355 Q 367.926270 68.839355 368.455322 69.059570 Q 368.984375 69.279785 369.312012 69.720215 Q 369.516113 69.988770 369.602051 70.383545 Q 369.687988 70.778320 369.687988 71.567871 Z " fill="rgb(0, 0, 0)" fill-opacity="1.000000" />
<path d="M 372.267578 66.642578 L 373.288086 66.642578 L 373.288086 71.481934 L 375.882324 68.984375 L 377.085449 68.984375 L 374.716797 71.250977 L 377.456055 75.000000 L 376.247559 75.000000 L 374.023926 71.895508 L 373.288086 72.588379 L 373.288086 75.000000 L 372.267578 75.000000 Z " fill="rgb(0, 0, 0)" fill-opacity="1.000000" />
<path d="M 384.015625 71.498047 L 384.015625 71.981445 L 379.734863 71.981445 L 379.734863 72.013672 Q 379.691895 73.243652 380.204834 73.780762 Q 380.717773 74.317871 381.652344 74.317871 Q 382.125000 74.317871 382.640625 74.167480 Q 383.156250 74.017090 383.741699 73.710938 L 383.741699 74.693848 Q 383.177734 74.924805 382.654053 75.040283 Q 382.130371 75.155762 381.641602 75.155762 Q 380.239746 75.155762 379.450195 74.315186 Q 378.660645 73.474609 378.660645 71.997559 Q 378.660645 70.558105 379.434082 69.698730 Q 380.207520 68.839355 381.496582 68.839355 Q 382.645996 68.839355 383.309326 69.618164 Q 383.972656 70.396973 384.015625 71.498047 Z M 383.027344 71.208008 Q 382.962891 70.584961 382.573486 70.131104 Q 382.184082 69.677246 381.453613 69.677246 Q 380.739258 69.677246 380.277344 70.149902 Q 379.815430 70.622559 379.772461 71.213379 Z " fill="rgb(0, 0, 0)" fill-opacity="1.000000" />
<path d="M 157.308594 43.677246 Q 156.556641 43.677246 156.169922 44.262695 Q 155.783203 44.848145 155.783203 45.997559 Q 155.783203 47.141602 156.169922 47.729736 Q 156.556641 48.317871 157.308594 48.317871 Q 158.065918 48.317871 158.452637 47.729736 Q 158.839355 47.141602 158.839355 45.997559 Q 158.839355 44.848145 158.452637 44.262695 Q 158.065918 43.677246 157.308594 43.677246 Z M 157.308594 42.839355 Q 158.560059 42.839355 159.223389 43.650391 Q 159.886719 44.461426 159.886719 45.997559 Q 159.886719 47.539062 159.226074 48.347412 Q 158.565430 49.155762 157.308594 49.155762 Q 156.057129 49.155762 155.396484 48.347412 Q 154.735840 47.539062 154.735840 45.997559 Q 154.735840 44.461426 155.396484 43.650391 Q 156.057129 42.839355 157.308594 42.839355 Z " fill="rgb(0, 0, 0)" fill-opacity="1.000000" />
<path d="M 172.592285 53.116211 Q 171.877930 54.340820 171.526123 55.557373 Q 171.174316 56.773926 171.174316 58.009277 Q 171.174316 59.239258 171.526123 60.458496 Q 171.877930 61.677734 172.592285 62.913086 L 171.732910 62.913086 Q 170.921875 61.634766 170.524414 60.423584 Q 170.126953 59.212402 170.126953 58.009277 Q 170.126953 56.811523 170.524414 55.597656 Q 170.921875 54.383789 171.732910 53.116211 Z " fill="rgb(0, 0, 0)" fill-opacity="1.000000" />
<path d="M 179.930664 58.997559 Q 179.930664 57.848145 179.565430 57.262695 Q 179.200195 56.677246 178.485840 56.677246 Q 177.766113 56.677246 177.395508 57.265381 Q 177.024902 57.853516 177.024902 58.997559 Q 177.024902 60.136230 177.395508 60.727051 Q 177.766113 61.317871 178.485840 61.317871 Q 179.200195 61.317871 179.565430 60.732422 Q 179.930664 60.146973 179.930664 58.997559 Z M 177.024902 56.752441 Q 177.261230 56.312012 177.677490 56.075684 Q 178.093750 55.839355 178.641602 55.839355 Q 179.726562 55.839355 180.349609 56.674561 Q 180.972656 57.509766 180.972656 58.976074 Q 180.972656 60.463867 180.346924 61.309814 Q 179.721191 62.155762 178.630859 62.155762 Q 178.093750 62.155762 177.682861 61.922119 Q 177.271973 61.688477 177.024902 61.242676 L 177.024902 62.000000 L 176.036621 62.000000 L 176.036621 53.642578 L 177.024902 53.642578 Z " fill="rgb(0, 0, 0)" fill-opacity="1.000000" />
<path d="M 185.861816 59.824707 Q 185.861816 60.490723 186.106201 60.829102 Q 186.350586 61.167480 186.828613 61.167480 L 187.983398 61.167480 L 187.983398 62.000000 L 186.731934 62.000000 Q 185.845703 62.000000 185.359619 61.433350 Q 184.873535 60.866699 184.873535 59.824707 L 184.873535 54.383789 L 183.289062 54.383789 L 183.289062 53.610352 L 185.861816 53.610352 Z " fill="rgb(0, 0, 0)" fill-opacity="1.000000" />
<path d="M 192.308594 56.677246 Q 191.556641 56.677246 191.169922 57.262695 Q 190.783203 57.848145 190.783203 58.997559 Q 190.783203 60.141602 191.169922 60.729736 Q 191.556641 61.317871 192.308594 61.317871 Q 193.065918 61.317871 193.452637 60.729736 Q 193.839355 60.141602 193.839355 58.997559 Q 193.839355 57.848145 193.452637 57.262695 Q 193.065918 56.677246 192.308594 56.677246 Z M 192.308594 55.839355 Q 193.560059 55.839355 194.223389 56.650391 Q 194.886719 57.461426 194.886719 58.997559 Q 194.886719 60.539062 194.226074 61.347412 Q 193.565430 62.155762 192.308594 62.155762 Q 191.057129 62.155762 190.396484 61.347412 Q 189.735840 60.539062 189.735840 58.997559 Q 189.735840 57.461426 190.396484 56.650391 Q 191.057129 55.839355 192.308594 55.839355 Z " fill="rgb(0, 0, 0)" fill-opacity="1.000000" />
<path d="M 201.698730 61.693848 Q 201.301270 61.924805 200.879639 62.040283 Q 200.458008 62.155762 200.017578 62.155762 Q 198.621094 62.155762 197.834229 61.317871 Q 197.047363 60.479980 197.047363 58.997559 Q 197.047363 57.515137 197.834229 56.677246 Q 198.621094 55.839355 200.017578 55.839355 Q 200.452637 55.839355 200.866211 55.952148 Q 201.279785 56.064941 201.698730 56.301270 L 201.698730 57.337891 Q 201.306641 56.988770 200.911865 56.833008 Q 200.517090 56.677246 200.017578 56.677246 Q 199.088379 56.677246 198.588867 57.278809 Q 198.089355 57.880371 198.089355 58.997559 Q 198.089355 60.109375 198.591553 60.713623 Q 199.093750 61.317871 200.017578 61.317871 Q 200.533203 61.317871 200.941406 61.159424 Q 201.349609 61.000977 201.698730 60.667969 Z " fill="rgb(0, 0, 0)" fill-opacity="1.000000" />
<path d="M 204.267578 53.642578 L 205.288086 53.642578 L 205.288086 58.481934 L 207.882324 55.984375 L 209.085449 55.984375 L 206.716797 58.250977 L 209.456055 62.000000 L 208.247559 62.000000 L 206.023926 58.895508 L 205.288086 59.588379 L 205.288086 62.000000 L 204.267578 62.000000 Z " fill="rgb(0, 0, 0)" fill-opacity="1.000000" />
<path d="M 211.697266 56.005859 L 214.227051 56.005859 L 214.227051 61.231934 L 216.187500 61.231934 L 216.187500 62.000000 L 211.278320 62.000000 L 211.278320 61.231934 L 213.238770 61.231934 L 213.238770 56.773926 L 211.697266 56.773926 Z M 213.238770 53.669434 L 214.227051 53.669434 L 214.227051 54.915527 L 213.238770 54.915527 Z " fill="rgb(0, 0, 0)" fill-opacity="1.000000" />
<path d="M 222.645020 58.272461 L 222.645020 62.000000 L 221.651367 62.000000 L 221.651367 58.272461 Q 221.651367 57.461426 221.366699 57.080078 Q 221.082031 56.698730 220.475098 56.698730 Q 219.782227 56.698730 219.408936 57.190186 Q 219.035645 57.681641 219.035645 58.600098 L 219.035645 62.000000 L 218.047363 62.000000 L 218.047363 55.984375 L 219.035645 55.984375 L 219.035645 56.886719 Q 219.298828 56.371094 219.750000 56.105225 Q 220.201172 55.839355 220.818848 55.839355 Q 221.737305 55.839355 222.191162 56.443604 Q 222.645020 57.047852 222.645020 58.272461 Z " fill="rgb(0, 0, 0)" fill-opacity="1.000000" />
<path d="M 228.608398 58.943848 Q 228.608398 57.832031 228.245850 57.254639 Q 227.883301 56.677246 227.190430 56.677246 Q 226.465332 56.677246 226.083984 57.254639 Q 225.702637 57.832031 225.702637 58.943848 Q 225.702637 60.055664 226.086670 60.638428 Q 226.470703 61.221191 227.201172 61.221191 Q 227.883301 61.221191 228.245850 60.635742 Q 228.608398 60.050293 228.608398 58.943848 Z M 229.596680 61.613281 Q 229.596680 62.966797 228.957520 63.665039 Q 228.318359 64.363281 227.077637 64.363281 Q 226.669434 64.363281 226.223633 64.288086 Q 225.777832 64.212891 225.332031 64.067871 L 225.332031 63.090332 Q 225.858398 63.337402 226.288086 63.455566 Q 226.717773 63.573730 227.077637 63.573730 Q 227.877930 63.573730 228.243164 63.138672 Q 228.608398 62.703613 228.608398 61.758301 L 228.608398 61.715332 L 228.608398 61.043945 Q 228.372070 61.548828 227.963867 61.795898 Q 227.555664 62.042969 226.970215 62.042969 Q 225.917480 62.042969 225.289062 61.199707 Q 224.660645 60.356445 224.660645 58.943848 Q 224.660645 57.525879 225.289062 56.682617 Q 225.917480 55.839355 226.970215 55.839355 Q 227.550293 55.839355 227.953125 56.070312 Q 228.355957 56.301270 228.608398 56.784668 L 228.608398 56.005859 L 229.596680 56.005859 Z " fill="rgb(0, 0, 0)" fill-opacity="1.000000" />
<path d="M 232.869141 53.116211 L 233.728516 53.116211 Q 234.539551 54.383789 234.937012 55.597656 Q 235.334473 56.811523 235.334473 58.009277 Q 235.334473 59.217773 234.937012 60.431641 Q 234.539551 61.645508 233.728516 62.913086 L 232.869141 62.913086 Q 233.583496 61.666992 233.935303 60.447754 Q 234.287109 59.228516 234.287109 58.009277 Q 234.287109 56.784668 233.935303 55.565430 Q 233.583496 54.346191 232.869141 53.116211 Z " fill="rgb(0, 0, 0)" fill-opacity="1.000000" />
<path d="M 268.449219 65.319336 L 268.449219 51.300781 L 270.167969 51.300781 L 270.167969 65.319336 Z " fill="rgb(0, 0, 0)" fill-opacity="1.000000" />
<path d="M 162.047363 46.722656 L 162.047363 42.995117 L 163.035645 42.995117 L 163.035645 46.722656 Q 163.035645 47.533691 163.322998 47.915039 Q 163.610352 48.296387 164.211914 48.296387 Q 164.910156 48.296387 165.280762 47.804932 Q 165.651367 47.313477 165.651367 46.395020 L 165.651367 42.995117 L 166.645020 42.995117 L 166.645020 49.000000 L 165.651367 49.000000 L 165.651367 48.097656 Q 165.388184 48.618652 164.934326 48.887207 Q 164.480469 49.155762 163.873535 49.155762 Q 162.949707 49.155762 162.498535 48.551514 Q 162.047363 47.947266 162.047363 46.722656 Z " fill="rgb(0, 0, 0)" fill-opacity="1.000000" />
<path d="M 171.297852 41.276367 L 171.297852 42.984375 L 173.542969 42.984375 L 173.542969 43.752441 L 171.297852 43.752441 L 171.297852 47.018066 Q 171.297852 47.684082 171.550293 47.947266 Q 171.802734 48.210449 172.431152 48.210449 L 173.542969 48.210449 L 173.542969 49.000000 L 172.334473 49.000000 Q 171.222656 49.000000 170.766113 48.554199 Q 170.309570 48.108398 170.309570 47.018066 L 170.309570 43.752441 L 168.703613 43.752441 L 168.703613 42.984375 L 170.309570 42.984375 L 170.309570 41.276367 Z " fill="rgb(0, 0, 0)" fill-opacity="1.000000" />
<path d="M 179.608398 45.943848 Q 179.608398 44.832031 179.245850 44.254639 Q 178.883301 43.677246 178.190430 43.677246 Q 177.465332 43.677246 177.083984 44.254639 Q 176.702637 44.832031 176.702637 45.943848 Q 176.702637 47.055664 177.086670 47.638428 Q 177.470703 48.221191 178.201172 48.221191 Q 178.883301 48.221191 179.245850 47.635742 Q 179.608398 47.050293 179.608398 45.943848 Z M 180.596680 48.613281 Q 180.596680 49.966797 179.957520 50.665039 Q 179.318359 51.363281 178.077637 51.363281 Q 177.669434 51.363281 177.223633 51.288086 Q 176.777832 51.212891 176.332031 51.067871 L 176.332031 50.090332 Q 176.858398 50.337402 177.288086 50.455566 Q 177.717773 50.573730 178.077637 50.573730 Q 178.877930 50.573730 179.243164 50.138672 Q 179.608398 49.703613 179.608398 48.758301 L 179.608398 48.715332 L 179.608398 48.043945 Q 179.372070 48.548828 178.963867 48.795898 Q 178.555664 49.042969 177.970215 49.042969 Q 176.917480 49.042969 176.289062 48.199707 Q 175.660645 47.356445 175.660645 45.943848 Q 175.660645 44.525879 176.289062 43.682617 Q 176.917480 42.839355 177.970215 42.839355 Q 178.550293 42.839355 178.953125 43.070312 Q 179.355957 43.301270 179.608398 43.784668 L 179.608398 43.005859 L 180.596680 43.005859 Z " fill="rgb(0, 0, 0)" fill-opacity="1.000000" />
<path d="M 185.308594 43.677246 Q 184.556641 43.677246 184.169922 44.262695 Q 183.783203 44.848145 183.783203 45.997559 Q 183.783203 47.141602 184.169922 47.729736 Q 184.556641 48.317871 185.308594 48.317871 Q 186.065918 48.317871 186.452637 47.729736 Q 186.839355 47.141602 186.839355 45.997559 Q 186.839355 44.848145 186.452637 44.262695 Q 186.065918 43.677246 185.308594 43.677246 Z M 185.308594 42.839355 Q 186.560059 42.839355 187.223389 43.650391 Q 187.886719 44.461426 187.886719 45.997559 Q 187.886719 47.539062 187.226074 48.347412 Q 186.565430 49.155762 185.308594 49.155762 Q 184.057129 49.155762 183.396484 48.347412 Q 182.735840 47.539062 182.735840 45.997559 Q 182.735840 44.461426 183.396484 43.650391 Q 184.057129 42.839355 185.308594 42.839355 Z " fill="rgb(0, 0, 0)" fill-opacity="1.000000" />
<path d="M 190.697266 43.005859 L 193.227051 43.005859 L 193.227051 48.231934 L 195.187500 48.231934 L 195.187500 49.000000 L 190.278320 49.000000 L 190.278320 48.231934 L 192.238770 48.231934 L 192.238770 43.773926 L 190.697266 43.773926 Z M 192.238770 40.669434 L 193.227051 40.669434 L 193.227051 41.915527 L 192.238770 41.915527 Z " fill="rgb(0, 0, 0)" fill-opacity="1.000000" />
<path d="M 201.645020 45.272461 L 201.645020 49.000000 L 200.651367 49.000000 L 200.651367 45.272461 Q 200.651367 44.461426 200.366699 44.080078 Q 200.082031 43.698730 199.475098 43.698730 Q 198.782227 43.698730 198.408936 44.190186 Q 198.035645 44.681641 198.035645 45.600098 L 198.035645 49.000000 L 197.047363 49.000000 L 197.047363 42.984375 L 198.035645 42.984375 L 198.035645 43.886719 Q 198.298828 43.371094 198.750000 43.105225 Q 199.201172 42.839355 199.818848 42.839355 Q 200.737305 42.839355 201.191162 43.443604 Q 201.645020 44.047852 201.645020 45.272461 Z " fill="rgb(0, 0, 0)" fill-opacity="1.000000" />
<path d="M 207.608398 45.943848 Q 207.608398 44.832031 207.245850 44.254639 Q 206.883301 43.677246 206.190430 43.677246 Q 205.465332 43.677246 205.083984 44.254639 Q 204.702637 44.832031 204.702637 45.943848 Q 204.702637 47.055664 205.086670 47.638428 Q 205.470703 48.221191 206.201172 48.221191 Q 206.883301 48.221191 207.245850 47.635742 Q 207.608398 47.050293 207.608398 45.943848 Z M 208.596680 48.613281 Q 208.596680 49.966797 207.957520 50.665039 Q 207.318359 51.363281 206.077637 51.363281 Q 205.669434 51.363281 205.223633 51.288086 Q 204.777832 51.212891 204.332031 51.067871 L 204.332031 50.090332 Q 204.858398 50.337402 205.288086 50.455566 Q 205.717773 50.573730 206.077637 50.573730 Q 206.877930 50.573730 207.243164 50.138672 Q 207.608398 49.703613 207.608398 48.758301 L 207.608398 48.715332 L 207.608398 48.043945 Q 207.372070 48.548828 206.963867 48.795898 Q 206.555664 49.042969 205.970215 49.042969 Q 204.917480 49.042969 204.289062 48.199707 Q 203.660645 47.356445 203.660645 45.943848 Q 203.660645 44.525879 204.289062 43.682617 Q 204.917480 42.839355 205.970215 42.839355 Q 206.550293 42.839355 206.953125 43.070312 Q 207.355957 43.301270 207.608398 43.784668 L 207.608398 43.005859 L 208.596680 43.005859 Z " fill="rgb(0, 0, 0)" fill-opacity="1.000000" />
<path d="M 219.014160 48.242676 L 219.014160 51.288086 L 218.020508 51.288086 L 218.020508 42.984375 L 219.014160 42.984375 L 219.014160 43.752441 Q 219.261230 43.306641 219.672119 43.072998 Q 220.083008 42.839355 220.620117 42.839355 Q 221.710449 42.839355 222.330811 43.682617 Q 222.951172 44.525879 222.951172 46.019043 Q 222.951172 47.485352 222.328125 48.320557 Q 221.705078 49.155762 220.620117 49.155762 Q 220.072266 49.155762 219.661377 48.922119 Q 219.250488 48.688477 219.014160 48.242676 Z M 221.914551 45.997559 Q 221.914551 44.848145 221.552002 44.262695 Q 221.189453 43.677246 220.475098 43.677246 Q 219.755371 43.677246 219.384766 44.265381 Q 219.014160 44.853516 219.014160 45.997559 Q 219.014160 47.136230 219.384766 47.727051 Q 219.755371 48.317871 220.475098 48.317871 Q 221.189453 48.317871 221.552002 47.732422 Q 221.914551 47.146973 221.914551 45.997559 Z " fill="rgb(0, 0, 0)" fill-opacity="1.000000" />
<path d="M 227.308594 43.677246 Q 226.556641 43.677246 226.169922 44.262695 Q 225.783203 44.848145 225.783203 45.997559 Q 225.783203 47.141602 226.169922 47.729736 Q 226.556641 48.317871 227.308594 48.317871 Q 228.065918 48.317871 228.452637 47.729736 Q 228.839355 47.141602 228.839355 45.997559 Q 228.839355 44.848145 228.452637 44.262695 Q 228.065918 43.677246 227.308594 43.677246 Z M 227.308594 42.839355 Q 228.560059 42.839355 229.223389 43.650391 Q 229.886719 44.461426 229.886719 45.997559 Q 229.886719 47.539062 229.226074 48.347412 Q 228.565430 49.155762 227.308594 49.155762 Q 226.057129 49.155762 225.396484 48.347412 Q 224.735840 47.539062 224.735840 45.997559 Q 224.735840 44.461426 225.396484 43.650391 Q 226.057129 42.839355 227.308594 42.839355 Z " fill="rgb(0, 0, 0)" fill-opacity="1.000000" />
<path d="M 237.203613 44.225098 Q 236.886719 43.978027 236.559082 43.865234 Q 236.231445 43.752441 235.839355 43.752441 Q 234.915527 43.752441 234.426758 44.332520 Q 233.937988 44.912598 233.937988 46.008301 L 233.937988 49.000000 L 232.944336 49.000000 L 232.944336 42.984375 L 233.937988 42.984375 L 233.937988 44.160645 Q 234.185059 43.521484 234.697998 43.180420 Q 235.210938 42.839355 235.914551 42.839355 Q 236.279785 42.839355 236.596680 42.930664 Q 236.913574 43.021973 237.203613 43.215332 Z " fill="rgb(0, 0, 0)" fill-opacity="1.000000" />
<path d="M 241.297852 41.276367 L 241.297852 42.984375 L 243.542969 42.984375 L 243.542969 43.752441 L 241.297852 43.752441 L 241.297852 47.018066 Q 241.297852 47.684082 241.550293 47.947266 Q 241.802734 48.210449 242.431152 48.210449 L 243.542969 48.210449 L 243.542969 49.000000 L 242.334473 49.000000 Q 241.222656 49.000000 240.766113 48.554199 Q 240.309570 48.108398 240.309570 47.018066 L 240.309570 43.752441 L 238.703613 43.752441 L 238.703613 42.984375 L 240.309570 42.984375 L 240.309570 41.276367 Z " fill="rgb(0, 0, 0)" fill-opacity="1.000000" />
<path d="M 268.449219 52.319336 L 268.449219 38.300781 L 270.167969 38.300781 L 270.167969 52.319336 Z " fill="rgb(0, 0, 0)" fill-opacity="1.000000" />
<path d="M 6.892578 33.797852 L 6.892578 31.950195 L 13.729980 31.950195 L 13.729980 33.797852 Z " fill="rgb(0, 0, 0)" fill-opacity="1.000000" />
<path d="M 13.892578 33.797852 L 13.892578 31.950195 L 20.729980 31.950195 L 20.729980 33.797852 Z " fill="rgb(0, 0, 0)" fill-opacity="1.000000" />
<path d="M 20.892578 33.797852 L 20.892578 31.950195 L 27.729980 31.950195 L 27.729980 33.797852 Z " fill="rgb(0, 0, 0)" fill-opacity="1.000000" />
<path d="M 27.892578 33.797852 L 27.892578 31.950195 L 34.729980 31.950195 L 34.729980 33.797852 Z " fill="rgb(0, 0, 0)" fill-opacity="1.000000" />
<path d="M 34.892578 33.797852 L 34.892578 31.950195 L 41.729980 31.950195 L 41.729980 33.797852 Z " fill="rgb(0, 0, 0)" fill-opacity="1.000000" />
<path d="M 41.892578 33.797852 L 41.892578 31.950195 L 48.729980 31.950195 L 48.729980 33.797852 Z " fill="rgb(0, 0, 0)" fill-opacity="1.000000" />
<path d="M 48.892578 33.797852 L 48.892578 31.950195 L 55.729980 31.950195 L 55.729980 33.797852 Z " fill="rgb(0, 0, 0)" fill-opacity="1.000000" />
<path d="M 55.892578 33.797852 L 55.892578 31.950195 L 62.729980 31.950195 L 62.729980 33.797852 Z " fill="rgb(0, 0, 0)" fill-opacity="1.000000" />
<path d="M 62.892578 33.797852 L 62.892578 31.950195 L 69.729980 31.950195 L 69.729980 33.797852 Z " fill="rgb(0, 0, 0)" fill-opacity="1.000000" />
<path d="M 69.892578 33.797852 L 69.892578 31.950195 L 76.729980 31.950195 L 76.729980 33.797852 Z " fill="rgb(0, 0, 0)" fill-opacity="1.000000" />
<path d="M 76.892578 33.797852 L 76.892578 31.950195 L 83.729980 31.950195 L 83.729980 33.797852 Z " fill="rgb(0, 0, 0)" fill-opacity="1.000000" />
<path d="M 83.892578 33.797852 L 83.892578 31.950195 L 90.729980 31.950195 L 90.729980 33.797852 Z " fill="rgb(0, 0, 0)" fill-opacity="1.000000" />
<path d="M 90.892578 33.797852 L 90.892578 31.950195 L 97.729980 31.950195 L 97.729980 33.797852 Z " fill="rgb(0, 0, 0)" fill-opacity="1.000000" />
<path d="M 97.892578 33.797852 L 97.892578 31.950195 L 104.729980 31.950195 L 104.729980 33.797852 Z " fill="rgb(0, 0, 0)" fill-opacity="1.000000" />
<path d="M 104.892578 33.797852 L 104.892578 31.950195 L 111.729980 31.950195 L 111.729980 33.797852 Z " fill="rgb(0, 0, 0)" fill-opacity="1.000000" />
<path d="M 111.892578 33.797852 L 111.892578 31.950195 L 118.729980 31.950195 L 118.729980 33.797852 Z " fill="rgb(0, 0, 0)" fill-opacity="1.000000" />
<path d="M 118.892578 33.797852 L 118.892578 31.950195 L 125.729980 31.950195 L 125.729980 33.797852 Z " fill="rgb(0, 0, 0)" fill-opacity="1.000000" />
<path d="M 125.892578 33.797852 L 125.892578 31.950195 L 132.729980 31.950195 L 132.729980 33.797852 Z " fill="rgb(0, 0, 0)" fill-opacity="1.000000" />
<path d="M 132.892578 33.797852 L 132.892578 31.950195 L 139.729980 31.950195 L 139.729980 33.797852 Z " fill="rgb(0, 0, 0)" fill-opacity="1.000000" />
<path d="M 139.892578 33.797852 L 139.892578 31.950195 L 146.729980 31.950195 L 146.729980 33.797852 Z " fill="rgb(0, 0, 0)" fill-opacity="1.000000" />
<path d="M 146.892578 33.797852 L 146.892578 31.950195 L 153.729980 31.950195 L 153.729980 33.797852 Z " fill="rgb(0, 0, 0)" fill-opacity="1.000000" />
<path d="M 153.892578 33.797852 L 153.892578 31.950195 L 160.729980 31.950195 L 160.729980 33.797852 Z " fill="rgb(0, 0, 0)" fill-opacity="1.000000" />
<path d="M 160.892578 33.797852 L 160.892578 31.950195 L 167.729980 31.950195 L 167.729980 33.797852 Z " fill="rgb(0, 0, 0)" fill-opacity="1.000000" />
<path d="M 167.892578 33.797852 L 167.892578 31.950195 L 174.729980 31.950195 L 174.729980 33.797852 Z " fill="rgb(0, 0, 0)" fill-opacity="1.000000" />
<path d="M 174.892578 33.797852 L 174.892578 31.950195 L 181.729980 31.950195 L 181.729980 33.797852 Z " fill="rgb(0, 0, 0)" fill-opacity="1.000000" />
<path d="M 181.892578 33.797852 L 181.892578 31.950195 L 188.729980 31.950195 L 188.729980 33.797852 Z " fill="rgb(0, 0, 0)" fill-opacity="1.000000" />
<path d="M 188.892578 33.797852 L 188.892578 31.950195 L 195.729980 31.950195 L 195.729980 33.797852 Z " fill="rgb(0, 0, 0)" fill-opacity="1.000000" />
<path d="M 195.892578 33.797852 L 195.892578 31.950195 L 202.729980 31.950195 L 202.729980 33.797852 Z " fill="rgb(0, 0, 0)" fill-opacity="1.000000" />
<path d="M 202.892578 33.797852 L 202.892578 31.950195 L 209.729980 31.950195 L 209.729980 33.797852 Z " fill="rgb(0, 0, 0)" fill-opacity="1.000000" />
<path d="M 209.892578 33.797852 L 209.892578 31.950195 L 216.729980 31.950195 L 216.729980 33.797852 Z " fill="rgb(0, 0, 0)" fill-opacity="1.000000" />
<path d="M 216.892578 33.797852 L 216.892578 31.950195 L 223.729980 31.950195 L 223.729980 33.797852 Z " fill="rgb(0, 0, 0)" fill-opacity="1.000000" />
<path d="M 223.892578 33.797852 L 223.892578 31.950195 L 230.729980 31.950195 L 230.729980 33.797852 Z " fill="rgb(0, 0, 0)" fill-opacity="1.000000" />
<path d="M 230.892578 33.797852 L 230.892578 31.950195 L 237.729980 31.950195 L 237.729980 33.797852 Z " fill="rgb(0, 0, 0)" fill-opacity="1.000000" />
<path d="M 237.892578 33.797852 L 237.892578 31.950195 L 244.729980 31.950195 L 244.729980 33.797852 Z " fill="rgb(0, 0, 0)" fill-opacity="1.000000" />
<path d="M 244.892578 33.797852 L 244.892578 31.950195 L 251.729980 31.950195 L 251.729980 33.797852 Z " fill="rgb(0, 0, 0)" fill-opacity="1.000000" />
<path d="M 251.892578 33.797852 L 251.892578 31.950195 L 258.729980 31.950195 L 258.729980 33.797852 Z " fill="rgb(0, 0, 0)" fill-opacity="1.000000" />
<path d="M 258.892578 33.797852 L 258.892578 31.950195 L 265.729980 31.950195 L 265.729980 33.797852 Z " fill="rgb(0, 0, 0)" fill-opacity="1.000000" />
<path d="M 268.449219 39.319336 L 268.449219 33.797852 L 265.892578 33.797852 L 265.892578 31.950195 L 270.167969 31.950195 L 270.167969 39.319336 Z " fill="rgb(0, 0, 0)" fill-opacity="1.000000" />
<path d="M 109.592285 14.116211 Q 108.877930 15.340820 108.526123 16.557373 Q 108.174316 17.773926 108.174316 19.009277 Q 108.174316 20.239258 108.526123 21.458496 Q 108.877930 22.677734 109.592285 23.913086 L 108.732910 23.913086 Q 107.921875 22.634766 107.524414 21.423584 Q 107.126953 20.212402 107.126953 19.009277 Q 107.126953 17.811523 107.524414 16.597656 Q 107.921875 15.383789 108.732910 14.116211 Z " fill="rgb(0, 0, 0)" fill-opacity="1.000000" />
<path d="M 116.082031 19.213379 Q 116.500977 19.320801 116.796387 19.618896 Q 117.091797 19.916992 117.532227 20.808594 L 118.622559 23.000000 L 117.457031 23.000000 L 116.500977 20.975098 Q 116.087402 20.110352 115.757080 19.860596 Q 115.426758 19.610840 114.895020 19.610840 L 113.858398 19.610840 L 113.858398 23.000000 L 112.768066 23.000000 L 112.768066 14.980957 L 115.002441 14.980957 Q 116.323730 14.980957 117.027344 15.577148 Q 117.730957 16.173340 117.730957 17.301270 Q 117.730957 18.096191 117.298584 18.598389 Q 116.866211 19.100586 116.082031 19.213379 Z M 113.858398 15.872559 L 113.858398 18.719238 L 115.045410 18.719238 Q 115.824219 18.719238 116.205566 18.370117 Q 116.586914 18.020996 116.586914 17.301270 Q 116.586914 16.608398 116.181396 16.240479 Q 115.775879 15.872559 115.002441 15.872559 Z " fill="rgb(0, 0, 0)" fill-opacity="1.000000" />
<path d="M 122.770508 19.976074 L 122.442871 19.976074 Q 121.578125 19.976074 121.140381 20.279541 Q 120.702637 20.583008 120.702637 21.184570 Q 120.702637 21.727051 121.030273 22.027832 Q 121.357910 22.328613 121.937988 22.328613 Q 122.754395 22.328613 123.221680 21.761963 Q 123.688965 21.195312 123.694336 20.196289 L 123.694336 19.976074 Z M 124.687988 19.567871 L 124.687988 23.000000 L 123.694336 23.000000 L 123.694336 22.108398 Q 123.377441 22.645508 122.896729 22.900635 Q 122.416016 23.155762 121.728516 23.155762 Q 120.810059 23.155762 120.262207 22.637451 Q 119.714355 22.119141 119.714355 21.249023 Q 119.714355 20.244629 120.388428 19.723633 Q 121.062500 19.202637 122.367676 19.202637 L 123.694336 19.202637 L 123.694336 19.046875 Q 123.688965 18.327148 123.329102 18.002197 Q 122.969238 17.677246 122.179688 17.677246 Q 121.674805 17.677246 121.159180 17.822266 Q 120.643555 17.967285 120.154785 18.246582 L 120.154785 17.258301 Q 120.702637 17.048828 121.204834 16.944092 Q 121.707031 16.839355 122.179688 16.839355 Q 122.926270 16.839355 123.455322 17.059570 Q 123.984375 17.279785 124.312012 17.720215 Q 124.516113 17.988770 124.602051 18.383545 Q 124.687988 18.778320 124.687988 19.567871 Z " fill="rgb(0, 0, 0)" fill-opacity="1.000000" />
<path d="M 131.698730 22.693848 Q 131.301270 22.924805 130.879639 23.040283 Q 130.458008 23.155762 130.017578 23.155762 Q 128.621094 23.155762 127.834229 22.317871 Q 127.047363 21.479980 127.047363 19.997559 Q 127.047363 18.515137 127.834229 17.677246 Q 128.621094 16.839355 130.017578 16.839355 Q 130.452637 16.839355 130.866211 16.952148 Q 131.279785 17.064941 131.698730 17.301270 L 131.698730 18.337891 Q 131.306641 17.988770 130.911865 17.833008 Q 130.517090 17.677246 130.017578 17.677246 Q 129.088379 17.677246 128.588867 18.278809 Q 128.089355 18.880371 128.089355 19.997559 Q 128.089355 21.109375 128.591553 21.713623 Q 129.093750 22.317871 130.017578 22.317871 Q 130.533203 22.317871 130.941406 22.159424 Q 131.349609 22.000977 131.698730 21.667969 Z " fill="rgb(0, 0, 0)" fill-opacity="1.000000" />
<path d="M 136.297852 15.276367 L 136.297852 16.984375 L 138.542969 16.984375 L 138.542969 17.752441 L 136.297852 17.752441 L 136.297852 21.018066 Q 136.297852 21.684082 136.550293 21.947266 Q 136.802734 22.210449 137.431152 22.210449 L 138.542969 22.210449 L 138.542969 23.000000 L 137.334473 23.000000 Q 136.222656 23.000000 135.766113 22.554199 Q 135.309570 22.108398 135.309570 21.018066 L 135.309570 17.752441 L 133.703613 17.752441 L 133.703613 16.984375 L 135.309570 16.984375 L 135.309570 15.276367 Z " fill="rgb(0, 0, 0)" fill-opacity="1.000000" />
<path d="M 143.308594 17.677246 Q 142.556641 17.677246 142.169922 18.262695 Q 141.783203 18.848145 141.783203 19.997559 Q 141.783203 21.141602 142.169922 21.729736 Q 142.556641 22.317871 143.308594 22.317871 Q 144.065918 22.317871 144.452637 21.729736 Q 144.839355 21.141602 144.839355 19.997559 Q 144.839355 18.848145 144.452637 18.262695 Q 144.065918 17.677246 143.308594 17.677246 Z M 143.308594 16.839355 Q 144.560059 16.839355 145.223389 17.650391 Q 145.886719 18.461426 145.886719 19.997559 Q 145.886719 21.539062 145.226074 22.347412 Q 144.565430 23.155762 143.308594 23.155762 Q 142.057129 23.155762 141.396484 22.347412 Q 140.735840 21.539062 140.735840 19.997559 Q 140.735840 18.461426 141.396484 17.650391 Q 142.057129 16.839355 143.308594 16.839355 Z " fill="rgb(0, 0, 0)" fill-opacity="1.000000" />
<path d="M 153.203613 18.225098 Q 152.886719 17.978027 152.559082 17.865234 Q 152.231445 17.752441 151.839355 17.752441 Q 150.915527 17.752441 150.426758 18.332520 Q 149.937988 18.912598 149.937988 20.008301 L 149.937988 23.000000 L 148.944336 23.000000 L 148.944336 16.984375 L 149.937988 16.984375 L 149.937988 18.160645 Q 150.185059 17.521484 150.697998 17.180420 Q 151.210938 16.839355 151.914551 16.839355 Q 152.279785 16.839355 152.596680 16.930664 Q 152.913574 17.021973 153.203613 17.215332 Z " fill="rgb(0, 0, 0)" fill-opacity="1.000000" />
<path d="M 155.869141 14.116211 L 156.728516 14.116211 Q 157.539551 15.383789 157.937012 16.597656 Q 158.334473 17.811523 158.334473 19.009277 Q 158.334473 20.217773 157.937012 21.431641 Q 157.539551 22.645508 156.728516 23.913086 L 155.869141 23.913086 Q 156.583496 22.666992 156.935303 21.447754 Q 157.287109 20.228516 157.287109 19.009277 Q 157.287109 17.784668 156.935303 16.565430 Q 156.583496 15.346191 155.869141 14.116211 Z " fill="rgb(0, 0, 0)" fill-opacity="1.000000" />
<path d="M 117.226074 4.193848 L 117.226074 5.160645 Q 116.801758 4.913574 116.372070 4.790039 Q 115.942383 4.666504 115.496582 4.666504 Q 114.825195 4.666504 114.494873 4.884033 Q 114.164551 5.101562 114.164551 5.547363 Q 114.164551 5.950195 114.411621 6.148926 Q 114.658691 6.347656 115.641602 6.535645 L 116.039062 6.610840 Q 116.774902 6.750488 117.153564 7.169434 Q 117.532227 7.588379 117.532227 8.259766 Q 117.532227 9.151367 116.898438 9.653564 Q 116.264648 10.155762 115.136719 10.155762 Q 114.690918 10.155762 114.202148 10.061768 Q 113.713379 9.967773 113.144043 9.779785 L 113.144043 8.759277 Q 113.697266 9.043945 114.202148 9.186279 Q 114.707031 9.328613 115.158203 9.328613 Q 115.813477 9.328613 116.173340 9.062744 Q 116.533203 8.796875 116.533203 8.318848 Q 116.533203 7.631348 115.217285 7.368164 L 115.174316 7.357422 L 114.803711 7.282227 Q 113.949707 7.115723 113.557617 6.720947 Q 113.165527 6.326172 113.165527 5.644043 Q 113.165527 4.779297 113.750977 4.309326 Q 114.336426 3.839355 115.421387 3.839355 Q 115.904785 3.839355 116.350586 3.927979 Q 116.796387 4.016602 117.226074 4.193848 Z " fill="rgb(0, 0, 0)" fill-opacity="1.000000" />
<path d="M 125.015625 6.498047 L 125.015625 6.981445 L 120.734863 6.981445 L 120.734863 7.013672 Q 120.691895 8.243652 121.204834 8.780762 Q 121.717773 9.317871 122.652344 9.317871 Q 123.125000 9.317871 123.640625 9.167480 Q 124.156250 9.017090 124.741699 8.710938 L 124.741699 9.693848 Q 124.177734 9.924805 123.654053 10.040283 Q 123.130371 10.155762 122.641602 10.155762 Q 121.239746 10.155762 120.450195 9.315186 Q 119.660645 8.474609 119.660645 6.997559 Q 119.660645 5.558105 120.434082 4.698730 Q 121.207520 3.839355 122.496582 3.839355 Q 123.645996 3.839355 124.309326 4.618164 Q 124.972656 5.396973 125.015625 6.498047 Z M 124.027344 6.208008 Q 123.962891 5.584961 123.573486 5.131104 Q 123.184082 4.677246 122.453613 4.677246 Q 121.739258 4.677246 121.277344 5.149902 Q 120.815430 5.622559 120.772461 6.213379 Z " fill="rgb(0, 0, 0)" fill-opacity="1.000000" />
<path d="M 131.645020 6.272461 L 131.645020 10.000000 L 130.651367 10.000000 L 130.651367 6.272461 Q 130.651367 5.461426 130.366699 5.080078 Q 130.082031 4.698730 129.475098 4.698730 Q 128.782227 4.698730 128.408936 5.190186 Q 128.035645 5.681641 128.035645 6.600098 L 128.035645 10.000000 L 127.047363 10.000000 L 127.047363 3.984375 L 128.035645 3.984375 L 128.035645 4.886719 Q 128.298828 4.371094 128.750000 4.105225 Q 129.201172 3.839355 129.818848 3.839355 Q 130.737305 3.839355 131.191162 4.443604 Q 131.645020 5.047852 131.645020 6.272461 Z " fill="rgb(0, 0, 0)" fill-opacity="1.000000" />
<path d="M 137.608398 4.752441 L 137.608398 1.642578 L 138.596680 1.642578 L 138.596680 10.000000 L 137.608398 10.000000 L 137.608398 9.242676 Q 137.361328 9.688477 136.950439 9.922119 Q 136.539551 10.155762 136.002441 10.155762 Q 134.912109 10.155762 134.286377 9.309814 Q 133.660645 8.463867 133.660645 6.976074 Q 133.660645 5.509766 134.289062 4.674561 Q 134.917480 3.839355 136.002441 3.839355 Q 136.544922 3.839355 136.958496 4.072998 Q 137.372070 4.306641 137.608398 4.752441 Z M 134.702637 6.997559 Q 134.702637 8.146973 135.067871 8.732422 Q 135.433105 9.317871 136.147461 9.317871 Q 136.861816 9.317871 137.235107 8.727051 Q 137.608398 8.136230 137.608398 6.997559 Q 137.608398 5.853516 137.235107 5.265381 Q 136.861816 4.677246 136.147461 4.677246 Q 135.433105 4.677246 135.067871 5.262695 Q 134.702637 5.848145 134.702637 6.997559 Z " fill="rgb(0, 0, 0)" fill-opacity="1.000000" />
<path d="M 146.015625 6.498047 L 146.015625 6.981445 L 141.734863 6.981445 L 141.734863 7.013672 Q 141.691895 8.243652 142.204834 8.780762 Q 142.717773 9.317871 143.652344 9.317871 Q 144.125000 9.317871 144.640625 9.167480 Q 145.156250 9.017090 145.741699 8.710938 L 145.741699 9.693848 Q 145.177734 9.924805 144.654053 10.040283 Q 144.130371 10.155762 143.641602 10.155762 Q 142.239746 10.155762 141.450195 9.315186 Q 140.660645 8.474609 140.660645 6.997559 Q 140.660645 5.558105 141.434082 4.698730 Q 142.207520 3.839355 143.496582 3.839355 Q 144.645996 3.839355 145.309326 4.618164 Q 145.972656 5.396973 146.015625 6.498047 Z M 145.027344 6.208008 Q 144.962891 5.584961 144.573486 5.131104 Q 144.184082 4.677246 143.453613 4.677246 Q 142.739258 4.677246 142.277344 5.149902 Q 141.815430 5.622559 141.772461 6.213379 Z " fill="rgb(0, 0, 0)" fill-opacity="1.000000" />
<path d="M 153.203613 5.225098 Q 152.886719 4.978027 152.559082 4.865234 Q 152.231445 4.752441 151.839355 4.752441 Q 150.915527 4.752441 150.426758 5.332520 Q 149.937988 5.912598 149.937988 7.008301 L 149.937988 10.000000 L 148.944336 10.000000 L 148.944336 3.984375 L 149.937988 3.984375 L 149.937988 5.160645 Q 150.185059 4.521484 150.697998 4.180420 Q 151.210938 3.839355 151.914551 3.839355 Q 152.279785 3.839355 152.596680 3.930664 Q 152.913574 4.021973 153.203613 4.215332 Z " fill="rgb(0, 0, 0)" fill-opacity="1.000000" />
</svg>