<svg xmlns="http://www.w3.org/2000/svg" version="1.1" width="526" height="144">
<path d="M 2.878906 39.319336 L 2.878906 32.412109 L 6.729980 32.412109 L 6.729980 33.335938 L 3.738281 33.335938 L 3.738281 39.319336 Z " fill="rgb(0, 0, 0)" fill-opacity="1.000000" />
<path d="M 2.878906 52.319336 L 2.878906 38.300781 L 3.738281 38.300781 L 3.738281 52.319336 Z " fill="rgb(0, 0, 0)" fill-opacity="1.000000" />
<path d="M 2.878906 65.319336 L 2.878906 51.300781 L 3.738281 51.300781 L 3.738281 65.319336 Z " fill="rgb(0, 0, 0)" fill-opacity="1.000000" />
<path d="M 2.878906 72.335938 L 2.878906 64.300781 L 3.738281 64.300781 L 3.738281 71.412109 L 6.729980 71.412109 L 6.729980 72.335938 Z " fill="rgb(0, 0, 0)" fill-opacity="1.000000" />
<path d="M 12.016602 90.750000 L 12.016602 89.348145 L 12.875977 89.348145 L 12.875977 90.750000 Z M 8.600586 90.750000 L 8.600586 89.348145 L 9.454590 89.348145 L 9.454590 90.750000 Z M 10.308594 88.789551 L 10.308594 87.387695 L 11.162598 87.387695 L 11.162598 88.789551 Z M 6.892578 88.789551 L 6.892578 87.387695 L 7.741211 87.387695 L 7.741211 88.789551 Z M 12.016602 86.823730 L 12.016602 85.421875 L 12.875977 85.421875 L 12.875977 86.823730 Z M 8.600586 86.823730 L 8.600586 85.421875 L 9.454590 85.421875 L 9.454590 86.823730 Z M 10.308594 84.863281 L 10.308594 83.461426 L 11.162598 83.461426 L 11.162598 84.863281 Z M 6.892578 84.863281 L 6.892578 83.461426 L 7.741211 83.461426 L 7.741211 84.863281 Z M 12.016602 82.897461 L 12.016602 81.495605 L 12.875977 81.495605 L 12.875977 82.897461 Z M 8.600586 82.897461 L 8.600586 81.495605 L 9.454590 81.495605 L 9.454590 82.897461 Z M 10.308594 80.937012 L 10.308594 79.535156 L 11.162598 79.535156 L 11.162598 80.937012 Z M 6.892578 80.937012 L 6.892578 79.535156 L 7.741211 79.535156 L 7.741211 80.937012 Z " fill="rgb(0, 0, 0)" fill-opacity="1.000000" />
<path d="M 19.016602 90.750000 L 19.016602 89.348145 L 19.875977 89.348145 L 19.875977 90.750000 Z M 15.600586 90.750000 L 15.600586 89.348145 L 16.454590 89.348145 L 16.454590 90.750000 Z M 17.308594 88.789551 L 17.308594 87.387695 L 18.162598 87.387695 L 18.162598 88.789551 Z M 13.892578 88.789551 L 13.892578 87.387695 L 14.741211 87.387695 L 14.741211 88.789551 Z M 19.016602 86.823730 L 19.016602 85.421875 L 19.875977 85.421875 L 19.875977 86.823730 Z M 15.600586 86.823730 L 15.600586 85.421875 L 16.454590 85.421875 L 16.454590 86.823730 Z M 17.308594 84.863281 L 17.308594 83.461426 L 18.162598 83.461426 L 18.162598 84.863281 Z M 13.892578 84.863281 L 13.892578 83.461426 L 14.741211 83.461426 L 14.741211 84.863281 Z M 19.016602 82.897461 L 19.016602 81.495605 L 19.875977 81.495605 L 19.875977 82.897461 Z M 15.600586 82.897461 L 15.600586 81.495605 L 16.454590 81.495605 L 16.454590 82.897461 Z M 17.308594 80.937012 L 17.308594 79.535156 L 18.162598 79.535156 L 18.162598 80.937012 Z M 13.892578 80.937012 L 13.892578 79.535156 L 14.741211 79.535156 L 14.741211 80.937012 Z " fill="rgb(0, 0, 0)" fill-opacity="1.000000" />
<path d="M 26.016602 90.750000 L 26.016602 89.348145 L 26.875977 89.348145 L 26.875977 90.750000 Z M 22.600586 90.750000 L 22.600586 89.348145 L 23.454590 89.348145 L 23.454590 90.750000 Z M 24.308594 88.789551 L 24.308594 87.387695 L 25.162598 87.387695 L 25.162598 88.789551 Z M 20.892578 88.789551 L 20.892578 87.387695 L 21.741211 87.387695 L 21.741211 88.789551 Z M 26.016602 86.823730 L 26.016602 85.421875 L 26.875977 85.421875 L 26.875977 86.823730 Z M 22.600586 86.823730 L 22.600586 85.421875 L 23.454590 85.421875 L 23.454590 86.823730 Z M 24.308594 84.863281 L 24.308594 83.461426 L 25.162598 83.461426 L 25.162598 84.863281 Z M 20.892578 84.863281 L 20.892578 83.461426 L 21.741211 83.461426 L 21.741211 84.863281 Z M 26.016602 82.897461 L 26.016602 81.495605 L 26.875977 81.495605 L 26.875977 82.897461 Z M 22.600586 82.897461 L 22.600586 81.495605 L 23.454590 81.495605 L 23.454590 82.897461 Z M 24.308594 80.937012 L 24.308594 79.535156 L 25.162598 79.535156 L 25.162598 80.937012 Z M 20.892578 80.937012 L 20.892578 79.535156 L 21.741211 79.535156 L 21.741211 80.937012 Z " fill="rgb(0, 0, 0)" fill-opacity="1.000000" />
<path d="M 33.016602 90.750000 L 33.016602 89.348145 L 33.875977 89.348145 L 33.875977 90.750000 Z M 29.600586 90.750000 L 29.600586 89.348145 L 30.454590 89.348145 L 30.454590 90.750000 Z M 31.308594 88.789551 L 31.308594 87.387695 L 32.162598 87.387695 L 32.162598 88.789551 Z M 27.892578 88.789551 L 27.892578 87.387695 L 28.741211 87.387695 L 28.741211 88.789551 Z M 33.016602 86.823730 L 33.016602 85.421875 L 33.875977 85.421875 L 33.875977 86.823730 Z M 29.600586 86.823730 L 29.600586 85.421875 L 30.454590 85.421875 L 30.454590 86.823730 Z M 31.308594 84.863281 L 31.308594 83.461426 L 32.162598 83.461426 L 32.162598 84.863281 Z M 27.892578 84.863281 L 27.892578 83.461426 L 28.741211 83.461426 L 28.741211 84.863281 Z M 33.016602 82.897461 L 33.016602 81.495605 L 33.875977 81.495605 L 33.875977 82.897461 Z M 29.600586 82.897461 L 29.600586 81.495605 L 30.454590 81.495605 L 30.454590 82.897461 Z M 31.308594 80.937012 L 31.308594 79.535156 L 32.162598 79.535156 L 32.162598 80.937012 Z M 27.892578 80.937012 L 27.892578 79.535156 L 28.741211 79.535156 L 28.741211 80.937012 Z " fill="rgb(0, 0, 0)" fill-opacity="1.000000" />
<path d="M 40.016602 90.750000 L 40.016602 89.348145 L 40.875977 89.348145 L 40.875977 90.750000 Z M 36.600586 90.750000 L 36.600586 89.348145 L 37.454590 89.348145 L 37.454590 90.750000 Z M 38.308594 88.789551 L 38.308594 87.387695 L 39.162598 87.387695 L 39.162598 88.789551 Z M 34.892578 88.789551 L 34.892578 87.387695 L 35.741211 87.387695 L 35.741211 88.789551 Z M 40.016602 86.823730 L 40.016602 85.421875 L 40.875977 85.421875 L 40.875977 86.823730 Z M 36.600586 86.823730 L 36.600586 85.421875 L 37.454590 85.421875 L 37.454590 86.823730 Z M 38.308594 84.863281 L 38.308594 83.461426 L 39.162598 83.461426 L 39.162598 84.863281 Z M 34.892578 84.863281 L 34.892578 83.461426 L 35.741211 83.461426 L 35.741211 84.863281 Z M 40.016602 82.897461 L 40.016602 81.495605 L 40.875977 81.495605 L 40.875977 82.897461 Z M 36.600586 82.897461 L 36.600586 81.495605 L 37.454590 81.495605 L 37.454590 82.897461 Z M 38.308594 80.937012 L 38.308594 79.535156 L 39.162598 79.535156 L 39.162598 80.937012 Z M 34.892578 80.937012 L 34.892578 79.535156 L 35.741211 79.535156 L 35.741211 80.937012 Z " fill="rgb(0, 0, 0)" fill-opacity="1.000000" />
<path d="M 47.016602 90.750000 L 47.016602 89.348145 L 47.875977 89.348145 L 47.875977 90.750000 Z M 43.600586 90.750000 L 43.600586 89.348145 L 44.454590 89.348145 L 44.454590 90.750000 Z M 45.308594 88.789551 L 45.308594 87.387695 L 46.162598 87.387695 L 46.162598 88.789551 Z M 41.892578 88.789551 L 41.892578 87.387695 L 42.741211 87.387695 L 42.741211 88.789551 Z M 47.016602 86.823730 L 47.016602 85.421875 L 47.875977 85.421875 L 47.875977 86.823730 Z M 43.600586 86.823730 L 43.600586 85.421875 L 44.454590 85.421875 L 44.454590 86.823730 Z M 45.308594 84.863281 L 45.308594 83.461426 L 46.162598 83.461426 L 46.162598 84.863281 Z M 41.892578 84.863281 L 41.892578 83.461426 L 42.741211 83.461426 L 42.741211 84.863281 Z M 47.016602 82.897461 L 47.016602 81.495605 L 47.875977 81.495605 L 47.875977 82.897461 Z M 43.600586 82.897461 L 43.600586 81.495605 L 44.454590 81.495605 L 44.454590 82.897461 Z M 45.308594 80.937012 L 45.308594 79.535156 L 46.162598 79.535156 L 46.162598 80.937012 Z M 41.892578 80.937012 L 41.892578 79.535156 L 42.741211 79.535156 L 42.741211 80.937012 Z " fill="rgb(0, 0, 0)" fill-opacity="1.000000" />
<path d="M 54.016602 90.750000 L 54.016602 89.348145 L 54.875977 89.348145 L 54.875977 90.750000 Z M 50.600586 90.750000 L 50.600586 89.348145 L 51.454590 89.348145 L 51.454590 90.750000 Z M 52.308594 88.789551 L 52.308594 87.387695 L 53.162598 87.387695 L 53.162598 88.789551 Z M 48.892578 88.789551 L 48.892578 87.387695 L 49.741211 87.387695 L 49.741211 88.789551 Z M 54.016602 86.823730 L 54.016602 85.421875 L 54.875977 85.421875 L 54.875977 86.823730 Z M 50.600586 86.823730 L 50.600586 85.421875 L 51.454590 85.421875 L 51.454590 86.823730 Z M 52.308594 84.863281 L 52.308594 83.461426 L 53.162598 83.461426 L 53.162598 84.863281 Z M 48.892578 84.863281 L 48.892578 83.461426 L 49.741211 83.461426 L 49.741211 84.863281 Z M 54.016602 82.897461 L 54.016602 81.495605 L 54.875977 81.495605 L 54.875977 82.897461 Z M 50.600586 82.897461 L 50.600586 81.495605 L 51.454590 81.495605 L 51.454590 82.897461 Z M 52.308594 80.937012 L 52.308594 79.535156 L 53.162598 79.535156 L 53.162598 80.937012 Z M 48.892578 80.937012 L 48.892578 79.535156 L 49.741211 79.535156 L 49.741211 80.937012 Z " fill="rgb(0, 0, 0)" fill-opacity="1.000000" />
<path d="M 61.016602 90.750000 L 61.016602 89.348145 L 61.875977 89.348145 L 61.875977 90.750000 Z M 57.600586 90.750000 L 57.600586 89.348145 L 58.454590 89.348145 L 58.454590 90.750000 Z M 59.308594 88.789551 L 59.308594 87.387695 L 60.162598 87.387695 L 60.162598 88.789551 Z M 55.892578 88.789551 L 55.892578 87.387695 L 56.741211 87.387695 L 56.741211 88.789551 Z M 61.016602 86.823730 L 61.016602 85.421875 L 61.875977 85.421875 L 61.875977 86.823730 Z M 57.600586 86.823730 L 57.600586 85.421875 L 58.454590 85.421875 L 58.454590 86.823730 Z M 59.308594 84.863281 L 59.308594 83.461426 L 60.162598 83.461426 L 60.162598 84.863281 Z M 55.892578 84.863281 L 55.892578 83.461426 L 56.741211 83.461426 L 56.741211 84.863281 Z M 61.016602 82.897461 L 61.016602 81.495605 L 61.875977 81.495605 L 61.875977 82.897461 Z M 57.600586 82.897461 L 57.600586 81.495605 L 58.454590 81.495605 L 58.454590 82.897461 Z M 59.308594 80.937012 L 59.308594 79.535156 L 60.162598 79.535156 L 60.162598 80.937012 Z M 55.892578 80.937012 L 55.892578 79.535156 L 56.741211 79.535156 L 56.741211 80.937012 Z " fill="rgb(0, 0, 0)" fill-opacity="1.000000" />
<path d="M 68.016602 90.750000 L 68.016602 89.348145 L 68.875977 89.348145 L 68.875977 90.750000 Z M 64.600586 90.750000 L 64.600586 89.348145 L 65.454590 89.348145 L 65.454590 90.750000 Z M 66.308594 88.789551 L 66.308594 87.387695 L 67.162598 87.387695 L 67.162598 88.789551 Z M 62.892578 88.789551 L 62.892578 87.387695 L 63.741211 87.387695 L 63.741211 88.789551 Z M 68.016602 86.823730 L 68.016602 85.421875 L 68.875977 85.421875 L 68.875977 86.823730 Z M 64.600586 86.823730 L 64.600586 85.421875 L 65.454590 85.421875 L 65.454590 86.823730 Z M 66.308594 84.863281 L 66.308594 83.461426 L 67.162598 83.461426 L 67.162598 84.863281 Z M 62.892578 84.863281 L 62.892578 83.461426 L 63.741211 83.461426 L 63.741211 84.863281 Z M 68.016602 82.897461 L 68.016602 81.495605 L 68.875977 81.495605 L 68.875977 82.897461 Z M 64.600586 82.897461 L 64.600586 81.495605 L 65.454590 81.495605 L 65.454590 82.897461 Z M 66.308594 80.937012 L 66.308594 79.535156 L 67.162598 79.535156 L 67.162598 80.937012 Z M 62.892578 80.937012 L 62.892578 79.535156 L 63.741211 79.535156 L 63.741211 80.937012 Z " fill="rgb(0, 0, 0)" fill-opacity="1.000000" />
<path d="M 75.016602 90.750000 L 75.016602 89.348145 L 75.875977 89.348145 L 75.875977 90.750000 Z M 71.600586 90.750000 L 71.600586 89.348145 L 72.454590 89.348145 L 72.454590 90.750000 Z M 73.308594 88.789551 L 73.308594 87.387695 L 74.162598 87.387695 L 74.162598 88.789551 Z M 69.892578 88.789551 L 69.892578 87.387695 L 70.741211 87.387695 L 70.741211 88.789551 Z M 75.016602 86.823730 L 75.016602 85.421875 L 75.875977 85.421875 L 75.875977 86.823730 Z M 71.600586 86.823730 L 71.600586 85.421875 L 72.454590 85.421875 L 72.454590 86.823730 Z M 73.308594 84.863281 L 73.308594 83.461426 L 74.162598 83.461426 L 74.162598 84.863281 Z M 69.892578 84.863281 L 69.892578 83.461426 L 70.741211 83.461426 L 70.741211 84.863281 Z M 75.016602 82.897461 L 75.016602 81.495605 L 75.875977 81.495605 L 75.875977 82.897461 Z M 71.600586 82.897461 L 71.600586 81.495605 L 72.454590 81.495605 L 72.454590 82.897461 Z M 73.308594 80.937012 L 73.308594 79.535156 L 74.162598 79.535156 L 74.162598 80.937012 Z M 69.892578 80.937012 L 69.892578 79.535156 L 70.741211 79.535156 L 70.741211 80.937012 Z " fill="rgb(0, 0, 0)" fill-opacity="1.000000" />
<path d="M 82.016602 90.750000 L 82.016602 89.348145 L 82.875977 89.348145 L 82.875977 90.750000 Z M 78.600586 90.750000 L 78.600586 89.348145 L 79.454590 89.348145 L 79.454590 90.750000 Z M 80.308594 88.789551 L 80.308594 87.387695 L 81.162598 87.387695 L 81.162598 88.789551 Z M 76.892578 88.789551 L 76.892578 87.387695 L 77.741211 87.387695 L 77.741211 88.789551 Z M 82.016602 86.823730 L 82.016602 85.421875 L 82.875977 85.421875 L 82.875977 86.823730 Z M 78.600586 86.823730 L 78.600586 85.421875 L 79.454590 85.421875 L 79.454590 86.823730 Z M 80.308594 84.863281 L 80.308594 83.461426 L 81.162598 83.461426 L 81.162598 84.863281 Z M 76.892578 84.863281 L 76.892578 83.461426 L 77.741211 83.461426 L 77.741211 84.863281 Z M 82.016602 82.897461 L 82.016602 81.495605 L 82.875977 81.495605 L 82.875977 82.897461 Z M 78.600586 82.897461 L 78.600586 81.495605 L 79.454590 81.495605 L 79.454590 82.897461 Z M 80.308594 80.937012 L 80.308594 79.535156 L 81.162598 79.535156 L 81.162598 80.937012 Z M 76.892578 80.937012 L 76.892578 79.535156 L 77.741211 79.535156 L 77.741211 80.937012 Z " fill="rgb(0, 0, 0)" fill-opacity="1.000000" />
<path d="M 135.449219 104.319336 L 135.449219 90.300781 L 137.167969 90.300781 L 137.167969 104.319336 Z " fill="rgb(0, 0, 0)" fill-opacity="1.000000" />
<path d="M 135.449219 117.319336 L 135.449219 103.300781 L 137.167969 103.300781 L 137.167969 117.319336 Z " fill="rgb(0, 0, 0)" fill-opacity="1.000000" />
<path d="M 135.449219 130.319336 L 135.449219 116.300781 L 137.167969 116.300781 L 137.167969 130.319336 Z " fill="rgb(0, 0, 0)" fill-opacity="1.000000" />
<path d="M 135.449219 137.797852 L 135.449219 129.300781 L 137.167969 129.300781 L 137.167969 135.950195 L 139.729980 135.950195 L 139.729980 137.797852 Z " fill="rgb(0, 0, 0)" fill-opacity="1.000000" />
<path d="M 139.892578 137.797852 L 139.892578 135.950195 L 146.729980 135.950195 L 146.729980 137.797852 Z " fill="rgb(0, 0, 0)" fill-opacity="1.000000" />
<path d="M 146.892578 137.797852 L 146.892578 135.950195 L 153.729980 135.950195 L 153.729980 137.797852 Z " fill="rgb(0, 0, 0)" fill-opacity="1.000000" />
<path d="M 153.892578 137.797852 L 153.892578 135.950195 L 160.729980 135.950195 L 160.729980 137.797852 Z " fill="rgb(0, 0, 0)" fill-opacity="1.000000" />
<path d="M 160.892578 137.797852 L 160.892578 135.950195 L 167.729980 135.950195 L 167.729980 137.797852 Z " fill="rgb(0, 0, 0)" fill-opacity="1.000000" />
<path d="M 167.892578 137.797852 L 167.892578 135.950195 L 174.729980 135.950195 L 174.729980 137.797852 Z " fill="rgb(0, 0, 0)" fill-opacity="1.000000" />
<path d="M 174.892578 137.797852 L 174.892578 135.950195 L 181.729980 135.950195 L 181.729980 137.797852 Z " fill="rgb(0, 0, 0)" fill-opacity="1.000000" />
<path d="M 181.892578 137.797852 L 181.892578 135.950195 L 188.729980 135.950195 L 188.729980 137.797852 Z " fill="rgb(0, 0, 0)" fill-opacity="1.000000" />
<path d="M 188.892578 137.797852 L 188.892578 135.950195 L 195.729980 135.950195 L 195.729980 137.797852 Z " fill="rgb(0, 0, 0)" fill-opacity="1.000000" />
<path d="M 195.892578 137.797852 L 195.892578 135.950195 L 202.729980 135.950195 L 202.729980 137.797852 Z " fill="rgb(0, 0, 0)" fill-opacity="1.000000" />
<path d="M 202.892578 137.797852 L 202.892578 135.950195 L 209.729980 135.950195 L 209.729980 137.797852 Z " fill="rgb(0, 0, 0)" fill-opacity="1.000000" />
<path d="M 209.892578 137.797852 L 209.892578 135.950195 L 216.729980 135.950195 L 216.729980 137.797852 Z " fill="rgb(0, 0, 0)" fill-opacity="1.000000" />
<path d="M 216.892578 137.797852 L 216.892578 135.950195 L 223.729980 135.950195 L 223.729980 137.797852 Z " fill="rgb(0, 0, 0)" fill-opacity="1.000000" />
<path d="M 223.892578 137.797852 L 223.892578 135.950195 L 230.729980 135.950195 L 230.729980 137.797852 Z " fill="rgb(0, 0, 0)" fill-opacity="1.000000" />
<path d="M 230.892578 137.797852 L 230.892578 135.950195 L 237.729980 135.950195 L 237.729980 137.797852 Z " fill="rgb(0, 0, 0)" fill-opacity="1.000000" />
<path d="M 237.892578 137.797852 L 237.892578 135.950195 L 244.729980 135.950195 L 244.729980 137.797852 Z " fill="rgb(0, 0, 0)" fill-opacity="1.000000" />
<path d="M 244.892578 137.797852 L 244.892578 135.950195 L 251.729980 135.950195 L 251.729980 137.797852 Z " fill="rgb(0, 0, 0)" fill-opacity="1.000000" />
<path d="M 251.892578 137.797852 L 251.892578 135.950195 L 258.729980 135.950195 L 258.729980 137.797852 Z " fill="rgb(0, 0, 0)" fill-opacity="1.000000" />
<path d="M 258.892578 137.797852 L 258.892578 135.950195 L 265.729980 135.950195 L 265.729980 137.797852 Z " fill="rgb(0, 0, 0)" fill-opacity="1.000000" />
<path d="M 265.892578 137.797852 L 265.892578 135.950195 L 272.729980 135.950195 L 272.729980 137.797852 Z " fill="rgb(0, 0, 0)" fill-opacity="1.000000" />
<path d="M 272.892578 137.797852 L 272.892578 135.950195 L 279.729980 135.950195 L 279.729980 137.797852 Z " fill="rgb(0, 0, 0)" fill-opacity="1.000000" />
<path d="M 279.892578 137.797852 L 279.892578 135.950195 L 286.729980 135.950195 L 286.729980 137.797852 Z " fill="rgb(0, 0, 0)" fill-opacity="1.000000" />
<path d="M 286.892578 137.797852 L 286.892578 135.950195 L 293.729980 135.950195 L 293.729980 137.797852 Z " fill="rgb(0, 0, 0)" fill-opacity="1.000000" />
<path d="M 293.892578 137.797852 L 293.892578 135.950195 L 300.729980 135.950195 L 300.729980 137.797852 Z " fill="rgb(0, 0, 0)" fill-opacity="1.000000" />
<path d="M 300.892578 137.797852 L 300.892578 135.950195 L 307.729980 135.950195 L 307.729980 137.797852 Z " fill="rgb(0, 0, 0)" fill-opacity="1.000000" />
<path d="M 307.892578 137.797852 L 307.892578 135.950195 L 314.729980 135.950195 L 314.729980 137.797852 Z " fill="rgb(0, 0, 0)" fill-opacity="1.000000" />
<path d="M 314.892578 137.797852 L 314.892578 135.950195 L 321.729980 135.950195 L 321.729980 137.797852 Z " fill="rgb(0, 0, 0)" fill-opacity="1.000000" />
<path d="M 321.892578 137.797852 L 321.892578 135.950195 L 328.729980 135.950195 L 328.729980 137.797852 Z " fill="rgb(0, 0, 0)" fill-opacity="1.000000" />
<path d="M 328.892578 137.797852 L 328.892578 135.950195 L 335.729980 135.950195 L 335.729980 137.797852 Z " fill="rgb(0, 0, 0)" fill-opacity="1.000000" />
<path d="M 335.892578 137.797852 L 335.892578 135.950195 L 342.729980 135.950195 L 342.729980 137.797852 Z " fill="rgb(0, 0, 0)" fill-opacity="1.000000" />
<path d="M 342.892578 137.797852 L 342.892578 135.950195 L 349.729980 135.950195 L 349.729980 137.797852 Z " fill="rgb(0, 0, 0)" fill-opacity="1.000000" />
<path d="M 349.892578 137.797852 L 349.892578 135.950195 L 356.729980 135.950195 L 356.729980 137.797852 Z " fill="rgb(0, 0, 0)" fill-opacity="1.000000" />
<path d="M 356.892578 137.797852 L 356.892578 135.950195 L 363.729980 135.950195 L 363.729980 137.797852 Z " fill="rgb(0, 0, 0)" fill-opacity="1.000000" />
<path d="M 363.892578 137.797852 L 363.892578 135.950195 L 370.729980 135.950195 L 370.729980 137.797852 Z " fill="rgb(0, 0, 0)" fill-opacity="1.000000" />
<path d="M 370.892578 137.797852 L 370.892578 135.950195 L 377.729980 135.950195 L 377.729980 137.797852 Z " fill="rgb(0, 0, 0)" fill-opacity="1.000000" />
<path d="M 377.892578 137.797852 L 377.892578 135.950195 L 384.729980 135.950195 L 384.729980 137.797852 Z " fill="rgb(0, 0, 0)" fill-opacity="1.000000" />
<path d="M 384.892578 137.797852 L 384.892578 135.950195 L 391.729980 135.950195 L 391.729980 137.797852 Z " fill="rgb(0, 0, 0)" fill-opacity="1.000000" />
<path d="M 391.892578 137.797852 L 391.892578 135.950195 L 398.729980 135.950195 L 398.729980 137.797852 Z " fill="rgb(0, 0, 0)" fill-opacity="1.000000" />
<path d="M 398.892578 137.797852 L 398.892578 135.950195 L 401.449219 135.950195 L 401.449219 129.300781 L 403.167969 129.300781 L 403.167969 137.797852 Z " fill="rgb(0, 0, 0)" fill-opacity="1.000000" />
<path d="M 212.878906 98.335938 L 212.878906 90.300781 L 213.738281 90.300781 L 213.738281 97.412109 L 216.729980 97.412109 L 216.729980 98.335938 Z " fill="rgb(0, 0, 0)" fill-opacity="1.000000" />
<path d="M 282.878906 124.335938 L 282.878906 116.300781 L 283.738281 116.300781 L 283.738281 123.412109 L 286.729980 123.412109 L 286.729980 124.335938 Z " fill="rgb(0, 0, 0)" fill-opacity="1.000000" />
<path d="M 293.892578 124.335938 L 293.892578 123.412109 L 300.729980 123.412109 L 300.729980 124.335938 Z " fill="rgb(0, 0, 0)" fill-opacity="1.000000" />
<path d="M 307.892578 124.335938 L 307.892578 123.412109 L 314.729980 123.412109 L 314.729980 124.335938 Z " fill="rgb(0, 0, 0)" fill-opacity="1.000000" />
<path d="M 321.892578 124.335938 L 321.892578 123.412109 L 328.729980 123.412109 L 328.729980 124.335938 Z " fill="rgb(0, 0, 0)" fill-opacity="1.000000" />
<path d="M 335.892578 124.335938 L 335.892578 123.412109 L 342.729980 123.412109 L 342.729980 124.335938 Z " fill="rgb(0, 0, 0)" fill-opacity="1.000000" />
<path d="M 349.892578 124.335938 L 349.892578 123.412109 L 356.729980 123.412109 L 356.729980 124.335938 Z " fill="rgb(0, 0, 0)" fill-opacity="1.000000" />
<path d="M 363.892578 124.335938 L 363.892578 123.412109 L 370.729980 123.412109 L 370.729980 124.335938 Z " fill="rgb(0, 0, 0)" fill-opacity="1.000000" />
<path d="M 377.892578 124.335938 L 377.892578 123.412109 L 384.729980 123.412109 L 384.729980 124.335938 Z " fill="rgb(0, 0, 0)" fill-opacity="1.000000" />
<path d="M 401.449219 130.319336 L 401.449219 116.300781 L 403.167969 116.300781 L 403.167969 130.319336 Z " fill="rgb(0, 0, 0)" fill-opacity="1.000000" />
<path d="M 289.878906 111.335938 L 289.878906 103.300781 L 290.738281 103.300781 L 290.738281 110.412109 L 293.729980 110.412109 L 293.729980 111.335938 Z " fill="rgb(0, 0, 0)" fill-opacity="1.000000" />
<path d="M 293.892578 111.335938 L 293.892578 110.412109 L 300.729980 110.412109 L 300.729980 111.335938 Z " fill="rgb(0, 0, 0)" fill-opacity="1.000000" />
<path d="M 300.892578 111.335938 L 300.892578 110.412109 L 307.729980 110.412109 L 307.729980 111.335938 Z " fill="rgb(0, 0, 0)" fill-opacity="1.000000" />
<path d="M 307.892578 111.335938 L 307.892578 110.412109 L 314.729980 110.412109 L 314.729980 111.335938 Z " fill="rgb(0, 0, 0)" fill-opacity="1.000000" />
<path d="M 314.892578 111.335938 L 314.892578 110.412109 L 321.729980 110.412109 L 321.729980 111.335938 Z " fill="rgb(0, 0, 0)" fill-opacity="1.000000" />
<path d="M 321.892578 111.335938 L 321.892578 110.412109 L 328.729980 110.412109 L 328.729980 111.335938 Z " fill="rgb(0, 0, 0)" fill-opacity="1.000000" />
<path d="M 328.892578 111.335938 L 328.892578 110.412109 L 335.729980 110.412109 L 335.729980 111.335938 Z " fill="rgb(0, 0, 0)" fill-opacity="1.000000" />
<path d="M 335.892578 111.335938 L 335.892578 110.412109 L 342.729980 110.412109 L 342.729980 111.335938 Z " fill="rgb(0, 0, 0)" fill-opacity="1.000000" />
<path d="M 342.892578 111.335938 L 342.892578 110.412109 L 349.729980 110.412109 L 349.729980 111.335938 Z " fill="rgb(0, 0, 0)" fill-opacity="1.000000" />
<path d="M 349.892578 111.335938 L 349.892578 110.412109 L 356.729980 110.412109 L 356.729980 111.335938 Z " fill="rgb(0, 0, 0)" fill-opacity="1.000000" />
<path d="M 356.892578 111.335938 L 356.892578 110.412109 L 363.729980 110.412109 L 363.729980 111.335938 Z " fill="rgb(0, 0, 0)" fill-opacity="1.000000" />
<path d="M 363.892578 111.335938 L 363.892578 110.412109 L 370.729980 110.412109 L 370.729980 111.335938 Z " fill="rgb(0, 0, 0)" fill-opacity="1.000000" />
<path d="M 370.892578 111.335938 L 370.892578 110.412109 L 377.729980 110.412109 L 377.729980 111.335938 Z " fill="rgb(0, 0, 0)" fill-opacity="1.000000" />
<path d="M 377.892578 111.335938 L 377.892578 110.412109 L 380.878906 110.412109 L 380.878906 103.300781 L 381.738281 103.300781 L 381.738281 111.335938 Z " fill="rgb(0, 0, 0)" fill-opacity="1.000000" />
<path d="M 387.878906 117.319336 L 387.878906 103.300781 L 388.738281 103.300781 L 388.738281 117.319336 Z " fill="rgb(0, 0, 0)" fill-opacity="1.000000" />
<path d="M 401.449219 117.319336 L 401.449219 103.300781 L 403.167969 103.300781 L 403.167969 117.319336 Z " fill="rgb(0, 0, 0)" fill-opacity="1.000000" />
<path d="M 216.892578 98.335938 L 216.892578 97.412109 L 223.729980 97.412109 L 223.729980 98.335938 Z " fill="rgb(0, 0, 0)" fill-opacity="1.000000" />
<path d="M 223.892578 98.335938 L 223.892578 97.412109 L 230.729980 97.412109 L 230.729980 98.335938 Z " fill="rgb(0, 0, 0)" fill-opacity="1.000000" />
<path d="M 230.892578 98.335938 L 230.892578 97.412109 L 237.729980 97.412109 L 237.729980 98.335938 Z " fill="rgb(0, 0, 0)" fill-opacity="1.000000" />
<path d="M 237.892578 98.335938 L 237.892578 97.412109 L 244.729980 97.412109 L 244.729980 98.335938 Z " fill="rgb(0, 0, 0)" fill-opacity="1.000000" />
<path d="M 244.892578 98.335938 L 244.892578 97.412109 L 251.729980 97.412109 L 251.729980 98.335938 Z " fill="rgb(0, 0, 0)" fill-opacity="1.000000" />
<path d="M 251.892578 98.335938 L 251.892578 97.412109 L 258.729980 97.412109 L 258.729980 98.335938 Z " fill="rgb(0, 0, 0)" fill-opacity="1.000000" />
<path d="M 258.892578 98.335938 L 258.892578 97.412109 L 265.729980 97.412109 L 265.729980 98.335938 Z " fill="rgb(0, 0, 0)" fill-opacity="1.000000" />
<path d="M 265.892578 98.335938 L 265.892578 97.412109 L 272.729980 97.412109 L 272.729980 98.335938 Z " fill="rgb(0, 0, 0)" fill-opacity="1.000000" />
<path d="M 272.892578 98.335938 L 272.892578 97.412109 L 279.729980 97.412109 L 279.729980 98.335938 Z " fill="rgb(0, 0, 0)" fill-opacity="1.000000" />
<path d="M 283.738281 98.335938 L 283.738281 104.319336 L 282.878906 104.319336 L 282.878906 98.335938 L 279.892578 98.335938 L 279.892578 97.412109 L 282.878906 97.412109 L 282.878906 90.300781 L 283.738281 90.300781 L 283.738281 97.412109 L 286.729980 97.412109 L 286.729980 98.335938 Z " fill="rgb(0, 0, 0)" fill-opacity="1.000000" />
<path d="M 287.032227 101.418945 L 287.032227 94.866211 L 293.590332 98.142578 Z " fill="rgb(0, 0, 0)" fill-opacity="1.000000" />
<path d="M 380.878906 104.319336 L 380.878906 90.300781 L 381.738281 90.300781 L 381.738281 97.412109 L 384.729980 97.412109 L 384.729980 98.335938 L 381.738281 98.335938 L 381.738281 104.319336 Z " fill="rgb(0, 0, 0)" fill-opacity="1.000000" />
<path d="M 384.892578 98.335938 L 384.892578 97.412109 L 391.729980 97.412109 L 391.729980 98.335938 Z " fill="rgb(0, 0, 0)" fill-opacity="1.000000" />
<path d="M 391.892578 98.335938 L 391.892578 97.412109 L 398.729980 97.412109 L 398.729980 98.335938 Z " fill="rgb(0, 0, 0)" fill-opacity="1.000000" />
<path d="M 401.449219 104.319336 L 401.449219 98.797852 L 398.892578 98.797852 L 398.892578 96.950195 L 401.449219 96.950195 L 401.449219 90.300781 L 403.167969 90.300781 L 403.167969 96.950195 L 405.729980 96.950195 L 405.729980 98.797852 L 403.167969 98.797852 L 403.167969 104.319336 Z " fill="rgb(0, 0, 0)" fill-opacity="1.000000" />
<path d="M 405.892578 98.335938 L 405.892578 97.412109 L 412.729980 97.412109 L 412.729980 98.335938 Z " fill="rgb(0, 0, 0)" fill-opacity="1.000000" />
<path d="M 412.892578 98.335938 L 412.892578 97.412109 L 419.729980 97.412109 L 419.729980 98.335938 Z " fill="rgb(0, 0, 0)" fill-opacity="1.000000" />
<path d="M 419.892578 98.335938 L 419.892578 97.412109 L 426.729980 97.412109 L 426.729980 98.335938 Z " fill="rgb(0, 0, 0)" fill-opacity="1.000000" />
<path d="M 426.892578 98.335938 L 426.892578 97.412109 L 433.729980 97.412109 L 433.729980 98.335938 Z " fill="rgb(0, 0, 0)" fill-opacity="1.000000" />
<path d="M 433.892578 98.335938 L 433.892578 97.412109 L 440.729980 97.412109 L 440.729980 98.335938 Z " fill="rgb(0, 0, 0)" fill-opacity="1.000000" />
<path d="M 440.892578 98.335938 L 440.892578 97.412109 L 447.729980 97.412109 L 447.729980 98.335938 Z " fill="rgb(0, 0, 0)" fill-opacity="1.000000" />
<path d="M 447.892578 98.335938 L 447.892578 97.412109 L 454.729980 97.412109 L 454.729980 98.335938 Z " fill="rgb(0, 0, 0)" fill-opacity="1.000000" />
<path d="M 454.892578 98.335938 L 454.892578 97.412109 L 461.729980 97.412109 L 461.729980 98.335938 Z " fill="rgb(0, 0, 0)" fill-opacity="1.000000" />
<path d="M 461.892578 98.335938 L 461.892578 97.412109 L 468.729980 97.412109 L 468.729980 98.335938 Z " fill="rgb(0, 0, 0)" fill-opacity="1.000000" />
<path d="M 468.892578 98.335938 L 468.892578 97.412109 L 475.729980 97.412109 L 475.729980 98.335938 Z " fill="rgb(0, 0, 0)" fill-opacity="1.000000" />
<path d="M 475.892578 98.335938 L 475.892578 97.412109 L 482.729980 97.412109 L 482.729980 98.335938 Z " fill="rgb(0, 0, 0)" fill-opacity="1.000000" />
<path d="M 483.032227 101.418945 L 483.032227 94.866211 L 489.590332 98.142578 Z " fill="rgb(0, 0, 0)" fill-opacity="1.000000" />
<path d="M 135.449219 91.319336 L 135.449219 77.300781 L 137.167969 77.300781 L 137.167969 91.319336 Z " fill="rgb(0, 0, 0)" fill-opacity="1.000000" />
<path d="M 210.032227 88.418945 L 210.032227 81.866211 L 216.590332 81.866211 L 216.590332 88.418945 Z " fill="rgb(0, 0, 0)" fill-opacity="1.000000" />
<path d="M 289.878906 91.319336 L 289.878906 84.412109 L 293.729980 84.412109 L 293.729980 85.335938 L 290.738281 85.335938 L 290.738281 91.319336 Z " fill="rgb(0, 0, 0)" fill-opacity="1.000000" />
<path d="M 293.892578 85.335938 L 293.892578 84.412109 L 300.729980 84.412109 L 300.729980 85.335938 Z " fill="rgb(0, 0, 0)" fill-opacity="1.000000" />
<path d="M 300.892578 85.335938 L 300.892578 84.412109 L 307.729980 84.412109 L 307.729980 85.335938 Z " fill="rgb(0, 0, 0)" fill-opacity="1.000000" />
<path d="M 307.892578 85.335938 L 307.892578 84.412109 L 314.729980 84.412109 L 314.729980 85.335938 Z " fill="rgb(0, 0, 0)" fill-opacity="1.000000" />
<path d="M 314.892578 85.335938 L 314.892578 84.412109 L 321.729980 84.412109 L 321.729980 85.335938 Z " fill="rgb(0, 0, 0)" fill-opacity="1.000000" />
<path d="M 321.892578 85.335938 L 321.892578 84.412109 L 328.729980 84.412109 L 328.729980 85.335938 Z " fill="rgb(0, 0, 0)" fill-opacity="1.000000" />
<path d="M 328.892578 85.335938 L 328.892578 84.412109 L 335.729980 84.412109 L 335.729980 85.335938 Z " fill="rgb(0, 0, 0)" fill-opacity="1.000000" />
<path d="M 335.892578 85.335938 L 335.892578 84.412109 L 342.729980 84.412109 L 342.729980 85.335938 Z " fill="rgb(0, 0, 0)" fill-opacity="1.000000" />
<path d="M 342.892578 85.335938 L 342.892578 84.412109 L 349.729980 84.412109 L 349.729980 85.335938 Z " fill="rgb(0, 0, 0)" fill-opacity="1.000000" />
<path d="M 349.892578 85.335938 L 349.892578 84.412109 L 356.729980 84.412109 L 356.729980 85.335938 Z " fill="rgb(0, 0, 0)" fill-opacity="1.000000" />
<path d="M 356.892578 85.335938 L 356.892578 84.412109 L 363.729980 84.412109 L 363.729980 85.335938 Z " fill="rgb(0, 0, 0)" fill-opacity="1.000000" />
<path d="M 363.892578 85.335938 L 363.892578 84.412109 L 370.729980 84.412109 L 370.729980 85.335938 Z " fill="rgb(0, 0, 0)" fill-opacity="1.000000" />
<path d="M 370.892578 85.335938 L 370.892578 84.412109 L 377.729980 84.412109 L 377.729980 85.335938 Z " fill="rgb(0, 0, 0)" fill-opacity="1.000000" />
<path d="M 380.878906 91.319336 L 380.878906 85.335938 L 377.892578 85.335938 L 377.892578 84.412109 L 381.738281 84.412109 L 381.738281 91.319336 Z " fill="rgb(0, 0, 0)" fill-opacity="1.000000" />
<path d="M 387.878906 91.319336 L 387.878906 77.300781 L 388.738281 77.300781 L 388.738281 91.319336 Z " fill="rgb(0, 0, 0)" fill-opacity="1.000000" />
<path d="M 401.449219 91.319336 L 401.449219 77.300781 L 403.167969 77.300781 L 403.167969 91.319336 Z " fill="rgb(0, 0, 0)" fill-opacity="1.000000" />
<path d="M 6.892578 72.335938 L 6.892578 71.412109 L 13.729980 71.412109 L 13.729980 72.335938 Z " fill="rgb(0, 0, 0)" fill-opacity="1.000000" />
<path d="M 13.892578 72.335938 L 13.892578 71.412109 L 20.729980 71.412109 L 20.729980 72.335938 Z " fill="rgb(0, 0, 0)" fill-opacity="1.000000" />
<path d="M 20.892578 72.335938 L 20.892578 71.412109 L 27.729980 71.412109 L 27.729980 72.335938 Z " fill="rgb(0, 0, 0)" fill-opacity="1.000000" />
<path d="M 27.892578 72.335938 L 27.892578 71.412109 L 34.729980 71.412109 L 34.729980 72.335938 Z " fill="rgb(0, 0, 0)" fill-opacity="1.000000" />
<path d="M 34.892578 72.335938 L 34.892578 71.412109 L 41.729980 71.412109 L 41.729980 72.335938 Z " fill="rgb(0, 0, 0)" fill-opacity="1.000000" />
<path d="M 41.892578 72.335938 L 41.892578 71.412109 L 48.729980 71.412109 L 48.729980 72.335938 Z " fill="rgb(0, 0, 0)" fill-opacity="1.000000" />
<path d="M 48.892578 72.335938 L 48.892578 71.412109 L 55.729980 71.412109 L 55.729980 72.335938 Z " fill="rgb(0, 0, 0)" fill-opacity="1.000000" />
<path d="M 55.892578 72.335938 L 55.892578 71.412109 L 62.729980 71.412109 L 62.729980 72.335938 Z " fill="rgb(0, 0, 0)" fill-opacity="1.000000" />
<path d="M 62.892578 72.335938 L 62.892578 71.412109 L 69.729980 71.412109 L 69.729980 72.335938 Z " fill="rgb(0, 0, 0)" fill-opacity="1.000000" />
<path d="M 69.892578 72.335938 L 69.892578 71.412109 L 72.878906 71.412109 L 72.878906 64.300781 L 73.738281 64.300781 L 73.738281 72.335938 Z " fill="rgb(0, 0, 0)" fill-opacity="1.000000" />
<path d="M 82.016602 77.750000 L 82.016602 76.348145 L 82.875977 76.348145 L 82.875977 77.750000 Z M 78.600586 77.750000 L 78.600586 76.348145 L 79.454590 76.348145 L 79.454590 77.750000 Z M 80.308594 75.789551 L 80.308594 74.387695 L 81.162598 74.387695 L 81.162598 75.789551 Z M 76.892578 75.789551 L 76.892578 74.387695 L 77.741211 74.387695 L 77.741211 75.789551 Z M 82.016602 73.823730 L 82.016602 72.421875 L 82.875977 72.421875 L 82.875977 73.823730 Z M 78.600586 73.823730 L 78.600586 72.421875 L 79.454590 72.421875 L 79.454590 73.823730 Z M 80.308594 71.863281 L 80.308594 70.461426 L 81.162598 70.461426 L 81.162598 71.863281 Z M 76.892578 71.863281 L 76.892578 70.461426 L 77.741211 70.461426 L 77.741211 71.863281 Z M 82.016602 69.897461 L 82.016602 68.495605 L 82.875977 68.495605 L 82.875977 69.897461 Z M 78.600586 69.897461 L 78.600586 68.495605 L 79.454590 68.495605 L 79.454590 69.897461 Z M 80.308594 67.937012 L 80.308594 66.535156 L 81.162598 66.535156 L 81.162598 67.937012 Z M 76.892578 67.937012 L 76.892578 66.535156 L 77.741211 66.535156 L 77.741211 67.937012 Z " fill="rgb(0, 0, 0)" fill-opacity="1.000000" />
<path d="M 135.449219 78.319336 L 135.449219 64.300781 L 137.167969 64.300781 L 137.167969 78.319336 Z " fill="rgb(0, 0, 0)" fill-opacity="1.000000" />
<path d="M 172.082031 71.213379 Q 172.500977 71.320801 172.796387 71.618896 Q 173.091797 71.916992 173.532227 72.808594 L 174.622559 75.000000 L 173.457031 75.000000 L 172.500977 72.975098 Q 172.087402 72.110352 171.757080 71.860596 Q 171.426758 71.610840 170.895020 71.610840 L 169.858398 71.610840 L 169.858398 75.000000 L 168.768066 75.000000 L 168.768066 66.980957 L 171.002441 66.980957 Q 172.323730 66.980957 173.027344 67.577148 Q 173.730957 68.173340 173.730957 69.301270 Q 173.730957 70.096191 173.298584 70.598389 Q 172.866211 71.100586 172.082031 71.213379 Z M 169.858398 67.872559 L 169.858398 70.719238 L 171.045410 70.719238 Q 171.824219 70.719238 172.205566 70.370117 Q 172.586914 70.020996 172.586914 69.301270 Q 172.586914 68.608398 172.181396 68.240479 Q 171.775879 67.872559 171.002441 67.872559 Z " fill="rgb(0, 0, 0)" fill-opacity="1.000000" />
<path d="M 178.770508 71.976074 L 178.442871 71.976074 Q 177.578125 71.976074 177.140381 72.279541 Q 176.702637 72.583008 176.702637 73.184570 Q 176.702637 73.727051 177.030273 74.027832 Q 177.357910 74.328613 177.937988 74.328613 Q 178.754395 74.328613 179.221680 73.761963 Q 179.688965 73.195312 179.694336 72.196289 L 179.694336 71.976074 Z M 180.687988 71.567871 L 180.687988 75.000000 L 179.694336 75.000000 L 179.694336 74.108398 Q 179.377441 74.645508 178.896729 74.900635 Q 178.416016 75.155762 177.728516 75.155762 Q 176.810059 75.155762 176.262207 74.637451 Q 175.714355 74.119141 175.714355 73.249023 Q 175.714355 72.244629 176.388428 71.723633 Q 177.062500 71.202637 178.367676 71.202637 L 179.694336 71.202637 L 179.694336 71.046875 Q 179.688965 70.327148 179.329102 70.002197 Q 178.969238 69.677246 178.179688 69.677246 Q 177.674805 69.677246 177.159180 69.822266 Q 176.643555 69.967285 176.154785 70.246582 L 176.154785 69.258301 Q 176.702637 69.048828 177.204834 68.944092 Q 177.707031 68.839355 178.179688 68.839355 Q 178.926270 68.839355 179.455322 69.059570 Q 179.984375 69.279785 180.312012 69.720215 Q 180.516113 69.988770 180.602051 70.383545 Q 180.687988 70.778320 180.687988 71.567871 Z " fill="rgb(0, 0, 0)" fill-opacity="1.000000" />
<path d="M 187.698730 74.693848 Q 187.301270 74.924805 186.879639 75.040283 Q 186.458008 75.155762 186.017578 75.155762 Q 184.621094 75.155762 183.834229 74.317871 Q 183.047363 73.479980 183.047363 71.997559 Q 183.047363 70.515137 183.834229 69.677246 Q 184.621094 68.839355 186.017578 68.839355 Q 186.452637 68.839355 186.866211 68.952148 Q 187.279785 69.064941 187.698730 69.301270 L 187.698730 70.337891 Q 187.306641 69.988770 186.911865 69.833008 Q 186.517090 69.677246 186.017578 69.677246 Q 185.088379 69.677246 184.588867 70.278809 Q 184.089355 70.880371 184.089355 71.997559 Q 184.089355 73.109375 184.591553 73.713623 Q 185.093750 74.317871 186.017578 74.317871 Q 186.533203 74.317871 186.941406 74.159424 Q 187.349609 74.000977 187.698730 73.667969 Z " fill="rgb(0, 0, 0)" fill-opacity="1.000000" />
<path d="M 192.297852 67.276367 L 192.297852 68.984375 L 194.542969 68.984375 L 194.542969 69.752441 L 192.297852 69.752441 L 192.297852 73.018066 Q 192.297852 73.684082 192.550293 73.947266 Q 192.802734 74.210449 193.431152 74.210449 L 194.542969 74.210449 L 194.542969 75.000000 L 193.334473 75.000000 Q 192.222656 75.000000 191.766113 74.554199 Q 191.309570 74.108398 191.309570 73.018066 L 191.309570 69.752441 L 189.703613 69.752441 L 189.703613 68.984375 L 191.309570 68.984375 L 191.309570 67.276367 Z " fill="rgb(0, 0, 0)" fill-opacity="1.000000" />
<path d="M 199.308594 69.677246 Q 198.556641 69.677246 198.169922 70.262695 Q 197.783203 70.848145 197.783203 71.997559 Q 197.783203 73.141602 198.169922 73.729736 Q 198.556641 74.317871 199.308594 74.317871 Q 200.065918 74.317871 200.452637 73.729736 Q 200.839355 73.141602 200.839355 71.997559 Q 200.839355 70.848145 200.452637 70.262695 Q 200.065918 69.677246 199.308594 69.677246 Z M 199.308594 68.839355 Q 200.560059 68.839355 201.223389 69.650391 Q 201.886719 70.461426 201.886719 71.997559 Q 201.886719 73.539062 201.226074 74.347412 Q 200.565430 75.155762 199.308594 75.155762 Q 198.057129 75.155762 197.396484 74.347412 Q 196.735840 73.539062 196.735840 71.997559 Q 196.735840 70.461426 197.396484 69.650391 Q 198.057129 68.839355 199.308594 68.839355 Z " fill="rgb(0, 0, 0)" fill-opacity="1.000000" />
<path d="M 209.203613 70.225098 Q 208.886719 69.978027 208.559082 69.865234 Q 208.231445 69.752441 207.839355 69.752441 Q 206.915527 69.752441 206.426758 70.332520 Q 205.937988 70.912598 205.937988 72.008301 L 205.937988 75.000000 L 204.944336 75.000000 L 204.944336 68.984375 L 205.937988 68.984375 L 205.937988 70.160645 Q 206.185059 69.521484 206.697998 69.180420 Q 207.210938 68.839355 207.914551 68.839355 Q 208.279785 68.839355 208.596680 68.930664 Q 208.913574 69.021973 209.203613 69.215332 Z " fill="rgb(0, 0, 0)" fill-opacity="1.000000" />
<path d="M 212.089355 72.830078 L 213.979980 72.830078 L 213.979980 75.000000 L 212.089355 75.000000 Z " fill="rgb(0, 0, 0)" fill-opacity="1.000000" />
<path d="M 221.608398 73.066406 Q 221.361328 73.694824 220.979980 74.720703 Q 220.448242 76.138672 220.265625 76.450195 Q 220.018555 76.869141 219.647949 77.078613 Q 219.277344 77.288086 218.783203 77.288086 L 217.988281 77.288086 L 217.988281 76.460938 L 218.573730 76.460938 Q 219.008789 76.460938 219.255859 76.208496 Q 219.502930 75.956055 219.884277 74.903320 L 217.558594 68.984375 L 218.605957 68.984375 L 220.389160 73.689453 L 222.145508 68.984375 L 223.192871 68.984375 Z " fill="rgb(0, 0, 0)" fill-opacity="1.000000" />
<path d="M 225.697266 69.005859 L 228.227051 69.005859 L 228.227051 74.231934 L 230.187500 74.231934 L 230.187500 75.000000 L 225.278320 75.000000 L 225.278320 74.231934 L 227.238770 74.231934 L 227.238770 69.773926 L 225.697266 69.773926 Z M 227.238770 66.669434 L 228.227051 66.669434 L 228.227051 67.915527 L 227.238770 67.915527 Z " fill="rgb(0, 0, 0)" fill-opacity="1.000000" />
<path d="M 237.015625 71.498047 L 237.015625 71.981445 L 232.734863 71.981445 L 232.734863 72.013672 Q 232.691895 73.243652 233.204834 73.780762 Q 233.717773 74.317871 234.652344 74.317871 Q 235.125000 74.317871 235.640625 74.167480 Q 236.156250 74.017090 236.741699 73.710938 L 236.741699 74.693848 Q 236.177734 74.924805 235.654053 75.040283 Q 235.130371 75.155762 234.641602 75.155762 Q 233.239746 75.155762 232.450195 74.315186 Q 231.660645 73.474609 231.660645 71.997559 Q 231.660645 70.558105 232.434082 69.698730 Q 233.207520 68.839355 234.496582 68.839355 Q 235.645996 68.839355 236.309326 69.618164 Q 236.972656 70.396973 237.015625 71.498047 Z M 236.027344 71.208008 Q 235.962891 70.584961 235.573486 70.131104 Q 235.184082 69.677246 234.453613 69.677246 Q 233.739258 69.677246 233.277344 70.149902 Q 232.815430 70.622559 232.772461 71.213379 Z " fill="rgb(0, 0, 0)" fill-opacity="1.000000" />
<path d="M 241.861816 72.824707 Q 241.861816 73.490723 242.106201 73.829102 Q 242.350586 74.167480 242.828613 74.167480 L 243.983398 74.167480 L 243.983398 75.000000 L 242.731934 75.000000 Q 241.845703 75.000000 241.359619 74.433350 Q 240.873535 73.866699 240.873535 72.824707 L 240.873535 67.383789 L 239.289062 67.383789 L 239.289062 66.610352 L 241.861816 66.610352 Z " fill="rgb(0, 0, 0)" fill-opacity="1.000000" />
<path d="M 249.608398 69.752441 L 249.608398 66.642578 L 250.596680 66.642578 L 250.596680 75.000000 L 249.608398 75.000000 L 249.608398 74.242676 Q 249.361328 74.688477 248.950439 74.922119 Q 248.539551 75.155762 248.002441 75.155762 Q 246.912109 75.155762 246.286377 74.309814 Q 245.660645 73.463867 245.660645 71.976074 Q 245.660645 70.509766 246.289062 69.674561 Q 246.917480 68.839355 248.002441 68.839355 Q 248.544922 68.839355 248.958496 69.072998 Q 249.372070 69.306641 249.608398 69.752441 Z M 246.702637 71.997559 Q 246.702637 73.146973 247.067871 73.732422 Q 247.433105 74.317871 248.147461 74.317871 Q 248.861816 74.317871 249.235107 73.727051 Q 249.608398 73.136230 249.608398 71.997559 Q 249.608398 70.853516 249.235107 70.265381 Q 248.861816 69.677246 248.147461 69.677246 Q 247.433105 69.677246 247.067871 70.262695 Q 246.702637 70.848145 246.702637 71.997559 Z " fill="rgb(0, 0, 0)" fill-opacity="1.000000" />
<path d="M 282.878906 78.319336 L 282.878906 71.412109 L 286.729980 71.412109 L 286.729980 72.335938 L 283.738281 72.335938 L 283.738281 78.319336 Z " fill="rgb(0, 0, 0)" fill-opacity="1.000000" />
<path d="M 293.892578 72.335938 L 293.892578 71.412109 L 300.729980 71.412109 L 300.729980 72.335938 Z " fill="rgb(0, 0, 0)" fill-opacity="1.000000" />
<path d="M 307.892578 72.335938 L 307.892578 71.412109 L 314.729980 71.412109 L 314.729980 72.335938 Z " fill="rgb(0, 0, 0)" fill-opacity="1.000000" />
<path d="M 321.892578 72.335938 L 321.892578 71.412109 L 328.729980 71.412109 L 328.729980 72.335938 Z " fill="rgb(0, 0, 0)" fill-opacity="1.000000" />
<path d="M 335.892578 72.335938 L 335.892578 71.412109 L 342.729980 71.412109 L 342.729980 72.335938 Z " fill="rgb(0, 0, 0)" fill-opacity="1.000000" />
<path d="M 349.892578 72.335938 L 349.892578 71.412109 L 356.729980 71.412109 L 356.729980 72.335938 Z " fill="rgb(0, 0, 0)" fill-opacity="1.000000" />
<path d="M 363.892578 72.335938 L 363.892578 71.412109 L 370.729980 71.412109 L 370.729980 72.335938 Z " fill="rgb(0, 0, 0)" fill-opacity="1.000000" />
<path d="M 377.892578 72.335938 L 377.892578 71.412109 L 384.729980 71.412109 L 384.729980 72.335938 Z " fill="rgb(0, 0, 0)" fill-opacity="1.000000" />
<path d="M 401.449219 78.319336 L 401.449219 64.300781 L 403.167969 64.300781 L 403.167969 78.319336 Z " fill="rgb(0, 0, 0)" fill-opacity="1.000000" />
<path d="M 446.226074 69.193848 L 446.226074 70.160645 Q 445.801758 69.913574 445.372070 69.790039 Q 444.942383 69.666504 444.496582 69.666504 Q 443.825195 69.666504 443.494873 69.884033 Q 443.164551 70.101562 443.164551 70.547363 Q 443.164551 70.950195 443.411621 71.148926 Q 443.658691 71.347656 444.641602 71.535645 L 445.039062 71.610840 Q 445.774902 71.750488 446.153564 72.169434 Q 446.532227 72.588379 446.532227 73.259766 Q 446.532227 74.151367 445.898438 74.653564 Q 445.264648 75.155762 444.136719 75.155762 Q 443.690918 75.155762 443.202148 75.061768 Q 442.713379 74.967773 442.144043 74.779785 L 442.144043 73.759277 Q 442.697266 74.043945 443.202148 74.186279 Q 443.707031 74.328613 444.158203 74.328613 Q 444.813477 74.328613 445.173340 74.062744 Q 445.533203 73.796875 445.533203 73.318848 Q 445.533203 72.631348 444.217285 72.368164 L 444.174316 72.357422 L 443.803711 72.282227 Q 442.949707 72.115723 442.557617 71.720947 Q 442.165527 71.326172 442.165527 70.644043 Q 442.165527 69.779297 442.750977 69.309326 Q 443.336426 68.839355 444.421387 68.839355 Q 444.904785 68.839355 445.350586 68.927979 Q 445.796387 69.016602 446.226074 69.193848 Z " fill="rgb(0, 0, 0)" fill-opacity="1.000000" />
<path d="M 454.015625 71.498047 L 454.015625 71.981445 L 449.734863 71.981445 L 449.734863 72.013672 Q 449.691895 73.243652 450.204834 73.780762 Q 450.717773 74.317871 451.652344 74.317871 Q 452.125000 74.317871 452.640625 74.167480 Q 453.156250 74.017090 453.741699 73.710938 L 453.741699 74.693848 Q 453.177734 74.924805 452.654053 75.040283 Q 452.130371 75.155762 451.641602 75.155762 Q 450.239746 75.155762 449.450195 74.315186 Q 448.660645 73.474609 448.660645 71.997559 Q 448.660645 70.558105 449.434082 69.698730 Q 450.207520 68.839355 451.496582 68.839355 Q 452.645996 68.839355 453.309326 69.618164 Q 453.972656 70.396973 454.015625 71.498047 Z M 453.027344 71.208008 Q 452.962891 70.584961 452.573486 70.131104 Q 452.184082 69.677246 451.453613 69.677246 Q 450.739258 69.677246 450.277344 70.149902 Q 449.815430 70.622559 449.772461 71.213379 Z " fill="rgb(0, 0, 0)" fill-opacity="1.000000" />
<path d="M 460.645020 71.272461 L 460.645020 75.000000 L 459.651367 75.000000 L 459.651367 71.272461 Q 459.651367 70.461426 459.366699 70.080078 Q 459.082031 69.698730 458.475098 69.698730 Q 457.782227 69.698730 457.408936 70.190186 Q 457.035645 70.681641 457.035645 71.600098 L 457.035645 75.000000 L 456.047363 75.000000 L 456.047363 68.984375 L 457.035645 68.984375 L 457.035645 69.886719 Q 457.298828 69.371094 457.750000 69.105225 Q 458.201172 68.839355 458.818848 68.839355 Q 459.737305 68.839355 460.191162 69.443604 Q 460.645020 70.047852 460.645020 71.272461 Z " fill="rgb(0, 0, 0)" fill-opacity="1.000000" />
<path d="M 466.608398 69.752441 L 466.608398 66.642578 L 467.596680 66.642578 L 467.596680 75.000000 L 466.608398 75.000000 L 466.608398 74.242676 Q 466.361328 74.688477 465.950439 74.922119 Q 465.539551 75.155762 465.002441 75.155762 Q 463.912109 75.155762 463.286377 74.309814 Q 462.660645 73.463867 462.660645 71.976074 Q 462.660645 70.509766 463.289062 69.674561 Q 463.917480 68.839355 465.002441 68.839355 Q 465.544922 68.839355 465.958496 69.072998 Q 466.372070 69.306641 466.608398 69.752441 Z M 463.702637 71.997559 Q 463.702637 73.146973 464.067871 73.732422 Q 464.433105 74.317871 465.147461 74.317871 Q 465.861816 74.317871 466.235107 73.727051 Q 466.608398 73.136230 466.608398 71.997559 Q 466.608398 70.853516 466.235107 70.265381 Q 465.861816 69.677246 465.147461 69.677246 Q 464.433105 69.677246 464.067871 70.262695 Q 463.702637 70.848145 463.702637 71.997559 Z " fill="rgb(0, 0, 0)" fill-opacity="1.000000" />
<path d="M 475.015625 71.498047 L 475.015625 71.981445 L 470.734863 71.981445 L 470.734863 72.013672 Q 470.691895 73.243652 471.204834 73.780762 Q 471.717773 74.317871 472.652344 74.317871 Q 473.125000 74.317871 473.640625 74.167480 Q 474.156250 74.017090 474.741699 73.710938 L 474.741699 74.693848 Q 474.177734 74.924805 473.654053 75.040283 Q 473.130371 75.155762 472.641602 75.155762 Q 471.239746 75.155762 470.450195 74.315186 Q 469.660645 73.474609 469.660645 71.997559 Q 469.660645 70.558105 470.434082 69.698730 Q 471.207520 68.839355 472.496582 68.839355 Q 473.645996 68.839355 474.309326 69.618164 Q 474.972656 70.396973 475.015625 71.498047 Z M 474.027344 71.208008 Q 473.962891 70.584961 473.573486 70.131104 Q 473.184082 69.677246 472.453613 69.677246 Q 471.739258 69.677246 471.277344 70.149902 Q 470.815430 70.622559 470.772461 71.213379 Z " fill="rgb(0, 0, 0)" fill-opacity="1.000000" />
<path d="M 482.203613 70.225098 Q 481.886719 69.978027 481.559082 69.865234 Q 481.231445 69.752441 480.839355 69.752441 Q 479.915527 69.752441 479.426758 70.332520 Q 478.937988 70.912598 478.937988 72.008301 L 478.937988 75.000000 L 477.944336 75.000000 L 477.944336 68.984375 L 478.937988 68.984375 L 478.937988 70.160645 Q 479.185059 69.521484 479.697998 69.180420 Q 480.210938 68.839355 480.914551 68.839355 Q 481.279785 68.839355 481.596680 68.930664 Q 481.913574 69.021973 482.203613 69.215332 Z " fill="rgb(0, 0, 0)" fill-opacity="1.000000" />
<path d="M 485.089355 72.830078 L 486.979980 72.830078 L 486.979980 75.000000 L 485.089355 75.000000 Z " fill="rgb(0, 0, 0)" fill-opacity="1.000000" />
<path d="M 493.297852 67.276367 L 493.297852 68.984375 L 495.542969 68.984375 L 495.542969 69.752441 L 493.297852 69.752441 L 493.297852 73.018066 Q 493.297852 73.684082 493.550293 73.947266 Q 493.802734 74.210449 494.431152 74.210449 L 495.542969 74.210449 L 495.542969 75.000000 L 494.334473 75.000000 Q 493.222656 75.000000 492.766113 74.554199 Q 492.309570 74.108398 492.309570 73.018066 L 492.309570 69.752441 L 490.703613 69.752441 L 490.703613 68.984375 L 492.309570 68.984375 L 492.309570 67.276367 Z " fill="rgb(0, 0, 0)" fill-opacity="1.000000" />
<path d="M 500.770508 71.976074 L 500.442871 71.976074 Q 499.578125 71.976074 499.140381 72.279541 Q 498.702637 72.583008 498.702637 73.184570 Q 498.702637 73.727051 499.030273 74.027832 Q 499.357910 74.328613 499.937988 74.328613 Q 500.754395 74.328613 501.221680 73.761963 Q 501.688965 73.195312 501.694336 72.196289 L 501.694336 71.976074 Z M 502.687988 71.567871 L 502.687988 75.000000 L 501.694336 75.000000 L 501.694336 74.108398 Q 501.377441 74.645508 500.896729 74.900635 Q 500.416016 75.155762 499.728516 75.155762 Q 498.810059 75.155762 498.262207 74.637451 Q 497.714355 74.119141 497.714355 73.249023 Q 497.714355 72.244629 498.388428 71.723633 Q 499.062500 71.202637 500.367676 71.202637 L 501.694336 71.202637 L 501.694336 71.046875 Q 501.688965 70.327148 501.329102 70.002197 Q 500.969238 69.677246 500.179688 69.677246 Q 499.674805 69.677246 499.159180 69.822266 Q 498.643555 69.967285 498.154785 70.246582 L 498.154785 69.258301 Q 498.702637 69.048828 499.204834 68.944092 Q 499.707031 68.839355 500.179688 68.839355 Q 500.926270 68.839355 501.455322 69.059570 Q 501.984375 69.279785 502.312012 69.720215 Q 502.516113 69.988770 502.602051 70.383545 Q 502.687988 70.778320 502.687988 71.567871 Z " fill="rgb(0, 0, 0)" fill-opacity="1.000000" />
<path d="M 505.267578 66.642578 L 506.288086 66.642578 L 506.288086 71.481934 L 508.882324 68.984375 L 510.085449 68.984375 L 507.716797 71.250977 L 510.456055 75.000000 L 509.247559 75.000000 L 507.023926 71.895508 L 506.288086 72.588379 L 506.288086 75.000000 L 505.267578 75.000000 Z " fill="rgb(0, 0, 0)" fill-opacity="1.000000" />
<path d="M 517.015625 71.498047 L 517.015625 71.981445 L 512.734863 71.981445 L 512.734863 72.013672 Q 512.691895 73.243652 513.204834 73.780762 Q 513.717773 74.317871 514.652344 74.317871 Q 515.125000 74.317871 515.640625 74.167480 Q 516.156250 74.017090 516.741699 73.710938 L 516.741699 74.693848 Q 516.177734 74.924805 515.654053 75.040283 Q 515.130371 75.155762 514.641602 75.155762 Q 513.239746 75.155762 512.450195 74.315186 Q 511.660645 73.474609 511.660645 71.997559 Q 511.660645 70.558105 512.434082 69.698730 Q 513.207520 68.839355 514.496582 68.839355 Q 515.645996 68.839355 516.309326 69.618164 Q 516.972656 70.396973 517.015625 71.498047 Z M 516.027344 71.208008 Q 515.962891 70.584961 515.573486 70.131104 Q 515.184082 69.677246 514.453613 69.677246 Q 513.739258 69.677246 513.277344 70.149902 Q 512.815430 70.622559 512.772461 71.213379 Z " fill="rgb(0, 0, 0)" fill-opacity="1.000000" />
<path d="M 23.143066 41.872559 L 23.143066 44.885742 L 24.399902 44.885742 Q 25.151855 44.885742 25.573486 44.488281 Q 25.995117 44.090820 25.995117 43.376465 Q 25.995117 42.662109 25.576172 42.267334 Q 25.157227 41.872559 24.399902 41.872559 Z M 22.058105 40.980957 L 24.399902 40.980957 Q 25.742676 40.980957 26.435547 41.590576 Q 27.128418 42.200195 27.128418 43.376465 Q 27.128418 44.563477 26.438232 45.170410 Q 25.748047 45.777344 24.399902 45.777344 L 23.143066 45.777344 L 23.143066 49.000000 L 22.058105 49.000000 Z " fill="rgb(0, 0, 0)" fill-opacity="1.000000" />
<path d="M 21.193359 54.007812 L 22.643555 54.007812 L 24.029297 58.079102 L 25.425781 54.007812 L 26.881348 54.007812 L 26.881348 62.000000 L 25.876953 62.000000 L 25.876953 54.937012 L 24.448242 59.147949 L 23.626465 59.147949 L 22.192383 54.937012 L 22.192383 62.000000 L 21.193359 62.000000 Z " fill="rgb(0, 0, 0)" fill-opacity="1.000000" />
<path d="M 32.860840 57.998535 Q 32.860840 56.231445 32.498291 55.474121 Q 32.135742 54.716797 31.308594 54.716797 Q 30.486816 54.716797 30.124268 55.474121 Q 29.761719 56.231445 29.761719 57.998535 Q 29.761719 59.760254 30.124268 60.517578 Q 30.486816 61.274902 31.308594 61.274902 Q 32.135742 61.274902 32.498291 60.520264 Q 32.860840 59.765625 32.860840 57.998535 Z M 33.994141 57.998535 Q 33.994141 60.093262 33.330811 61.124512 Q 32.667480 62.155762 31.308594 62.155762 Q 29.949707 62.155762 29.289062 61.129883 Q 28.628418 60.104004 28.628418 57.998535 Q 28.628418 55.898438 29.291748 54.867188 Q 29.955078 53.835938 31.308594 53.835938 Q 32.667480 53.835938 33.330811 54.867188 Q 33.994141 55.898438 33.994141 57.998535 Z " fill="rgb(0, 0, 0)" fill-opacity="1.000000" />
<path d="M 37.341797 61.108398 Q 38.711426 61.108398 39.253906 60.434326 Q 39.796387 59.760254 39.796387 57.998535 Q 39.796387 56.220703 39.256592 55.546631 Q 38.716797 54.872559 37.341797 54.872559 L 36.826172 54.872559 L 36.826172 61.108398 Z M 37.363281 53.980957 Q 39.200195 53.980957 40.070312 54.958496 Q 40.940430 55.936035 40.940430 57.998535 Q 40.940430 60.050293 40.070312 61.025146 Q 39.200195 62.000000 37.363281 62.000000 L 35.735840 62.000000 L 35.735840 53.980957 Z " fill="rgb(0, 0, 0)" fill-opacity="1.000000" />
<path d="M 43.058105 53.980957 L 47.816895 53.980957 L 47.816895 54.894043 L 44.143066 54.894043 L 44.143066 57.053223 L 47.655762 57.053223 L 47.655762 57.966309 L 44.143066 57.966309 L 44.143066 61.086914 L 47.918945 61.086914 L 47.918945 62.000000 L 43.058105 62.000000 Z " fill="rgb(0, 0, 0)" fill-opacity="1.000000" />
<path d="M 50.154785 53.980957 L 51.245117 53.980957 L 51.245117 61.086914 L 55.117676 61.086914 L 55.117676 62.000000 L 50.154785 62.000000 Z " fill="rgb(0, 0, 0)" fill-opacity="1.000000" />
<path d="M 72.878906 65.319336 L 72.878906 51.300781 L 73.738281 51.300781 L 73.738281 65.319336 Z " fill="rgb(0, 0, 0)" fill-opacity="1.000000" />
<path d="M 82.016602 64.750000 L 82.016602 63.348145 L 82.875977 63.348145 L 82.875977 64.750000 Z M 78.600586 64.750000 L 78.600586 63.348145 L 79.454590 63.348145 L 79.454590 64.750000 Z M 80.308594 62.789551 L 80.308594 61.387695 L 81.162598 61.387695 L 81.162598 62.789551 Z M 76.892578 62.789551 L 76.892578 61.387695 L 77.741211 61.387695 L 77.741211 62.789551 Z M 82.016602 60.823730 L 82.016602 59.421875 L 82.875977 59.421875 L 82.875977 60.823730 Z M 78.600586 60.823730 L 78.600586 59.421875 L 79.454590 59.421875 L 79.454590 60.823730 Z M 80.308594 58.863281 L 80.308594 57.461426 L 81.162598 57.461426 L 81.162598 58.863281 Z M 76.892578 58.863281 L 76.892578 57.461426 L 77.741211 57.461426 L 77.741211 58.863281 Z M 82.016602 56.897461 L 82.016602 55.495605 L 82.875977 55.495605 L 82.875977 56.897461 Z M 78.600586 56.897461 L 78.600586 55.495605 L 79.454590 55.495605 L 79.454590 56.897461 Z M 80.308594 54.937012 L 80.308594 53.535156 L 81.162598 53.535156 L 81.162598 54.937012 Z M 76.892578 54.937012 L 76.892578 53.535156 L 77.741211 53.535156 L 77.741211 54.937012 Z " fill="rgb(0, 0, 0)" fill-opacity="1.000000" />
<path d="M 135.449219 65.319336 L 135.449219 51.300781 L 137.167969 51.300781 L 137.167969 65.319336 Z " fill="rgb(0, 0, 0)" fill-opacity="1.000000" />
<path d="M 305.592285 53.116211 Q 304.877930 54.340820 304.526123 55.557373 Q 304.174316 56.773926 304.174316 58.009277 Q 304.174316 59.239258 304.526123 60.458496 Q 304.877930 61.677734 305.592285 62.913086 L 304.732910 62.913086 Q 303.921875 61.634766 303.524414 60.423584 Q 303.126953 59.212402 303.126953 58.009277 Q 303.126953 56.811523 303.524414 55.597656 Q 303.921875 54.383789 304.732910 53.116211 Z " fill="rgb(0, 0, 0)" fill-opacity="1.000000" />
<path d="M 312.930664 58.997559 Q 312.930664 57.848145 312.565430 57.262695 Q 312.200195 56.677246 311.485840 56.677246 Q 310.766113 56.677246 310.395508 57.265381 Q 310.024902 57.853516 310.024902 58.997559 Q 310.024902 60.136230 310.395508 60.727051 Q 310.766113 61.317871 311.485840 61.317871 Q 312.200195 61.317871 312.565430 60.732422 Q 312.930664 60.146973 312.930664 58.997559 Z M 310.024902 56.752441 Q 310.261230 56.312012 310.677490 56.075684 Q 311.093750 55.839355 311.641602 55.839355 Q 312.726562 55.839355 313.349609 56.674561 Q 313.972656 57.509766 313.972656 58.976074 Q 313.972656 60.463867 313.346924 61.309814 Q 312.721191 62.155762 311.630859 62.155762 Q 311.093750 62.155762 310.682861 61.922119 Q 310.271973 61.688477 310.024902 61.242676 L 310.024902 62.000000 L 309.036621 62.000000 L 309.036621 53.642578 L 310.024902 53.642578 Z " fill="rgb(0, 0, 0)" fill-opacity="1.000000" />
<path d="M 318.861816 59.824707 Q 318.861816 60.490723 319.106201 60.829102 Q 319.350586 61.167480 319.828613 61.167480 L 320.983398 61.167480 L 320.983398 62.000000 L 319.731934 62.000000 Q 318.845703 62.000000 318.359619 61.433350 Q 317.873535 60.866699 317.873535 59.824707 L 317.873535 54.383789 L 316.289062 54.383789 L 316.289062 53.610352 L 318.861816 53.610352 Z " fill="rgb(0, 0, 0)" fill-opacity="1.000000" />
<path d="M 325.308594 56.677246 Q 324.556641 56.677246 324.169922 57.262695 Q 323.783203 57.848145 323.783203 58.997559 Q 323.783203 60.141602 324.169922 60.729736 Q 324.556641 61.317871 325.308594 61.317871 Q 326.065918 61.317871 326.452637 60.729736 Q 326.839355 60.141602 326.839355 58.997559 Q 326.839355 57.848145 326.452637 57.262695 Q 326.065918 56.677246 325.308594 56.677246 Z M 325.308594 55.839355 Q 326.560059 55.839355 327.223389 56.650391 Q 327.886719 57.461426 327.886719 58.997559 Q 327.886719 60.539062 327.226074 61.347412 Q 326.565430 62.155762 325.308594 62.155762 Q 324.057129 62.155762 323.396484 61.347412 Q 322.735840 60.539062 322.735840 58.997559 Q 322.735840 57.461426 323.396484 56.650391 Q 324.057129 55.839355 325.308594 55.839355 Z " fill="rgb(0, 0, 0)" fill-opacity="1.000000" />
<path d="M 334.698730 61.693848 Q 334.301270 61.924805 333.879639 62.040283 Q 333.458008 62.155762 333.017578 62.155762 Q 331.621094 62.155762 330.834229 61.317871 Q 330.047363 60.479980 330.047363 58.997559 Q 330.047363 57.515137 330.834229 56.677246 Q 331.621094 55.839355 333.017578 55.839355 Q 333.452637 55.839355 333.866211 55.952148 Q 334.279785 56.064941 334.698730 56.301270 L 334.698730 57.337891 Q 334.306641 56.988770 333.911865 56.833008 Q 333.517090 56.677246 333.017578 56.677246 Q 332.088379 56.677246 331.588867 57.278809 Q 331.089355 57.880371 331.089355 58.997559 Q 331.089355 60.109375 331.591553 60.713623 Q 332.093750 61.317871 333.017578 61.317871 Q 333.533203 61.317871 333.941406 61.159424 Q 334.349609 61.000977 334.698730 60.667969 Z " fill="rgb(0, 0, 0)" fill-opacity="1.000000" />
<path d="M 337.267578 53.642578 L 338.288086 53.642578 L 338.288086 58.481934 L 340.882324 55.984375 L 342.085449 55.984375 L 339.716797 58.250977 L 342.456055 62.000000 L 341.247559 62.000000 L 339.023926 58.895508 L 338.288086 59.588379 L 338.288086 62.000000 L 337.267578 62.000000 Z " fill="rgb(0, 0, 0)" fill-opacity="1.000000" />
<path d="M 344.697266 56.005859 L 347.227051 56.005859 L 347.227051 61.231934 L 349.187500 61.231934 L 349.187500 62.000000 L 344.278320 62.000000 L 344.278320 61.231934 L 346.238770 61.231934 L 346.238770 56.773926 L 344.697266 56.773926 Z M 346.238770 53.669434 L 347.227051 53.669434 L 347.227051 54.915527 L 346.238770 54.915527 Z " fill="rgb(0, 0, 0)" fill-opacity="1.000000" />
<path d="M 355.645020 58.272461 L 355.645020 62.000000 L 354.651367 62.000000 L 354.651367 58.272461 Q 354.651367 57.461426 354.366699 57.080078 Q 354.082031 56.698730 353.475098 56.698730 Q 352.782227 56.698730 352.408936 57.190186 Q 352.035645 57.681641 352.035645 58.600098 L 352.035645 62.000000 L 351.047363 62.000000 L 351.047363 55.984375 L 352.035645 55.984375 L 352.035645 56.886719 Q 352.298828 56.371094 352.750000 56.105225 Q 353.201172 55.839355 353.818848 55.839355 Q 354.737305 55.839355 355.191162 56.443604 Q 355.645020 57.047852 355.645020 58.272461 Z " fill="rgb(0, 0, 0)" fill-opacity="1.000000" />
<path d="M 361.608398 58.943848 Q 361.608398 57.832031 361.245850 57.254639 Q 360.883301 56.677246 360.190430 56.677246 Q 359.465332 56.677246 359.083984 57.254639 Q 358.702637 57.832031 358.702637 58.943848 Q 358.702637 60.055664 359.086670 60.638428 Q 359.470703 61.221191 360.201172 61.221191 Q 360.883301 61.221191 361.245850 60.635742 Q 361.608398 60.050293 361.608398 58.943848 Z M 362.596680 61.613281 Q 362.596680 62.966797 361.957520 63.665039 Q 361.318359 64.363281 360.077637 64.363281 Q 359.669434 64.363281 359.223633 64.288086 Q 358.777832 64.212891 358.332031 64.067871 L 358.332031 63.090332 Q 358.858398 63.337402 359.288086 63.455566 Q 359.717773 63.573730 360.077637 63.573730 Q 360.877930 63.573730 361.243164 63.138672 Q 361.608398 62.703613 361.608398 61.758301 L 361.608398 61.715332 L 361.608398 61.043945 Q 361.372070 61.548828 360.963867 61.795898 Q 360.555664 62.042969 359.970215 62.042969 Q 358.917480 62.042969 358.289062 61.199707 Q 357.660645 60.356445 357.660645 58.943848 Q 357.660645 57.525879 358.289062 56.682617 Q 358.917480 55.839355 359.970215 55.839355 Q 360.550293 55.839355 360.953125 56.070312 Q 361.355957 56.301270 361.608398 56.784668 L 361.608398 56.005859 L 362.596680 56.005859 Z " fill="rgb(0, 0, 0)" fill-opacity="1.000000" />
<path d="M 365.869141 53.116211 L 366.728516 53.116211 Q 367.539551 54.383789 367.937012 55.597656 Q 368.334473 56.811523 368.334473 58.009277 Q 368.334473 59.217773 367.937012 60.431641 Q 367.539551 61.645508 366.728516 62.913086 L 365.869141 62.913086 Q 366.583496 61.666992 366.935303 60.447754 Q 367.287109 59.228516 367.287109 58.009277 Q 367.287109 56.784668 366.935303 55.565430 Q 366.583496 54.346191 365.869141 53.116211 Z " fill="rgb(0, 0, 0)" fill-opacity="1.000000" />
<path d="M 401.449219 65.319336 L 401.449219 51.300781 L 403.167969 51.300781 L 403.167969 65.319336 Z " fill="rgb(0, 0, 0)" fill-opacity="1.000000" />
<path d="M 28.789551 45.922363 L 28.789551 40.980957 L 29.879883 40.980957 L 29.879883 46.416504 Q 29.879883 47.001953 29.912109 47.251709 Q 29.944336 47.501465 30.024902 47.635742 Q 30.196777 47.952637 30.521729 48.113770 Q 30.846680 48.274902 31.308594 48.274902 Q 31.775879 48.274902 32.098145 48.113770 Q 32.420410 47.952637 32.597656 47.635742 Q 32.678223 47.501465 32.710449 47.254395 Q 32.742676 47.007324 32.742676 46.427246 L 32.742676 40.980957 L 33.827637 40.980957 L 33.827637 45.922363 Q 33.827637 47.152344 33.674561 47.670654 Q 33.521484 48.188965 33.145508 48.527344 Q 32.791016 48.844238 32.334473 49.000000 Q 31.877930 49.155762 31.308594 49.155762 Q 30.744629 49.155762 30.288086 49.000000 Q 29.831543 48.844238 29.471680 48.527344 Q 29.101074 48.194336 28.945312 47.665283 Q 28.789551 47.136230 28.789551 45.922363 Z " fill="rgb(0, 0, 0)" fill-opacity="1.000000" />
<path d="M 36.154785 40.980957 L 37.245117 40.980957 L 37.245117 48.086914 L 41.117676 48.086914 L 41.117676 49.000000 L 36.154785 49.000000 Z " fill="rgb(0, 0, 0)" fill-opacity="1.000000" />
<path d="M 43.154785 40.980957 L 44.245117 40.980957 L 44.245117 48.086914 L 48.117676 48.086914 L 48.117676 49.000000 L 43.154785 49.000000 Z " fill="rgb(0, 0, 0)" fill-opacity="1.000000" />
<path d="M 72.878906 52.319336 L 72.878906 38.300781 L 73.738281 38.300781 L 73.738281 52.319336 Z " fill="rgb(0, 0, 0)" fill-opacity="1.000000" />
<path d="M 82.016602 51.750000 L 82.016602 50.348145 L 82.875977 50.348145 L 82.875977 51.750000 Z M 78.600586 51.750000 L 78.600586 50.348145 L 79.454590 50.348145 L 79.454590 51.750000 Z M 80.308594 49.789551 L 80.308594 48.387695 L 81.162598 48.387695 L 81.162598 49.789551 Z M 76.892578 49.789551 L 76.892578 48.387695 L 77.741211 48.387695 L 77.741211 49.789551 Z M 82.016602 47.823730 L 82.016602 46.421875 L 82.875977 46.421875 L 82.875977 47.823730 Z M 78.600586 47.823730 L 78.600586 46.421875 L 79.454590 46.421875 L 79.454590 47.823730 Z M 80.308594 45.863281 L 80.308594 44.461426 L 81.162598 44.461426 L 81.162598 45.863281 Z M 76.892578 45.863281 L 76.892578 44.461426 L 77.741211 44.461426 L 77.741211 45.863281 Z M 82.016602 43.897461 L 82.016602 42.495605 L 82.875977 42.495605 L 82.875977 43.897461 Z M 78.600586 43.897461 L 78.600586 42.495605 L 79.454590 42.495605 L 79.454590 43.897461 Z M 80.308594 41.937012 L 80.308594 40.535156 L 81.162598 40.535156 L 81.162598 41.937012 Z M 76.892578 41.937012 L 76.892578 40.535156 L 77.741211 40.535156 L 77.741211 41.937012 Z " fill="rgb(0, 0, 0)" fill-opacity="1.000000" />
<path d="M 135.449219 52.319336 L 135.449219 38.300781 L 137.167969 38.300781 L 137.167969 52.319336 Z " fill="rgb(0, 0, 0)" fill-opacity="1.000000" />
<path d="M 290.308594 43.677246 Q 289.556641 43.677246 289.169922 44.262695 Q 288.783203 44.848145 288.783203 45.997559 Q 288.783203 47.141602 289.169922 47.729736 Q 289.556641 48.317871 290.308594 48.317871 Q 291.065918 48.317871 291.452637 47.729736 Q 291.839355 47.141602 291.839355 45.997559 Q 291.839355 44.848145 291.452637 44.262695 Q 291.065918 43.677246 290.308594 43.677246 Z M 290.308594 42.839355 Q 291.560059 42.839355 292.223389 43.650391 Q 292.886719 44.461426 292.886719 45.997559 Q 292.886719 47.539062 292.226074 48.347412 Q 291.565430 49.155762 290.308594 49.155762 Q 289.057129 49.155762 288.396484 48.347412 Q 287.735840 47.539062 287.735840 45.997559 Q 287.735840 44.461426 288.396484 43.650391 Q 289.057129 42.839355 290.308594 42.839355 Z " fill="rgb(0, 0, 0)" fill-opacity="1.000000" />
<path d="M 295.047363 46.722656 L 295.047363 42.995117 L 296.035645 42.995117 L 296.035645 46.722656 Q 296.035645 47.533691 296.322998 47.915039 Q 296.610352 48.296387 297.211914 48.296387 Q 297.910156 48.296387 298.280762 47.804932 Q 298.651367 47.313477 298.651367 46.395020 L 298.651367 42.995117 L 299.645020 42.995117 L 299.645020 49.000000 L 298.651367 49.000000 L 298.651367 48.097656 Q 298.388184 48.618652 297.934326 48.887207 Q 297.480469 49.155762 296.873535 49.155762 Q 295.949707 49.155762 295.498535 48.551514 Q 295.047363 47.947266 295.047363 46.722656 Z " fill="rgb(0, 0, 0)" fill-opacity="1.000000" />
<path d="M 304.297852 41.276367 L 304.297852 42.984375 L 306.542969 42.984375 L 306.542969 43.752441 L 304.297852 43.752441 L 304.297852 47.018066 Q 304.297852 47.684082 304.550293 47.947266 Q 304.802734 48.210449 305.431152 48.210449 L 306.542969 48.210449 L 306.542969 49.000000 L 305.334473 49.000000 Q 304.222656 49.000000 303.766113 48.554199 Q 303.309570 48.108398 303.309570 47.018066 L 303.309570 43.752441 L 301.703613 43.752441 L 301.703613 42.984375 L 303.309570 42.984375 L 303.309570 41.276367 Z " fill="rgb(0, 0, 0)" fill-opacity="1.000000" />
<path d="M 312.608398 45.943848 Q 312.608398 44.832031 312.245850 44.254639 Q 311.883301 43.677246 311.190430 43.677246 Q 310.465332 43.677246 310.083984 44.254639 Q 309.702637 44.832031 309.702637 45.943848 Q 309.702637 47.055664 310.086670 47.638428 Q 310.470703 48.221191 311.201172 48.221191 Q 311.883301 48.221191 312.245850 47.635742 Q 312.608398 47.050293 312.608398 45.943848 Z M 313.596680 48.613281 Q 313.596680 49.966797 312.957520 50.665039 Q 312.318359 51.363281 311.077637 51.363281 Q 310.669434 51.363281 310.223633 51.288086 Q 309.777832 51.212891 309.332031 51.067871 L 309.332031 50.090332 Q 309.858398 50.337402 310.288086 50.455566 Q 310.717773 50.573730 311.077637 50.573730 Q 311.877930 50.573730 312.243164 50.138672 Q 312.608398 49.703613 312.608398 48.758301 L 312.608398 48.715332 L 312.608398 48.043945 Q 312.372070 48.548828 311.963867 48.795898 Q 311.555664 49.042969 310.970215 49.042969 Q 309.917480 49.042969 309.289062 48.199707 Q 308.660645 47.356445 308.660645 45.943848 Q 308.660645 44.525879 309.289062 43.682617 Q 309.917480 42.839355 310.970215 42.839355 Q 311.550293 42.839355 311.953125 43.070312 Q 312.355957 43.301270 312.608398 43.784668 L 312.608398 43.005859 L 313.596680 43.005859 Z " fill="rgb(0, 0, 0)" fill-opacity="1.000000" />
<path d="M 318.308594 43.677246 Q 317.556641 43.677246 317.169922 44.262695 Q 316.783203 44.848145 316.783203 45.997559 Q 316.783203 47.141602 317.169922 47.729736 Q 317.556641 48.317871 318.308594 48.317871 Q 319.065918 48.317871 319.452637 47.729736 Q 319.839355 47.141602 319.839355 45.997559 Q 319.839355 44.848145 319.452637 44.262695 Q 319.065918 43.677246 318.308594 43.677246 Z M 318.308594 42.839355 Q 319.560059 42.839355 320.223389 43.650391 Q 320.886719 44.461426 320.886719 45.997559 Q 320.886719 47.539062 320.226074 48.347412 Q 319.565430 49.155762 318.308594 49.155762 Q 317.057129 49.155762 316.396484 48.347412 Q 315.735840 47.539062 315.735840 45.997559 Q 315.735840 44.461426 316.396484 43.650391 Q 317.057129 42.839355 318.308594 42.839355 Z " fill="rgb(0, 0, 0)" fill-opacity="1.000000" />
<path d="M 323.697266 43.005859 L 326.227051 43.005859 L 326.227051 48.231934 L 328.187500 48.231934 L 328.187500 49.000000 L 323.278320 49.000000 L 323.278320 48.231934 L 325.238770 48.231934 L 325.238770 43.773926 L 323.697266 43.773926 Z M 325.238770 40.669434 L 326.227051 40.669434 L 326.227051 41.915527 L 325.238770 41.915527 Z " fill="rgb(0, 0, 0)" fill-opacity="1.000000" />
<path d="M 334.645020 45.272461 L 334.645020 49.000000 L 333.651367 49.000000 L 333.651367 45.272461 Q 333.651367 44.461426 333.366699 44.080078 Q 333.082031 43.698730 332.475098 43.698730 Q 331.782227 43.698730 331.408936 44.190186 Q 331.035645 44.681641 331.035645 45.600098 L 331.035645 49.000000 L 330.047363 49.000000 L 330.047363 42.984375 L 331.035645 42.984375 L 331.035645 43.886719 Q 331.298828 43.371094 331.750000 43.105225 Q 332.201172 42.839355 332.818848 42.839355 Q 333.737305 42.839355 334.191162 43.443604 Q 334.645020 44.047852 334.645020 45.272461 Z " fill="rgb(0, 0, 0)" fill-opacity="1.000000" />
<path d="M 340.608398 45.943848 Q 340.608398 44.832031 340.245850 44.254639 Q 339.883301 43.677246 339.190430 43.677246 Q 338.465332 43.677246 338.083984 44.254639 Q 337.702637 44.832031 337.702637 45.943848 Q 337.702637 47.055664 338.086670 47.638428 Q 338.470703 48.221191 339.201172 48.221191 Q 339.883301 48.221191 340.245850 47.635742 Q 340.608398 47.050293 340.608398 45.943848 Z M 341.596680 48.613281 Q 341.596680 49.966797 340.957520 50.665039 Q 340.318359 51.363281 339.077637 51.363281 Q 338.669434 51.363281 338.223633 51.288086 Q 337.777832 51.212891 337.332031 51.067871 L 337.332031 50.090332 Q 337.858398 50.337402 338.288086 50.455566 Q 338.717773 50.573730 339.077637 50.573730 Q 339.877930 50.573730 340.243164 50.138672 Q 340.608398 49.703613 340.608398 48.758301 L 340.608398 48.715332 L 340.608398 48.043945 Q 340.372070 48.548828 339.963867 48.795898 Q 339.555664 49.042969 338.970215 49.042969 Q 337.917480 49.042969 337.289062 48.199707 Q 336.660645 47.356445 336.660645 45.943848 Q 336.660645 44.525879 337.289062 43.682617 Q 337.917480 42.839355 338.970215 42.839355 Q 339.550293 42.839355 339.953125 43.070312 Q 340.355957 43.301270 340.608398 43.784668 L 340.608398 43.005859 L 341.596680 43.005859 Z " fill="rgb(0, 0, 0)" fill-opacity="1.000000" />
<path d="M 352.014160 48.242676 L 352.014160 51.288086 L 351.020508 51.288086 L 351.020508 42.984375 L 352.014160 42.984375 L 352.014160 43.752441 Q 352.261230 43.306641 352.672119 43.072998 Q 353.083008 42.839355 353.620117 42.839355 Q 354.710449 42.839355 355.330811 43.682617 Q 355.951172 44.525879 355.951172 46.019043 Q 355.951172 47.485352 355.328125 48.320557 Q 354.705078 49.155762 353.620117 49.155762 Q 353.072266 49.155762 352.661377 48.922119 Q 352.250488 48.688477 352.014160 48.242676 Z M 354.914551 45.997559 Q 354.914551 44.848145 354.552002 44.262695 Q 354.189453 43.677246 353.475098 43.677246 Q 352.755371 43.677246 352.384766 44.265381 Q 352.014160 44.853516 352.014160 45.997559 Q 352.014160 47.136230 352.384766 47.727051 Q 352.755371 48.317871 353.475098 48.317871 Q 354.189453 48.317871 354.552002 47.732422 Q 354.914551 47.146973 354.914551 45.997559 Z " fill="rgb(0, 0, 0)" fill-opacity="1.000000" />
<path d="M 360.308594 43.677246 Q 359.556641 43.677246 359.169922 44.262695 Q 358.783203 44.848145 358.783203 45.997559 Q 358.783203 47.141602 359.169922 47.729736 Q 359.556641 48.317871 360.308594 48.317871 Q 361.065918 48.317871 361.452637 47.729736 Q 361.839355 47.141602 361.839355 45.997559 Q 361.839355 44.848145 361.452637 44.262695 Q 361.065918 43.677246 360.308594 43.677246 Z M 360.308594 42.839355 Q 361.560059 42.839355 362.223389 43.650391 Q 362.886719 44.461426 362.886719 45.997559 Q 362.886719 47.539062 362.226074 48.347412 Q 361.565430 49.155762 360.308594 49.155762 Q 359.057129 49.155762 358.396484 48.347412 Q 357.735840 47.539062 357.735840 45.997559 Q 357.735840 44.461426 358.396484 43.650391 Q 359.057129 42.839355 360.308594 42.839355 Z " fill="rgb(0, 0, 0)" fill-opacity="1.000000" />
<path d="M 370.203613 44.225098 Q 369.886719 43.978027 369.559082 43.865234 Q 369.231445 43.752441 368.839355 43.752441 Q 367.915527 43.752441 367.426758 44.332520 Q 366.937988 44.912598 366.937988 46.008301 L 366.937988 49.000000 L 365.944336 49.000000 L 365.944336 42.984375 L 366.937988 42.984375 L 366.937988 44.160645 Q 367.185059 43.521484 367.697998 43.180420 Q 368.210938 42.839355 368.914551 42.839355 Q 369.279785 42.839355 369.596680 42.930664 Q 369.913574 43.021973 370.203613 43.215332 Z " fill="rgb(0, 0, 0)" fill-opacity="1.000000" />
<path d="M 374.297852 41.276367 L 374.297852 42.984375 L 376.542969 42.984375 L 376.542969 43.752441 L 374.297852 43.752441 L 374.297852 47.018066 Q 374.297852 47.684082 374.550293 47.947266 Q 374.802734 48.210449 375.431152 48.210449 L 376.542969 48.210449 L 376.542969 49.000000 L 375.334473 49.000000 Q 374.222656 49.000000 373.766113 48.554199 Q 373.309570 48.108398 373.309570 47.018066 L 373.309570 43.752441 L 371.703613 43.752441 L 371.703613 42.984375 L 373.309570 42.984375 L 373.309570 41.276367 Z " fill="rgb(0, 0, 0)" fill-opacity="1.000000" />
<path d="M 401.449219 52.319336 L 401.449219 38.300781 L 403.167969 38.300781 L 403.167969 52.319336 Z " fill="rgb(0, 0, 0)" fill-opacity="1.000000" />
<path d="M 6.892578 33.335938 L 6.892578 32.412109 L 13.729980 32.412109 L 13.729980 33.335938 Z " fill="rgb(0, 0, 0)" fill-opacity="1.000000" />
<path d="M 13.892578 33.335938 L 13.892578 32.412109 L 20.729980 32.412109 L 20.729980 33.335938 Z " fill="rgb(0, 0, 0)" fill-opacity="1.000000" />
<path d="M 20.892578 33.335938 L 20.892578 32.412109 L 27.729980 32.412109 L 27.729980 33.335938 Z " fill="rgb(0, 0, 0)" fill-opacity="1.000000" />
<path d="M 27.892578 33.335938 L 27.892578 32.412109 L 34.729980 32.412109 L 34.729980 33.335938 Z " fill="rgb(0, 0, 0)" fill-opacity="1.000000" />
<path d="M 34.892578 33.335938 L 34.892578 32.412109 L 41.729980 32.412109 L 41.729980 33.335938 Z " fill="rgb(0, 0, 0)" fill-opacity="1.000000" />
<path d="M 41.892578 33.335938 L 41.892578 32.412109 L 48.729980 32.412109 L 48.729980 33.335938 Z " fill="rgb(0, 0, 0)" fill-opacity="1.000000" />
<path d="M 48.892578 33.335938 L 48.892578 32.412109 L 55.729980 32.412109 L 55.729980 33.335938 Z " fill="rgb(0, 0, 0)" fill-opacity="1.000000" />
<path d="M 55.892578 33.335938 L 55.892578 32.412109 L 62.729980 32.412109 L 62.729980 33.335938 Z " fill="rgb(0, 0, 0)" fill-opacity="1.000000" />
<path d="M 62.892578 33.335938 L 62.892578 32.412109 L 69.729980 32.412109 L 69.729980 33.335938 Z " fill="rgb(0, 0, 0)" fill-opacity="1.000000" />
<path d="M 72.878906 39.319336 L 72.878906 33.335938 L 69.892578 33.335938 L 69.892578 32.412109 L 73.738281 32.412109 L 73.738281 39.319336 Z " fill="rgb(0, 0, 0)" fill-opacity="1.000000" />
<path d="M 135.449219 39.319336 L 135.449219 31.950195 L 139.729980 31.950195 L 139.729980 33.797852 L 137.167969 33.797852 L 137.167969 39.319336 Z " fill="rgb(0, 0, 0)" fill-opacity="1.000000" />
<path d="M 139.892578 33.797852 L 139.892578 31.950195 L 146.729980 31.950195 L 146.729980 33.797852 Z " fill="rgb(0, 0, 0)" fill-opacity="1.000000" />
<path d="M 146.892578 33.797852 L 146.892578 31.950195 L 153.729980 31.950195 L 153.729980 33.797852 Z " fill="rgb(0, 0, 0)" fill-opacity="1.000000" />
<path d="M 153.892578 33.797852 L 153.892578 31.950195 L 160.729980 31.950195 L 160.729980 33.797852 Z " fill="rgb(0, 0, 0)" fill-opacity="1.000000" />
<path d="M 160.892578 33.797852 L 160.892578 31.950195 L 167.729980 31.950195 L 167.729980 33.797852 Z " fill="rgb(0, 0, 0)" fill-opacity="1.000000" />
<path d="M 167.892578 33.797852 L 167.892578 31.950195 L 174.729980 31.950195 L 174.729980 33.797852 Z " fill="rgb(0, 0, 0)" fill-opacity="1.000000" />
<path d="M 174.892578 33.797852 L 174.892578 31.950195 L 181.729980 31.950195 L 181.729980 33.797852 Z " fill="rgb(0, 0, 0)" fill-opacity="1.000000" />
<path d="M 181.892578 33.797852 L 181.892578 31.950195 L 188.729980 31.950195 L 188.729980 33.797852 Z " fill="rgb(0, 0, 0)" fill-opacity="1.000000" />
<path d="M 188.892578 33.797852 L 188.892578 31.950195 L 195.729980 31.950195 L 195.729980 33.797852 Z " fill="rgb(0, 0, 0)" fill-opacity="1.000000" />
<path d="M 195.892578 33.797852 L 195.892578 31.950195 L 202.729980 31.950195 L 202.729980 33.797852 Z " fill="rgb(0, 0, 0)" fill-opacity="1.000000" />
<path d="M 202.892578 33.797852 L 202.892578 31.950195 L 209.729980 31.950195 L 209.729980 33.797852 Z " fill="rgb(0, 0, 0)" fill-opacity="1.000000" />
<path d="M 209.892578 33.797852 L 209.892578 31.950195 L 216.729980 31.950195 L 216.729980 33.797852 Z " fill="rgb(0, 0, 0)" fill-opacity="1.000000" />
<path d="M 216.892578 33.797852 L 216.892578 31.950195 L 223.729980 31.950195 L 223.729980 33.797852 Z " fill="rgb(0, 0, 0)" fill-opacity="1.000000" />
<path d="M 223.892578 33.797852 L 223.892578 31.950195 L 230.729980 31.950195 L 230.729980 33.797852 Z " fill="rgb(0, 0, 0)" fill-opacity="1.000000" />
<path d="M 230.892578 33.797852 L 230.892578 31.950195 L 237.729980 31.950195 L 237.729980 33.797852 Z " fill="rgb(0, 0, 0)" fill-opacity="1.000000" />
<path d="M 237.892578 33.797852 L 237.892578 31.950195 L 244.729980 31.950195 L 244.729980 33.797852 Z " fill="rgb(0, 0, 0)" fill-opacity="1.000000" />
<path d="M 244.892578 33.797852 L 244.892578 31.950195 L 251.729980 31.950195 L 251.729980 33.797852 Z " fill="rgb(0, 0, 0)" fill-opacity="1.000000" />
<path d="M 251.892578 33.797852 L 251.892578 31.950195 L 258.729980 31.950195 L 258.729980 33.797852 Z " fill="rgb(0, 0, 0)" fill-opacity="1.000000" />
<path d="M 258.892578 33.797852 L 258.892578 31.950195 L 265.729980 31.950195 L 265.729980 33.797852 Z " fill="rgb(0, 0, 0)" fill-opacity="1.000000" />
<path d="M 265.892578 33.797852 L 265.892578 31.950195 L 272.729980 31.950195 L 272.729980 33.797852 Z " fill="rgb(0, 0, 0)" fill-opacity="1.000000" />
<path d="M 272.892578 33.797852 L 272.892578 31.950195 L 279.729980 31.950195 L 279.729980 33.797852 Z " fill="rgb(0, 0, 0)" fill-opacity="1.000000" />
<path d="M 279.892578 33.797852 L 279.892578 31.950195 L 286.729980 31.950195 L 286.729980 33.797852 Z " fill="rgb(0, 0, 0)" fill-opacity="1.000000" />
<path d="M 286.892578 33.797852 L 286.892578 31.950195 L 293.729980 31.950195 L 293.729980 33.797852 Z " fill="rgb(0, 0, 0)" fill-opacity="1.000000" />
<path d="M 293.892578 33.797852 L 293.892578 31.950195 L 300.729980 31.950195 L 300.729980 33.797852 Z " fill="rgb(0, 0, 0)" fill-opacity="1.000000" />
<path d="M 300.892578 33.797852 L 300.892578 31.950195 L 307.729980 31.950195 L 307.729980 33.797852 Z " fill="rgb(0, 0, 0)" fill-opacity="1.000000" />
<path d="M 307.892578 33.797852 L 307.892578 31.950195 L 314.729980 31.950195 L 314.729980 33.797852 Z " fill="rgb(0, 0, 0)" fill-opacity="1.000000" />
<path d="M 314.892578 33.797852 L 314.892578 31.950195 L 321.729980 31.950195 L 321.729980 33.797852 Z " fill="rgb(0, 0, 0)" fill-opacity="1.000000" />
<path d="M 321.892578 33.797852 L 321.892578 31.950195 L 328.729980 31.950195 L 328.729980 33.797852 Z " fill="rgb(0, 0, 0)" fill-opacity="1.000000" />
<path d="M 328.892578 33.797852 L 328.892578 31.950195 L 335.729980 31.950195 L 335.729980 33.797852 Z " fill="rgb(0, 0, 0)" fill-opacity="1.000000" />
<path d="M 335.892578 33.797852 L 335.892578 31.950195 L 342.729980 31.950195 L 342.729980 33.797852 Z " fill="rgb(0, 0, 0)" fill-opacity="1.000000" />
<path d="M 342.892578 33.797852 L 342.892578 31.950195 L 349.729980 31.950195 L 349.729980 33.797852 Z " fill="rgb(0, 0, 0)" fill-opacity="1.000000" />
<path d="M 349.892578 33.797852 L 349.892578 31.950195 L 356.729980 31.950195 L 356.729980 33.797852 Z " fill="rgb(0, 0, 0)" fill-opacity="1.000000" />
<path d="M 356.892578 33.797852 L 356.892578 31.950195 L 363.729980 31.950195 L 363.729980 33.797852 Z " fill="rgb(0, 0, 0)" fill-opacity="1.000000" />
<path d="M 363.892578 33.797852 L 363.892578 31.950195 L 370.729980 31.950195 L 370.729980 33.797852 Z " fill="rgb(0, 0, 0)" fill-opacity="1.000000" />
<path d="M 370.892578 33.797852 L 370.892578 31.950195 L 377.729980 31.950195 L 377.729980 33.797852 Z " fill="rgb(0, 0, 0)" fill-opacity="1.000000" />
<path d="M 377.892578 33.797852 L 377.892578 31.950195 L 384.729980 31.950195 L 384.729980 33.797852 Z " fill="rgb(0, 0, 0)" fill-opacity="1.000000" />
<path d="M 384.892578 33.797852 L 384.892578 31.950195 L 391.729980 31.950195 L 391.729980 33.797852 Z " fill="rgb(0, 0, 0)" fill-opacity="1.000000" />
<path d="M 391.892578 33.797852 L 391.892578 31.950195 L 398.729980 31.950195 L 398.729980 33.797852 Z " fill="rgb(0, 0, 0)" fill-opacity="1.000000" />
<path d="M 401.449219 39.319336 L 401.449219 33.797852 L 398.892578 33.797852 L 398.892578 31.950195 L 403.167969 31.950195 L 403.167969 39.319336 Z " fill="rgb(0, 0, 0)" fill-opacity="1.000000" />
<path d="M 242.592285 14.116211 Q 241.877930 15.340820 241.526123 16.557373 Q 241.174316 17.773926 241.174316 19.009277 Q 241.174316 20.239258 241.526123 21.458496 Q 241.877930 22.677734 242.592285 23.913086 L 241.732910 23.913086 Q 240.921875 22.634766 240.524414 21.423584 Q 240.126953 20.212402 240.126953 19.009277 Q 240.126953 17.811523 240.524414 16.597656 Q 240.921875 15.383789 241.732910 14.116211 Z " fill="rgb(0, 0, 0)" fill-opacity="1.000000" />
<path d="M 249.082031 19.213379 Q 249.500977 19.320801 249.796387 19.618896 Q 250.091797 19.916992 250.532227 20.808594 L 251.622559 23.000000 L 250.457031 23.000000 L 249.500977 20.975098 Q 249.087402 20.110352 248.757080 19.860596 Q 248.426758 19.610840 247.895020 19.610840 L 246.858398 19.610840 L 246.858398 23.000000 L 245.768066 23.000000 L 245.768066 14.980957 L 248.002441 14.980957 Q 249.323730 14.980957 250.027344 15.577148 Q 250.730957 16.173340 250.730957 17.301270 Q 250.730957 18.096191 250.298584 18.598389 Q 249.866211 19.100586 249.082031 19.213379 Z M 246.858398 15.872559 L 246.858398 18.719238 L 248.045410 18.719238 Q 248.824219 18.719238 249.205566 18.370117 Q 249.586914 18.020996 249.586914 17.301270 Q 249.586914 16.608398 249.181396 16.240479 Q 248.775879 15.872559 248.002441 15.872559 Z " fill="rgb(0, 0, 0)" fill-opacity="1.000000" />
<path d="M 255.770508 19.976074 L 255.442871 19.976074 Q 254.578125 19.976074 254.140381 20.279541 Q 253.702637 20.583008 253.702637 21.184570 Q 253.702637 21.727051 254.030273 22.027832 Q 254.357910 22.328613 254.937988 22.328613 Q 255.754395 22.328613 256.221680 21.761963 Q 256.688965 21.195312 256.694336 20.196289 L 256.694336 19.976074 Z M 257.687988 19.567871 L 257.687988 23.000000 L 256.694336 23.000000 L 256.694336 22.108398 Q 256.377441 22.645508 255.896729 22.900635 Q 255.416016 23.155762 254.728516 23.155762 Q 253.810059 23.155762 253.262207 22.637451 Q 252.714355 22.119141 252.714355 21.249023 Q 252.714355 20.244629 253.388428 19.723633 Q 254.062500 19.202637 255.367676 19.202637 L 256.694336 19.202637 L 256.694336 19.046875 Q 256.688965 18.327148 256.329102 18.002197 Q 255.969238 17.677246 255.179688 17.677246 Q 254.674805 17.677246 254.159180 17.822266 Q 253.643555 17.967285 253.154785 18.246582 L 253.154785 17.258301 Q 253.702637 17.048828 254.204834 16.944092 Q 254.707031 16.839355 255.179688 16.839355 Q 255.926270 16.839355 256.455322 17.059570 Q 256.984375 17.279785 257.312012 17.720215 Q 257.516113 17.988770 257.602051 18.383545 Q 257.687988 18.778320 257.687988 19.567871 Z " fill="rgb(0, 0, 0)" fill-opacity="1.000000" />
<path d="M 264.698730 22.693848 Q 264.301270 22.924805 263.879639 23.040283 Q 263.458008 23.155762 263.017578 23.155762 Q 261.621094 23.155762 260.834229 22.317871 Q 260.047363 21.479980 260.047363 19.997559 Q 260.047363 18.515137 260.834229 17.677246 Q 261.621094 16.839355 263.017578 16.839355 Q 263.452637 16.839355 263.866211 16.952148 Q 264.279785 17.064941 264.698730 17.301270 L 264.698730 18.337891 Q 264.306641 17.988770 263.911865 17.833008 Q 263.517090 17.677246 263.017578 17.677246 Q 262.088379 17.677246 261.588867 18.278809 Q 261.089355 18.880371 261.089355 19.997559 Q 261.089355 21.109375 261.591553 21.713623 Q 262.093750 22.317871 263.017578 22.317871 Q 263.533203 22.317871 263.941406 22.159424 Q 264.349609 22.000977 264.698730 21.667969 Z " fill="rgb(0, 0, 0)" fill-opacity="1.000000" />
<path d="M 269.297852 15.276367 L 269.297852 16.984375 L 271.542969 16.984375 L 271.542969 17.752441 L 269.297852 17.752441 L 269.297852 21.018066 Q 269.297852 21.684082 269.550293 21.947266 Q 269.802734 22.210449 270.431152 22.210449 L 271.542969 22.210449 L 271.542969 23.000000 L 270.334473 23.000000 Q 269.222656 23.000000 268.766113 22.554199 Q 268.309570 22.108398 268.309570 21.018066 L 268.309570 17.752441 L 266.703613 17.752441 L 266.703613 16.984375 L 268.309570 16.984375 L 268.309570 15.276367 Z " fill="rgb(0, 0, 0)" fill-opacity="1.000000" />
<path d="M 276.308594 17.677246 Q 275.556641 17.677246 275.169922 18.262695 Q 274.783203 18.848145 274.783203 19.997559 Q 274.783203 21.141602 275.169922 21.729736 Q 275.556641 22.317871 276.308594 22.317871 Q 277.065918 22.317871 277.452637 21.729736 Q 277.839355 21.141602 277.839355 19.997559 Q 277.839355 18.848145 277.452637 18.262695 Q 277.065918 17.677246 276.308594 17.677246 Z M 276.308594 16.839355 Q 277.560059 16.839355 278.223389 17.650391 Q 278.886719 18.461426 278.886719 19.997559 Q 278.886719 21.539062 278.226074 22.347412 Q 277.565430 23.155762 276.308594 23.155762 Q 275.057129 23.155762 274.396484 22.347412 Q 273.735840 21.539062 273.735840 19.997559 Q 273.735840 18.461426 274.396484 17.650391 Q 275.057129 16.839355 276.308594 16.839355 Z " fill="rgb(0, 0, 0)" fill-opacity="1.000000" />
<path d="M 286.203613 18.225098 Q 285.886719 17.978027 285.559082 17.865234 Q 285.231445 17.752441 284.839355 17.752441 Q 283.915527 17.752441 283.426758 18.332520 Q 282.937988 18.912598 282.937988 20.008301 L 282.937988 23.000000 L 281.944336 23.000000 L 281.944336 16.984375 L 282.937988 16.984375 L 282.937988 18.160645 Q 283.185059 17.521484 283.697998 17.180420 Q 284.210938 16.839355 284.914551 16.839355 Q 285.279785 16.839355 285.596680 16.930664 Q 285.913574 17.021973 286.203613 17.215332 Z " fill="rgb(0, 0, 0)" fill-opacity="1.000000" />
<path d="M 288.869141 14.116211 L 289.728516 14.116211 Q 290.539551 15.383789 290.937012 16.597656 Q 291.334473 17.811523 291.334473 19.009277 Q 291.334473 20.217773 290.937012 21.431641 Q 290.539551 22.645508 289.728516 23.913086 L 288.869141 23.913086 Q 289.583496 22.666992 289.935303 21.447754 Q 290.287109 20.228516 290.287109 19.009277 Q 290.287109 17.784668 289.935303 16.565430 Q 289.583496 15.346191 288.869141 14.116211 Z " fill="rgb(0, 0, 0)" fill-opacity="1.000000" />
<path d="M 250.226074 4.193848 L 250.226074 5.160645 Q 249.801758 4.913574 249.372070 4.790039 Q 248.942383 4.666504 248.496582 4.666504 Q 247.825195 4.666504 247.494873 4.884033 Q 247.164551 5.101562 247.164551 5.547363 Q 247.164551 5.950195 247.411621 6.148926 Q 247.658691 6.347656 248.641602 6.535645 L 249.039062 6.610840 Q 249.774902 6.750488 250.153564 7.169434 Q 250.532227 7.588379 250.532227 8.259766 Q 250.532227 9.151367 249.898438 9.653564 Q 249.264648 10.155762 248.136719 10.155762 Q 247.690918 10.155762 247.202148 10.061768 Q 246.713379 9.967773 246.144043 9.779785 L 246.144043 8.759277 Q 246.697266 9.043945 247.202148 9.186279 Q 247.707031 9.328613 248.158203 9.328613 Q 248.813477 9.328613 249.173340 9.062744 Q 249.533203 8.796875 249.533203 8.318848 Q 249.533203 7.631348 248.217285 7.368164 L 248.174316 7.357422 L 247.803711 7.282227 Q 246.949707 7.115723 246.557617 6.720947 Q 246.165527 6.326172 246.165527 5.644043 Q 246.165527 4.779297 246.750977 4.309326 Q 247.336426 3.839355 248.421387 3.839355 Q 248.904785 3.839355 249.350586 3.927979 Q 249.796387 4.016602 250.226074 4.193848 Z " fill="rgb(0, 0, 0)" fill-opacity="1.000000" />
<path d="M 258.015625 6.498047 L 258.015625 6.981445 L 253.734863 6.981445 L 253.734863 7.013672 Q 253.691895 8.243652 254.204834 8.780762 Q 254.717773 9.317871 255.652344 9.317871 Q 256.125000 9.317871 256.640625 9.167480 Q 257.156250 9.017090 257.741699 8.710938 L 257.741699 9.693848 Q 257.177734 9.924805 256.654053 10.040283 Q 256.130371 10.155762 255.641602 10.155762 Q 254.239746 10.155762 253.450195 9.315186 Q 252.660645 8.474609 252.660645 6.997559 Q 252.660645 5.558105 253.434082 4.698730 Q 254.207520 3.839355 255.496582 3.839355 Q 256.645996 3.839355 257.309326 4.618164 Q 257.972656 5.396973 258.015625 6.498047 Z M 257.027344 6.208008 Q 256.962891 5.584961 256.573486 5.131104 Q 256.184082 4.677246 255.453613 4.677246 Q 254.739258 4.677246 254.277344 5.149902 Q 253.815430 5.622559 253.772461 6.213379 Z " fill="rgb(0, 0, 0)" fill-opacity="1.000000" />
<path d="M 264.645020 6.272461 L 264.645020 10.000000 L 263.651367 10.000000 L 263.651367 6.272461 Q 263.651367 5.461426 263.366699 5.080078 Q 263.082031 4.698730 262.475098 4.698730 Q 261.782227 4.698730 261.408936 5.190186 Q 261.035645 5.681641 261.035645 6.600098 L 261.035645 10.000000 L 260.047363 10.000000 L 260.047363 3.984375 L 261.035645 3.984375 L 261.035645 4.886719 Q 261.298828 4.371094 261.750000 4.105225 Q 262.201172 3.839355 262.818848 3.839355 Q 263.737305 3.839355 264.191162 4.443604 Q 264.645020 5.047852 264.645020 6.272461 Z " fill="rgb(0, 0, 0)" fill-opacity="1.000000" />
<path d="M 270.608398 4.752441 L 270.608398 1.642578 L 271.596680 1.642578 L 271.596680 10.000000 L 270.608398 10.000000 L 270.608398 9.242676 Q 270.361328 9.688477 269.950439 9.922119 Q 269.539551 10.155762 269.002441 10.155762 Q 267.912109 10.155762 267.286377 9.309814 Q 266.660645 8.463867 266.660645 6.976074 Q 266.660645 5.509766 267.289062 4.674561 Q 267.917480 3.839355 269.002441 3.839355 Q 269.544922 3.839355 269.958496 4.072998 Q 270.372070 4.306641 270.608398 4.752441 Z M 267.702637 6.997559 Q 267.702637 8.146973 268.067871 8.732422 Q 268.433105 9.317871 269.147461 9.317871 Q 269.861816 9.317871 270.235107 8.727051 Q 270.608398 8.136230 270.608398 6.997559 Q 270.608398 5.853516 270.235107 5.265381 Q 269.861816 4.677246 269.147461 4.677246 Q 268.433105 4.677246 268.067871 5.262695 Q 267.702637 5.848145 267.702637 6.997559 Z " fill="rgb(0, 0, 0)" fill-opacity="1.000000" />
<path d="M 279.015625 6.498047 L 279.015625 6.981445 L 274.734863 6.981445 L 274.734863 7.013672 Q 274.691895 8.243652 275.204834 8.780762 Q 275.717773 9.317871 276.652344 9.317871 Q 277.125000 9.317871 277.640625 9.167480 Q 278.156250 9.017090 278.741699 8.710938 L 278.741699 9.693848 Q 278.177734 9.924805 277.654053 10.040283 Q 277.130371 10.155762 276.641602 10.155762 Q 275.239746 10.155762 274.450195 9.315186 Q 273.660645 8.474609 273.660645 6.997559 Q 273.660645 5.558105 274.434082 4.698730 Q 275.207520 3.839355 276.496582 3.839355 Q 277.645996 3.839355 278.309326 4.618164 Q 278.972656 5.396973 279.015625 6.498047 Z M 278.027344 6.208008 Q 277.962891 5.584961 277.573486 5.131104 Q 277.184082 4.677246 276.453613 4.677246 Q 275.739258 4.677246 275.277344 5.149902 Q 274.815430 5.622559 274.772461 6.213379 Z " fill="rgb(0, 0, 0)" fill-opacity="1.000000" />
<path d="M 286.203613 5.225098 Q 285.886719 4.978027 285.559082 4.865234 Q 285.231445 4.752441 284.839355 4.752441 Q 283.915527 4.752441 283.426758 5.332520 Q 282.937988 5.912598 282.937988 7.008301 L 282.937988 10.000000 L 281.944336 10.000000 L 281.944336 3.984375 L 282.937988 3.984375 L 282.937988 5.160645 Q 283.185059 4.521484 283.697998 4.180420 Q 284.210938 3.839355 284.914551 3.839355 Q 285.279785 3.839355 285.596680 3.930664 Q 285.913574 4.021973 286.203613 4.215332 Z " fill="rgb(0, 0, 0)" fill-opacity="1.000000" />
</svg>