<svg xmlns="http://www.w3.org/2000/svg" version="1.1" width="554" height="131">
<path d="M 2.878906 26.319336 L 2.878906 19.412109 L 6.729980 19.412109 L 6.729980 20.335938 L 3.738281 20.335938 L 3.738281 26.319336 Z " fill="rgb(0, 0, 0)" fill-opacity="1.000000" />
<path d="M 2.878906 39.319336 L 2.878906 25.300781 L 3.738281 25.300781 L 3.738281 39.319336 Z " fill="rgb(0, 0, 0)" fill-opacity="1.000000" />
<path d="M 2.878906 52.319336 L 2.878906 38.300781 L 3.738281 38.300781 L 3.738281 52.319336 Z " fill="rgb(0, 0, 0)" fill-opacity="1.000000" />
<path d="M 2.878906 65.319336 L 2.878906 51.300781 L 3.738281 51.300781 L 3.738281 65.319336 Z " fill="rgb(0, 0, 0)" fill-opacity="1.000000" />
<path d="M 2.878906 78.319336 L 2.878906 64.300781 L 3.738281 64.300781 L 3.738281 78.319336 Z " fill="rgb(0, 0, 0)" fill-opacity="1.000000" />
<path d="M 2.878906 85.335938 L 2.878906 77.300781 L 3.738281 77.300781 L 3.738281 84.412109 L 6.729980 84.412109 L 6.729980 85.335938 Z " fill="rgb(0, 0, 0)" fill-opacity="1.000000" />
<path d="M 2.878906 111.335938 L 2.878906 103.300781 L 3.738281 103.300781 L 3.738281 110.412109 L 6.729980 110.412109 L 6.729980 111.335938 Z " fill="rgb(0, 0, 0)" fill-opacity="1.000000" />
<path d="M 227.297852 119.276367 L 227.297852 120.984375 L 229.542969 120.984375 L 229.542969 121.752441 L 227.297852 121.752441 L 227.297852 125.018066 Q 227.297852 125.684082 227.550293 125.947266 Q 227.802734 126.210449 228.431152 126.210449 L 229.542969 126.210449 L 229.542969 127.000000 L 228.334473 127.000000 Q 227.222656 127.000000 226.766113 126.554199 Q 226.309570 126.108398 226.309570 125.018066 L 226.309570 121.752441 L 224.703613 121.752441 L 224.703613 120.984375 L 226.309570 120.984375 L 226.309570 119.276367 Z " fill="rgb(0, 0, 0)" fill-opacity="1.000000" />
<path d="M 234.308594 121.677246 Q 233.556641 121.677246 233.169922 122.262695 Q 232.783203 122.848145 232.783203 123.997559 Q 232.783203 125.141602 233.169922 125.729736 Q 233.556641 126.317871 234.308594 126.317871 Q 235.065918 126.317871 235.452637 125.729736 Q 235.839355 125.141602 235.839355 123.997559 Q 235.839355 122.848145 235.452637 122.262695 Q 235.065918 121.677246 234.308594 121.677246 Z M 234.308594 120.839355 Q 235.560059 120.839355 236.223389 121.650391 Q 236.886719 122.461426 236.886719 123.997559 Q 236.886719 125.539062 236.226074 126.347412 Q 235.565430 127.155762 234.308594 127.155762 Q 233.057129 127.155762 232.396484 126.347412 Q 231.735840 125.539062 231.735840 123.997559 Q 231.735840 122.461426 232.396484 121.650391 Q 233.057129 120.839355 234.308594 120.839355 Z " fill="rgb(0, 0, 0)" fill-opacity="1.000000" />
<path d="M 241.297852 119.276367 L 241.297852 120.984375 L 243.542969 120.984375 L 243.542969 121.752441 L 241.297852 121.752441 L 241.297852 125.018066 Q 241.297852 125.684082 241.550293 125.947266 Q 241.802734 126.210449 242.431152 126.210449 L 243.542969 126.210449 L 243.542969 127.000000 L 242.334473 127.000000 Q 241.222656 127.000000 240.766113 126.554199 Q 240.309570 126.108398 240.309570 125.018066 L 240.309570 121.752441 L 238.703613 121.752441 L 238.703613 120.984375 L 240.309570 120.984375 L 240.309570 119.276367 Z " fill="rgb(0, 0, 0)" fill-opacity="1.000000" />
<path d="M 248.770508 123.976074 L 248.442871 123.976074 Q 247.578125 123.976074 247.140381 124.279541 Q 246.702637 124.583008 246.702637 125.184570 Q 246.702637 125.727051 247.030273 126.027832 Q 247.357910 126.328613 247.937988 126.328613 Q 248.754395 126.328613 249.221680 125.761963 Q 249.688965 125.195312 249.694336 124.196289 L 249.694336 123.976074 Z M 250.687988 123.567871 L 250.687988 127.000000 L 249.694336 127.000000 L 249.694336 126.108398 Q 249.377441 126.645508 248.896729 126.900635 Q 248.416016 127.155762 247.728516 127.155762 Q 246.810059 127.155762 246.262207 126.637451 Q 245.714355 126.119141 245.714355 125.249023 Q 245.714355 124.244629 246.388428 123.723633 Q 247.062500 123.202637 248.367676 123.202637 L 249.694336 123.202637 L 249.694336 123.046875 Q 249.688965 122.327148 249.329102 122.002197 Q 248.969238 121.677246 248.179688 121.677246 Q 247.674805 121.677246 247.159180 121.822266 Q 246.643555 121.967285 246.154785 122.246582 L 246.154785 121.258301 Q 246.702637 121.048828 247.204834 120.944092 Q 247.707031 120.839355 248.179688 120.839355 Q 248.926270 120.839355 249.455322 121.059570 Q 249.984375 121.279785 250.312012 121.720215 Q 250.516113 121.988770 250.602051 122.383545 Q 250.687988 122.778320 250.687988 123.567871 Z " fill="rgb(0, 0, 0)" fill-opacity="1.000000" />
<path d="M 255.861816 124.824707 Q 255.861816 125.490723 256.106201 125.829102 Q 256.350586 126.167480 256.828613 126.167480 L 257.983398 126.167480 L 257.983398 127.000000 L 256.731934 127.000000 Q 255.845703 127.000000 255.359619 126.433350 Q 254.873535 125.866699 254.873535 124.824707 L 254.873535 119.383789 L 253.289062 119.383789 L 253.289062 118.610352 L 255.861816 118.610352 Z " fill="rgb(0, 0, 0)" fill-opacity="1.000000" />
<path d="M 261.304199 120.989746 L 262.979980 120.989746 L 262.979980 122.928711 L 261.304199 122.928711 Z M 261.304199 125.044922 L 262.979980 125.044922 L 262.979980 127.000000 L 261.304199 127.000000 Z " fill="rgb(0, 0, 0)" fill-opacity="1.000000" />
<path d="M 275.003418 126.086914 L 278.687988 126.086914 L 278.687988 127.000000 L 273.816406 127.000000 L 273.816406 126.086914 Q 274.820801 125.028809 275.572754 124.217773 Q 276.324707 123.406738 276.609375 123.073730 Q 277.146484 122.418457 277.334473 122.012939 Q 277.522461 121.607422 277.522461 121.183105 Q 277.522461 120.511719 277.127686 120.130371 Q 276.732910 119.749023 276.045410 119.749023 Q 275.556641 119.749023 275.019531 119.926270 Q 274.482422 120.103516 273.880859 120.463379 L 273.880859 119.367676 Q 274.434082 119.104492 274.968506 118.970215 Q 275.502930 118.835938 276.023926 118.835938 Q 277.200195 118.835938 277.917236 119.461670 Q 278.634277 120.087402 278.634277 121.102539 Q 278.634277 121.618164 278.395264 122.133789 Q 278.156250 122.649414 277.619141 123.272461 Q 277.318359 123.621582 276.746338 124.239258 Q 276.174316 124.856934 275.003418 126.086914 Z " fill="rgb(0, 0, 0)" fill-opacity="1.000000" />
<path d="M 283.947754 119.969238 L 281.417969 124.207031 L 283.947754 124.207031 Z M 283.770508 118.980957 L 285.027344 118.980957 L 285.027344 124.207031 L 286.096191 124.207031 L 286.096191 125.087891 L 285.027344 125.087891 L 285.027344 127.000000 L 283.947754 127.000000 L 283.947754 125.087891 L 280.547852 125.087891 L 280.547852 124.062012 Z " fill="rgb(0, 0, 0)" fill-opacity="1.000000" />
<path d="M 298.930664 123.997559 Q 298.930664 122.848145 298.565430 122.262695 Q 298.200195 121.677246 297.485840 121.677246 Q 296.766113 121.677246 296.395508 122.265381 Q 296.024902 122.853516 296.024902 123.997559 Q 296.024902 125.136230 296.395508 125.727051 Q 296.766113 126.317871 297.485840 126.317871 Q 298.200195 126.317871 298.565430 125.732422 Q 298.930664 125.146973 298.930664 123.997559 Z M 296.024902 121.752441 Q 296.261230 121.312012 296.677490 121.075684 Q 297.093750 120.839355 297.641602 120.839355 Q 298.726562 120.839355 299.349609 121.674561 Q 299.972656 122.509766 299.972656 123.976074 Q 299.972656 125.463867 299.346924 126.309814 Q 298.721191 127.155762 297.630859 127.155762 Q 297.093750 127.155762 296.682861 126.922119 Q 296.271973 126.688477 296.024902 126.242676 L 296.024902 127.000000 L 295.036621 127.000000 L 295.036621 118.642578 L 296.024902 118.642578 Z " fill="rgb(0, 0, 0)" fill-opacity="1.000000" />
<path d="M 305.608398 125.066406 Q 305.361328 125.694824 304.979980 126.720703 Q 304.448242 128.138672 304.265625 128.450195 Q 304.018555 128.869141 303.647949 129.078613 Q 303.277344 129.288086 302.783203 129.288086 L 301.988281 129.288086 L 301.988281 128.460938 L 302.573730 128.460938 Q 303.008789 128.460938 303.255859 128.208496 Q 303.502930 127.956055 303.884277 126.903320 L 301.558594 120.984375 L 302.605957 120.984375 L 304.389160 125.689453 L 306.145508 120.984375 L 307.192871 120.984375 Z " fill="rgb(0, 0, 0)" fill-opacity="1.000000" />
<path d="M 311.297852 119.276367 L 311.297852 120.984375 L 313.542969 120.984375 L 313.542969 121.752441 L 311.297852 121.752441 L 311.297852 125.018066 Q 311.297852 125.684082 311.550293 125.947266 Q 311.802734 126.210449 312.431152 126.210449 L 313.542969 126.210449 L 313.542969 127.000000 L 312.334473 127.000000 Q 311.222656 127.000000 310.766113 126.554199 Q 310.309570 126.108398 310.309570 125.018066 L 310.309570 121.752441 L 308.703613 121.752441 L 308.703613 120.984375 L 310.309570 120.984375 L 310.309570 119.276367 Z " fill="rgb(0, 0, 0)" fill-opacity="1.000000" />
<path d="M 321.015625 123.498047 L 321.015625 123.981445 L 316.734863 123.981445 L 316.734863 124.013672 Q 316.691895 125.243652 317.204834 125.780762 Q 317.717773 126.317871 318.652344 126.317871 Q 319.125000 126.317871 319.640625 126.167480 Q 320.156250 126.017090 320.741699 125.710938 L 320.741699 126.693848 Q 320.177734 126.924805 319.654053 127.040283 Q 319.130371 127.155762 318.641602 127.155762 Q 317.239746 127.155762 316.450195 126.315186 Q 315.660645 125.474609 315.660645 123.997559 Q 315.660645 122.558105 316.434082 121.698730 Q 317.207520 120.839355 318.496582 120.839355 Q 319.645996 120.839355 320.309326 121.618164 Q 320.972656 122.396973 321.015625 123.498047 Z M 320.027344 123.208008 Q 319.962891 122.584961 319.573486 122.131104 Q 319.184082 121.677246 318.453613 121.677246 Q 317.739258 121.677246 317.277344 122.149902 Q 316.815430 122.622559 316.772461 123.213379 Z " fill="rgb(0, 0, 0)" fill-opacity="1.000000" />
<path d="M 327.226074 121.193848 L 327.226074 122.160645 Q 326.801758 121.913574 326.372070 121.790039 Q 325.942383 121.666504 325.496582 121.666504 Q 324.825195 121.666504 324.494873 121.884033 Q 324.164551 122.101562 324.164551 122.547363 Q 324.164551 122.950195 324.411621 123.148926 Q 324.658691 123.347656 325.641602 123.535645 L 326.039062 123.610840 Q 326.774902 123.750488 327.153564 124.169434 Q 327.532227 124.588379 327.532227 125.259766 Q 327.532227 126.151367 326.898438 126.653564 Q 326.264648 127.155762 325.136719 127.155762 Q 324.690918 127.155762 324.202148 127.061768 Q 323.713379 126.967773 323.144043 126.779785 L 323.144043 125.759277 Q 323.697266 126.043945 324.202148 126.186279 Q 324.707031 126.328613 325.158203 126.328613 Q 325.813477 126.328613 326.173340 126.062744 Q 326.533203 125.796875 326.533203 125.318848 Q 326.533203 124.631348 325.217285 124.368164 L 325.174316 124.357422 L 324.803711 124.282227 Q 323.949707 124.115723 323.557617 123.720947 Q 323.165527 123.326172 323.165527 122.644043 Q 323.165527 121.779297 323.750977 121.309326 Q 324.336426 120.839355 325.421387 120.839355 Q 325.904785 120.839355 326.350586 120.927979 Q 326.796387 121.016602 327.226074 121.193848 Z " fill="rgb(0, 0, 0)" fill-opacity="1.000000" />
<path d="M 6.892578 111.335938 L 6.892578 110.412109 L 13.729980 110.412109 L 13.729980 111.335938 Z " fill="rgb(0, 0, 0)" fill-opacity="1.000000" />
<path d="M 13.892578 111.335938 L 13.892578 110.412109 L 20.729980 110.412109 L 20.729980 111.335938 Z " fill="rgb(0, 0, 0)" fill-opacity="1.000000" />
<path d="M 20.892578 111.335938 L 20.892578 110.412109 L 27.729980 110.412109 L 27.729980 111.335938 Z " fill="rgb(0, 0, 0)" fill-opacity="1.000000" />
<path d="M 27.892578 111.335938 L 27.892578 110.412109 L 34.729980 110.412109 L 34.729980 111.335938 Z " fill="rgb(0, 0, 0)" fill-opacity="1.000000" />
<path d="M 34.892578 111.335938 L 34.892578 110.412109 L 41.729980 110.412109 L 41.729980 111.335938 Z " fill="rgb(0, 0, 0)" fill-opacity="1.000000" />
<path d="M 41.892578 111.335938 L 41.892578 110.412109 L 48.729980 110.412109 L 48.729980 111.335938 Z " fill="rgb(0, 0, 0)" fill-opacity="1.000000" />
<path d="M 48.892578 111.335938 L 48.892578 110.412109 L 55.729980 110.412109 L 55.729980 111.335938 Z " fill="rgb(0, 0, 0)" fill-opacity="1.000000" />
<path d="M 55.892578 111.335938 L 55.892578 110.412109 L 62.729980 110.412109 L 62.729980 111.335938 Z " fill="rgb(0, 0, 0)" fill-opacity="1.000000" />
<path d="M 62.892578 111.335938 L 62.892578 110.412109 L 69.729980 110.412109 L 69.729980 111.335938 Z " fill="rgb(0, 0, 0)" fill-opacity="1.000000" />
<path d="M 69.892578 111.335938 L 69.892578 110.412109 L 76.729980 110.412109 L 76.729980 111.335938 Z " fill="rgb(0, 0, 0)" fill-opacity="1.000000" />
<path d="M 76.892578 111.335938 L 76.892578 110.412109 L 83.729980 110.412109 L 83.729980 111.335938 Z " fill="rgb(0, 0, 0)" fill-opacity="1.000000" />
<path d="M 83.892578 111.335938 L 83.892578 110.412109 L 90.729980 110.412109 L 90.729980 111.335938 Z " fill="rgb(0, 0, 0)" fill-opacity="1.000000" />
<path d="M 90.892578 111.335938 L 90.892578 110.412109 L 97.729980 110.412109 L 97.729980 111.335938 Z " fill="rgb(0, 0, 0)" fill-opacity="1.000000" />
<path d="M 97.892578 111.335938 L 97.892578 110.412109 L 104.729980 110.412109 L 104.729980 111.335938 Z " fill="rgb(0, 0, 0)" fill-opacity="1.000000" />
<path d="M 104.892578 111.335938 L 104.892578 110.412109 L 111.729980 110.412109 L 111.729980 111.335938 Z " fill="rgb(0, 0, 0)" fill-opacity="1.000000" />
<path d="M 111.892578 111.335938 L 111.892578 110.412109 L 118.729980 110.412109 L 118.729980 111.335938 Z " fill="rgb(0, 0, 0)" fill-opacity="1.000000" />
<path d="M 118.892578 111.335938 L 118.892578 110.412109 L 125.729980 110.412109 L 125.729980 111.335938 Z " fill="rgb(0, 0, 0)" fill-opacity="1.000000" />
<path d="M 125.892578 111.335938 L 125.892578 110.412109 L 132.729980 110.412109 L 132.729980 111.335938 Z " fill="rgb(0, 0, 0)" fill-opacity="1.000000" />
<path d="M 132.892578 111.335938 L 132.892578 110.412109 L 139.729980 110.412109 L 139.729980 111.335938 Z " fill="rgb(0, 0, 0)" fill-opacity="1.000000" />
<path d="M 139.892578 111.335938 L 139.892578 110.412109 L 146.729980 110.412109 L 146.729980 111.335938 Z " fill="rgb(0, 0, 0)" fill-opacity="1.000000" />
<path d="M 146.892578 111.335938 L 146.892578 110.412109 L 153.729980 110.412109 L 153.729980 111.335938 Z " fill="rgb(0, 0, 0)" fill-opacity="1.000000" />
<path d="M 153.892578 111.335938 L 153.892578 110.412109 L 160.729980 110.412109 L 160.729980 111.335938 Z " fill="rgb(0, 0, 0)" fill-opacity="1.000000" />
<path d="M 160.892578 111.335938 L 160.892578 110.412109 L 167.729980 110.412109 L 167.729980 111.335938 Z " fill="rgb(0, 0, 0)" fill-opacity="1.000000" />
<path d="M 167.892578 111.335938 L 167.892578 110.412109 L 174.729980 110.412109 L 174.729980 111.335938 Z " fill="rgb(0, 0, 0)" fill-opacity="1.000000" />
<path d="M 174.892578 111.335938 L 174.892578 110.412109 L 181.729980 110.412109 L 181.729980 111.335938 Z " fill="rgb(0, 0, 0)" fill-opacity="1.000000" />
<path d="M 181.892578 111.335938 L 181.892578 110.412109 L 188.729980 110.412109 L 188.729980 111.335938 Z " fill="rgb(0, 0, 0)" fill-opacity="1.000000" />
<path d="M 188.892578 111.335938 L 188.892578 110.412109 L 195.729980 110.412109 L 195.729980 111.335938 Z " fill="rgb(0, 0, 0)" fill-opacity="1.000000" />
<path d="M 195.892578 111.335938 L 195.892578 110.412109 L 202.729980 110.412109 L 202.729980 111.335938 Z " fill="rgb(0, 0, 0)" fill-opacity="1.000000" />
<path d="M 202.892578 111.335938 L 202.892578 110.412109 L 209.729980 110.412109 L 209.729980 111.335938 Z " fill="rgb(0, 0, 0)" fill-opacity="1.000000" />
<path d="M 209.892578 111.335938 L 209.892578 110.412109 L 216.729980 110.412109 L 216.729980 111.335938 Z " fill="rgb(0, 0, 0)" fill-opacity="1.000000" />
<path d="M 216.892578 111.335938 L 216.892578 110.412109 L 223.729980 110.412109 L 223.729980 111.335938 Z " fill="rgb(0, 0, 0)" fill-opacity="1.000000" />
<path d="M 223.892578 111.335938 L 223.892578 110.412109 L 230.729980 110.412109 L 230.729980 111.335938 Z " fill="rgb(0, 0, 0)" fill-opacity="1.000000" />
<path d="M 230.892578 111.335938 L 230.892578 110.412109 L 237.729980 110.412109 L 237.729980 111.335938 Z " fill="rgb(0, 0, 0)" fill-opacity="1.000000" />
<path d="M 237.892578 111.335938 L 237.892578 110.412109 L 244.729980 110.412109 L 244.729980 111.335938 Z " fill="rgb(0, 0, 0)" fill-opacity="1.000000" />
<path d="M 244.892578 111.335938 L 244.892578 110.412109 L 251.729980 110.412109 L 251.729980 111.335938 Z " fill="rgb(0, 0, 0)" fill-opacity="1.000000" />
<path d="M 251.892578 111.335938 L 251.892578 110.412109 L 258.729980 110.412109 L 258.729980 111.335938 Z " fill="rgb(0, 0, 0)" fill-opacity="1.000000" />
<path d="M 258.892578 111.335938 L 258.892578 110.412109 L 265.729980 110.412109 L 265.729980 111.335938 Z " fill="rgb(0, 0, 0)" fill-opacity="1.000000" />
<path d="M 265.892578 111.335938 L 265.892578 110.412109 L 272.729980 110.412109 L 272.729980 111.335938 Z " fill="rgb(0, 0, 0)" fill-opacity="1.000000" />
<path d="M 272.892578 111.335938 L 272.892578 110.412109 L 279.729980 110.412109 L 279.729980 111.335938 Z " fill="rgb(0, 0, 0)" fill-opacity="1.000000" />
<path d="M 279.892578 111.335938 L 279.892578 110.412109 L 286.729980 110.412109 L 286.729980 111.335938 Z " fill="rgb(0, 0, 0)" fill-opacity="1.000000" />
<path d="M 286.892578 111.335938 L 286.892578 110.412109 L 293.729980 110.412109 L 293.729980 111.335938 Z " fill="rgb(0, 0, 0)" fill-opacity="1.000000" />
<path d="M 293.892578 111.335938 L 293.892578 110.412109 L 300.729980 110.412109 L 300.729980 111.335938 Z " fill="rgb(0, 0, 0)" fill-opacity="1.000000" />
<path d="M 300.892578 111.335938 L 300.892578 110.412109 L 307.729980 110.412109 L 307.729980 111.335938 Z " fill="rgb(0, 0, 0)" fill-opacity="1.000000" />
<path d="M 307.892578 111.335938 L 307.892578 110.412109 L 314.729980 110.412109 L 314.729980 111.335938 Z " fill="rgb(0, 0, 0)" fill-opacity="1.000000" />
<path d="M 314.892578 111.335938 L 314.892578 110.412109 L 321.729980 110.412109 L 321.729980 111.335938 Z " fill="rgb(0, 0, 0)" fill-opacity="1.000000" />
<path d="M 321.892578 111.335938 L 321.892578 110.412109 L 328.729980 110.412109 L 328.729980 111.335938 Z " fill="rgb(0, 0, 0)" fill-opacity="1.000000" />
<path d="M 328.892578 111.335938 L 328.892578 110.412109 L 335.729980 110.412109 L 335.729980 111.335938 Z " fill="rgb(0, 0, 0)" fill-opacity="1.000000" />
<path d="M 335.892578 111.335938 L 335.892578 110.412109 L 342.729980 110.412109 L 342.729980 111.335938 Z " fill="rgb(0, 0, 0)" fill-opacity="1.000000" />
<path d="M 342.892578 111.335938 L 342.892578 110.412109 L 349.729980 110.412109 L 349.729980 111.335938 Z " fill="rgb(0, 0, 0)" fill-opacity="1.000000" />
<path d="M 349.892578 111.335938 L 349.892578 110.412109 L 356.729980 110.412109 L 356.729980 111.335938 Z " fill="rgb(0, 0, 0)" fill-opacity="1.000000" />
<path d="M 356.892578 111.335938 L 356.892578 110.412109 L 363.729980 110.412109 L 363.729980 111.335938 Z " fill="rgb(0, 0, 0)" fill-opacity="1.000000" />
<path d="M 363.892578 111.335938 L 363.892578 110.412109 L 370.729980 110.412109 L 370.729980 111.335938 Z " fill="rgb(0, 0, 0)" fill-opacity="1.000000" />
<path d="M 370.892578 111.335938 L 370.892578 110.412109 L 377.729980 110.412109 L 377.729980 111.335938 Z " fill="rgb(0, 0, 0)" fill-opacity="1.000000" />
<path d="M 377.892578 111.335938 L 377.892578 110.412109 L 384.729980 110.412109 L 384.729980 111.335938 Z " fill="rgb(0, 0, 0)" fill-opacity="1.000000" />
<path d="M 384.892578 111.335938 L 384.892578 110.412109 L 391.729980 110.412109 L 391.729980 111.335938 Z " fill="rgb(0, 0, 0)" fill-opacity="1.000000" />
<path d="M 391.892578 111.335938 L 391.892578 110.412109 L 398.729980 110.412109 L 398.729980 111.335938 Z " fill="rgb(0, 0, 0)" fill-opacity="1.000000" />
<path d="M 398.892578 111.335938 L 398.892578 110.412109 L 405.729980 110.412109 L 405.729980 111.335938 Z " fill="rgb(0, 0, 0)" fill-opacity="1.000000" />
<path d="M 405.892578 111.335938 L 405.892578 110.412109 L 412.729980 110.412109 L 412.729980 111.335938 Z " fill="rgb(0, 0, 0)" fill-opacity="1.000000" />
<path d="M 412.892578 111.335938 L 412.892578 110.412109 L 419.729980 110.412109 L 419.729980 111.335938 Z " fill="rgb(0, 0, 0)" fill-opacity="1.000000" />
<path d="M 419.892578 111.335938 L 419.892578 110.412109 L 426.729980 110.412109 L 426.729980 111.335938 Z " fill="rgb(0, 0, 0)" fill-opacity="1.000000" />
<path d="M 426.892578 111.335938 L 426.892578 110.412109 L 433.729980 110.412109 L 433.729980 111.335938 Z " fill="rgb(0, 0, 0)" fill-opacity="1.000000" />
<path d="M 433.892578 111.335938 L 433.892578 110.412109 L 440.729980 110.412109 L 440.729980 111.335938 Z " fill="rgb(0, 0, 0)" fill-opacity="1.000000" />
<path d="M 440.892578 111.335938 L 440.892578 110.412109 L 447.729980 110.412109 L 447.729980 111.335938 Z " fill="rgb(0, 0, 0)" fill-opacity="1.000000" />
<path d="M 447.892578 111.335938 L 447.892578 110.412109 L 454.729980 110.412109 L 454.729980 111.335938 Z " fill="rgb(0, 0, 0)" fill-opacity="1.000000" />
<path d="M 454.892578 111.335938 L 454.892578 110.412109 L 461.729980 110.412109 L 461.729980 111.335938 Z " fill="rgb(0, 0, 0)" fill-opacity="1.000000" />
<path d="M 461.892578 111.335938 L 461.892578 110.412109 L 468.729980 110.412109 L 468.729980 111.335938 Z " fill="rgb(0, 0, 0)" fill-opacity="1.000000" />
<path d="M 468.892578 111.335938 L 468.892578 110.412109 L 475.729980 110.412109 L 475.729980 111.335938 Z " fill="rgb(0, 0, 0)" fill-opacity="1.000000" />
<path d="M 475.892578 111.335938 L 475.892578 110.412109 L 482.729980 110.412109 L 482.729980 111.335938 Z " fill="rgb(0, 0, 0)" fill-opacity="1.000000" />
<path d="M 482.892578 111.335938 L 482.892578 110.412109 L 489.729980 110.412109 L 489.729980 111.335938 Z " fill="rgb(0, 0, 0)" fill-opacity="1.000000" />
<path d="M 489.892578 111.335938 L 489.892578 110.412109 L 496.729980 110.412109 L 496.729980 111.335938 Z " fill="rgb(0, 0, 0)" fill-opacity="1.000000" />
<path d="M 496.892578 111.335938 L 496.892578 110.412109 L 503.729980 110.412109 L 503.729980 111.335938 Z " fill="rgb(0, 0, 0)" fill-opacity="1.000000" />
<path d="M 503.892578 111.335938 L 503.892578 110.412109 L 510.729980 110.412109 L 510.729980 111.335938 Z " fill="rgb(0, 0, 0)" fill-opacity="1.000000" />
<path d="M 510.892578 111.335938 L 510.892578 110.412109 L 517.729980 110.412109 L 517.729980 111.335938 Z " fill="rgb(0, 0, 0)" fill-opacity="1.000000" />
<path d="M 517.892578 111.335938 L 517.892578 110.412109 L 524.729980 110.412109 L 524.729980 111.335938 Z " fill="rgb(0, 0, 0)" fill-opacity="1.000000" />
<path d="M 524.892578 111.335938 L 524.892578 110.412109 L 531.729980 110.412109 L 531.729980 111.335938 Z " fill="rgb(0, 0, 0)" fill-opacity="1.000000" />
<path d="M 531.892578 111.335938 L 531.892578 110.412109 L 538.729980 110.412109 L 538.729980 111.335938 Z " fill="rgb(0, 0, 0)" fill-opacity="1.000000" />
<path d="M 538.892578 111.335938 L 538.892578 110.412109 L 545.729980 110.412109 L 545.729980 111.335938 Z " fill="rgb(0, 0, 0)" fill-opacity="1.000000" />
<path d="M 545.892578 111.335938 L 545.892578 110.412109 L 548.878906 110.412109 L 548.878906 103.300781 L 549.738281 103.300781 L 549.738281 111.335938 Z " fill="rgb(0, 0, 0)" fill-opacity="1.000000" />
<path d="M 6.892578 85.335938 L 6.892578 84.412109 L 13.729980 84.412109 L 13.729980 85.335938 Z " fill="rgb(0, 0, 0)" fill-opacity="1.000000" />
<path d="M 13.892578 85.335938 L 13.892578 84.412109 L 20.729980 84.412109 L 20.729980 85.335938 Z " fill="rgb(0, 0, 0)" fill-opacity="1.000000" />
<path d="M 20.892578 85.335938 L 20.892578 84.412109 L 27.729980 84.412109 L 27.729980 85.335938 Z " fill="rgb(0, 0, 0)" fill-opacity="1.000000" />
<path d="M 27.892578 85.335938 L 27.892578 84.412109 L 34.729980 84.412109 L 34.729980 85.335938 Z " fill="rgb(0, 0, 0)" fill-opacity="1.000000" />
<path d="M 34.892578 85.335938 L 34.892578 84.412109 L 41.729980 84.412109 L 41.729980 85.335938 Z " fill="rgb(0, 0, 0)" fill-opacity="1.000000" />
<path d="M 41.892578 85.335938 L 41.892578 84.412109 L 48.729980 84.412109 L 48.729980 85.335938 Z " fill="rgb(0, 0, 0)" fill-opacity="1.000000" />
<path d="M 48.892578 85.335938 L 48.892578 84.412109 L 55.729980 84.412109 L 55.729980 85.335938 Z " fill="rgb(0, 0, 0)" fill-opacity="1.000000" />
<path d="M 55.892578 85.335938 L 55.892578 84.412109 L 62.729980 84.412109 L 62.729980 85.335938 Z " fill="rgb(0, 0, 0)" fill-opacity="1.000000" />
<path d="M 62.892578 85.335938 L 62.892578 84.412109 L 69.729980 84.412109 L 69.729980 85.335938 Z " fill="rgb(0, 0, 0)" fill-opacity="1.000000" />
<path d="M 69.892578 85.335938 L 69.892578 84.412109 L 76.729980 84.412109 L 76.729980 85.335938 Z " fill="rgb(0, 0, 0)" fill-opacity="1.000000" />
<path d="M 76.892578 85.335938 L 76.892578 84.412109 L 83.729980 84.412109 L 83.729980 85.335938 Z " fill="rgb(0, 0, 0)" fill-opacity="1.000000" />
<path d="M 83.892578 85.335938 L 83.892578 84.412109 L 90.729980 84.412109 L 90.729980 85.335938 Z " fill="rgb(0, 0, 0)" fill-opacity="1.000000" />
<path d="M 90.892578 85.335938 L 90.892578 84.412109 L 93.878906 84.412109 L 93.878906 77.300781 L 94.738281 77.300781 L 94.738281 85.335938 Z " fill="rgb(0, 0, 0)" fill-opacity="1.000000" />
<path d="M 97.892578 85.335938 L 97.892578 84.412109 L 104.729980 84.412109 L 104.729980 85.335938 Z " fill="rgb(0, 0, 0)" fill-opacity="1.000000" />
<path d="M 111.892578 85.335938 L 111.892578 84.412109 L 118.729980 84.412109 L 118.729980 85.335938 Z " fill="rgb(0, 0, 0)" fill-opacity="1.000000" />
<path d="M 125.892578 85.335938 L 125.892578 84.412109 L 132.729980 84.412109 L 132.729980 85.335938 Z " fill="rgb(0, 0, 0)" fill-opacity="1.000000" />
<path d="M 139.892578 85.335938 L 139.892578 84.412109 L 146.729980 84.412109 L 146.729980 85.335938 Z " fill="rgb(0, 0, 0)" fill-opacity="1.000000" />
<path d="M 153.892578 85.335938 L 153.892578 84.412109 L 160.729980 84.412109 L 160.729980 85.335938 Z " fill="rgb(0, 0, 0)" fill-opacity="1.000000" />
<path d="M 167.892578 85.335938 L 167.892578 84.412109 L 174.729980 84.412109 L 174.729980 85.335938 Z " fill="rgb(0, 0, 0)" fill-opacity="1.000000" />
<path d="M 181.892578 85.335938 L 181.892578 84.412109 L 184.878906 84.412109 L 184.878906 77.300781 L 185.738281 77.300781 L 185.738281 84.412109 L 188.729980 84.412109 L 188.729980 85.335938 Z " fill="rgb(0, 0, 0)" fill-opacity="1.000000" />
<path d="M 188.892578 85.335938 L 188.892578 84.412109 L 195.729980 84.412109 L 195.729980 85.335938 Z " fill="rgb(0, 0, 0)" fill-opacity="1.000000" />
<path d="M 195.892578 85.335938 L 195.892578 84.412109 L 202.729980 84.412109 L 202.729980 85.335938 Z " fill="rgb(0, 0, 0)" fill-opacity="1.000000" />
<path d="M 202.892578 85.335938 L 202.892578 84.412109 L 209.729980 84.412109 L 209.729980 85.335938 Z " fill="rgb(0, 0, 0)" fill-opacity="1.000000" />
<path d="M 209.892578 85.335938 L 209.892578 84.412109 L 216.729980 84.412109 L 216.729980 85.335938 Z " fill="rgb(0, 0, 0)" fill-opacity="1.000000" />
<path d="M 216.892578 85.335938 L 216.892578 84.412109 L 223.729980 84.412109 L 223.729980 85.335938 Z " fill="rgb(0, 0, 0)" fill-opacity="1.000000" />
<path d="M 223.892578 85.335938 L 223.892578 84.412109 L 230.729980 84.412109 L 230.729980 85.335938 Z " fill="rgb(0, 0, 0)" fill-opacity="1.000000" />
<path d="M 230.892578 85.335938 L 230.892578 84.412109 L 237.729980 84.412109 L 237.729980 85.335938 Z " fill="rgb(0, 0, 0)" fill-opacity="1.000000" />
<path d="M 237.892578 85.335938 L 237.892578 84.412109 L 244.729980 84.412109 L 244.729980 85.335938 Z " fill="rgb(0, 0, 0)" fill-opacity="1.000000" />
<path d="M 244.892578 85.335938 L 244.892578 84.412109 L 251.729980 84.412109 L 251.729980 85.335938 Z " fill="rgb(0, 0, 0)" fill-opacity="1.000000" />
<path d="M 251.892578 85.335938 L 251.892578 84.412109 L 258.729980 84.412109 L 258.729980 85.335938 Z " fill="rgb(0, 0, 0)" fill-opacity="1.000000" />
<path d="M 258.892578 85.335938 L 258.892578 84.412109 L 265.729980 84.412109 L 265.729980 85.335938 Z " fill="rgb(0, 0, 0)" fill-opacity="1.000000" />
<path d="M 265.892578 85.335938 L 265.892578 84.412109 L 272.729980 84.412109 L 272.729980 85.335938 Z " fill="rgb(0, 0, 0)" fill-opacity="1.000000" />
<path d="M 272.892578 85.335938 L 272.892578 84.412109 L 279.729980 84.412109 L 279.729980 85.335938 Z " fill="rgb(0, 0, 0)" fill-opacity="1.000000" />
<path d="M 279.892578 85.335938 L 279.892578 84.412109 L 286.729980 84.412109 L 286.729980 85.335938 Z " fill="rgb(0, 0, 0)" fill-opacity="1.000000" />
<path d="M 286.892578 85.335938 L 286.892578 84.412109 L 293.729980 84.412109 L 293.729980 85.335938 Z " fill="rgb(0, 0, 0)" fill-opacity="1.000000" />
<path d="M 293.892578 85.335938 L 293.892578 84.412109 L 300.729980 84.412109 L 300.729980 85.335938 Z " fill="rgb(0, 0, 0)" fill-opacity="1.000000" />
<path d="M 300.892578 85.335938 L 300.892578 84.412109 L 307.729980 84.412109 L 307.729980 85.335938 Z " fill="rgb(0, 0, 0)" fill-opacity="1.000000" />
<path d="M 307.892578 85.335938 L 307.892578 84.412109 L 314.729980 84.412109 L 314.729980 85.335938 Z " fill="rgb(0, 0, 0)" fill-opacity="1.000000" />
<path d="M 314.892578 85.335938 L 314.892578 84.412109 L 321.729980 84.412109 L 321.729980 85.335938 Z " fill="rgb(0, 0, 0)" fill-opacity="1.000000" />
<path d="M 321.892578 85.335938 L 321.892578 84.412109 L 328.729980 84.412109 L 328.729980 85.335938 Z " fill="rgb(0, 0, 0)" fill-opacity="1.000000" />
<path d="M 328.892578 85.335938 L 328.892578 84.412109 L 335.729980 84.412109 L 335.729980 85.335938 Z " fill="rgb(0, 0, 0)" fill-opacity="1.000000" />
<path d="M 335.892578 85.335938 L 335.892578 84.412109 L 342.729980 84.412109 L 342.729980 85.335938 Z " fill="rgb(0, 0, 0)" fill-opacity="1.000000" />
<path d="M 342.892578 85.335938 L 342.892578 84.412109 L 349.729980 84.412109 L 349.729980 85.335938 Z " fill="rgb(0, 0, 0)" fill-opacity="1.000000" />
<path d="M 349.892578 85.335938 L 349.892578 84.412109 L 356.729980 84.412109 L 356.729980 85.335938 Z " fill="rgb(0, 0, 0)" fill-opacity="1.000000" />
<path d="M 356.892578 85.335938 L 356.892578 84.412109 L 363.729980 84.412109 L 363.729980 85.335938 Z " fill="rgb(0, 0, 0)" fill-opacity="1.000000" />
<path d="M 363.892578 85.335938 L 363.892578 84.412109 L 366.878906 84.412109 L 366.878906 77.300781 L 367.738281 77.300781 L 367.738281 84.412109 L 370.729980 84.412109 L 370.729980 85.335938 Z " fill="rgb(0, 0, 0)" fill-opacity="1.000000" />
<path d="M 370.892578 85.335938 L 370.892578 84.412109 L 377.729980 84.412109 L 377.729980 85.335938 Z " fill="rgb(0, 0, 0)" fill-opacity="1.000000" />
<path d="M 377.892578 85.335938 L 377.892578 84.412109 L 384.729980 84.412109 L 384.729980 85.335938 Z " fill="rgb(0, 0, 0)" fill-opacity="1.000000" />
<path d="M 384.892578 85.335938 L 384.892578 84.412109 L 391.729980 84.412109 L 391.729980 85.335938 Z " fill="rgb(0, 0, 0)" fill-opacity="1.000000" />
<path d="M 391.892578 85.335938 L 391.892578 84.412109 L 398.729980 84.412109 L 398.729980 85.335938 Z " fill="rgb(0, 0, 0)" fill-opacity="1.000000" />
<path d="M 398.892578 85.335938 L 398.892578 84.412109 L 405.729980 84.412109 L 405.729980 85.335938 Z " fill="rgb(0, 0, 0)" fill-opacity="1.000000" />
<path d="M 405.892578 85.335938 L 405.892578 84.412109 L 412.729980 84.412109 L 412.729980 85.335938 Z " fill="rgb(0, 0, 0)" fill-opacity="1.000000" />
<path d="M 412.892578 85.335938 L 412.892578 84.412109 L 419.729980 84.412109 L 419.729980 85.335938 Z " fill="rgb(0, 0, 0)" fill-opacity="1.000000" />
<path d="M 419.892578 85.335938 L 419.892578 84.412109 L 426.729980 84.412109 L 426.729980 85.335938 Z " fill="rgb(0, 0, 0)" fill-opacity="1.000000" />
<path d="M 426.892578 85.335938 L 426.892578 84.412109 L 433.729980 84.412109 L 433.729980 85.335938 Z " fill="rgb(0, 0, 0)" fill-opacity="1.000000" />
<path d="M 433.892578 85.335938 L 433.892578 84.412109 L 440.729980 84.412109 L 440.729980 85.335938 Z " fill="rgb(0, 0, 0)" fill-opacity="1.000000" />
<path d="M 440.892578 85.335938 L 440.892578 84.412109 L 447.729980 84.412109 L 447.729980 85.335938 Z " fill="rgb(0, 0, 0)" fill-opacity="1.000000" />
<path d="M 447.892578 85.335938 L 447.892578 84.412109 L 454.729980 84.412109 L 454.729980 85.335938 Z " fill="rgb(0, 0, 0)" fill-opacity="1.000000" />
<path d="M 454.892578 85.335938 L 454.892578 84.412109 L 457.878906 84.412109 L 457.878906 77.300781 L 458.738281 77.300781 L 458.738281 85.335938 Z " fill="rgb(0, 0, 0)" fill-opacity="1.000000" />
<path d="M 461.892578 85.335938 L 461.892578 84.412109 L 468.729980 84.412109 L 468.729980 85.335938 Z " fill="rgb(0, 0, 0)" fill-opacity="1.000000" />
<path d="M 475.892578 85.335938 L 475.892578 84.412109 L 482.729980 84.412109 L 482.729980 85.335938 Z " fill="rgb(0, 0, 0)" fill-opacity="1.000000" />
<path d="M 489.892578 85.335938 L 489.892578 84.412109 L 496.729980 84.412109 L 496.729980 85.335938 Z " fill="rgb(0, 0, 0)" fill-opacity="1.000000" />
<path d="M 503.892578 85.335938 L 503.892578 84.412109 L 510.729980 84.412109 L 510.729980 85.335938 Z " fill="rgb(0, 0, 0)" fill-opacity="1.000000" />
<path d="M 517.892578 85.335938 L 517.892578 84.412109 L 524.729980 84.412109 L 524.729980 85.335938 Z " fill="rgb(0, 0, 0)" fill-opacity="1.000000" />
<path d="M 531.892578 85.335938 L 531.892578 84.412109 L 538.729980 84.412109 L 538.729980 85.335938 Z " fill="rgb(0, 0, 0)" fill-opacity="1.000000" />
<path d="M 545.892578 85.335938 L 545.892578 84.412109 L 548.878906 84.412109 L 548.878906 77.300781 L 549.738281 77.300781 L 549.738281 85.335938 Z " fill="rgb(0, 0, 0)" fill-opacity="1.000000" />
<path d="M 18.592285 53.116211 Q 17.877930 54.340820 17.526123 55.557373 Q 17.174316 56.773926 17.174316 58.009277 Q 17.174316 59.239258 17.526123 60.458496 Q 17.877930 61.677734 18.592285 62.913086 L 17.732910 62.913086 Q 16.921875 61.634766 16.524414 60.423584 Q 16.126953 59.212402 16.126953 58.009277 Q 16.126953 56.811523 16.524414 55.597656 Q 16.921875 54.383789 17.732910 53.116211 Z " fill="rgb(0, 0, 0)" fill-opacity="1.000000" />
<path d="M 93.878906 78.319336 L 93.878906 64.300781 L 94.738281 64.300781 L 94.738281 78.319336 Z " fill="rgb(0, 0, 0)" fill-opacity="1.000000" />
<path d="M 184.878906 78.319336 L 184.878906 64.300781 L 185.738281 64.300781 L 185.738281 78.319336 Z " fill="rgb(0, 0, 0)" fill-opacity="1.000000" />
<path d="M 366.878906 78.319336 L 366.878906 64.300781 L 367.738281 64.300781 L 367.738281 78.319336 Z " fill="rgb(0, 0, 0)" fill-opacity="1.000000" />
<path d="M 457.878906 78.319336 L 457.878906 64.300781 L 458.738281 64.300781 L 458.738281 78.319336 Z " fill="rgb(0, 0, 0)" fill-opacity="1.000000" />
<path d="M 24.947754 54.969238 L 22.417969 59.207031 L 24.947754 59.207031 Z M 24.770508 53.980957 L 26.027344 53.980957 L 26.027344 59.207031 L 27.096191 59.207031 L 27.096191 60.087891 L 26.027344 60.087891 L 26.027344 62.000000 L 24.947754 62.000000 L 24.947754 60.087891 L 21.547852 60.087891 L 21.547852 59.062012 Z " fill="rgb(0, 0, 0)" fill-opacity="1.000000" />
<path d="M 39.930664 58.997559 Q 39.930664 57.848145 39.565430 57.262695 Q 39.200195 56.677246 38.485840 56.677246 Q 37.766113 56.677246 37.395508 57.265381 Q 37.024902 57.853516 37.024902 58.997559 Q 37.024902 60.136230 37.395508 60.727051 Q 37.766113 61.317871 38.485840 61.317871 Q 39.200195 61.317871 39.565430 60.732422 Q 39.930664 60.146973 39.930664 58.997559 Z M 37.024902 56.752441 Q 37.261230 56.312012 37.677490 56.075684 Q 38.093750 55.839355 38.641602 55.839355 Q 39.726562 55.839355 40.349609 56.674561 Q 40.972656 57.509766 40.972656 58.976074 Q 40.972656 60.463867 40.346924 61.309814 Q 39.721191 62.155762 38.630859 62.155762 Q 38.093750 62.155762 37.682861 61.922119 Q 37.271973 61.688477 37.024902 61.242676 L 37.024902 62.000000 L 36.036621 62.000000 L 36.036621 53.642578 L 37.024902 53.642578 Z " fill="rgb(0, 0, 0)" fill-opacity="1.000000" />
<path d="M 46.608398 60.066406 Q 46.361328 60.694824 45.979980 61.720703 Q 45.448242 63.138672 45.265625 63.450195 Q 45.018555 63.869141 44.647949 64.078613 Q 44.277344 64.288086 43.783203 64.288086 L 42.988281 64.288086 L 42.988281 63.460938 L 43.573730 63.460938 Q 44.008789 63.460938 44.255859 63.208496 Q 44.502930 62.956055 44.884277 61.903320 L 42.558594 55.984375 L 43.605957 55.984375 L 45.389160 60.689453 L 47.145508 55.984375 L 48.192871 55.984375 Z " fill="rgb(0, 0, 0)" fill-opacity="1.000000" />
<path d="M 52.297852 54.276367 L 52.297852 55.984375 L 54.542969 55.984375 L 54.542969 56.752441 L 52.297852 56.752441 L 52.297852 60.018066 Q 52.297852 60.684082 52.550293 60.947266 Q 52.802734 61.210449 53.431152 61.210449 L 54.542969 61.210449 L 54.542969 62.000000 L 53.334473 62.000000 Q 52.222656 62.000000 51.766113 61.554199 Q 51.309570 61.108398 51.309570 60.018066 L 51.309570 56.752441 L 49.703613 56.752441 L 49.703613 55.984375 L 51.309570 55.984375 L 51.309570 54.276367 Z " fill="rgb(0, 0, 0)" fill-opacity="1.000000" />
<path d="M 62.015625 58.498047 L 62.015625 58.981445 L 57.734863 58.981445 L 57.734863 59.013672 Q 57.691895 60.243652 58.204834 60.780762 Q 58.717773 61.317871 59.652344 61.317871 Q 60.125000 61.317871 60.640625 61.167480 Q 61.156250 61.017090 61.741699 60.710938 L 61.741699 61.693848 Q 61.177734 61.924805 60.654053 62.040283 Q 60.130371 62.155762 59.641602 62.155762 Q 58.239746 62.155762 57.450195 61.315186 Q 56.660645 60.474609 56.660645 58.997559 Q 56.660645 57.558105 57.434082 56.698730 Q 58.207520 55.839355 59.496582 55.839355 Q 60.645996 55.839355 61.309326 56.618164 Q 61.972656 57.396973 62.015625 58.498047 Z M 61.027344 58.208008 Q 60.962891 57.584961 60.573486 57.131104 Q 60.184082 56.677246 59.453613 56.677246 Q 58.739258 56.677246 58.277344 57.149902 Q 57.815430 57.622559 57.772461 58.213379 Z " fill="rgb(0, 0, 0)" fill-opacity="1.000000" />
<path d="M 68.226074 56.193848 L 68.226074 57.160645 Q 67.801758 56.913574 67.372070 56.790039 Q 66.942383 56.666504 66.496582 56.666504 Q 65.825195 56.666504 65.494873 56.884033 Q 65.164551 57.101562 65.164551 57.547363 Q 65.164551 57.950195 65.411621 58.148926 Q 65.658691 58.347656 66.641602 58.535645 L 67.039062 58.610840 Q 67.774902 58.750488 68.153564 59.169434 Q 68.532227 59.588379 68.532227 60.259766 Q 68.532227 61.151367 67.898438 61.653564 Q 67.264648 62.155762 66.136719 62.155762 Q 65.690918 62.155762 65.202148 62.061768 Q 64.713379 61.967773 64.144043 61.779785 L 64.144043 60.759277 Q 64.697266 61.043945 65.202148 61.186279 Q 65.707031 61.328613 66.158203 61.328613 Q 66.813477 61.328613 67.173340 61.062744 Q 67.533203 60.796875 67.533203 60.318848 Q 67.533203 59.631348 66.217285 59.368164 L 66.174316 59.357422 L 65.803711 59.282227 Q 64.949707 59.115723 64.557617 58.720947 Q 64.165527 58.326172 64.165527 57.644043 Q 64.165527 56.779297 64.750977 56.309326 Q 65.336426 55.839355 66.421387 55.839355 Q 66.904785 55.839355 67.350586 55.927979 Q 67.796387 56.016602 68.226074 56.193848 Z " fill="rgb(0, 0, 0)" fill-opacity="1.000000" />
<path d="M 71.869141 53.116211 L 72.728516 53.116211 Q 73.539551 54.383789 73.937012 55.597656 Q 74.334473 56.811523 74.334473 58.009277 Q 74.334473 59.217773 73.937012 60.431641 Q 73.539551 61.645508 72.728516 62.913086 L 71.869141 62.913086 Q 72.583496 61.666992 72.935303 60.447754 Q 73.287109 59.228516 73.287109 58.009277 Q 73.287109 56.784668 72.935303 55.565430 Q 72.583496 54.346191 71.869141 53.116211 Z " fill="rgb(0, 0, 0)" fill-opacity="1.000000" />
<path d="M 93.878906 65.319336 L 93.878906 51.300781 L 94.738281 51.300781 L 94.738281 65.319336 Z " fill="rgb(0, 0, 0)" fill-opacity="1.000000" />
<path d="M 109.592285 53.116211 Q 108.877930 54.340820 108.526123 55.557373 Q 108.174316 56.773926 108.174316 58.009277 Q 108.174316 59.239258 108.526123 60.458496 Q 108.877930 61.677734 109.592285 62.913086 L 108.732910 62.913086 Q 107.921875 61.634766 107.524414 60.423584 Q 107.126953 59.212402 107.126953 58.009277 Q 107.126953 56.811523 107.524414 55.597656 Q 107.921875 54.383789 108.732910 53.116211 Z " fill="rgb(0, 0, 0)" fill-opacity="1.000000" />
<path d="M 115.947754 54.969238 L 113.417969 59.207031 L 115.947754 59.207031 Z M 115.770508 53.980957 L 117.027344 53.980957 L 117.027344 59.207031 L 118.096191 59.207031 L 118.096191 60.087891 L 117.027344 60.087891 L 117.027344 62.000000 L 115.947754 62.000000 L 115.947754 60.087891 L 112.547852 60.087891 L 112.547852 59.062012 Z " fill="rgb(0, 0, 0)" fill-opacity="1.000000" />
<path d="M 130.930664 58.997559 Q 130.930664 57.848145 130.565430 57.262695 Q 130.200195 56.677246 129.485840 56.677246 Q 128.766113 56.677246 128.395508 57.265381 Q 128.024902 57.853516 128.024902 58.997559 Q 128.024902 60.136230 128.395508 60.727051 Q 128.766113 61.317871 129.485840 61.317871 Q 130.200195 61.317871 130.565430 60.732422 Q 130.930664 60.146973 130.930664 58.997559 Z M 128.024902 56.752441 Q 128.261230 56.312012 128.677490 56.075684 Q 129.093750 55.839355 129.641602 55.839355 Q 130.726562 55.839355 131.349609 56.674561 Q 131.972656 57.509766 131.972656 58.976074 Q 131.972656 60.463867 131.346924 61.309814 Q 130.721191 62.155762 129.630859 62.155762 Q 129.093750 62.155762 128.682861 61.922119 Q 128.271973 61.688477 128.024902 61.242676 L 128.024902 62.000000 L 127.036621 62.000000 L 127.036621 53.642578 L 128.024902 53.642578 Z " fill="rgb(0, 0, 0)" fill-opacity="1.000000" />
<path d="M 137.608398 60.066406 Q 137.361328 60.694824 136.979980 61.720703 Q 136.448242 63.138672 136.265625 63.450195 Q 136.018555 63.869141 135.647949 64.078613 Q 135.277344 64.288086 134.783203 64.288086 L 133.988281 64.288086 L 133.988281 63.460938 L 134.573730 63.460938 Q 135.008789 63.460938 135.255859 63.208496 Q 135.502930 62.956055 135.884277 61.903320 L 133.558594 55.984375 L 134.605957 55.984375 L 136.389160 60.689453 L 138.145508 55.984375 L 139.192871 55.984375 Z " fill="rgb(0, 0, 0)" fill-opacity="1.000000" />
<path d="M 143.297852 54.276367 L 143.297852 55.984375 L 145.542969 55.984375 L 145.542969 56.752441 L 143.297852 56.752441 L 143.297852 60.018066 Q 143.297852 60.684082 143.550293 60.947266 Q 143.802734 61.210449 144.431152 61.210449 L 145.542969 61.210449 L 145.542969 62.000000 L 144.334473 62.000000 Q 143.222656 62.000000 142.766113 61.554199 Q 142.309570 61.108398 142.309570 60.018066 L 142.309570 56.752441 L 140.703613 56.752441 L 140.703613 55.984375 L 142.309570 55.984375 L 142.309570 54.276367 Z " fill="rgb(0, 0, 0)" fill-opacity="1.000000" />
<path d="M 153.015625 58.498047 L 153.015625 58.981445 L 148.734863 58.981445 L 148.734863 59.013672 Q 148.691895 60.243652 149.204834 60.780762 Q 149.717773 61.317871 150.652344 61.317871 Q 151.125000 61.317871 151.640625 61.167480 Q 152.156250 61.017090 152.741699 60.710938 L 152.741699 61.693848 Q 152.177734 61.924805 151.654053 62.040283 Q 151.130371 62.155762 150.641602 62.155762 Q 149.239746 62.155762 148.450195 61.315186 Q 147.660645 60.474609 147.660645 58.997559 Q 147.660645 57.558105 148.434082 56.698730 Q 149.207520 55.839355 150.496582 55.839355 Q 151.645996 55.839355 152.309326 56.618164 Q 152.972656 57.396973 153.015625 58.498047 Z M 152.027344 58.208008 Q 151.962891 57.584961 151.573486 57.131104 Q 151.184082 56.677246 150.453613 56.677246 Q 149.739258 56.677246 149.277344 57.149902 Q 148.815430 57.622559 148.772461 58.213379 Z " fill="rgb(0, 0, 0)" fill-opacity="1.000000" />
<path d="M 159.226074 56.193848 L 159.226074 57.160645 Q 158.801758 56.913574 158.372070 56.790039 Q 157.942383 56.666504 157.496582 56.666504 Q 156.825195 56.666504 156.494873 56.884033 Q 156.164551 57.101562 156.164551 57.547363 Q 156.164551 57.950195 156.411621 58.148926 Q 156.658691 58.347656 157.641602 58.535645 L 158.039062 58.610840 Q 158.774902 58.750488 159.153564 59.169434 Q 159.532227 59.588379 159.532227 60.259766 Q 159.532227 61.151367 158.898438 61.653564 Q 158.264648 62.155762 157.136719 62.155762 Q 156.690918 62.155762 156.202148 62.061768 Q 155.713379 61.967773 155.144043 61.779785 L 155.144043 60.759277 Q 155.697266 61.043945 156.202148 61.186279 Q 156.707031 61.328613 157.158203 61.328613 Q 157.813477 61.328613 158.173340 61.062744 Q 158.533203 60.796875 158.533203 60.318848 Q 158.533203 59.631348 157.217285 59.368164 L 157.174316 59.357422 L 156.803711 59.282227 Q 155.949707 59.115723 155.557617 58.720947 Q 155.165527 58.326172 155.165527 57.644043 Q 155.165527 56.779297 155.750977 56.309326 Q 156.336426 55.839355 157.421387 55.839355 Q 157.904785 55.839355 158.350586 55.927979 Q 158.796387 56.016602 159.226074 56.193848 Z " fill="rgb(0, 0, 0)" fill-opacity="1.000000" />
<path d="M 162.869141 53.116211 L 163.728516 53.116211 Q 164.539551 54.383789 164.937012 55.597656 Q 165.334473 56.811523 165.334473 58.009277 Q 165.334473 59.217773 164.937012 60.431641 Q 164.539551 61.645508 163.728516 62.913086 L 162.869141 62.913086 Q 163.583496 61.666992 163.935303 60.447754 Q 164.287109 59.228516 164.287109 58.009277 Q 164.287109 56.784668 163.935303 55.565430 Q 163.583496 54.346191 162.869141 53.116211 Z " fill="rgb(0, 0, 0)" fill-opacity="1.000000" />
<path d="M 184.878906 65.319336 L 184.878906 51.300781 L 185.738281 51.300781 L 185.738281 65.319336 Z " fill="rgb(0, 0, 0)" fill-opacity="1.000000" />
<path d="M 249.592285 53.116211 Q 248.877930 54.340820 248.526123 55.557373 Q 248.174316 56.773926 248.174316 58.009277 Q 248.174316 59.239258 248.526123 60.458496 Q 248.877930 61.677734 249.592285 62.913086 L 248.732910 62.913086 Q 247.921875 61.634766 247.524414 60.423584 Q 247.126953 59.212402 247.126953 58.009277 Q 247.126953 56.811523 247.524414 55.597656 Q 247.921875 54.383789 248.732910 53.116211 Z " fill="rgb(0, 0, 0)" fill-opacity="1.000000" />
<path d="M 255.308594 58.191895 Q 254.583496 58.191895 254.188721 58.597412 Q 253.793945 59.002930 253.793945 59.744141 Q 253.793945 60.485352 254.194092 60.896240 Q 254.594238 61.307129 255.308594 61.307129 Q 256.039062 61.307129 256.433838 60.901611 Q 256.828613 60.496094 256.828613 59.744141 Q 256.828613 59.008301 256.428467 58.600098 Q 256.028320 58.191895 255.308594 58.191895 Z M 254.363281 57.740723 Q 253.670410 57.563477 253.281006 57.080078 Q 252.891602 56.596680 252.891602 55.914551 Q 252.891602 54.958496 253.541504 54.397217 Q 254.191406 53.835938 255.308594 53.835938 Q 256.431152 53.835938 257.081055 54.397217 Q 257.730957 54.958496 257.730957 55.914551 Q 257.730957 56.596680 257.341553 57.080078 Q 256.952148 57.563477 256.259277 57.740723 Q 257.064941 57.917969 257.491943 58.455078 Q 257.918945 58.992188 257.918945 59.846191 Q 257.918945 60.931152 257.226074 61.543457 Q 256.533203 62.155762 255.308594 62.155762 Q 254.083984 62.155762 253.393799 61.546143 Q 252.703613 60.936523 252.703613 59.856934 Q 252.703613 58.997559 253.130615 58.457764 Q 253.557617 57.917969 254.363281 57.740723 Z M 253.971191 56.016602 Q 253.971191 56.661133 254.314941 56.999512 Q 254.658691 57.337891 255.308594 57.337891 Q 255.963867 57.337891 256.307617 56.999512 Q 256.651367 56.661133 256.651367 56.016602 Q 256.651367 55.361328 256.310303 55.017578 Q 255.969238 54.673828 255.308594 54.673828 Q 254.658691 54.673828 254.314941 55.020264 Q 253.971191 55.366699 253.971191 56.016602 Z " fill="rgb(0, 0, 0)" fill-opacity="1.000000" />
<path d="M 270.930664 58.997559 Q 270.930664 57.848145 270.565430 57.262695 Q 270.200195 56.677246 269.485840 56.677246 Q 268.766113 56.677246 268.395508 57.265381 Q 268.024902 57.853516 268.024902 58.997559 Q 268.024902 60.136230 268.395508 60.727051 Q 268.766113 61.317871 269.485840 61.317871 Q 270.200195 61.317871 270.565430 60.732422 Q 270.930664 60.146973 270.930664 58.997559 Z M 268.024902 56.752441 Q 268.261230 56.312012 268.677490 56.075684 Q 269.093750 55.839355 269.641602 55.839355 Q 270.726562 55.839355 271.349609 56.674561 Q 271.972656 57.509766 271.972656 58.976074 Q 271.972656 60.463867 271.346924 61.309814 Q 270.721191 62.155762 269.630859 62.155762 Q 269.093750 62.155762 268.682861 61.922119 Q 268.271973 61.688477 268.024902 61.242676 L 268.024902 62.000000 L 267.036621 62.000000 L 267.036621 53.642578 L 268.024902 53.642578 Z " fill="rgb(0, 0, 0)" fill-opacity="1.000000" />
<path d="M 277.608398 60.066406 Q 277.361328 60.694824 276.979980 61.720703 Q 276.448242 63.138672 276.265625 63.450195 Q 276.018555 63.869141 275.647949 64.078613 Q 275.277344 64.288086 274.783203 64.288086 L 273.988281 64.288086 L 273.988281 63.460938 L 274.573730 63.460938 Q 275.008789 63.460938 275.255859 63.208496 Q 275.502930 62.956055 275.884277 61.903320 L 273.558594 55.984375 L 274.605957 55.984375 L 276.389160 60.689453 L 278.145508 55.984375 L 279.192871 55.984375 Z " fill="rgb(0, 0, 0)" fill-opacity="1.000000" />
<path d="M 283.297852 54.276367 L 283.297852 55.984375 L 285.542969 55.984375 L 285.542969 56.752441 L 283.297852 56.752441 L 283.297852 60.018066 Q 283.297852 60.684082 283.550293 60.947266 Q 283.802734 61.210449 284.431152 61.210449 L 285.542969 61.210449 L 285.542969 62.000000 L 284.334473 62.000000 Q 283.222656 62.000000 282.766113 61.554199 Q 282.309570 61.108398 282.309570 60.018066 L 282.309570 56.752441 L 280.703613 56.752441 L 280.703613 55.984375 L 282.309570 55.984375 L 282.309570 54.276367 Z " fill="rgb(0, 0, 0)" fill-opacity="1.000000" />
<path d="M 293.015625 58.498047 L 293.015625 58.981445 L 288.734863 58.981445 L 288.734863 59.013672 Q 288.691895 60.243652 289.204834 60.780762 Q 289.717773 61.317871 290.652344 61.317871 Q 291.125000 61.317871 291.640625 61.167480 Q 292.156250 61.017090 292.741699 60.710938 L 292.741699 61.693848 Q 292.177734 61.924805 291.654053 62.040283 Q 291.130371 62.155762 290.641602 62.155762 Q 289.239746 62.155762 288.450195 61.315186 Q 287.660645 60.474609 287.660645 58.997559 Q 287.660645 57.558105 288.434082 56.698730 Q 289.207520 55.839355 290.496582 55.839355 Q 291.645996 55.839355 292.309326 56.618164 Q 292.972656 57.396973 293.015625 58.498047 Z M 292.027344 58.208008 Q 291.962891 57.584961 291.573486 57.131104 Q 291.184082 56.677246 290.453613 56.677246 Q 289.739258 56.677246 289.277344 57.149902 Q 288.815430 57.622559 288.772461 58.213379 Z " fill="rgb(0, 0, 0)" fill-opacity="1.000000" />
<path d="M 299.226074 56.193848 L 299.226074 57.160645 Q 298.801758 56.913574 298.372070 56.790039 Q 297.942383 56.666504 297.496582 56.666504 Q 296.825195 56.666504 296.494873 56.884033 Q 296.164551 57.101562 296.164551 57.547363 Q 296.164551 57.950195 296.411621 58.148926 Q 296.658691 58.347656 297.641602 58.535645 L 298.039062 58.610840 Q 298.774902 58.750488 299.153564 59.169434 Q 299.532227 59.588379 299.532227 60.259766 Q 299.532227 61.151367 298.898438 61.653564 Q 298.264648 62.155762 297.136719 62.155762 Q 296.690918 62.155762 296.202148 62.061768 Q 295.713379 61.967773 295.144043 61.779785 L 295.144043 60.759277 Q 295.697266 61.043945 296.202148 61.186279 Q 296.707031 61.328613 297.158203 61.328613 Q 297.813477 61.328613 298.173340 61.062744 Q 298.533203 60.796875 298.533203 60.318848 Q 298.533203 59.631348 297.217285 59.368164 L 297.174316 59.357422 L 296.803711 59.282227 Q 295.949707 59.115723 295.557617 58.720947 Q 295.165527 58.326172 295.165527 57.644043 Q 295.165527 56.779297 295.750977 56.309326 Q 296.336426 55.839355 297.421387 55.839355 Q 297.904785 55.839355 298.350586 55.927979 Q 298.796387 56.016602 299.226074 56.193848 Z " fill="rgb(0, 0, 0)" fill-opacity="1.000000" />
<path d="M 302.869141 53.116211 L 303.728516 53.116211 Q 304.539551 54.383789 304.937012 55.597656 Q 305.334473 56.811523 305.334473 58.009277 Q 305.334473 59.217773 304.937012 60.431641 Q 304.539551 61.645508 303.728516 62.913086 L 302.869141 62.913086 Q 303.583496 61.666992 303.935303 60.447754 Q 304.287109 59.228516 304.287109 58.009277 Q 304.287109 56.784668 303.935303 55.565430 Q 303.583496 54.346191 302.869141 53.116211 Z " fill="rgb(0, 0, 0)" fill-opacity="1.000000" />
<path d="M 366.878906 65.319336 L 366.878906 51.300781 L 367.738281 51.300781 L 367.738281 65.319336 Z " fill="rgb(0, 0, 0)" fill-opacity="1.000000" />
<path d="M 382.592285 53.116211 Q 381.877930 54.340820 381.526123 55.557373 Q 381.174316 56.773926 381.174316 58.009277 Q 381.174316 59.239258 381.526123 60.458496 Q 381.877930 61.677734 382.592285 62.913086 L 381.732910 62.913086 Q 380.921875 61.634766 380.524414 60.423584 Q 380.126953 59.212402 380.126953 58.009277 Q 380.126953 56.811523 380.524414 55.597656 Q 380.921875 54.383789 381.732910 53.116211 Z " fill="rgb(0, 0, 0)" fill-opacity="1.000000" />
<path d="M 388.947754 54.969238 L 386.417969 59.207031 L 388.947754 59.207031 Z M 388.770508 53.980957 L 390.027344 53.980957 L 390.027344 59.207031 L 391.096191 59.207031 L 391.096191 60.087891 L 390.027344 60.087891 L 390.027344 62.000000 L 388.947754 62.000000 L 388.947754 60.087891 L 385.547852 60.087891 L 385.547852 59.062012 Z " fill="rgb(0, 0, 0)" fill-opacity="1.000000" />
<path d="M 403.930664 58.997559 Q 403.930664 57.848145 403.565430 57.262695 Q 403.200195 56.677246 402.485840 56.677246 Q 401.766113 56.677246 401.395508 57.265381 Q 401.024902 57.853516 401.024902 58.997559 Q 401.024902 60.136230 401.395508 60.727051 Q 401.766113 61.317871 402.485840 61.317871 Q 403.200195 61.317871 403.565430 60.732422 Q 403.930664 60.146973 403.930664 58.997559 Z M 401.024902 56.752441 Q 401.261230 56.312012 401.677490 56.075684 Q 402.093750 55.839355 402.641602 55.839355 Q 403.726562 55.839355 404.349609 56.674561 Q 404.972656 57.509766 404.972656 58.976074 Q 404.972656 60.463867 404.346924 61.309814 Q 403.721191 62.155762 402.630859 62.155762 Q 402.093750 62.155762 401.682861 61.922119 Q 401.271973 61.688477 401.024902 61.242676 L 401.024902 62.000000 L 400.036621 62.000000 L 400.036621 53.642578 L 401.024902 53.642578 Z " fill="rgb(0, 0, 0)" fill-opacity="1.000000" />
<path d="M 410.608398 60.066406 Q 410.361328 60.694824 409.979980 61.720703 Q 409.448242 63.138672 409.265625 63.450195 Q 409.018555 63.869141 408.647949 64.078613 Q 408.277344 64.288086 407.783203 64.288086 L 406.988281 64.288086 L 406.988281 63.460938 L 407.573730 63.460938 Q 408.008789 63.460938 408.255859 63.208496 Q 408.502930 62.956055 408.884277 61.903320 L 406.558594 55.984375 L 407.605957 55.984375 L 409.389160 60.689453 L 411.145508 55.984375 L 412.192871 55.984375 Z " fill="rgb(0, 0, 0)" fill-opacity="1.000000" />
<path d="M 416.297852 54.276367 L 416.297852 55.984375 L 418.542969 55.984375 L 418.542969 56.752441 L 416.297852 56.752441 L 416.297852 60.018066 Q 416.297852 60.684082 416.550293 60.947266 Q 416.802734 61.210449 417.431152 61.210449 L 418.542969 61.210449 L 418.542969 62.000000 L 417.334473 62.000000 Q 416.222656 62.000000 415.766113 61.554199 Q 415.309570 61.108398 415.309570 60.018066 L 415.309570 56.752441 L 413.703613 56.752441 L 413.703613 55.984375 L 415.309570 55.984375 L 415.309570 54.276367 Z " fill="rgb(0, 0, 0)" fill-opacity="1.000000" />
<path d="M 426.015625 58.498047 L 426.015625 58.981445 L 421.734863 58.981445 L 421.734863 59.013672 Q 421.691895 60.243652 422.204834 60.780762 Q 422.717773 61.317871 423.652344 61.317871 Q 424.125000 61.317871 424.640625 61.167480 Q 425.156250 61.017090 425.741699 60.710938 L 425.741699 61.693848 Q 425.177734 61.924805 424.654053 62.040283 Q 424.130371 62.155762 423.641602 62.155762 Q 422.239746 62.155762 421.450195 61.315186 Q 420.660645 60.474609 420.660645 58.997559 Q 420.660645 57.558105 421.434082 56.698730 Q 422.207520 55.839355 423.496582 55.839355 Q 424.645996 55.839355 425.309326 56.618164 Q 425.972656 57.396973 426.015625 58.498047 Z M 425.027344 58.208008 Q 424.962891 57.584961 424.573486 57.131104 Q 424.184082 56.677246 423.453613 56.677246 Q 422.739258 56.677246 422.277344 57.149902 Q 421.815430 57.622559 421.772461 58.213379 Z " fill="rgb(0, 0, 0)" fill-opacity="1.000000" />
<path d="M 432.226074 56.193848 L 432.226074 57.160645 Q 431.801758 56.913574 431.372070 56.790039 Q 430.942383 56.666504 430.496582 56.666504 Q 429.825195 56.666504 429.494873 56.884033 Q 429.164551 57.101562 429.164551 57.547363 Q 429.164551 57.950195 429.411621 58.148926 Q 429.658691 58.347656 430.641602 58.535645 L 431.039062 58.610840 Q 431.774902 58.750488 432.153564 59.169434 Q 432.532227 59.588379 432.532227 60.259766 Q 432.532227 61.151367 431.898438 61.653564 Q 431.264648 62.155762 430.136719 62.155762 Q 429.690918 62.155762 429.202148 62.061768 Q 428.713379 61.967773 428.144043 61.779785 L 428.144043 60.759277 Q 428.697266 61.043945 429.202148 61.186279 Q 429.707031 61.328613 430.158203 61.328613 Q 430.813477 61.328613 431.173340 61.062744 Q 431.533203 60.796875 431.533203 60.318848 Q 431.533203 59.631348 430.217285 59.368164 L 430.174316 59.357422 L 429.803711 59.282227 Q 428.949707 59.115723 428.557617 58.720947 Q 428.165527 58.326172 428.165527 57.644043 Q 428.165527 56.779297 428.750977 56.309326 Q 429.336426 55.839355 430.421387 55.839355 Q 430.904785 55.839355 431.350586 55.927979 Q 431.796387 56.016602 432.226074 56.193848 Z " fill="rgb(0, 0, 0)" fill-opacity="1.000000" />
<path d="M 435.869141 53.116211 L 436.728516 53.116211 Q 437.539551 54.383789 437.937012 55.597656 Q 438.334473 56.811523 438.334473 58.009277 Q 438.334473 59.217773 437.937012 60.431641 Q 437.539551 61.645508 436.728516 62.913086 L 435.869141 62.913086 Q 436.583496 61.666992 436.935303 60.447754 Q 437.287109 59.228516 437.287109 58.009277 Q 437.287109 56.784668 436.935303 55.565430 Q 436.583496 54.346191 435.869141 53.116211 Z " fill="rgb(0, 0, 0)" fill-opacity="1.000000" />
<path d="M 457.878906 65.319336 L 457.878906 51.300781 L 458.738281 51.300781 L 458.738281 65.319336 Z " fill="rgb(0, 0, 0)" fill-opacity="1.000000" />
<path d="M 473.592285 53.116211 Q 472.877930 54.340820 472.526123 55.557373 Q 472.174316 56.773926 472.174316 58.009277 Q 472.174316 59.239258 472.526123 60.458496 Q 472.877930 61.677734 473.592285 62.913086 L 472.732910 62.913086 Q 471.921875 61.634766 471.524414 60.423584 Q 471.126953 59.212402 471.126953 58.009277 Q 471.126953 56.811523 471.524414 55.597656 Q 471.921875 54.383789 472.732910 53.116211 Z " fill="rgb(0, 0, 0)" fill-opacity="1.000000" />
<path d="M 479.947754 54.969238 L 477.417969 59.207031 L 479.947754 59.207031 Z M 479.770508 53.980957 L 481.027344 53.980957 L 481.027344 59.207031 L 482.096191 59.207031 L 482.096191 60.087891 L 481.027344 60.087891 L 481.027344 62.000000 L 479.947754 62.000000 L 479.947754 60.087891 L 476.547852 60.087891 L 476.547852 59.062012 Z " fill="rgb(0, 0, 0)" fill-opacity="1.000000" />
<path d="M 494.930664 58.997559 Q 494.930664 57.848145 494.565430 57.262695 Q 494.200195 56.677246 493.485840 56.677246 Q 492.766113 56.677246 492.395508 57.265381 Q 492.024902 57.853516 492.024902 58.997559 Q 492.024902 60.136230 492.395508 60.727051 Q 492.766113 61.317871 493.485840 61.317871 Q 494.200195 61.317871 494.565430 60.732422 Q 494.930664 60.146973 494.930664 58.997559 Z M 492.024902 56.752441 Q 492.261230 56.312012 492.677490 56.075684 Q 493.093750 55.839355 493.641602 55.839355 Q 494.726562 55.839355 495.349609 56.674561 Q 495.972656 57.509766 495.972656 58.976074 Q 495.972656 60.463867 495.346924 61.309814 Q 494.721191 62.155762 493.630859 62.155762 Q 493.093750 62.155762 492.682861 61.922119 Q 492.271973 61.688477 492.024902 61.242676 L 492.024902 62.000000 L 491.036621 62.000000 L 491.036621 53.642578 L 492.024902 53.642578 Z " fill="rgb(0, 0, 0)" fill-opacity="1.000000" />
<path d="M 501.608398 60.066406 Q 501.361328 60.694824 500.979980 61.720703 Q 500.448242 63.138672 500.265625 63.450195 Q 500.018555 63.869141 499.647949 64.078613 Q 499.277344 64.288086 498.783203 64.288086 L 497.988281 64.288086 L 497.988281 63.460938 L 498.573730 63.460938 Q 499.008789 63.460938 499.255859 63.208496 Q 499.502930 62.956055 499.884277 61.903320 L 497.558594 55.984375 L 498.605957 55.984375 L 500.389160 60.689453 L 502.145508 55.984375 L 503.192871 55.984375 Z " fill="rgb(0, 0, 0)" fill-opacity="1.000000" />
<path d="M 507.297852 54.276367 L 507.297852 55.984375 L 509.542969 55.984375 L 509.542969 56.752441 L 507.297852 56.752441 L 507.297852 60.018066 Q 507.297852 60.684082 507.550293 60.947266 Q 507.802734 61.210449 508.431152 61.210449 L 509.542969 61.210449 L 509.542969 62.000000 L 508.334473 62.000000 Q 507.222656 62.000000 506.766113 61.554199 Q 506.309570 61.108398 506.309570 60.018066 L 506.309570 56.752441 L 504.703613 56.752441 L 504.703613 55.984375 L 506.309570 55.984375 L 506.309570 54.276367 Z " fill="rgb(0, 0, 0)" fill-opacity="1.000000" />
<path d="M 517.015625 58.498047 L 517.015625 58.981445 L 512.734863 58.981445 L 512.734863 59.013672 Q 512.691895 60.243652 513.204834 60.780762 Q 513.717773 61.317871 514.652344 61.317871 Q 515.125000 61.317871 515.640625 61.167480 Q 516.156250 61.017090 516.741699 60.710938 L 516.741699 61.693848 Q 516.177734 61.924805 515.654053 62.040283 Q 515.130371 62.155762 514.641602 62.155762 Q 513.239746 62.155762 512.450195 61.315186 Q 511.660645 60.474609 511.660645 58.997559 Q 511.660645 57.558105 512.434082 56.698730 Q 513.207520 55.839355 514.496582 55.839355 Q 515.645996 55.839355 516.309326 56.618164 Q 516.972656 57.396973 517.015625 58.498047 Z M 516.027344 58.208008 Q 515.962891 57.584961 515.573486 57.131104 Q 515.184082 56.677246 514.453613 56.677246 Q 513.739258 56.677246 513.277344 57.149902 Q 512.815430 57.622559 512.772461 58.213379 Z " fill="rgb(0, 0, 0)" fill-opacity="1.000000" />
<path d="M 523.226074 56.193848 L 523.226074 57.160645 Q 522.801758 56.913574 522.372070 56.790039 Q 521.942383 56.666504 521.496582 56.666504 Q 520.825195 56.666504 520.494873 56.884033 Q 520.164551 57.101562 520.164551 57.547363 Q 520.164551 57.950195 520.411621 58.148926 Q 520.658691 58.347656 521.641602 58.535645 L 522.039062 58.610840 Q 522.774902 58.750488 523.153564 59.169434 Q 523.532227 59.588379 523.532227 60.259766 Q 523.532227 61.151367 522.898438 61.653564 Q 522.264648 62.155762 521.136719 62.155762 Q 520.690918 62.155762 520.202148 62.061768 Q 519.713379 61.967773 519.144043 61.779785 L 519.144043 60.759277 Q 519.697266 61.043945 520.202148 61.186279 Q 520.707031 61.328613 521.158203 61.328613 Q 521.813477 61.328613 522.173340 61.062744 Q 522.533203 60.796875 522.533203 60.318848 Q 522.533203 59.631348 521.217285 59.368164 L 521.174316 59.357422 L 520.803711 59.282227 Q 519.949707 59.115723 519.557617 58.720947 Q 519.165527 58.326172 519.165527 57.644043 Q 519.165527 56.779297 519.750977 56.309326 Q 520.336426 55.839355 521.421387 55.839355 Q 521.904785 55.839355 522.350586 55.927979 Q 522.796387 56.016602 523.226074 56.193848 Z " fill="rgb(0, 0, 0)" fill-opacity="1.000000" />
<path d="M 526.869141 53.116211 L 527.728516 53.116211 Q 528.539551 54.383789 528.937012 55.597656 Q 529.334473 56.811523 529.334473 58.009277 Q 529.334473 59.217773 528.937012 60.431641 Q 528.539551 61.645508 527.728516 62.913086 L 526.869141 62.913086 Q 527.583496 61.666992 527.935303 60.447754 Q 528.287109 59.228516 528.287109 58.009277 Q 528.287109 56.784668 527.935303 55.565430 Q 527.583496 54.346191 526.869141 53.116211 Z " fill="rgb(0, 0, 0)" fill-opacity="1.000000" />
<path d="M 548.878906 65.319336 L 548.878906 51.300781 L 549.738281 51.300781 L 549.738281 65.319336 Z " fill="rgb(0, 0, 0)" fill-opacity="1.000000" />
<path d="M 36.697266 43.005859 L 39.227051 43.005859 L 39.227051 48.231934 L 41.187500 48.231934 L 41.187500 49.000000 L 36.278320 49.000000 L 36.278320 48.231934 L 38.238770 48.231934 L 38.238770 43.773926 L 36.697266 43.773926 Z M 38.238770 40.669434 L 39.227051 40.669434 L 39.227051 41.915527 L 38.238770 41.915527 Z " fill="rgb(0, 0, 0)" fill-opacity="1.000000" />
<path d="M 47.645020 45.272461 L 47.645020 49.000000 L 46.651367 49.000000 L 46.651367 45.272461 Q 46.651367 44.461426 46.366699 44.080078 Q 46.082031 43.698730 45.475098 43.698730 Q 44.782227 43.698730 44.408936 44.190186 Q 44.035645 44.681641 44.035645 45.600098 L 44.035645 49.000000 L 43.047363 49.000000 L 43.047363 42.984375 L 44.035645 42.984375 L 44.035645 43.886719 Q 44.298828 43.371094 44.750000 43.105225 Q 45.201172 42.839355 45.818848 42.839355 Q 46.737305 42.839355 47.191162 43.443604 Q 47.645020 44.047852 47.645020 45.272461 Z " fill="rgb(0, 0, 0)" fill-opacity="1.000000" />
<path d="M 52.297852 41.276367 L 52.297852 42.984375 L 54.542969 42.984375 L 54.542969 43.752441 L 52.297852 43.752441 L 52.297852 47.018066 Q 52.297852 47.684082 52.550293 47.947266 Q 52.802734 48.210449 53.431152 48.210449 L 54.542969 48.210449 L 54.542969 49.000000 L 53.334473 49.000000 Q 52.222656 49.000000 51.766113 48.554199 Q 51.309570 48.108398 51.309570 47.018066 L 51.309570 43.752441 L 49.703613 43.752441 L 49.703613 42.984375 L 51.309570 42.984375 L 51.309570 41.276367 Z " fill="rgb(0, 0, 0)" fill-opacity="1.000000" />
<path d="M 59.947754 41.969238 L 57.417969 46.207031 L 59.947754 46.207031 Z M 59.770508 40.980957 L 61.027344 40.980957 L 61.027344 46.207031 L 62.096191 46.207031 L 62.096191 47.087891 L 61.027344 47.087891 L 61.027344 49.000000 L 59.947754 49.000000 L 59.947754 47.087891 L 56.547852 47.087891 L 56.547852 46.062012 Z " fill="rgb(0, 0, 0)" fill-opacity="1.000000" />
<path d="M 93.878906 52.319336 L 93.878906 38.300781 L 94.738281 38.300781 L 94.738281 52.319336 Z " fill="rgb(0, 0, 0)" fill-opacity="1.000000" />
<path d="M 114.014160 48.242676 L 114.014160 51.288086 L 113.020508 51.288086 L 113.020508 42.984375 L 114.014160 42.984375 L 114.014160 43.752441 Q 114.261230 43.306641 114.672119 43.072998 Q 115.083008 42.839355 115.620117 42.839355 Q 116.710449 42.839355 117.330811 43.682617 Q 117.951172 44.525879 117.951172 46.019043 Q 117.951172 47.485352 117.328125 48.320557 Q 116.705078 49.155762 115.620117 49.155762 Q 115.072266 49.155762 114.661377 48.922119 Q 114.250488 48.688477 114.014160 48.242676 Z M 116.914551 45.997559 Q 116.914551 44.848145 116.552002 44.262695 Q 116.189453 43.677246 115.475098 43.677246 Q 114.755371 43.677246 114.384766 44.265381 Q 114.014160 44.853516 114.014160 45.997559 Q 114.014160 47.136230 114.384766 47.727051 Q 114.755371 48.317871 115.475098 48.317871 Q 116.189453 48.317871 116.552002 47.732422 Q 116.914551 47.146973 116.914551 45.997559 Z " fill="rgb(0, 0, 0)" fill-opacity="1.000000" />
<path d="M 122.770508 45.976074 L 122.442871 45.976074 Q 121.578125 45.976074 121.140381 46.279541 Q 120.702637 46.583008 120.702637 47.184570 Q 120.702637 47.727051 121.030273 48.027832 Q 121.357910 48.328613 121.937988 48.328613 Q 122.754395 48.328613 123.221680 47.761963 Q 123.688965 47.195312 123.694336 46.196289 L 123.694336 45.976074 Z M 124.687988 45.567871 L 124.687988 49.000000 L 123.694336 49.000000 L 123.694336 48.108398 Q 123.377441 48.645508 122.896729 48.900635 Q 122.416016 49.155762 121.728516 49.155762 Q 120.810059 49.155762 120.262207 48.637451 Q 119.714355 48.119141 119.714355 47.249023 Q 119.714355 46.244629 120.388428 45.723633 Q 121.062500 45.202637 122.367676 45.202637 L 123.694336 45.202637 L 123.694336 45.046875 Q 123.688965 44.327148 123.329102 44.002197 Q 122.969238 43.677246 122.179688 43.677246 Q 121.674805 43.677246 121.159180 43.822266 Q 120.643555 43.967285 120.154785 44.246582 L 120.154785 43.258301 Q 120.702637 43.048828 121.204834 42.944092 Q 121.707031 42.839355 122.179688 42.839355 Q 122.926270 42.839355 123.455322 43.059570 Q 123.984375 43.279785 124.312012 43.720215 Q 124.516113 43.988770 124.602051 44.383545 Q 124.687988 44.778320 124.687988 45.567871 Z " fill="rgb(0, 0, 0)" fill-opacity="1.000000" />
<path d="M 130.608398 43.752441 L 130.608398 40.642578 L 131.596680 40.642578 L 131.596680 49.000000 L 130.608398 49.000000 L 130.608398 48.242676 Q 130.361328 48.688477 129.950439 48.922119 Q 129.539551 49.155762 129.002441 49.155762 Q 127.912109 49.155762 127.286377 48.309814 Q 126.660645 47.463867 126.660645 45.976074 Q 126.660645 44.509766 127.289062 43.674561 Q 127.917480 42.839355 129.002441 42.839355 Q 129.544922 42.839355 129.958496 43.072998 Q 130.372070 43.306641 130.608398 43.752441 Z M 127.702637 45.997559 Q 127.702637 47.146973 128.067871 47.732422 Q 128.433105 48.317871 129.147461 48.317871 Q 129.861816 48.317871 130.235107 47.727051 Q 130.608398 47.136230 130.608398 45.997559 Q 130.608398 44.853516 130.235107 44.265381 Q 129.861816 43.677246 129.147461 43.677246 Q 128.433105 43.677246 128.067871 44.262695 Q 127.702637 44.848145 127.702637 45.997559 Z " fill="rgb(0, 0, 0)" fill-opacity="1.000000" />
<path d="M 137.608398 43.752441 L 137.608398 40.642578 L 138.596680 40.642578 L 138.596680 49.000000 L 137.608398 49.000000 L 137.608398 48.242676 Q 137.361328 48.688477 136.950439 48.922119 Q 136.539551 49.155762 136.002441 49.155762 Q 134.912109 49.155762 134.286377 48.309814 Q 133.660645 47.463867 133.660645 45.976074 Q 133.660645 44.509766 134.289062 43.674561 Q 134.917480 42.839355 136.002441 42.839355 Q 136.544922 42.839355 136.958496 43.072998 Q 137.372070 43.306641 137.608398 43.752441 Z M 134.702637 45.997559 Q 134.702637 47.146973 135.067871 47.732422 Q 135.433105 48.317871 136.147461 48.317871 Q 136.861816 48.317871 137.235107 47.727051 Q 137.608398 47.136230 137.608398 45.997559 Q 137.608398 44.853516 137.235107 44.265381 Q 136.861816 43.677246 136.147461 43.677246 Q 135.433105 43.677246 135.067871 44.262695 Q 134.702637 44.848145 134.702637 45.997559 Z " fill="rgb(0, 0, 0)" fill-opacity="1.000000" />
<path d="M 141.697266 43.005859 L 144.227051 43.005859 L 144.227051 48.231934 L 146.187500 48.231934 L 146.187500 49.000000 L 141.278320 49.000000 L 141.278320 48.231934 L 143.238770 48.231934 L 143.238770 43.773926 L 141.697266 43.773926 Z M 143.238770 40.669434 L 144.227051 40.669434 L 144.227051 41.915527 L 143.238770 41.915527 Z " fill="rgb(0, 0, 0)" fill-opacity="1.000000" />
<path d="M 152.645020 45.272461 L 152.645020 49.000000 L 151.651367 49.000000 L 151.651367 45.272461 Q 151.651367 44.461426 151.366699 44.080078 Q 151.082031 43.698730 150.475098 43.698730 Q 149.782227 43.698730 149.408936 44.190186 Q 149.035645 44.681641 149.035645 45.600098 L 149.035645 49.000000 L 148.047363 49.000000 L 148.047363 42.984375 L 149.035645 42.984375 L 149.035645 43.886719 Q 149.298828 43.371094 149.750000 43.105225 Q 150.201172 42.839355 150.818848 42.839355 Q 151.737305 42.839355 152.191162 43.443604 Q 152.645020 44.047852 152.645020 45.272461 Z " fill="rgb(0, 0, 0)" fill-opacity="1.000000" />
<path d="M 158.608398 45.943848 Q 158.608398 44.832031 158.245850 44.254639 Q 157.883301 43.677246 157.190430 43.677246 Q 156.465332 43.677246 156.083984 44.254639 Q 155.702637 44.832031 155.702637 45.943848 Q 155.702637 47.055664 156.086670 47.638428 Q 156.470703 48.221191 157.201172 48.221191 Q 157.883301 48.221191 158.245850 47.635742 Q 158.608398 47.050293 158.608398 45.943848 Z M 159.596680 48.613281 Q 159.596680 49.966797 158.957520 50.665039 Q 158.318359 51.363281 157.077637 51.363281 Q 156.669434 51.363281 156.223633 51.288086 Q 155.777832 51.212891 155.332031 51.067871 L 155.332031 50.090332 Q 155.858398 50.337402 156.288086 50.455566 Q 156.717773 50.573730 157.077637 50.573730 Q 157.877930 50.573730 158.243164 50.138672 Q 158.608398 49.703613 158.608398 48.758301 L 158.608398 48.715332 L 158.608398 48.043945 Q 158.372070 48.548828 157.963867 48.795898 Q 157.555664 49.042969 156.970215 49.042969 Q 155.917480 49.042969 155.289062 48.199707 Q 154.660645 47.356445 154.660645 45.943848 Q 154.660645 44.525879 155.289062 43.682617 Q 155.917480 42.839355 156.970215 42.839355 Q 157.550293 42.839355 157.953125 43.070312 Q 158.355957 43.301270 158.608398 43.784668 L 158.608398 43.005859 L 159.596680 43.005859 Z " fill="rgb(0, 0, 0)" fill-opacity="1.000000" />
<path d="M 184.878906 52.319336 L 184.878906 38.300781 L 185.738281 38.300781 L 185.738281 52.319336 Z " fill="rgb(0, 0, 0)" fill-opacity="1.000000" />
<path d="M 260.697266 43.005859 L 263.227051 43.005859 L 263.227051 48.231934 L 265.187500 48.231934 L 265.187500 49.000000 L 260.278320 49.000000 L 260.278320 48.231934 L 262.238770 48.231934 L 262.238770 43.773926 L 260.697266 43.773926 Z M 262.238770 40.669434 L 263.227051 40.669434 L 263.227051 41.915527 L 262.238770 41.915527 Z " fill="rgb(0, 0, 0)" fill-opacity="1.000000" />
<path d="M 271.645020 45.272461 L 271.645020 49.000000 L 270.651367 49.000000 L 270.651367 45.272461 Q 270.651367 44.461426 270.366699 44.080078 Q 270.082031 43.698730 269.475098 43.698730 Q 268.782227 43.698730 268.408936 44.190186 Q 268.035645 44.681641 268.035645 45.600098 L 268.035645 49.000000 L 267.047363 49.000000 L 267.047363 42.984375 L 268.035645 42.984375 L 268.035645 43.886719 Q 268.298828 43.371094 268.750000 43.105225 Q 269.201172 42.839355 269.818848 42.839355 Q 270.737305 42.839355 271.191162 43.443604 Q 271.645020 44.047852 271.645020 45.272461 Z " fill="rgb(0, 0, 0)" fill-opacity="1.000000" />
<path d="M 276.297852 41.276367 L 276.297852 42.984375 L 278.542969 42.984375 L 278.542969 43.752441 L 276.297852 43.752441 L 276.297852 47.018066 Q 276.297852 47.684082 276.550293 47.947266 Q 276.802734 48.210449 277.431152 48.210449 L 278.542969 48.210449 L 278.542969 49.000000 L 277.334473 49.000000 Q 276.222656 49.000000 275.766113 48.554199 Q 275.309570 48.108398 275.309570 47.018066 L 275.309570 43.752441 L 273.703613 43.752441 L 273.703613 42.984375 L 275.309570 42.984375 L 275.309570 41.276367 Z " fill="rgb(0, 0, 0)" fill-opacity="1.000000" />
<path d="M 283.308594 45.191895 Q 282.583496 45.191895 282.188721 45.597412 Q 281.793945 46.002930 281.793945 46.744141 Q 281.793945 47.485352 282.194092 47.896240 Q 282.594238 48.307129 283.308594 48.307129 Q 284.039062 48.307129 284.433838 47.901611 Q 284.828613 47.496094 284.828613 46.744141 Q 284.828613 46.008301 284.428467 45.600098 Q 284.028320 45.191895 283.308594 45.191895 Z M 282.363281 44.740723 Q 281.670410 44.563477 281.281006 44.080078 Q 280.891602 43.596680 280.891602 42.914551 Q 280.891602 41.958496 281.541504 41.397217 Q 282.191406 40.835938 283.308594 40.835938 Q 284.431152 40.835938 285.081055 41.397217 Q 285.730957 41.958496 285.730957 42.914551 Q 285.730957 43.596680 285.341553 44.080078 Q 284.952148 44.563477 284.259277 44.740723 Q 285.064941 44.917969 285.491943 45.455078 Q 285.918945 45.992188 285.918945 46.846191 Q 285.918945 47.931152 285.226074 48.543457 Q 284.533203 49.155762 283.308594 49.155762 Q 282.083984 49.155762 281.393799 48.546143 Q 280.703613 47.936523 280.703613 46.856934 Q 280.703613 45.997559 281.130615 45.457764 Q 281.557617 44.917969 282.363281 44.740723 Z M 281.971191 43.016602 Q 281.971191 43.661133 282.314941 43.999512 Q 282.658691 44.337891 283.308594 44.337891 Q 283.963867 44.337891 284.307617 43.999512 Q 284.651367 43.661133 284.651367 43.016602 Q 284.651367 42.361328 284.310303 42.017578 Q 283.969238 41.673828 283.308594 41.673828 Q 282.658691 41.673828 282.314941 42.020264 Q 281.971191 42.366699 281.971191 43.016602 Z " fill="rgb(0, 0, 0)" fill-opacity="1.000000" />
<path d="M 366.878906 52.319336 L 366.878906 38.300781 L 367.738281 38.300781 L 367.738281 52.319336 Z " fill="rgb(0, 0, 0)" fill-opacity="1.000000" />
<path d="M 400.697266 43.005859 L 403.227051 43.005859 L 403.227051 48.231934 L 405.187500 48.231934 L 405.187500 49.000000 L 400.278320 49.000000 L 400.278320 48.231934 L 402.238770 48.231934 L 402.238770 43.773926 L 400.697266 43.773926 Z M 402.238770 40.669434 L 403.227051 40.669434 L 403.227051 41.915527 L 402.238770 41.915527 Z " fill="rgb(0, 0, 0)" fill-opacity="1.000000" />
<path d="M 411.645020 45.272461 L 411.645020 49.000000 L 410.651367 49.000000 L 410.651367 45.272461 Q 410.651367 44.461426 410.366699 44.080078 Q 410.082031 43.698730 409.475098 43.698730 Q 408.782227 43.698730 408.408936 44.190186 Q 408.035645 44.681641 408.035645 45.600098 L 408.035645 49.000000 L 407.047363 49.000000 L 407.047363 42.984375 L 408.035645 42.984375 L 408.035645 43.886719 Q 408.298828 43.371094 408.750000 43.105225 Q 409.201172 42.839355 409.818848 42.839355 Q 410.737305 42.839355 411.191162 43.443604 Q 411.645020 44.047852 411.645020 45.272461 Z " fill="rgb(0, 0, 0)" fill-opacity="1.000000" />
<path d="M 416.297852 41.276367 L 416.297852 42.984375 L 418.542969 42.984375 L 418.542969 43.752441 L 416.297852 43.752441 L 416.297852 47.018066 Q 416.297852 47.684082 416.550293 47.947266 Q 416.802734 48.210449 417.431152 48.210449 L 418.542969 48.210449 L 418.542969 49.000000 L 417.334473 49.000000 Q 416.222656 49.000000 415.766113 48.554199 Q 415.309570 48.108398 415.309570 47.018066 L 415.309570 43.752441 L 413.703613 43.752441 L 413.703613 42.984375 L 415.309570 42.984375 L 415.309570 41.276367 Z " fill="rgb(0, 0, 0)" fill-opacity="1.000000" />
<path d="M 423.947754 41.969238 L 421.417969 46.207031 L 423.947754 46.207031 Z M 423.770508 40.980957 L 425.027344 40.980957 L 425.027344 46.207031 L 426.096191 46.207031 L 426.096191 47.087891 L 425.027344 47.087891 L 425.027344 49.000000 L 423.947754 49.000000 L 423.947754 47.087891 L 420.547852 47.087891 L 420.547852 46.062012 Z " fill="rgb(0, 0, 0)" fill-opacity="1.000000" />
<path d="M 457.878906 52.319336 L 457.878906 38.300781 L 458.738281 38.300781 L 458.738281 52.319336 Z " fill="rgb(0, 0, 0)" fill-opacity="1.000000" />
<path d="M 478.014160 48.242676 L 478.014160 51.288086 L 477.020508 51.288086 L 477.020508 42.984375 L 478.014160 42.984375 L 478.014160 43.752441 Q 478.261230 43.306641 478.672119 43.072998 Q 479.083008 42.839355 479.620117 42.839355 Q 480.710449 42.839355 481.330811 43.682617 Q 481.951172 44.525879 481.951172 46.019043 Q 481.951172 47.485352 481.328125 48.320557 Q 480.705078 49.155762 479.620117 49.155762 Q 479.072266 49.155762 478.661377 48.922119 Q 478.250488 48.688477 478.014160 48.242676 Z M 480.914551 45.997559 Q 480.914551 44.848145 480.552002 44.262695 Q 480.189453 43.677246 479.475098 43.677246 Q 478.755371 43.677246 478.384766 44.265381 Q 478.014160 44.853516 478.014160 45.997559 Q 478.014160 47.136230 478.384766 47.727051 Q 478.755371 48.317871 479.475098 48.317871 Q 480.189453 48.317871 480.552002 47.732422 Q 480.914551 47.146973 480.914551 45.997559 Z " fill="rgb(0, 0, 0)" fill-opacity="1.000000" />
<path d="M 486.770508 45.976074 L 486.442871 45.976074 Q 485.578125 45.976074 485.140381 46.279541 Q 484.702637 46.583008 484.702637 47.184570 Q 484.702637 47.727051 485.030273 48.027832 Q 485.357910 48.328613 485.937988 48.328613 Q 486.754395 48.328613 487.221680 47.761963 Q 487.688965 47.195312 487.694336 46.196289 L 487.694336 45.976074 Z M 488.687988 45.567871 L 488.687988 49.000000 L 487.694336 49.000000 L 487.694336 48.108398 Q 487.377441 48.645508 486.896729 48.900635 Q 486.416016 49.155762 485.728516 49.155762 Q 484.810059 49.155762 484.262207 48.637451 Q 483.714355 48.119141 483.714355 47.249023 Q 483.714355 46.244629 484.388428 45.723633 Q 485.062500 45.202637 486.367676 45.202637 L 487.694336 45.202637 L 487.694336 45.046875 Q 487.688965 44.327148 487.329102 44.002197 Q 486.969238 43.677246 486.179688 43.677246 Q 485.674805 43.677246 485.159180 43.822266 Q 484.643555 43.967285 484.154785 44.246582 L 484.154785 43.258301 Q 484.702637 43.048828 485.204834 42.944092 Q 485.707031 42.839355 486.179688 42.839355 Q 486.926270 42.839355 487.455322 43.059570 Q 487.984375 43.279785 488.312012 43.720215 Q 488.516113 43.988770 488.602051 44.383545 Q 488.687988 44.778320 488.687988 45.567871 Z " fill="rgb(0, 0, 0)" fill-opacity="1.000000" />
<path d="M 494.608398 43.752441 L 494.608398 40.642578 L 495.596680 40.642578 L 495.596680 49.000000 L 494.608398 49.000000 L 494.608398 48.242676 Q 494.361328 48.688477 493.950439 48.922119 Q 493.539551 49.155762 493.002441 49.155762 Q 491.912109 49.155762 491.286377 48.309814 Q 490.660645 47.463867 490.660645 45.976074 Q 490.660645 44.509766 491.289062 43.674561 Q 491.917480 42.839355 493.002441 42.839355 Q 493.544922 42.839355 493.958496 43.072998 Q 494.372070 43.306641 494.608398 43.752441 Z M 491.702637 45.997559 Q 491.702637 47.146973 492.067871 47.732422 Q 492.433105 48.317871 493.147461 48.317871 Q 493.861816 48.317871 494.235107 47.727051 Q 494.608398 47.136230 494.608398 45.997559 Q 494.608398 44.853516 494.235107 44.265381 Q 493.861816 43.677246 493.147461 43.677246 Q 492.433105 43.677246 492.067871 44.262695 Q 491.702637 44.848145 491.702637 45.997559 Z " fill="rgb(0, 0, 0)" fill-opacity="1.000000" />
<path d="M 501.608398 43.752441 L 501.608398 40.642578 L 502.596680 40.642578 L 502.596680 49.000000 L 501.608398 49.000000 L 501.608398 48.242676 Q 501.361328 48.688477 500.950439 48.922119 Q 500.539551 49.155762 500.002441 49.155762 Q 498.912109 49.155762 498.286377 48.309814 Q 497.660645 47.463867 497.660645 45.976074 Q 497.660645 44.509766 498.289062 43.674561 Q 498.917480 42.839355 500.002441 42.839355 Q 500.544922 42.839355 500.958496 43.072998 Q 501.372070 43.306641 501.608398 43.752441 Z M 498.702637 45.997559 Q 498.702637 47.146973 499.067871 47.732422 Q 499.433105 48.317871 500.147461 48.317871 Q 500.861816 48.317871 501.235107 47.727051 Q 501.608398 47.136230 501.608398 45.997559 Q 501.608398 44.853516 501.235107 44.265381 Q 500.861816 43.677246 500.147461 43.677246 Q 499.433105 43.677246 499.067871 44.262695 Q 498.702637 44.848145 498.702637 45.997559 Z " fill="rgb(0, 0, 0)" fill-opacity="1.000000" />
<path d="M 505.697266 43.005859 L 508.227051 43.005859 L 508.227051 48.231934 L 510.187500 48.231934 L 510.187500 49.000000 L 505.278320 49.000000 L 505.278320 48.231934 L 507.238770 48.231934 L 507.238770 43.773926 L 505.697266 43.773926 Z M 507.238770 40.669434 L 508.227051 40.669434 L 508.227051 41.915527 L 507.238770 41.915527 Z " fill="rgb(0, 0, 0)" fill-opacity="1.000000" />
<path d="M 516.645020 45.272461 L 516.645020 49.000000 L 515.651367 49.000000 L 515.651367 45.272461 Q 515.651367 44.461426 515.366699 44.080078 Q 515.082031 43.698730 514.475098 43.698730 Q 513.782227 43.698730 513.408936 44.190186 Q 513.035645 44.681641 513.035645 45.600098 L 513.035645 49.000000 L 512.047363 49.000000 L 512.047363 42.984375 L 513.035645 42.984375 L 513.035645 43.886719 Q 513.298828 43.371094 513.750000 43.105225 Q 514.201172 42.839355 514.818848 42.839355 Q 515.737305 42.839355 516.191162 43.443604 Q 516.645020 44.047852 516.645020 45.272461 Z " fill="rgb(0, 0, 0)" fill-opacity="1.000000" />
<path d="M 522.608398 45.943848 Q 522.608398 44.832031 522.245850 44.254639 Q 521.883301 43.677246 521.190430 43.677246 Q 520.465332 43.677246 520.083984 44.254639 Q 519.702637 44.832031 519.702637 45.943848 Q 519.702637 47.055664 520.086670 47.638428 Q 520.470703 48.221191 521.201172 48.221191 Q 521.883301 48.221191 522.245850 47.635742 Q 522.608398 47.050293 522.608398 45.943848 Z M 523.596680 48.613281 Q 523.596680 49.966797 522.957520 50.665039 Q 522.318359 51.363281 521.077637 51.363281 Q 520.669434 51.363281 520.223633 51.288086 Q 519.777832 51.212891 519.332031 51.067871 L 519.332031 50.090332 Q 519.858398 50.337402 520.288086 50.455566 Q 520.717773 50.573730 521.077637 50.573730 Q 521.877930 50.573730 522.243164 50.138672 Q 522.608398 49.703613 522.608398 48.758301 L 522.608398 48.715332 L 522.608398 48.043945 Q 522.372070 48.548828 521.963867 48.795898 Q 521.555664 49.042969 520.970215 49.042969 Q 519.917480 49.042969 519.289062 48.199707 Q 518.660645 47.356445 518.660645 45.943848 Q 518.660645 44.525879 519.289062 43.682617 Q 519.917480 42.839355 520.970215 42.839355 Q 521.550293 42.839355 521.953125 43.070312 Q 522.355957 43.301270 522.608398 43.784668 L 522.608398 43.005859 L 523.596680 43.005859 Z " fill="rgb(0, 0, 0)" fill-opacity="1.000000" />
<path d="M 93.878906 39.319336 L 93.878906 25.300781 L 94.738281 25.300781 L 94.738281 39.319336 Z " fill="rgb(0, 0, 0)" fill-opacity="1.000000" />
<path d="M 184.878906 39.319336 L 184.878906 25.300781 L 185.738281 25.300781 L 185.738281 39.319336 Z " fill="rgb(0, 0, 0)" fill-opacity="1.000000" />
<path d="M 366.878906 39.319336 L 366.878906 25.300781 L 367.738281 25.300781 L 367.738281 39.319336 Z " fill="rgb(0, 0, 0)" fill-opacity="1.000000" />
<path d="M 457.878906 39.319336 L 457.878906 25.300781 L 458.738281 25.300781 L 458.738281 39.319336 Z " fill="rgb(0, 0, 0)" fill-opacity="1.000000" />
<path d="M 548.878906 39.319336 L 548.878906 25.300781 L 549.738281 25.300781 L 549.738281 39.319336 Z " fill="rgb(0, 0, 0)" fill-opacity="1.000000" />
<path d="M 6.892578 20.335938 L 6.892578 19.412109 L 13.729980 19.412109 L 13.729980 20.335938 Z " fill="rgb(0, 0, 0)" fill-opacity="1.000000" />
<path d="M 13.892578 20.335938 L 13.892578 19.412109 L 20.729980 19.412109 L 20.729980 20.335938 Z " fill="rgb(0, 0, 0)" fill-opacity="1.000000" />
<path d="M 20.892578 20.335938 L 20.892578 19.412109 L 27.729980 19.412109 L 27.729980 20.335938 Z " fill="rgb(0, 0, 0)" fill-opacity="1.000000" />
<path d="M 27.892578 20.335938 L 27.892578 19.412109 L 34.729980 19.412109 L 34.729980 20.335938 Z " fill="rgb(0, 0, 0)" fill-opacity="1.000000" />
<path d="M 34.892578 20.335938 L 34.892578 19.412109 L 41.729980 19.412109 L 41.729980 20.335938 Z " fill="rgb(0, 0, 0)" fill-opacity="1.000000" />
<path d="M 41.892578 20.335938 L 41.892578 19.412109 L 48.729980 19.412109 L 48.729980 20.335938 Z " fill="rgb(0, 0, 0)" fill-opacity="1.000000" />
<path d="M 48.892578 20.335938 L 48.892578 19.412109 L 55.729980 19.412109 L 55.729980 20.335938 Z " fill="rgb(0, 0, 0)" fill-opacity="1.000000" />
<path d="M 55.892578 20.335938 L 55.892578 19.412109 L 62.729980 19.412109 L 62.729980 20.335938 Z " fill="rgb(0, 0, 0)" fill-opacity="1.000000" />
<path d="M 62.892578 20.335938 L 62.892578 19.412109 L 69.729980 19.412109 L 69.729980 20.335938 Z " fill="rgb(0, 0, 0)" fill-opacity="1.000000" />
<path d="M 69.892578 20.335938 L 69.892578 19.412109 L 76.729980 19.412109 L 76.729980 20.335938 Z " fill="rgb(0, 0, 0)" fill-opacity="1.000000" />
<path d="M 76.892578 20.335938 L 76.892578 19.412109 L 83.729980 19.412109 L 83.729980 20.335938 Z " fill="rgb(0, 0, 0)" fill-opacity="1.000000" />
<path d="M 83.892578 20.335938 L 83.892578 19.412109 L 90.729980 19.412109 L 90.729980 20.335938 Z " fill="rgb(0, 0, 0)" fill-opacity="1.000000" />
<path d="M 93.878906 26.319336 L 93.878906 20.335938 L 90.892578 20.335938 L 90.892578 19.412109 L 97.729980 19.412109 L 97.729980 20.335938 L 94.738281 20.335938 L 94.738281 26.319336 Z " fill="rgb(0, 0, 0)" fill-opacity="1.000000" />
<path d="M 104.892578 20.335938 L 104.892578 19.412109 L 111.729980 19.412109 L 111.729980 20.335938 Z " fill="rgb(0, 0, 0)" fill-opacity="1.000000" />
<path d="M 118.892578 20.335938 L 118.892578 19.412109 L 125.729980 19.412109 L 125.729980 20.335938 Z " fill="rgb(0, 0, 0)" fill-opacity="1.000000" />
<path d="M 132.892578 20.335938 L 132.892578 19.412109 L 139.729980 19.412109 L 139.729980 20.335938 Z " fill="rgb(0, 0, 0)" fill-opacity="1.000000" />
<path d="M 146.892578 20.335938 L 146.892578 19.412109 L 153.729980 19.412109 L 153.729980 20.335938 Z " fill="rgb(0, 0, 0)" fill-opacity="1.000000" />
<path d="M 160.892578 20.335938 L 160.892578 19.412109 L 167.729980 19.412109 L 167.729980 20.335938 Z " fill="rgb(0, 0, 0)" fill-opacity="1.000000" />
<path d="M 174.892578 20.335938 L 174.892578 19.412109 L 181.729980 19.412109 L 181.729980 20.335938 Z " fill="rgb(0, 0, 0)" fill-opacity="1.000000" />
<path d="M 184.878906 26.319336 L 184.878906 19.412109 L 188.729980 19.412109 L 188.729980 20.335938 L 185.738281 20.335938 L 185.738281 26.319336 Z " fill="rgb(0, 0, 0)" fill-opacity="1.000000" />
<path d="M 188.892578 20.335938 L 188.892578 19.412109 L 195.729980 19.412109 L 195.729980 20.335938 Z " fill="rgb(0, 0, 0)" fill-opacity="1.000000" />
<path d="M 195.892578 20.335938 L 195.892578 19.412109 L 202.729980 19.412109 L 202.729980 20.335938 Z " fill="rgb(0, 0, 0)" fill-opacity="1.000000" />
<path d="M 202.892578 20.335938 L 202.892578 19.412109 L 209.729980 19.412109 L 209.729980 20.335938 Z " fill="rgb(0, 0, 0)" fill-opacity="1.000000" />
<path d="M 209.892578 20.335938 L 209.892578 19.412109 L 216.729980 19.412109 L 216.729980 20.335938 Z " fill="rgb(0, 0, 0)" fill-opacity="1.000000" />
<path d="M 216.892578 20.335938 L 216.892578 19.412109 L 223.729980 19.412109 L 223.729980 20.335938 Z " fill="rgb(0, 0, 0)" fill-opacity="1.000000" />
<path d="M 223.892578 20.335938 L 223.892578 19.412109 L 230.729980 19.412109 L 230.729980 20.335938 Z " fill="rgb(0, 0, 0)" fill-opacity="1.000000" />
<path d="M 230.892578 20.335938 L 230.892578 19.412109 L 237.729980 19.412109 L 237.729980 20.335938 Z " fill="rgb(0, 0, 0)" fill-opacity="1.000000" />
<path d="M 237.892578 20.335938 L 237.892578 19.412109 L 244.729980 19.412109 L 244.729980 20.335938 Z " fill="rgb(0, 0, 0)" fill-opacity="1.000000" />
<path d="M 244.892578 20.335938 L 244.892578 19.412109 L 251.729980 19.412109 L 251.729980 20.335938 Z " fill="rgb(0, 0, 0)" fill-opacity="1.000000" />
<path d="M 251.892578 20.335938 L 251.892578 19.412109 L 258.729980 19.412109 L 258.729980 20.335938 Z " fill="rgb(0, 0, 0)" fill-opacity="1.000000" />
<path d="M 258.892578 20.335938 L 258.892578 19.412109 L 265.729980 19.412109 L 265.729980 20.335938 Z " fill="rgb(0, 0, 0)" fill-opacity="1.000000" />
<path d="M 265.892578 20.335938 L 265.892578 19.412109 L 272.729980 19.412109 L 272.729980 20.335938 Z " fill="rgb(0, 0, 0)" fill-opacity="1.000000" />
<path d="M 272.892578 20.335938 L 272.892578 19.412109 L 279.729980 19.412109 L 279.729980 20.335938 Z " fill="rgb(0, 0, 0)" fill-opacity="1.000000" />
<path d="M 279.892578 20.335938 L 279.892578 19.412109 L 286.729980 19.412109 L 286.729980 20.335938 Z " fill="rgb(0, 0, 0)" fill-opacity="1.000000" />
<path d="M 286.892578 20.335938 L 286.892578 19.412109 L 293.729980 19.412109 L 293.729980 20.335938 Z " fill="rgb(0, 0, 0)" fill-opacity="1.000000" />
<path d="M 293.892578 20.335938 L 293.892578 19.412109 L 300.729980 19.412109 L 300.729980 20.335938 Z " fill="rgb(0, 0, 0)" fill-opacity="1.000000" />
<path d="M 300.892578 20.335938 L 300.892578 19.412109 L 307.729980 19.412109 L 307.729980 20.335938 Z " fill="rgb(0, 0, 0)" fill-opacity="1.000000" />
<path d="M 307.892578 20.335938 L 307.892578 19.412109 L 314.729980 19.412109 L 314.729980 20.335938 Z " fill="rgb(0, 0, 0)" fill-opacity="1.000000" />
<path d="M 314.892578 20.335938 L 314.892578 19.412109 L 321.729980 19.412109 L 321.729980 20.335938 Z " fill="rgb(0, 0, 0)" fill-opacity="1.000000" />
<path d="M 321.892578 20.335938 L 321.892578 19.412109 L 328.729980 19.412109 L 328.729980 20.335938 Z " fill="rgb(0, 0, 0)" fill-opacity="1.000000" />
<path d="M 328.892578 20.335938 L 328.892578 19.412109 L 335.729980 19.412109 L 335.729980 20.335938 Z " fill="rgb(0, 0, 0)" fill-opacity="1.000000" />
<path d="M 335.892578 20.335938 L 335.892578 19.412109 L 342.729980 19.412109 L 342.729980 20.335938 Z " fill="rgb(0, 0, 0)" fill-opacity="1.000000" />
<path d="M 342.892578 20.335938 L 342.892578 19.412109 L 349.729980 19.412109 L 349.729980 20.335938 Z " fill="rgb(0, 0, 0)" fill-opacity="1.000000" />
<path d="M 349.892578 20.335938 L 349.892578 19.412109 L 356.729980 19.412109 L 356.729980 20.335938 Z " fill="rgb(0, 0, 0)" fill-opacity="1.000000" />
<path d="M 356.892578 20.335938 L 356.892578 19.412109 L 363.729980 19.412109 L 363.729980 20.335938 Z " fill="rgb(0, 0, 0)" fill-opacity="1.000000" />
<path d="M 366.878906 26.319336 L 366.878906 20.335938 L 363.892578 20.335938 L 363.892578 19.412109 L 370.729980 19.412109 L 370.729980 20.335938 L 367.738281 20.335938 L 367.738281 26.319336 Z " fill="rgb(0, 0, 0)" fill-opacity="1.000000" />
<path d="M 370.892578 20.335938 L 370.892578 19.412109 L 377.729980 19.412109 L 377.729980 20.335938 Z " fill="rgb(0, 0, 0)" fill-opacity="1.000000" />
<path d="M 377.892578 20.335938 L 377.892578 19.412109 L 384.729980 19.412109 L 384.729980 20.335938 Z " fill="rgb(0, 0, 0)" fill-opacity="1.000000" />
<path d="M 384.892578 20.335938 L 384.892578 19.412109 L 391.729980 19.412109 L 391.729980 20.335938 Z " fill="rgb(0, 0, 0)" fill-opacity="1.000000" />
<path d="M 391.892578 20.335938 L 391.892578 19.412109 L 398.729980 19.412109 L 398.729980 20.335938 Z " fill="rgb(0, 0, 0)" fill-opacity="1.000000" />
<path d="M 398.892578 20.335938 L 398.892578 19.412109 L 405.729980 19.412109 L 405.729980 20.335938 Z " fill="rgb(0, 0, 0)" fill-opacity="1.000000" />
<path d="M 405.892578 20.335938 L 405.892578 19.412109 L 412.729980 19.412109 L 412.729980 20.335938 Z " fill="rgb(0, 0, 0)" fill-opacity="1.000000" />
<path d="M 412.892578 20.335938 L 412.892578 19.412109 L 419.729980 19.412109 L 419.729980 20.335938 Z " fill="rgb(0, 0, 0)" fill-opacity="1.000000" />
<path d="M 419.892578 20.335938 L 419.892578 19.412109 L 426.729980 19.412109 L 426.729980 20.335938 Z " fill="rgb(0, 0, 0)" fill-opacity="1.000000" />
<path d="M 426.892578 20.335938 L 426.892578 19.412109 L 433.729980 19.412109 L 433.729980 20.335938 Z " fill="rgb(0, 0, 0)" fill-opacity="1.000000" />
<path d="M 433.892578 20.335938 L 433.892578 19.412109 L 440.729980 19.412109 L 440.729980 20.335938 Z " fill="rgb(0, 0, 0)" fill-opacity="1.000000" />
<path d="M 440.892578 20.335938 L 440.892578 19.412109 L 447.729980 19.412109 L 447.729980 20.335938 Z " fill="rgb(0, 0, 0)" fill-opacity="1.000000" />
<path d="M 447.892578 20.335938 L 447.892578 19.412109 L 454.729980 19.412109 L 454.729980 20.335938 Z " fill="rgb(0, 0, 0)" fill-opacity="1.000000" />
<path d="M 457.878906 26.319336 L 457.878906 20.335938 L 454.892578 20.335938 L 454.892578 19.412109 L 461.729980 19.412109 L 461.729980 20.335938 L 458.738281 20.335938 L 458.738281 26.319336 Z " fill="rgb(0, 0, 0)" fill-opacity="1.000000" />
<path d="M 468.892578 20.335938 L 468.892578 19.412109 L 475.729980 19.412109 L 475.729980 20.335938 Z " fill="rgb(0, 0, 0)" fill-opacity="1.000000" />
<path d="M 482.892578 20.335938 L 482.892578 19.412109 L 489.729980 19.412109 L 489.729980 20.335938 Z " fill="rgb(0, 0, 0)" fill-opacity="1.000000" />
<path d="M 496.892578 20.335938 L 496.892578 19.412109 L 503.729980 19.412109 L 503.729980 20.335938 Z " fill="rgb(0, 0, 0)" fill-opacity="1.000000" />
<path d="M 510.892578 20.335938 L 510.892578 19.412109 L 517.729980 19.412109 L 517.729980 20.335938 Z " fill="rgb(0, 0, 0)" fill-opacity="1.000000" />
<path d="M 524.892578 20.335938 L 524.892578 19.412109 L 531.729980 19.412109 L 531.729980 20.335938 Z " fill="rgb(0, 0, 0)" fill-opacity="1.000000" />
<path d="M 538.892578 20.335938 L 538.892578 19.412109 L 545.729980 19.412109 L 545.729980 20.335938 Z " fill="rgb(0, 0, 0)" fill-opacity="1.000000" />
<path d="M 52.770508 6.976074 L 52.442871 6.976074 Q 51.578125 6.976074 51.140381 7.279541 Q 50.702637 7.583008 50.702637 8.184570 Q 50.702637 8.727051 51.030273 9.027832 Q 51.357910 9.328613 51.937988 9.328613 Q 52.754395 9.328613 53.221680 8.761963 Q 53.688965 8.195312 53.694336 7.196289 L 53.694336 6.976074 Z M 54.687988 6.567871 L 54.687988 10.000000 L 53.694336 10.000000 L 53.694336 9.108398 Q 53.377441 9.645508 52.896729 9.900635 Q 52.416016 10.155762 51.728516 10.155762 Q 50.810059 10.155762 50.262207 9.637451 Q 49.714355 9.119141 49.714355 8.249023 Q 49.714355 7.244629 50.388428 6.723633 Q 51.062500 6.202637 52.367676 6.202637 L 53.694336 6.202637 L 53.694336 6.046875 Q 53.688965 5.327148 53.329102 5.002197 Q 52.969238 4.677246 52.179688 4.677246 Q 51.674805 4.677246 51.159180 4.822266 Q 50.643555 4.967285 50.154785 5.246582 L 50.154785 4.258301 Q 50.702637 4.048828 51.204834 3.944092 Q 51.707031 3.839355 52.179688 3.839355 Q 52.926270 3.839355 53.455322 4.059570 Q 53.984375 4.279785 54.312012 4.720215 Q 54.516113 4.988770 54.602051 5.383545 Q 54.687988 5.778320 54.687988 6.567871 Z " fill="rgb(0, 0, 0)" fill-opacity="1.000000" />
<path d="M 277.930664 6.997559 Q 277.930664 5.848145 277.565430 5.262695 Q 277.200195 4.677246 276.485840 4.677246 Q 275.766113 4.677246 275.395508 5.265381 Q 275.024902 5.853516 275.024902 6.997559 Q 275.024902 8.136230 275.395508 8.727051 Q 275.766113 9.317871 276.485840 9.317871 Q 277.200195 9.317871 277.565430 8.732422 Q 277.930664 8.146973 277.930664 6.997559 Z M 275.024902 4.752441 Q 275.261230 4.312012 275.677490 4.075684 Q 276.093750 3.839355 276.641602 3.839355 Q 277.726562 3.839355 278.349609 4.674561 Q 278.972656 5.509766 278.972656 6.976074 Q 278.972656 8.463867 278.346924 9.309814 Q 277.721191 10.155762 276.630859 10.155762 Q 276.093750 10.155762 275.682861 9.922119 Q 275.271973 9.688477 275.024902 9.242676 L 275.024902 10.000000 L 274.036621 10.000000 L 274.036621 1.642578 L 275.024902 1.642578 Z " fill="rgb(0, 0, 0)" fill-opacity="1.000000" />
<path d="M 418.698730 9.693848 Q 418.301270 9.924805 417.879639 10.040283 Q 417.458008 10.155762 417.017578 10.155762 Q 415.621094 10.155762 414.834229 9.317871 Q 414.047363 8.479980 414.047363 6.997559 Q 414.047363 5.515137 414.834229 4.677246 Q 415.621094 3.839355 417.017578 3.839355 Q 417.452637 3.839355 417.866211 3.952148 Q 418.279785 4.064941 418.698730 4.301270 L 418.698730 5.337891 Q 418.306641 4.988770 417.911865 4.833008 Q 417.517090 4.677246 417.017578 4.677246 Q 416.088379 4.677246 415.588867 5.278809 Q 415.089355 5.880371 415.089355 6.997559 Q 415.089355 8.109375 415.591553 8.713623 Q 416.093750 9.317871 417.017578 9.317871 Q 417.533203 9.317871 417.941406 9.159424 Q 418.349609 9.000977 418.698730 8.667969 Z " fill="rgb(0, 0, 0)" fill-opacity="1.000000" />
</svg>