<svg xmlns="http://www.w3.org/2000/svg" version="1.1" width="554" height="131">
<path d="M 2.878906 26.319336 L 2.878906 19.412109 L 6.729980 19.412109 L 6.729980 20.335938 L 3.738281 20.335938 L 3.738281 26.319336 Z " fill="rgb(0, 0, 0)" fill-opacity="1.000000" />
<path d="M 2.878906 39.319336 L 2.878906 25.300781 L 3.738281 25.300781 L 3.738281 39.319336 Z " fill="rgb(0, 0, 0)" fill-opacity="1.000000" />
<path d="M 2.878906 52.319336 L 2.878906 38.300781 L 3.738281 38.300781 L 3.738281 52.319336 Z " fill="rgb(0, 0, 0)" fill-opacity="1.000000" />
<path d="M 2.878906 65.319336 L 2.878906 51.300781 L 3.738281 51.300781 L 3.738281 65.319336 Z " fill="rgb(0, 0, 0)" fill-opacity="1.000000" />
<path d="M 2.878906 78.319336 L 2.878906 64.300781 L 3.738281 64.300781 L 3.738281 78.319336 Z " fill="rgb(0, 0, 0)" fill-opacity="1.000000" />
<path d="M 2.878906 85.335938 L 2.878906 77.300781 L 3.738281 77.300781 L 3.738281 84.412109 L 6.729980 84.412109 L 6.729980 85.335938 Z " fill="rgb(0, 0, 0)" fill-opacity="1.000000" />
<path d="M 2.878906 111.335938 L 2.878906 103.300781 L 3.738281 103.300781 L 3.738281 110.412109 L 6.729980 110.412109 L 6.729980 111.335938 Z " fill="rgb(0, 0, 0)" fill-opacity="1.000000" />
<path d="M 136.297852 119.276367 L 136.297852 120.984375 L 138.542969 120.984375 L 138.542969 121.752441 L 136.297852 121.752441 L 136.297852 125.018066 Q 136.297852 125.684082 136.550293 125.947266 Q 136.802734 126.210449 137.431152 126.210449 L 138.542969 126.210449 L 138.542969 127.000000 L 137.334473 127.000000 Q 136.222656 127.000000 135.766113 126.554199 Q 135.309570 126.108398 135.309570 125.018066 L 135.309570 121.752441 L 133.703613 121.752441 L 133.703613 120.984375 L 135.309570 120.984375 L 135.309570 119.276367 Z " fill="rgb(0, 0, 0)" fill-opacity="1.000000" />
<path d="M 143.308594 121.677246 Q 142.556641 121.677246 142.169922 122.262695 Q 141.783203 122.848145 141.783203 123.997559 Q 141.783203 125.141602 142.169922 125.729736 Q 142.556641 126.317871 143.308594 126.317871 Q 144.065918 126.317871 144.452637 125.729736 Q 144.839355 125.141602 144.839355 123.997559 Q 144.839355 122.848145 144.452637 122.262695 Q 144.065918 121.677246 143.308594 121.677246 Z M 143.308594 120.839355 Q 144.560059 120.839355 145.223389 121.650391 Q 145.886719 122.461426 145.886719 123.997559 Q 145.886719 125.539062 145.226074 126.347412 Q 144.565430 127.155762 143.308594 127.155762 Q 142.057129 127.155762 141.396484 126.347412 Q 140.735840 125.539062 140.735840 123.997559 Q 140.735840 122.461426 141.396484 121.650391 Q 142.057129 120.839355 143.308594 120.839355 Z " fill="rgb(0, 0, 0)" fill-opacity="1.000000" />
<path d="M 150.297852 119.276367 L 150.297852 120.984375 L 152.542969 120.984375 L 152.542969 121.752441 L 150.297852 121.752441 L 150.297852 125.018066 Q 150.297852 125.684082 150.550293 125.947266 Q 150.802734 126.210449 151.431152 126.210449 L 152.542969 126.210449 L 152.542969 127.000000 L 151.334473 127.000000 Q 150.222656 127.000000 149.766113 126.554199 Q 149.309570 126.108398 149.309570 125.018066 L 149.309570 121.752441 L 147.703613 121.752441 L 147.703613 120.984375 L 149.309570 120.984375 L 149.309570 119.276367 Z " fill="rgb(0, 0, 0)" fill-opacity="1.000000" />
<path d="M 157.770508 123.976074 L 157.442871 123.976074 Q 156.578125 123.976074 156.140381 124.279541 Q 155.702637 124.583008 155.702637 125.184570 Q 155.702637 125.727051 156.030273 126.027832 Q 156.357910 126.328613 156.937988 126.328613 Q 157.754395 126.328613 158.221680 125.761963 Q 158.688965 125.195312 158.694336 124.196289 L 158.694336 123.976074 Z M 159.687988 123.567871 L 159.687988 127.000000 L 158.694336 127.000000 L 158.694336 126.108398 Q 158.377441 126.645508 157.896729 126.900635 Q 157.416016 127.155762 156.728516 127.155762 Q 155.810059 127.155762 155.262207 126.637451 Q 154.714355 126.119141 154.714355 125.249023 Q 154.714355 124.244629 155.388428 123.723633 Q 156.062500 123.202637 157.367676 123.202637 L 158.694336 123.202637 L 158.694336 123.046875 Q 158.688965 122.327148 158.329102 122.002197 Q 157.969238 121.677246 157.179688 121.677246 Q 156.674805 121.677246 156.159180 121.822266 Q 155.643555 121.967285 155.154785 122.246582 L 155.154785 121.258301 Q 155.702637 121.048828 156.204834 120.944092 Q 156.707031 120.839355 157.179688 120.839355 Q 157.926270 120.839355 158.455322 121.059570 Q 158.984375 121.279785 159.312012 121.720215 Q 159.516113 121.988770 159.602051 122.383545 Q 159.687988 122.778320 159.687988 123.567871 Z " fill="rgb(0, 0, 0)" fill-opacity="1.000000" />
<path d="M 164.861816 124.824707 Q 164.861816 125.490723 165.106201 125.829102 Q 165.350586 126.167480 165.828613 126.167480 L 166.983398 126.167480 L 166.983398 127.000000 L 165.731934 127.000000 Q 164.845703 127.000000 164.359619 126.433350 Q 163.873535 125.866699 163.873535 124.824707 L 163.873535 119.383789 L 162.289062 119.383789 L 162.289062 118.610352 L 164.861816 118.610352 Z " fill="rgb(0, 0, 0)" fill-opacity="1.000000" />
<path d="M 170.304199 120.989746 L 171.979980 120.989746 L 171.979980 122.928711 L 170.304199 122.928711 Z M 170.304199 125.044922 L 171.979980 125.044922 L 171.979980 127.000000 L 170.304199 127.000000 Z " fill="rgb(0, 0, 0)" fill-opacity="1.000000" />
<path d="M 183.450195 126.092285 L 185.136719 126.092285 L 185.136719 120.033691 L 183.117188 121.005859 L 183.117188 119.963867 L 185.125977 119.007812 L 186.210938 119.007812 L 186.210938 126.092285 L 187.875977 126.092285 L 187.875977 127.000000 L 183.450195 127.000000 Z " fill="rgb(0, 0, 0)" fill-opacity="1.000000" />
<path d="M 194.322754 119.158203 L 194.322754 120.157227 Q 193.984375 119.958496 193.603027 119.853760 Q 193.221680 119.749023 192.808105 119.749023 Q 191.776855 119.749023 191.245117 120.525146 Q 190.713379 121.301270 190.713379 122.810547 Q 190.971191 122.273438 191.427734 121.986084 Q 191.884277 121.698730 192.475098 121.698730 Q 193.635254 121.698730 194.271729 122.410400 Q 194.908203 123.122070 194.908203 124.427246 Q 194.908203 125.727051 194.252930 126.441406 Q 193.597656 127.155762 192.410645 127.155762 Q 191.014160 127.155762 190.364258 126.154053 Q 189.714355 125.152344 189.714355 122.998535 Q 189.714355 120.968262 190.495850 119.902100 Q 191.277344 118.835938 192.759766 118.835938 Q 193.157227 118.835938 193.554688 118.919189 Q 193.952148 119.002441 194.322754 119.158203 Z M 192.389160 122.547363 Q 191.696289 122.547363 191.298828 123.046875 Q 190.901367 123.546387 190.901367 124.427246 Q 190.901367 125.308105 191.298828 125.807617 Q 191.696289 126.307129 192.389160 126.307129 Q 193.108887 126.307129 193.474121 125.831787 Q 193.839355 125.356445 193.839355 124.427246 Q 193.839355 123.492676 193.474121 123.020020 Q 193.108887 122.547363 192.389160 122.547363 Z " fill="rgb(0, 0, 0)" fill-opacity="1.000000" />
<path d="M 207.930664 123.997559 Q 207.930664 122.848145 207.565430 122.262695 Q 207.200195 121.677246 206.485840 121.677246 Q 205.766113 121.677246 205.395508 122.265381 Q 205.024902 122.853516 205.024902 123.997559 Q 205.024902 125.136230 205.395508 125.727051 Q 205.766113 126.317871 206.485840 126.317871 Q 207.200195 126.317871 207.565430 125.732422 Q 207.930664 125.146973 207.930664 123.997559 Z M 205.024902 121.752441 Q 205.261230 121.312012 205.677490 121.075684 Q 206.093750 120.839355 206.641602 120.839355 Q 207.726562 120.839355 208.349609 121.674561 Q 208.972656 122.509766 208.972656 123.976074 Q 208.972656 125.463867 208.346924 126.309814 Q 207.721191 127.155762 206.630859 127.155762 Q 206.093750 127.155762 205.682861 126.922119 Q 205.271973 126.688477 205.024902 126.242676 L 205.024902 127.000000 L 204.036621 127.000000 L 204.036621 118.642578 L 205.024902 118.642578 Z " fill="rgb(0, 0, 0)" fill-opacity="1.000000" />
<path d="M 214.608398 125.066406 Q 214.361328 125.694824 213.979980 126.720703 Q 213.448242 128.138672 213.265625 128.450195 Q 213.018555 128.869141 212.647949 129.078613 Q 212.277344 129.288086 211.783203 129.288086 L 210.988281 129.288086 L 210.988281 128.460938 L 211.573730 128.460938 Q 212.008789 128.460938 212.255859 128.208496 Q 212.502930 127.956055 212.884277 126.903320 L 210.558594 120.984375 L 211.605957 120.984375 L 213.389160 125.689453 L 215.145508 120.984375 L 216.192871 120.984375 Z " fill="rgb(0, 0, 0)" fill-opacity="1.000000" />
<path d="M 220.297852 119.276367 L 220.297852 120.984375 L 222.542969 120.984375 L 222.542969 121.752441 L 220.297852 121.752441 L 220.297852 125.018066 Q 220.297852 125.684082 220.550293 125.947266 Q 220.802734 126.210449 221.431152 126.210449 L 222.542969 126.210449 L 222.542969 127.000000 L 221.334473 127.000000 Q 220.222656 127.000000 219.766113 126.554199 Q 219.309570 126.108398 219.309570 125.018066 L 219.309570 121.752441 L 217.703613 121.752441 L 217.703613 120.984375 L 219.309570 120.984375 L 219.309570 119.276367 Z " fill="rgb(0, 0, 0)" fill-opacity="1.000000" />
<path d="M 230.015625 123.498047 L 230.015625 123.981445 L 225.734863 123.981445 L 225.734863 124.013672 Q 225.691895 125.243652 226.204834 125.780762 Q 226.717773 126.317871 227.652344 126.317871 Q 228.125000 126.317871 228.640625 126.167480 Q 229.156250 126.017090 229.741699 125.710938 L 229.741699 126.693848 Q 229.177734 126.924805 228.654053 127.040283 Q 228.130371 127.155762 227.641602 127.155762 Q 226.239746 127.155762 225.450195 126.315186 Q 224.660645 125.474609 224.660645 123.997559 Q 224.660645 122.558105 225.434082 121.698730 Q 226.207520 120.839355 227.496582 120.839355 Q 228.645996 120.839355 229.309326 121.618164 Q 229.972656 122.396973 230.015625 123.498047 Z M 229.027344 123.208008 Q 228.962891 122.584961 228.573486 122.131104 Q 228.184082 121.677246 227.453613 121.677246 Q 226.739258 121.677246 226.277344 122.149902 Q 225.815430 122.622559 225.772461 123.213379 Z " fill="rgb(0, 0, 0)" fill-opacity="1.000000" />
<path d="M 236.226074 121.193848 L 236.226074 122.160645 Q 235.801758 121.913574 235.372070 121.790039 Q 234.942383 121.666504 234.496582 121.666504 Q 233.825195 121.666504 233.494873 121.884033 Q 233.164551 122.101562 233.164551 122.547363 Q 233.164551 122.950195 233.411621 123.148926 Q 233.658691 123.347656 234.641602 123.535645 L 235.039062 123.610840 Q 235.774902 123.750488 236.153564 124.169434 Q 236.532227 124.588379 236.532227 125.259766 Q 236.532227 126.151367 235.898438 126.653564 Q 235.264648 127.155762 234.136719 127.155762 Q 233.690918 127.155762 233.202148 127.061768 Q 232.713379 126.967773 232.144043 126.779785 L 232.144043 125.759277 Q 232.697266 126.043945 233.202148 126.186279 Q 233.707031 126.328613 234.158203 126.328613 Q 234.813477 126.328613 235.173340 126.062744 Q 235.533203 125.796875 235.533203 125.318848 Q 235.533203 124.631348 234.217285 124.368164 L 234.174316 124.357422 L 233.803711 124.282227 Q 232.949707 124.115723 232.557617 123.720947 Q 232.165527 123.326172 232.165527 122.644043 Q 232.165527 121.779297 232.750977 121.309326 Q 233.336426 120.839355 234.421387 120.839355 Q 234.904785 120.839355 235.350586 120.927979 Q 235.796387 121.016602 236.226074 121.193848 Z " fill="rgb(0, 0, 0)" fill-opacity="1.000000" />
<path d="M 6.892578 111.335938 L 6.892578 110.412109 L 13.729980 110.412109 L 13.729980 111.335938 Z " fill="rgb(0, 0, 0)" fill-opacity="1.000000" />
<path d="M 13.892578 111.335938 L 13.892578 110.412109 L 20.729980 110.412109 L 20.729980 111.335938 Z " fill="rgb(0, 0, 0)" fill-opacity="1.000000" />
<path d="M 20.892578 111.335938 L 20.892578 110.412109 L 27.729980 110.412109 L 27.729980 111.335938 Z " fill="rgb(0, 0, 0)" fill-opacity="1.000000" />
<path d="M 27.892578 111.335938 L 27.892578 110.412109 L 34.729980 110.412109 L 34.729980 111.335938 Z " fill="rgb(0, 0, 0)" fill-opacity="1.000000" />
<path d="M 34.892578 111.335938 L 34.892578 110.412109 L 41.729980 110.412109 L 41.729980 111.335938 Z " fill="rgb(0, 0, 0)" fill-opacity="1.000000" />
<path d="M 41.892578 111.335938 L 41.892578 110.412109 L 48.729980 110.412109 L 48.729980 111.335938 Z " fill="rgb(0, 0, 0)" fill-opacity="1.000000" />
<path d="M 48.892578 111.335938 L 48.892578 110.412109 L 55.729980 110.412109 L 55.729980 111.335938 Z " fill="rgb(0, 0, 0)" fill-opacity="1.000000" />
<path d="M 55.892578 111.335938 L 55.892578 110.412109 L 62.729980 110.412109 L 62.729980 111.335938 Z " fill="rgb(0, 0, 0)" fill-opacity="1.000000" />
<path d="M 62.892578 111.335938 L 62.892578 110.412109 L 69.729980 110.412109 L 69.729980 111.335938 Z " fill="rgb(0, 0, 0)" fill-opacity="1.000000" />
<path d="M 69.892578 111.335938 L 69.892578 110.412109 L 76.729980 110.412109 L 76.729980 111.335938 Z " fill="rgb(0, 0, 0)" fill-opacity="1.000000" />
<path d="M 76.892578 111.335938 L 76.892578 110.412109 L 83.729980 110.412109 L 83.729980 111.335938 Z " fill="rgb(0, 0, 0)" fill-opacity="1.000000" />
<path d="M 83.892578 111.335938 L 83.892578 110.412109 L 90.729980 110.412109 L 90.729980 111.335938 Z " fill="rgb(0, 0, 0)" fill-opacity="1.000000" />
<path d="M 90.892578 111.335938 L 90.892578 110.412109 L 97.729980 110.412109 L 97.729980 111.335938 Z " fill="rgb(0, 0, 0)" fill-opacity="1.000000" />
<path d="M 97.892578 111.335938 L 97.892578 110.412109 L 104.729980 110.412109 L 104.729980 111.335938 Z " fill="rgb(0, 0, 0)" fill-opacity="1.000000" />
<path d="M 104.892578 111.335938 L 104.892578 110.412109 L 111.729980 110.412109 L 111.729980 111.335938 Z " fill="rgb(0, 0, 0)" fill-opacity="1.000000" />
<path d="M 111.892578 111.335938 L 111.892578 110.412109 L 118.729980 110.412109 L 118.729980 111.335938 Z " fill="rgb(0, 0, 0)" fill-opacity="1.000000" />
<path d="M 118.892578 111.335938 L 118.892578 110.412109 L 125.729980 110.412109 L 125.729980 111.335938 Z " fill="rgb(0, 0, 0)" fill-opacity="1.000000" />
<path d="M 125.892578 111.335938 L 125.892578 110.412109 L 132.729980 110.412109 L 132.729980 111.335938 Z " fill="rgb(0, 0, 0)" fill-opacity="1.000000" />
<path d="M 132.892578 111.335938 L 132.892578 110.412109 L 139.729980 110.412109 L 139.729980 111.335938 Z " fill="rgb(0, 0, 0)" fill-opacity="1.000000" />
<path d="M 139.892578 111.335938 L 139.892578 110.412109 L 146.729980 110.412109 L 146.729980 111.335938 Z " fill="rgb(0, 0, 0)" fill-opacity="1.000000" />
<path d="M 146.892578 111.335938 L 146.892578 110.412109 L 153.729980 110.412109 L 153.729980 111.335938 Z " fill="rgb(0, 0, 0)" fill-opacity="1.000000" />
<path d="M 153.892578 111.335938 L 153.892578 110.412109 L 160.729980 110.412109 L 160.729980 111.335938 Z " fill="rgb(0, 0, 0)" fill-opacity="1.000000" />
<path d="M 160.892578 111.335938 L 160.892578 110.412109 L 167.729980 110.412109 L 167.729980 111.335938 Z " fill="rgb(0, 0, 0)" fill-opacity="1.000000" />
<path d="M 167.892578 111.335938 L 167.892578 110.412109 L 174.729980 110.412109 L 174.729980 111.335938 Z " fill="rgb(0, 0, 0)" fill-opacity="1.000000" />
<path d="M 174.892578 111.335938 L 174.892578 110.412109 L 181.729980 110.412109 L 181.729980 111.335938 Z " fill="rgb(0, 0, 0)" fill-opacity="1.000000" />
<path d="M 181.892578 111.335938 L 181.892578 110.412109 L 188.729980 110.412109 L 188.729980 111.335938 Z " fill="rgb(0, 0, 0)" fill-opacity="1.000000" />
<path d="M 188.892578 111.335938 L 188.892578 110.412109 L 195.729980 110.412109 L 195.729980 111.335938 Z " fill="rgb(0, 0, 0)" fill-opacity="1.000000" />
<path d="M 195.892578 111.335938 L 195.892578 110.412109 L 202.729980 110.412109 L 202.729980 111.335938 Z " fill="rgb(0, 0, 0)" fill-opacity="1.000000" />
<path d="M 202.892578 111.335938 L 202.892578 110.412109 L 209.729980 110.412109 L 209.729980 111.335938 Z " fill="rgb(0, 0, 0)" fill-opacity="1.000000" />
<path d="M 209.892578 111.335938 L 209.892578 110.412109 L 216.729980 110.412109 L 216.729980 111.335938 Z " fill="rgb(0, 0, 0)" fill-opacity="1.000000" />
<path d="M 216.892578 111.335938 L 216.892578 110.412109 L 223.729980 110.412109 L 223.729980 111.335938 Z " fill="rgb(0, 0, 0)" fill-opacity="1.000000" />
<path d="M 223.892578 111.335938 L 223.892578 110.412109 L 230.729980 110.412109 L 230.729980 111.335938 Z " fill="rgb(0, 0, 0)" fill-opacity="1.000000" />
<path d="M 230.892578 111.335938 L 230.892578 110.412109 L 237.729980 110.412109 L 237.729980 111.335938 Z " fill="rgb(0, 0, 0)" fill-opacity="1.000000" />
<path d="M 237.892578 111.335938 L 237.892578 110.412109 L 244.729980 110.412109 L 244.729980 111.335938 Z " fill="rgb(0, 0, 0)" fill-opacity="1.000000" />
<path d="M 244.892578 111.335938 L 244.892578 110.412109 L 251.729980 110.412109 L 251.729980 111.335938 Z " fill="rgb(0, 0, 0)" fill-opacity="1.000000" />
<path d="M 251.892578 111.335938 L 251.892578 110.412109 L 258.729980 110.412109 L 258.729980 111.335938 Z " fill="rgb(0, 0, 0)" fill-opacity="1.000000" />
<path d="M 258.892578 111.335938 L 258.892578 110.412109 L 265.729980 110.412109 L 265.729980 111.335938 Z " fill="rgb(0, 0, 0)" fill-opacity="1.000000" />
<path d="M 265.892578 111.335938 L 265.892578 110.412109 L 272.729980 110.412109 L 272.729980 111.335938 Z " fill="rgb(0, 0, 0)" fill-opacity="1.000000" />
<path d="M 272.892578 111.335938 L 272.892578 110.412109 L 279.729980 110.412109 L 279.729980 111.335938 Z " fill="rgb(0, 0, 0)" fill-opacity="1.000000" />
<path d="M 279.892578 111.335938 L 279.892578 110.412109 L 286.729980 110.412109 L 286.729980 111.335938 Z " fill="rgb(0, 0, 0)" fill-opacity="1.000000" />
<path d="M 286.892578 111.335938 L 286.892578 110.412109 L 293.729980 110.412109 L 293.729980 111.335938 Z " fill="rgb(0, 0, 0)" fill-opacity="1.000000" />
<path d="M 293.892578 111.335938 L 293.892578 110.412109 L 300.729980 110.412109 L 300.729980 111.335938 Z " fill="rgb(0, 0, 0)" fill-opacity="1.000000" />
<path d="M 300.892578 111.335938 L 300.892578 110.412109 L 307.729980 110.412109 L 307.729980 111.335938 Z " fill="rgb(0, 0, 0)" fill-opacity="1.000000" />
<path d="M 307.892578 111.335938 L 307.892578 110.412109 L 314.729980 110.412109 L 314.729980 111.335938 Z " fill="rgb(0, 0, 0)" fill-opacity="1.000000" />
<path d="M 314.892578 111.335938 L 314.892578 110.412109 L 321.729980 110.412109 L 321.729980 111.335938 Z " fill="rgb(0, 0, 0)" fill-opacity="1.000000" />
<path d="M 321.892578 111.335938 L 321.892578 110.412109 L 328.729980 110.412109 L 328.729980 111.335938 Z " fill="rgb(0, 0, 0)" fill-opacity="1.000000" />
<path d="M 328.892578 111.335938 L 328.892578 110.412109 L 335.729980 110.412109 L 335.729980 111.335938 Z " fill="rgb(0, 0, 0)" fill-opacity="1.000000" />
<path d="M 335.892578 111.335938 L 335.892578 110.412109 L 342.729980 110.412109 L 342.729980 111.335938 Z " fill="rgb(0, 0, 0)" fill-opacity="1.000000" />
<path d="M 342.892578 111.335938 L 342.892578 110.412109 L 349.729980 110.412109 L 349.729980 111.335938 Z " fill="rgb(0, 0, 0)" fill-opacity="1.000000" />
<path d="M 349.892578 111.335938 L 349.892578 110.412109 L 356.729980 110.412109 L 356.729980 111.335938 Z " fill="rgb(0, 0, 0)" fill-opacity="1.000000" />
<path d="M 356.892578 111.335938 L 356.892578 110.412109 L 363.729980 110.412109 L 363.729980 111.335938 Z " fill="rgb(0, 0, 0)" fill-opacity="1.000000" />
<path d="M 363.892578 111.335938 L 363.892578 110.412109 L 366.878906 110.412109 L 366.878906 103.300781 L 367.738281 103.300781 L 367.738281 111.335938 Z " fill="rgb(0, 0, 0)" fill-opacity="1.000000" />
<path d="M 6.892578 85.335938 L 6.892578 84.412109 L 13.729980 84.412109 L 13.729980 85.335938 Z " fill="rgb(0, 0, 0)" fill-opacity="1.000000" />
<path d="M 13.892578 85.335938 L 13.892578 84.412109 L 20.729980 84.412109 L 20.729980 85.335938 Z " fill="rgb(0, 0, 0)" fill-opacity="1.000000" />
<path d="M 20.892578 85.335938 L 20.892578 84.412109 L 27.729980 84.412109 L 27.729980 85.335938 Z " fill="rgb(0, 0, 0)" fill-opacity="1.000000" />
<path d="M 27.892578 85.335938 L 27.892578 84.412109 L 34.729980 84.412109 L 34.729980 85.335938 Z " fill="rgb(0, 0, 0)" fill-opacity="1.000000" />
<path d="M 34.892578 85.335938 L 34.892578 84.412109 L 41.729980 84.412109 L 41.729980 85.335938 Z " fill="rgb(0, 0, 0)" fill-opacity="1.000000" />
<path d="M 41.892578 85.335938 L 41.892578 84.412109 L 48.729980 84.412109 L 48.729980 85.335938 Z " fill="rgb(0, 0, 0)" fill-opacity="1.000000" />
<path d="M 48.892578 85.335938 L 48.892578 84.412109 L 55.729980 84.412109 L 55.729980 85.335938 Z " fill="rgb(0, 0, 0)" fill-opacity="1.000000" />
<path d="M 55.892578 85.335938 L 55.892578 84.412109 L 62.729980 84.412109 L 62.729980 85.335938 Z " fill="rgb(0, 0, 0)" fill-opacity="1.000000" />
<path d="M 62.892578 85.335938 L 62.892578 84.412109 L 69.729980 84.412109 L 69.729980 85.335938 Z " fill="rgb(0, 0, 0)" fill-opacity="1.000000" />
<path d="M 69.892578 85.335938 L 69.892578 84.412109 L 76.729980 84.412109 L 76.729980 85.335938 Z " fill="rgb(0, 0, 0)" fill-opacity="1.000000" />
<path d="M 76.892578 85.335938 L 76.892578 84.412109 L 83.729980 84.412109 L 83.729980 85.335938 Z " fill="rgb(0, 0, 0)" fill-opacity="1.000000" />
<path d="M 83.892578 85.335938 L 83.892578 84.412109 L 90.729980 84.412109 L 90.729980 85.335938 Z " fill="rgb(0, 0, 0)" fill-opacity="1.000000" />
<path d="M 90.892578 85.335938 L 90.892578 84.412109 L 93.878906 84.412109 L 93.878906 77.300781 L 94.738281 77.300781 L 94.738281 84.412109 L 97.729980 84.412109 L 97.729980 85.335938 Z " fill="rgb(0, 0, 0)" fill-opacity="1.000000" />
<path d="M 97.892578 85.335938 L 97.892578 84.412109 L 104.729980 84.412109 L 104.729980 85.335938 Z " fill="rgb(0, 0, 0)" fill-opacity="1.000000" />
<path d="M 104.892578 85.335938 L 104.892578 84.412109 L 111.729980 84.412109 L 111.729980 85.335938 Z " fill="rgb(0, 0, 0)" fill-opacity="1.000000" />
<path d="M 111.892578 85.335938 L 111.892578 84.412109 L 118.729980 84.412109 L 118.729980 85.335938 Z " fill="rgb(0, 0, 0)" fill-opacity="1.000000" />
<path d="M 118.892578 85.335938 L 118.892578 84.412109 L 125.729980 84.412109 L 125.729980 85.335938 Z " fill="rgb(0, 0, 0)" fill-opacity="1.000000" />
<path d="M 125.892578 85.335938 L 125.892578 84.412109 L 132.729980 84.412109 L 132.729980 85.335938 Z " fill="rgb(0, 0, 0)" fill-opacity="1.000000" />
<path d="M 132.892578 85.335938 L 132.892578 84.412109 L 139.729980 84.412109 L 139.729980 85.335938 Z " fill="rgb(0, 0, 0)" fill-opacity="1.000000" />
<path d="M 139.892578 85.335938 L 139.892578 84.412109 L 146.729980 84.412109 L 146.729980 85.335938 Z " fill="rgb(0, 0, 0)" fill-opacity="1.000000" />
<path d="M 146.892578 85.335938 L 146.892578 84.412109 L 153.729980 84.412109 L 153.729980 85.335938 Z " fill="rgb(0, 0, 0)" fill-opacity="1.000000" />
<path d="M 153.892578 85.335938 L 153.892578 84.412109 L 160.729980 84.412109 L 160.729980 85.335938 Z " fill="rgb(0, 0, 0)" fill-opacity="1.000000" />
<path d="M 160.892578 85.335938 L 160.892578 84.412109 L 167.729980 84.412109 L 167.729980 85.335938 Z " fill="rgb(0, 0, 0)" fill-opacity="1.000000" />
<path d="M 167.892578 85.335938 L 167.892578 84.412109 L 174.729980 84.412109 L 174.729980 85.335938 Z " fill="rgb(0, 0, 0)" fill-opacity="1.000000" />
<path d="M 174.892578 85.335938 L 174.892578 84.412109 L 181.729980 84.412109 L 181.729980 85.335938 Z " fill="rgb(0, 0, 0)" fill-opacity="1.000000" />
<path d="M 181.892578 85.335938 L 181.892578 84.412109 L 184.878906 84.412109 L 184.878906 77.300781 L 185.738281 77.300781 L 185.738281 84.412109 L 188.729980 84.412109 L 188.729980 85.335938 Z " fill="rgb(0, 0, 0)" fill-opacity="1.000000" />
<path d="M 188.892578 85.335938 L 188.892578 84.412109 L 195.729980 84.412109 L 195.729980 85.335938 Z " fill="rgb(0, 0, 0)" fill-opacity="1.000000" />
<path d="M 195.892578 85.335938 L 195.892578 84.412109 L 202.729980 84.412109 L 202.729980 85.335938 Z " fill="rgb(0, 0, 0)" fill-opacity="1.000000" />
<path d="M 202.892578 85.335938 L 202.892578 84.412109 L 209.729980 84.412109 L 209.729980 85.335938 Z " fill="rgb(0, 0, 0)" fill-opacity="1.000000" />
<path d="M 209.892578 85.335938 L 209.892578 84.412109 L 216.729980 84.412109 L 216.729980 85.335938 Z " fill="rgb(0, 0, 0)" fill-opacity="1.000000" />
<path d="M 216.892578 85.335938 L 216.892578 84.412109 L 223.729980 84.412109 L 223.729980 85.335938 Z " fill="rgb(0, 0, 0)" fill-opacity="1.000000" />
<path d="M 223.892578 85.335938 L 223.892578 84.412109 L 230.729980 84.412109 L 230.729980 85.335938 Z " fill="rgb(0, 0, 0)" fill-opacity="1.000000" />
<path d="M 230.892578 85.335938 L 230.892578 84.412109 L 237.729980 84.412109 L 237.729980 85.335938 Z " fill="rgb(0, 0, 0)" fill-opacity="1.000000" />
<path d="M 237.892578 85.335938 L 237.892578 84.412109 L 244.729980 84.412109 L 244.729980 85.335938 Z " fill="rgb(0, 0, 0)" fill-opacity="1.000000" />
<path d="M 244.892578 85.335938 L 244.892578 84.412109 L 251.729980 84.412109 L 251.729980 85.335938 Z " fill="rgb(0, 0, 0)" fill-opacity="1.000000" />
<path d="M 251.892578 85.335938 L 251.892578 84.412109 L 258.729980 84.412109 L 258.729980 85.335938 Z " fill="rgb(0, 0, 0)" fill-opacity="1.000000" />
<path d="M 258.892578 85.335938 L 258.892578 84.412109 L 265.729980 84.412109 L 265.729980 85.335938 Z " fill="rgb(0, 0, 0)" fill-opacity="1.000000" />
<path d="M 265.892578 85.335938 L 265.892578 84.412109 L 272.729980 84.412109 L 272.729980 85.335938 Z " fill="rgb(0, 0, 0)" fill-opacity="1.000000" />
<path d="M 272.892578 85.335938 L 272.892578 84.412109 L 279.729980 84.412109 L 279.729980 85.335938 Z " fill="rgb(0, 0, 0)" fill-opacity="1.000000" />
<path d="M 279.892578 85.335938 L 279.892578 84.412109 L 286.729980 84.412109 L 286.729980 85.335938 Z " fill="rgb(0, 0, 0)" fill-opacity="1.000000" />
<path d="M 286.892578 85.335938 L 286.892578 84.412109 L 293.729980 84.412109 L 293.729980 85.335938 Z " fill="rgb(0, 0, 0)" fill-opacity="1.000000" />
<path d="M 293.892578 85.335938 L 293.892578 84.412109 L 300.729980 84.412109 L 300.729980 85.335938 Z " fill="rgb(0, 0, 0)" fill-opacity="1.000000" />
<path d="M 300.892578 85.335938 L 300.892578 84.412109 L 307.729980 84.412109 L 307.729980 85.335938 Z " fill="rgb(0, 0, 0)" fill-opacity="1.000000" />
<path d="M 307.892578 85.335938 L 307.892578 84.412109 L 314.729980 84.412109 L 314.729980 85.335938 Z " fill="rgb(0, 0, 0)" fill-opacity="1.000000" />
<path d="M 314.892578 85.335938 L 314.892578 84.412109 L 321.729980 84.412109 L 321.729980 85.335938 Z " fill="rgb(0, 0, 0)" fill-opacity="1.000000" />
<path d="M 321.892578 85.335938 L 321.892578 84.412109 L 328.729980 84.412109 L 328.729980 85.335938 Z " fill="rgb(0, 0, 0)" fill-opacity="1.000000" />
<path d="M 328.892578 85.335938 L 328.892578 84.412109 L 335.729980 84.412109 L 335.729980 85.335938 Z " fill="rgb(0, 0, 0)" fill-opacity="1.000000" />
<path d="M 335.892578 85.335938 L 335.892578 84.412109 L 342.729980 84.412109 L 342.729980 85.335938 Z " fill="rgb(0, 0, 0)" fill-opacity="1.000000" />
<path d="M 342.892578 85.335938 L 342.892578 84.412109 L 349.729980 84.412109 L 349.729980 85.335938 Z " fill="rgb(0, 0, 0)" fill-opacity="1.000000" />
<path d="M 349.892578 85.335938 L 349.892578 84.412109 L 356.729980 84.412109 L 356.729980 85.335938 Z " fill="rgb(0, 0, 0)" fill-opacity="1.000000" />
<path d="M 356.892578 85.335938 L 356.892578 84.412109 L 363.729980 84.412109 L 363.729980 85.335938 Z " fill="rgb(0, 0, 0)" fill-opacity="1.000000" />
<path d="M 363.892578 85.335938 L 363.892578 84.412109 L 366.878906 84.412109 L 366.878906 77.300781 L 367.738281 77.300781 L 367.738281 85.335938 Z " fill="rgb(0, 0, 0)" fill-opacity="1.000000" />
<path d="M 370.892578 85.335938 L 370.892578 84.412109 L 377.729980 84.412109 L 377.729980 85.335938 Z " fill="rgb(0, 0, 0)" fill-opacity="1.000000" />
<path d="M 384.892578 85.335938 L 384.892578 84.412109 L 391.729980 84.412109 L 391.729980 85.335938 Z " fill="rgb(0, 0, 0)" fill-opacity="1.000000" />
<path d="M 398.892578 85.335938 L 398.892578 84.412109 L 405.729980 84.412109 L 405.729980 85.335938 Z " fill="rgb(0, 0, 0)" fill-opacity="1.000000" />
<path d="M 412.892578 85.335938 L 412.892578 84.412109 L 419.729980 84.412109 L 419.729980 85.335938 Z " fill="rgb(0, 0, 0)" fill-opacity="1.000000" />
<path d="M 426.892578 85.335938 L 426.892578 84.412109 L 433.729980 84.412109 L 433.729980 85.335938 Z " fill="rgb(0, 0, 0)" fill-opacity="1.000000" />
<path d="M 440.892578 85.335938 L 440.892578 84.412109 L 447.729980 84.412109 L 447.729980 85.335938 Z " fill="rgb(0, 0, 0)" fill-opacity="1.000000" />
<path d="M 454.892578 85.335938 L 454.892578 84.412109 L 461.729980 84.412109 L 461.729980 85.335938 Z " fill="rgb(0, 0, 0)" fill-opacity="1.000000" />
<path d="M 468.892578 85.335938 L 468.892578 84.412109 L 475.729980 84.412109 L 475.729980 85.335938 Z " fill="rgb(0, 0, 0)" fill-opacity="1.000000" />
<path d="M 482.892578 85.335938 L 482.892578 84.412109 L 489.729980 84.412109 L 489.729980 85.335938 Z " fill="rgb(0, 0, 0)" fill-opacity="1.000000" />
<path d="M 496.892578 85.335938 L 496.892578 84.412109 L 503.729980 84.412109 L 503.729980 85.335938 Z " fill="rgb(0, 0, 0)" fill-opacity="1.000000" />
<path d="M 510.892578 85.335938 L 510.892578 84.412109 L 517.729980 84.412109 L 517.729980 85.335938 Z " fill="rgb(0, 0, 0)" fill-opacity="1.000000" />
<path d="M 524.892578 85.335938 L 524.892578 84.412109 L 531.729980 84.412109 L 531.729980 85.335938 Z " fill="rgb(0, 0, 0)" fill-opacity="1.000000" />
<path d="M 538.892578 85.335938 L 538.892578 84.412109 L 545.729980 84.412109 L 545.729980 85.335938 Z " fill="rgb(0, 0, 0)" fill-opacity="1.000000" />
<path d="M 18.592285 53.116211 Q 17.877930 54.340820 17.526123 55.557373 Q 17.174316 56.773926 17.174316 58.009277 Q 17.174316 59.239258 17.526123 60.458496 Q 17.877930 61.677734 18.592285 62.913086 L 17.732910 62.913086 Q 16.921875 61.634766 16.524414 60.423584 Q 16.126953 59.212402 16.126953 58.009277 Q 16.126953 56.811523 16.524414 55.597656 Q 16.921875 54.383789 17.732910 53.116211 Z " fill="rgb(0, 0, 0)" fill-opacity="1.000000" />
<path d="M 93.878906 78.319336 L 93.878906 64.300781 L 94.738281 64.300781 L 94.738281 78.319336 Z " fill="rgb(0, 0, 0)" fill-opacity="1.000000" />
<path d="M 184.878906 78.319336 L 184.878906 64.300781 L 185.738281 64.300781 L 185.738281 78.319336 Z " fill="rgb(0, 0, 0)" fill-opacity="1.000000" />
<path d="M 366.878906 78.319336 L 366.878906 64.300781 L 367.738281 64.300781 L 367.738281 78.319336 Z " fill="rgb(0, 0, 0)" fill-opacity="1.000000" />
<path d="M 548.878906 78.319336 L 548.878906 64.300781 L 549.738281 64.300781 L 549.738281 78.319336 Z " fill="rgb(0, 0, 0)" fill-opacity="1.000000" />
<path d="M 24.947754 54.969238 L 22.417969 59.207031 L 24.947754 59.207031 Z M 24.770508 53.980957 L 26.027344 53.980957 L 26.027344 59.207031 L 27.096191 59.207031 L 27.096191 60.087891 L 26.027344 60.087891 L 26.027344 62.000000 L 24.947754 62.000000 L 24.947754 60.087891 L 21.547852 60.087891 L 21.547852 59.062012 Z " fill="rgb(0, 0, 0)" fill-opacity="1.000000" />
<path d="M 39.930664 58.997559 Q 39.930664 57.848145 39.565430 57.262695 Q 39.200195 56.677246 38.485840 56.677246 Q 37.766113 56.677246 37.395508 57.265381 Q 37.024902 57.853516 37.024902 58.997559 Q 37.024902 60.136230 37.395508 60.727051 Q 37.766113 61.317871 38.485840 61.317871 Q 39.200195 61.317871 39.565430 60.732422 Q 39.930664 60.146973 39.930664 58.997559 Z M 37.024902 56.752441 Q 37.261230 56.312012 37.677490 56.075684 Q 38.093750 55.839355 38.641602 55.839355 Q 39.726562 55.839355 40.349609 56.674561 Q 40.972656 57.509766 40.972656 58.976074 Q 40.972656 60.463867 40.346924 61.309814 Q 39.721191 62.155762 38.630859 62.155762 Q 38.093750 62.155762 37.682861 61.922119 Q 37.271973 61.688477 37.024902 61.242676 L 37.024902 62.000000 L 36.036621 62.000000 L 36.036621 53.642578 L 37.024902 53.642578 Z " fill="rgb(0, 0, 0)" fill-opacity="1.000000" />
<path d="M 46.608398 60.066406 Q 46.361328 60.694824 45.979980 61.720703 Q 45.448242 63.138672 45.265625 63.450195 Q 45.018555 63.869141 44.647949 64.078613 Q 44.277344 64.288086 43.783203 64.288086 L 42.988281 64.288086 L 42.988281 63.460938 L 43.573730 63.460938 Q 44.008789 63.460938 44.255859 63.208496 Q 44.502930 62.956055 44.884277 61.903320 L 42.558594 55.984375 L 43.605957 55.984375 L 45.389160 60.689453 L 47.145508 55.984375 L 48.192871 55.984375 Z " fill="rgb(0, 0, 0)" fill-opacity="1.000000" />
<path d="M 52.297852 54.276367 L 52.297852 55.984375 L 54.542969 55.984375 L 54.542969 56.752441 L 52.297852 56.752441 L 52.297852 60.018066 Q 52.297852 60.684082 52.550293 60.947266 Q 52.802734 61.210449 53.431152 61.210449 L 54.542969 61.210449 L 54.542969 62.000000 L 53.334473 62.000000 Q 52.222656 62.000000 51.766113 61.554199 Q 51.309570 61.108398 51.309570 60.018066 L 51.309570 56.752441 L 49.703613 56.752441 L 49.703613 55.984375 L 51.309570 55.984375 L 51.309570 54.276367 Z " fill="rgb(0, 0, 0)" fill-opacity="1.000000" />
<path d="M 62.015625 58.498047 L 62.015625 58.981445 L 57.734863 58.981445 L 57.734863 59.013672 Q 57.691895 60.243652 58.204834 60.780762 Q 58.717773 61.317871 59.652344 61.317871 Q 60.125000 61.317871 60.640625 61.167480 Q 61.156250 61.017090 61.741699 60.710938 L 61.741699 61.693848 Q 61.177734 61.924805 60.654053 62.040283 Q 60.130371 62.155762 59.641602 62.155762 Q 58.239746 62.155762 57.450195 61.315186 Q 56.660645 60.474609 56.660645 58.997559 Q 56.660645 57.558105 57.434082 56.698730 Q 58.207520 55.839355 59.496582 55.839355 Q 60.645996 55.839355 61.309326 56.618164 Q 61.972656 57.396973 62.015625 58.498047 Z M 61.027344 58.208008 Q 60.962891 57.584961 60.573486 57.131104 Q 60.184082 56.677246 59.453613 56.677246 Q 58.739258 56.677246 58.277344 57.149902 Q 57.815430 57.622559 57.772461 58.213379 Z " fill="rgb(0, 0, 0)" fill-opacity="1.000000" />
<path d="M 68.226074 56.193848 L 68.226074 57.160645 Q 67.801758 56.913574 67.372070 56.790039 Q 66.942383 56.666504 66.496582 56.666504 Q 65.825195 56.666504 65.494873 56.884033 Q 65.164551 57.101562 65.164551 57.547363 Q 65.164551 57.950195 65.411621 58.148926 Q 65.658691 58.347656 66.641602 58.535645 L 67.039062 58.610840 Q 67.774902 58.750488 68.153564 59.169434 Q 68.532227 59.588379 68.532227 60.259766 Q 68.532227 61.151367 67.898438 61.653564 Q 67.264648 62.155762 66.136719 62.155762 Q 65.690918 62.155762 65.202148 62.061768 Q 64.713379 61.967773 64.144043 61.779785 L 64.144043 60.759277 Q 64.697266 61.043945 65.202148 61.186279 Q 65.707031 61.328613 66.158203 61.328613 Q 66.813477 61.328613 67.173340 61.062744 Q 67.533203 60.796875 67.533203 60.318848 Q 67.533203 59.631348 66.217285 59.368164 L 66.174316 59.357422 L 65.803711 59.282227 Q 64.949707 59.115723 64.557617 58.720947 Q 64.165527 58.326172 64.165527 57.644043 Q 64.165527 56.779297 64.750977 56.309326 Q 65.336426 55.839355 66.421387 55.839355 Q 66.904785 55.839355 67.350586 55.927979 Q 67.796387 56.016602 68.226074 56.193848 Z " fill="rgb(0, 0, 0)" fill-opacity="1.000000" />
<path d="M 71.869141 53.116211 L 72.728516 53.116211 Q 73.539551 54.383789 73.937012 55.597656 Q 74.334473 56.811523 74.334473 58.009277 Q 74.334473 59.217773 73.937012 60.431641 Q 73.539551 61.645508 72.728516 62.913086 L 71.869141 62.913086 Q 72.583496 61.666992 72.935303 60.447754 Q 73.287109 59.228516 73.287109 58.009277 Q 73.287109 56.784668 72.935303 55.565430 Q 72.583496 54.346191 71.869141 53.116211 Z " fill="rgb(0, 0, 0)" fill-opacity="1.000000" />
<path d="M 93.878906 65.319336 L 93.878906 51.300781 L 94.738281 51.300781 L 94.738281 65.319336 Z " fill="rgb(0, 0, 0)" fill-opacity="1.000000" />
<path d="M 109.592285 53.116211 Q 108.877930 54.340820 108.526123 55.557373 Q 108.174316 56.773926 108.174316 58.009277 Q 108.174316 59.239258 108.526123 60.458496 Q 108.877930 61.677734 109.592285 62.913086 L 108.732910 62.913086 Q 107.921875 61.634766 107.524414 60.423584 Q 107.126953 59.212402 107.126953 58.009277 Q 107.126953 56.811523 107.524414 55.597656 Q 107.921875 54.383789 108.732910 53.116211 Z " fill="rgb(0, 0, 0)" fill-opacity="1.000000" />
<path d="M 115.947754 54.969238 L 113.417969 59.207031 L 115.947754 59.207031 Z M 115.770508 53.980957 L 117.027344 53.980957 L 117.027344 59.207031 L 118.096191 59.207031 L 118.096191 60.087891 L 117.027344 60.087891 L 117.027344 62.000000 L 115.947754 62.000000 L 115.947754 60.087891 L 112.547852 60.087891 L 112.547852 59.062012 Z " fill="rgb(0, 0, 0)" fill-opacity="1.000000" />
<path d="M 130.930664 58.997559 Q 130.930664 57.848145 130.565430 57.262695 Q 130.200195 56.677246 129.485840 56.677246 Q 128.766113 56.677246 128.395508 57.265381 Q 128.024902 57.853516 128.024902 58.997559 Q 128.024902 60.136230 128.395508 60.727051 Q 128.766113 61.317871 129.485840 61.317871 Q 130.200195 61.317871 130.565430 60.732422 Q 130.930664 60.146973 130.930664 58.997559 Z M 128.024902 56.752441 Q 128.261230 56.312012 128.677490 56.075684 Q 129.093750 55.839355 129.641602 55.839355 Q 130.726562 55.839355 131.349609 56.674561 Q 131.972656 57.509766 131.972656 58.976074 Q 131.972656 60.463867 131.346924 61.309814 Q 130.721191 62.155762 129.630859 62.155762 Q 129.093750 62.155762 128.682861 61.922119 Q 128.271973 61.688477 128.024902 61.242676 L 128.024902 62.000000 L 127.036621 62.000000 L 127.036621 53.642578 L 128.024902 53.642578 Z " fill="rgb(0, 0, 0)" fill-opacity="1.000000" />
<path d="M 137.608398 60.066406 Q 137.361328 60.694824 136.979980 61.720703 Q 136.448242 63.138672 136.265625 63.450195 Q 136.018555 63.869141 135.647949 64.078613 Q 135.277344 64.288086 134.783203 64.288086 L 133.988281 64.288086 L 133.988281 63.460938 L 134.573730 63.460938 Q 135.008789 63.460938 135.255859 63.208496 Q 135.502930 62.956055 135.884277 61.903320 L 133.558594 55.984375 L 134.605957 55.984375 L 136.389160 60.689453 L 138.145508 55.984375 L 139.192871 55.984375 Z " fill="rgb(0, 0, 0)" fill-opacity="1.000000" />
<path d="M 143.297852 54.276367 L 143.297852 55.984375 L 145.542969 55.984375 L 145.542969 56.752441 L 143.297852 56.752441 L 143.297852 60.018066 Q 143.297852 60.684082 143.550293 60.947266 Q 143.802734 61.210449 144.431152 61.210449 L 145.542969 61.210449 L 145.542969 62.000000 L 144.334473 62.000000 Q 143.222656 62.000000 142.766113 61.554199 Q 142.309570 61.108398 142.309570 60.018066 L 142.309570 56.752441 L 140.703613 56.752441 L 140.703613 55.984375 L 142.309570 55.984375 L 142.309570 54.276367 Z " fill="rgb(0, 0, 0)" fill-opacity="1.000000" />
<path d="M 153.015625 58.498047 L 153.015625 58.981445 L 148.734863 58.981445 L 148.734863 59.013672 Q 148.691895 60.243652 149.204834 60.780762 Q 149.717773 61.317871 150.652344 61.317871 Q 151.125000 61.317871 151.640625 61.167480 Q 152.156250 61.017090 152.741699 60.710938 L 152.741699 61.693848 Q 152.177734 61.924805 151.654053 62.040283 Q 151.130371 62.155762 150.641602 62.155762 Q 149.239746 62.155762 148.450195 61.315186 Q 147.660645 60.474609 147.660645 58.997559 Q 147.660645 57.558105 148.434082 56.698730 Q 149.207520 55.839355 150.496582 55.839355 Q 151.645996 55.839355 152.309326 56.618164 Q 152.972656 57.396973 153.015625 58.498047 Z M 152.027344 58.208008 Q 151.962891 57.584961 151.573486 57.131104 Q 151.184082 56.677246 150.453613 56.677246 Q 149.739258 56.677246 149.277344 57.149902 Q 148.815430 57.622559 148.772461 58.213379 Z " fill="rgb(0, 0, 0)" fill-opacity="1.000000" />
<path d="M 159.226074 56.193848 L 159.226074 57.160645 Q 158.801758 56.913574 158.372070 56.790039 Q 157.942383 56.666504 157.496582 56.666504 Q 156.825195 56.666504 156.494873 56.884033 Q 156.164551 57.101562 156.164551 57.547363 Q 156.164551 57.950195 156.411621 58.148926 Q 156.658691 58.347656 157.641602 58.535645 L 158.039062 58.610840 Q 158.774902 58.750488 159.153564 59.169434 Q 159.532227 59.588379 159.532227 60.259766 Q 159.532227 61.151367 158.898438 61.653564 Q 158.264648 62.155762 157.136719 62.155762 Q 156.690918 62.155762 156.202148 62.061768 Q 155.713379 61.967773 155.144043 61.779785 L 155.144043 60.759277 Q 155.697266 61.043945 156.202148 61.186279 Q 156.707031 61.328613 157.158203 61.328613 Q 157.813477 61.328613 158.173340 61.062744 Q 158.533203 60.796875 158.533203 60.318848 Q 158.533203 59.631348 157.217285 59.368164 L 157.174316 59.357422 L 156.803711 59.282227 Q 155.949707 59.115723 155.557617 58.720947 Q 155.165527 58.326172 155.165527 57.644043 Q 155.165527 56.779297 155.750977 56.309326 Q 156.336426 55.839355 157.421387 55.839355 Q 157.904785 55.839355 158.350586 55.927979 Q 158.796387 56.016602 159.226074 56.193848 Z " fill="rgb(0, 0, 0)" fill-opacity="1.000000" />
<path d="M 162.869141 53.116211 L 163.728516 53.116211 Q 164.539551 54.383789 164.937012 55.597656 Q 165.334473 56.811523 165.334473 58.009277 Q 165.334473 59.217773 164.937012 60.431641 Q 164.539551 61.645508 163.728516 62.913086 L 162.869141 62.913086 Q 163.583496 61.666992 163.935303 60.447754 Q 164.287109 59.228516 164.287109 58.009277 Q 164.287109 56.784668 163.935303 55.565430 Q 163.583496 54.346191 162.869141 53.116211 Z " fill="rgb(0, 0, 0)" fill-opacity="1.000000" />
<path d="M 184.878906 65.319336 L 184.878906 51.300781 L 185.738281 51.300781 L 185.738281 65.319336 Z " fill="rgb(0, 0, 0)" fill-opacity="1.000000" />
<path d="M 249.592285 53.116211 Q 248.877930 54.340820 248.526123 55.557373 Q 248.174316 56.773926 248.174316 58.009277 Q 248.174316 59.239258 248.526123 60.458496 Q 248.877930 61.677734 249.592285 62.913086 L 248.732910 62.913086 Q 247.921875 61.634766 247.524414 60.423584 Q 247.126953 59.212402 247.126953 58.009277 Q 247.126953 56.811523 247.524414 55.597656 Q 247.921875 54.383789 248.732910 53.116211 Z " fill="rgb(0, 0, 0)" fill-opacity="1.000000" />
<path d="M 255.308594 58.191895 Q 254.583496 58.191895 254.188721 58.597412 Q 253.793945 59.002930 253.793945 59.744141 Q 253.793945 60.485352 254.194092 60.896240 Q 254.594238 61.307129 255.308594 61.307129 Q 256.039062 61.307129 256.433838 60.901611 Q 256.828613 60.496094 256.828613 59.744141 Q 256.828613 59.008301 256.428467 58.600098 Q 256.028320 58.191895 255.308594 58.191895 Z M 254.363281 57.740723 Q 253.670410 57.563477 253.281006 57.080078 Q 252.891602 56.596680 252.891602 55.914551 Q 252.891602 54.958496 253.541504 54.397217 Q 254.191406 53.835938 255.308594 53.835938 Q 256.431152 53.835938 257.081055 54.397217 Q 257.730957 54.958496 257.730957 55.914551 Q 257.730957 56.596680 257.341553 57.080078 Q 256.952148 57.563477 256.259277 57.740723 Q 257.064941 57.917969 257.491943 58.455078 Q 257.918945 58.992188 257.918945 59.846191 Q 257.918945 60.931152 257.226074 61.543457 Q 256.533203 62.155762 255.308594 62.155762 Q 254.083984 62.155762 253.393799 61.546143 Q 252.703613 60.936523 252.703613 59.856934 Q 252.703613 58.997559 253.130615 58.457764 Q 253.557617 57.917969 254.363281 57.740723 Z M 253.971191 56.016602 Q 253.971191 56.661133 254.314941 56.999512 Q 254.658691 57.337891 255.308594 57.337891 Q 255.963867 57.337891 256.307617 56.999512 Q 256.651367 56.661133 256.651367 56.016602 Q 256.651367 55.361328 256.310303 55.017578 Q 255.969238 54.673828 255.308594 54.673828 Q 254.658691 54.673828 254.314941 55.020264 Q 253.971191 55.366699 253.971191 56.016602 Z " fill="rgb(0, 0, 0)" fill-opacity="1.000000" />
<path d="M 270.930664 58.997559 Q 270.930664 57.848145 270.565430 57.262695 Q 270.200195 56.677246 269.485840 56.677246 Q 268.766113 56.677246 268.395508 57.265381 Q 268.024902 57.853516 268.024902 58.997559 Q 268.024902 60.136230 268.395508 60.727051 Q 268.766113 61.317871 269.485840 61.317871 Q 270.200195 61.317871 270.565430 60.732422 Q 270.930664 60.146973 270.930664 58.997559 Z M 268.024902 56.752441 Q 268.261230 56.312012 268.677490 56.075684 Q 269.093750 55.839355 269.641602 55.839355 Q 270.726562 55.839355 271.349609 56.674561 Q 271.972656 57.509766 271.972656 58.976074 Q 271.972656 60.463867 271.346924 61.309814 Q 270.721191 62.155762 269.630859 62.155762 Q 269.093750 62.155762 268.682861 61.922119 Q 268.271973 61.688477 268.024902 61.242676 L 268.024902 62.000000 L 267.036621 62.000000 L 267.036621 53.642578 L 268.024902 53.642578 Z " fill="rgb(0, 0, 0)" fill-opacity="1.000000" />
<path d="M 277.608398 60.066406 Q 277.361328 60.694824 276.979980 61.720703 Q 276.448242 63.138672 276.265625 63.450195 Q 276.018555 63.869141 275.647949 64.078613 Q 275.277344 64.288086 274.783203 64.288086 L 273.988281 64.288086 L 273.988281 63.460938 L 274.573730 63.460938 Q 275.008789 63.460938 275.255859 63.208496 Q 275.502930 62.956055 275.884277 61.903320 L 273.558594 55.984375 L 274.605957 55.984375 L 276.389160 60.689453 L 278.145508 55.984375 L 279.192871 55.984375 Z " fill="rgb(0, 0, 0)" fill-opacity="1.000000" />
<path d="M 283.297852 54.276367 L 283.297852 55.984375 L 285.542969 55.984375 L 285.542969 56.752441 L 283.297852 56.752441 L 283.297852 60.018066 Q 283.297852 60.684082 283.550293 60.947266 Q 283.802734 61.210449 284.431152 61.210449 L 285.542969 61.210449 L 285.542969 62.000000 L 284.334473 62.000000 Q 283.222656 62.000000 282.766113 61.554199 Q 282.309570 61.108398 282.309570 60.018066 L 282.309570 56.752441 L 280.703613 56.752441 L 280.703613 55.984375 L 282.309570 55.984375 L 282.309570 54.276367 Z " fill="rgb(0, 0, 0)" fill-opacity="1.000000" />
<path d="M 293.015625 58.498047 L 293.015625 58.981445 L 288.734863 58.981445 L 288.734863 59.013672 Q 288.691895 60.243652 289.204834 60.780762 Q 289.717773 61.317871 290.652344 61.317871 Q 291.125000 61.317871 291.640625 61.167480 Q 292.156250 61.017090 292.741699 60.710938 L 292.741699 61.693848 Q 292.177734 61.924805 291.654053 62.040283 Q 291.130371 62.155762 290.641602 62.155762 Q 289.239746 62.155762 288.450195 61.315186 Q 287.660645 60.474609 287.660645 58.997559 Q 287.660645 57.558105 288.434082 56.698730 Q 289.207520 55.839355 290.496582 55.839355 Q 291.645996 55.839355 292.309326 56.618164 Q 292.972656 57.396973 293.015625 58.498047 Z M 292.027344 58.208008 Q 291.962891 57.584961 291.573486 57.131104 Q 291.184082 56.677246 290.453613 56.677246 Q 289.739258 56.677246 289.277344 57.149902 Q 288.815430 57.622559 288.772461 58.213379 Z " fill="rgb(0, 0, 0)" fill-opacity="1.000000" />
<path d="M 299.226074 56.193848 L 299.226074 57.160645 Q 298.801758 56.913574 298.372070 56.790039 Q 297.942383 56.666504 297.496582 56.666504 Q 296.825195 56.666504 296.494873 56.884033 Q 296.164551 57.101562 296.164551 57.547363 Q 296.164551 57.950195 296.411621 58.148926 Q 296.658691 58.347656 297.641602 58.535645 L 298.039062 58.610840 Q 298.774902 58.750488 299.153564 59.169434 Q 299.532227 59.588379 299.532227 60.259766 Q 299.532227 61.151367 298.898438 61.653564 Q 298.264648 62.155762 297.136719 62.155762 Q 296.690918 62.155762 296.202148 62.061768 Q 295.713379 61.967773 295.144043 61.779785 L 295.144043 60.759277 Q 295.697266 61.043945 296.202148 61.186279 Q 296.707031 61.328613 297.158203 61.328613 Q 297.813477 61.328613 298.173340 61.062744 Q 298.533203 60.796875 298.533203 60.318848 Q 298.533203 59.631348 297.217285 59.368164 L 297.174316 59.357422 L 296.803711 59.282227 Q 295.949707 59.115723 295.557617 58.720947 Q 295.165527 58.326172 295.165527 57.644043 Q 295.165527 56.779297 295.750977 56.309326 Q 296.336426 55.839355 297.421387 55.839355 Q 297.904785 55.839355 298.350586 55.927979 Q 298.796387 56.016602 299.226074 56.193848 Z " fill="rgb(0, 0, 0)" fill-opacity="1.000000" />
<path d="M 302.869141 53.116211 L 303.728516 53.116211 Q 304.539551 54.383789 304.937012 55.597656 Q 305.334473 56.811523 305.334473 58.009277 Q 305.334473 59.217773 304.937012 60.431641 Q 304.539551 61.645508 303.728516 62.913086 L 302.869141 62.913086 Q 303.583496 61.666992 303.935303 60.447754 Q 304.287109 59.228516 304.287109 58.009277 Q 304.287109 56.784668 303.935303 55.565430 Q 303.583496 54.346191 302.869141 53.116211 Z " fill="rgb(0, 0, 0)" fill-opacity="1.000000" />
<path d="M 366.878906 65.319336 L 366.878906 51.300781 L 367.738281 51.300781 L 367.738281 65.319336 Z " fill="rgb(0, 0, 0)" fill-opacity="1.000000" />
<path d="M 36.697266 43.005859 L 39.227051 43.005859 L 39.227051 48.231934 L 41.187500 48.231934 L 41.187500 49.000000 L 36.278320 49.000000 L 36.278320 48.231934 L 38.238770 48.231934 L 38.238770 43.773926 L 36.697266 43.773926 Z M 38.238770 40.669434 L 39.227051 40.669434 L 39.227051 41.915527 L 38.238770 41.915527 Z " fill="rgb(0, 0, 0)" fill-opacity="1.000000" />
<path d="M 47.645020 45.272461 L 47.645020 49.000000 L 46.651367 49.000000 L 46.651367 45.272461 Q 46.651367 44.461426 46.366699 44.080078 Q 46.082031 43.698730 45.475098 43.698730 Q 44.782227 43.698730 44.408936 44.190186 Q 44.035645 44.681641 44.035645 45.600098 L 44.035645 49.000000 L 43.047363 49.000000 L 43.047363 42.984375 L 44.035645 42.984375 L 44.035645 43.886719 Q 44.298828 43.371094 44.750000 43.105225 Q 45.201172 42.839355 45.818848 42.839355 Q 46.737305 42.839355 47.191162 43.443604 Q 47.645020 44.047852 47.645020 45.272461 Z " fill="rgb(0, 0, 0)" fill-opacity="1.000000" />
<path d="M 52.297852 41.276367 L 52.297852 42.984375 L 54.542969 42.984375 L 54.542969 43.752441 L 52.297852 43.752441 L 52.297852 47.018066 Q 52.297852 47.684082 52.550293 47.947266 Q 52.802734 48.210449 53.431152 48.210449 L 54.542969 48.210449 L 54.542969 49.000000 L 53.334473 49.000000 Q 52.222656 49.000000 51.766113 48.554199 Q 51.309570 48.108398 51.309570 47.018066 L 51.309570 43.752441 L 49.703613 43.752441 L 49.703613 42.984375 L 51.309570 42.984375 L 51.309570 41.276367 Z " fill="rgb(0, 0, 0)" fill-opacity="1.000000" />
<path d="M 59.947754 41.969238 L 57.417969 46.207031 L 59.947754 46.207031 Z M 59.770508 40.980957 L 61.027344 40.980957 L 61.027344 46.207031 L 62.096191 46.207031 L 62.096191 47.087891 L 61.027344 47.087891 L 61.027344 49.000000 L 59.947754 49.000000 L 59.947754 47.087891 L 56.547852 47.087891 L 56.547852 46.062012 Z " fill="rgb(0, 0, 0)" fill-opacity="1.000000" />
<path d="M 93.878906 52.319336 L 93.878906 38.300781 L 94.738281 38.300781 L 94.738281 52.319336 Z " fill="rgb(0, 0, 0)" fill-opacity="1.000000" />
<path d="M 127.697266 43.005859 L 130.227051 43.005859 L 130.227051 48.231934 L 132.187500 48.231934 L 132.187500 49.000000 L 127.278320 49.000000 L 127.278320 48.231934 L 129.238770 48.231934 L 129.238770 43.773926 L 127.697266 43.773926 Z M 129.238770 40.669434 L 130.227051 40.669434 L 130.227051 41.915527 L 129.238770 41.915527 Z " fill="rgb(0, 0, 0)" fill-opacity="1.000000" />
<path d="M 138.645020 45.272461 L 138.645020 49.000000 L 137.651367 49.000000 L 137.651367 45.272461 Q 137.651367 44.461426 137.366699 44.080078 Q 137.082031 43.698730 136.475098 43.698730 Q 135.782227 43.698730 135.408936 44.190186 Q 135.035645 44.681641 135.035645 45.600098 L 135.035645 49.000000 L 134.047363 49.000000 L 134.047363 42.984375 L 135.035645 42.984375 L 135.035645 43.886719 Q 135.298828 43.371094 135.750000 43.105225 Q 136.201172 42.839355 136.818848 42.839355 Q 137.737305 42.839355 138.191162 43.443604 Q 138.645020 44.047852 138.645020 45.272461 Z " fill="rgb(0, 0, 0)" fill-opacity="1.000000" />
<path d="M 143.297852 41.276367 L 143.297852 42.984375 L 145.542969 42.984375 L 145.542969 43.752441 L 143.297852 43.752441 L 143.297852 47.018066 Q 143.297852 47.684082 143.550293 47.947266 Q 143.802734 48.210449 144.431152 48.210449 L 145.542969 48.210449 L 145.542969 49.000000 L 144.334473 49.000000 Q 143.222656 49.000000 142.766113 48.554199 Q 142.309570 48.108398 142.309570 47.018066 L 142.309570 43.752441 L 140.703613 43.752441 L 140.703613 42.984375 L 142.309570 42.984375 L 142.309570 41.276367 Z " fill="rgb(0, 0, 0)" fill-opacity="1.000000" />
<path d="M 150.947754 41.969238 L 148.417969 46.207031 L 150.947754 46.207031 Z M 150.770508 40.980957 L 152.027344 40.980957 L 152.027344 46.207031 L 153.096191 46.207031 L 153.096191 47.087891 L 152.027344 47.087891 L 152.027344 49.000000 L 150.947754 49.000000 L 150.947754 47.087891 L 147.547852 47.087891 L 147.547852 46.062012 Z " fill="rgb(0, 0, 0)" fill-opacity="1.000000" />
<path d="M 184.878906 52.319336 L 184.878906 38.300781 L 185.738281 38.300781 L 185.738281 52.319336 Z " fill="rgb(0, 0, 0)" fill-opacity="1.000000" />
<path d="M 260.697266 43.005859 L 263.227051 43.005859 L 263.227051 48.231934 L 265.187500 48.231934 L 265.187500 49.000000 L 260.278320 49.000000 L 260.278320 48.231934 L 262.238770 48.231934 L 262.238770 43.773926 L 260.697266 43.773926 Z M 262.238770 40.669434 L 263.227051 40.669434 L 263.227051 41.915527 L 262.238770 41.915527 Z " fill="rgb(0, 0, 0)" fill-opacity="1.000000" />
<path d="M 271.645020 45.272461 L 271.645020 49.000000 L 270.651367 49.000000 L 270.651367 45.272461 Q 270.651367 44.461426 270.366699 44.080078 Q 270.082031 43.698730 269.475098 43.698730 Q 268.782227 43.698730 268.408936 44.190186 Q 268.035645 44.681641 268.035645 45.600098 L 268.035645 49.000000 L 267.047363 49.000000 L 267.047363 42.984375 L 268.035645 42.984375 L 268.035645 43.886719 Q 268.298828 43.371094 268.750000 43.105225 Q 269.201172 42.839355 269.818848 42.839355 Q 270.737305 42.839355 271.191162 43.443604 Q 271.645020 44.047852 271.645020 45.272461 Z " fill="rgb(0, 0, 0)" fill-opacity="1.000000" />
<path d="M 276.297852 41.276367 L 276.297852 42.984375 L 278.542969 42.984375 L 278.542969 43.752441 L 276.297852 43.752441 L 276.297852 47.018066 Q 276.297852 47.684082 276.550293 47.947266 Q 276.802734 48.210449 277.431152 48.210449 L 278.542969 48.210449 L 278.542969 49.000000 L 277.334473 49.000000 Q 276.222656 49.000000 275.766113 48.554199 Q 275.309570 48.108398 275.309570 47.018066 L 275.309570 43.752441 L 273.703613 43.752441 L 273.703613 42.984375 L 275.309570 42.984375 L 275.309570 41.276367 Z " fill="rgb(0, 0, 0)" fill-opacity="1.000000" />
<path d="M 283.308594 45.191895 Q 282.583496 45.191895 282.188721 45.597412 Q 281.793945 46.002930 281.793945 46.744141 Q 281.793945 47.485352 282.194092 47.896240 Q 282.594238 48.307129 283.308594 48.307129 Q 284.039062 48.307129 284.433838 47.901611 Q 284.828613 47.496094 284.828613 46.744141 Q 284.828613 46.008301 284.428467 45.600098 Q 284.028320 45.191895 283.308594 45.191895 Z M 282.363281 44.740723 Q 281.670410 44.563477 281.281006 44.080078 Q 280.891602 43.596680 280.891602 42.914551 Q 280.891602 41.958496 281.541504 41.397217 Q 282.191406 40.835938 283.308594 40.835938 Q 284.431152 40.835938 285.081055 41.397217 Q 285.730957 41.958496 285.730957 42.914551 Q 285.730957 43.596680 285.341553 44.080078 Q 284.952148 44.563477 284.259277 44.740723 Q 285.064941 44.917969 285.491943 45.455078 Q 285.918945 45.992188 285.918945 46.846191 Q 285.918945 47.931152 285.226074 48.543457 Q 284.533203 49.155762 283.308594 49.155762 Q 282.083984 49.155762 281.393799 48.546143 Q 280.703613 47.936523 280.703613 46.856934 Q 280.703613 45.997559 281.130615 45.457764 Q 281.557617 44.917969 282.363281 44.740723 Z M 281.971191 43.016602 Q 281.971191 43.661133 282.314941 43.999512 Q 282.658691 44.337891 283.308594 44.337891 Q 283.963867 44.337891 284.307617 43.999512 Q 284.651367 43.661133 284.651367 43.016602 Q 284.651367 42.361328 284.310303 42.017578 Q 283.969238 41.673828 283.308594 41.673828 Q 282.658691 41.673828 282.314941 42.020264 Q 281.971191 42.366699 281.971191 43.016602 Z " fill="rgb(0, 0, 0)" fill-opacity="1.000000" />
<path d="M 366.878906 52.319336 L 366.878906 38.300781 L 367.738281 38.300781 L 367.738281 52.319336 Z " fill="rgb(0, 0, 0)" fill-opacity="1.000000" />
<path d="M 409.308594 45.191895 Q 408.583496 45.191895 408.188721 45.597412 Q 407.793945 46.002930 407.793945 46.744141 Q 407.793945 47.485352 408.194092 47.896240 Q 408.594238 48.307129 409.308594 48.307129 Q 410.039062 48.307129 410.433838 47.901611 Q 410.828613 47.496094 410.828613 46.744141 Q 410.828613 46.008301 410.428467 45.600098 Q 410.028320 45.191895 409.308594 45.191895 Z M 408.363281 44.740723 Q 407.670410 44.563477 407.281006 44.080078 Q 406.891602 43.596680 406.891602 42.914551 Q 406.891602 41.958496 407.541504 41.397217 Q 408.191406 40.835938 409.308594 40.835938 Q 410.431152 40.835938 411.081055 41.397217 Q 411.730957 41.958496 411.730957 42.914551 Q 411.730957 43.596680 411.341553 44.080078 Q 410.952148 44.563477 410.259277 44.740723 Q 411.064941 44.917969 411.491943 45.455078 Q 411.918945 45.992188 411.918945 46.846191 Q 411.918945 47.931152 411.226074 48.543457 Q 410.533203 49.155762 409.308594 49.155762 Q 408.083984 49.155762 407.393799 48.546143 Q 406.703613 47.936523 406.703613 46.856934 Q 406.703613 45.997559 407.130615 45.457764 Q 407.557617 44.917969 408.363281 44.740723 Z M 407.971191 43.016602 Q 407.971191 43.661133 408.314941 43.999512 Q 408.658691 44.337891 409.308594 44.337891 Q 409.963867 44.337891 410.307617 43.999512 Q 410.651367 43.661133 410.651367 43.016602 Q 410.651367 42.361328 410.310303 42.017578 Q 409.969238 41.673828 409.308594 41.673828 Q 408.658691 41.673828 408.314941 42.020264 Q 407.971191 42.366699 407.971191 43.016602 Z " fill="rgb(0, 0, 0)" fill-opacity="1.000000" />
<path d="M 424.930664 45.997559 Q 424.930664 44.848145 424.565430 44.262695 Q 424.200195 43.677246 423.485840 43.677246 Q 422.766113 43.677246 422.395508 44.265381 Q 422.024902 44.853516 422.024902 45.997559 Q 422.024902 47.136230 422.395508 47.727051 Q 422.766113 48.317871 423.485840 48.317871 Q 424.200195 48.317871 424.565430 47.732422 Q 424.930664 47.146973 424.930664 45.997559 Z M 422.024902 43.752441 Q 422.261230 43.312012 422.677490 43.075684 Q 423.093750 42.839355 423.641602 42.839355 Q 424.726562 42.839355 425.349609 43.674561 Q 425.972656 44.509766 425.972656 45.976074 Q 425.972656 47.463867 425.346924 48.309814 Q 424.721191 49.155762 423.630859 49.155762 Q 423.093750 49.155762 422.682861 48.922119 Q 422.271973 48.688477 422.024902 48.242676 L 422.024902 49.000000 L 421.036621 49.000000 L 421.036621 40.642578 L 422.024902 40.642578 Z " fill="rgb(0, 0, 0)" fill-opacity="1.000000" />
<path d="M 431.608398 47.066406 Q 431.361328 47.694824 430.979980 48.720703 Q 430.448242 50.138672 430.265625 50.450195 Q 430.018555 50.869141 429.647949 51.078613 Q 429.277344 51.288086 428.783203 51.288086 L 427.988281 51.288086 L 427.988281 50.460938 L 428.573730 50.460938 Q 429.008789 50.460938 429.255859 50.208496 Q 429.502930 49.956055 429.884277 48.903320 L 427.558594 42.984375 L 428.605957 42.984375 L 430.389160 47.689453 L 432.145508 42.984375 L 433.192871 42.984375 Z " fill="rgb(0, 0, 0)" fill-opacity="1.000000" />
<path d="M 437.297852 41.276367 L 437.297852 42.984375 L 439.542969 42.984375 L 439.542969 43.752441 L 437.297852 43.752441 L 437.297852 47.018066 Q 437.297852 47.684082 437.550293 47.947266 Q 437.802734 48.210449 438.431152 48.210449 L 439.542969 48.210449 L 439.542969 49.000000 L 438.334473 49.000000 Q 437.222656 49.000000 436.766113 48.554199 Q 436.309570 48.108398 436.309570 47.018066 L 436.309570 43.752441 L 434.703613 43.752441 L 434.703613 42.984375 L 436.309570 42.984375 L 436.309570 41.276367 Z " fill="rgb(0, 0, 0)" fill-opacity="1.000000" />
<path d="M 447.015625 45.498047 L 447.015625 45.981445 L 442.734863 45.981445 L 442.734863 46.013672 Q 442.691895 47.243652 443.204834 47.780762 Q 443.717773 48.317871 444.652344 48.317871 Q 445.125000 48.317871 445.640625 48.167480 Q 446.156250 48.017090 446.741699 47.710938 L 446.741699 48.693848 Q 446.177734 48.924805 445.654053 49.040283 Q 445.130371 49.155762 444.641602 49.155762 Q 443.239746 49.155762 442.450195 48.315186 Q 441.660645 47.474609 441.660645 45.997559 Q 441.660645 44.558105 442.434082 43.698730 Q 443.207520 42.839355 444.496582 42.839355 Q 445.645996 42.839355 446.309326 43.618164 Q 446.972656 44.396973 447.015625 45.498047 Z M 446.027344 45.208008 Q 445.962891 44.584961 445.573486 44.131104 Q 445.184082 43.677246 444.453613 43.677246 Q 443.739258 43.677246 443.277344 44.149902 Q 442.815430 44.622559 442.772461 45.213379 Z " fill="rgb(0, 0, 0)" fill-opacity="1.000000" />
<path d="M 453.226074 43.193848 L 453.226074 44.160645 Q 452.801758 43.913574 452.372070 43.790039 Q 451.942383 43.666504 451.496582 43.666504 Q 450.825195 43.666504 450.494873 43.884033 Q 450.164551 44.101562 450.164551 44.547363 Q 450.164551 44.950195 450.411621 45.148926 Q 450.658691 45.347656 451.641602 45.535645 L 452.039062 45.610840 Q 452.774902 45.750488 453.153564 46.169434 Q 453.532227 46.588379 453.532227 47.259766 Q 453.532227 48.151367 452.898438 48.653564 Q 452.264648 49.155762 451.136719 49.155762 Q 450.690918 49.155762 450.202148 49.061768 Q 449.713379 48.967773 449.144043 48.779785 L 449.144043 47.759277 Q 449.697266 48.043945 450.202148 48.186279 Q 450.707031 48.328613 451.158203 48.328613 Q 451.813477 48.328613 452.173340 48.062744 Q 452.533203 47.796875 452.533203 47.318848 Q 452.533203 46.631348 451.217285 46.368164 L 451.174316 46.357422 L 450.803711 46.282227 Q 449.949707 46.115723 449.557617 45.720947 Q 449.165527 45.326172 449.165527 44.644043 Q 449.165527 43.779297 449.750977 43.309326 Q 450.336426 42.839355 451.421387 42.839355 Q 451.904785 42.839355 452.350586 42.927979 Q 452.796387 43.016602 453.226074 43.193848 Z " fill="rgb(0, 0, 0)" fill-opacity="1.000000" />
<path d="M 467.226074 43.193848 L 467.226074 44.160645 Q 466.801758 43.913574 466.372070 43.790039 Q 465.942383 43.666504 465.496582 43.666504 Q 464.825195 43.666504 464.494873 43.884033 Q 464.164551 44.101562 464.164551 44.547363 Q 464.164551 44.950195 464.411621 45.148926 Q 464.658691 45.347656 465.641602 45.535645 L 466.039062 45.610840 Q 466.774902 45.750488 467.153564 46.169434 Q 467.532227 46.588379 467.532227 47.259766 Q 467.532227 48.151367 466.898438 48.653564 Q 466.264648 49.155762 465.136719 49.155762 Q 464.690918 49.155762 464.202148 49.061768 Q 463.713379 48.967773 463.144043 48.779785 L 463.144043 47.759277 Q 463.697266 48.043945 464.202148 48.186279 Q 464.707031 48.328613 465.158203 48.328613 Q 465.813477 48.328613 466.173340 48.062744 Q 466.533203 47.796875 466.533203 47.318848 Q 466.533203 46.631348 465.217285 46.368164 L 465.174316 46.357422 L 464.803711 46.282227 Q 463.949707 46.115723 463.557617 45.720947 Q 463.165527 45.326172 463.165527 44.644043 Q 463.165527 43.779297 463.750977 43.309326 Q 464.336426 42.839355 465.421387 42.839355 Q 465.904785 42.839355 466.350586 42.927979 Q 466.796387 43.016602 467.226074 43.193848 Z " fill="rgb(0, 0, 0)" fill-opacity="1.000000" />
<path d="M 472.770508 45.976074 L 472.442871 45.976074 Q 471.578125 45.976074 471.140381 46.279541 Q 470.702637 46.583008 470.702637 47.184570 Q 470.702637 47.727051 471.030273 48.027832 Q 471.357910 48.328613 471.937988 48.328613 Q 472.754395 48.328613 473.221680 47.761963 Q 473.688965 47.195312 473.694336 46.196289 L 473.694336 45.976074 Z M 474.687988 45.567871 L 474.687988 49.000000 L 473.694336 49.000000 L 473.694336 48.108398 Q 473.377441 48.645508 472.896729 48.900635 Q 472.416016 49.155762 471.728516 49.155762 Q 470.810059 49.155762 470.262207 48.637451 Q 469.714355 48.119141 469.714355 47.249023 Q 469.714355 46.244629 470.388428 45.723633 Q 471.062500 45.202637 472.367676 45.202637 L 473.694336 45.202637 L 473.694336 45.046875 Q 473.688965 44.327148 473.329102 44.002197 Q 472.969238 43.677246 472.179688 43.677246 Q 471.674805 43.677246 471.159180 43.822266 Q 470.643555 43.967285 470.154785 44.246582 L 470.154785 43.258301 Q 470.702637 43.048828 471.204834 42.944092 Q 471.707031 42.839355 472.179688 42.839355 Q 472.926270 42.839355 473.455322 43.059570 Q 473.984375 43.279785 474.312012 43.720215 Q 474.516113 43.988770 474.602051 44.383545 Q 474.687988 44.778320 474.687988 45.567871 Z " fill="rgb(0, 0, 0)" fill-opacity="1.000000" />
<path d="M 476.537109 42.984375 L 477.562988 42.984375 L 479.308594 48.033203 L 481.059570 42.984375 L 482.085449 42.984375 L 479.947754 49.000000 L 478.674805 49.000000 Z " fill="rgb(0, 0, 0)" fill-opacity="1.000000" />
<path d="M 489.015625 45.498047 L 489.015625 45.981445 L 484.734863 45.981445 L 484.734863 46.013672 Q 484.691895 47.243652 485.204834 47.780762 Q 485.717773 48.317871 486.652344 48.317871 Q 487.125000 48.317871 487.640625 48.167480 Q 488.156250 48.017090 488.741699 47.710938 L 488.741699 48.693848 Q 488.177734 48.924805 487.654053 49.040283 Q 487.130371 49.155762 486.641602 49.155762 Q 485.239746 49.155762 484.450195 48.315186 Q 483.660645 47.474609 483.660645 45.997559 Q 483.660645 44.558105 484.434082 43.698730 Q 485.207520 42.839355 486.496582 42.839355 Q 487.645996 42.839355 488.309326 43.618164 Q 488.972656 44.396973 489.015625 45.498047 Z M 488.027344 45.208008 Q 487.962891 44.584961 487.573486 44.131104 Q 487.184082 43.677246 486.453613 43.677246 Q 485.739258 43.677246 485.277344 44.149902 Q 484.815430 44.622559 484.772461 45.213379 Z " fill="rgb(0, 0, 0)" fill-opacity="1.000000" />
<path d="M 494.608398 43.752441 L 494.608398 40.642578 L 495.596680 40.642578 L 495.596680 49.000000 L 494.608398 49.000000 L 494.608398 48.242676 Q 494.361328 48.688477 493.950439 48.922119 Q 493.539551 49.155762 493.002441 49.155762 Q 491.912109 49.155762 491.286377 48.309814 Q 490.660645 47.463867 490.660645 45.976074 Q 490.660645 44.509766 491.289062 43.674561 Q 491.917480 42.839355 493.002441 42.839355 Q 493.544922 42.839355 493.958496 43.072998 Q 494.372070 43.306641 494.608398 43.752441 Z M 491.702637 45.997559 Q 491.702637 47.146973 492.067871 47.732422 Q 492.433105 48.317871 493.147461 48.317871 Q 493.861816 48.317871 494.235107 47.727051 Q 494.608398 47.136230 494.608398 45.997559 Q 494.608398 44.853516 494.235107 44.265381 Q 493.861816 43.677246 493.147461 43.677246 Q 492.433105 43.677246 492.067871 44.262695 Q 491.702637 44.848145 491.702637 45.997559 Z " fill="rgb(0, 0, 0)" fill-opacity="1.000000" />
<path d="M 499.932617 40.980957 L 501.022949 40.980957 L 501.022949 44.499023 L 500.910156 46.147949 L 500.045410 46.147949 L 499.932617 44.499023 Z M 499.771484 47.635742 L 501.184082 47.635742 L 501.184082 49.000000 L 499.771484 49.000000 Z " fill="rgb(0, 0, 0)" fill-opacity="1.000000" />
<path d="M 506.932617 40.980957 L 508.022949 40.980957 L 508.022949 44.499023 L 507.910156 46.147949 L 507.045410 46.147949 L 506.932617 44.499023 Z M 506.771484 47.635742 L 508.184082 47.635742 L 508.184082 49.000000 L 506.771484 49.000000 Z " fill="rgb(0, 0, 0)" fill-opacity="1.000000" />
<path d="M 548.878906 52.319336 L 548.878906 38.300781 L 549.738281 38.300781 L 549.738281 52.319336 Z " fill="rgb(0, 0, 0)" fill-opacity="1.000000" />
<path d="M 93.878906 39.319336 L 93.878906 25.300781 L 94.738281 25.300781 L 94.738281 39.319336 Z " fill="rgb(0, 0, 0)" fill-opacity="1.000000" />
<path d="M 184.878906 39.319336 L 184.878906 25.300781 L 185.738281 25.300781 L 185.738281 39.319336 Z " fill="rgb(0, 0, 0)" fill-opacity="1.000000" />
<path d="M 366.878906 39.319336 L 366.878906 25.300781 L 367.738281 25.300781 L 367.738281 39.319336 Z " fill="rgb(0, 0, 0)" fill-opacity="1.000000" />
<path d="M 6.892578 20.335938 L 6.892578 19.412109 L 13.729980 19.412109 L 13.729980 20.335938 Z " fill="rgb(0, 0, 0)" fill-opacity="1.000000" />
<path d="M 13.892578 20.335938 L 13.892578 19.412109 L 20.729980 19.412109 L 20.729980 20.335938 Z " fill="rgb(0, 0, 0)" fill-opacity="1.000000" />
<path d="M 20.892578 20.335938 L 20.892578 19.412109 L 27.729980 19.412109 L 27.729980 20.335938 Z " fill="rgb(0, 0, 0)" fill-opacity="1.000000" />
<path d="M 27.892578 20.335938 L 27.892578 19.412109 L 34.729980 19.412109 L 34.729980 20.335938 Z " fill="rgb(0, 0, 0)" fill-opacity="1.000000" />
<path d="M 34.892578 20.335938 L 34.892578 19.412109 L 41.729980 19.412109 L 41.729980 20.335938 Z " fill="rgb(0, 0, 0)" fill-opacity="1.000000" />
<path d="M 41.892578 20.335938 L 41.892578 19.412109 L 48.729980 19.412109 L 48.729980 20.335938 Z " fill="rgb(0, 0, 0)" fill-opacity="1.000000" />
<path d="M 48.892578 20.335938 L 48.892578 19.412109 L 55.729980 19.412109 L 55.729980 20.335938 Z " fill="rgb(0, 0, 0)" fill-opacity="1.000000" />
<path d="M 55.892578 20.335938 L 55.892578 19.412109 L 62.729980 19.412109 L 62.729980 20.335938 Z " fill="rgb(0, 0, 0)" fill-opacity="1.000000" />
<path d="M 62.892578 20.335938 L 62.892578 19.412109 L 69.729980 19.412109 L 69.729980 20.335938 Z " fill="rgb(0, 0, 0)" fill-opacity="1.000000" />
<path d="M 69.892578 20.335938 L 69.892578 19.412109 L 76.729980 19.412109 L 76.729980 20.335938 Z " fill="rgb(0, 0, 0)" fill-opacity="1.000000" />
<path d="M 76.892578 20.335938 L 76.892578 19.412109 L 83.729980 19.412109 L 83.729980 20.335938 Z " fill="rgb(0, 0, 0)" fill-opacity="1.000000" />
<path d="M 83.892578 20.335938 L 83.892578 19.412109 L 90.729980 19.412109 L 90.729980 20.335938 Z " fill="rgb(0, 0, 0)" fill-opacity="1.000000" />
<path d="M 93.878906 26.319336 L 93.878906 20.335938 L 90.892578 20.335938 L 90.892578 19.412109 L 97.729980 19.412109 L 97.729980 20.335938 L 94.738281 20.335938 L 94.738281 26.319336 Z " fill="rgb(0, 0, 0)" fill-opacity="1.000000" />
<path d="M 97.892578 20.335938 L 97.892578 19.412109 L 104.729980 19.412109 L 104.729980 20.335938 Z " fill="rgb(0, 0, 0)" fill-opacity="1.000000" />
<path d="M 104.892578 20.335938 L 104.892578 19.412109 L 111.729980 19.412109 L 111.729980 20.335938 Z " fill="rgb(0, 0, 0)" fill-opacity="1.000000" />
<path d="M 111.892578 20.335938 L 111.892578 19.412109 L 118.729980 19.412109 L 118.729980 20.335938 Z " fill="rgb(0, 0, 0)" fill-opacity="1.000000" />
<path d="M 118.892578 20.335938 L 118.892578 19.412109 L 125.729980 19.412109 L 125.729980 20.335938 Z " fill="rgb(0, 0, 0)" fill-opacity="1.000000" />
<path d="M 125.892578 20.335938 L 125.892578 19.412109 L 132.729980 19.412109 L 132.729980 20.335938 Z " fill="rgb(0, 0, 0)" fill-opacity="1.000000" />
<path d="M 132.892578 20.335938 L 132.892578 19.412109 L 139.729980 19.412109 L 139.729980 20.335938 Z " fill="rgb(0, 0, 0)" fill-opacity="1.000000" />
<path d="M 139.892578 20.335938 L 139.892578 19.412109 L 146.729980 19.412109 L 146.729980 20.335938 Z " fill="rgb(0, 0, 0)" fill-opacity="1.000000" />
<path d="M 146.892578 20.335938 L 146.892578 19.412109 L 153.729980 19.412109 L 153.729980 20.335938 Z " fill="rgb(0, 0, 0)" fill-opacity="1.000000" />
<path d="M 153.892578 20.335938 L 153.892578 19.412109 L 160.729980 19.412109 L 160.729980 20.335938 Z " fill="rgb(0, 0, 0)" fill-opacity="1.000000" />
<path d="M 160.892578 20.335938 L 160.892578 19.412109 L 167.729980 19.412109 L 167.729980 20.335938 Z " fill="rgb(0, 0, 0)" fill-opacity="1.000000" />
<path d="M 167.892578 20.335938 L 167.892578 19.412109 L 174.729980 19.412109 L 174.729980 20.335938 Z " fill="rgb(0, 0, 0)" fill-opacity="1.000000" />
<path d="M 174.892578 20.335938 L 174.892578 19.412109 L 181.729980 19.412109 L 181.729980 20.335938 Z " fill="rgb(0, 0, 0)" fill-opacity="1.000000" />
<path d="M 184.878906 26.319336 L 184.878906 20.335938 L 181.892578 20.335938 L 181.892578 19.412109 L 188.729980 19.412109 L 188.729980 20.335938 L 185.738281 20.335938 L 185.738281 26.319336 Z " fill="rgb(0, 0, 0)" fill-opacity="1.000000" />
<path d="M 188.892578 20.335938 L 188.892578 19.412109 L 195.729980 19.412109 L 195.729980 20.335938 Z " fill="rgb(0, 0, 0)" fill-opacity="1.000000" />
<path d="M 195.892578 20.335938 L 195.892578 19.412109 L 202.729980 19.412109 L 202.729980 20.335938 Z " fill="rgb(0, 0, 0)" fill-opacity="1.000000" />
<path d="M 202.892578 20.335938 L 202.892578 19.412109 L 209.729980 19.412109 L 209.729980 20.335938 Z " fill="rgb(0, 0, 0)" fill-opacity="1.000000" />
<path d="M 209.892578 20.335938 L 209.892578 19.412109 L 216.729980 19.412109 L 216.729980 20.335938 Z " fill="rgb(0, 0, 0)" fill-opacity="1.000000" />
<path d="M 216.892578 20.335938 L 216.892578 19.412109 L 223.729980 19.412109 L 223.729980 20.335938 Z " fill="rgb(0, 0, 0)" fill-opacity="1.000000" />
<path d="M 223.892578 20.335938 L 223.892578 19.412109 L 230.729980 19.412109 L 230.729980 20.335938 Z " fill="rgb(0, 0, 0)" fill-opacity="1.000000" />
<path d="M 230.892578 20.335938 L 230.892578 19.412109 L 237.729980 19.412109 L 237.729980 20.335938 Z " fill="rgb(0, 0, 0)" fill-opacity="1.000000" />
<path d="M 237.892578 20.335938 L 237.892578 19.412109 L 244.729980 19.412109 L 244.729980 20.335938 Z " fill="rgb(0, 0, 0)" fill-opacity="1.000000" />
<path d="M 244.892578 20.335938 L 244.892578 19.412109 L 251.729980 19.412109 L 251.729980 20.335938 Z " fill="rgb(0, 0, 0)" fill-opacity="1.000000" />
<path d="M 251.892578 20.335938 L 251.892578 19.412109 L 258.729980 19.412109 L 258.729980 20.335938 Z " fill="rgb(0, 0, 0)" fill-opacity="1.000000" />
<path d="M 258.892578 20.335938 L 258.892578 19.412109 L 265.729980 19.412109 L 265.729980 20.335938 Z " fill="rgb(0, 0, 0)" fill-opacity="1.000000" />
<path d="M 265.892578 20.335938 L 265.892578 19.412109 L 272.729980 19.412109 L 272.729980 20.335938 Z " fill="rgb(0, 0, 0)" fill-opacity="1.000000" />
<path d="M 272.892578 20.335938 L 272.892578 19.412109 L 279.729980 19.412109 L 279.729980 20.335938 Z " fill="rgb(0, 0, 0)" fill-opacity="1.000000" />
<path d="M 279.892578 20.335938 L 279.892578 19.412109 L 286.729980 19.412109 L 286.729980 20.335938 Z " fill="rgb(0, 0, 0)" fill-opacity="1.000000" />
<path d="M 286.892578 20.335938 L 286.892578 19.412109 L 293.729980 19.412109 L 293.729980 20.335938 Z " fill="rgb(0, 0, 0)" fill-opacity="1.000000" />
<path d="M 293.892578 20.335938 L 293.892578 19.412109 L 300.729980 19.412109 L 300.729980 20.335938 Z " fill="rgb(0, 0, 0)" fill-opacity="1.000000" />
<path d="M 300.892578 20.335938 L 300.892578 19.412109 L 307.729980 19.412109 L 307.729980 20.335938 Z " fill="rgb(0, 0, 0)" fill-opacity="1.000000" />
<path d="M 307.892578 20.335938 L 307.892578 19.412109 L 314.729980 19.412109 L 314.729980 20.335938 Z " fill="rgb(0, 0, 0)" fill-opacity="1.000000" />
<path d="M 314.892578 20.335938 L 314.892578 19.412109 L 321.729980 19.412109 L 321.729980 20.335938 Z " fill="rgb(0, 0, 0)" fill-opacity="1.000000" />
<path d="M 321.892578 20.335938 L 321.892578 19.412109 L 328.729980 19.412109 L 328.729980 20.335938 Z " fill="rgb(0, 0, 0)" fill-opacity="1.000000" />
<path d="M 328.892578 20.335938 L 328.892578 19.412109 L 335.729980 19.412109 L 335.729980 20.335938 Z " fill="rgb(0, 0, 0)" fill-opacity="1.000000" />
<path d="M 335.892578 20.335938 L 335.892578 19.412109 L 342.729980 19.412109 L 342.729980 20.335938 Z " fill="rgb(0, 0, 0)" fill-opacity="1.000000" />
<path d="M 342.892578 20.335938 L 342.892578 19.412109 L 349.729980 19.412109 L 349.729980 20.335938 Z " fill="rgb(0, 0, 0)" fill-opacity="1.000000" />
<path d="M 349.892578 20.335938 L 349.892578 19.412109 L 356.729980 19.412109 L 356.729980 20.335938 Z " fill="rgb(0, 0, 0)" fill-opacity="1.000000" />
<path d="M 356.892578 20.335938 L 356.892578 19.412109 L 363.729980 19.412109 L 363.729980 20.335938 Z " fill="rgb(0, 0, 0)" fill-opacity="1.000000" />
<path d="M 366.878906 26.319336 L 366.878906 20.335938 L 363.892578 20.335938 L 363.892578 19.412109 L 370.729980 19.412109 L 370.729980 20.335938 L 367.738281 20.335938 L 367.738281 26.319336 Z " fill="rgb(0, 0, 0)" fill-opacity="1.000000" />
<path d="M 377.892578 20.335938 L 377.892578 19.412109 L 384.729980 19.412109 L 384.729980 20.335938 Z " fill="rgb(0, 0, 0)" fill-opacity="1.000000" />
<path d="M 391.892578 20.335938 L 391.892578 19.412109 L 398.729980 19.412109 L 398.729980 20.335938 Z " fill="rgb(0, 0, 0)" fill-opacity="1.000000" />
<path d="M 405.892578 20.335938 L 405.892578 19.412109 L 412.729980 19.412109 L 412.729980 20.335938 Z " fill="rgb(0, 0, 0)" fill-opacity="1.000000" />
<path d="M 419.892578 20.335938 L 419.892578 19.412109 L 426.729980 19.412109 L 426.729980 20.335938 Z " fill="rgb(0, 0, 0)" fill-opacity="1.000000" />
<path d="M 433.892578 20.335938 L 433.892578 19.412109 L 440.729980 19.412109 L 440.729980 20.335938 Z " fill="rgb(0, 0, 0)" fill-opacity="1.000000" />
<path d="M 447.892578 20.335938 L 447.892578 19.412109 L 454.729980 19.412109 L 454.729980 20.335938 Z " fill="rgb(0, 0, 0)" fill-opacity="1.000000" />
<path d="M 461.892578 20.335938 L 461.892578 19.412109 L 468.729980 19.412109 L 468.729980 20.335938 Z " fill="rgb(0, 0, 0)" fill-opacity="1.000000" />
<path d="M 475.892578 20.335938 L 475.892578 19.412109 L 482.729980 19.412109 L 482.729980 20.335938 Z " fill="rgb(0, 0, 0)" fill-opacity="1.000000" />
<path d="M 489.892578 20.335938 L 489.892578 19.412109 L 496.729980 19.412109 L 496.729980 20.335938 Z " fill="rgb(0, 0, 0)" fill-opacity="1.000000" />
<path d="M 503.892578 20.335938 L 503.892578 19.412109 L 510.729980 19.412109 L 510.729980 20.335938 Z " fill="rgb(0, 0, 0)" fill-opacity="1.000000" />
<path d="M 517.892578 20.335938 L 517.892578 19.412109 L 524.729980 19.412109 L 524.729980 20.335938 Z " fill="rgb(0, 0, 0)" fill-opacity="1.000000" />
<path d="M 531.892578 20.335938 L 531.892578 19.412109 L 538.729980 19.412109 L 538.729980 20.335938 Z " fill="rgb(0, 0, 0)" fill-opacity="1.000000" />
<path d="M 548.878906 26.319336 L 548.878906 20.335938 L 545.892578 20.335938 L 545.892578 19.412109 L 549.738281 19.412109 L 549.738281 26.319336 Z " fill="rgb(0, 0, 0)" fill-opacity="1.000000" />
<path d="M 52.770508 6.976074 L 52.442871 6.976074 Q 51.578125 6.976074 51.140381 7.279541 Q 50.702637 7.583008 50.702637 8.184570 Q 50.702637 8.727051 51.030273 9.027832 Q 51.357910 9.328613 51.937988 9.328613 Q 52.754395 9.328613 53.221680 8.761963 Q 53.688965 8.195312 53.694336 7.196289 L 53.694336 6.976074 Z M 54.687988 6.567871 L 54.687988 10.000000 L 53.694336 10.000000 L 53.694336 9.108398 Q 53.377441 9.645508 52.896729 9.900635 Q 52.416016 10.155762 51.728516 10.155762 Q 50.810059 10.155762 50.262207 9.637451 Q 49.714355 9.119141 49.714355 8.249023 Q 49.714355 7.244629 50.388428 6.723633 Q 51.062500 6.202637 52.367676 6.202637 L 53.694336 6.202637 L 53.694336 6.046875 Q 53.688965 5.327148 53.329102 5.002197 Q 52.969238 4.677246 52.179688 4.677246 Q 51.674805 4.677246 51.159180 4.822266 Q 50.643555 4.967285 50.154785 5.246582 L 50.154785 4.258301 Q 50.702637 4.048828 51.204834 3.944092 Q 51.707031 3.839355 52.179688 3.839355 Q 52.926270 3.839355 53.455322 4.059570 Q 53.984375 4.279785 54.312012 4.720215 Q 54.516113 4.988770 54.602051 5.383545 Q 54.687988 5.778320 54.687988 6.567871 Z " fill="rgb(0, 0, 0)" fill-opacity="1.000000" />
<path d="M 145.698730 9.693848 Q 145.301270 9.924805 144.879639 10.040283 Q 144.458008 10.155762 144.017578 10.155762 Q 142.621094 10.155762 141.834229 9.317871 Q 141.047363 8.479980 141.047363 6.997559 Q 141.047363 5.515137 141.834229 4.677246 Q 142.621094 3.839355 144.017578 3.839355 Q 144.452637 3.839355 144.866211 3.952148 Q 145.279785 4.064941 145.698730 4.301270 L 145.698730 5.337891 Q 145.306641 4.988770 144.911865 4.833008 Q 144.517090 4.677246 144.017578 4.677246 Q 143.088379 4.677246 142.588867 5.278809 Q 142.089355 5.880371 142.089355 6.997559 Q 142.089355 8.109375 142.591553 8.713623 Q 143.093750 9.317871 144.017578 9.317871 Q 144.533203 9.317871 144.941406 9.159424 Q 145.349609 9.000977 145.698730 8.667969 Z " fill="rgb(0, 0, 0)" fill-opacity="1.000000" />
<path d="M 277.930664 6.997559 Q 277.930664 5.848145 277.565430 5.262695 Q 277.200195 4.677246 276.485840 4.677246 Q 275.766113 4.677246 275.395508 5.265381 Q 275.024902 5.853516 275.024902 6.997559 Q 275.024902 8.136230 275.395508 8.727051 Q 275.766113 9.317871 276.485840 9.317871 Q 277.200195 9.317871 277.565430 8.732422 Q 277.930664 8.146973 277.930664 6.997559 Z M 275.024902 4.752441 Q 275.261230 4.312012 275.677490 4.075684 Q 276.093750 3.839355 276.641602 3.839355 Q 277.726562 3.839355 278.349609 4.674561 Q 278.972656 5.509766 278.972656 6.976074 Q 278.972656 8.463867 278.346924 9.309814 Q 277.721191 10.155762 276.630859 10.155762 Q 276.093750 10.155762 275.682861 9.922119 Q 275.271973 9.688477 275.024902 9.242676 L 275.024902 10.000000 L 274.036621 10.000000 L 274.036621 1.642578 L 275.024902 1.642578 Z " fill="rgb(0, 0, 0)" fill-opacity="1.000000" />
</svg>