<svg xmlns="http://www.w3.org/2000/svg" version="1.1" width="596" height="53">
<path d="M 2.878906 13.319336 L 2.878906 6.412109 L 6.729980 6.412109 L 6.729980 7.335938 L 3.738281 7.335938 L 3.738281 13.319336 Z " fill="rgb(0, 0, 0)" fill-opacity="1.000000" />
<path d="M 2.878906 26.319336 L 2.878906 12.300781 L 3.738281 12.300781 L 3.738281 26.319336 Z " fill="rgb(0, 0, 0)" fill-opacity="1.000000" />
<path d="M 2.878906 39.319336 L 2.878906 25.300781 L 3.738281 25.300781 L 3.738281 39.319336 Z " fill="rgb(0, 0, 0)" fill-opacity="1.000000" />
<path d="M 2.878906 46.335938 L 2.878906 38.300781 L 3.738281 38.300781 L 3.738281 45.412109 L 6.729980 45.412109 L 6.729980 46.335938 Z " fill="rgb(0, 0, 0)" fill-opacity="1.000000" />
<path d="M 6.892578 46.335938 L 6.892578 45.412109 L 13.729980 45.412109 L 13.729980 46.335938 Z " fill="rgb(0, 0, 0)" fill-opacity="1.000000" />
<path d="M 13.892578 46.335938 L 13.892578 45.412109 L 20.729980 45.412109 L 20.729980 46.335938 Z " fill="rgb(0, 0, 0)" fill-opacity="1.000000" />
<path d="M 20.892578 46.335938 L 20.892578 45.412109 L 27.729980 45.412109 L 27.729980 46.335938 Z " fill="rgb(0, 0, 0)" fill-opacity="1.000000" />
<path d="M 27.892578 46.335938 L 27.892578 45.412109 L 34.729980 45.412109 L 34.729980 46.335938 Z " fill="rgb(0, 0, 0)" fill-opacity="1.000000" />
<path d="M 34.892578 46.335938 L 34.892578 45.412109 L 41.729980 45.412109 L 41.729980 46.335938 Z " fill="rgb(0, 0, 0)" fill-opacity="1.000000" />
<path d="M 41.892578 46.335938 L 41.892578 45.412109 L 48.729980 45.412109 L 48.729980 46.335938 Z " fill="rgb(0, 0, 0)" fill-opacity="1.000000" />
<path d="M 48.892578 46.335938 L 48.892578 45.412109 L 55.729980 45.412109 L 55.729980 46.335938 Z " fill="rgb(0, 0, 0)" fill-opacity="1.000000" />
<path d="M 55.892578 46.335938 L 55.892578 45.412109 L 62.729980 45.412109 L 62.729980 46.335938 Z " fill="rgb(0, 0, 0)" fill-opacity="1.000000" />
<path d="M 62.892578 46.335938 L 62.892578 45.412109 L 65.878906 45.412109 L 65.878906 38.300781 L 66.738281 38.300781 L 66.738281 46.335938 Z " fill="rgb(0, 0, 0)" fill-opacity="1.000000" />
<path d="M 76.892578 46.335938 L 76.892578 45.412109 L 83.729980 45.412109 L 83.729980 46.335938 Z " fill="rgb(0, 0, 0)" fill-opacity="1.000000" />
<path d="M 90.892578 46.335938 L 90.892578 45.412109 L 97.729980 45.412109 L 97.729980 46.335938 Z " fill="rgb(0, 0, 0)" fill-opacity="1.000000" />
<path d="M 104.892578 46.335938 L 104.892578 45.412109 L 111.729980 45.412109 L 111.729980 46.335938 Z " fill="rgb(0, 0, 0)" fill-opacity="1.000000" />
<path d="M 118.892578 46.335938 L 118.892578 45.412109 L 125.729980 45.412109 L 125.729980 46.335938 Z " fill="rgb(0, 0, 0)" fill-opacity="1.000000" />
<path d="M 132.892578 46.335938 L 132.892578 45.412109 L 139.729980 45.412109 L 139.729980 46.335938 Z " fill="rgb(0, 0, 0)" fill-opacity="1.000000" />
<path d="M 146.892578 46.335938 L 146.892578 45.412109 L 153.729980 45.412109 L 153.729980 46.335938 Z " fill="rgb(0, 0, 0)" fill-opacity="1.000000" />
<path d="M 160.892578 46.335938 L 160.892578 45.412109 L 167.729980 45.412109 L 167.729980 46.335938 Z " fill="rgb(0, 0, 0)" fill-opacity="1.000000" />
<path d="M 174.892578 46.335938 L 174.892578 45.412109 L 181.729980 45.412109 L 181.729980 46.335938 Z " fill="rgb(0, 0, 0)" fill-opacity="1.000000" />
<path d="M 188.892578 46.335938 L 188.892578 45.412109 L 195.729980 45.412109 L 195.729980 46.335938 Z " fill="rgb(0, 0, 0)" fill-opacity="1.000000" />
<path d="M 202.892578 46.335938 L 202.892578 45.412109 L 209.729980 45.412109 L 209.729980 46.335938 Z " fill="rgb(0, 0, 0)" fill-opacity="1.000000" />
<path d="M 216.892578 46.335938 L 216.892578 45.412109 L 223.729980 45.412109 L 223.729980 46.335938 Z " fill="rgb(0, 0, 0)" fill-opacity="1.000000" />
<path d="M 230.892578 46.335938 L 230.892578 45.412109 L 237.729980 45.412109 L 237.729980 46.335938 Z " fill="rgb(0, 0, 0)" fill-opacity="1.000000" />
<path d="M 244.892578 46.335938 L 244.892578 45.412109 L 251.729980 45.412109 L 251.729980 46.335938 Z " fill="rgb(0, 0, 0)" fill-opacity="1.000000" />
<path d="M 258.892578 46.335938 L 258.892578 45.412109 L 265.729980 45.412109 L 265.729980 46.335938 Z " fill="rgb(0, 0, 0)" fill-opacity="1.000000" />
<path d="M 272.892578 46.335938 L 272.892578 45.412109 L 279.729980 45.412109 L 279.729980 46.335938 Z " fill="rgb(0, 0, 0)" fill-opacity="1.000000" />
<path d="M 286.892578 46.335938 L 286.892578 45.412109 L 293.729980 45.412109 L 293.729980 46.335938 Z " fill="rgb(0, 0, 0)" fill-opacity="1.000000" />
<path d="M 300.892578 46.335938 L 300.892578 45.412109 L 307.729980 45.412109 L 307.729980 46.335938 Z " fill="rgb(0, 0, 0)" fill-opacity="1.000000" />
<path d="M 314.892578 46.335938 L 314.892578 45.412109 L 321.729980 45.412109 L 321.729980 46.335938 Z " fill="rgb(0, 0, 0)" fill-opacity="1.000000" />
<path d="M 328.892578 46.335938 L 328.892578 45.412109 L 335.729980 45.412109 L 335.729980 46.335938 Z " fill="rgb(0, 0, 0)" fill-opacity="1.000000" />
<path d="M 342.892578 46.335938 L 342.892578 45.412109 L 349.729980 45.412109 L 349.729980 46.335938 Z " fill="rgb(0, 0, 0)" fill-opacity="1.000000" />
<path d="M 356.892578 46.335938 L 356.892578 45.412109 L 363.729980 45.412109 L 363.729980 46.335938 Z " fill="rgb(0, 0, 0)" fill-opacity="1.000000" />
<path d="M 370.892578 46.335938 L 370.892578 45.412109 L 377.729980 45.412109 L 377.729980 46.335938 Z " fill="rgb(0, 0, 0)" fill-opacity="1.000000" />
<path d="M 384.892578 46.335938 L 384.892578 45.412109 L 391.729980 45.412109 L 391.729980 46.335938 Z " fill="rgb(0, 0, 0)" fill-opacity="1.000000" />
<path d="M 398.892578 46.335938 L 398.892578 45.412109 L 405.729980 45.412109 L 405.729980 46.335938 Z " fill="rgb(0, 0, 0)" fill-opacity="1.000000" />
<path d="M 412.892578 46.335938 L 412.892578 45.412109 L 419.729980 45.412109 L 419.729980 46.335938 Z " fill="rgb(0, 0, 0)" fill-opacity="1.000000" />
<path d="M 426.892578 46.335938 L 426.892578 45.412109 L 433.729980 45.412109 L 433.729980 46.335938 Z " fill="rgb(0, 0, 0)" fill-opacity="1.000000" />
<path d="M 440.892578 46.335938 L 440.892578 45.412109 L 447.729980 45.412109 L 447.729980 46.335938 Z " fill="rgb(0, 0, 0)" fill-opacity="1.000000" />
<path d="M 454.892578 46.335938 L 454.892578 45.412109 L 461.729980 45.412109 L 461.729980 46.335938 Z " fill="rgb(0, 0, 0)" fill-opacity="1.000000" />
<path d="M 468.892578 46.335938 L 468.892578 45.412109 L 475.729980 45.412109 L 475.729980 46.335938 Z " fill="rgb(0, 0, 0)" fill-opacity="1.000000" />
<path d="M 482.892578 46.335938 L 482.892578 45.412109 L 489.729980 45.412109 L 489.729980 46.335938 Z " fill="rgb(0, 0, 0)" fill-opacity="1.000000" />
<path d="M 496.892578 46.335938 L 496.892578 45.412109 L 503.729980 45.412109 L 503.729980 46.335938 Z " fill="rgb(0, 0, 0)" fill-opacity="1.000000" />
<path d="M 510.892578 46.335938 L 510.892578 45.412109 L 517.729980 45.412109 L 517.729980 46.335938 Z " fill="rgb(0, 0, 0)" fill-opacity="1.000000" />
<path d="M 524.892578 46.335938 L 524.892578 45.412109 L 531.729980 45.412109 L 531.729980 46.335938 Z " fill="rgb(0, 0, 0)" fill-opacity="1.000000" />
<path d="M 538.892578 46.335938 L 538.892578 45.412109 L 545.729980 45.412109 L 545.729980 46.335938 Z " fill="rgb(0, 0, 0)" fill-opacity="1.000000" />
<path d="M 552.892578 46.335938 L 552.892578 45.412109 L 559.729980 45.412109 L 559.729980 46.335938 Z " fill="rgb(0, 0, 0)" fill-opacity="1.000000" />
<path d="M 566.892578 46.335938 L 566.892578 45.412109 L 573.729980 45.412109 L 573.729980 46.335938 Z " fill="rgb(0, 0, 0)" fill-opacity="1.000000" />
<path d="M 580.892578 46.335938 L 580.892578 45.412109 L 587.729980 45.412109 L 587.729980 46.335938 Z " fill="rgb(0, 0, 0)" fill-opacity="1.000000" />
<path d="M 8.450195 22.092285 L 10.136719 22.092285 L 10.136719 16.033691 L 8.117188 17.005859 L 8.117188 15.963867 L 10.125977 15.007812 L 11.210938 15.007812 L 11.210938 22.092285 L 12.875977 22.092285 L 12.875977 23.000000 L 8.450195 23.000000 Z " fill="rgb(0, 0, 0)" fill-opacity="1.000000" />
<path d="M 19.709473 27.642578 L 19.709473 28.464355 L 18.586914 28.464355 Q 18.055176 28.464355 17.848389 28.681885 Q 17.641602 28.899414 17.641602 29.452637 L 17.641602 29.984375 L 19.709473 29.984375 L 19.709473 30.752441 L 17.641602 30.752441 L 17.641602 36.000000 L 16.653320 36.000000 L 16.653320 30.752441 L 15.047363 30.752441 L 15.047363 29.984375 L 16.653320 29.984375 L 16.653320 29.565430 Q 16.653320 28.577148 17.107178 28.109863 Q 17.561035 27.642578 18.522461 27.642578 Z " fill="rgb(0, 0, 0)" fill-opacity="1.000000" />
<path d="M 24.770508 32.976074 L 24.442871 32.976074 Q 23.578125 32.976074 23.140381 33.279541 Q 22.702637 33.583008 22.702637 34.184570 Q 22.702637 34.727051 23.030273 35.027832 Q 23.357910 35.328613 23.937988 35.328613 Q 24.754395 35.328613 25.221680 34.761963 Q 25.688965 34.195312 25.694336 33.196289 L 25.694336 32.976074 Z M 26.687988 32.567871 L 26.687988 36.000000 L 25.694336 36.000000 L 25.694336 35.108398 Q 25.377441 35.645508 24.896729 35.900635 Q 24.416016 36.155762 23.728516 36.155762 Q 22.810059 36.155762 22.262207 35.637451 Q 21.714355 35.119141 21.714355 34.249023 Q 21.714355 33.244629 22.388428 32.723633 Q 23.062500 32.202637 24.367676 32.202637 L 25.694336 32.202637 L 25.694336 32.046875 Q 25.688965 31.327148 25.329102 31.002197 Q 24.969238 30.677246 24.179688 30.677246 Q 23.674805 30.677246 23.159180 30.822266 Q 22.643555 30.967285 22.154785 31.246582 L 22.154785 30.258301 Q 22.702637 30.048828 23.204834 29.944092 Q 23.707031 29.839355 24.179688 29.839355 Q 24.926270 29.839355 25.455322 30.059570 Q 25.984375 30.279785 26.312012 30.720215 Q 26.516113 30.988770 26.602051 31.383545 Q 26.687988 31.778320 26.687988 32.567871 Z " fill="rgb(0, 0, 0)" fill-opacity="1.000000" />
<path d="M 31.630859 30.596680 Q 31.813477 30.209961 32.095459 30.024658 Q 32.377441 29.839355 32.774902 29.839355 Q 33.500000 29.839355 33.798096 30.400635 Q 34.096191 30.961914 34.096191 32.514160 L 34.096191 36.000000 L 33.193848 36.000000 L 33.193848 32.557129 Q 33.193848 31.284180 33.051514 30.975342 Q 32.909180 30.666504 32.533203 30.666504 Q 32.103516 30.666504 31.945068 30.996826 Q 31.786621 31.327148 31.786621 32.557129 L 31.786621 36.000000 L 30.884277 36.000000 L 30.884277 32.557129 Q 30.884277 31.268066 30.731201 30.967285 Q 30.578125 30.666504 30.180664 30.666504 Q 29.788574 30.666504 29.635498 30.996826 Q 29.482422 31.327148 29.482422 32.557129 L 29.482422 36.000000 L 28.585449 36.000000 L 28.585449 29.984375 L 29.482422 29.984375 L 29.482422 30.500000 Q 29.659668 30.177734 29.925537 30.008545 Q 30.191406 29.839355 30.529785 29.839355 Q 30.937988 29.839355 31.209229 30.027344 Q 31.480469 30.215332 31.630859 30.596680 Z " fill="rgb(0, 0, 0)" fill-opacity="1.000000" />
<path d="M 36.697266 30.005859 L 39.227051 30.005859 L 39.227051 35.231934 L 41.187500 35.231934 L 41.187500 36.000000 L 36.278320 36.000000 L 36.278320 35.231934 L 38.238770 35.231934 L 38.238770 30.773926 L 36.697266 30.773926 Z M 38.238770 27.669434 L 39.227051 27.669434 L 39.227051 28.915527 L 38.238770 28.915527 Z " fill="rgb(0, 0, 0)" fill-opacity="1.000000" />
<path d="M 45.861816 33.824707 Q 45.861816 34.490723 46.106201 34.829102 Q 46.350586 35.167480 46.828613 35.167480 L 47.983398 35.167480 L 47.983398 36.000000 L 46.731934 36.000000 Q 45.845703 36.000000 45.359619 35.433350 Q 44.873535 34.866699 44.873535 33.824707 L 44.873535 28.383789 L 43.289062 28.383789 L 43.289062 27.610352 L 45.861816 27.610352 Z " fill="rgb(0, 0, 0)" fill-opacity="1.000000" />
<path d="M 53.608398 34.066406 Q 53.361328 34.694824 52.979980 35.720703 Q 52.448242 37.138672 52.265625 37.450195 Q 52.018555 37.869141 51.647949 38.078613 Q 51.277344 38.288086 50.783203 38.288086 L 49.988281 38.288086 L 49.988281 37.460938 L 50.573730 37.460938 Q 51.008789 37.460938 51.255859 37.208496 Q 51.502930 36.956055 51.884277 35.903320 L 49.558594 29.984375 L 50.605957 29.984375 L 52.389160 34.689453 L 54.145508 29.984375 L 55.192871 29.984375 Z " fill="rgb(0, 0, 0)" fill-opacity="1.000000" />
<path d="M 65.878906 39.319336 L 65.878906 25.300781 L 66.738281 25.300781 L 66.738281 39.319336 Z " fill="rgb(0, 0, 0)" fill-opacity="1.000000" />
<path d="M 72.878906 39.319336 L 72.878906 25.300781 L 73.738281 25.300781 L 73.738281 39.319336 Z " fill="rgb(0, 0, 0)" fill-opacity="1.000000" />
<path d="M 590.878906 39.319336 L 590.878906 25.300781 L 591.738281 25.300781 L 591.738281 39.319336 Z " fill="rgb(0, 0, 0)" fill-opacity="1.000000" />
<path d="M 25.930664 19.997559 Q 25.930664 18.848145 25.565430 18.262695 Q 25.200195 17.677246 24.485840 17.677246 Q 23.766113 17.677246 23.395508 18.265381 Q 23.024902 18.853516 23.024902 19.997559 Q 23.024902 21.136230 23.395508 21.727051 Q 23.766113 22.317871 24.485840 22.317871 Q 25.200195 22.317871 25.565430 21.732422 Q 25.930664 21.146973 25.930664 19.997559 Z M 23.024902 17.752441 Q 23.261230 17.312012 23.677490 17.075684 Q 24.093750 16.839355 24.641602 16.839355 Q 25.726562 16.839355 26.349609 17.674561 Q 26.972656 18.509766 26.972656 19.976074 Q 26.972656 21.463867 26.346924 22.309814 Q 25.721191 23.155762 24.630859 23.155762 Q 24.093750 23.155762 23.682861 22.922119 Q 23.271973 22.688477 23.024902 22.242676 L 23.024902 23.000000 L 22.036621 23.000000 L 22.036621 14.642578 L 23.024902 14.642578 Z " fill="rgb(0, 0, 0)" fill-opacity="1.000000" />
<path d="M 29.697266 17.005859 L 32.227051 17.005859 L 32.227051 22.231934 L 34.187500 22.231934 L 34.187500 23.000000 L 29.278320 23.000000 L 29.278320 22.231934 L 31.238770 22.231934 L 31.238770 17.773926 L 29.697266 17.773926 Z M 31.238770 14.669434 L 32.227051 14.669434 L 32.227051 15.915527 L 31.238770 15.915527 Z " fill="rgb(0, 0, 0)" fill-opacity="1.000000" />
<path d="M 38.297852 15.276367 L 38.297852 16.984375 L 40.542969 16.984375 L 40.542969 17.752441 L 38.297852 17.752441 L 38.297852 21.018066 Q 38.297852 21.684082 38.550293 21.947266 Q 38.802734 22.210449 39.431152 22.210449 L 40.542969 22.210449 L 40.542969 23.000000 L 39.334473 23.000000 Q 38.222656 23.000000 37.766113 22.554199 Q 37.309570 22.108398 37.309570 21.018066 L 37.309570 17.752441 L 35.703613 17.752441 L 35.703613 16.984375 L 37.309570 16.984375 L 37.309570 15.276367 Z " fill="rgb(0, 0, 0)" fill-opacity="1.000000" />
<path d="M 50.079590 14.980957 L 54.532227 14.980957 L 54.532227 15.894043 L 52.851074 15.894043 L 52.851074 22.086914 L 54.532227 22.086914 L 54.532227 23.000000 L 50.079590 23.000000 L 50.079590 22.086914 L 51.760742 22.086914 L 51.760742 15.894043 L 50.079590 15.894043 Z " fill="rgb(0, 0, 0)" fill-opacity="1.000000" />
<path d="M 58.143066 15.872559 L 58.143066 18.885742 L 59.399902 18.885742 Q 60.151855 18.885742 60.573486 18.488281 Q 60.995117 18.090820 60.995117 17.376465 Q 60.995117 16.662109 60.576172 16.267334 Q 60.157227 15.872559 59.399902 15.872559 Z M 57.058105 14.980957 L 59.399902 14.980957 Q 60.742676 14.980957 61.435547 15.590576 Q 62.128418 16.200195 62.128418 17.376465 Q 62.128418 18.563477 61.438232 19.170410 Q 60.748047 19.777344 59.399902 19.777344 L 58.143066 19.777344 L 58.143066 23.000000 L 57.058105 23.000000 Z " fill="rgb(0, 0, 0)" fill-opacity="1.000000" />
<path d="M 65.878906 26.319336 L 65.878906 12.300781 L 66.738281 12.300781 L 66.738281 26.319336 Z " fill="rgb(0, 0, 0)" fill-opacity="1.000000" />
<path d="M 151.167969 18.708496 Q 151.957520 18.917969 152.376465 19.452393 Q 152.795410 19.986816 152.795410 20.787109 Q 152.795410 21.893555 152.051514 22.524658 Q 151.307617 23.155762 149.991699 23.155762 Q 149.438477 23.155762 148.863770 23.053711 Q 148.289062 22.951660 147.735840 22.758301 L 147.735840 21.678711 Q 148.283691 21.963379 148.815430 22.103027 Q 149.347168 22.242676 149.873535 22.242676 Q 150.765137 22.242676 151.243164 21.839844 Q 151.721191 21.437012 151.721191 20.679688 Q 151.721191 19.981445 151.243164 19.570557 Q 150.765137 19.159668 149.948730 19.159668 L 149.121582 19.159668 L 149.121582 18.268066 L 149.948730 18.268066 Q 150.695312 18.268066 151.114258 17.940430 Q 151.533203 17.612793 151.533203 17.027344 Q 151.533203 16.409668 151.143799 16.079346 Q 150.754395 15.749023 150.034668 15.749023 Q 149.556641 15.749023 149.046387 15.856445 Q 148.536133 15.963867 147.977539 16.178711 L 147.977539 15.179688 Q 148.627441 15.007812 149.135010 14.921875 Q 149.642578 14.835938 150.034668 14.835938 Q 151.205566 14.835938 151.906494 15.424072 Q 152.607422 16.012207 152.607422 16.984375 Q 152.607422 17.645020 152.239502 18.085449 Q 151.871582 18.525879 151.167969 18.708496 Z " fill="rgb(0, 0, 0)" fill-opacity="1.000000" />
<path d="M 155.450195 22.092285 L 157.136719 22.092285 L 157.136719 16.033691 L 155.117188 17.005859 L 155.117188 15.963867 L 157.125977 15.007812 L 158.210938 15.007812 L 158.210938 22.092285 L 159.875977 22.092285 L 159.875977 23.000000 L 155.450195 23.000000 Z " fill="rgb(0, 0, 0)" fill-opacity="1.000000" />
<path d="M 172.592285 14.116211 Q 171.877930 15.340820 171.526123 16.557373 Q 171.174316 17.773926 171.174316 19.009277 Q 171.174316 20.239258 171.526123 21.458496 Q 171.877930 22.677734 172.592285 23.913086 L 171.732910 23.913086 Q 170.921875 22.634766 170.524414 21.423584 Q 170.126953 20.212402 170.126953 19.009277 Q 170.126953 17.811523 170.524414 16.597656 Q 170.921875 15.383789 171.732910 14.116211 Z " fill="rgb(0, 0, 0)" fill-opacity="1.000000" />
<path d="M 179.167969 18.708496 Q 179.957520 18.917969 180.376465 19.452393 Q 180.795410 19.986816 180.795410 20.787109 Q 180.795410 21.893555 180.051514 22.524658 Q 179.307617 23.155762 177.991699 23.155762 Q 177.438477 23.155762 176.863770 23.053711 Q 176.289062 22.951660 175.735840 22.758301 L 175.735840 21.678711 Q 176.283691 21.963379 176.815430 22.103027 Q 177.347168 22.242676 177.873535 22.242676 Q 178.765137 22.242676 179.243164 21.839844 Q 179.721191 21.437012 179.721191 20.679688 Q 179.721191 19.981445 179.243164 19.570557 Q 178.765137 19.159668 177.948730 19.159668 L 177.121582 19.159668 L 177.121582 18.268066 L 177.948730 18.268066 Q 178.695312 18.268066 179.114258 17.940430 Q 179.533203 17.612793 179.533203 17.027344 Q 179.533203 16.409668 179.143799 16.079346 Q 178.754395 15.749023 178.034668 15.749023 Q 177.556641 15.749023 177.046387 15.856445 Q 176.536133 15.963867 175.977539 16.178711 L 175.977539 15.179688 Q 176.627441 15.007812 177.135010 14.921875 Q 177.642578 14.835938 178.034668 14.835938 Q 179.205566 14.835938 179.906494 15.424072 Q 180.607422 16.012207 180.607422 16.984375 Q 180.607422 17.645020 180.239502 18.085449 Q 179.871582 18.525879 179.167969 18.708496 Z " fill="rgb(0, 0, 0)" fill-opacity="1.000000" />
<path d="M 184.003418 22.086914 L 187.687988 22.086914 L 187.687988 23.000000 L 182.816406 23.000000 L 182.816406 22.086914 Q 183.820801 21.028809 184.572754 20.217773 Q 185.324707 19.406738 185.609375 19.073730 Q 186.146484 18.418457 186.334473 18.012939 Q 186.522461 17.607422 186.522461 17.183105 Q 186.522461 16.511719 186.127686 16.130371 Q 185.732910 15.749023 185.045410 15.749023 Q 184.556641 15.749023 184.019531 15.926270 Q 183.482422 16.103516 182.880859 16.463379 L 182.880859 15.367676 Q 183.434082 15.104492 183.968506 14.970215 Q 184.502930 14.835938 185.023926 14.835938 Q 186.200195 14.835938 186.917236 15.461670 Q 187.634277 16.087402 187.634277 17.102539 Q 187.634277 17.618164 187.395264 18.133789 Q 187.156250 18.649414 186.619141 19.272461 Q 186.318359 19.621582 185.746338 20.239258 Q 185.174316 20.856934 184.003418 22.086914 Z " fill="rgb(0, 0, 0)" fill-opacity="1.000000" />
<path d="M 189.547852 19.111328 L 195.241211 19.111328 L 195.241211 20.019043 L 189.547852 20.019043 Z " fill="rgb(0, 0, 0)" fill-opacity="1.000000" />
<path d="M 200.930664 19.997559 Q 200.930664 18.848145 200.565430 18.262695 Q 200.200195 17.677246 199.485840 17.677246 Q 198.766113 17.677246 198.395508 18.265381 Q 198.024902 18.853516 198.024902 19.997559 Q 198.024902 21.136230 198.395508 21.727051 Q 198.766113 22.317871 199.485840 22.317871 Q 200.200195 22.317871 200.565430 21.732422 Q 200.930664 21.146973 200.930664 19.997559 Z M 198.024902 17.752441 Q 198.261230 17.312012 198.677490 17.075684 Q 199.093750 16.839355 199.641602 16.839355 Q 200.726562 16.839355 201.349609 17.674561 Q 201.972656 18.509766 201.972656 19.976074 Q 201.972656 21.463867 201.346924 22.309814 Q 200.721191 23.155762 199.630859 23.155762 Q 199.093750 23.155762 198.682861 22.922119 Q 198.271973 22.688477 198.024902 22.242676 L 198.024902 23.000000 L 197.036621 23.000000 L 197.036621 14.642578 L 198.024902 14.642578 Z " fill="rgb(0, 0, 0)" fill-opacity="1.000000" />
<path d="M 204.697266 17.005859 L 207.227051 17.005859 L 207.227051 22.231934 L 209.187500 22.231934 L 209.187500 23.000000 L 204.278320 23.000000 L 204.278320 22.231934 L 206.238770 22.231934 L 206.238770 17.773926 L 204.697266 17.773926 Z M 206.238770 14.669434 L 207.227051 14.669434 L 207.227051 15.915527 L 206.238770 15.915527 Z " fill="rgb(0, 0, 0)" fill-opacity="1.000000" />
<path d="M 213.297852 15.276367 L 213.297852 16.984375 L 215.542969 16.984375 L 215.542969 17.752441 L 213.297852 17.752441 L 213.297852 21.018066 Q 213.297852 21.684082 213.550293 21.947266 Q 213.802734 22.210449 214.431152 22.210449 L 215.542969 22.210449 L 215.542969 23.000000 L 214.334473 23.000000 Q 213.222656 23.000000 212.766113 22.554199 Q 212.309570 22.108398 212.309570 21.018066 L 212.309570 17.752441 L 210.703613 17.752441 L 210.703613 16.984375 L 212.309570 16.984375 L 212.309570 15.276367 Z " fill="rgb(0, 0, 0)" fill-opacity="1.000000" />
<path d="M 227.630859 17.596680 Q 227.813477 17.209961 228.095459 17.024658 Q 228.377441 16.839355 228.774902 16.839355 Q 229.500000 16.839355 229.798096 17.400635 Q 230.096191 17.961914 230.096191 19.514160 L 230.096191 23.000000 L 229.193848 23.000000 L 229.193848 19.557129 Q 229.193848 18.284180 229.051514 17.975342 Q 228.909180 17.666504 228.533203 17.666504 Q 228.103516 17.666504 227.945068 17.996826 Q 227.786621 18.327148 227.786621 19.557129 L 227.786621 23.000000 L 226.884277 23.000000 L 226.884277 19.557129 Q 226.884277 18.268066 226.731201 17.967285 Q 226.578125 17.666504 226.180664 17.666504 Q 225.788574 17.666504 225.635498 17.996826 Q 225.482422 18.327148 225.482422 19.557129 L 225.482422 23.000000 L 224.585449 23.000000 L 224.585449 16.984375 L 225.482422 16.984375 L 225.482422 17.500000 Q 225.659668 17.177734 225.925537 17.008545 Q 226.191406 16.839355 226.529785 16.839355 Q 226.937988 16.839355 227.209229 17.027344 Q 227.480469 17.215332 227.630859 17.596680 Z " fill="rgb(0, 0, 0)" fill-opacity="1.000000" />
<path d="M 234.770508 19.976074 L 234.442871 19.976074 Q 233.578125 19.976074 233.140381 20.279541 Q 232.702637 20.583008 232.702637 21.184570 Q 232.702637 21.727051 233.030273 22.027832 Q 233.357910 22.328613 233.937988 22.328613 Q 234.754395 22.328613 235.221680 21.761963 Q 235.688965 21.195312 235.694336 20.196289 L 235.694336 19.976074 Z M 236.687988 19.567871 L 236.687988 23.000000 L 235.694336 23.000000 L 235.694336 22.108398 Q 235.377441 22.645508 234.896729 22.900635 Q 234.416016 23.155762 233.728516 23.155762 Q 232.810059 23.155762 232.262207 22.637451 Q 231.714355 22.119141 231.714355 21.249023 Q 231.714355 20.244629 232.388428 19.723633 Q 233.062500 19.202637 234.367676 19.202637 L 235.694336 19.202637 L 235.694336 19.046875 Q 235.688965 18.327148 235.329102 18.002197 Q 234.969238 17.677246 234.179688 17.677246 Q 233.674805 17.677246 233.159180 17.822266 Q 232.643555 17.967285 232.154785 18.246582 L 232.154785 17.258301 Q 232.702637 17.048828 233.204834 16.944092 Q 233.707031 16.839355 234.179688 16.839355 Q 234.926270 16.839355 235.455322 17.059570 Q 235.984375 17.279785 236.312012 17.720215 Q 236.516113 17.988770 236.602051 18.383545 Q 236.687988 18.778320 236.687988 19.567871 Z " fill="rgb(0, 0, 0)" fill-opacity="1.000000" />
<path d="M 243.698730 22.693848 Q 243.301270 22.924805 242.879639 23.040283 Q 242.458008 23.155762 242.017578 23.155762 Q 240.621094 23.155762 239.834229 22.317871 Q 239.047363 21.479980 239.047363 19.997559 Q 239.047363 18.515137 239.834229 17.677246 Q 240.621094 16.839355 242.017578 16.839355 Q 242.452637 16.839355 242.866211 16.952148 Q 243.279785 17.064941 243.698730 17.301270 L 243.698730 18.337891 Q 243.306641 17.988770 242.911865 17.833008 Q 242.517090 17.677246 242.017578 17.677246 Q 241.088379 17.677246 240.588867 18.278809 Q 240.089355 18.880371 240.089355 19.997559 Q 240.089355 21.109375 240.591553 21.713623 Q 241.093750 22.317871 242.017578 22.317871 Q 242.533203 22.317871 242.941406 22.159424 Q 243.349609 22.000977 243.698730 21.667969 Z " fill="rgb(0, 0, 0)" fill-opacity="1.000000" />
<path d="M 250.645020 19.272461 L 250.645020 23.000000 L 249.651367 23.000000 L 249.651367 19.272461 Q 249.651367 18.461426 249.366699 18.080078 Q 249.082031 17.698730 248.475098 17.698730 Q 247.782227 17.698730 247.408936 18.190186 Q 247.035645 18.681641 247.035645 19.600098 L 247.035645 23.000000 L 246.047363 23.000000 L 246.047363 14.642578 L 247.035645 14.642578 L 247.035645 17.886719 Q 247.298828 17.371094 247.750000 17.105225 Q 248.201172 16.839355 248.818848 16.839355 Q 249.737305 16.839355 250.191162 17.443604 Q 250.645020 18.047852 250.645020 19.272461 Z " fill="rgb(0, 0, 0)" fill-opacity="1.000000" />
<path d="M 253.697266 17.005859 L 256.227051 17.005859 L 256.227051 22.231934 L 258.187500 22.231934 L 258.187500 23.000000 L 253.278320 23.000000 L 253.278320 22.231934 L 255.238770 22.231934 L 255.238770 17.773926 L 253.697266 17.773926 Z M 255.238770 14.669434 L 256.227051 14.669434 L 256.227051 15.915527 L 255.238770 15.915527 Z " fill="rgb(0, 0, 0)" fill-opacity="1.000000" />
<path d="M 264.645020 19.272461 L 264.645020 23.000000 L 263.651367 23.000000 L 263.651367 19.272461 Q 263.651367 18.461426 263.366699 18.080078 Q 263.082031 17.698730 262.475098 17.698730 Q 261.782227 17.698730 261.408936 18.190186 Q 261.035645 18.681641 261.035645 19.600098 L 261.035645 23.000000 L 260.047363 23.000000 L 260.047363 16.984375 L 261.035645 16.984375 L 261.035645 17.886719 Q 261.298828 17.371094 261.750000 17.105225 Q 262.201172 16.839355 262.818848 16.839355 Q 263.737305 16.839355 264.191162 17.443604 Q 264.645020 18.047852 264.645020 19.272461 Z " fill="rgb(0, 0, 0)" fill-opacity="1.000000" />
<path d="M 272.015625 19.498047 L 272.015625 19.981445 L 267.734863 19.981445 L 267.734863 20.013672 Q 267.691895 21.243652 268.204834 21.780762 Q 268.717773 22.317871 269.652344 22.317871 Q 270.125000 22.317871 270.640625 22.167480 Q 271.156250 22.017090 271.741699 21.710938 L 271.741699 22.693848 Q 271.177734 22.924805 270.654053 23.040283 Q 270.130371 23.155762 269.641602 23.155762 Q 268.239746 23.155762 267.450195 22.315186 Q 266.660645 21.474609 266.660645 19.997559 Q 266.660645 18.558105 267.434082 17.698730 Q 268.207520 16.839355 269.496582 16.839355 Q 270.645996 16.839355 271.309326 17.618164 Q 271.972656 18.396973 272.015625 19.498047 Z M 271.027344 19.208008 Q 270.962891 18.584961 270.573486 18.131104 Q 270.184082 17.677246 269.453613 17.677246 Q 268.739258 17.677246 268.277344 18.149902 Q 267.815430 18.622559 267.772461 19.213379 Z " fill="rgb(0, 0, 0)" fill-opacity="1.000000" />
<path d="M 274.869141 14.116211 L 275.728516 14.116211 Q 276.539551 15.383789 276.937012 16.597656 Q 277.334473 17.811523 277.334473 19.009277 Q 277.334473 20.217773 276.937012 21.431641 Q 276.539551 22.645508 275.728516 23.913086 L 274.869141 23.913086 Q 275.583496 22.666992 275.935303 21.447754 Q 276.287109 20.228516 276.287109 19.009277 Q 276.287109 17.784668 275.935303 16.565430 Q 275.583496 15.346191 274.869141 14.116211 Z " fill="rgb(0, 0, 0)" fill-opacity="1.000000" />
<path d="M 290.308594 17.677246 Q 289.556641 17.677246 289.169922 18.262695 Q 288.783203 18.848145 288.783203 19.997559 Q 288.783203 21.141602 289.169922 21.729736 Q 289.556641 22.317871 290.308594 22.317871 Q 291.065918 22.317871 291.452637 21.729736 Q 291.839355 21.141602 291.839355 19.997559 Q 291.839355 18.848145 291.452637 18.262695 Q 291.065918 17.677246 290.308594 17.677246 Z M 290.308594 16.839355 Q 291.560059 16.839355 292.223389 17.650391 Q 292.886719 18.461426 292.886719 19.997559 Q 292.886719 21.539062 292.226074 22.347412 Q 291.565430 23.155762 290.308594 23.155762 Q 289.057129 23.155762 288.396484 22.347412 Q 287.735840 21.539062 287.735840 19.997559 Q 287.735840 18.461426 288.396484 17.650391 Q 289.057129 16.839355 290.308594 16.839355 Z " fill="rgb(0, 0, 0)" fill-opacity="1.000000" />
<path d="M 300.203613 18.225098 Q 299.886719 17.978027 299.559082 17.865234 Q 299.231445 17.752441 298.839355 17.752441 Q 297.915527 17.752441 297.426758 18.332520 Q 296.937988 18.912598 296.937988 20.008301 L 296.937988 23.000000 L 295.944336 23.000000 L 295.944336 16.984375 L 296.937988 16.984375 L 296.937988 18.160645 Q 297.185059 17.521484 297.697998 17.180420 Q 298.210938 16.839355 298.914551 16.839355 Q 299.279785 16.839355 299.596680 16.930664 Q 299.913574 17.021973 300.203613 17.215332 Z " fill="rgb(0, 0, 0)" fill-opacity="1.000000" />
<path d="M 313.322754 15.158203 L 313.322754 16.157227 Q 312.984375 15.958496 312.603027 15.853760 Q 312.221680 15.749023 311.808105 15.749023 Q 310.776855 15.749023 310.245117 16.525146 Q 309.713379 17.301270 309.713379 18.810547 Q 309.971191 18.273438 310.427734 17.986084 Q 310.884277 17.698730 311.475098 17.698730 Q 312.635254 17.698730 313.271729 18.410400 Q 313.908203 19.122070 313.908203 20.427246 Q 313.908203 21.727051 313.252930 22.441406 Q 312.597656 23.155762 311.410645 23.155762 Q 310.014160 23.155762 309.364258 22.154053 Q 308.714355 21.152344 308.714355 18.998535 Q 308.714355 16.968262 309.495850 15.902100 Q 310.277344 14.835938 311.759766 14.835938 Q 312.157227 14.835938 312.554688 14.919189 Q 312.952148 15.002441 313.322754 15.158203 Z M 311.389160 18.547363 Q 310.696289 18.547363 310.298828 19.046875 Q 309.901367 19.546387 309.901367 20.427246 Q 309.901367 21.308105 310.298828 21.807617 Q 310.696289 22.307129 311.389160 22.307129 Q 312.108887 22.307129 312.474121 21.831787 Q 312.839355 21.356445 312.839355 20.427246 Q 312.839355 19.492676 312.474121 19.020020 Q 312.108887 18.547363 311.389160 18.547363 Z " fill="rgb(0, 0, 0)" fill-opacity="1.000000" />
<path d="M 319.167969 18.708496 Q 319.957520 18.917969 320.376465 19.452393 Q 320.795410 19.986816 320.795410 20.787109 Q 320.795410 21.893555 320.051514 22.524658 Q 319.307617 23.155762 317.991699 23.155762 Q 317.438477 23.155762 316.863770 23.053711 Q 316.289062 22.951660 315.735840 22.758301 L 315.735840 21.678711 Q 316.283691 21.963379 316.815430 22.103027 Q 317.347168 22.242676 317.873535 22.242676 Q 318.765137 22.242676 319.243164 21.839844 Q 319.721191 21.437012 319.721191 20.679688 Q 319.721191 19.981445 319.243164 19.570557 Q 318.765137 19.159668 317.948730 19.159668 L 317.121582 19.159668 L 317.121582 18.268066 L 317.948730 18.268066 Q 318.695312 18.268066 319.114258 17.940430 Q 319.533203 17.612793 319.533203 17.027344 Q 319.533203 16.409668 319.143799 16.079346 Q 318.754395 15.749023 318.034668 15.749023 Q 317.556641 15.749023 317.046387 15.856445 Q 316.536133 15.963867 315.977539 16.178711 L 315.977539 15.179688 Q 316.627441 15.007812 317.135010 14.921875 Q 317.642578 14.835938 318.034668 14.835938 Q 319.205566 14.835938 319.906494 15.424072 Q 320.607422 16.012207 320.607422 16.984375 Q 320.607422 17.645020 320.239502 18.085449 Q 319.871582 18.525879 319.167969 18.708496 Z " fill="rgb(0, 0, 0)" fill-opacity="1.000000" />
<path d="M 333.930664 19.997559 Q 333.930664 18.848145 333.565430 18.262695 Q 333.200195 17.677246 332.485840 17.677246 Q 331.766113 17.677246 331.395508 18.265381 Q 331.024902 18.853516 331.024902 19.997559 Q 331.024902 21.136230 331.395508 21.727051 Q 331.766113 22.317871 332.485840 22.317871 Q 333.200195 22.317871 333.565430 21.732422 Q 333.930664 21.146973 333.930664 19.997559 Z M 331.024902 17.752441 Q 331.261230 17.312012 331.677490 17.075684 Q 332.093750 16.839355 332.641602 16.839355 Q 333.726562 16.839355 334.349609 17.674561 Q 334.972656 18.509766 334.972656 19.976074 Q 334.972656 21.463867 334.346924 22.309814 Q 333.721191 23.155762 332.630859 23.155762 Q 332.093750 23.155762 331.682861 22.922119 Q 331.271973 22.688477 331.024902 22.242676 L 331.024902 23.000000 L 330.036621 23.000000 L 330.036621 14.642578 L 331.024902 14.642578 Z " fill="rgb(0, 0, 0)" fill-opacity="1.000000" />
<path d="M 337.697266 17.005859 L 340.227051 17.005859 L 340.227051 22.231934 L 342.187500 22.231934 L 342.187500 23.000000 L 337.278320 23.000000 L 337.278320 22.231934 L 339.238770 22.231934 L 339.238770 17.773926 L 337.697266 17.773926 Z M 339.238770 14.669434 L 340.227051 14.669434 L 340.227051 15.915527 L 339.238770 15.915527 Z " fill="rgb(0, 0, 0)" fill-opacity="1.000000" />
<path d="M 346.297852 15.276367 L 346.297852 16.984375 L 348.542969 16.984375 L 348.542969 17.752441 L 346.297852 17.752441 L 346.297852 21.018066 Q 346.297852 21.684082 346.550293 21.947266 Q 346.802734 22.210449 347.431152 22.210449 L 348.542969 22.210449 L 348.542969 23.000000 L 347.334473 23.000000 Q 346.222656 23.000000 345.766113 22.554199 Q 345.309570 22.108398 345.309570 21.018066 L 345.309570 17.752441 L 343.703613 17.752441 L 343.703613 16.984375 L 345.309570 16.984375 L 345.309570 15.276367 Z " fill="rgb(0, 0, 0)" fill-opacity="1.000000" />
<path d="M 355.226074 17.193848 L 355.226074 18.160645 Q 354.801758 17.913574 354.372070 17.790039 Q 353.942383 17.666504 353.496582 17.666504 Q 352.825195 17.666504 352.494873 17.884033 Q 352.164551 18.101562 352.164551 18.547363 Q 352.164551 18.950195 352.411621 19.148926 Q 352.658691 19.347656 353.641602 19.535645 L 354.039062 19.610840 Q 354.774902 19.750488 355.153564 20.169434 Q 355.532227 20.588379 355.532227 21.259766 Q 355.532227 22.151367 354.898438 22.653564 Q 354.264648 23.155762 353.136719 23.155762 Q 352.690918 23.155762 352.202148 23.061768 Q 351.713379 22.967773 351.144043 22.779785 L 351.144043 21.759277 Q 351.697266 22.043945 352.202148 22.186279 Q 352.707031 22.328613 353.158203 22.328613 Q 353.813477 22.328613 354.173340 22.062744 Q 354.533203 21.796875 354.533203 21.318848 Q 354.533203 20.631348 353.217285 20.368164 L 353.174316 20.357422 L 352.803711 20.282227 Q 351.949707 20.115723 351.557617 19.720947 Q 351.165527 19.326172 351.165527 18.644043 Q 351.165527 17.779297 351.750977 17.309326 Q 352.336426 16.839355 353.421387 16.839355 Q 353.904785 16.839355 354.350586 16.927979 Q 354.796387 17.016602 355.226074 17.193848 Z " fill="rgb(0, 0, 0)" fill-opacity="1.000000" />
<path d="M 368.592285 14.116211 Q 367.877930 15.340820 367.526123 16.557373 Q 367.174316 17.773926 367.174316 19.009277 Q 367.174316 20.239258 367.526123 21.458496 Q 367.877930 22.677734 368.592285 23.913086 L 367.732910 23.913086 Q 366.921875 22.634766 366.524414 21.423584 Q 366.126953 20.212402 366.126953 19.009277 Q 366.126953 17.811523 366.524414 16.597656 Q 366.921875 15.383789 367.732910 14.116211 Z " fill="rgb(0, 0, 0)" fill-opacity="1.000000" />
<path d="M 376.322754 15.158203 L 376.322754 16.157227 Q 375.984375 15.958496 375.603027 15.853760 Q 375.221680 15.749023 374.808105 15.749023 Q 373.776855 15.749023 373.245117 16.525146 Q 372.713379 17.301270 372.713379 18.810547 Q 372.971191 18.273438 373.427734 17.986084 Q 373.884277 17.698730 374.475098 17.698730 Q 375.635254 17.698730 376.271729 18.410400 Q 376.908203 19.122070 376.908203 20.427246 Q 376.908203 21.727051 376.252930 22.441406 Q 375.597656 23.155762 374.410645 23.155762 Q 373.014160 23.155762 372.364258 22.154053 Q 371.714355 21.152344 371.714355 18.998535 Q 371.714355 16.968262 372.495850 15.902100 Q 373.277344 14.835938 374.759766 14.835938 Q 375.157227 14.835938 375.554688 14.919189 Q 375.952148 15.002441 376.322754 15.158203 Z M 374.389160 18.547363 Q 373.696289 18.547363 373.298828 19.046875 Q 372.901367 19.546387 372.901367 20.427246 Q 372.901367 21.308105 373.298828 21.807617 Q 373.696289 22.307129 374.389160 22.307129 Q 375.108887 22.307129 375.474121 21.831787 Q 375.839355 21.356445 375.839355 20.427246 Q 375.839355 19.492676 375.474121 19.020020 Q 375.108887 18.547363 374.389160 18.547363 Z " fill="rgb(0, 0, 0)" fill-opacity="1.000000" />
<path d="M 381.947754 15.969238 L 379.417969 20.207031 L 381.947754 20.207031 Z M 381.770508 14.980957 L 383.027344 14.980957 L 383.027344 20.207031 L 384.096191 20.207031 L 384.096191 21.087891 L 383.027344 21.087891 L 383.027344 23.000000 L 381.947754 23.000000 L 381.947754 21.087891 L 378.547852 21.087891 L 378.547852 20.062012 Z " fill="rgb(0, 0, 0)" fill-opacity="1.000000" />
<path d="M 385.547852 19.111328 L 391.241211 19.111328 L 391.241211 20.019043 L 385.547852 20.019043 Z " fill="rgb(0, 0, 0)" fill-opacity="1.000000" />
<path d="M 396.930664 19.997559 Q 396.930664 18.848145 396.565430 18.262695 Q 396.200195 17.677246 395.485840 17.677246 Q 394.766113 17.677246 394.395508 18.265381 Q 394.024902 18.853516 394.024902 19.997559 Q 394.024902 21.136230 394.395508 21.727051 Q 394.766113 22.317871 395.485840 22.317871 Q 396.200195 22.317871 396.565430 21.732422 Q 396.930664 21.146973 396.930664 19.997559 Z M 394.024902 17.752441 Q 394.261230 17.312012 394.677490 17.075684 Q 395.093750 16.839355 395.641602 16.839355 Q 396.726562 16.839355 397.349609 17.674561 Q 397.972656 18.509766 397.972656 19.976074 Q 397.972656 21.463867 397.346924 22.309814 Q 396.721191 23.155762 395.630859 23.155762 Q 395.093750 23.155762 394.682861 22.922119 Q 394.271973 22.688477 394.024902 22.242676 L 394.024902 23.000000 L 393.036621 23.000000 L 393.036621 14.642578 L 394.024902 14.642578 Z " fill="rgb(0, 0, 0)" fill-opacity="1.000000" />
<path d="M 400.697266 17.005859 L 403.227051 17.005859 L 403.227051 22.231934 L 405.187500 22.231934 L 405.187500 23.000000 L 400.278320 23.000000 L 400.278320 22.231934 L 402.238770 22.231934 L 402.238770 17.773926 L 400.697266 17.773926 Z M 402.238770 14.669434 L 403.227051 14.669434 L 403.227051 15.915527 L 402.238770 15.915527 Z " fill="rgb(0, 0, 0)" fill-opacity="1.000000" />
<path d="M 409.297852 15.276367 L 409.297852 16.984375 L 411.542969 16.984375 L 411.542969 17.752441 L 409.297852 17.752441 L 409.297852 21.018066 Q 409.297852 21.684082 409.550293 21.947266 Q 409.802734 22.210449 410.431152 22.210449 L 411.542969 22.210449 L 411.542969 23.000000 L 410.334473 23.000000 Q 409.222656 23.000000 408.766113 22.554199 Q 408.309570 22.108398 408.309570 21.018066 L 408.309570 17.752441 L 406.703613 17.752441 L 406.703613 16.984375 L 408.309570 16.984375 L 408.309570 15.276367 Z " fill="rgb(0, 0, 0)" fill-opacity="1.000000" />
<path d="M 423.630859 17.596680 Q 423.813477 17.209961 424.095459 17.024658 Q 424.377441 16.839355 424.774902 16.839355 Q 425.500000 16.839355 425.798096 17.400635 Q 426.096191 17.961914 426.096191 19.514160 L 426.096191 23.000000 L 425.193848 23.000000 L 425.193848 19.557129 Q 425.193848 18.284180 425.051514 17.975342 Q 424.909180 17.666504 424.533203 17.666504 Q 424.103516 17.666504 423.945068 17.996826 Q 423.786621 18.327148 423.786621 19.557129 L 423.786621 23.000000 L 422.884277 23.000000 L 422.884277 19.557129 Q 422.884277 18.268066 422.731201 17.967285 Q 422.578125 17.666504 422.180664 17.666504 Q 421.788574 17.666504 421.635498 17.996826 Q 421.482422 18.327148 421.482422 19.557129 L 421.482422 23.000000 L 420.585449 23.000000 L 420.585449 16.984375 L 421.482422 16.984375 L 421.482422 17.500000 Q 421.659668 17.177734 421.925537 17.008545 Q 422.191406 16.839355 422.529785 16.839355 Q 422.937988 16.839355 423.209229 17.027344 Q 423.480469 17.215332 423.630859 17.596680 Z " fill="rgb(0, 0, 0)" fill-opacity="1.000000" />
<path d="M 430.770508 19.976074 L 430.442871 19.976074 Q 429.578125 19.976074 429.140381 20.279541 Q 428.702637 20.583008 428.702637 21.184570 Q 428.702637 21.727051 429.030273 22.027832 Q 429.357910 22.328613 429.937988 22.328613 Q 430.754395 22.328613 431.221680 21.761963 Q 431.688965 21.195312 431.694336 20.196289 L 431.694336 19.976074 Z M 432.687988 19.567871 L 432.687988 23.000000 L 431.694336 23.000000 L 431.694336 22.108398 Q 431.377441 22.645508 430.896729 22.900635 Q 430.416016 23.155762 429.728516 23.155762 Q 428.810059 23.155762 428.262207 22.637451 Q 427.714355 22.119141 427.714355 21.249023 Q 427.714355 20.244629 428.388428 19.723633 Q 429.062500 19.202637 430.367676 19.202637 L 431.694336 19.202637 L 431.694336 19.046875 Q 431.688965 18.327148 431.329102 18.002197 Q 430.969238 17.677246 430.179688 17.677246 Q 429.674805 17.677246 429.159180 17.822266 Q 428.643555 17.967285 428.154785 18.246582 L 428.154785 17.258301 Q 428.702637 17.048828 429.204834 16.944092 Q 429.707031 16.839355 430.179688 16.839355 Q 430.926270 16.839355 431.455322 17.059570 Q 431.984375 17.279785 432.312012 17.720215 Q 432.516113 17.988770 432.602051 18.383545 Q 432.687988 18.778320 432.687988 19.567871 Z " fill="rgb(0, 0, 0)" fill-opacity="1.000000" />
<path d="M 439.698730 22.693848 Q 439.301270 22.924805 438.879639 23.040283 Q 438.458008 23.155762 438.017578 23.155762 Q 436.621094 23.155762 435.834229 22.317871 Q 435.047363 21.479980 435.047363 19.997559 Q 435.047363 18.515137 435.834229 17.677246 Q 436.621094 16.839355 438.017578 16.839355 Q 438.452637 16.839355 438.866211 16.952148 Q 439.279785 17.064941 439.698730 17.301270 L 439.698730 18.337891 Q 439.306641 17.988770 438.911865 17.833008 Q 438.517090 17.677246 438.017578 17.677246 Q 437.088379 17.677246 436.588867 18.278809 Q 436.089355 18.880371 436.089355 19.997559 Q 436.089355 21.109375 436.591553 21.713623 Q 437.093750 22.317871 438.017578 22.317871 Q 438.533203 22.317871 438.941406 22.159424 Q 439.349609 22.000977 439.698730 21.667969 Z " fill="rgb(0, 0, 0)" fill-opacity="1.000000" />
<path d="M 446.645020 19.272461 L 446.645020 23.000000 L 445.651367 23.000000 L 445.651367 19.272461 Q 445.651367 18.461426 445.366699 18.080078 Q 445.082031 17.698730 444.475098 17.698730 Q 443.782227 17.698730 443.408936 18.190186 Q 443.035645 18.681641 443.035645 19.600098 L 443.035645 23.000000 L 442.047363 23.000000 L 442.047363 14.642578 L 443.035645 14.642578 L 443.035645 17.886719 Q 443.298828 17.371094 443.750000 17.105225 Q 444.201172 16.839355 444.818848 16.839355 Q 445.737305 16.839355 446.191162 17.443604 Q 446.645020 18.047852 446.645020 19.272461 Z " fill="rgb(0, 0, 0)" fill-opacity="1.000000" />
<path d="M 449.697266 17.005859 L 452.227051 17.005859 L 452.227051 22.231934 L 454.187500 22.231934 L 454.187500 23.000000 L 449.278320 23.000000 L 449.278320 22.231934 L 451.238770 22.231934 L 451.238770 17.773926 L 449.697266 17.773926 Z M 451.238770 14.669434 L 452.227051 14.669434 L 452.227051 15.915527 L 451.238770 15.915527 Z " fill="rgb(0, 0, 0)" fill-opacity="1.000000" />
<path d="M 460.645020 19.272461 L 460.645020 23.000000 L 459.651367 23.000000 L 459.651367 19.272461 Q 459.651367 18.461426 459.366699 18.080078 Q 459.082031 17.698730 458.475098 17.698730 Q 457.782227 17.698730 457.408936 18.190186 Q 457.035645 18.681641 457.035645 19.600098 L 457.035645 23.000000 L 456.047363 23.000000 L 456.047363 16.984375 L 457.035645 16.984375 L 457.035645 17.886719 Q 457.298828 17.371094 457.750000 17.105225 Q 458.201172 16.839355 458.818848 16.839355 Q 459.737305 16.839355 460.191162 17.443604 Q 460.645020 18.047852 460.645020 19.272461 Z " fill="rgb(0, 0, 0)" fill-opacity="1.000000" />
<path d="M 468.015625 19.498047 L 468.015625 19.981445 L 463.734863 19.981445 L 463.734863 20.013672 Q 463.691895 21.243652 464.204834 21.780762 Q 464.717773 22.317871 465.652344 22.317871 Q 466.125000 22.317871 466.640625 22.167480 Q 467.156250 22.017090 467.741699 21.710938 L 467.741699 22.693848 Q 467.177734 22.924805 466.654053 23.040283 Q 466.130371 23.155762 465.641602 23.155762 Q 464.239746 23.155762 463.450195 22.315186 Q 462.660645 21.474609 462.660645 19.997559 Q 462.660645 18.558105 463.434082 17.698730 Q 464.207520 16.839355 465.496582 16.839355 Q 466.645996 16.839355 467.309326 17.618164 Q 467.972656 18.396973 468.015625 19.498047 Z M 467.027344 19.208008 Q 466.962891 18.584961 466.573486 18.131104 Q 466.184082 17.677246 465.453613 17.677246 Q 464.739258 17.677246 464.277344 18.149902 Q 463.815430 18.622559 463.772461 19.213379 Z " fill="rgb(0, 0, 0)" fill-opacity="1.000000" />
<path d="M 470.869141 14.116211 L 471.728516 14.116211 Q 472.539551 15.383789 472.937012 16.597656 Q 473.334473 17.811523 473.334473 19.009277 Q 473.334473 20.217773 472.937012 21.431641 Q 472.539551 22.645508 471.728516 23.913086 L 470.869141 23.913086 Q 471.583496 22.666992 471.935303 21.447754 Q 472.287109 20.228516 472.287109 19.009277 Q 472.287109 17.784668 471.935303 16.565430 Q 471.583496 15.346191 470.869141 14.116211 Z " fill="rgb(0, 0, 0)" fill-opacity="1.000000" />
<path d="M 486.861816 20.824707 Q 486.861816 21.490723 487.106201 21.829102 Q 487.350586 22.167480 487.828613 22.167480 L 488.983398 22.167480 L 488.983398 23.000000 L 487.731934 23.000000 Q 486.845703 23.000000 486.359619 22.433350 Q 485.873535 21.866699 485.873535 20.824707 L 485.873535 15.383789 L 484.289062 15.383789 L 484.289062 14.610352 L 486.861816 14.610352 Z " fill="rgb(0, 0, 0)" fill-opacity="1.000000" />
<path d="M 496.015625 19.498047 L 496.015625 19.981445 L 491.734863 19.981445 L 491.734863 20.013672 Q 491.691895 21.243652 492.204834 21.780762 Q 492.717773 22.317871 493.652344 22.317871 Q 494.125000 22.317871 494.640625 22.167480 Q 495.156250 22.017090 495.741699 21.710938 L 495.741699 22.693848 Q 495.177734 22.924805 494.654053 23.040283 Q 494.130371 23.155762 493.641602 23.155762 Q 492.239746 23.155762 491.450195 22.315186 Q 490.660645 21.474609 490.660645 19.997559 Q 490.660645 18.558105 491.434082 17.698730 Q 492.207520 16.839355 493.496582 16.839355 Q 494.645996 16.839355 495.309326 17.618164 Q 495.972656 18.396973 496.015625 19.498047 Z M 495.027344 19.208008 Q 494.962891 18.584961 494.573486 18.131104 Q 494.184082 17.677246 493.453613 17.677246 Q 492.739258 17.677246 492.277344 18.149902 Q 491.815430 18.622559 491.772461 19.213379 Z " fill="rgb(0, 0, 0)" fill-opacity="1.000000" />
<path d="M 502.709473 14.642578 L 502.709473 15.464355 L 501.586914 15.464355 Q 501.055176 15.464355 500.848389 15.681885 Q 500.641602 15.899414 500.641602 16.452637 L 500.641602 16.984375 L 502.709473 16.984375 L 502.709473 17.752441 L 500.641602 17.752441 L 500.641602 23.000000 L 499.653320 23.000000 L 499.653320 17.752441 L 498.047363 17.752441 L 498.047363 16.984375 L 499.653320 16.984375 L 499.653320 16.565430 Q 499.653320 15.577148 500.107178 15.109863 Q 500.561035 14.642578 501.522461 14.642578 Z " fill="rgb(0, 0, 0)" fill-opacity="1.000000" />
<path d="M 507.297852 15.276367 L 507.297852 16.984375 L 509.542969 16.984375 L 509.542969 17.752441 L 507.297852 17.752441 L 507.297852 21.018066 Q 507.297852 21.684082 507.550293 21.947266 Q 507.802734 22.210449 508.431152 22.210449 L 509.542969 22.210449 L 509.542969 23.000000 L 508.334473 23.000000 Q 507.222656 23.000000 506.766113 22.554199 Q 506.309570 22.108398 506.309570 21.018066 L 506.309570 17.752441 L 504.703613 17.752441 L 504.703613 16.984375 L 506.309570 16.984375 L 506.309570 15.276367 Z " fill="rgb(0, 0, 0)" fill-opacity="1.000000" />
<path d="M 6.892578 7.335938 L 6.892578 6.412109 L 13.729980 6.412109 L 13.729980 7.335938 Z " fill="rgb(0, 0, 0)" fill-opacity="1.000000" />
<path d="M 13.892578 7.335938 L 13.892578 6.412109 L 20.729980 6.412109 L 20.729980 7.335938 Z " fill="rgb(0, 0, 0)" fill-opacity="1.000000" />
<path d="M 20.892578 7.335938 L 20.892578 6.412109 L 27.729980 6.412109 L 27.729980 7.335938 Z " fill="rgb(0, 0, 0)" fill-opacity="1.000000" />
<path d="M 27.892578 7.335938 L 27.892578 6.412109 L 34.729980 6.412109 L 34.729980 7.335938 Z " fill="rgb(0, 0, 0)" fill-opacity="1.000000" />
<path d="M 34.892578 7.335938 L 34.892578 6.412109 L 41.729980 6.412109 L 41.729980 7.335938 Z " fill="rgb(0, 0, 0)" fill-opacity="1.000000" />
<path d="M 41.892578 7.335938 L 41.892578 6.412109 L 48.729980 6.412109 L 48.729980 7.335938 Z " fill="rgb(0, 0, 0)" fill-opacity="1.000000" />
<path d="M 48.892578 7.335938 L 48.892578 6.412109 L 55.729980 6.412109 L 55.729980 7.335938 Z " fill="rgb(0, 0, 0)" fill-opacity="1.000000" />
<path d="M 55.892578 7.335938 L 55.892578 6.412109 L 62.729980 6.412109 L 62.729980 7.335938 Z " fill="rgb(0, 0, 0)" fill-opacity="1.000000" />
<path d="M 65.878906 13.319336 L 65.878906 7.335938 L 62.892578 7.335938 L 62.892578 6.412109 L 66.738281 6.412109 L 66.738281 13.319336 Z " fill="rgb(0, 0, 0)" fill-opacity="1.000000" />
<path d="M 72.878906 13.319336 L 72.878906 6.412109 L 76.729980 6.412109 L 76.729980 7.335938 L 73.738281 7.335938 L 73.738281 13.319336 Z " fill="rgb(0, 0, 0)" fill-opacity="1.000000" />
<path d="M 83.892578 7.335938 L 83.892578 6.412109 L 90.729980 6.412109 L 90.729980 7.335938 Z " fill="rgb(0, 0, 0)" fill-opacity="1.000000" />
<path d="M 97.892578 7.335938 L 97.892578 6.412109 L 104.729980 6.412109 L 104.729980 7.335938 Z " fill="rgb(0, 0, 0)" fill-opacity="1.000000" />
<path d="M 111.892578 7.335938 L 111.892578 6.412109 L 118.729980 6.412109 L 118.729980 7.335938 Z " fill="rgb(0, 0, 0)" fill-opacity="1.000000" />
<path d="M 125.892578 7.335938 L 125.892578 6.412109 L 132.729980 6.412109 L 132.729980 7.335938 Z " fill="rgb(0, 0, 0)" fill-opacity="1.000000" />
<path d="M 139.892578 7.335938 L 139.892578 6.412109 L 146.729980 6.412109 L 146.729980 7.335938 Z " fill="rgb(0, 0, 0)" fill-opacity="1.000000" />
<path d="M 153.892578 7.335938 L 153.892578 6.412109 L 160.729980 6.412109 L 160.729980 7.335938 Z " fill="rgb(0, 0, 0)" fill-opacity="1.000000" />
<path d="M 167.892578 7.335938 L 167.892578 6.412109 L 174.729980 6.412109 L 174.729980 7.335938 Z " fill="rgb(0, 0, 0)" fill-opacity="1.000000" />
<path d="M 181.892578 7.335938 L 181.892578 6.412109 L 188.729980 6.412109 L 188.729980 7.335938 Z " fill="rgb(0, 0, 0)" fill-opacity="1.000000" />
<path d="M 195.892578 7.335938 L 195.892578 6.412109 L 202.729980 6.412109 L 202.729980 7.335938 Z " fill="rgb(0, 0, 0)" fill-opacity="1.000000" />
<path d="M 209.892578 7.335938 L 209.892578 6.412109 L 216.729980 6.412109 L 216.729980 7.335938 Z " fill="rgb(0, 0, 0)" fill-opacity="1.000000" />
<path d="M 223.892578 7.335938 L 223.892578 6.412109 L 230.729980 6.412109 L 230.729980 7.335938 Z " fill="rgb(0, 0, 0)" fill-opacity="1.000000" />
<path d="M 237.892578 7.335938 L 237.892578 6.412109 L 244.729980 6.412109 L 244.729980 7.335938 Z " fill="rgb(0, 0, 0)" fill-opacity="1.000000" />
<path d="M 251.892578 7.335938 L 251.892578 6.412109 L 258.729980 6.412109 L 258.729980 7.335938 Z " fill="rgb(0, 0, 0)" fill-opacity="1.000000" />
<path d="M 265.892578 7.335938 L 265.892578 6.412109 L 272.729980 6.412109 L 272.729980 7.335938 Z " fill="rgb(0, 0, 0)" fill-opacity="1.000000" />
<path d="M 279.892578 7.335938 L 279.892578 6.412109 L 286.729980 6.412109 L 286.729980 7.335938 Z " fill="rgb(0, 0, 0)" fill-opacity="1.000000" />
<path d="M 293.892578 7.335938 L 293.892578 6.412109 L 300.729980 6.412109 L 300.729980 7.335938 Z " fill="rgb(0, 0, 0)" fill-opacity="1.000000" />
<path d="M 307.892578 7.335938 L 307.892578 6.412109 L 314.729980 6.412109 L 314.729980 7.335938 Z " fill="rgb(0, 0, 0)" fill-opacity="1.000000" />
<path d="M 321.892578 7.335938 L 321.892578 6.412109 L 328.729980 6.412109 L 328.729980 7.335938 Z " fill="rgb(0, 0, 0)" fill-opacity="1.000000" />
<path d="M 335.892578 7.335938 L 335.892578 6.412109 L 342.729980 6.412109 L 342.729980 7.335938 Z " fill="rgb(0, 0, 0)" fill-opacity="1.000000" />
<path d="M 349.892578 7.335938 L 349.892578 6.412109 L 356.729980 6.412109 L 356.729980 7.335938 Z " fill="rgb(0, 0, 0)" fill-opacity="1.000000" />
<path d="M 363.892578 7.335938 L 363.892578 6.412109 L 370.729980 6.412109 L 370.729980 7.335938 Z " fill="rgb(0, 0, 0)" fill-opacity="1.000000" />
<path d="M 377.892578 7.335938 L 377.892578 6.412109 L 384.729980 6.412109 L 384.729980 7.335938 Z " fill="rgb(0, 0, 0)" fill-opacity="1.000000" />
<path d="M 391.892578 7.335938 L 391.892578 6.412109 L 398.729980 6.412109 L 398.729980 7.335938 Z " fill="rgb(0, 0, 0)" fill-opacity="1.000000" />
<path d="M 405.892578 7.335938 L 405.892578 6.412109 L 412.729980 6.412109 L 412.729980 7.335938 Z " fill="rgb(0, 0, 0)" fill-opacity="1.000000" />
<path d="M 419.892578 7.335938 L 419.892578 6.412109 L 426.729980 6.412109 L 426.729980 7.335938 Z " fill="rgb(0, 0, 0)" fill-opacity="1.000000" />
<path d="M 433.892578 7.335938 L 433.892578 6.412109 L 440.729980 6.412109 L 440.729980 7.335938 Z " fill="rgb(0, 0, 0)" fill-opacity="1.000000" />
<path d="M 447.892578 7.335938 L 447.892578 6.412109 L 454.729980 6.412109 L 454.729980 7.335938 Z " fill="rgb(0, 0, 0)" fill-opacity="1.000000" />
<path d="M 461.892578 7.335938 L 461.892578 6.412109 L 468.729980 6.412109 L 468.729980 7.335938 Z " fill="rgb(0, 0, 0)" fill-opacity="1.000000" />
<path d="M 475.892578 7.335938 L 475.892578 6.412109 L 482.729980 6.412109 L 482.729980 7.335938 Z " fill="rgb(0, 0, 0)" fill-opacity="1.000000" />
<path d="M 489.892578 7.335938 L 489.892578 6.412109 L 496.729980 6.412109 L 496.729980 7.335938 Z " fill="rgb(0, 0, 0)" fill-opacity="1.000000" />
<path d="M 503.892578 7.335938 L 503.892578 6.412109 L 510.729980 6.412109 L 510.729980 7.335938 Z " fill="rgb(0, 0, 0)" fill-opacity="1.000000" />
<path d="M 517.892578 7.335938 L 517.892578 6.412109 L 524.729980 6.412109 L 524.729980 7.335938 Z " fill="rgb(0, 0, 0)" fill-opacity="1.000000" />
<path d="M 531.892578 7.335938 L 531.892578 6.412109 L 538.729980 6.412109 L 538.729980 7.335938 Z " fill="rgb(0, 0, 0)" fill-opacity="1.000000" />
<path d="M 545.892578 7.335938 L 545.892578 6.412109 L 552.729980 6.412109 L 552.729980 7.335938 Z " fill="rgb(0, 0, 0)" fill-opacity="1.000000" />
<path d="M 559.892578 7.335938 L 559.892578 6.412109 L 566.729980 6.412109 L 566.729980 7.335938 Z " fill="rgb(0, 0, 0)" fill-opacity="1.000000" />
<path d="M 573.892578 7.335938 L 573.892578 6.412109 L 580.729980 6.412109 L 580.729980 7.335938 Z " fill="rgb(0, 0, 0)" fill-opacity="1.000000" />
<path d="M 590.878906 13.319336 L 590.878906 7.335938 L 587.892578 7.335938 L 587.892578 6.412109 L 591.738281 6.412109 L 591.738281 13.319336 Z " fill="rgb(0, 0, 0)" fill-opacity="1.000000" />
</svg>