<?xml version="1.0" encoding="UTF-8" standalone="no"?>
<!DOCTYPE svg PUBLIC "-//W3C//DTD SVG 1.1//EN" "http://www.w3.org/Graphics/SVG/1.1/DTD/svg11.dtd">
<svg width="100%" height="100%" viewBox="0 0 1792 1789" version="1.1" xmlns="http://www.w3.org/2000/svg" xmlns:xlink="http://www.w3.org/1999/xlink" xml:space="preserve" xmlns:serif="http://www.serif.com/" style="fill-rule:evenodd;clip-rule:evenodd;stroke-linecap:round;stroke-linejoin:round;stroke-miterlimit:2;">
    <g transform="matrix(0.988411,-0.988411,1.084812,1.084812,-2435.311427,598.344714)">
        <path d="M920.588,1561L2075,1561L2075,1781L920.057,1781L799.594,1671.242L920.588,1561Z" style="fill:none;"/>
        <clipPath id="_clip1">
            <path d="M920.588,1561L2075,1561L2075,1781L920.057,1781L799.594,1671.242L920.588,1561Z"/>
        </clipPath>
        <g clip-path="url(#_clip1)">
            <path d="M1375.41,1781.204L1495.165,1560.796" style="fill:none;stroke:rgb(35,24,24);stroke-width:0.43px;"/>
            <path d="M1356.122,1781.204L1475.878,1560.796" style="fill:none;stroke:rgb(35,24,24);stroke-width:0.43px;"/>
            <path d="M1336.835,1781.204L1456.59,1560.796" style="fill:none;stroke:rgb(35,24,24);stroke-width:0.43px;"/>
            <path d="M1317.547,1781.204L1437.302,1560.796" style="fill:none;stroke:rgb(35,24,24);stroke-width:0.43px;"/>
            <path d="M1298.259,1781.204L1418.014,1560.796" style="fill:none;stroke:rgb(35,24,24);stroke-width:0.43px;"/>
            <path d="M1278.971,1781.204L1398.726,1560.796" style="fill:none;stroke:rgb(35,24,24);stroke-width:0.43px;"/>
            <path d="M1259.683,1781.204L1379.439,1560.796" style="fill:none;stroke:rgb(35,24,24);stroke-width:0.43px;"/>
            <path d="M1240.396,1781.204L1360.151,1560.796" style="fill:none;stroke:rgb(35,24,24);stroke-width:0.43px;"/>
            <path d="M1221.108,1781.204L1340.863,1560.796" style="fill:none;stroke:rgb(35,24,24);stroke-width:0.43px;"/>
            <path d="M1201.82,1781.204L1321.575,1560.796" style="fill:none;stroke:rgb(35,24,24);stroke-width:0.43px;"/>
            <path d="M1182.532,1781.204L1302.287,1560.796" style="fill:none;stroke:rgb(35,24,24);stroke-width:0.43px;"/>
            <path d="M1163.244,1781.204L1282.999,1560.796" style="fill:none;stroke:rgb(35,24,24);stroke-width:0.43px;"/>
            <path d="M1143.956,1781.204L1263.712,1560.796" style="fill:none;stroke:rgb(35,24,24);stroke-width:0.43px;"/>
            <path d="M1124.669,1781.204L1244.424,1560.796" style="fill:none;stroke:rgb(35,24,24);stroke-width:0.43px;"/>
            <path d="M1105.381,1781.204L1225.136,1560.796" style="fill:none;stroke:rgb(35,24,24);stroke-width:0.43px;"/>
            <path d="M1086.093,1781.204L1205.848,1560.796" style="fill:none;stroke:rgb(35,24,24);stroke-width:0.43px;"/>
            <path d="M1066.805,1781.204L1186.56,1560.796" style="fill:none;stroke:rgb(35,24,24);stroke-width:0.43px;"/>
            <path d="M1047.517,1781.204L1167.273,1560.796" style="fill:none;stroke:rgb(35,24,24);stroke-width:0.43px;"/>
            <path d="M1028.23,1781.204L1147.985,1560.796" style="fill:none;stroke:rgb(35,24,24);stroke-width:0.43px;"/>
            <path d="M1008.942,1781.204L1128.697,1560.796" style="fill:none;stroke:rgb(35,24,24);stroke-width:0.43px;"/>
            <path d="M989.654,1781.204L1109.409,1560.796" style="fill:none;stroke:rgb(35,24,24);stroke-width:0.43px;"/>
            <path d="M970.366,1781.204L1090.121,1560.796" style="fill:none;stroke:rgb(35,24,24);stroke-width:0.43px;"/>
            <path d="M951.078,1781.204L1070.834,1560.796" style="fill:none;stroke:rgb(35,24,24);stroke-width:0.43px;"/>
            <path d="M931.791,1781.204L1051.546,1560.796" style="fill:none;stroke:rgb(35,24,24);stroke-width:0.43px;"/>
            <path d="M912.503,1781.204L1032.258,1560.796" style="fill:none;stroke:rgb(35,24,24);stroke-width:0.43px;"/>
            <path d="M893.215,1781.204L1012.97,1560.796" style="fill:none;stroke:rgb(35,24,24);stroke-width:0.43px;"/>
            <path d="M873.927,1781.204L993.682,1560.796" style="fill:none;stroke:rgb(35,24,24);stroke-width:0.43px;"/>
            <path d="M854.639,1781.204L974.395,1560.796" style="fill:none;stroke:rgb(35,24,24);stroke-width:0.43px;"/>
            <path d="M835.352,1781.204L955.107,1560.796" style="fill:none;stroke:rgb(35,24,24);stroke-width:0.43px;"/>
            <path d="M816.064,1781.204L935.819,1560.796" style="fill:none;stroke:rgb(35,24,24);stroke-width:0.43px;"/>
            <path d="M799.37,1776.429L916.531,1560.796" style="fill:none;stroke:rgb(35,24,24);stroke-width:0.43px;"/>
            <path d="M799.37,1740.93L897.243,1560.796" style="fill:none;stroke:rgb(35,24,24);stroke-width:0.43px;"/>
            <path d="M799.37,1705.431L877.955,1560.796" style="fill:none;stroke:rgb(35,24,24);stroke-width:0.43px;"/>
            <path d="M799.37,1669.932L858.668,1560.796" style="fill:none;stroke:rgb(35,24,24);stroke-width:0.43px;"/>
            <path d="M799.37,1634.433L839.38,1560.796" style="fill:none;stroke:rgb(35,24,24);stroke-width:0.43px;"/>
            <path d="M799.37,1598.934L820.092,1560.796" style="fill:none;stroke:rgb(35,24,24);stroke-width:0.43px;"/>
            <path d="M799.37,1563.435L800.804,1560.796" style="fill:none;stroke:rgb(35,24,24);stroke-width:0.43px;"/>
            <path d="M1394.698,1781.204L1514.453,1560.796" style="fill:none;stroke:rgb(35,24,24);stroke-width:0.43px;"/>
            <path d="M1413.986,1781.204L1533.741,1560.796" style="fill:none;stroke:rgb(35,24,24);stroke-width:0.43px;"/>
            <path d="M1433.274,1781.204L1553.029,1560.796" style="fill:none;stroke:rgb(35,24,24);stroke-width:0.43px;"/>
            <path d="M1452.561,1781.204L1572.317,1560.796" style="fill:none;stroke:rgb(35,24,24);stroke-width:0.43px;"/>
            <path d="M1471.849,1781.204L1591.604,1560.796" style="fill:none;stroke:rgb(35,24,24);stroke-width:0.43px;"/>
            <path d="M1491.137,1781.204L1610.892,1560.796" style="fill:none;stroke:rgb(35,24,24);stroke-width:0.43px;"/>
            <path d="M1510.425,1781.204L1630.18,1560.796" style="fill:none;stroke:rgb(35,24,24);stroke-width:0.43px;"/>
            <path d="M1529.713,1781.204L1649.468,1560.796" style="fill:none;stroke:rgb(35,24,24);stroke-width:0.43px;"/>
            <path d="M1549.001,1781.204L1668.756,1560.796" style="fill:none;stroke:rgb(35,24,24);stroke-width:0.43px;"/>
            <path d="M1568.288,1781.204L1688.044,1560.796" style="fill:none;stroke:rgb(35,24,24);stroke-width:0.43px;"/>
            <path d="M1587.576,1781.204L1707.331,1560.796" style="fill:none;stroke:rgb(35,24,24);stroke-width:0.43px;"/>
            <path d="M1606.864,1781.204L1726.619,1560.796" style="fill:none;stroke:rgb(35,24,24);stroke-width:0.43px;"/>
            <path d="M1626.152,1781.204L1745.907,1560.796" style="fill:none;stroke:rgb(35,24,24);stroke-width:0.43px;"/>
            <path d="M1645.44,1781.204L1765.195,1560.796" style="fill:none;stroke:rgb(35,24,24);stroke-width:0.43px;"/>
            <path d="M1664.727,1781.204L1784.483,1560.796" style="fill:none;stroke:rgb(35,24,24);stroke-width:0.43px;"/>
            <path d="M1684.015,1781.204L1803.77,1560.796" style="fill:none;stroke:rgb(35,24,24);stroke-width:0.43px;"/>
            <path d="M1703.303,1781.204L1823.058,1560.796" style="fill:none;stroke:rgb(35,24,24);stroke-width:0.43px;"/>
            <path d="M1722.591,1781.204L1842.346,1560.796" style="fill:none;stroke:rgb(35,24,24);stroke-width:0.43px;"/>
            <path d="M1741.879,1781.204L1861.634,1560.796" style="fill:none;stroke:rgb(35,24,24);stroke-width:0.43px;"/>
            <path d="M1761.166,1781.204L1880.922,1560.796" style="fill:none;stroke:rgb(35,24,24);stroke-width:0.43px;"/>
            <path d="M1780.454,1781.204L1900.209,1560.796" style="fill:none;stroke:rgb(35,24,24);stroke-width:0.43px;"/>
            <path d="M1799.742,1781.204L1919.497,1560.796" style="fill:none;stroke:rgb(35,24,24);stroke-width:0.43px;"/>
            <path d="M1819.03,1781.204L1938.785,1560.796" style="fill:none;stroke:rgb(35,24,24);stroke-width:0.43px;"/>
            <path d="M1838.318,1781.204L1958.073,1560.796" style="fill:none;stroke:rgb(35,24,24);stroke-width:0.43px;"/>
            <path d="M1857.605,1781.204L1977.361,1560.796" style="fill:none;stroke:rgb(35,24,24);stroke-width:0.43px;"/>
            <path d="M1876.893,1781.204L1996.648,1560.796" style="fill:none;stroke:rgb(35,24,24);stroke-width:0.43px;"/>
            <path d="M1896.181,1781.204L2015.936,1560.796" style="fill:none;stroke:rgb(35,24,24);stroke-width:0.43px;"/>
            <path d="M1915.469,1781.204L2035.224,1560.796" style="fill:none;stroke:rgb(35,24,24);stroke-width:0.43px;"/>
            <path d="M1934.757,1781.204L2054.512,1560.796" style="fill:none;stroke:rgb(35,24,24);stroke-width:0.43px;"/>
            <path d="M1954.045,1781.204L2073.8,1560.796" style="fill:none;stroke:rgb(35,24,24);stroke-width:0.43px;"/>
            <path d="M1973.332,1781.204L2075.224,1593.674" style="fill:none;stroke:rgb(35,24,24);stroke-width:0.43px;"/>
            <path d="M1992.62,1781.204L2075.224,1629.173" style="fill:none;stroke:rgb(35,24,24);stroke-width:0.43px;"/>
            <path d="M2011.908,1781.204L2075.224,1664.672" style="fill:none;stroke:rgb(35,24,24);stroke-width:0.43px;"/>
            <path d="M2031.196,1781.204L2075.224,1700.171" style="fill:none;stroke:rgb(35,24,24);stroke-width:0.43px;"/>
            <path d="M2050.484,1781.204L2075.224,1735.67" style="fill:none;stroke:rgb(35,24,24);stroke-width:0.43px;"/>
            <path d="M2069.771,1781.204L2075.224,1771.169" style="fill:none;stroke:rgb(35,24,24);stroke-width:0.43px;"/>
        </g>
        <path d="M920.588,1561L2075,1561L2075,1781L920.057,1781L799.594,1671.242L920.588,1561Z" style="fill:none;"/>
    </g>
    <g transform="matrix(1.129964,1.129964,-0.707107,0.707107,55.328471,-1863.918353)">
        <rect x="1418" y="370" width="350" height="234" style="fill:none;"/>
    </g>
    <g transform="matrix(1.058193,0,0,1,-512.592649,728.47518)">
        <g transform="matrix(0.945007,-0,-0,1,484.403763,-728.47518)">
            <path d="M1528,1599.725L1553,1618.475L1528,1637.225L1528,1599.725Z"/>
            <path d="M171,1618.475L1533,1618.475" style="fill:none;stroke:black;stroke-width:8.33px;stroke-miterlimit:1.5;"/>
        </g>
    </g>
    <g transform="matrix(0,-1.056662,1,0,-720,2301.078549)">
        <g transform="matrix(0,1,-0.946377,0,2177.687381,720)">
            <path d="M151.25,263.475L170,238.475L188.75,263.475L151.25,263.475Z"/>
            <path d="M170,1618.475L170,258.475" style="fill:none;stroke:black;stroke-width:8.33px;stroke-miterlimit:1.5;"/>
        </g>
    </g>
    <g transform="matrix(1.001949,-0.001949,-0.001949,1.001949,-465.868615,-644.656205)">
        <g transform="matrix(0.998059,0.001941,0.001941,0.998059,466.215669,644.309151)">
            <path d="M1411.861,341.153L1464.894,323.475L1447.216,376.508L1411.861,341.153Z"/>
            <path d="M177,1611.369C177,1611.369 1247.747,540.622 1436.61,351.759" style="fill:none;stroke:black;stroke-width:16.67px;stroke-miterlimit:1.5;"/>
        </g>
    </g>
    <g transform="matrix(1.340166,0,0,1.340166,-718.15542,-571.066338)">
        <g transform="matrix(31.090674,0,0,31.090674,701.700856,570.086293)">
        </g>
        <text x="627.071px" y="570.086px" style="font-family:'Monaco';font-size:31.091px;">cost</text>
    </g>
    <g transform="matrix(1.340166,0,0,1.340166,571.84458,928.933662)">
        <g transform="matrix(31.090674,0,0,31.090674,813.645499,570.086293)">
        </g>
        <text x="627.071px" y="570.086px" style="font-family:'Monaco';font-size:31.091px;">complexity</text>
    </g>
    <g transform="matrix(1.340166,0,0,1.340166,462.84458,40.933662)">
        <text x="645.729px" y="570.086px" style="font-family:'Monaco';font-size:31.091px;">zone of</text>
        <g transform="matrix(31.090674,0,0,31.090674,794.988058,611.545585)">
        </g>
        <text x="627.071px" y="611.546px" style="font-family:'Monaco';font-size:31.091px;">viability</text>
    </g>
    <g transform="matrix(0.680852,0,0,0.994595,90.742977,-622.157252)">
        <g transform="matrix(1.468748,-0,-0,1.005435,-133.278563,625.538542)">
            <path d="M1348.92,540.454L1319,549.475L1336.038,575.672L1348.92,540.454Z"/>
            <path d="M1337.783,556.345C1436.402,600.488 1420.447,733.475 1420.447,733.475" style="fill:none;stroke:black;stroke-width:8.33px;stroke-miterlimit:1.5;"/>
        </g>
    </g>
    <g transform="matrix(1.00355,-0.00355,-0.00355,1.00355,-2.771439,-2.228561)">
        <g transform="matrix(0.996475,0.003525,0.003525,0.996475,2.769525,2.230475)">
            <path d="M1292.155,240.428L1307.623,238.218L1305.413,253.686L1292.155,240.428Z"/>
            <path d="M172.833,1373.008C172.833,1373.008 1204.985,340.856 1300.552,245.29" style="fill:none;stroke:black;stroke-width:4.17px;stroke-miterlimit:1.5;stroke-dasharray:4.167,0.208,4.167,0,0,0;"/>
        </g>
    </g>
    <g transform="matrix(1.003994,-0.003994,-0.003994,1.003994,235.757132,241.242868)">
        <g transform="matrix(0.996038,0.003962,0.003962,0.996038,-235.778866,-241.221134)">
            <path d="M1531.155,483.428L1546.623,481.218L1544.413,496.686L1531.155,483.428Z"/>
            <path d="M410.833,1617.008C410.833,1617.008 1443.94,583.902 1539.552,488.29" style="fill:none;stroke:black;stroke-width:4.17px;stroke-miterlimit:1.5;"/>
        </g>
    </g>
</svg>
